G04 #@! TF.GenerationSoftware,KiCad,Pcbnew,(5.1.9)-1*
G04 #@! TF.CreationDate,2021-03-01T14:11:43+01:00*
G04 #@! TF.ProjectId,button - AAA,62757474-6f6e-4202-9d20-4141412e6b69,rev?*
G04 #@! TF.SameCoordinates,Original*
G04 #@! TF.FileFunction,Paste,Top*
G04 #@! TF.FilePolarity,Positive*
%FSLAX46Y46*%
G04 Gerber Fmt 4.6, Leading zero omitted, Abs format (unit mm)*
G04 Created by KiCad (PCBNEW (5.1.9)-1) date 2021-03-01 14:11:43*
%MOMM*%
%LPD*%
G01*
G04 APERTURE LIST*
%ADD10R,0.620000X0.900000*%
%ADD11R,0.650000X2.000000*%
%ADD12C,0.100000*%
%ADD13R,1.500000X1.500000*%
%ADD14R,1.500000X1.100000*%
%ADD15R,1.100000X1.500000*%
%ADD16R,2.500000X1.000000*%
%ADD17R,1.000000X1.800000*%
%ADD18R,0.900000X0.620000*%
%ADD19R,1.650000X2.250000*%
%ADD20R,2.794000X1.778000*%
%ADD21R,1.600000X2.180000*%
G04 APERTURE END LIST*
D10*
G04 #@! TO.C,C2*
X117275000Y-75325000D03*
X117275000Y-76625000D03*
G04 #@! TD*
D11*
G04 #@! TO.C,PS1*
X122450000Y-103075000D03*
X124350000Y-103075000D03*
X124350000Y-106125000D03*
D12*
G36*
X123725000Y-107125000D02*
G01*
X123075000Y-107125000D01*
X123075000Y-105125000D01*
X123725000Y-105125000D01*
X123725000Y-107125000D01*
G37*
D11*
X122450000Y-106125000D03*
G04 #@! TD*
G04 #@! TO.C,U2*
X129375000Y-103200000D03*
X131275000Y-103200000D03*
X131275000Y-106250000D03*
D12*
G36*
X130650000Y-107250000D02*
G01*
X130000000Y-107250000D01*
X130000000Y-105250000D01*
X130650000Y-105250000D01*
X130650000Y-107250000D01*
G37*
D11*
X129375000Y-106250000D03*
G04 #@! TD*
D13*
G04 #@! TO.C,R7*
X133270000Y-107250000D03*
X135670000Y-107250000D03*
G04 #@! TD*
G04 #@! TO.C,R6*
X135620000Y-61750000D03*
X135620000Y-64150000D03*
G04 #@! TD*
G04 #@! TO.C,R5*
X132725000Y-92450000D03*
X132725000Y-94850000D03*
G04 #@! TD*
G04 #@! TO.C,R4*
X127325000Y-92525000D03*
X127325000Y-94925000D03*
G04 #@! TD*
G04 #@! TO.C,R3*
X124650000Y-92525000D03*
X124650000Y-94925000D03*
G04 #@! TD*
G04 #@! TO.C,R2*
X130025000Y-92500000D03*
X130025000Y-94900000D03*
G04 #@! TD*
G04 #@! TO.C,R1*
X121775000Y-92525000D03*
X121775000Y-94925000D03*
G04 #@! TD*
D14*
G04 #@! TO.C,C3*
X128200000Y-99500000D03*
X130500000Y-99500000D03*
G04 #@! TD*
D15*
G04 #@! TO.C,C1*
X127025000Y-106250000D03*
X127025000Y-103950000D03*
G04 #@! TD*
D16*
G04 #@! TO.C,X1*
X134550000Y-74240000D03*
X134550000Y-76240000D03*
X134550000Y-78240000D03*
X134550000Y-80240000D03*
X134550000Y-82240000D03*
X134550000Y-84240000D03*
X134550000Y-86240000D03*
X134550000Y-88240000D03*
D17*
X131950000Y-89740000D03*
X129950000Y-89740000D03*
X127950000Y-89740000D03*
X125950000Y-89740000D03*
X123950000Y-89740000D03*
X121950000Y-89740000D03*
D16*
X119350000Y-88240000D03*
X119350000Y-86240000D03*
X119350000Y-84240000D03*
X119350000Y-82240000D03*
X119350000Y-80240000D03*
X119350000Y-78240000D03*
X119350000Y-76240000D03*
X119350000Y-74240000D03*
G04 #@! TD*
D18*
G04 #@! TO.C,C5*
X117925000Y-90850000D03*
X119225000Y-90850000D03*
G04 #@! TD*
D19*
G04 #@! TO.C,C4*
X122400000Y-99500000D03*
X125500000Y-99500000D03*
G04 #@! TD*
D20*
G04 #@! TO.C,L1*
X118750000Y-109798000D03*
X118750000Y-106242000D03*
G04 #@! TD*
G04 #@! TO.C,D1*
G36*
G01*
X132495000Y-63095000D02*
X133645000Y-63095000D01*
G75*
G02*
X133895000Y-63345000I0J-250000D01*
G01*
X133895000Y-64445000D01*
G75*
G02*
X133645000Y-64695000I-250000J0D01*
G01*
X132495000Y-64695000D01*
G75*
G02*
X132245000Y-64445000I0J250000D01*
G01*
X132245000Y-63345000D01*
G75*
G02*
X132495000Y-63095000I250000J0D01*
G01*
G37*
G36*
G01*
X132495000Y-60245000D02*
X133645000Y-60245000D01*
G75*
G02*
X133895000Y-60495000I0J-250000D01*
G01*
X133895000Y-61595000D01*
G75*
G02*
X133645000Y-61845000I-250000J0D01*
G01*
X132495000Y-61845000D01*
G75*
G02*
X132245000Y-61595000I0J250000D01*
G01*
X132245000Y-60495000D01*
G75*
G02*
X132495000Y-60245000I250000J0D01*
G01*
G37*
G04 #@! TD*
D21*
G04 #@! TO.C,SW2*
X134950000Y-95630000D03*
X134950000Y-104810000D03*
G04 #@! TD*
M02*
