G04 #@! TF.GenerationSoftware,KiCad,Pcbnew,(5.1.5)-1*
G04 #@! TF.CreationDate,2021-02-19T11:30:45+01:00*
G04 #@! TF.ProjectId,button - AAA,62757474-6f6e-4202-9d20-4141412e6b69,rev?*
G04 #@! TF.SameCoordinates,Original*
G04 #@! TF.FileFunction,Copper,L2,Bot*
G04 #@! TF.FilePolarity,Positive*
%FSLAX46Y46*%
G04 Gerber Fmt 4.6, Leading zero omitted, Abs format (unit mm)*
G04 Created by KiCad (PCBNEW (5.1.5)-1) date 2021-02-19 11:30:45*
%MOMM*%
%LPD*%
G04 APERTURE LIST*
%ADD10C,0.300000*%
%ADD11O,1.700000X1.700000*%
%ADD12R,1.700000X1.700000*%
%ADD13C,2.000000*%
%ADD14R,2.000000X2.000000*%
%ADD15O,1.200000X1.750000*%
%ADD16C,0.100000*%
%ADD17C,0.500000*%
%ADD18C,0.800000*%
%ADD19C,0.250000*%
%ADD20C,0.254000*%
G04 APERTURE END LIST*
D10*
X118650714Y-112312857D02*
X119150714Y-112312857D01*
X119248928Y-113098571D02*
X119061428Y-111598571D01*
X118347142Y-111598571D01*
X117248928Y-113098571D02*
X117963214Y-113098571D01*
X117775714Y-111598571D01*
D11*
X118370000Y-103060000D03*
X118370000Y-100520000D03*
X118370000Y-97980000D03*
X118370000Y-95440000D03*
D12*
X118370000Y-92900000D03*
D13*
X126790000Y-63870000D03*
D14*
X126790000Y-108570000D03*
D15*
X134930000Y-110490000D03*
G04 #@! TA.AperFunction,ComponentPad*
D16*
G36*
X133304505Y-109616204D02*
G01*
X133328773Y-109619804D01*
X133352572Y-109625765D01*
X133375671Y-109634030D01*
X133397850Y-109644520D01*
X133418893Y-109657132D01*
X133438599Y-109671747D01*
X133456777Y-109688223D01*
X133473253Y-109706401D01*
X133487868Y-109726107D01*
X133500480Y-109747150D01*
X133510970Y-109769329D01*
X133519235Y-109792428D01*
X133525196Y-109816227D01*
X133528796Y-109840495D01*
X133530000Y-109864999D01*
X133530000Y-111115001D01*
X133528796Y-111139505D01*
X133525196Y-111163773D01*
X133519235Y-111187572D01*
X133510970Y-111210671D01*
X133500480Y-111232850D01*
X133487868Y-111253893D01*
X133473253Y-111273599D01*
X133456777Y-111291777D01*
X133438599Y-111308253D01*
X133418893Y-111322868D01*
X133397850Y-111335480D01*
X133375671Y-111345970D01*
X133352572Y-111354235D01*
X133328773Y-111360196D01*
X133304505Y-111363796D01*
X133280001Y-111365000D01*
X132579999Y-111365000D01*
X132555495Y-111363796D01*
X132531227Y-111360196D01*
X132507428Y-111354235D01*
X132484329Y-111345970D01*
X132462150Y-111335480D01*
X132441107Y-111322868D01*
X132421401Y-111308253D01*
X132403223Y-111291777D01*
X132386747Y-111273599D01*
X132372132Y-111253893D01*
X132359520Y-111232850D01*
X132349030Y-111210671D01*
X132340765Y-111187572D01*
X132334804Y-111163773D01*
X132331204Y-111139505D01*
X132330000Y-111115001D01*
X132330000Y-109864999D01*
X132331204Y-109840495D01*
X132334804Y-109816227D01*
X132340765Y-109792428D01*
X132349030Y-109769329D01*
X132359520Y-109747150D01*
X132372132Y-109726107D01*
X132386747Y-109706401D01*
X132403223Y-109688223D01*
X132421401Y-109671747D01*
X132441107Y-109657132D01*
X132462150Y-109644520D01*
X132484329Y-109634030D01*
X132507428Y-109625765D01*
X132531227Y-109619804D01*
X132555495Y-109616204D01*
X132579999Y-109615000D01*
X133280001Y-109615000D01*
X133304505Y-109616204D01*
G37*
G04 #@! TD.AperFunction*
D13*
X123890000Y-59600000D03*
X123890000Y-55100000D03*
X130390000Y-59600000D03*
X130390000Y-55100000D03*
D17*
X121980000Y-89810000D03*
X133180000Y-61030000D03*
X134630000Y-88280000D03*
X134660000Y-86280000D03*
X126700000Y-95500000D03*
X124060000Y-107740000D03*
X122560000Y-102650000D03*
X130070000Y-105350000D03*
D18*
X134970000Y-104790000D03*
D17*
X119350000Y-88240000D03*
X124190000Y-93090000D03*
D19*
X133429999Y-61279999D02*
X133180000Y-61030000D01*
X135295010Y-73794990D02*
X135295010Y-63145010D01*
X120850000Y-88240000D02*
X135295010Y-73794990D01*
X135295010Y-63145010D02*
X133429999Y-61279999D01*
X119350000Y-88240000D02*
X120850000Y-88240000D01*
X121980000Y-91830000D02*
X121980000Y-89810000D01*
X118370000Y-95440000D02*
X121980000Y-91830000D01*
X119572081Y-103060000D02*
X124190000Y-98442081D01*
X118370000Y-103060000D02*
X119572081Y-103060000D01*
X124190000Y-98442081D02*
X124190000Y-93180000D01*
X128070000Y-88280000D02*
X134630000Y-88280000D01*
X118370000Y-97980000D02*
X128070000Y-88280000D01*
X118243997Y-96515001D02*
X119104999Y-96515001D01*
X118370000Y-100520000D02*
X117294999Y-99444999D01*
X117294999Y-97463999D02*
X118243997Y-96515001D01*
X117294999Y-99444999D02*
X117294999Y-97463999D01*
X129340000Y-86280000D02*
X134660000Y-86280000D01*
X119104999Y-96515001D02*
X129340000Y-86280000D01*
D20*
G36*
X128582338Y-53738129D02*
G01*
X129442009Y-53943006D01*
X129434192Y-53964587D01*
X130390000Y-54920395D01*
X130404143Y-54906253D01*
X130583748Y-55085858D01*
X130569605Y-55100000D01*
X131525413Y-56055808D01*
X131789814Y-55960044D01*
X131930704Y-55670429D01*
X132012384Y-55358892D01*
X132029697Y-55071015D01*
X132893910Y-55676249D01*
X133778022Y-56478045D01*
X134554672Y-57384328D01*
X135211609Y-58380803D01*
X135738472Y-59451750D01*
X136126957Y-60580295D01*
X136370937Y-61748638D01*
X136467531Y-62950423D01*
X136463362Y-63423695D01*
X136463077Y-63426588D01*
X136463031Y-65392294D01*
X136055010Y-65391849D01*
X136055010Y-63182333D01*
X136058686Y-63145010D01*
X136055010Y-63107687D01*
X136055010Y-63107677D01*
X136044013Y-62996024D01*
X136000556Y-62852763D01*
X135929984Y-62720734D01*
X135835011Y-62605009D01*
X135806013Y-62581211D01*
X134039515Y-60814714D01*
X134030990Y-60771855D01*
X133964277Y-60610795D01*
X133867424Y-60465845D01*
X133744155Y-60342576D01*
X133599205Y-60245723D01*
X133438145Y-60179010D01*
X133267165Y-60145000D01*
X133092835Y-60145000D01*
X132921855Y-60179010D01*
X132760795Y-60245723D01*
X132615845Y-60342576D01*
X132492576Y-60465845D01*
X132395723Y-60610795D01*
X132329010Y-60771855D01*
X132295000Y-60942835D01*
X132295000Y-61117165D01*
X132329010Y-61288145D01*
X132395723Y-61449205D01*
X132492576Y-61594155D01*
X132615845Y-61717424D01*
X132760795Y-61814277D01*
X132921855Y-61880990D01*
X132964714Y-61889515D01*
X134535011Y-63459813D01*
X134535011Y-65390189D01*
X127419293Y-65382416D01*
X127476088Y-65362795D01*
X127650044Y-65269814D01*
X127745808Y-65005413D01*
X126790000Y-64049605D01*
X125834192Y-65005413D01*
X125929956Y-65269814D01*
X126158591Y-65381039D01*
X119044975Y-65373269D01*
X119020196Y-65375682D01*
X118996363Y-65382883D01*
X118974394Y-65394595D01*
X118955132Y-65410368D01*
X118939316Y-65429596D01*
X118927556Y-65451540D01*
X118921005Y-65473051D01*
X118900314Y-65473000D01*
X118875053Y-65475474D01*
X118851239Y-65482734D01*
X118829298Y-65494500D01*
X118810075Y-65510321D01*
X118794307Y-65529587D01*
X118782601Y-65551560D01*
X118775406Y-65575394D01*
X118773000Y-65600174D01*
X118779909Y-70643844D01*
X118718529Y-72933585D01*
X118720304Y-72958418D01*
X118726890Y-72982427D01*
X118738034Y-73004690D01*
X118753306Y-73024352D01*
X118772121Y-73040656D01*
X118793755Y-73052976D01*
X118817378Y-73060839D01*
X118845045Y-73063987D01*
X134535010Y-73118116D01*
X134535010Y-73480188D01*
X120535199Y-87480000D01*
X119805538Y-87480000D01*
X119769205Y-87455723D01*
X119608145Y-87389010D01*
X119437165Y-87355000D01*
X119262835Y-87355000D01*
X119091855Y-87389010D01*
X118930795Y-87455723D01*
X118785845Y-87552576D01*
X118662576Y-87675845D01*
X118565723Y-87820795D01*
X118499010Y-87981855D01*
X118465000Y-88152835D01*
X118465000Y-88327165D01*
X118499010Y-88498145D01*
X118565723Y-88659205D01*
X118662576Y-88804155D01*
X118785845Y-88927424D01*
X118930795Y-89024277D01*
X119091855Y-89090990D01*
X119262835Y-89125000D01*
X119437165Y-89125000D01*
X119608145Y-89090990D01*
X119769205Y-89024277D01*
X119805538Y-89000000D01*
X120812678Y-89000000D01*
X120850000Y-89003676D01*
X120887322Y-89000000D01*
X120887333Y-89000000D01*
X120998986Y-88989003D01*
X121142247Y-88945546D01*
X121274276Y-88874974D01*
X121390001Y-88780001D01*
X121413804Y-88750997D01*
X135806014Y-74358788D01*
X135835011Y-74334991D01*
X135861342Y-74302907D01*
X135929984Y-74219267D01*
X136000556Y-74087237D01*
X136000556Y-74087236D01*
X136044013Y-73943976D01*
X136055010Y-73832323D01*
X136055010Y-73832314D01*
X136058686Y-73794991D01*
X136055010Y-73757668D01*
X136055010Y-73123360D01*
X136462849Y-73124767D01*
X136461916Y-112852600D01*
X120394375Y-112852600D01*
X120394375Y-110630000D01*
X117461791Y-110630000D01*
X117461676Y-107570000D01*
X125151928Y-107570000D01*
X125151928Y-109570000D01*
X125164188Y-109694482D01*
X125200498Y-109814180D01*
X125259463Y-109924494D01*
X125338815Y-110021185D01*
X125435506Y-110100537D01*
X125545820Y-110159502D01*
X125665518Y-110195812D01*
X125790000Y-110208072D01*
X127790000Y-110208072D01*
X127914482Y-110195812D01*
X128034180Y-110159502D01*
X128144494Y-110100537D01*
X128241185Y-110021185D01*
X128320537Y-109924494D01*
X128352338Y-109864999D01*
X131691928Y-109864999D01*
X131691928Y-111115001D01*
X131708992Y-111288255D01*
X131759528Y-111454851D01*
X131841595Y-111608387D01*
X131952038Y-111742962D01*
X132086613Y-111853405D01*
X132240149Y-111935472D01*
X132406745Y-111986008D01*
X132579999Y-112003072D01*
X133280001Y-112003072D01*
X133453255Y-111986008D01*
X133619851Y-111935472D01*
X133773387Y-111853405D01*
X133907962Y-111742962D01*
X134018405Y-111608387D01*
X134020967Y-111603594D01*
X134146526Y-111728078D01*
X134349467Y-111862421D01*
X134574718Y-111954591D01*
X134612391Y-111958462D01*
X134803000Y-111833731D01*
X134803000Y-110617000D01*
X135057000Y-110617000D01*
X135057000Y-111833731D01*
X135247609Y-111958462D01*
X135285282Y-111954591D01*
X135510533Y-111862421D01*
X135713474Y-111728078D01*
X135886307Y-111556725D01*
X136022390Y-111354946D01*
X136116493Y-111130496D01*
X136165000Y-110892000D01*
X136165000Y-110617000D01*
X135057000Y-110617000D01*
X134803000Y-110617000D01*
X134783000Y-110617000D01*
X134783000Y-110363000D01*
X134803000Y-110363000D01*
X134803000Y-109146269D01*
X135057000Y-109146269D01*
X135057000Y-110363000D01*
X136165000Y-110363000D01*
X136165000Y-110088000D01*
X136116493Y-109849504D01*
X136022390Y-109625054D01*
X135886307Y-109423275D01*
X135713474Y-109251922D01*
X135510533Y-109117579D01*
X135285282Y-109025409D01*
X135247609Y-109021538D01*
X135057000Y-109146269D01*
X134803000Y-109146269D01*
X134612391Y-109021538D01*
X134574718Y-109025409D01*
X134349467Y-109117579D01*
X134146526Y-109251922D01*
X134020967Y-109376406D01*
X134018405Y-109371613D01*
X133907962Y-109237038D01*
X133773387Y-109126595D01*
X133619851Y-109044528D01*
X133453255Y-108993992D01*
X133280001Y-108976928D01*
X132579999Y-108976928D01*
X132406745Y-108993992D01*
X132240149Y-109044528D01*
X132086613Y-109126595D01*
X131952038Y-109237038D01*
X131841595Y-109371613D01*
X131759528Y-109525149D01*
X131708992Y-109691745D01*
X131691928Y-109864999D01*
X128352338Y-109864999D01*
X128379502Y-109814180D01*
X128415812Y-109694482D01*
X128428072Y-109570000D01*
X128428072Y-107570000D01*
X128415812Y-107445518D01*
X128379502Y-107325820D01*
X128320537Y-107215506D01*
X128241185Y-107118815D01*
X128144494Y-107039463D01*
X128034180Y-106980498D01*
X127914482Y-106944188D01*
X127790000Y-106931928D01*
X125790000Y-106931928D01*
X125665518Y-106944188D01*
X125545820Y-106980498D01*
X125435506Y-107039463D01*
X125338815Y-107118815D01*
X125259463Y-107215506D01*
X125200498Y-107325820D01*
X125164188Y-107445518D01*
X125151928Y-107570000D01*
X117461676Y-107570000D01*
X117461549Y-104238987D01*
X117666589Y-104375990D01*
X117936842Y-104487932D01*
X118223740Y-104545000D01*
X118516260Y-104545000D01*
X118803158Y-104487932D01*
X119073411Y-104375990D01*
X119316632Y-104213475D01*
X119523475Y-104006632D01*
X119650909Y-103815913D01*
X119721067Y-103809003D01*
X119864328Y-103765546D01*
X119996357Y-103694974D01*
X120112082Y-103600001D01*
X120135885Y-103570997D01*
X124701004Y-99005879D01*
X124730001Y-98982082D01*
X124824974Y-98866357D01*
X124895546Y-98734328D01*
X124939003Y-98591067D01*
X124950000Y-98479414D01*
X124950000Y-98479406D01*
X124953676Y-98442081D01*
X124950000Y-98404756D01*
X124950000Y-93545538D01*
X124974277Y-93509205D01*
X125040990Y-93348145D01*
X125075000Y-93177165D01*
X125075000Y-93002835D01*
X125040990Y-92831855D01*
X124974277Y-92670795D01*
X124886049Y-92538753D01*
X128384802Y-89040000D01*
X134174462Y-89040000D01*
X134210795Y-89064277D01*
X134371855Y-89130990D01*
X134542835Y-89165000D01*
X134717165Y-89165000D01*
X134888145Y-89130990D01*
X135049205Y-89064277D01*
X135194155Y-88967424D01*
X135317424Y-88844155D01*
X135414277Y-88699205D01*
X135480990Y-88538145D01*
X135515000Y-88367165D01*
X135515000Y-88192835D01*
X135480990Y-88021855D01*
X135414277Y-87860795D01*
X135317424Y-87715845D01*
X135194155Y-87592576D01*
X135049205Y-87495723D01*
X134888145Y-87429010D01*
X134717165Y-87395000D01*
X134542835Y-87395000D01*
X134371855Y-87429010D01*
X134210795Y-87495723D01*
X134174462Y-87520000D01*
X129174802Y-87520000D01*
X129654802Y-87040000D01*
X134204462Y-87040000D01*
X134240795Y-87064277D01*
X134401855Y-87130990D01*
X134572835Y-87165000D01*
X134747165Y-87165000D01*
X134918145Y-87130990D01*
X135079205Y-87064277D01*
X135224155Y-86967424D01*
X135347424Y-86844155D01*
X135444277Y-86699205D01*
X135510990Y-86538145D01*
X135545000Y-86367165D01*
X135545000Y-86192835D01*
X135510990Y-86021855D01*
X135444277Y-85860795D01*
X135347424Y-85715845D01*
X135224155Y-85592576D01*
X135079205Y-85495723D01*
X134918145Y-85429010D01*
X134747165Y-85395000D01*
X134572835Y-85395000D01*
X134401855Y-85429010D01*
X134240795Y-85495723D01*
X134204462Y-85520000D01*
X129377322Y-85520000D01*
X129339999Y-85516324D01*
X129302676Y-85520000D01*
X129302667Y-85520000D01*
X129191014Y-85530997D01*
X129047753Y-85574454D01*
X128915724Y-85645026D01*
X128799999Y-85739999D01*
X128776201Y-85768997D01*
X119716001Y-94829198D01*
X119641641Y-94673080D01*
X119467588Y-94439731D01*
X119383534Y-94363966D01*
X119464180Y-94339502D01*
X119574494Y-94280537D01*
X119671185Y-94201185D01*
X119750537Y-94104494D01*
X119809502Y-93994180D01*
X119845812Y-93874482D01*
X119858072Y-93750000D01*
X119858072Y-92050000D01*
X119845812Y-91925518D01*
X119809502Y-91805820D01*
X119750537Y-91695506D01*
X119671185Y-91598815D01*
X119574494Y-91519463D01*
X119464180Y-91460498D01*
X119344482Y-91424188D01*
X119220000Y-91411928D01*
X117520000Y-91411928D01*
X117461064Y-91417733D01*
X117460369Y-73059210D01*
X117742936Y-73060185D01*
X117767721Y-73057830D01*
X117791570Y-73050686D01*
X117813567Y-73039025D01*
X117832866Y-73023298D01*
X117848727Y-73004107D01*
X117860538Y-72982191D01*
X117867848Y-72958392D01*
X117870373Y-72933624D01*
X117868018Y-72908839D01*
X117860874Y-72884990D01*
X117849213Y-72862993D01*
X117833486Y-72843694D01*
X117814295Y-72827833D01*
X117792379Y-72816022D01*
X117768580Y-72808712D01*
X117745888Y-72806211D01*
X117460360Y-72800557D01*
X117460025Y-63932595D01*
X125148282Y-63932595D01*
X125192039Y-64251675D01*
X125297205Y-64556088D01*
X125390186Y-64730044D01*
X125654587Y-64825808D01*
X126610395Y-63870000D01*
X126969605Y-63870000D01*
X127925413Y-64825808D01*
X128189814Y-64730044D01*
X128330704Y-64440429D01*
X128412384Y-64128892D01*
X128431718Y-63807405D01*
X128387961Y-63488325D01*
X128282795Y-63183912D01*
X128189814Y-63009956D01*
X127925413Y-62914192D01*
X126969605Y-63870000D01*
X126610395Y-63870000D01*
X125654587Y-62914192D01*
X125390186Y-63009956D01*
X125249296Y-63299571D01*
X125167616Y-63611108D01*
X125148282Y-63932595D01*
X117460025Y-63932595D01*
X117460000Y-63295007D01*
X117485494Y-62734587D01*
X125834192Y-62734587D01*
X126790000Y-63690395D01*
X127745808Y-62734587D01*
X127650044Y-62470186D01*
X127360429Y-62329296D01*
X127048892Y-62247616D01*
X126727405Y-62228282D01*
X126408325Y-62272039D01*
X126103912Y-62377205D01*
X125929956Y-62470186D01*
X125834192Y-62734587D01*
X117485494Y-62734587D01*
X117515445Y-62076211D01*
X117718693Y-60900104D01*
X118067742Y-59758751D01*
X118211490Y-59438967D01*
X122255000Y-59438967D01*
X122255000Y-59761033D01*
X122317832Y-60076912D01*
X122441082Y-60374463D01*
X122620013Y-60642252D01*
X122847748Y-60869987D01*
X123115537Y-61048918D01*
X123413088Y-61172168D01*
X123728967Y-61235000D01*
X124051033Y-61235000D01*
X124366912Y-61172168D01*
X124664463Y-61048918D01*
X124932252Y-60869987D01*
X125159987Y-60642252D01*
X125338918Y-60374463D01*
X125462168Y-60076912D01*
X125525000Y-59761033D01*
X125525000Y-59438967D01*
X128755000Y-59438967D01*
X128755000Y-59761033D01*
X128817832Y-60076912D01*
X128941082Y-60374463D01*
X129120013Y-60642252D01*
X129347748Y-60869987D01*
X129615537Y-61048918D01*
X129913088Y-61172168D01*
X130228967Y-61235000D01*
X130551033Y-61235000D01*
X130866912Y-61172168D01*
X131164463Y-61048918D01*
X131432252Y-60869987D01*
X131659987Y-60642252D01*
X131838918Y-60374463D01*
X131962168Y-60076912D01*
X132025000Y-59761033D01*
X132025000Y-59438967D01*
X131962168Y-59123088D01*
X131838918Y-58825537D01*
X131659987Y-58557748D01*
X131432252Y-58330013D01*
X131164463Y-58151082D01*
X130866912Y-58027832D01*
X130551033Y-57965000D01*
X130228967Y-57965000D01*
X129913088Y-58027832D01*
X129615537Y-58151082D01*
X129347748Y-58330013D01*
X129120013Y-58557748D01*
X128941082Y-58825537D01*
X128817832Y-59123088D01*
X128755000Y-59438967D01*
X125525000Y-59438967D01*
X125462168Y-59123088D01*
X125338918Y-58825537D01*
X125159987Y-58557748D01*
X124932252Y-58330013D01*
X124664463Y-58151082D01*
X124366912Y-58027832D01*
X124051033Y-57965000D01*
X123728967Y-57965000D01*
X123413088Y-58027832D01*
X123115537Y-58151082D01*
X122847748Y-58330013D01*
X122620013Y-58557748D01*
X122441082Y-58825537D01*
X122317832Y-59123088D01*
X122255000Y-59438967D01*
X118211490Y-59438967D01*
X118557088Y-58670145D01*
X119179016Y-57651453D01*
X119923714Y-56718740D01*
X120420811Y-56235413D01*
X122934192Y-56235413D01*
X123029956Y-56499814D01*
X123319571Y-56640704D01*
X123631108Y-56722384D01*
X123952595Y-56741718D01*
X124271675Y-56697961D01*
X124576088Y-56592795D01*
X124750044Y-56499814D01*
X124845808Y-56235413D01*
X129434192Y-56235413D01*
X129529956Y-56499814D01*
X129819571Y-56640704D01*
X130131108Y-56722384D01*
X130452595Y-56741718D01*
X130771675Y-56697961D01*
X131076088Y-56592795D01*
X131250044Y-56499814D01*
X131345808Y-56235413D01*
X130390000Y-55279605D01*
X129434192Y-56235413D01*
X124845808Y-56235413D01*
X123890000Y-55279605D01*
X122934192Y-56235413D01*
X120420811Y-56235413D01*
X120779446Y-55886714D01*
X121732700Y-55168508D01*
X122266301Y-54862970D01*
X122248282Y-55162595D01*
X122292039Y-55481675D01*
X122397205Y-55786088D01*
X122490186Y-55960044D01*
X122754587Y-56055808D01*
X123710395Y-55100000D01*
X124069605Y-55100000D01*
X125025413Y-56055808D01*
X125289814Y-55960044D01*
X125430704Y-55670429D01*
X125512384Y-55358892D01*
X125524189Y-55162595D01*
X128748282Y-55162595D01*
X128792039Y-55481675D01*
X128897205Y-55786088D01*
X128990186Y-55960044D01*
X129254587Y-56055808D01*
X130210395Y-55100000D01*
X129254587Y-54144192D01*
X128990186Y-54239956D01*
X128849296Y-54529571D01*
X128767616Y-54841108D01*
X128748282Y-55162595D01*
X125524189Y-55162595D01*
X125531718Y-55037405D01*
X125487961Y-54718325D01*
X125382795Y-54413912D01*
X125289814Y-54239956D01*
X125025413Y-54144192D01*
X124069605Y-55100000D01*
X123710395Y-55100000D01*
X123696253Y-55085858D01*
X123875858Y-54906253D01*
X123890000Y-54920395D01*
X124845808Y-53964587D01*
X124807497Y-53858813D01*
X125021087Y-53799999D01*
X126202442Y-53629863D01*
X127395791Y-53609130D01*
X128582338Y-53738129D01*
G37*
X128582338Y-53738129D02*
X129442009Y-53943006D01*
X129434192Y-53964587D01*
X130390000Y-54920395D01*
X130404143Y-54906253D01*
X130583748Y-55085858D01*
X130569605Y-55100000D01*
X131525413Y-56055808D01*
X131789814Y-55960044D01*
X131930704Y-55670429D01*
X132012384Y-55358892D01*
X132029697Y-55071015D01*
X132893910Y-55676249D01*
X133778022Y-56478045D01*
X134554672Y-57384328D01*
X135211609Y-58380803D01*
X135738472Y-59451750D01*
X136126957Y-60580295D01*
X136370937Y-61748638D01*
X136467531Y-62950423D01*
X136463362Y-63423695D01*
X136463077Y-63426588D01*
X136463031Y-65392294D01*
X136055010Y-65391849D01*
X136055010Y-63182333D01*
X136058686Y-63145010D01*
X136055010Y-63107687D01*
X136055010Y-63107677D01*
X136044013Y-62996024D01*
X136000556Y-62852763D01*
X135929984Y-62720734D01*
X135835011Y-62605009D01*
X135806013Y-62581211D01*
X134039515Y-60814714D01*
X134030990Y-60771855D01*
X133964277Y-60610795D01*
X133867424Y-60465845D01*
X133744155Y-60342576D01*
X133599205Y-60245723D01*
X133438145Y-60179010D01*
X133267165Y-60145000D01*
X133092835Y-60145000D01*
X132921855Y-60179010D01*
X132760795Y-60245723D01*
X132615845Y-60342576D01*
X132492576Y-60465845D01*
X132395723Y-60610795D01*
X132329010Y-60771855D01*
X132295000Y-60942835D01*
X132295000Y-61117165D01*
X132329010Y-61288145D01*
X132395723Y-61449205D01*
X132492576Y-61594155D01*
X132615845Y-61717424D01*
X132760795Y-61814277D01*
X132921855Y-61880990D01*
X132964714Y-61889515D01*
X134535011Y-63459813D01*
X134535011Y-65390189D01*
X127419293Y-65382416D01*
X127476088Y-65362795D01*
X127650044Y-65269814D01*
X127745808Y-65005413D01*
X126790000Y-64049605D01*
X125834192Y-65005413D01*
X125929956Y-65269814D01*
X126158591Y-65381039D01*
X119044975Y-65373269D01*
X119020196Y-65375682D01*
X118996363Y-65382883D01*
X118974394Y-65394595D01*
X118955132Y-65410368D01*
X118939316Y-65429596D01*
X118927556Y-65451540D01*
X118921005Y-65473051D01*
X118900314Y-65473000D01*
X118875053Y-65475474D01*
X118851239Y-65482734D01*
X118829298Y-65494500D01*
X118810075Y-65510321D01*
X118794307Y-65529587D01*
X118782601Y-65551560D01*
X118775406Y-65575394D01*
X118773000Y-65600174D01*
X118779909Y-70643844D01*
X118718529Y-72933585D01*
X118720304Y-72958418D01*
X118726890Y-72982427D01*
X118738034Y-73004690D01*
X118753306Y-73024352D01*
X118772121Y-73040656D01*
X118793755Y-73052976D01*
X118817378Y-73060839D01*
X118845045Y-73063987D01*
X134535010Y-73118116D01*
X134535010Y-73480188D01*
X120535199Y-87480000D01*
X119805538Y-87480000D01*
X119769205Y-87455723D01*
X119608145Y-87389010D01*
X119437165Y-87355000D01*
X119262835Y-87355000D01*
X119091855Y-87389010D01*
X118930795Y-87455723D01*
X118785845Y-87552576D01*
X118662576Y-87675845D01*
X118565723Y-87820795D01*
X118499010Y-87981855D01*
X118465000Y-88152835D01*
X118465000Y-88327165D01*
X118499010Y-88498145D01*
X118565723Y-88659205D01*
X118662576Y-88804155D01*
X118785845Y-88927424D01*
X118930795Y-89024277D01*
X119091855Y-89090990D01*
X119262835Y-89125000D01*
X119437165Y-89125000D01*
X119608145Y-89090990D01*
X119769205Y-89024277D01*
X119805538Y-89000000D01*
X120812678Y-89000000D01*
X120850000Y-89003676D01*
X120887322Y-89000000D01*
X120887333Y-89000000D01*
X120998986Y-88989003D01*
X121142247Y-88945546D01*
X121274276Y-88874974D01*
X121390001Y-88780001D01*
X121413804Y-88750997D01*
X135806014Y-74358788D01*
X135835011Y-74334991D01*
X135861342Y-74302907D01*
X135929984Y-74219267D01*
X136000556Y-74087237D01*
X136000556Y-74087236D01*
X136044013Y-73943976D01*
X136055010Y-73832323D01*
X136055010Y-73832314D01*
X136058686Y-73794991D01*
X136055010Y-73757668D01*
X136055010Y-73123360D01*
X136462849Y-73124767D01*
X136461916Y-112852600D01*
X120394375Y-112852600D01*
X120394375Y-110630000D01*
X117461791Y-110630000D01*
X117461676Y-107570000D01*
X125151928Y-107570000D01*
X125151928Y-109570000D01*
X125164188Y-109694482D01*
X125200498Y-109814180D01*
X125259463Y-109924494D01*
X125338815Y-110021185D01*
X125435506Y-110100537D01*
X125545820Y-110159502D01*
X125665518Y-110195812D01*
X125790000Y-110208072D01*
X127790000Y-110208072D01*
X127914482Y-110195812D01*
X128034180Y-110159502D01*
X128144494Y-110100537D01*
X128241185Y-110021185D01*
X128320537Y-109924494D01*
X128352338Y-109864999D01*
X131691928Y-109864999D01*
X131691928Y-111115001D01*
X131708992Y-111288255D01*
X131759528Y-111454851D01*
X131841595Y-111608387D01*
X131952038Y-111742962D01*
X132086613Y-111853405D01*
X132240149Y-111935472D01*
X132406745Y-111986008D01*
X132579999Y-112003072D01*
X133280001Y-112003072D01*
X133453255Y-111986008D01*
X133619851Y-111935472D01*
X133773387Y-111853405D01*
X133907962Y-111742962D01*
X134018405Y-111608387D01*
X134020967Y-111603594D01*
X134146526Y-111728078D01*
X134349467Y-111862421D01*
X134574718Y-111954591D01*
X134612391Y-111958462D01*
X134803000Y-111833731D01*
X134803000Y-110617000D01*
X135057000Y-110617000D01*
X135057000Y-111833731D01*
X135247609Y-111958462D01*
X135285282Y-111954591D01*
X135510533Y-111862421D01*
X135713474Y-111728078D01*
X135886307Y-111556725D01*
X136022390Y-111354946D01*
X136116493Y-111130496D01*
X136165000Y-110892000D01*
X136165000Y-110617000D01*
X135057000Y-110617000D01*
X134803000Y-110617000D01*
X134783000Y-110617000D01*
X134783000Y-110363000D01*
X134803000Y-110363000D01*
X134803000Y-109146269D01*
X135057000Y-109146269D01*
X135057000Y-110363000D01*
X136165000Y-110363000D01*
X136165000Y-110088000D01*
X136116493Y-109849504D01*
X136022390Y-109625054D01*
X135886307Y-109423275D01*
X135713474Y-109251922D01*
X135510533Y-109117579D01*
X135285282Y-109025409D01*
X135247609Y-109021538D01*
X135057000Y-109146269D01*
X134803000Y-109146269D01*
X134612391Y-109021538D01*
X134574718Y-109025409D01*
X134349467Y-109117579D01*
X134146526Y-109251922D01*
X134020967Y-109376406D01*
X134018405Y-109371613D01*
X133907962Y-109237038D01*
X133773387Y-109126595D01*
X133619851Y-109044528D01*
X133453255Y-108993992D01*
X133280001Y-108976928D01*
X132579999Y-108976928D01*
X132406745Y-108993992D01*
X132240149Y-109044528D01*
X132086613Y-109126595D01*
X131952038Y-109237038D01*
X131841595Y-109371613D01*
X131759528Y-109525149D01*
X131708992Y-109691745D01*
X131691928Y-109864999D01*
X128352338Y-109864999D01*
X128379502Y-109814180D01*
X128415812Y-109694482D01*
X128428072Y-109570000D01*
X128428072Y-107570000D01*
X128415812Y-107445518D01*
X128379502Y-107325820D01*
X128320537Y-107215506D01*
X128241185Y-107118815D01*
X128144494Y-107039463D01*
X128034180Y-106980498D01*
X127914482Y-106944188D01*
X127790000Y-106931928D01*
X125790000Y-106931928D01*
X125665518Y-106944188D01*
X125545820Y-106980498D01*
X125435506Y-107039463D01*
X125338815Y-107118815D01*
X125259463Y-107215506D01*
X125200498Y-107325820D01*
X125164188Y-107445518D01*
X125151928Y-107570000D01*
X117461676Y-107570000D01*
X117461549Y-104238987D01*
X117666589Y-104375990D01*
X117936842Y-104487932D01*
X118223740Y-104545000D01*
X118516260Y-104545000D01*
X118803158Y-104487932D01*
X119073411Y-104375990D01*
X119316632Y-104213475D01*
X119523475Y-104006632D01*
X119650909Y-103815913D01*
X119721067Y-103809003D01*
X119864328Y-103765546D01*
X119996357Y-103694974D01*
X120112082Y-103600001D01*
X120135885Y-103570997D01*
X124701004Y-99005879D01*
X124730001Y-98982082D01*
X124824974Y-98866357D01*
X124895546Y-98734328D01*
X124939003Y-98591067D01*
X124950000Y-98479414D01*
X124950000Y-98479406D01*
X124953676Y-98442081D01*
X124950000Y-98404756D01*
X124950000Y-93545538D01*
X124974277Y-93509205D01*
X125040990Y-93348145D01*
X125075000Y-93177165D01*
X125075000Y-93002835D01*
X125040990Y-92831855D01*
X124974277Y-92670795D01*
X124886049Y-92538753D01*
X128384802Y-89040000D01*
X134174462Y-89040000D01*
X134210795Y-89064277D01*
X134371855Y-89130990D01*
X134542835Y-89165000D01*
X134717165Y-89165000D01*
X134888145Y-89130990D01*
X135049205Y-89064277D01*
X135194155Y-88967424D01*
X135317424Y-88844155D01*
X135414277Y-88699205D01*
X135480990Y-88538145D01*
X135515000Y-88367165D01*
X135515000Y-88192835D01*
X135480990Y-88021855D01*
X135414277Y-87860795D01*
X135317424Y-87715845D01*
X135194155Y-87592576D01*
X135049205Y-87495723D01*
X134888145Y-87429010D01*
X134717165Y-87395000D01*
X134542835Y-87395000D01*
X134371855Y-87429010D01*
X134210795Y-87495723D01*
X134174462Y-87520000D01*
X129174802Y-87520000D01*
X129654802Y-87040000D01*
X134204462Y-87040000D01*
X134240795Y-87064277D01*
X134401855Y-87130990D01*
X134572835Y-87165000D01*
X134747165Y-87165000D01*
X134918145Y-87130990D01*
X135079205Y-87064277D01*
X135224155Y-86967424D01*
X135347424Y-86844155D01*
X135444277Y-86699205D01*
X135510990Y-86538145D01*
X135545000Y-86367165D01*
X135545000Y-86192835D01*
X135510990Y-86021855D01*
X135444277Y-85860795D01*
X135347424Y-85715845D01*
X135224155Y-85592576D01*
X135079205Y-85495723D01*
X134918145Y-85429010D01*
X134747165Y-85395000D01*
X134572835Y-85395000D01*
X134401855Y-85429010D01*
X134240795Y-85495723D01*
X134204462Y-85520000D01*
X129377322Y-85520000D01*
X129339999Y-85516324D01*
X129302676Y-85520000D01*
X129302667Y-85520000D01*
X129191014Y-85530997D01*
X129047753Y-85574454D01*
X128915724Y-85645026D01*
X128799999Y-85739999D01*
X128776201Y-85768997D01*
X119716001Y-94829198D01*
X119641641Y-94673080D01*
X119467588Y-94439731D01*
X119383534Y-94363966D01*
X119464180Y-94339502D01*
X119574494Y-94280537D01*
X119671185Y-94201185D01*
X119750537Y-94104494D01*
X119809502Y-93994180D01*
X119845812Y-93874482D01*
X119858072Y-93750000D01*
X119858072Y-92050000D01*
X119845812Y-91925518D01*
X119809502Y-91805820D01*
X119750537Y-91695506D01*
X119671185Y-91598815D01*
X119574494Y-91519463D01*
X119464180Y-91460498D01*
X119344482Y-91424188D01*
X119220000Y-91411928D01*
X117520000Y-91411928D01*
X117461064Y-91417733D01*
X117460369Y-73059210D01*
X117742936Y-73060185D01*
X117767721Y-73057830D01*
X117791570Y-73050686D01*
X117813567Y-73039025D01*
X117832866Y-73023298D01*
X117848727Y-73004107D01*
X117860538Y-72982191D01*
X117867848Y-72958392D01*
X117870373Y-72933624D01*
X117868018Y-72908839D01*
X117860874Y-72884990D01*
X117849213Y-72862993D01*
X117833486Y-72843694D01*
X117814295Y-72827833D01*
X117792379Y-72816022D01*
X117768580Y-72808712D01*
X117745888Y-72806211D01*
X117460360Y-72800557D01*
X117460025Y-63932595D01*
X125148282Y-63932595D01*
X125192039Y-64251675D01*
X125297205Y-64556088D01*
X125390186Y-64730044D01*
X125654587Y-64825808D01*
X126610395Y-63870000D01*
X126969605Y-63870000D01*
X127925413Y-64825808D01*
X128189814Y-64730044D01*
X128330704Y-64440429D01*
X128412384Y-64128892D01*
X128431718Y-63807405D01*
X128387961Y-63488325D01*
X128282795Y-63183912D01*
X128189814Y-63009956D01*
X127925413Y-62914192D01*
X126969605Y-63870000D01*
X126610395Y-63870000D01*
X125654587Y-62914192D01*
X125390186Y-63009956D01*
X125249296Y-63299571D01*
X125167616Y-63611108D01*
X125148282Y-63932595D01*
X117460025Y-63932595D01*
X117460000Y-63295007D01*
X117485494Y-62734587D01*
X125834192Y-62734587D01*
X126790000Y-63690395D01*
X127745808Y-62734587D01*
X127650044Y-62470186D01*
X127360429Y-62329296D01*
X127048892Y-62247616D01*
X126727405Y-62228282D01*
X126408325Y-62272039D01*
X126103912Y-62377205D01*
X125929956Y-62470186D01*
X125834192Y-62734587D01*
X117485494Y-62734587D01*
X117515445Y-62076211D01*
X117718693Y-60900104D01*
X118067742Y-59758751D01*
X118211490Y-59438967D01*
X122255000Y-59438967D01*
X122255000Y-59761033D01*
X122317832Y-60076912D01*
X122441082Y-60374463D01*
X122620013Y-60642252D01*
X122847748Y-60869987D01*
X123115537Y-61048918D01*
X123413088Y-61172168D01*
X123728967Y-61235000D01*
X124051033Y-61235000D01*
X124366912Y-61172168D01*
X124664463Y-61048918D01*
X124932252Y-60869987D01*
X125159987Y-60642252D01*
X125338918Y-60374463D01*
X125462168Y-60076912D01*
X125525000Y-59761033D01*
X125525000Y-59438967D01*
X128755000Y-59438967D01*
X128755000Y-59761033D01*
X128817832Y-60076912D01*
X128941082Y-60374463D01*
X129120013Y-60642252D01*
X129347748Y-60869987D01*
X129615537Y-61048918D01*
X129913088Y-61172168D01*
X130228967Y-61235000D01*
X130551033Y-61235000D01*
X130866912Y-61172168D01*
X131164463Y-61048918D01*
X131432252Y-60869987D01*
X131659987Y-60642252D01*
X131838918Y-60374463D01*
X131962168Y-60076912D01*
X132025000Y-59761033D01*
X132025000Y-59438967D01*
X131962168Y-59123088D01*
X131838918Y-58825537D01*
X131659987Y-58557748D01*
X131432252Y-58330013D01*
X131164463Y-58151082D01*
X130866912Y-58027832D01*
X130551033Y-57965000D01*
X130228967Y-57965000D01*
X129913088Y-58027832D01*
X129615537Y-58151082D01*
X129347748Y-58330013D01*
X129120013Y-58557748D01*
X128941082Y-58825537D01*
X128817832Y-59123088D01*
X128755000Y-59438967D01*
X125525000Y-59438967D01*
X125462168Y-59123088D01*
X125338918Y-58825537D01*
X125159987Y-58557748D01*
X124932252Y-58330013D01*
X124664463Y-58151082D01*
X124366912Y-58027832D01*
X124051033Y-57965000D01*
X123728967Y-57965000D01*
X123413088Y-58027832D01*
X123115537Y-58151082D01*
X122847748Y-58330013D01*
X122620013Y-58557748D01*
X122441082Y-58825537D01*
X122317832Y-59123088D01*
X122255000Y-59438967D01*
X118211490Y-59438967D01*
X118557088Y-58670145D01*
X119179016Y-57651453D01*
X119923714Y-56718740D01*
X120420811Y-56235413D01*
X122934192Y-56235413D01*
X123029956Y-56499814D01*
X123319571Y-56640704D01*
X123631108Y-56722384D01*
X123952595Y-56741718D01*
X124271675Y-56697961D01*
X124576088Y-56592795D01*
X124750044Y-56499814D01*
X124845808Y-56235413D01*
X129434192Y-56235413D01*
X129529956Y-56499814D01*
X129819571Y-56640704D01*
X130131108Y-56722384D01*
X130452595Y-56741718D01*
X130771675Y-56697961D01*
X131076088Y-56592795D01*
X131250044Y-56499814D01*
X131345808Y-56235413D01*
X130390000Y-55279605D01*
X129434192Y-56235413D01*
X124845808Y-56235413D01*
X123890000Y-55279605D01*
X122934192Y-56235413D01*
X120420811Y-56235413D01*
X120779446Y-55886714D01*
X121732700Y-55168508D01*
X122266301Y-54862970D01*
X122248282Y-55162595D01*
X122292039Y-55481675D01*
X122397205Y-55786088D01*
X122490186Y-55960044D01*
X122754587Y-56055808D01*
X123710395Y-55100000D01*
X124069605Y-55100000D01*
X125025413Y-56055808D01*
X125289814Y-55960044D01*
X125430704Y-55670429D01*
X125512384Y-55358892D01*
X125524189Y-55162595D01*
X128748282Y-55162595D01*
X128792039Y-55481675D01*
X128897205Y-55786088D01*
X128990186Y-55960044D01*
X129254587Y-56055808D01*
X130210395Y-55100000D01*
X129254587Y-54144192D01*
X128990186Y-54239956D01*
X128849296Y-54529571D01*
X128767616Y-54841108D01*
X128748282Y-55162595D01*
X125524189Y-55162595D01*
X125531718Y-55037405D01*
X125487961Y-54718325D01*
X125382795Y-54413912D01*
X125289814Y-54239956D01*
X125025413Y-54144192D01*
X124069605Y-55100000D01*
X123710395Y-55100000D01*
X123696253Y-55085858D01*
X123875858Y-54906253D01*
X123890000Y-54920395D01*
X124845808Y-53964587D01*
X124807497Y-53858813D01*
X125021087Y-53799999D01*
X126202442Y-53629863D01*
X127395791Y-53609130D01*
X128582338Y-53738129D01*
G36*
X118497000Y-95313000D02*
G01*
X118517000Y-95313000D01*
X118517000Y-95567000D01*
X118497000Y-95567000D01*
X118497000Y-95587000D01*
X118243000Y-95587000D01*
X118243000Y-95567000D01*
X118223000Y-95567000D01*
X118223000Y-95313000D01*
X118243000Y-95313000D01*
X118243000Y-95293000D01*
X118497000Y-95293000D01*
X118497000Y-95313000D01*
G37*
X118497000Y-95313000D02*
X118517000Y-95313000D01*
X118517000Y-95567000D01*
X118497000Y-95567000D01*
X118497000Y-95587000D01*
X118243000Y-95587000D01*
X118243000Y-95567000D01*
X118223000Y-95567000D01*
X118223000Y-95313000D01*
X118243000Y-95313000D01*
X118243000Y-95293000D01*
X118497000Y-95293000D01*
X118497000Y-95313000D01*
M02*
