G04 #@! TF.GenerationSoftware,KiCad,Pcbnew,(5.1.9)-1*
G04 #@! TF.CreationDate,2021-03-01T14:11:43+01:00*
G04 #@! TF.ProjectId,button - AAA,62757474-6f6e-4202-9d20-4141412e6b69,rev?*
G04 #@! TF.SameCoordinates,Original*
G04 #@! TF.FileFunction,Legend,Bot*
G04 #@! TF.FilePolarity,Positive*
%FSLAX46Y46*%
G04 Gerber Fmt 4.6, Leading zero omitted, Abs format (unit mm)*
G04 Created by KiCad (PCBNEW (5.1.9)-1) date 2021-03-01 14:11:43*
%MOMM*%
%LPD*%
G01*
G04 APERTURE LIST*
%ADD10C,0.150000*%
%ADD11C,0.120000*%
G04 APERTURE END LIST*
D10*
X135662857Y-72758571D02*
X135700952Y-72872857D01*
X135739047Y-72910952D01*
X135815238Y-72949047D01*
X135929523Y-72949047D01*
X136005714Y-72910952D01*
X136043809Y-72872857D01*
X136081904Y-72796666D01*
X136081904Y-72491904D01*
X135281904Y-72491904D01*
X135281904Y-72758571D01*
X135320000Y-72834761D01*
X135358095Y-72872857D01*
X135434285Y-72910952D01*
X135510476Y-72910952D01*
X135586666Y-72872857D01*
X135624761Y-72834761D01*
X135662857Y-72758571D01*
X135662857Y-72491904D01*
X135281904Y-73291904D02*
X135929523Y-73291904D01*
X136005714Y-73330000D01*
X136043809Y-73368095D01*
X136081904Y-73444285D01*
X136081904Y-73596666D01*
X136043809Y-73672857D01*
X136005714Y-73710952D01*
X135929523Y-73749047D01*
X135281904Y-73749047D01*
X135281904Y-74015714D02*
X135281904Y-74472857D01*
X136081904Y-74244285D02*
X135281904Y-74244285D01*
X135281904Y-74625238D02*
X135281904Y-75082380D01*
X136081904Y-74853809D02*
X135281904Y-74853809D01*
X135281904Y-75501428D02*
X135281904Y-75653809D01*
X135320000Y-75730000D01*
X135396190Y-75806190D01*
X135548571Y-75844285D01*
X135815238Y-75844285D01*
X135967619Y-75806190D01*
X136043809Y-75730000D01*
X136081904Y-75653809D01*
X136081904Y-75501428D01*
X136043809Y-75425238D01*
X135967619Y-75349047D01*
X135815238Y-75310952D01*
X135548571Y-75310952D01*
X135396190Y-75349047D01*
X135320000Y-75425238D01*
X135281904Y-75501428D01*
X136081904Y-76187142D02*
X135281904Y-76187142D01*
X136081904Y-76644285D01*
X135281904Y-76644285D01*
X135281904Y-77520476D02*
X136081904Y-77787142D01*
X135281904Y-78053809D01*
X135358095Y-78282380D02*
X135320000Y-78320476D01*
X135281904Y-78396666D01*
X135281904Y-78587142D01*
X135320000Y-78663333D01*
X135358095Y-78701428D01*
X135434285Y-78739523D01*
X135510476Y-78739523D01*
X135624761Y-78701428D01*
X136081904Y-78244285D01*
X136081904Y-78739523D01*
X135777142Y-79691904D02*
X135777142Y-80301428D01*
X135853333Y-81253809D02*
X135853333Y-81634761D01*
X136081904Y-81177619D02*
X135281904Y-81444285D01*
X136081904Y-81710952D01*
X135853333Y-81939523D02*
X135853333Y-82320476D01*
X136081904Y-81863333D02*
X135281904Y-82130000D01*
X136081904Y-82396666D01*
X135853333Y-82625238D02*
X135853333Y-83006190D01*
X136081904Y-82549047D02*
X135281904Y-82815714D01*
X136081904Y-83082380D01*
D11*
G04 #@! TO.C,BT1*
X120190000Y-61170000D02*
X133390000Y-61170000D01*
X120190000Y-111370000D02*
X120190000Y-61170000D01*
X133390000Y-111370000D02*
X120190000Y-111370000D01*
X133390000Y-61170000D02*
X133390000Y-111370000D01*
X127790000Y-68570000D02*
X125790000Y-68570000D01*
X128790000Y-67570000D02*
X124790000Y-67570000D01*
X123790000Y-66570000D02*
X129790000Y-66570000D01*
X130790000Y-65570000D02*
X122790000Y-65570000D01*
X128790000Y-110570000D02*
X128790000Y-109570000D01*
X124790000Y-109570000D02*
X124790000Y-110570000D01*
X120790000Y-93570000D02*
X120790000Y-79570000D01*
X132790000Y-79570000D02*
X132790000Y-93570000D01*
X122790000Y-105570000D02*
X122790000Y-95570000D01*
X130790000Y-105570000D02*
X130790000Y-95570000D01*
X130790000Y-67570000D02*
X130790000Y-77570000D01*
X122790000Y-67570000D02*
X122790000Y-77570000D01*
X132790000Y-110570000D02*
X132790000Y-107570000D01*
X132790000Y-110570000D02*
X120790000Y-110570000D01*
X120790000Y-110570000D02*
X120790000Y-107570000D01*
X132790000Y-62570000D02*
X132790000Y-65570000D01*
X132790000Y-62570000D02*
X120790000Y-62570000D01*
X120790000Y-62570000D02*
X120790000Y-65570000D01*
X132790000Y-107570000D02*
G75*
G02*
X130790000Y-105570000I0J2000000D01*
G01*
X130790000Y-67570000D02*
G75*
G02*
X132790000Y-65570000I2000000J0D01*
G01*
X120790000Y-65570000D02*
G75*
G02*
X122790000Y-67570000I0J-2000000D01*
G01*
X122790000Y-105570000D02*
G75*
G02*
X120790000Y-107570000I-2000000J0D01*
G01*
X122790000Y-77570000D02*
G75*
G02*
X120790000Y-79570000I-2000000J0D01*
G01*
X120790000Y-93570000D02*
G75*
G02*
X122790000Y-95570000I0J-2000000D01*
G01*
X130790000Y-95570000D02*
G75*
G02*
X132790000Y-93570000I2000000J0D01*
G01*
X132790000Y-79570000D02*
G75*
G02*
X130790000Y-77570000I0J2000000D01*
G01*
D10*
X131296428Y-109685714D02*
X131248809Y-109542857D01*
X131201190Y-109495238D01*
X131105952Y-109447619D01*
X130963095Y-109447619D01*
X130867857Y-109495238D01*
X130820238Y-109542857D01*
X130772619Y-109638095D01*
X130772619Y-110019047D01*
X131772619Y-110019047D01*
X131772619Y-109685714D01*
X131725000Y-109590476D01*
X131677380Y-109542857D01*
X131582142Y-109495238D01*
X131486904Y-109495238D01*
X131391666Y-109542857D01*
X131344047Y-109590476D01*
X131296428Y-109685714D01*
X131296428Y-110019047D01*
X131772619Y-109161904D02*
X131772619Y-108590476D01*
X130772619Y-108876190D02*
X131772619Y-108876190D01*
X130772619Y-107733333D02*
X130772619Y-108304761D01*
X130772619Y-108019047D02*
X131772619Y-108019047D01*
X131629761Y-108114285D01*
X131534523Y-108209523D01*
X131486904Y-108304761D01*
X126861428Y-111999047D02*
X126861428Y-112760952D01*
X127242380Y-112380000D02*
X126480476Y-112380000D01*
X126861428Y-59929047D02*
X126861428Y-60690952D01*
G04 #@! TD*
M02*
