M48
; DRILL file {KiCad (5.1.9)-1} date 03/01/21 14:11:44
; FORMAT={-:-/ absolute / inch / decimal}
; #@! TF.CreationDate,2021-03-01T14:11:44+01:00
; #@! TF.GenerationSoftware,Kicad,Pcbnew,(5.1.9)-1
FMAT,2
INCH
T1C0.0118
T2C0.0157
T3C0.0295
T4C0.0394
T5C0.0402
T6C0.0433
%
G90
G05
T1
X4.6171Y-3.0167
X4.6457Y-3.5758
X4.6969Y-2.9262
X4.7343Y-3.4754
X4.7362Y-2.9213
X4.8169Y-3.8947
X4.8199Y-3.9301
X4.8543Y-4.1821
X5.1319Y-4.1831
X5.2431Y-2.5157
X5.2648Y-3.4734
X5.2963Y-2.997
X5.2972Y-3.474
X5.3268Y-2.9301
X5.335Y-3.474
T2
X5.002Y-4.0915
X5.1358Y-3.9183
T3
X5.2335Y-4.35
X5.3122Y-4.35
T4
X4.6602Y-3.6575
X4.6602Y-3.7575
X4.6602Y-3.8575
X4.6602Y-3.9575
X4.6602Y-4.0575
T5
X4.9917Y-2.5146
X4.9917Y-4.2744
T6
X4.8776Y-2.1693
X4.8776Y-2.3465
X5.1335Y-2.1693
X5.1335Y-2.3465
T0
M30
