G04 #@! TF.GenerationSoftware,KiCad,Pcbnew,(5.1.9)-1*
G04 #@! TF.CreationDate,2021-03-01T14:11:43+01:00*
G04 #@! TF.ProjectId,button - AAA,62757474-6f6e-4202-9d20-4141412e6b69,rev?*
G04 #@! TF.SameCoordinates,Original*
G04 #@! TF.FileFunction,Legend,Top*
G04 #@! TF.FilePolarity,Positive*
%FSLAX46Y46*%
G04 Gerber Fmt 4.6, Leading zero omitted, Abs format (unit mm)*
G04 Created by KiCad (PCBNEW (5.1.9)-1) date 2021-03-01 14:11:43*
%MOMM*%
%LPD*%
G01*
G04 APERTURE LIST*
%ADD10C,0.125000*%
%ADD11C,0.150000*%
%ADD12C,0.120000*%
%ADD13C,0.200000*%
G04 APERTURE END LIST*
D10*
X119963809Y-102846190D02*
X120201904Y-102679523D01*
X119963809Y-102560476D02*
X120463809Y-102560476D01*
X120463809Y-102750952D01*
X120440000Y-102798571D01*
X120416190Y-102822380D01*
X120368571Y-102846190D01*
X120297142Y-102846190D01*
X120249523Y-102822380D01*
X120225714Y-102798571D01*
X120201904Y-102750952D01*
X120201904Y-102560476D01*
X119987619Y-103036666D02*
X119963809Y-103108095D01*
X119963809Y-103227142D01*
X119987619Y-103274761D01*
X120011428Y-103298571D01*
X120059047Y-103322380D01*
X120106666Y-103322380D01*
X120154285Y-103298571D01*
X120178095Y-103274761D01*
X120201904Y-103227142D01*
X120225714Y-103131904D01*
X120249523Y-103084285D01*
X120273333Y-103060476D01*
X120320952Y-103036666D01*
X120368571Y-103036666D01*
X120416190Y-103060476D01*
X120440000Y-103084285D01*
X120463809Y-103131904D01*
X120463809Y-103250952D01*
X120440000Y-103322380D01*
X120463809Y-103465238D02*
X120463809Y-103750952D01*
X119963809Y-103608095D02*
X120463809Y-103608095D01*
X120423809Y-100039047D02*
X120423809Y-100324761D01*
X119923809Y-100181904D02*
X120423809Y-100181904D01*
X120423809Y-100443809D02*
X119923809Y-100777142D01*
X120423809Y-100777142D02*
X119923809Y-100443809D01*
X119923809Y-97986666D02*
X120161904Y-97820000D01*
X119923809Y-97700952D02*
X120423809Y-97700952D01*
X120423809Y-97891428D01*
X120400000Y-97939047D01*
X120376190Y-97962857D01*
X120328571Y-97986666D01*
X120257142Y-97986666D01*
X120209523Y-97962857D01*
X120185714Y-97939047D01*
X120161904Y-97891428D01*
X120161904Y-97700952D01*
X120423809Y-98153333D02*
X119923809Y-98486666D01*
X120423809Y-98486666D02*
X119923809Y-98153333D01*
X120400000Y-94989047D02*
X120423809Y-94941428D01*
X120423809Y-94870000D01*
X120400000Y-94798571D01*
X120352380Y-94750952D01*
X120304761Y-94727142D01*
X120209523Y-94703333D01*
X120138095Y-94703333D01*
X120042857Y-94727142D01*
X119995238Y-94750952D01*
X119947619Y-94798571D01*
X119923809Y-94870000D01*
X119923809Y-94917619D01*
X119947619Y-94989047D01*
X119971428Y-95012857D01*
X120138095Y-95012857D01*
X120138095Y-94917619D01*
X119923809Y-95227142D02*
X120423809Y-95227142D01*
X119923809Y-95512857D01*
X120423809Y-95512857D01*
X119923809Y-95750952D02*
X120423809Y-95750952D01*
X120423809Y-95870000D01*
X120400000Y-95941428D01*
X120352380Y-95989047D01*
X120304761Y-96012857D01*
X120209523Y-96036666D01*
X120138095Y-96036666D01*
X120042857Y-96012857D01*
X119995238Y-95989047D01*
X119947619Y-95941428D01*
X119923809Y-95870000D01*
X119923809Y-95750952D01*
X120353809Y-92163333D02*
X119853809Y-92330000D01*
X120353809Y-92496666D01*
X119901428Y-92949047D02*
X119877619Y-92925238D01*
X119853809Y-92853809D01*
X119853809Y-92806190D01*
X119877619Y-92734761D01*
X119925238Y-92687142D01*
X119972857Y-92663333D01*
X120068095Y-92639523D01*
X120139523Y-92639523D01*
X120234761Y-92663333D01*
X120282380Y-92687142D01*
X120330000Y-92734761D01*
X120353809Y-92806190D01*
X120353809Y-92853809D01*
X120330000Y-92925238D01*
X120306190Y-92949047D01*
X119901428Y-93449047D02*
X119877619Y-93425238D01*
X119853809Y-93353809D01*
X119853809Y-93306190D01*
X119877619Y-93234761D01*
X119925238Y-93187142D01*
X119972857Y-93163333D01*
X120068095Y-93139523D01*
X120139523Y-93139523D01*
X120234761Y-93163333D01*
X120282380Y-93187142D01*
X120330000Y-93234761D01*
X120353809Y-93306190D01*
X120353809Y-93353809D01*
X120330000Y-93425238D01*
X120306190Y-93449047D01*
D11*
X129172380Y-84969047D02*
X129886666Y-84969047D01*
X130029523Y-85016666D01*
X130124761Y-85111904D01*
X130172380Y-85254761D01*
X130172380Y-85350000D01*
X130172380Y-84016666D02*
X130172380Y-84492857D01*
X129172380Y-84492857D01*
X130077142Y-83111904D02*
X130124761Y-83159523D01*
X130172380Y-83302380D01*
X130172380Y-83397619D01*
X130124761Y-83540476D01*
X130029523Y-83635714D01*
X129934285Y-83683333D01*
X129743809Y-83730952D01*
X129600952Y-83730952D01*
X129410476Y-83683333D01*
X129315238Y-83635714D01*
X129220000Y-83540476D01*
X129172380Y-83397619D01*
X129172380Y-83302380D01*
X129220000Y-83159523D01*
X129267619Y-83111904D01*
X129172380Y-82397619D02*
X129886666Y-82397619D01*
X130029523Y-82445238D01*
X130124761Y-82540476D01*
X130172380Y-82683333D01*
X130172380Y-82778571D01*
X130172380Y-81445238D02*
X130172380Y-81921428D01*
X129172380Y-81921428D01*
X130077142Y-80540476D02*
X130124761Y-80588095D01*
X130172380Y-80730952D01*
X130172380Y-80826190D01*
X130124761Y-80969047D01*
X130029523Y-81064285D01*
X129934285Y-81111904D01*
X129743809Y-81159523D01*
X129600952Y-81159523D01*
X129410476Y-81111904D01*
X129315238Y-81064285D01*
X129220000Y-80969047D01*
X129172380Y-80826190D01*
X129172380Y-80730952D01*
X129220000Y-80588095D01*
X129267619Y-80540476D01*
X129172380Y-79826190D02*
X129886666Y-79826190D01*
X130029523Y-79873809D01*
X130124761Y-79969047D01*
X130172380Y-80111904D01*
X130172380Y-80207142D01*
X130172380Y-78873809D02*
X130172380Y-79350000D01*
X129172380Y-79350000D01*
X130077142Y-77969047D02*
X130124761Y-78016666D01*
X130172380Y-78159523D01*
X130172380Y-78254761D01*
X130124761Y-78397619D01*
X130029523Y-78492857D01*
X129934285Y-78540476D01*
X129743809Y-78588095D01*
X129600952Y-78588095D01*
X129410476Y-78540476D01*
X129315238Y-78492857D01*
X129220000Y-78397619D01*
X129172380Y-78254761D01*
X129172380Y-78159523D01*
X129220000Y-78016666D01*
X129267619Y-77969047D01*
X129172380Y-77254761D02*
X129886666Y-77254761D01*
X130029523Y-77302380D01*
X130124761Y-77397619D01*
X130172380Y-77540476D01*
X130172380Y-77635714D01*
X130172380Y-76302380D02*
X130172380Y-76778571D01*
X129172380Y-76778571D01*
X130077142Y-75397619D02*
X130124761Y-75445238D01*
X130172380Y-75588095D01*
X130172380Y-75683333D01*
X130124761Y-75826190D01*
X130029523Y-75921428D01*
X129934285Y-75969047D01*
X129743809Y-76016666D01*
X129600952Y-76016666D01*
X129410476Y-75969047D01*
X129315238Y-75921428D01*
X129220000Y-75826190D01*
X129172380Y-75683333D01*
X129172380Y-75588095D01*
X129220000Y-75445238D01*
X129267619Y-75397619D01*
D12*
G04 #@! TO.C,C2*
X116915000Y-76090835D02*
X116915000Y-75859165D01*
G04 #@! TO.C,PS1*
X125010000Y-105475000D02*
X125010000Y-103675000D01*
X121790000Y-103675000D02*
X121790000Y-106125000D01*
G04 #@! TO.C,U2*
X131935000Y-105600000D02*
X131935000Y-103800000D01*
X128715000Y-103800000D02*
X128715000Y-106250000D01*
G04 #@! TO.C,R7*
X134731252Y-107960000D02*
X134208748Y-107960000D01*
X134731252Y-106540000D02*
X134208748Y-106540000D01*
G04 #@! TO.C,R6*
X134910000Y-63211252D02*
X134910000Y-62688748D01*
X136330000Y-63211252D02*
X136330000Y-62688748D01*
G04 #@! TO.C,R5*
X132015000Y-93911252D02*
X132015000Y-93388748D01*
X133435000Y-93911252D02*
X133435000Y-93388748D01*
G04 #@! TO.C,R4*
X126615000Y-93986252D02*
X126615000Y-93463748D01*
X128035000Y-93986252D02*
X128035000Y-93463748D01*
G04 #@! TO.C,R3*
X123940000Y-93986252D02*
X123940000Y-93463748D01*
X125360000Y-93986252D02*
X125360000Y-93463748D01*
G04 #@! TO.C,R2*
X129315000Y-93961252D02*
X129315000Y-93438748D01*
X130735000Y-93961252D02*
X130735000Y-93438748D01*
G04 #@! TO.C,R1*
X121065000Y-93986252D02*
X121065000Y-93463748D01*
X122485000Y-93986252D02*
X122485000Y-93463748D01*
G04 #@! TO.C,C3*
X129611252Y-100210000D02*
X129088748Y-100210000D01*
X129611252Y-98790000D02*
X129088748Y-98790000D01*
G04 #@! TO.C,C1*
X127735000Y-104838748D02*
X127735000Y-105361252D01*
X126315000Y-104838748D02*
X126315000Y-105361252D01*
G04 #@! TO.C,X1*
X135070000Y-89240000D02*
X135070000Y-89860000D01*
X135070000Y-89860000D02*
X132950000Y-89860000D01*
X120950000Y-89860000D02*
X118830000Y-89860000D01*
X118830000Y-89860000D02*
X118830000Y-89240000D01*
G04 #@! TO.C,C5*
X118690835Y-91210000D02*
X118459165Y-91210000D01*
D13*
G04 #@! TO.C,C4*
X122200000Y-100900000D02*
X126325000Y-100900000D01*
X125700000Y-98100000D02*
X122200000Y-98100000D01*
D11*
G04 #@! TO.C,L1*
X120274000Y-110814000D02*
X120274000Y-108782000D01*
X117226000Y-110614000D02*
X120274000Y-110614000D01*
X117226000Y-108782000D02*
X117226000Y-110814000D01*
X117226000Y-105226000D02*
X117226000Y-107131000D01*
X120274000Y-105226000D02*
X117226000Y-105226000D01*
X120274000Y-107131000D02*
X120274000Y-105226000D01*
X117226000Y-110814000D02*
X120274000Y-110814000D01*
D12*
G04 #@! TO.C,J1*
X117040000Y-104390000D02*
X119700000Y-104390000D01*
X117040000Y-94170000D02*
X117040000Y-104390000D01*
X119700000Y-94170000D02*
X119700000Y-104390000D01*
X117040000Y-94170000D02*
X119700000Y-94170000D01*
X117040000Y-92900000D02*
X117040000Y-91570000D01*
X117040000Y-91570000D02*
X118370000Y-91570000D01*
G04 #@! TO.C,BT2*
X130870000Y-108680000D02*
X130870000Y-113400000D01*
X130870000Y-113400000D02*
X136990000Y-113400000D01*
X136990000Y-113400000D02*
X136990000Y-108680000D01*
X136990000Y-108680000D02*
X130870000Y-108680000D01*
X132630000Y-108680000D02*
X132630000Y-108480000D01*
X132630000Y-108480000D02*
X132330000Y-108480000D01*
X132330000Y-108480000D02*
X132330000Y-108680000D01*
X132630000Y-108580000D02*
X132330000Y-108580000D01*
X133430000Y-108680000D02*
X133430000Y-109290000D01*
X133430000Y-109290000D02*
X131480000Y-109290000D01*
X131480000Y-109290000D02*
X131480000Y-112790000D01*
X131480000Y-112790000D02*
X136380000Y-112790000D01*
X136380000Y-112790000D02*
X136380000Y-109290000D01*
X136380000Y-109290000D02*
X134430000Y-109290000D01*
X134430000Y-109290000D02*
X134430000Y-108680000D01*
X130870000Y-109990000D02*
X131480000Y-109990000D01*
X130870000Y-111290000D02*
X131480000Y-111290000D01*
X136990000Y-109990000D02*
X136380000Y-109990000D01*
X136990000Y-111290000D02*
X136380000Y-111290000D01*
X133830000Y-112790000D02*
X133830000Y-112290000D01*
X133830000Y-112290000D02*
X134030000Y-112290000D01*
X134030000Y-112290000D02*
X134030000Y-112790000D01*
X133930000Y-112790000D02*
X133930000Y-112290000D01*
X131820000Y-108380000D02*
X130570000Y-108380000D01*
X130570000Y-108380000D02*
X130570000Y-109630000D01*
G04 #@! TO.C,D1*
X134155000Y-64070000D02*
X134155000Y-59985000D01*
X134155000Y-59985000D02*
X131985000Y-59985000D01*
X131985000Y-59985000D02*
X131985000Y-64070000D01*
G04 #@! TO.C,SW2*
X133140000Y-97160000D02*
X136760000Y-97160000D01*
X133140000Y-103280000D02*
X133140000Y-97160000D01*
X136760000Y-103280000D02*
X133140000Y-103280000D01*
X136760000Y-97160000D02*
X136760000Y-103280000D01*
G04 #@! TO.C,SW1*
X129390000Y-54100000D02*
X124890000Y-54100000D01*
X130640000Y-58100000D02*
X130640000Y-56600000D01*
X124890000Y-60600000D02*
X129390000Y-60600000D01*
X123640000Y-56600000D02*
X123640000Y-58100000D01*
G04 #@! TO.C,PS1*
D10*
X122792857Y-104801190D02*
X122792857Y-104301190D01*
X122983333Y-104301190D01*
X123030952Y-104325000D01*
X123054761Y-104348809D01*
X123078571Y-104396428D01*
X123078571Y-104467857D01*
X123054761Y-104515476D01*
X123030952Y-104539285D01*
X122983333Y-104563095D01*
X122792857Y-104563095D01*
X123269047Y-104777380D02*
X123340476Y-104801190D01*
X123459523Y-104801190D01*
X123507142Y-104777380D01*
X123530952Y-104753571D01*
X123554761Y-104705952D01*
X123554761Y-104658333D01*
X123530952Y-104610714D01*
X123507142Y-104586904D01*
X123459523Y-104563095D01*
X123364285Y-104539285D01*
X123316666Y-104515476D01*
X123292857Y-104491666D01*
X123269047Y-104444047D01*
X123269047Y-104396428D01*
X123292857Y-104348809D01*
X123316666Y-104325000D01*
X123364285Y-104301190D01*
X123483333Y-104301190D01*
X123554761Y-104325000D01*
X124030952Y-104801190D02*
X123745238Y-104801190D01*
X123888095Y-104801190D02*
X123888095Y-104301190D01*
X123840476Y-104372619D01*
X123792857Y-104420238D01*
X123745238Y-104444047D01*
G04 #@! TO.C,U2*
X129944047Y-104426190D02*
X129944047Y-104830952D01*
X129967857Y-104878571D01*
X129991666Y-104902380D01*
X130039285Y-104926190D01*
X130134523Y-104926190D01*
X130182142Y-104902380D01*
X130205952Y-104878571D01*
X130229761Y-104830952D01*
X130229761Y-104426190D01*
X130444047Y-104473809D02*
X130467857Y-104450000D01*
X130515476Y-104426190D01*
X130634523Y-104426190D01*
X130682142Y-104450000D01*
X130705952Y-104473809D01*
X130729761Y-104521428D01*
X130729761Y-104569047D01*
X130705952Y-104640476D01*
X130420238Y-104926190D01*
X130729761Y-104926190D01*
G04 #@! TO.C,R7*
X134696190Y-107433333D02*
X134458095Y-107600000D01*
X134696190Y-107719047D02*
X134196190Y-107719047D01*
X134196190Y-107528571D01*
X134220000Y-107480952D01*
X134243809Y-107457142D01*
X134291428Y-107433333D01*
X134362857Y-107433333D01*
X134410476Y-107457142D01*
X134434285Y-107480952D01*
X134458095Y-107528571D01*
X134458095Y-107719047D01*
X134196190Y-107266666D02*
X134196190Y-106933333D01*
X134696190Y-107147619D01*
G04 #@! TO.C,R6*
X135436666Y-63176190D02*
X135270000Y-62938095D01*
X135150952Y-63176190D02*
X135150952Y-62676190D01*
X135341428Y-62676190D01*
X135389047Y-62700000D01*
X135412857Y-62723809D01*
X135436666Y-62771428D01*
X135436666Y-62842857D01*
X135412857Y-62890476D01*
X135389047Y-62914285D01*
X135341428Y-62938095D01*
X135150952Y-62938095D01*
X135865238Y-62676190D02*
X135770000Y-62676190D01*
X135722380Y-62700000D01*
X135698571Y-62723809D01*
X135650952Y-62795238D01*
X135627142Y-62890476D01*
X135627142Y-63080952D01*
X135650952Y-63128571D01*
X135674761Y-63152380D01*
X135722380Y-63176190D01*
X135817619Y-63176190D01*
X135865238Y-63152380D01*
X135889047Y-63128571D01*
X135912857Y-63080952D01*
X135912857Y-62961904D01*
X135889047Y-62914285D01*
X135865238Y-62890476D01*
X135817619Y-62866666D01*
X135722380Y-62866666D01*
X135674761Y-62890476D01*
X135650952Y-62914285D01*
X135627142Y-62961904D01*
G04 #@! TO.C,R5*
X132541666Y-93876190D02*
X132375000Y-93638095D01*
X132255952Y-93876190D02*
X132255952Y-93376190D01*
X132446428Y-93376190D01*
X132494047Y-93400000D01*
X132517857Y-93423809D01*
X132541666Y-93471428D01*
X132541666Y-93542857D01*
X132517857Y-93590476D01*
X132494047Y-93614285D01*
X132446428Y-93638095D01*
X132255952Y-93638095D01*
X132994047Y-93376190D02*
X132755952Y-93376190D01*
X132732142Y-93614285D01*
X132755952Y-93590476D01*
X132803571Y-93566666D01*
X132922619Y-93566666D01*
X132970238Y-93590476D01*
X132994047Y-93614285D01*
X133017857Y-93661904D01*
X133017857Y-93780952D01*
X132994047Y-93828571D01*
X132970238Y-93852380D01*
X132922619Y-93876190D01*
X132803571Y-93876190D01*
X132755952Y-93852380D01*
X132732142Y-93828571D01*
G04 #@! TO.C,R4*
X127141666Y-93951190D02*
X126975000Y-93713095D01*
X126855952Y-93951190D02*
X126855952Y-93451190D01*
X127046428Y-93451190D01*
X127094047Y-93475000D01*
X127117857Y-93498809D01*
X127141666Y-93546428D01*
X127141666Y-93617857D01*
X127117857Y-93665476D01*
X127094047Y-93689285D01*
X127046428Y-93713095D01*
X126855952Y-93713095D01*
X127570238Y-93617857D02*
X127570238Y-93951190D01*
X127451190Y-93427380D02*
X127332142Y-93784523D01*
X127641666Y-93784523D01*
G04 #@! TO.C,R3*
X124466666Y-93951190D02*
X124300000Y-93713095D01*
X124180952Y-93951190D02*
X124180952Y-93451190D01*
X124371428Y-93451190D01*
X124419047Y-93475000D01*
X124442857Y-93498809D01*
X124466666Y-93546428D01*
X124466666Y-93617857D01*
X124442857Y-93665476D01*
X124419047Y-93689285D01*
X124371428Y-93713095D01*
X124180952Y-93713095D01*
X124633333Y-93451190D02*
X124942857Y-93451190D01*
X124776190Y-93641666D01*
X124847619Y-93641666D01*
X124895238Y-93665476D01*
X124919047Y-93689285D01*
X124942857Y-93736904D01*
X124942857Y-93855952D01*
X124919047Y-93903571D01*
X124895238Y-93927380D01*
X124847619Y-93951190D01*
X124704761Y-93951190D01*
X124657142Y-93927380D01*
X124633333Y-93903571D01*
G04 #@! TO.C,R2*
X129841666Y-93926190D02*
X129675000Y-93688095D01*
X129555952Y-93926190D02*
X129555952Y-93426190D01*
X129746428Y-93426190D01*
X129794047Y-93450000D01*
X129817857Y-93473809D01*
X129841666Y-93521428D01*
X129841666Y-93592857D01*
X129817857Y-93640476D01*
X129794047Y-93664285D01*
X129746428Y-93688095D01*
X129555952Y-93688095D01*
X130032142Y-93473809D02*
X130055952Y-93450000D01*
X130103571Y-93426190D01*
X130222619Y-93426190D01*
X130270238Y-93450000D01*
X130294047Y-93473809D01*
X130317857Y-93521428D01*
X130317857Y-93569047D01*
X130294047Y-93640476D01*
X130008333Y-93926190D01*
X130317857Y-93926190D01*
G04 #@! TO.C,R1*
X121591666Y-93951190D02*
X121425000Y-93713095D01*
X121305952Y-93951190D02*
X121305952Y-93451190D01*
X121496428Y-93451190D01*
X121544047Y-93475000D01*
X121567857Y-93498809D01*
X121591666Y-93546428D01*
X121591666Y-93617857D01*
X121567857Y-93665476D01*
X121544047Y-93689285D01*
X121496428Y-93713095D01*
X121305952Y-93713095D01*
X122067857Y-93951190D02*
X121782142Y-93951190D01*
X121925000Y-93951190D02*
X121925000Y-93451190D01*
X121877380Y-93522619D01*
X121829761Y-93570238D01*
X121782142Y-93594047D01*
G04 #@! TO.C,C3*
X129528571Y-99583333D02*
X129552380Y-99607142D01*
X129576190Y-99678571D01*
X129576190Y-99726190D01*
X129552380Y-99797619D01*
X129504761Y-99845238D01*
X129457142Y-99869047D01*
X129361904Y-99892857D01*
X129290476Y-99892857D01*
X129195238Y-99869047D01*
X129147619Y-99845238D01*
X129100000Y-99797619D01*
X129076190Y-99726190D01*
X129076190Y-99678571D01*
X129100000Y-99607142D01*
X129123809Y-99583333D01*
X129076190Y-99416666D02*
X129076190Y-99107142D01*
X129266666Y-99273809D01*
X129266666Y-99202380D01*
X129290476Y-99154761D01*
X129314285Y-99130952D01*
X129361904Y-99107142D01*
X129480952Y-99107142D01*
X129528571Y-99130952D01*
X129552380Y-99154761D01*
X129576190Y-99202380D01*
X129576190Y-99345238D01*
X129552380Y-99392857D01*
X129528571Y-99416666D01*
G04 #@! TO.C,C1*
X126941666Y-105278571D02*
X126917857Y-105302380D01*
X126846428Y-105326190D01*
X126798809Y-105326190D01*
X126727380Y-105302380D01*
X126679761Y-105254761D01*
X126655952Y-105207142D01*
X126632142Y-105111904D01*
X126632142Y-105040476D01*
X126655952Y-104945238D01*
X126679761Y-104897619D01*
X126727380Y-104850000D01*
X126798809Y-104826190D01*
X126846428Y-104826190D01*
X126917857Y-104850000D01*
X126941666Y-104873809D01*
X127417857Y-105326190D02*
X127132142Y-105326190D01*
X127275000Y-105326190D02*
X127275000Y-104826190D01*
X127227380Y-104897619D01*
X127179761Y-104945238D01*
X127132142Y-104969047D01*
G04 #@! TO.C,X1*
D11*
X126140476Y-82907380D02*
X126807142Y-83907380D01*
X126807142Y-82907380D02*
X126140476Y-83907380D01*
X127711904Y-83907380D02*
X127140476Y-83907380D01*
X127426190Y-83907380D02*
X127426190Y-82907380D01*
X127330952Y-83050238D01*
X127235714Y-83145476D01*
X127140476Y-83193095D01*
G04 #@! TO.C,C4*
D10*
X124128571Y-99633333D02*
X124152380Y-99657142D01*
X124176190Y-99728571D01*
X124176190Y-99776190D01*
X124152380Y-99847619D01*
X124104761Y-99895238D01*
X124057142Y-99919047D01*
X123961904Y-99942857D01*
X123890476Y-99942857D01*
X123795238Y-99919047D01*
X123747619Y-99895238D01*
X123700000Y-99847619D01*
X123676190Y-99776190D01*
X123676190Y-99728571D01*
X123700000Y-99657142D01*
X123723809Y-99633333D01*
X123842857Y-99204761D02*
X124176190Y-99204761D01*
X123652380Y-99323809D02*
X124009523Y-99442857D01*
X124009523Y-99133333D01*
G04 #@! TO.C,L1*
D11*
X118952380Y-108166666D02*
X118952380Y-108642857D01*
X117952380Y-108642857D01*
X118952380Y-107309523D02*
X118952380Y-107880952D01*
X118952380Y-107595238D02*
X117952380Y-107595238D01*
X118095238Y-107690476D01*
X118190476Y-107785714D01*
X118238095Y-107880952D01*
G04 #@! TO.C,D1*
X133271428Y-62942857D02*
X132671428Y-62942857D01*
X132671428Y-62800000D01*
X132700000Y-62714285D01*
X132757142Y-62657142D01*
X132814285Y-62628571D01*
X132928571Y-62600000D01*
X133014285Y-62600000D01*
X133128571Y-62628571D01*
X133185714Y-62657142D01*
X133242857Y-62714285D01*
X133271428Y-62800000D01*
X133271428Y-62942857D01*
X133271428Y-62028571D02*
X133271428Y-62371428D01*
X133271428Y-62200000D02*
X132671428Y-62200000D01*
X132757142Y-62257142D01*
X132814285Y-62314285D01*
X132842857Y-62371428D01*
G04 #@! TO.C,SW2*
X135354761Y-101553333D02*
X135402380Y-101410476D01*
X135402380Y-101172380D01*
X135354761Y-101077142D01*
X135307142Y-101029523D01*
X135211904Y-100981904D01*
X135116666Y-100981904D01*
X135021428Y-101029523D01*
X134973809Y-101077142D01*
X134926190Y-101172380D01*
X134878571Y-101362857D01*
X134830952Y-101458095D01*
X134783333Y-101505714D01*
X134688095Y-101553333D01*
X134592857Y-101553333D01*
X134497619Y-101505714D01*
X134450000Y-101458095D01*
X134402380Y-101362857D01*
X134402380Y-101124761D01*
X134450000Y-100981904D01*
X134402380Y-100648571D02*
X135402380Y-100410476D01*
X134688095Y-100220000D01*
X135402380Y-100029523D01*
X134402380Y-99791428D01*
X134497619Y-99458095D02*
X134450000Y-99410476D01*
X134402380Y-99315238D01*
X134402380Y-99077142D01*
X134450000Y-98981904D01*
X134497619Y-98934285D01*
X134592857Y-98886666D01*
X134688095Y-98886666D01*
X134830952Y-98934285D01*
X135402380Y-99505714D01*
X135402380Y-98886666D01*
G04 #@! TD*
M02*
