G04 #@! TF.GenerationSoftware,KiCad,Pcbnew,(5.1.9)-1*
G04 #@! TF.CreationDate,2021-03-01T14:18:58+01:00*
G04 #@! TF.ProjectId,button_timer_v1.2.1_lipo[TPL5110],62757474-6f6e-45f7-9469-6d65725f7631,rev?*
G04 #@! TF.SameCoordinates,Original*
G04 #@! TF.FileFunction,Soldermask,Bot*
G04 #@! TF.FilePolarity,Negative*
%FSLAX46Y46*%
G04 Gerber Fmt 4.6, Leading zero omitted, Abs format (unit mm)*
G04 Created by KiCad (PCBNEW (5.1.9)-1) date 2021-03-01 14:18:58*
%MOMM*%
%LPD*%
G01*
G04 APERTURE LIST*
%ADD10R,1.000000X0.800000*%
%ADD11R,0.620000X0.900000*%
%ADD12R,1.800000X2.300000*%
%ADD13R,1.100000X1.500000*%
%ADD14R,1.500000X1.100000*%
%ADD15R,1.500000X1.500000*%
%ADD16R,2.000000X0.650000*%
%ADD17C,0.150000*%
%ADD18C,2.000000*%
%ADD19O,1.700000X1.700000*%
%ADD20R,1.700000X1.700000*%
%ADD21R,0.650000X1.500000*%
%ADD22O,1.750000X1.200000*%
G04 APERTURE END LIST*
D10*
G04 #@! TO.C,Q1*
X132173000Y-73660000D03*
X134273000Y-74610000D03*
X134273000Y-72710000D03*
G04 #@! TD*
D11*
G04 #@! TO.C,C7*
X130733800Y-78232240D03*
X130733800Y-79532240D03*
G04 #@! TD*
D12*
G04 #@! TO.C,C6*
X127053680Y-81696560D03*
X129953680Y-81696560D03*
G04 #@! TD*
D13*
G04 #@! TO.C,C3*
X121269760Y-84920440D03*
X121269760Y-87220440D03*
G04 #@! TD*
G04 #@! TO.C,C5*
X132080000Y-68446000D03*
X132080000Y-70746000D03*
G04 #@! TD*
G04 #@! TO.C,C1*
X131318000Y-66428000D03*
X131318000Y-64128000D03*
G04 #@! TD*
D14*
G04 #@! TO.C,C2*
X133534800Y-93599000D03*
X131234800Y-93599000D03*
G04 #@! TD*
D15*
G04 #@! TO.C,R7*
X130032760Y-87143440D03*
X130032760Y-84743440D03*
G04 #@! TD*
G04 #@! TO.C,R8*
X135636000Y-64078000D03*
X135636000Y-66478000D03*
G04 #@! TD*
G04 #@! TO.C,R6*
X134169000Y-61595000D03*
X131769000Y-61595000D03*
G04 #@! TD*
D16*
G04 #@! TO.C,U2*
X124087760Y-85120440D03*
X124087760Y-87020440D03*
X127137760Y-87020440D03*
D17*
G36*
X128137760Y-85745440D02*
G01*
X128137760Y-86395440D01*
X126137760Y-86395440D01*
X126137760Y-85745440D01*
X128137760Y-85745440D01*
G37*
D16*
X127137760Y-85120440D03*
G04 #@! TD*
D18*
G04 #@! TO.C,SW1*
X129500000Y-62000000D03*
X129500000Y-66500000D03*
X123000000Y-62000000D03*
X123000000Y-66500000D03*
G04 #@! TD*
D19*
G04 #@! TO.C,J1*
X117200000Y-66240000D03*
X117200000Y-68780000D03*
X117200000Y-71320000D03*
X117200000Y-73860000D03*
D20*
X117200000Y-76400000D03*
G04 #@! TD*
D21*
G04 #@! TO.C,U1*
X134620000Y-70896000D03*
X133670000Y-70896000D03*
X135570000Y-70896000D03*
X135570000Y-68296000D03*
X134620000Y-68296000D03*
X133670000Y-68296000D03*
G04 #@! TD*
D11*
G04 #@! TO.C,C4*
X135890000Y-73802000D03*
X135890000Y-72502000D03*
G04 #@! TD*
D22*
G04 #@! TO.C,BT1*
X133400000Y-64500000D03*
G36*
G01*
X134025001Y-67100000D02*
X132774999Y-67100000D01*
G75*
G02*
X132525000Y-66850001I0J249999D01*
G01*
X132525000Y-66149999D01*
G75*
G02*
X132774999Y-65900000I249999J0D01*
G01*
X134025001Y-65900000D01*
G75*
G02*
X134275000Y-66149999I0J-249999D01*
G01*
X134275000Y-66850001D01*
G75*
G02*
X134025001Y-67100000I-249999J0D01*
G01*
G37*
G04 #@! TD*
M02*
