M48
; DRILL file {KiCad (5.1.9)-1} date 03/01/21 14:18:59
; FORMAT={-:-/ absolute / inch / decimal}
; #@! TF.CreationDate,2021-03-01T14:18:59+01:00
; #@! TF.GenerationSoftware,Kicad,Pcbnew,(5.1.9)-1
FMAT,2
INCH
T1C0.0118
T2C0.0157
T3C0.0295
T4C0.0394
T5C0.0433
%
G90
G05
T1
X4.6102Y-3.1378
X4.6457Y-3.6063
X4.6496Y-3.685
X4.689Y-3.1339
X4.7441Y-2.8031
X4.7795Y-2.4213
X4.7992Y-2.9803
X4.8425Y-2.8898
X4.8583Y-2.7953
X4.9449Y-2.8071
X4.9961Y-3.1929
X4.9961Y-3.2362
X5.0039Y-3.3858
X5.0354Y-2.878
X5.122Y-2.874
X5.1654Y-3.685
X5.1693Y-2.5236
X5.1811Y-2.9931
X5.1969Y-2.8661
X5.2008Y-2.7835
X5.2336Y-3.1312
X5.2559Y-3.689
X5.2638Y-2.7913
X5.3031Y-2.689
X5.3378Y-2.615
X5.3465Y-2.9488
X5.35Y-2.8544
X5.3504Y-2.9055
T2
X5.2087Y-2.4252
X5.3425Y-2.4291
T3
X5.252Y-2.5394
X5.252Y-2.6181
T4
X4.6142Y-2.6079
X4.6142Y-2.7079
X4.6142Y-2.8079
X4.6142Y-2.9079
X4.6142Y-3.0079
T5
X4.8425Y-2.4409
X4.8425Y-2.6181
X5.0984Y-2.4409
X5.0984Y-2.6181
T0
M30
