G04 #@! TF.GenerationSoftware,KiCad,Pcbnew,(5.1.9)-1*
G04 #@! TF.CreationDate,2021-03-01T14:18:58+01:00*
G04 #@! TF.ProjectId,button_timer_v1.2.1_lipo[TPL5110],62757474-6f6e-45f7-9469-6d65725f7631,rev?*
G04 #@! TF.SameCoordinates,Original*
G04 #@! TF.FileFunction,Legend,Top*
G04 #@! TF.FilePolarity,Positive*
%FSLAX46Y46*%
G04 Gerber Fmt 4.6, Leading zero omitted, Abs format (unit mm)*
G04 Created by KiCad (PCBNEW (5.1.9)-1) date 2021-03-01 14:18:58*
%MOMM*%
%LPD*%
G01*
G04 APERTURE LIST*
%ADD10C,0.300000*%
%ADD11C,0.125000*%
%ADD12C,0.150000*%
%ADD13C,0.120000*%
G04 APERTURE END LIST*
D10*
X118154761Y-62980922D02*
X118154761Y-63933303D01*
X116154761Y-63683303D01*
X118154761Y-62314255D02*
X116154761Y-62064255D01*
X118154761Y-61171398D02*
X117011904Y-61885684D01*
X116154761Y-60921398D02*
X117297619Y-62207113D01*
X120407142Y-62992827D02*
X120407142Y-63659494D01*
X121454761Y-63790446D02*
X119454761Y-63540446D01*
X119454761Y-62588065D01*
X121454761Y-61123779D02*
X121454761Y-62076160D01*
X119454761Y-61826160D01*
D11*
X115673809Y-67691428D02*
X115911904Y-67524761D01*
X115673809Y-67405714D02*
X116173809Y-67405714D01*
X116173809Y-67596190D01*
X116150000Y-67643809D01*
X116126190Y-67667619D01*
X116078571Y-67691428D01*
X116007142Y-67691428D01*
X115959523Y-67667619D01*
X115935714Y-67643809D01*
X115911904Y-67596190D01*
X115911904Y-67405714D01*
X115697619Y-67881904D02*
X115673809Y-67953333D01*
X115673809Y-68072380D01*
X115697619Y-68120000D01*
X115721428Y-68143809D01*
X115769047Y-68167619D01*
X115816666Y-68167619D01*
X115864285Y-68143809D01*
X115888095Y-68120000D01*
X115911904Y-68072380D01*
X115935714Y-67977142D01*
X115959523Y-67929523D01*
X115983333Y-67905714D01*
X116030952Y-67881904D01*
X116078571Y-67881904D01*
X116126190Y-67905714D01*
X116150000Y-67929523D01*
X116173809Y-67977142D01*
X116173809Y-68096190D01*
X116150000Y-68167619D01*
X116173809Y-68310476D02*
X116173809Y-68596190D01*
X115673809Y-68453333D02*
X116173809Y-68453333D01*
X116173809Y-69072380D02*
X116173809Y-69358095D01*
X115673809Y-69215238D02*
X116173809Y-69215238D01*
X116173809Y-69477142D02*
X115673809Y-69810476D01*
X116173809Y-69810476D02*
X115673809Y-69477142D01*
X115673809Y-70667619D02*
X115911904Y-70500952D01*
X115673809Y-70381904D02*
X116173809Y-70381904D01*
X116173809Y-70572380D01*
X116150000Y-70620000D01*
X116126190Y-70643809D01*
X116078571Y-70667619D01*
X116007142Y-70667619D01*
X115959523Y-70643809D01*
X115935714Y-70620000D01*
X115911904Y-70572380D01*
X115911904Y-70381904D01*
X116173809Y-70834285D02*
X115673809Y-71167619D01*
X116173809Y-71167619D02*
X115673809Y-70834285D01*
X116150000Y-72000952D02*
X116173809Y-71953333D01*
X116173809Y-71881904D01*
X116150000Y-71810476D01*
X116102380Y-71762857D01*
X116054761Y-71739047D01*
X115959523Y-71715238D01*
X115888095Y-71715238D01*
X115792857Y-71739047D01*
X115745238Y-71762857D01*
X115697619Y-71810476D01*
X115673809Y-71881904D01*
X115673809Y-71929523D01*
X115697619Y-72000952D01*
X115721428Y-72024761D01*
X115888095Y-72024761D01*
X115888095Y-71929523D01*
X115673809Y-72239047D02*
X116173809Y-72239047D01*
X115673809Y-72524761D01*
X116173809Y-72524761D01*
X115673809Y-72762857D02*
X116173809Y-72762857D01*
X116173809Y-72881904D01*
X116150000Y-72953333D01*
X116102380Y-73000952D01*
X116054761Y-73024761D01*
X115959523Y-73048571D01*
X115888095Y-73048571D01*
X115792857Y-73024761D01*
X115745238Y-73000952D01*
X115697619Y-72953333D01*
X115673809Y-72881904D01*
X115673809Y-72762857D01*
X116173809Y-73572380D02*
X115673809Y-73739047D01*
X116173809Y-73905714D01*
X115721428Y-74358095D02*
X115697619Y-74334285D01*
X115673809Y-74262857D01*
X115673809Y-74215238D01*
X115697619Y-74143809D01*
X115745238Y-74096190D01*
X115792857Y-74072380D01*
X115888095Y-74048571D01*
X115959523Y-74048571D01*
X116054761Y-74072380D01*
X116102380Y-74096190D01*
X116150000Y-74143809D01*
X116173809Y-74215238D01*
X116173809Y-74262857D01*
X116150000Y-74334285D01*
X116126190Y-74358095D01*
X115721428Y-74858095D02*
X115697619Y-74834285D01*
X115673809Y-74762857D01*
X115673809Y-74715238D01*
X115697619Y-74643809D01*
X115745238Y-74596190D01*
X115792857Y-74572380D01*
X115888095Y-74548571D01*
X115959523Y-74548571D01*
X116054761Y-74572380D01*
X116102380Y-74596190D01*
X116150000Y-74643809D01*
X116173809Y-74715238D01*
X116173809Y-74762857D01*
X116150000Y-74834285D01*
X116126190Y-74858095D01*
D12*
X128357380Y-90344047D02*
X129071666Y-90344047D01*
X129214523Y-90391666D01*
X129309761Y-90486904D01*
X129357380Y-90629761D01*
X129357380Y-90725000D01*
X129357380Y-89391666D02*
X129357380Y-89867857D01*
X128357380Y-89867857D01*
X129262142Y-88486904D02*
X129309761Y-88534523D01*
X129357380Y-88677380D01*
X129357380Y-88772619D01*
X129309761Y-88915476D01*
X129214523Y-89010714D01*
X129119285Y-89058333D01*
X128928809Y-89105952D01*
X128785952Y-89105952D01*
X128595476Y-89058333D01*
X128500238Y-89010714D01*
X128405000Y-88915476D01*
X128357380Y-88772619D01*
X128357380Y-88677380D01*
X128405000Y-88534523D01*
X128452619Y-88486904D01*
X128357380Y-87772619D02*
X129071666Y-87772619D01*
X129214523Y-87820238D01*
X129309761Y-87915476D01*
X129357380Y-88058333D01*
X129357380Y-88153571D01*
X129357380Y-86820238D02*
X129357380Y-87296428D01*
X128357380Y-87296428D01*
X129262142Y-85915476D02*
X129309761Y-85963095D01*
X129357380Y-86105952D01*
X129357380Y-86201190D01*
X129309761Y-86344047D01*
X129214523Y-86439285D01*
X129119285Y-86486904D01*
X128928809Y-86534523D01*
X128785952Y-86534523D01*
X128595476Y-86486904D01*
X128500238Y-86439285D01*
X128405000Y-86344047D01*
X128357380Y-86201190D01*
X128357380Y-86105952D01*
X128405000Y-85963095D01*
X128452619Y-85915476D01*
X128357380Y-85201190D02*
X129071666Y-85201190D01*
X129214523Y-85248809D01*
X129309761Y-85344047D01*
X129357380Y-85486904D01*
X129357380Y-85582142D01*
X129357380Y-84248809D02*
X129357380Y-84725000D01*
X128357380Y-84725000D01*
X129262142Y-83344047D02*
X129309761Y-83391666D01*
X129357380Y-83534523D01*
X129357380Y-83629761D01*
X129309761Y-83772619D01*
X129214523Y-83867857D01*
X129119285Y-83915476D01*
X128928809Y-83963095D01*
X128785952Y-83963095D01*
X128595476Y-83915476D01*
X128500238Y-83867857D01*
X128405000Y-83772619D01*
X128357380Y-83629761D01*
X128357380Y-83534523D01*
X128405000Y-83391666D01*
X128452619Y-83344047D01*
X128357380Y-82629761D02*
X129071666Y-82629761D01*
X129214523Y-82677380D01*
X129309761Y-82772619D01*
X129357380Y-82915476D01*
X129357380Y-83010714D01*
X129357380Y-81677380D02*
X129357380Y-82153571D01*
X128357380Y-82153571D01*
X129262142Y-80772619D02*
X129309761Y-80820238D01*
X129357380Y-80963095D01*
X129357380Y-81058333D01*
X129309761Y-81201190D01*
X129214523Y-81296428D01*
X129119285Y-81344047D01*
X128928809Y-81391666D01*
X128785952Y-81391666D01*
X128595476Y-81344047D01*
X128500238Y-81296428D01*
X128405000Y-81201190D01*
X128357380Y-81058333D01*
X128357380Y-80963095D01*
X128405000Y-80820238D01*
X128452619Y-80772619D01*
D13*
G04 #@! TO.C,X1*
X117480000Y-78600000D02*
X117480000Y-77980000D01*
X117480000Y-77980000D02*
X119600000Y-77980000D01*
X131600000Y-77980000D02*
X133720000Y-77980000D01*
X133720000Y-77980000D02*
X133720000Y-78600000D01*
G04 #@! TO.C,D1*
X132611000Y-62680000D02*
X136696000Y-62680000D01*
X136696000Y-62680000D02*
X136696000Y-60510000D01*
X136696000Y-60510000D02*
X132611000Y-60510000D01*
G04 #@! TO.C,D2*
X125386500Y-70337000D02*
X122501500Y-70337000D01*
X122501500Y-70337000D02*
X122501500Y-72157000D01*
X122501500Y-72157000D02*
X125386500Y-72157000D01*
G04 #@! TO.C,R9*
X130810000Y-74038748D02*
X130810000Y-74561252D01*
X129390000Y-74038748D02*
X129390000Y-74561252D01*
G04 #@! TO.C,R5*
X124010000Y-74038748D02*
X124010000Y-74561252D01*
X122590000Y-74038748D02*
X122590000Y-74561252D01*
G04 #@! TO.C,R4*
X128610000Y-74038748D02*
X128610000Y-74561252D01*
X127190000Y-74038748D02*
X127190000Y-74561252D01*
G04 #@! TO.C,R3*
X132967800Y-73906748D02*
X132967800Y-74429252D01*
X131547800Y-73906748D02*
X131547800Y-74429252D01*
G04 #@! TO.C,R2*
X126410000Y-74038748D02*
X126410000Y-74561252D01*
X124990000Y-74038748D02*
X124990000Y-74561252D01*
G04 #@! TO.C,R1*
X135126800Y-73957548D02*
X135126800Y-74480052D01*
X133706800Y-73957548D02*
X133706800Y-74480052D01*
G04 #@! TO.C,SW2*
X118996000Y-71248000D02*
X119296000Y-71248000D01*
X118996000Y-74548000D02*
X118996000Y-71248000D01*
X119296000Y-74548000D02*
X118996000Y-74548000D01*
X121796000Y-71248000D02*
X121496000Y-71248000D01*
X121796000Y-74548000D02*
X121796000Y-71248000D01*
X121496000Y-74548000D02*
X121796000Y-74548000D01*
G04 #@! TO.C,SW1*
X129750000Y-65000000D02*
X129750000Y-63500000D01*
X128500000Y-61000000D02*
X124000000Y-61000000D01*
X122750000Y-63500000D02*
X122750000Y-65000000D01*
X124000000Y-67500000D02*
X128500000Y-67500000D01*
G04 #@! TO.C,BT1*
X131590000Y-68560000D02*
X136310000Y-68560000D01*
X136310000Y-68560000D02*
X136310000Y-62440000D01*
X136310000Y-62440000D02*
X131590000Y-62440000D01*
X131590000Y-62440000D02*
X131590000Y-68560000D01*
X131590000Y-66800000D02*
X131390000Y-66800000D01*
X131390000Y-66800000D02*
X131390000Y-67100000D01*
X131390000Y-67100000D02*
X131590000Y-67100000D01*
X131490000Y-66800000D02*
X131490000Y-67100000D01*
X131590000Y-66000000D02*
X132200000Y-66000000D01*
X132200000Y-66000000D02*
X132200000Y-67950000D01*
X132200000Y-67950000D02*
X135700000Y-67950000D01*
X135700000Y-67950000D02*
X135700000Y-63050000D01*
X135700000Y-63050000D02*
X132200000Y-63050000D01*
X132200000Y-63050000D02*
X132200000Y-65000000D01*
X132200000Y-65000000D02*
X131590000Y-65000000D01*
X132900000Y-68560000D02*
X132900000Y-67950000D01*
X134200000Y-68560000D02*
X134200000Y-67950000D01*
X132900000Y-62440000D02*
X132900000Y-63050000D01*
X134200000Y-62440000D02*
X134200000Y-63050000D01*
X135700000Y-65600000D02*
X135200000Y-65600000D01*
X135200000Y-65600000D02*
X135200000Y-65400000D01*
X135200000Y-65400000D02*
X135700000Y-65400000D01*
X135700000Y-65500000D02*
X135200000Y-65500000D01*
X131290000Y-67610000D02*
X131290000Y-68860000D01*
X131290000Y-68860000D02*
X132540000Y-68860000D01*
G04 #@! TO.C,X1*
D12*
X124790476Y-83837380D02*
X125457142Y-84837380D01*
X125457142Y-83837380D02*
X124790476Y-84837380D01*
X126361904Y-84837380D02*
X125790476Y-84837380D01*
X126076190Y-84837380D02*
X126076190Y-83837380D01*
X125980952Y-83980238D01*
X125885714Y-84075476D01*
X125790476Y-84123095D01*
G04 #@! TO.C,D1*
X134477666Y-62211666D02*
X133777666Y-62211666D01*
X133777666Y-62045000D01*
X133811000Y-61945000D01*
X133877666Y-61878333D01*
X133944333Y-61845000D01*
X134077666Y-61811666D01*
X134177666Y-61811666D01*
X134311000Y-61845000D01*
X134377666Y-61878333D01*
X134444333Y-61945000D01*
X134477666Y-62045000D01*
X134477666Y-62211666D01*
X134477666Y-61145000D02*
X134477666Y-61545000D01*
X134477666Y-61345000D02*
X133777666Y-61345000D01*
X133877666Y-61411666D01*
X133944333Y-61478333D01*
X133977666Y-61545000D01*
G04 #@! TO.C,D2*
D11*
X124612690Y-71616047D02*
X124112690Y-71616047D01*
X124112690Y-71497000D01*
X124136500Y-71425571D01*
X124184119Y-71377952D01*
X124231738Y-71354142D01*
X124326976Y-71330333D01*
X124398404Y-71330333D01*
X124493642Y-71354142D01*
X124541261Y-71377952D01*
X124588880Y-71425571D01*
X124612690Y-71497000D01*
X124612690Y-71616047D01*
X124160309Y-71139857D02*
X124136500Y-71116047D01*
X124112690Y-71068428D01*
X124112690Y-70949380D01*
X124136500Y-70901761D01*
X124160309Y-70877952D01*
X124207928Y-70854142D01*
X124255547Y-70854142D01*
X124326976Y-70877952D01*
X124612690Y-71163666D01*
X124612690Y-70854142D01*
G04 #@! TO.C,R9*
X130116666Y-74526190D02*
X129950000Y-74288095D01*
X129830952Y-74526190D02*
X129830952Y-74026190D01*
X130021428Y-74026190D01*
X130069047Y-74050000D01*
X130092857Y-74073809D01*
X130116666Y-74121428D01*
X130116666Y-74192857D01*
X130092857Y-74240476D01*
X130069047Y-74264285D01*
X130021428Y-74288095D01*
X129830952Y-74288095D01*
X130354761Y-74526190D02*
X130450000Y-74526190D01*
X130497619Y-74502380D01*
X130521428Y-74478571D01*
X130569047Y-74407142D01*
X130592857Y-74311904D01*
X130592857Y-74121428D01*
X130569047Y-74073809D01*
X130545238Y-74050000D01*
X130497619Y-74026190D01*
X130402380Y-74026190D01*
X130354761Y-74050000D01*
X130330952Y-74073809D01*
X130307142Y-74121428D01*
X130307142Y-74240476D01*
X130330952Y-74288095D01*
X130354761Y-74311904D01*
X130402380Y-74335714D01*
X130497619Y-74335714D01*
X130545238Y-74311904D01*
X130569047Y-74288095D01*
X130592857Y-74240476D01*
G04 #@! TO.C,R5*
X123316666Y-74526190D02*
X123150000Y-74288095D01*
X123030952Y-74526190D02*
X123030952Y-74026190D01*
X123221428Y-74026190D01*
X123269047Y-74050000D01*
X123292857Y-74073809D01*
X123316666Y-74121428D01*
X123316666Y-74192857D01*
X123292857Y-74240476D01*
X123269047Y-74264285D01*
X123221428Y-74288095D01*
X123030952Y-74288095D01*
X123769047Y-74026190D02*
X123530952Y-74026190D01*
X123507142Y-74264285D01*
X123530952Y-74240476D01*
X123578571Y-74216666D01*
X123697619Y-74216666D01*
X123745238Y-74240476D01*
X123769047Y-74264285D01*
X123792857Y-74311904D01*
X123792857Y-74430952D01*
X123769047Y-74478571D01*
X123745238Y-74502380D01*
X123697619Y-74526190D01*
X123578571Y-74526190D01*
X123530952Y-74502380D01*
X123507142Y-74478571D01*
G04 #@! TO.C,R4*
X127916666Y-74526190D02*
X127750000Y-74288095D01*
X127630952Y-74526190D02*
X127630952Y-74026190D01*
X127821428Y-74026190D01*
X127869047Y-74050000D01*
X127892857Y-74073809D01*
X127916666Y-74121428D01*
X127916666Y-74192857D01*
X127892857Y-74240476D01*
X127869047Y-74264285D01*
X127821428Y-74288095D01*
X127630952Y-74288095D01*
X128345238Y-74192857D02*
X128345238Y-74526190D01*
X128226190Y-74002380D02*
X128107142Y-74359523D01*
X128416666Y-74359523D01*
G04 #@! TO.C,R3*
X132274466Y-74394190D02*
X132107800Y-74156095D01*
X131988752Y-74394190D02*
X131988752Y-73894190D01*
X132179228Y-73894190D01*
X132226847Y-73918000D01*
X132250657Y-73941809D01*
X132274466Y-73989428D01*
X132274466Y-74060857D01*
X132250657Y-74108476D01*
X132226847Y-74132285D01*
X132179228Y-74156095D01*
X131988752Y-74156095D01*
X132441133Y-73894190D02*
X132750657Y-73894190D01*
X132583990Y-74084666D01*
X132655419Y-74084666D01*
X132703038Y-74108476D01*
X132726847Y-74132285D01*
X132750657Y-74179904D01*
X132750657Y-74298952D01*
X132726847Y-74346571D01*
X132703038Y-74370380D01*
X132655419Y-74394190D01*
X132512561Y-74394190D01*
X132464942Y-74370380D01*
X132441133Y-74346571D01*
G04 #@! TO.C,R2*
X125716666Y-74526190D02*
X125550000Y-74288095D01*
X125430952Y-74526190D02*
X125430952Y-74026190D01*
X125621428Y-74026190D01*
X125669047Y-74050000D01*
X125692857Y-74073809D01*
X125716666Y-74121428D01*
X125716666Y-74192857D01*
X125692857Y-74240476D01*
X125669047Y-74264285D01*
X125621428Y-74288095D01*
X125430952Y-74288095D01*
X125907142Y-74073809D02*
X125930952Y-74050000D01*
X125978571Y-74026190D01*
X126097619Y-74026190D01*
X126145238Y-74050000D01*
X126169047Y-74073809D01*
X126192857Y-74121428D01*
X126192857Y-74169047D01*
X126169047Y-74240476D01*
X125883333Y-74526190D01*
X126192857Y-74526190D01*
G04 #@! TO.C,R1*
X134433466Y-74444990D02*
X134266800Y-74206895D01*
X134147752Y-74444990D02*
X134147752Y-73944990D01*
X134338228Y-73944990D01*
X134385847Y-73968800D01*
X134409657Y-73992609D01*
X134433466Y-74040228D01*
X134433466Y-74111657D01*
X134409657Y-74159276D01*
X134385847Y-74183085D01*
X134338228Y-74206895D01*
X134147752Y-74206895D01*
X134909657Y-74444990D02*
X134623942Y-74444990D01*
X134766800Y-74444990D02*
X134766800Y-73944990D01*
X134719180Y-74016419D01*
X134671561Y-74064038D01*
X134623942Y-74087847D01*
G04 #@! TO.C,SW2*
X119679333Y-73150380D02*
X119750761Y-73174190D01*
X119869809Y-73174190D01*
X119917428Y-73150380D01*
X119941238Y-73126571D01*
X119965047Y-73078952D01*
X119965047Y-73031333D01*
X119941238Y-72983714D01*
X119917428Y-72959904D01*
X119869809Y-72936095D01*
X119774571Y-72912285D01*
X119726952Y-72888476D01*
X119703142Y-72864666D01*
X119679333Y-72817047D01*
X119679333Y-72769428D01*
X119703142Y-72721809D01*
X119726952Y-72698000D01*
X119774571Y-72674190D01*
X119893619Y-72674190D01*
X119965047Y-72698000D01*
X120131714Y-72674190D02*
X120250761Y-73174190D01*
X120346000Y-72817047D01*
X120441238Y-73174190D01*
X120560285Y-72674190D01*
X120726952Y-72721809D02*
X120750761Y-72698000D01*
X120798380Y-72674190D01*
X120917428Y-72674190D01*
X120965047Y-72698000D01*
X120988857Y-72721809D01*
X121012666Y-72769428D01*
X121012666Y-72817047D01*
X120988857Y-72888476D01*
X120703142Y-73174190D01*
X121012666Y-73174190D01*
G04 #@! TO.C,SW1*
D12*
X124816666Y-64654761D02*
X124959523Y-64702380D01*
X125197619Y-64702380D01*
X125292857Y-64654761D01*
X125340476Y-64607142D01*
X125388095Y-64511904D01*
X125388095Y-64416666D01*
X125340476Y-64321428D01*
X125292857Y-64273809D01*
X125197619Y-64226190D01*
X125007142Y-64178571D01*
X124911904Y-64130952D01*
X124864285Y-64083333D01*
X124816666Y-63988095D01*
X124816666Y-63892857D01*
X124864285Y-63797619D01*
X124911904Y-63750000D01*
X125007142Y-63702380D01*
X125245238Y-63702380D01*
X125388095Y-63750000D01*
X125721428Y-63702380D02*
X125959523Y-64702380D01*
X126150000Y-63988095D01*
X126340476Y-64702380D01*
X126578571Y-63702380D01*
X127483333Y-64702380D02*
X126911904Y-64702380D01*
X127197619Y-64702380D02*
X127197619Y-63702380D01*
X127102380Y-63845238D01*
X127007142Y-63940476D01*
X126911904Y-63988095D01*
G04 #@! TO.C,BT1*
X135171428Y-64814285D02*
X135123809Y-64957142D01*
X135076190Y-65004761D01*
X134980952Y-65052380D01*
X134838095Y-65052380D01*
X134742857Y-65004761D01*
X134695238Y-64957142D01*
X134647619Y-64861904D01*
X134647619Y-64480952D01*
X135647619Y-64480952D01*
X135647619Y-64814285D01*
X135600000Y-64909523D01*
X135552380Y-64957142D01*
X135457142Y-65004761D01*
X135361904Y-65004761D01*
X135266666Y-64957142D01*
X135219047Y-64909523D01*
X135171428Y-64814285D01*
X135171428Y-64480952D01*
X135647619Y-65338095D02*
X135647619Y-65909523D01*
X134647619Y-65623809D02*
X135647619Y-65623809D01*
X134647619Y-66766666D02*
X134647619Y-66195238D01*
X134647619Y-66480952D02*
X135647619Y-66480952D01*
X135504761Y-66385714D01*
X135409523Y-66290476D01*
X135361904Y-66195238D01*
G04 #@! TD*
M02*
