G04 #@! TF.GenerationSoftware,KiCad,Pcbnew,(5.1.9)-1*
G04 #@! TF.CreationDate,2021-03-01T14:21:52+01:00*
G04 #@! TF.ProjectId,button_v1.2.2_Coin_Cell,62757474-6f6e-45f7-9631-2e322e325f43,rev?*
G04 #@! TF.SameCoordinates,Original*
G04 #@! TF.FileFunction,Copper,L2,Bot*
G04 #@! TF.FilePolarity,Positive*
%FSLAX46Y46*%
G04 Gerber Fmt 4.6, Leading zero omitted, Abs format (unit mm)*
G04 Created by KiCad (PCBNEW (5.1.9)-1) date 2021-03-01 14:21:52*
%MOMM*%
%LPD*%
G01*
G04 APERTURE LIST*
G04 #@! TA.AperFunction,SMDPad,CuDef*
%ADD10R,1.500000X1.100000*%
G04 #@! TD*
G04 #@! TA.AperFunction,SMDPad,CuDef*
%ADD11R,1.100000X1.500000*%
G04 #@! TD*
G04 #@! TA.AperFunction,SMDPad,CuDef*
%ADD12R,0.650000X2.000000*%
G04 #@! TD*
G04 #@! TA.AperFunction,SMDPad,CuDef*
%ADD13C,0.150000*%
G04 #@! TD*
G04 #@! TA.AperFunction,ComponentPad*
%ADD14C,2.000000*%
G04 #@! TD*
G04 #@! TA.AperFunction,ComponentPad*
%ADD15O,1.700000X1.700000*%
G04 #@! TD*
G04 #@! TA.AperFunction,ComponentPad*
%ADD16R,1.700000X1.700000*%
G04 #@! TD*
G04 #@! TA.AperFunction,SMDPad,CuDef*
%ADD17R,3.510000X2.540000*%
G04 #@! TD*
G04 #@! TA.AperFunction,SMDPad,CuDef*
%ADD18R,1.778000X2.794000*%
G04 #@! TD*
G04 #@! TA.AperFunction,ViaPad*
%ADD19C,0.800000*%
G04 #@! TD*
G04 #@! TA.AperFunction,ViaPad*
%ADD20C,0.500000*%
G04 #@! TD*
G04 #@! TA.AperFunction,Conductor*
%ADD21C,0.500000*%
G04 #@! TD*
G04 #@! TA.AperFunction,Conductor*
%ADD22C,0.250000*%
G04 #@! TD*
G04 #@! TA.AperFunction,Conductor*
%ADD23C,0.254000*%
G04 #@! TD*
G04 #@! TA.AperFunction,Conductor*
%ADD24C,0.150000*%
G04 #@! TD*
G04 APERTURE END LIST*
D10*
G04 #@! TO.P,C1,2*
G04 #@! TO.N,Net-(BT1-Pad1)*
X126820000Y-62010000D03*
G04 #@! TO.P,C1,1*
G04 #@! TO.N,/GND*
X124520000Y-62010000D03*
G04 #@! TD*
D11*
G04 #@! TO.P,C3,2*
G04 #@! TO.N,/GND*
X135000000Y-65250000D03*
G04 #@! TO.P,C3,1*
G04 #@! TO.N,/VCC*
X135000000Y-67550000D03*
G04 #@! TD*
D10*
G04 #@! TO.P,C2,2*
G04 #@! TO.N,/RST*
X133534800Y-93599000D03*
G04 #@! TO.P,C2,1*
G04 #@! TO.N,/GND*
X131234800Y-93599000D03*
G04 #@! TD*
D12*
G04 #@! TO.P,U1,5*
G04 #@! TO.N,Net-(L1-Pad2)*
X130980000Y-67220000D03*
G04 #@! TO.P,U1,4*
G04 #@! TO.N,/VCC*
X132880000Y-67220000D03*
G04 #@! TO.P,U1,3*
G04 #@! TO.N,Net-(R7-Pad2)*
X132880000Y-64170000D03*
G04 #@! TA.AperFunction,SMDPad,CuDef*
D13*
G04 #@! TO.P,U1,2*
G04 #@! TO.N,/GND*
G36*
X131605000Y-63170000D02*
G01*
X132255000Y-63170000D01*
X132255000Y-65170000D01*
X131605000Y-65170000D01*
X131605000Y-63170000D01*
G37*
G04 #@! TD.AperFunction*
D12*
G04 #@! TO.P,U1,1*
G04 #@! TO.N,Net-(BT1-Pad1)*
X130980000Y-64170000D03*
G04 #@! TD*
D14*
G04 #@! TO.P,SW1,1*
G04 #@! TO.N,/RST*
X128850000Y-56380000D03*
G04 #@! TO.P,SW1,2*
G04 #@! TO.N,/GND*
X128850000Y-60880000D03*
G04 #@! TO.P,SW1,1*
G04 #@! TO.N,/RST*
X122350000Y-56380000D03*
G04 #@! TO.P,SW1,2*
G04 #@! TO.N,/GND*
X122350000Y-60880000D03*
G04 #@! TD*
D15*
G04 #@! TO.P,J1,5*
G04 #@! TO.N,/RST*
X117220000Y-67340000D03*
G04 #@! TO.P,J1,4*
G04 #@! TO.N,/TX*
X117220000Y-69880000D03*
G04 #@! TO.P,J1,3*
G04 #@! TO.N,/RX*
X117220000Y-72420000D03*
G04 #@! TO.P,J1,2*
G04 #@! TO.N,/GND*
X117220000Y-74960000D03*
D16*
G04 #@! TO.P,J1,1*
G04 #@! TO.N,/VCC*
X117220000Y-77500000D03*
G04 #@! TD*
D17*
G04 #@! TO.P,BT1,2*
G04 #@! TO.N,/GND*
X125780800Y-93444200D03*
G04 #@! TO.P,BT1,1*
G04 #@! TO.N,Net-(BT1-Pad1)*
X125780800Y-64084200D03*
G04 #@! TD*
D18*
G04 #@! TO.P,L1,1*
G04 #@! TO.N,Net-(BT1-Pad1)*
X131632000Y-60690000D03*
G04 #@! TO.P,L1,2*
G04 #@! TO.N,Net-(L1-Pad2)*
X135188000Y-60690000D03*
G04 #@! TD*
D19*
G04 #@! TO.N,/VCC*
X135000000Y-70100000D03*
X133350010Y-79709210D03*
D20*
G04 #@! TO.N,/GND*
X134200000Y-77100000D03*
D19*
X123500000Y-73100000D03*
X118600000Y-79700000D03*
X117500000Y-79800000D03*
X120200000Y-71100000D03*
X124900000Y-94000000D03*
X126800000Y-94000000D03*
X126700000Y-92700000D03*
X124700000Y-92800000D03*
D20*
X131700000Y-70700000D03*
X131800000Y-69700000D03*
X135100000Y-65300000D03*
X131900000Y-64300000D03*
X125200000Y-70700000D03*
X133300000Y-77100000D03*
X130100000Y-76500000D03*
D19*
G04 #@! TO.N,/RST*
X133300000Y-93700000D03*
D20*
X131400000Y-75500000D03*
D19*
G04 #@! TO.N,/RX*
X117750000Y-91850000D03*
G04 #@! TO.N,/EN*
X133700000Y-75500000D03*
X133300000Y-89700000D03*
G04 #@! TO.N,Net-(BT1-Pad1)*
X126800000Y-64600000D03*
X126700000Y-63400000D03*
X124700000Y-63400000D03*
X124600000Y-64700000D03*
D20*
G04 #@! TO.N,Net-(R7-Pad2)*
X132900000Y-64300000D03*
G04 #@! TD*
D21*
G04 #@! TO.N,/VCC*
X134670000Y-67220000D02*
X135000000Y-67550000D01*
X132880000Y-67220000D02*
X134670000Y-67220000D01*
X135000000Y-67550000D02*
X135000000Y-69500000D01*
X135000000Y-69500000D02*
X135000000Y-70100000D01*
X135000000Y-70100000D02*
X135000000Y-70100000D01*
X117220000Y-77500000D02*
X130600000Y-77500000D01*
X135000000Y-73100000D02*
X135000000Y-70100000D01*
X130600000Y-77500000D02*
X135000000Y-73100000D01*
G04 #@! TO.N,/GND*
X125200000Y-71400000D02*
X123500000Y-73100000D01*
X125200000Y-70700000D02*
X125200000Y-71400000D01*
X123500000Y-73100000D02*
X126400000Y-73100000D01*
X126400000Y-73100000D02*
X129800000Y-76500000D01*
X132134801Y-92698999D02*
X132301001Y-92698999D01*
X131234800Y-93599000D02*
X132134801Y-92698999D01*
X135235990Y-78135990D02*
X134200000Y-77100000D01*
X135235990Y-89764010D02*
X135235990Y-78135990D01*
X132301001Y-92698999D02*
X135235990Y-89764010D01*
X129800000Y-76500000D02*
X130100000Y-76500000D01*
X130100000Y-76500000D02*
X130100000Y-76500000D01*
G04 #@! TO.N,/RST*
X117220000Y-67340000D02*
X123240000Y-67340000D01*
X123240000Y-67340000D02*
X131400000Y-75500000D01*
X131400000Y-75500000D02*
X131400000Y-75500000D01*
D22*
G04 #@! TO.N,/RX*
X116144999Y-78530001D02*
X116700000Y-79085002D01*
X116144999Y-73495001D02*
X116144999Y-78530001D01*
X117220000Y-72420000D02*
X116144999Y-73495001D01*
X116700000Y-79085002D02*
X116700000Y-90800000D01*
X116700000Y-90800000D02*
X117750000Y-91850000D01*
X117750000Y-91850000D02*
X117800000Y-91900000D01*
D21*
G04 #@! TO.N,/EN*
X133700000Y-75500000D02*
X132600000Y-76600000D01*
X132600000Y-76600000D02*
X132600000Y-89000000D01*
X132600000Y-89000000D02*
X133300000Y-89700000D01*
X133300000Y-89700000D02*
X133300000Y-89700000D01*
G04 #@! TO.N,Net-(BT1-Pad1)*
X125780800Y-63049200D02*
X126820000Y-62010000D01*
X125780800Y-64084200D02*
X125780800Y-63049200D01*
X127040001Y-62230001D02*
X129040001Y-62230001D01*
X126820000Y-62010000D02*
X127040001Y-62230001D01*
X129877000Y-62445000D02*
X131632000Y-60690000D01*
X129255000Y-62445000D02*
X129877000Y-62445000D01*
X129040001Y-62230001D02*
X129255000Y-62445000D01*
X129255000Y-62445000D02*
X130980000Y-64170000D01*
G04 #@! TO.N,Net-(L1-Pad2)*
X132330001Y-65869999D02*
X130980000Y-67220000D01*
X133135003Y-65869999D02*
X132330001Y-65869999D01*
X134099999Y-64905003D02*
X133135003Y-65869999D01*
X134099999Y-61778001D02*
X134099999Y-64905003D01*
X135188000Y-60690000D02*
X134099999Y-61778001D01*
G04 #@! TD*
D23*
G04 #@! TO.N,/GND*
X131107798Y-94742000D02*
X130991050Y-94742000D01*
X131107798Y-94625252D01*
X131107798Y-94742000D01*
G04 #@! TA.AperFunction,Conductor*
D24*
G36*
X131107798Y-94742000D02*
G01*
X130991050Y-94742000D01*
X131107798Y-94625252D01*
X131107798Y-94742000D01*
G37*
G04 #@! TD.AperFunction*
D23*
X131953000Y-92411138D02*
X131520550Y-92414000D01*
X131361800Y-92572750D01*
X131361800Y-93472000D01*
X131381800Y-93472000D01*
X131381800Y-93726000D01*
X131361800Y-93726000D01*
X131361800Y-93746000D01*
X131107800Y-93746000D01*
X131107800Y-93726000D01*
X130008550Y-93726000D01*
X129849800Y-93884750D01*
X129846728Y-94149000D01*
X129858988Y-94273482D01*
X129895298Y-94393180D01*
X129954263Y-94503494D01*
X130033615Y-94600185D01*
X130130306Y-94679537D01*
X130240620Y-94738502D01*
X130252151Y-94742000D01*
X128171134Y-94742000D01*
X128173872Y-94714200D01*
X128170800Y-93729950D01*
X128012050Y-93571200D01*
X125907800Y-93571200D01*
X125907800Y-93591200D01*
X125653800Y-93591200D01*
X125653800Y-93571200D01*
X125633800Y-93571200D01*
X125633800Y-93317200D01*
X125653800Y-93317200D01*
X125653800Y-93297200D01*
X125907800Y-93297200D01*
X125907800Y-93317200D01*
X128012050Y-93317200D01*
X128170800Y-93158450D01*
X128171141Y-93049000D01*
X129846728Y-93049000D01*
X129849800Y-93313250D01*
X130008550Y-93472000D01*
X131107800Y-93472000D01*
X131107800Y-92572750D01*
X130949050Y-92414000D01*
X130484800Y-92410928D01*
X130360318Y-92423188D01*
X130240620Y-92459498D01*
X130130306Y-92518463D01*
X130033615Y-92597815D01*
X129954263Y-92694506D01*
X129895298Y-92804820D01*
X129858988Y-92924518D01*
X129846728Y-93049000D01*
X128171141Y-93049000D01*
X128173785Y-92202000D01*
X131953000Y-92202000D01*
X131953000Y-92411138D01*
G04 #@! TA.AperFunction,Conductor*
D24*
G36*
X131953000Y-92411138D02*
G01*
X131520550Y-92414000D01*
X131361800Y-92572750D01*
X131361800Y-93472000D01*
X131381800Y-93472000D01*
X131381800Y-93726000D01*
X131361800Y-93726000D01*
X131361800Y-93746000D01*
X131107800Y-93746000D01*
X131107800Y-93726000D01*
X130008550Y-93726000D01*
X129849800Y-93884750D01*
X129846728Y-94149000D01*
X129858988Y-94273482D01*
X129895298Y-94393180D01*
X129954263Y-94503494D01*
X130033615Y-94600185D01*
X130130306Y-94679537D01*
X130240620Y-94738502D01*
X130252151Y-94742000D01*
X128171134Y-94742000D01*
X128173872Y-94714200D01*
X128170800Y-93729950D01*
X128012050Y-93571200D01*
X125907800Y-93571200D01*
X125907800Y-93591200D01*
X125653800Y-93591200D01*
X125653800Y-93571200D01*
X125633800Y-93571200D01*
X125633800Y-93317200D01*
X125653800Y-93317200D01*
X125653800Y-93297200D01*
X125907800Y-93297200D01*
X125907800Y-93317200D01*
X128012050Y-93317200D01*
X128170800Y-93158450D01*
X128171141Y-93049000D01*
X129846728Y-93049000D01*
X129849800Y-93313250D01*
X130008550Y-93472000D01*
X131107800Y-93472000D01*
X131107800Y-92572750D01*
X130949050Y-92414000D01*
X130484800Y-92410928D01*
X130360318Y-92423188D01*
X130240620Y-92459498D01*
X130130306Y-92518463D01*
X130033615Y-92597815D01*
X129954263Y-92694506D01*
X129895298Y-92804820D01*
X129858988Y-92924518D01*
X129846728Y-93049000D01*
X128171141Y-93049000D01*
X128173785Y-92202000D01*
X131953000Y-92202000D01*
X131953000Y-92411138D01*
G37*
G04 #@! TD.AperFunction*
D23*
X131478550Y-94742000D02*
X131361802Y-94742000D01*
X131361802Y-94625252D01*
X131478550Y-94742000D01*
G04 #@! TA.AperFunction,Conductor*
D24*
G36*
X131478550Y-94742000D02*
G01*
X131361802Y-94742000D01*
X131361802Y-94625252D01*
X131478550Y-94742000D01*
G37*
G04 #@! TD.AperFunction*
G04 #@! TD*
D23*
G04 #@! TO.N,/GND*
X135840001Y-78071344D02*
X135840000Y-78071354D01*
X135840001Y-80611344D01*
X135840000Y-80611354D01*
X135840001Y-84917666D01*
X135200464Y-85831291D01*
X135149289Y-85873290D01*
X135063688Y-85977594D01*
X135000081Y-86096595D01*
X134960912Y-86225718D01*
X134951000Y-86326354D01*
X134951001Y-94873000D01*
X128151202Y-94873000D01*
X128161612Y-94838682D01*
X128173872Y-94714200D01*
X128172108Y-94149000D01*
X129846728Y-94149000D01*
X129858988Y-94273482D01*
X129895298Y-94393180D01*
X129954263Y-94503494D01*
X130033615Y-94600185D01*
X130130306Y-94679537D01*
X130240620Y-94738502D01*
X130360318Y-94774812D01*
X130484800Y-94787072D01*
X130949050Y-94784000D01*
X131107800Y-94625250D01*
X131107800Y-93726000D01*
X130008550Y-93726000D01*
X129849800Y-93884750D01*
X129846728Y-94149000D01*
X128172108Y-94149000D01*
X128170800Y-93729950D01*
X128012050Y-93571200D01*
X125907800Y-93571200D01*
X125907800Y-93591200D01*
X125653800Y-93591200D01*
X125653800Y-93571200D01*
X123549550Y-93571200D01*
X123390800Y-93729950D01*
X123387728Y-94714200D01*
X123399988Y-94838682D01*
X123410398Y-94873000D01*
X116890000Y-94873000D01*
X116890000Y-92425870D01*
X116946063Y-92509774D01*
X117090226Y-92653937D01*
X117259744Y-92767205D01*
X117448102Y-92845226D01*
X117648061Y-92885000D01*
X117851939Y-92885000D01*
X118051898Y-92845226D01*
X118240256Y-92767205D01*
X118409774Y-92653937D01*
X118553937Y-92509774D01*
X118667205Y-92340256D01*
X118735988Y-92174200D01*
X123387728Y-92174200D01*
X123390800Y-93158450D01*
X123549550Y-93317200D01*
X125653800Y-93317200D01*
X125653800Y-91697950D01*
X125907800Y-91697950D01*
X125907800Y-93317200D01*
X128012050Y-93317200D01*
X128170800Y-93158450D01*
X128171141Y-93049000D01*
X129846728Y-93049000D01*
X129849800Y-93313250D01*
X130008550Y-93472000D01*
X131107800Y-93472000D01*
X131107800Y-92572750D01*
X131361800Y-92572750D01*
X131361800Y-93472000D01*
X131381800Y-93472000D01*
X131381800Y-93726000D01*
X131361800Y-93726000D01*
X131361800Y-94625250D01*
X131520550Y-94784000D01*
X131984800Y-94787072D01*
X132109282Y-94774812D01*
X132228980Y-94738502D01*
X132339294Y-94679537D01*
X132384800Y-94642191D01*
X132430306Y-94679537D01*
X132540620Y-94738502D01*
X132660318Y-94774812D01*
X132784800Y-94787072D01*
X134284800Y-94787072D01*
X134409282Y-94774812D01*
X134528980Y-94738502D01*
X134639294Y-94679537D01*
X134735985Y-94600185D01*
X134815337Y-94503494D01*
X134874302Y-94393180D01*
X134910612Y-94273482D01*
X134922872Y-94149000D01*
X134922872Y-93049000D01*
X134910612Y-92924518D01*
X134874302Y-92804820D01*
X134815337Y-92694506D01*
X134735985Y-92597815D01*
X134639294Y-92518463D01*
X134528980Y-92459498D01*
X134409282Y-92423188D01*
X134284800Y-92410928D01*
X132784800Y-92410928D01*
X132660318Y-92423188D01*
X132540620Y-92459498D01*
X132430306Y-92518463D01*
X132384800Y-92555809D01*
X132339294Y-92518463D01*
X132228980Y-92459498D01*
X132109282Y-92423188D01*
X131984800Y-92410928D01*
X131520550Y-92414000D01*
X131361800Y-92572750D01*
X131107800Y-92572750D01*
X130949050Y-92414000D01*
X130484800Y-92410928D01*
X130360318Y-92423188D01*
X130240620Y-92459498D01*
X130130306Y-92518463D01*
X130033615Y-92597815D01*
X129954263Y-92694506D01*
X129895298Y-92804820D01*
X129858988Y-92924518D01*
X129846728Y-93049000D01*
X128171141Y-93049000D01*
X128173872Y-92174200D01*
X128161612Y-92049718D01*
X128125302Y-91930020D01*
X128066337Y-91819706D01*
X127986985Y-91723015D01*
X127890294Y-91643663D01*
X127779980Y-91584698D01*
X127660282Y-91548388D01*
X127535800Y-91536128D01*
X126066550Y-91539200D01*
X125907800Y-91697950D01*
X125653800Y-91697950D01*
X125495050Y-91539200D01*
X124025800Y-91536128D01*
X123901318Y-91548388D01*
X123781620Y-91584698D01*
X123671306Y-91643663D01*
X123574615Y-91723015D01*
X123495263Y-91819706D01*
X123436298Y-91930020D01*
X123399988Y-92049718D01*
X123387728Y-92174200D01*
X118735988Y-92174200D01*
X118745226Y-92151898D01*
X118785000Y-91951939D01*
X118785000Y-91748061D01*
X118745226Y-91548102D01*
X118667205Y-91359744D01*
X118553937Y-91190226D01*
X118409774Y-91046063D01*
X118240256Y-90932795D01*
X118051898Y-90854774D01*
X117851939Y-90815000D01*
X117789802Y-90815000D01*
X117460000Y-90485199D01*
X117460000Y-79122325D01*
X117463676Y-79085002D01*
X117460000Y-79047679D01*
X117460000Y-79047669D01*
X117454130Y-78988072D01*
X118070000Y-78988072D01*
X118194482Y-78975812D01*
X118314180Y-78939502D01*
X118424494Y-78880537D01*
X118521185Y-78801185D01*
X118600537Y-78704494D01*
X118659502Y-78594180D01*
X118695812Y-78474482D01*
X118704625Y-78385000D01*
X130556531Y-78385000D01*
X130600000Y-78389281D01*
X130643469Y-78385000D01*
X130643477Y-78385000D01*
X130773490Y-78372195D01*
X130940313Y-78321589D01*
X131094059Y-78239411D01*
X131228817Y-78128817D01*
X131256534Y-78095044D01*
X131715000Y-77636578D01*
X131715001Y-88956521D01*
X131710719Y-89000000D01*
X131727805Y-89173490D01*
X131778412Y-89340313D01*
X131860590Y-89494059D01*
X131943468Y-89595046D01*
X131943471Y-89595049D01*
X131971184Y-89628817D01*
X132004951Y-89656529D01*
X132293465Y-89945043D01*
X132304774Y-90001898D01*
X132382795Y-90190256D01*
X132496063Y-90359774D01*
X132640226Y-90503937D01*
X132809744Y-90617205D01*
X132998102Y-90695226D01*
X133198061Y-90735000D01*
X133401939Y-90735000D01*
X133601898Y-90695226D01*
X133790256Y-90617205D01*
X133959774Y-90503937D01*
X134103937Y-90359774D01*
X134217205Y-90190256D01*
X134295226Y-90001898D01*
X134335000Y-89801939D01*
X134335000Y-89598061D01*
X134295226Y-89398102D01*
X134217205Y-89209744D01*
X134103937Y-89040226D01*
X133959774Y-88896063D01*
X133790256Y-88782795D01*
X133601898Y-88704774D01*
X133545043Y-88693465D01*
X133485000Y-88633422D01*
X133485000Y-80737636D01*
X133651908Y-80704436D01*
X133840266Y-80626415D01*
X134009784Y-80513147D01*
X134153947Y-80368984D01*
X134267215Y-80199466D01*
X134345236Y-80011108D01*
X134385010Y-79811149D01*
X134385010Y-79607271D01*
X134345236Y-79407312D01*
X134267215Y-79218954D01*
X134153947Y-79049436D01*
X134009784Y-78905273D01*
X133840266Y-78792005D01*
X133651908Y-78713984D01*
X133485000Y-78680784D01*
X133485000Y-76966578D01*
X133945044Y-76506535D01*
X134001898Y-76495226D01*
X134190256Y-76417205D01*
X134359774Y-76303937D01*
X134503937Y-76159774D01*
X134617205Y-75990256D01*
X134695226Y-75801898D01*
X134735000Y-75601939D01*
X134735000Y-75398061D01*
X134695226Y-75198102D01*
X134617205Y-75009744D01*
X134506907Y-74844671D01*
X135595050Y-73756528D01*
X135628817Y-73728817D01*
X135739411Y-73594059D01*
X135792358Y-73495001D01*
X135821589Y-73440314D01*
X135840001Y-73379619D01*
X135840001Y-78071344D01*
G04 #@! TA.AperFunction,Conductor*
D24*
G36*
X135840001Y-78071344D02*
G01*
X135840000Y-78071354D01*
X135840001Y-80611344D01*
X135840000Y-80611354D01*
X135840001Y-84917666D01*
X135200464Y-85831291D01*
X135149289Y-85873290D01*
X135063688Y-85977594D01*
X135000081Y-86096595D01*
X134960912Y-86225718D01*
X134951000Y-86326354D01*
X134951001Y-94873000D01*
X128151202Y-94873000D01*
X128161612Y-94838682D01*
X128173872Y-94714200D01*
X128172108Y-94149000D01*
X129846728Y-94149000D01*
X129858988Y-94273482D01*
X129895298Y-94393180D01*
X129954263Y-94503494D01*
X130033615Y-94600185D01*
X130130306Y-94679537D01*
X130240620Y-94738502D01*
X130360318Y-94774812D01*
X130484800Y-94787072D01*
X130949050Y-94784000D01*
X131107800Y-94625250D01*
X131107800Y-93726000D01*
X130008550Y-93726000D01*
X129849800Y-93884750D01*
X129846728Y-94149000D01*
X128172108Y-94149000D01*
X128170800Y-93729950D01*
X128012050Y-93571200D01*
X125907800Y-93571200D01*
X125907800Y-93591200D01*
X125653800Y-93591200D01*
X125653800Y-93571200D01*
X123549550Y-93571200D01*
X123390800Y-93729950D01*
X123387728Y-94714200D01*
X123399988Y-94838682D01*
X123410398Y-94873000D01*
X116890000Y-94873000D01*
X116890000Y-92425870D01*
X116946063Y-92509774D01*
X117090226Y-92653937D01*
X117259744Y-92767205D01*
X117448102Y-92845226D01*
X117648061Y-92885000D01*
X117851939Y-92885000D01*
X118051898Y-92845226D01*
X118240256Y-92767205D01*
X118409774Y-92653937D01*
X118553937Y-92509774D01*
X118667205Y-92340256D01*
X118735988Y-92174200D01*
X123387728Y-92174200D01*
X123390800Y-93158450D01*
X123549550Y-93317200D01*
X125653800Y-93317200D01*
X125653800Y-91697950D01*
X125907800Y-91697950D01*
X125907800Y-93317200D01*
X128012050Y-93317200D01*
X128170800Y-93158450D01*
X128171141Y-93049000D01*
X129846728Y-93049000D01*
X129849800Y-93313250D01*
X130008550Y-93472000D01*
X131107800Y-93472000D01*
X131107800Y-92572750D01*
X131361800Y-92572750D01*
X131361800Y-93472000D01*
X131381800Y-93472000D01*
X131381800Y-93726000D01*
X131361800Y-93726000D01*
X131361800Y-94625250D01*
X131520550Y-94784000D01*
X131984800Y-94787072D01*
X132109282Y-94774812D01*
X132228980Y-94738502D01*
X132339294Y-94679537D01*
X132384800Y-94642191D01*
X132430306Y-94679537D01*
X132540620Y-94738502D01*
X132660318Y-94774812D01*
X132784800Y-94787072D01*
X134284800Y-94787072D01*
X134409282Y-94774812D01*
X134528980Y-94738502D01*
X134639294Y-94679537D01*
X134735985Y-94600185D01*
X134815337Y-94503494D01*
X134874302Y-94393180D01*
X134910612Y-94273482D01*
X134922872Y-94149000D01*
X134922872Y-93049000D01*
X134910612Y-92924518D01*
X134874302Y-92804820D01*
X134815337Y-92694506D01*
X134735985Y-92597815D01*
X134639294Y-92518463D01*
X134528980Y-92459498D01*
X134409282Y-92423188D01*
X134284800Y-92410928D01*
X132784800Y-92410928D01*
X132660318Y-92423188D01*
X132540620Y-92459498D01*
X132430306Y-92518463D01*
X132384800Y-92555809D01*
X132339294Y-92518463D01*
X132228980Y-92459498D01*
X132109282Y-92423188D01*
X131984800Y-92410928D01*
X131520550Y-92414000D01*
X131361800Y-92572750D01*
X131107800Y-92572750D01*
X130949050Y-92414000D01*
X130484800Y-92410928D01*
X130360318Y-92423188D01*
X130240620Y-92459498D01*
X130130306Y-92518463D01*
X130033615Y-92597815D01*
X129954263Y-92694506D01*
X129895298Y-92804820D01*
X129858988Y-92924518D01*
X129846728Y-93049000D01*
X128171141Y-93049000D01*
X128173872Y-92174200D01*
X128161612Y-92049718D01*
X128125302Y-91930020D01*
X128066337Y-91819706D01*
X127986985Y-91723015D01*
X127890294Y-91643663D01*
X127779980Y-91584698D01*
X127660282Y-91548388D01*
X127535800Y-91536128D01*
X126066550Y-91539200D01*
X125907800Y-91697950D01*
X125653800Y-91697950D01*
X125495050Y-91539200D01*
X124025800Y-91536128D01*
X123901318Y-91548388D01*
X123781620Y-91584698D01*
X123671306Y-91643663D01*
X123574615Y-91723015D01*
X123495263Y-91819706D01*
X123436298Y-91930020D01*
X123399988Y-92049718D01*
X123387728Y-92174200D01*
X118735988Y-92174200D01*
X118745226Y-92151898D01*
X118785000Y-91951939D01*
X118785000Y-91748061D01*
X118745226Y-91548102D01*
X118667205Y-91359744D01*
X118553937Y-91190226D01*
X118409774Y-91046063D01*
X118240256Y-90932795D01*
X118051898Y-90854774D01*
X117851939Y-90815000D01*
X117789802Y-90815000D01*
X117460000Y-90485199D01*
X117460000Y-79122325D01*
X117463676Y-79085002D01*
X117460000Y-79047679D01*
X117460000Y-79047669D01*
X117454130Y-78988072D01*
X118070000Y-78988072D01*
X118194482Y-78975812D01*
X118314180Y-78939502D01*
X118424494Y-78880537D01*
X118521185Y-78801185D01*
X118600537Y-78704494D01*
X118659502Y-78594180D01*
X118695812Y-78474482D01*
X118704625Y-78385000D01*
X130556531Y-78385000D01*
X130600000Y-78389281D01*
X130643469Y-78385000D01*
X130643477Y-78385000D01*
X130773490Y-78372195D01*
X130940313Y-78321589D01*
X131094059Y-78239411D01*
X131228817Y-78128817D01*
X131256534Y-78095044D01*
X131715000Y-77636578D01*
X131715001Y-88956521D01*
X131710719Y-89000000D01*
X131727805Y-89173490D01*
X131778412Y-89340313D01*
X131860590Y-89494059D01*
X131943468Y-89595046D01*
X131943471Y-89595049D01*
X131971184Y-89628817D01*
X132004951Y-89656529D01*
X132293465Y-89945043D01*
X132304774Y-90001898D01*
X132382795Y-90190256D01*
X132496063Y-90359774D01*
X132640226Y-90503937D01*
X132809744Y-90617205D01*
X132998102Y-90695226D01*
X133198061Y-90735000D01*
X133401939Y-90735000D01*
X133601898Y-90695226D01*
X133790256Y-90617205D01*
X133959774Y-90503937D01*
X134103937Y-90359774D01*
X134217205Y-90190256D01*
X134295226Y-90001898D01*
X134335000Y-89801939D01*
X134335000Y-89598061D01*
X134295226Y-89398102D01*
X134217205Y-89209744D01*
X134103937Y-89040226D01*
X133959774Y-88896063D01*
X133790256Y-88782795D01*
X133601898Y-88704774D01*
X133545043Y-88693465D01*
X133485000Y-88633422D01*
X133485000Y-80737636D01*
X133651908Y-80704436D01*
X133840266Y-80626415D01*
X134009784Y-80513147D01*
X134153947Y-80368984D01*
X134267215Y-80199466D01*
X134345236Y-80011108D01*
X134385010Y-79811149D01*
X134385010Y-79607271D01*
X134345236Y-79407312D01*
X134267215Y-79218954D01*
X134153947Y-79049436D01*
X134009784Y-78905273D01*
X133840266Y-78792005D01*
X133651908Y-78713984D01*
X133485000Y-78680784D01*
X133485000Y-76966578D01*
X133945044Y-76506535D01*
X134001898Y-76495226D01*
X134190256Y-76417205D01*
X134359774Y-76303937D01*
X134503937Y-76159774D01*
X134617205Y-75990256D01*
X134695226Y-75801898D01*
X134735000Y-75601939D01*
X134735000Y-75398061D01*
X134695226Y-75198102D01*
X134617205Y-75009744D01*
X134506907Y-74844671D01*
X135595050Y-73756528D01*
X135628817Y-73728817D01*
X135739411Y-73594059D01*
X135792358Y-73495001D01*
X135821589Y-73440314D01*
X135840001Y-73379619D01*
X135840001Y-78071344D01*
G37*
G04 #@! TD.AperFunction*
D23*
X130712576Y-76064155D02*
X130743468Y-76095047D01*
X130747934Y-76100488D01*
X130233422Y-76615000D01*
X118704625Y-76615000D01*
X118695812Y-76525518D01*
X118659502Y-76405820D01*
X118600537Y-76295506D01*
X118521185Y-76198815D01*
X118424494Y-76119463D01*
X118314180Y-76060498D01*
X118233534Y-76036034D01*
X118317588Y-75960269D01*
X118491641Y-75726920D01*
X118616825Y-75464099D01*
X118661476Y-75316890D01*
X118540155Y-75087000D01*
X117347000Y-75087000D01*
X117347000Y-75107000D01*
X117093000Y-75107000D01*
X117093000Y-75087000D01*
X117073000Y-75087000D01*
X117073000Y-74833000D01*
X117093000Y-74833000D01*
X117093000Y-74813000D01*
X117347000Y-74813000D01*
X117347000Y-74833000D01*
X118540155Y-74833000D01*
X118661476Y-74603110D01*
X118616825Y-74455901D01*
X118491641Y-74193080D01*
X118317588Y-73959731D01*
X118101355Y-73764822D01*
X117984466Y-73695195D01*
X118166632Y-73573475D01*
X118373475Y-73366632D01*
X118535990Y-73123411D01*
X118647932Y-72853158D01*
X118705000Y-72566260D01*
X118705000Y-72273740D01*
X118647932Y-71986842D01*
X118535990Y-71716589D01*
X118373475Y-71473368D01*
X118166632Y-71266525D01*
X117992240Y-71150000D01*
X118166632Y-71033475D01*
X118373475Y-70826632D01*
X118535990Y-70583411D01*
X118647932Y-70313158D01*
X118705000Y-70026260D01*
X118705000Y-69733740D01*
X118647932Y-69446842D01*
X118535990Y-69176589D01*
X118373475Y-68933368D01*
X118166632Y-68726525D01*
X117992240Y-68610000D01*
X118166632Y-68493475D01*
X118373475Y-68286632D01*
X118414656Y-68225000D01*
X122873422Y-68225000D01*
X130712576Y-76064155D01*
G04 #@! TA.AperFunction,Conductor*
D24*
G36*
X130712576Y-76064155D02*
G01*
X130743468Y-76095047D01*
X130747934Y-76100488D01*
X130233422Y-76615000D01*
X118704625Y-76615000D01*
X118695812Y-76525518D01*
X118659502Y-76405820D01*
X118600537Y-76295506D01*
X118521185Y-76198815D01*
X118424494Y-76119463D01*
X118314180Y-76060498D01*
X118233534Y-76036034D01*
X118317588Y-75960269D01*
X118491641Y-75726920D01*
X118616825Y-75464099D01*
X118661476Y-75316890D01*
X118540155Y-75087000D01*
X117347000Y-75087000D01*
X117347000Y-75107000D01*
X117093000Y-75107000D01*
X117093000Y-75087000D01*
X117073000Y-75087000D01*
X117073000Y-74833000D01*
X117093000Y-74833000D01*
X117093000Y-74813000D01*
X117347000Y-74813000D01*
X117347000Y-74833000D01*
X118540155Y-74833000D01*
X118661476Y-74603110D01*
X118616825Y-74455901D01*
X118491641Y-74193080D01*
X118317588Y-73959731D01*
X118101355Y-73764822D01*
X117984466Y-73695195D01*
X118166632Y-73573475D01*
X118373475Y-73366632D01*
X118535990Y-73123411D01*
X118647932Y-72853158D01*
X118705000Y-72566260D01*
X118705000Y-72273740D01*
X118647932Y-71986842D01*
X118535990Y-71716589D01*
X118373475Y-71473368D01*
X118166632Y-71266525D01*
X117992240Y-71150000D01*
X118166632Y-71033475D01*
X118373475Y-70826632D01*
X118535990Y-70583411D01*
X118647932Y-70313158D01*
X118705000Y-70026260D01*
X118705000Y-69733740D01*
X118647932Y-69446842D01*
X118535990Y-69176589D01*
X118373475Y-68933368D01*
X118166632Y-68726525D01*
X117992240Y-68610000D01*
X118166632Y-68493475D01*
X118373475Y-68286632D01*
X118414656Y-68225000D01*
X122873422Y-68225000D01*
X130712576Y-76064155D01*
G37*
G04 #@! TD.AperFunction*
D23*
X121080013Y-55337748D02*
X120901082Y-55605537D01*
X120777832Y-55903088D01*
X120715000Y-56218967D01*
X120715000Y-56541033D01*
X120777832Y-56856912D01*
X120901082Y-57154463D01*
X121080013Y-57422252D01*
X121307748Y-57649987D01*
X121575537Y-57828918D01*
X121873088Y-57952168D01*
X122188967Y-58015000D01*
X122511033Y-58015000D01*
X122826912Y-57952168D01*
X123124463Y-57828918D01*
X123392252Y-57649987D01*
X123619987Y-57422252D01*
X123798918Y-57154463D01*
X123922168Y-56856912D01*
X123985000Y-56541033D01*
X123985000Y-56218967D01*
X123922168Y-55903088D01*
X123798918Y-55605537D01*
X123619987Y-55337748D01*
X123513739Y-55231500D01*
X127686261Y-55231500D01*
X127580013Y-55337748D01*
X127401082Y-55605537D01*
X127277832Y-55903088D01*
X127215000Y-56218967D01*
X127215000Y-56541033D01*
X127277832Y-56856912D01*
X127401082Y-57154463D01*
X127580013Y-57422252D01*
X127807748Y-57649987D01*
X128075537Y-57828918D01*
X128373088Y-57952168D01*
X128688967Y-58015000D01*
X129011033Y-58015000D01*
X129326912Y-57952168D01*
X129624463Y-57828918D01*
X129892252Y-57649987D01*
X130119987Y-57422252D01*
X130298918Y-57154463D01*
X130422168Y-56856912D01*
X130485000Y-56541033D01*
X130485000Y-56218967D01*
X130422168Y-55903088D01*
X130298918Y-55605537D01*
X130119987Y-55337748D01*
X130013739Y-55231500D01*
X135840000Y-55231500D01*
X135840000Y-58654928D01*
X134299000Y-58654928D01*
X134174518Y-58667188D01*
X134054820Y-58703498D01*
X133944506Y-58762463D01*
X133847815Y-58841815D01*
X133768463Y-58938506D01*
X133709498Y-59048820D01*
X133673188Y-59168518D01*
X133660928Y-59293000D01*
X133660928Y-60965494D01*
X133504955Y-61121467D01*
X133471182Y-61149184D01*
X133360588Y-61283943D01*
X133278410Y-61437689D01*
X133262362Y-61490591D01*
X133228814Y-61601184D01*
X133227804Y-61604512D01*
X133214999Y-61734525D01*
X133214999Y-61734532D01*
X133210718Y-61778001D01*
X133214999Y-61821470D01*
X133214999Y-62532913D01*
X133205000Y-62531928D01*
X132977320Y-62531928D01*
X133051537Y-62441494D01*
X133110502Y-62331180D01*
X133146812Y-62211482D01*
X133159072Y-62087000D01*
X133159072Y-59293000D01*
X133146812Y-59168518D01*
X133110502Y-59048820D01*
X133051537Y-58938506D01*
X132972185Y-58841815D01*
X132875494Y-58762463D01*
X132765180Y-58703498D01*
X132645482Y-58667188D01*
X132521000Y-58654928D01*
X130743000Y-58654928D01*
X130618518Y-58667188D01*
X130498820Y-58703498D01*
X130388506Y-58762463D01*
X130291815Y-58841815D01*
X130212463Y-58938506D01*
X130153498Y-59048820D01*
X130117188Y-59168518D01*
X130104928Y-59293000D01*
X130104928Y-59967479D01*
X129985413Y-59924192D01*
X129029605Y-60880000D01*
X129043748Y-60894143D01*
X128864143Y-61073748D01*
X128850000Y-61059605D01*
X128835858Y-61073748D01*
X128656253Y-60894143D01*
X128670395Y-60880000D01*
X127714587Y-59924192D01*
X127450186Y-60019956D01*
X127309296Y-60309571D01*
X127227616Y-60621108D01*
X127215539Y-60821928D01*
X126070000Y-60821928D01*
X125945518Y-60834188D01*
X125825820Y-60870498D01*
X125715506Y-60929463D01*
X125670000Y-60966809D01*
X125624494Y-60929463D01*
X125514180Y-60870498D01*
X125394482Y-60834188D01*
X125270000Y-60821928D01*
X124805750Y-60825000D01*
X124647000Y-60983750D01*
X124647000Y-61883000D01*
X124667000Y-61883000D01*
X124667000Y-62137000D01*
X124647000Y-62137000D01*
X124647000Y-62157000D01*
X124393000Y-62157000D01*
X124393000Y-62137000D01*
X124373000Y-62137000D01*
X124373000Y-61883000D01*
X124393000Y-61883000D01*
X124393000Y-60983750D01*
X124234250Y-60825000D01*
X123991358Y-60823393D01*
X123991718Y-60817405D01*
X123947961Y-60498325D01*
X123842795Y-60193912D01*
X123749814Y-60019956D01*
X123485413Y-59924192D01*
X122529605Y-60880000D01*
X123132191Y-61482586D01*
X123135000Y-61724250D01*
X123293748Y-61882998D01*
X123173393Y-61882998D01*
X122350000Y-61059605D01*
X121394192Y-62015413D01*
X121489956Y-62279814D01*
X121779571Y-62420704D01*
X122091108Y-62502384D01*
X122412595Y-62521718D01*
X122731675Y-62477961D01*
X123036088Y-62372795D01*
X123134717Y-62320077D01*
X123131928Y-62560000D01*
X123144188Y-62684482D01*
X123180498Y-62804180D01*
X123239463Y-62914494D01*
X123318815Y-63011185D01*
X123387728Y-63067740D01*
X123387728Y-65354200D01*
X123399988Y-65478682D01*
X123436298Y-65598380D01*
X123495263Y-65708694D01*
X123574615Y-65805385D01*
X123671306Y-65884737D01*
X123781620Y-65943702D01*
X123901318Y-65980012D01*
X124025800Y-65992272D01*
X127535800Y-65992272D01*
X127660282Y-65980012D01*
X127779980Y-65943702D01*
X127890294Y-65884737D01*
X127986985Y-65805385D01*
X128066337Y-65708694D01*
X128125302Y-65598380D01*
X128161612Y-65478682D01*
X128173872Y-65354200D01*
X128173872Y-63115001D01*
X128673423Y-63115001D01*
X130016928Y-64458507D01*
X130016928Y-65170000D01*
X130029188Y-65294482D01*
X130065498Y-65414180D01*
X130124463Y-65524494D01*
X130203815Y-65621185D01*
X130293759Y-65695000D01*
X130203815Y-65768815D01*
X130124463Y-65865506D01*
X130065498Y-65975820D01*
X130029188Y-66095518D01*
X130016928Y-66220000D01*
X130016928Y-68220000D01*
X130029188Y-68344482D01*
X130065498Y-68464180D01*
X130124463Y-68574494D01*
X130203815Y-68671185D01*
X130300506Y-68750537D01*
X130410820Y-68809502D01*
X130530518Y-68845812D01*
X130655000Y-68858072D01*
X131305000Y-68858072D01*
X131429482Y-68845812D01*
X131549180Y-68809502D01*
X131659494Y-68750537D01*
X131756185Y-68671185D01*
X131835537Y-68574494D01*
X131894502Y-68464180D01*
X131930000Y-68347159D01*
X131965498Y-68464180D01*
X132024463Y-68574494D01*
X132103815Y-68671185D01*
X132200506Y-68750537D01*
X132310820Y-68809502D01*
X132430518Y-68845812D01*
X132555000Y-68858072D01*
X133205000Y-68858072D01*
X133329482Y-68845812D01*
X133449180Y-68809502D01*
X133559494Y-68750537D01*
X133656185Y-68671185D01*
X133735537Y-68574494D01*
X133794502Y-68464180D01*
X133819864Y-68380574D01*
X133824188Y-68424482D01*
X133860498Y-68544180D01*
X133919463Y-68654494D01*
X133998815Y-68751185D01*
X134095506Y-68830537D01*
X134115001Y-68840957D01*
X134115001Y-69456514D01*
X134115000Y-69456524D01*
X134115000Y-69561546D01*
X134082795Y-69609744D01*
X134004774Y-69798102D01*
X133965000Y-69998061D01*
X133965000Y-70201939D01*
X134004774Y-70401898D01*
X134082795Y-70590256D01*
X134115001Y-70638456D01*
X134115000Y-72733421D01*
X132000488Y-74847934D01*
X131995049Y-74843470D01*
X131964155Y-74812576D01*
X123896534Y-66744956D01*
X123868817Y-66711183D01*
X123734059Y-66600589D01*
X123580313Y-66518411D01*
X123413490Y-66467805D01*
X123283477Y-66455000D01*
X123283469Y-66455000D01*
X123240000Y-66450719D01*
X123196531Y-66455000D01*
X118414656Y-66455000D01*
X118373475Y-66393368D01*
X118166632Y-66186525D01*
X117923411Y-66024010D01*
X117653158Y-65912068D01*
X117366260Y-65855000D01*
X117073740Y-65855000D01*
X116786842Y-65912068D01*
X116516589Y-66024010D01*
X116273368Y-66186525D01*
X116255000Y-66204893D01*
X116255000Y-60942595D01*
X120708282Y-60942595D01*
X120752039Y-61261675D01*
X120857205Y-61566088D01*
X120950186Y-61740044D01*
X121214587Y-61835808D01*
X122170395Y-60880000D01*
X121214587Y-59924192D01*
X120950186Y-60019956D01*
X120809296Y-60309571D01*
X120727616Y-60621108D01*
X120708282Y-60942595D01*
X116255000Y-60942595D01*
X116255000Y-59744587D01*
X121394192Y-59744587D01*
X122350000Y-60700395D01*
X123305808Y-59744587D01*
X127894192Y-59744587D01*
X128850000Y-60700395D01*
X129805808Y-59744587D01*
X129710044Y-59480186D01*
X129420429Y-59339296D01*
X129108892Y-59257616D01*
X128787405Y-59238282D01*
X128468325Y-59282039D01*
X128163912Y-59387205D01*
X127989956Y-59480186D01*
X127894192Y-59744587D01*
X123305808Y-59744587D01*
X123210044Y-59480186D01*
X122920429Y-59339296D01*
X122608892Y-59257616D01*
X122287405Y-59238282D01*
X121968325Y-59282039D01*
X121663912Y-59387205D01*
X121489956Y-59480186D01*
X121394192Y-59744587D01*
X116255000Y-59744587D01*
X116255000Y-55231500D01*
X121186261Y-55231500D01*
X121080013Y-55337748D01*
G04 #@! TA.AperFunction,Conductor*
D24*
G36*
X121080013Y-55337748D02*
G01*
X120901082Y-55605537D01*
X120777832Y-55903088D01*
X120715000Y-56218967D01*
X120715000Y-56541033D01*
X120777832Y-56856912D01*
X120901082Y-57154463D01*
X121080013Y-57422252D01*
X121307748Y-57649987D01*
X121575537Y-57828918D01*
X121873088Y-57952168D01*
X122188967Y-58015000D01*
X122511033Y-58015000D01*
X122826912Y-57952168D01*
X123124463Y-57828918D01*
X123392252Y-57649987D01*
X123619987Y-57422252D01*
X123798918Y-57154463D01*
X123922168Y-56856912D01*
X123985000Y-56541033D01*
X123985000Y-56218967D01*
X123922168Y-55903088D01*
X123798918Y-55605537D01*
X123619987Y-55337748D01*
X123513739Y-55231500D01*
X127686261Y-55231500D01*
X127580013Y-55337748D01*
X127401082Y-55605537D01*
X127277832Y-55903088D01*
X127215000Y-56218967D01*
X127215000Y-56541033D01*
X127277832Y-56856912D01*
X127401082Y-57154463D01*
X127580013Y-57422252D01*
X127807748Y-57649987D01*
X128075537Y-57828918D01*
X128373088Y-57952168D01*
X128688967Y-58015000D01*
X129011033Y-58015000D01*
X129326912Y-57952168D01*
X129624463Y-57828918D01*
X129892252Y-57649987D01*
X130119987Y-57422252D01*
X130298918Y-57154463D01*
X130422168Y-56856912D01*
X130485000Y-56541033D01*
X130485000Y-56218967D01*
X130422168Y-55903088D01*
X130298918Y-55605537D01*
X130119987Y-55337748D01*
X130013739Y-55231500D01*
X135840000Y-55231500D01*
X135840000Y-58654928D01*
X134299000Y-58654928D01*
X134174518Y-58667188D01*
X134054820Y-58703498D01*
X133944506Y-58762463D01*
X133847815Y-58841815D01*
X133768463Y-58938506D01*
X133709498Y-59048820D01*
X133673188Y-59168518D01*
X133660928Y-59293000D01*
X133660928Y-60965494D01*
X133504955Y-61121467D01*
X133471182Y-61149184D01*
X133360588Y-61283943D01*
X133278410Y-61437689D01*
X133262362Y-61490591D01*
X133228814Y-61601184D01*
X133227804Y-61604512D01*
X133214999Y-61734525D01*
X133214999Y-61734532D01*
X133210718Y-61778001D01*
X133214999Y-61821470D01*
X133214999Y-62532913D01*
X133205000Y-62531928D01*
X132977320Y-62531928D01*
X133051537Y-62441494D01*
X133110502Y-62331180D01*
X133146812Y-62211482D01*
X133159072Y-62087000D01*
X133159072Y-59293000D01*
X133146812Y-59168518D01*
X133110502Y-59048820D01*
X133051537Y-58938506D01*
X132972185Y-58841815D01*
X132875494Y-58762463D01*
X132765180Y-58703498D01*
X132645482Y-58667188D01*
X132521000Y-58654928D01*
X130743000Y-58654928D01*
X130618518Y-58667188D01*
X130498820Y-58703498D01*
X130388506Y-58762463D01*
X130291815Y-58841815D01*
X130212463Y-58938506D01*
X130153498Y-59048820D01*
X130117188Y-59168518D01*
X130104928Y-59293000D01*
X130104928Y-59967479D01*
X129985413Y-59924192D01*
X129029605Y-60880000D01*
X129043748Y-60894143D01*
X128864143Y-61073748D01*
X128850000Y-61059605D01*
X128835858Y-61073748D01*
X128656253Y-60894143D01*
X128670395Y-60880000D01*
X127714587Y-59924192D01*
X127450186Y-60019956D01*
X127309296Y-60309571D01*
X127227616Y-60621108D01*
X127215539Y-60821928D01*
X126070000Y-60821928D01*
X125945518Y-60834188D01*
X125825820Y-60870498D01*
X125715506Y-60929463D01*
X125670000Y-60966809D01*
X125624494Y-60929463D01*
X125514180Y-60870498D01*
X125394482Y-60834188D01*
X125270000Y-60821928D01*
X124805750Y-60825000D01*
X124647000Y-60983750D01*
X124647000Y-61883000D01*
X124667000Y-61883000D01*
X124667000Y-62137000D01*
X124647000Y-62137000D01*
X124647000Y-62157000D01*
X124393000Y-62157000D01*
X124393000Y-62137000D01*
X124373000Y-62137000D01*
X124373000Y-61883000D01*
X124393000Y-61883000D01*
X124393000Y-60983750D01*
X124234250Y-60825000D01*
X123991358Y-60823393D01*
X123991718Y-60817405D01*
X123947961Y-60498325D01*
X123842795Y-60193912D01*
X123749814Y-60019956D01*
X123485413Y-59924192D01*
X122529605Y-60880000D01*
X123132191Y-61482586D01*
X123135000Y-61724250D01*
X123293748Y-61882998D01*
X123173393Y-61882998D01*
X122350000Y-61059605D01*
X121394192Y-62015413D01*
X121489956Y-62279814D01*
X121779571Y-62420704D01*
X122091108Y-62502384D01*
X122412595Y-62521718D01*
X122731675Y-62477961D01*
X123036088Y-62372795D01*
X123134717Y-62320077D01*
X123131928Y-62560000D01*
X123144188Y-62684482D01*
X123180498Y-62804180D01*
X123239463Y-62914494D01*
X123318815Y-63011185D01*
X123387728Y-63067740D01*
X123387728Y-65354200D01*
X123399988Y-65478682D01*
X123436298Y-65598380D01*
X123495263Y-65708694D01*
X123574615Y-65805385D01*
X123671306Y-65884737D01*
X123781620Y-65943702D01*
X123901318Y-65980012D01*
X124025800Y-65992272D01*
X127535800Y-65992272D01*
X127660282Y-65980012D01*
X127779980Y-65943702D01*
X127890294Y-65884737D01*
X127986985Y-65805385D01*
X128066337Y-65708694D01*
X128125302Y-65598380D01*
X128161612Y-65478682D01*
X128173872Y-65354200D01*
X128173872Y-63115001D01*
X128673423Y-63115001D01*
X130016928Y-64458507D01*
X130016928Y-65170000D01*
X130029188Y-65294482D01*
X130065498Y-65414180D01*
X130124463Y-65524494D01*
X130203815Y-65621185D01*
X130293759Y-65695000D01*
X130203815Y-65768815D01*
X130124463Y-65865506D01*
X130065498Y-65975820D01*
X130029188Y-66095518D01*
X130016928Y-66220000D01*
X130016928Y-68220000D01*
X130029188Y-68344482D01*
X130065498Y-68464180D01*
X130124463Y-68574494D01*
X130203815Y-68671185D01*
X130300506Y-68750537D01*
X130410820Y-68809502D01*
X130530518Y-68845812D01*
X130655000Y-68858072D01*
X131305000Y-68858072D01*
X131429482Y-68845812D01*
X131549180Y-68809502D01*
X131659494Y-68750537D01*
X131756185Y-68671185D01*
X131835537Y-68574494D01*
X131894502Y-68464180D01*
X131930000Y-68347159D01*
X131965498Y-68464180D01*
X132024463Y-68574494D01*
X132103815Y-68671185D01*
X132200506Y-68750537D01*
X132310820Y-68809502D01*
X132430518Y-68845812D01*
X132555000Y-68858072D01*
X133205000Y-68858072D01*
X133329482Y-68845812D01*
X133449180Y-68809502D01*
X133559494Y-68750537D01*
X133656185Y-68671185D01*
X133735537Y-68574494D01*
X133794502Y-68464180D01*
X133819864Y-68380574D01*
X133824188Y-68424482D01*
X133860498Y-68544180D01*
X133919463Y-68654494D01*
X133998815Y-68751185D01*
X134095506Y-68830537D01*
X134115001Y-68840957D01*
X134115001Y-69456514D01*
X134115000Y-69456524D01*
X134115000Y-69561546D01*
X134082795Y-69609744D01*
X134004774Y-69798102D01*
X133965000Y-69998061D01*
X133965000Y-70201939D01*
X134004774Y-70401898D01*
X134082795Y-70590256D01*
X134115001Y-70638456D01*
X134115000Y-72733421D01*
X132000488Y-74847934D01*
X131995049Y-74843470D01*
X131964155Y-74812576D01*
X123896534Y-66744956D01*
X123868817Y-66711183D01*
X123734059Y-66600589D01*
X123580313Y-66518411D01*
X123413490Y-66467805D01*
X123283477Y-66455000D01*
X123283469Y-66455000D01*
X123240000Y-66450719D01*
X123196531Y-66455000D01*
X118414656Y-66455000D01*
X118373475Y-66393368D01*
X118166632Y-66186525D01*
X117923411Y-66024010D01*
X117653158Y-65912068D01*
X117366260Y-65855000D01*
X117073740Y-65855000D01*
X116786842Y-65912068D01*
X116516589Y-66024010D01*
X116273368Y-66186525D01*
X116255000Y-66204893D01*
X116255000Y-60942595D01*
X120708282Y-60942595D01*
X120752039Y-61261675D01*
X120857205Y-61566088D01*
X120950186Y-61740044D01*
X121214587Y-61835808D01*
X122170395Y-60880000D01*
X121214587Y-59924192D01*
X120950186Y-60019956D01*
X120809296Y-60309571D01*
X120727616Y-60621108D01*
X120708282Y-60942595D01*
X116255000Y-60942595D01*
X116255000Y-59744587D01*
X121394192Y-59744587D01*
X122350000Y-60700395D01*
X123305808Y-59744587D01*
X127894192Y-59744587D01*
X128850000Y-60700395D01*
X129805808Y-59744587D01*
X129710044Y-59480186D01*
X129420429Y-59339296D01*
X129108892Y-59257616D01*
X128787405Y-59238282D01*
X128468325Y-59282039D01*
X128163912Y-59387205D01*
X127989956Y-59480186D01*
X127894192Y-59744587D01*
X123305808Y-59744587D01*
X123210044Y-59480186D01*
X122920429Y-59339296D01*
X122608892Y-59257616D01*
X122287405Y-59238282D01*
X121968325Y-59282039D01*
X121663912Y-59387205D01*
X121489956Y-59480186D01*
X121394192Y-59744587D01*
X116255000Y-59744587D01*
X116255000Y-55231500D01*
X121186261Y-55231500D01*
X121080013Y-55337748D01*
G37*
G04 #@! TD.AperFunction*
D23*
X135840000Y-63934990D02*
X135794180Y-63910498D01*
X135674482Y-63874188D01*
X135550000Y-63861928D01*
X135285750Y-63865000D01*
X135127000Y-64023750D01*
X135127000Y-65123000D01*
X135147000Y-65123000D01*
X135147000Y-65377000D01*
X135127000Y-65377000D01*
X135127000Y-65397000D01*
X134873000Y-65397000D01*
X134873000Y-65377000D01*
X134853000Y-65377000D01*
X134853000Y-65373636D01*
X134921588Y-65245316D01*
X134972194Y-65078493D01*
X134984999Y-64948480D01*
X134984999Y-64948470D01*
X134989280Y-64905004D01*
X134984999Y-64861538D01*
X134984999Y-62725072D01*
X135840000Y-62725072D01*
X135840000Y-63934990D01*
G04 #@! TA.AperFunction,Conductor*
D24*
G36*
X135840000Y-63934990D02*
G01*
X135794180Y-63910498D01*
X135674482Y-63874188D01*
X135550000Y-63861928D01*
X135285750Y-63865000D01*
X135127000Y-64023750D01*
X135127000Y-65123000D01*
X135147000Y-65123000D01*
X135147000Y-65377000D01*
X135127000Y-65377000D01*
X135127000Y-65397000D01*
X134873000Y-65397000D01*
X134873000Y-65377000D01*
X134853000Y-65377000D01*
X134853000Y-65373636D01*
X134921588Y-65245316D01*
X134972194Y-65078493D01*
X134984999Y-64948480D01*
X134984999Y-64948470D01*
X134989280Y-64905004D01*
X134984999Y-64861538D01*
X134984999Y-62725072D01*
X135840000Y-62725072D01*
X135840000Y-63934990D01*
G37*
G04 #@! TD.AperFunction*
G04 #@! TD*
M02*
