M48
; DRILL file {KiCad (5.1.9)-1} date 03/01/21 14:21:53
; FORMAT={-:-/ absolute / inch / decimal}
; #@! TF.CreationDate,2021-03-01T14:21:53+01:00
; #@! TF.GenerationSoftware,Kicad,Pcbnew,(5.1.9)-1
FMAT,2
INCH
T1C0.0118
T2C0.0157
T3C0.0394
T4C0.0433
%
G90
G05
T1
X4.9291Y-2.7835
X5.122Y-3.0118
X5.1732Y-2.9724
X5.185Y-2.7835
X5.189Y-2.7441
X5.1929Y-2.5315
X5.2323Y-2.5315
X5.248Y-3.0354
X5.2835Y-3.0354
X5.3189Y-2.5709
T2
X4.626Y-3.1417
X4.6358Y-3.6161
X4.6693Y-3.1378
X4.7323Y-2.7992
X4.8622Y-2.878
X4.9055Y-2.5472
X4.9094Y-2.4961
X4.9094Y-3.6535
X4.9173Y-3.7008
X4.9882Y-2.4961
X4.9882Y-3.6496
X4.9921Y-2.5433
X4.9921Y-3.7008
X5.248Y-3.5315
X5.248Y-3.689
X5.25Y-3.1382
X5.2638Y-2.9724
X5.315Y-2.7598
T3
X4.615Y-2.6512
X4.615Y-2.7512
X4.615Y-2.8512
X4.615Y-2.9512
X4.615Y-3.0512
T4
X4.8169Y-2.2197
X4.8169Y-2.3969
X5.0728Y-2.2197
X5.0728Y-2.3969
T0
M30
