G04 #@! TF.GenerationSoftware,KiCad,Pcbnew,(5.1.9)-1*
G04 #@! TF.CreationDate,2021-03-01T14:21:52+01:00*
G04 #@! TF.ProjectId,button_v1.2.2_Coin_Cell,62757474-6f6e-45f7-9631-2e322e325f43,rev?*
G04 #@! TF.SameCoordinates,Original*
G04 #@! TF.FileFunction,Legend,Bot*
G04 #@! TF.FilePolarity,Positive*
%FSLAX46Y46*%
G04 Gerber Fmt 4.6, Leading zero omitted, Abs format (unit mm)*
G04 Created by KiCad (PCBNEW (5.1.9)-1) date 2021-03-01 14:21:52*
%MOMM*%
%LPD*%
G01*
G04 APERTURE LIST*
%ADD10C,0.150000*%
%ADD11C,0.120000*%
%ADD12C,0.125000*%
G04 APERTURE END LIST*
D10*
X133470000Y-99382857D02*
X133355714Y-99420952D01*
X133317619Y-99459047D01*
X133279523Y-99535238D01*
X133279523Y-99649523D01*
X133317619Y-99725714D01*
X133355714Y-99763809D01*
X133431904Y-99801904D01*
X133736666Y-99801904D01*
X133736666Y-99001904D01*
X133470000Y-99001904D01*
X133393809Y-99040000D01*
X133355714Y-99078095D01*
X133317619Y-99154285D01*
X133317619Y-99230476D01*
X133355714Y-99306666D01*
X133393809Y-99344761D01*
X133470000Y-99382857D01*
X133736666Y-99382857D01*
X132593809Y-99268571D02*
X132593809Y-99801904D01*
X132936666Y-99268571D02*
X132936666Y-99687619D01*
X132898571Y-99763809D01*
X132822380Y-99801904D01*
X132708095Y-99801904D01*
X132631904Y-99763809D01*
X132593809Y-99725714D01*
X132327142Y-99268571D02*
X132022380Y-99268571D01*
X132212857Y-99001904D02*
X132212857Y-99687619D01*
X132174761Y-99763809D01*
X132098571Y-99801904D01*
X132022380Y-99801904D01*
X131870000Y-99268571D02*
X131565238Y-99268571D01*
X131755714Y-99001904D02*
X131755714Y-99687619D01*
X131717619Y-99763809D01*
X131641428Y-99801904D01*
X131565238Y-99801904D01*
X131184285Y-99801904D02*
X131260476Y-99763809D01*
X131298571Y-99725714D01*
X131336666Y-99649523D01*
X131336666Y-99420952D01*
X131298571Y-99344761D01*
X131260476Y-99306666D01*
X131184285Y-99268571D01*
X131070000Y-99268571D01*
X130993809Y-99306666D01*
X130955714Y-99344761D01*
X130917619Y-99420952D01*
X130917619Y-99649523D01*
X130955714Y-99725714D01*
X130993809Y-99763809D01*
X131070000Y-99801904D01*
X131184285Y-99801904D01*
X130574761Y-99268571D02*
X130574761Y-99801904D01*
X130574761Y-99344761D02*
X130536666Y-99306666D01*
X130460476Y-99268571D01*
X130346190Y-99268571D01*
X130270000Y-99306666D01*
X130231904Y-99382857D01*
X130231904Y-99801904D01*
X129241428Y-99497142D02*
X128631904Y-99497142D01*
X127184285Y-99725714D02*
X127222380Y-99763809D01*
X127336666Y-99801904D01*
X127412857Y-99801904D01*
X127527142Y-99763809D01*
X127603333Y-99687619D01*
X127641428Y-99611428D01*
X127679523Y-99459047D01*
X127679523Y-99344761D01*
X127641428Y-99192380D01*
X127603333Y-99116190D01*
X127527142Y-99040000D01*
X127412857Y-99001904D01*
X127336666Y-99001904D01*
X127222380Y-99040000D01*
X127184285Y-99078095D01*
X126727142Y-99801904D02*
X126803333Y-99763809D01*
X126841428Y-99725714D01*
X126879523Y-99649523D01*
X126879523Y-99420952D01*
X126841428Y-99344761D01*
X126803333Y-99306666D01*
X126727142Y-99268571D01*
X126612857Y-99268571D01*
X126536666Y-99306666D01*
X126498571Y-99344761D01*
X126460476Y-99420952D01*
X126460476Y-99649523D01*
X126498571Y-99725714D01*
X126536666Y-99763809D01*
X126612857Y-99801904D01*
X126727142Y-99801904D01*
X126117619Y-99801904D02*
X126117619Y-99268571D01*
X126117619Y-99001904D02*
X126155714Y-99040000D01*
X126117619Y-99078095D01*
X126079523Y-99040000D01*
X126117619Y-99001904D01*
X126117619Y-99078095D01*
X125736666Y-99268571D02*
X125736666Y-99801904D01*
X125736666Y-99344761D02*
X125698571Y-99306666D01*
X125622380Y-99268571D01*
X125508095Y-99268571D01*
X125431904Y-99306666D01*
X125393809Y-99382857D01*
X125393809Y-99801904D01*
X123946190Y-99725714D02*
X123984285Y-99763809D01*
X124098571Y-99801904D01*
X124174761Y-99801904D01*
X124289047Y-99763809D01*
X124365238Y-99687619D01*
X124403333Y-99611428D01*
X124441428Y-99459047D01*
X124441428Y-99344761D01*
X124403333Y-99192380D01*
X124365238Y-99116190D01*
X124289047Y-99040000D01*
X124174761Y-99001904D01*
X124098571Y-99001904D01*
X123984285Y-99040000D01*
X123946190Y-99078095D01*
X123298571Y-99763809D02*
X123374761Y-99801904D01*
X123527142Y-99801904D01*
X123603333Y-99763809D01*
X123641428Y-99687619D01*
X123641428Y-99382857D01*
X123603333Y-99306666D01*
X123527142Y-99268571D01*
X123374761Y-99268571D01*
X123298571Y-99306666D01*
X123260476Y-99382857D01*
X123260476Y-99459047D01*
X123641428Y-99535238D01*
X122803333Y-99801904D02*
X122879523Y-99763809D01*
X122917619Y-99687619D01*
X122917619Y-99001904D01*
X122384285Y-99801904D02*
X122460476Y-99763809D01*
X122498571Y-99687619D01*
X122498571Y-99001904D01*
X121546190Y-99268571D02*
X121355714Y-99801904D01*
X121165238Y-99268571D01*
X120860476Y-99725714D02*
X120822380Y-99763809D01*
X120860476Y-99801904D01*
X120898571Y-99763809D01*
X120860476Y-99725714D01*
X120860476Y-99801904D01*
X120060476Y-99801904D02*
X120517619Y-99801904D01*
X120289047Y-99801904D02*
X120289047Y-99001904D01*
X120365238Y-99116190D01*
X120441428Y-99192380D01*
X120517619Y-99230476D01*
X119717619Y-99725714D02*
X119679523Y-99763809D01*
X119717619Y-99801904D01*
X119755714Y-99763809D01*
X119717619Y-99725714D01*
X119717619Y-99801904D01*
X119374761Y-99078095D02*
X119336666Y-99040000D01*
X119260476Y-99001904D01*
X119070000Y-99001904D01*
X118993809Y-99040000D01*
X118955714Y-99078095D01*
X118917619Y-99154285D01*
X118917619Y-99230476D01*
X118955714Y-99344761D01*
X119412857Y-99801904D01*
X118917619Y-99801904D01*
X118574761Y-99725714D02*
X118536666Y-99763809D01*
X118574761Y-99801904D01*
X118612857Y-99763809D01*
X118574761Y-99725714D01*
X118574761Y-99801904D01*
X118231904Y-99078095D02*
X118193809Y-99040000D01*
X118117619Y-99001904D01*
X117927142Y-99001904D01*
X117850952Y-99040000D01*
X117812857Y-99078095D01*
X117774761Y-99154285D01*
X117774761Y-99230476D01*
X117812857Y-99344761D01*
X118270000Y-99801904D01*
X117774761Y-99801904D01*
X127984285Y-101151904D02*
X127984285Y-100351904D01*
X127527142Y-101151904D01*
X127527142Y-100351904D01*
X127031904Y-101151904D02*
X127108095Y-101113809D01*
X127146190Y-101075714D01*
X127184285Y-100999523D01*
X127184285Y-100770952D01*
X127146190Y-100694761D01*
X127108095Y-100656666D01*
X127031904Y-100618571D01*
X126917619Y-100618571D01*
X126841428Y-100656666D01*
X126803333Y-100694761D01*
X126765238Y-100770952D01*
X126765238Y-100999523D01*
X126803333Y-101075714D01*
X126841428Y-101113809D01*
X126917619Y-101151904D01*
X127031904Y-101151904D01*
X125927142Y-100351904D02*
X125470000Y-100351904D01*
X125698571Y-101151904D02*
X125698571Y-100351904D01*
X125203333Y-101151904D02*
X125203333Y-100618571D01*
X125203333Y-100351904D02*
X125241428Y-100390000D01*
X125203333Y-100428095D01*
X125165238Y-100390000D01*
X125203333Y-100351904D01*
X125203333Y-100428095D01*
X124822380Y-101151904D02*
X124822380Y-100618571D01*
X124822380Y-100694761D02*
X124784285Y-100656666D01*
X124708095Y-100618571D01*
X124593809Y-100618571D01*
X124517619Y-100656666D01*
X124479523Y-100732857D01*
X124479523Y-101151904D01*
X124479523Y-100732857D02*
X124441428Y-100656666D01*
X124365238Y-100618571D01*
X124250952Y-100618571D01*
X124174761Y-100656666D01*
X124136666Y-100732857D01*
X124136666Y-101151904D01*
X123450952Y-101113809D02*
X123527142Y-101151904D01*
X123679523Y-101151904D01*
X123755714Y-101113809D01*
X123793809Y-101037619D01*
X123793809Y-100732857D01*
X123755714Y-100656666D01*
X123679523Y-100618571D01*
X123527142Y-100618571D01*
X123450952Y-100656666D01*
X123412857Y-100732857D01*
X123412857Y-100809047D01*
X123793809Y-100885238D01*
X123070000Y-101151904D02*
X123070000Y-100618571D01*
X123070000Y-100770952D02*
X123031904Y-100694761D01*
X122993809Y-100656666D01*
X122917619Y-100618571D01*
X122841428Y-100618571D01*
D11*
G04 #@! TO.C,C1*
X125408748Y-62720000D02*
X125931252Y-62720000D01*
X125408748Y-61300000D02*
X125931252Y-61300000D01*
G04 #@! TO.C,C3*
X135710000Y-66661252D02*
X135710000Y-66138748D01*
X134290000Y-66661252D02*
X134290000Y-66138748D01*
G04 #@! TO.C,C2*
X132123548Y-94309000D02*
X132646052Y-94309000D01*
X132123548Y-92889000D02*
X132646052Y-92889000D01*
G04 #@! TO.C,U1*
X133540000Y-64820000D02*
X133540000Y-66620000D01*
X130320000Y-66620000D02*
X130320000Y-64170000D01*
G04 #@! TO.C,BT1*
X122170800Y-64454200D02*
X122170800Y-68072200D01*
X123880800Y-64454200D02*
X122170800Y-64454200D01*
X117670800Y-70916900D02*
X117670800Y-86611500D01*
X123880800Y-93074200D02*
X122170800Y-93074200D01*
X122170800Y-89456200D02*
X122170800Y-93074200D01*
X129390800Y-93074200D02*
X129390800Y-89456200D01*
X127680800Y-93074200D02*
X129390800Y-93074200D01*
X133890800Y-86611500D02*
X133890800Y-82624200D01*
X131690800Y-80424200D02*
X133890800Y-82624200D01*
X131690800Y-80424200D02*
X131690800Y-77104200D01*
X131690800Y-77104200D02*
X133890800Y-74904200D01*
X133890800Y-74904200D02*
X133890800Y-70916900D01*
X129390800Y-68072200D02*
X129390800Y-64454200D01*
X127680800Y-64454200D02*
X129390800Y-64454200D01*
X117669011Y-70918830D02*
G75*
G02*
X122170800Y-68072200I8111789J-7845370D01*
G01*
X133892589Y-86609570D02*
G75*
G02*
X129390800Y-89456200I-8111789J7845370D01*
G01*
X117669011Y-86609570D02*
G75*
G03*
X122170800Y-89456200I8111789J7845370D01*
G01*
X133892589Y-70918830D02*
G75*
G03*
X129390800Y-68072200I-8111789J-7845370D01*
G01*
D10*
G04 #@! TO.C,L1*
X130616000Y-62214000D02*
X130616000Y-59166000D01*
X134299000Y-59166000D02*
X136204000Y-59166000D01*
X136204000Y-59166000D02*
X136204000Y-62214000D01*
X136204000Y-62214000D02*
X134299000Y-62214000D01*
X132648000Y-62214000D02*
X130616000Y-62214000D01*
X130816000Y-62214000D02*
X130816000Y-59166000D01*
X130616000Y-59166000D02*
X132648000Y-59166000D01*
G04 #@! TO.C,C1*
D12*
X125491428Y-62093333D02*
X125467619Y-62117142D01*
X125443809Y-62188571D01*
X125443809Y-62236190D01*
X125467619Y-62307619D01*
X125515238Y-62355238D01*
X125562857Y-62379047D01*
X125658095Y-62402857D01*
X125729523Y-62402857D01*
X125824761Y-62379047D01*
X125872380Y-62355238D01*
X125920000Y-62307619D01*
X125943809Y-62236190D01*
X125943809Y-62188571D01*
X125920000Y-62117142D01*
X125896190Y-62093333D01*
X125443809Y-61617142D02*
X125443809Y-61902857D01*
X125443809Y-61760000D02*
X125943809Y-61760000D01*
X125872380Y-61807619D01*
X125824761Y-61855238D01*
X125800952Y-61902857D01*
G04 #@! TO.C,C3*
X135083333Y-66578571D02*
X135107142Y-66602380D01*
X135178571Y-66626190D01*
X135226190Y-66626190D01*
X135297619Y-66602380D01*
X135345238Y-66554761D01*
X135369047Y-66507142D01*
X135392857Y-66411904D01*
X135392857Y-66340476D01*
X135369047Y-66245238D01*
X135345238Y-66197619D01*
X135297619Y-66150000D01*
X135226190Y-66126190D01*
X135178571Y-66126190D01*
X135107142Y-66150000D01*
X135083333Y-66173809D01*
X134916666Y-66126190D02*
X134607142Y-66126190D01*
X134773809Y-66316666D01*
X134702380Y-66316666D01*
X134654761Y-66340476D01*
X134630952Y-66364285D01*
X134607142Y-66411904D01*
X134607142Y-66530952D01*
X134630952Y-66578571D01*
X134654761Y-66602380D01*
X134702380Y-66626190D01*
X134845238Y-66626190D01*
X134892857Y-66602380D01*
X134916666Y-66578571D01*
G04 #@! TO.C,C2*
X132206228Y-93682333D02*
X132182419Y-93706142D01*
X132158609Y-93777571D01*
X132158609Y-93825190D01*
X132182419Y-93896619D01*
X132230038Y-93944238D01*
X132277657Y-93968047D01*
X132372895Y-93991857D01*
X132444323Y-93991857D01*
X132539561Y-93968047D01*
X132587180Y-93944238D01*
X132634800Y-93896619D01*
X132658609Y-93825190D01*
X132658609Y-93777571D01*
X132634800Y-93706142D01*
X132610990Y-93682333D01*
X132610990Y-93491857D02*
X132634800Y-93468047D01*
X132658609Y-93420428D01*
X132658609Y-93301380D01*
X132634800Y-93253761D01*
X132610990Y-93229952D01*
X132563371Y-93206142D01*
X132515752Y-93206142D01*
X132444323Y-93229952D01*
X132158609Y-93515666D01*
X132158609Y-93206142D01*
G04 #@! TO.C,U1*
X132310952Y-65446190D02*
X132310952Y-65850952D01*
X132287142Y-65898571D01*
X132263333Y-65922380D01*
X132215714Y-65946190D01*
X132120476Y-65946190D01*
X132072857Y-65922380D01*
X132049047Y-65898571D01*
X132025238Y-65850952D01*
X132025238Y-65446190D01*
X131525238Y-65946190D02*
X131810952Y-65946190D01*
X131668095Y-65946190D02*
X131668095Y-65446190D01*
X131715714Y-65517619D01*
X131763333Y-65565238D01*
X131810952Y-65589047D01*
G04 #@! TO.C,BT1*
D10*
X125958291Y-77537725D02*
X126005910Y-77680582D01*
X126053529Y-77728201D01*
X126148767Y-77775820D01*
X126291624Y-77775820D01*
X126386862Y-77728201D01*
X126434481Y-77680582D01*
X126482100Y-77585344D01*
X126482100Y-77204392D01*
X125482100Y-77204392D01*
X125482100Y-77537725D01*
X125529720Y-77632963D01*
X125577339Y-77680582D01*
X125672577Y-77728201D01*
X125767815Y-77728201D01*
X125863053Y-77680582D01*
X125910672Y-77632963D01*
X125958291Y-77537725D01*
X125958291Y-77204392D01*
X125482100Y-78061535D02*
X125482100Y-78632963D01*
X126482100Y-78347249D02*
X125482100Y-78347249D01*
X126482100Y-79490106D02*
X126482100Y-78918678D01*
X126482100Y-79204392D02*
X125482100Y-79204392D01*
X125624958Y-79109154D01*
X125720196Y-79013916D01*
X125767815Y-78918678D01*
G04 #@! TO.C,L1*
X132972619Y-60841666D02*
X132972619Y-61317857D01*
X133972619Y-61317857D01*
X132972619Y-59984523D02*
X132972619Y-60555952D01*
X132972619Y-60270238D02*
X133972619Y-60270238D01*
X133829761Y-60365476D01*
X133734523Y-60460714D01*
X133686904Y-60555952D01*
G04 #@! TD*
M02*
