G04 #@! TF.GenerationSoftware,KiCad,Pcbnew,(5.1.9)-1*
G04 #@! TF.CreationDate,2021-03-01T14:21:52+01:00*
G04 #@! TF.ProjectId,button_v1.2.2_Coin_Cell,62757474-6f6e-45f7-9631-2e322e325f43,rev?*
G04 #@! TF.SameCoordinates,Original*
G04 #@! TF.FileFunction,Paste,Top*
G04 #@! TF.FilePolarity,Positive*
%FSLAX46Y46*%
G04 Gerber Fmt 4.6, Leading zero omitted, Abs format (unit mm)*
G04 Created by KiCad (PCBNEW (5.1.9)-1) date 2021-03-01 14:21:52*
%MOMM*%
%LPD*%
G01*
G04 APERTURE LIST*
%ADD10R,2.500000X1.000000*%
%ADD11R,1.000000X1.800000*%
%ADD12R,1.650000X2.250000*%
%ADD13R,0.900000X0.620000*%
%ADD14R,1.500000X1.500000*%
%ADD15R,1.700000X1.300000*%
G04 APERTURE END LIST*
D10*
G04 #@! TO.C,X1*
X118100000Y-93700000D03*
X118100000Y-91700000D03*
X118100000Y-89700000D03*
X118100000Y-87700000D03*
X118100000Y-85700000D03*
X118100000Y-83700000D03*
X118100000Y-81700000D03*
X118100000Y-79700000D03*
D11*
X120700000Y-78200000D03*
X122700000Y-78200000D03*
X124700000Y-78200000D03*
X126700000Y-78200000D03*
X128700000Y-78200000D03*
X130700000Y-78200000D03*
D10*
X133300000Y-79700000D03*
X133300000Y-81700000D03*
X133300000Y-83700000D03*
X133300000Y-85700000D03*
X133300000Y-87700000D03*
X133300000Y-89700000D03*
X133300000Y-91700000D03*
X133300000Y-93700000D03*
G04 #@! TD*
G04 #@! TO.C,D1*
G36*
G01*
X118105000Y-63555000D02*
X118105000Y-64705000D01*
G75*
G02*
X117855000Y-64955000I-250000J0D01*
G01*
X116755000Y-64955000D01*
G75*
G02*
X116505000Y-64705000I0J250000D01*
G01*
X116505000Y-63555000D01*
G75*
G02*
X116755000Y-63305000I250000J0D01*
G01*
X117855000Y-63305000D01*
G75*
G02*
X118105000Y-63555000I0J-250000D01*
G01*
G37*
G36*
G01*
X120955000Y-63555000D02*
X120955000Y-64705000D01*
G75*
G02*
X120705000Y-64955000I-250000J0D01*
G01*
X119605000Y-64955000D01*
G75*
G02*
X119355000Y-64705000I0J250000D01*
G01*
X119355000Y-63555000D01*
G75*
G02*
X119605000Y-63305000I250000J0D01*
G01*
X120705000Y-63305000D01*
G75*
G02*
X120955000Y-63555000I0J-250000D01*
G01*
G37*
G04 #@! TD*
D12*
G04 #@! TO.C,C4*
X131927000Y-70164960D03*
X135027000Y-70164960D03*
G04 #@! TD*
D13*
G04 #@! TO.C,C5*
X134178280Y-77109320D03*
X135478280Y-77109320D03*
G04 #@! TD*
D14*
G04 #@! TO.C,R7*
X134640000Y-60910000D03*
X132240000Y-60910000D03*
G04 #@! TD*
G04 #@! TO.C,R6*
X120080000Y-61920000D03*
X117680000Y-61920000D03*
G04 #@! TD*
G04 #@! TO.C,R5*
X123400000Y-75500000D03*
X123400000Y-73100000D03*
G04 #@! TD*
G04 #@! TO.C,R4*
X128700000Y-75400000D03*
X128700000Y-73000000D03*
G04 #@! TD*
G04 #@! TO.C,R3*
X131300000Y-75400000D03*
X131300000Y-73000000D03*
G04 #@! TD*
G04 #@! TO.C,R2*
X126100000Y-75500000D03*
X126100000Y-73100000D03*
G04 #@! TD*
G04 #@! TO.C,R1*
X133700000Y-75400000D03*
X133700000Y-73000000D03*
G04 #@! TD*
D15*
G04 #@! TO.C,SW2*
X120205500Y-71111500D03*
X120205500Y-74811500D03*
G04 #@! TD*
M02*
