G04 #@! TF.GenerationSoftware,KiCad,Pcbnew,(5.1.9)-1*
G04 #@! TF.CreationDate,2021-03-01T14:21:52+01:00*
G04 #@! TF.ProjectId,button_v1.2.2_Coin_Cell,62757474-6f6e-45f7-9631-2e322e325f43,rev?*
G04 #@! TF.SameCoordinates,Original*
G04 #@! TF.FileFunction,Copper,L1,Top*
G04 #@! TF.FilePolarity,Positive*
%FSLAX46Y46*%
G04 Gerber Fmt 4.6, Leading zero omitted, Abs format (unit mm)*
G04 Created by KiCad (PCBNEW (5.1.9)-1) date 2021-03-01 14:21:52*
%MOMM*%
%LPD*%
G01*
G04 APERTURE LIST*
G04 #@! TA.AperFunction,NonConductor*
%ADD10C,0.300000*%
G04 #@! TD*
G04 #@! TA.AperFunction,SMDPad,CuDef*
%ADD11R,2.500000X1.000000*%
G04 #@! TD*
G04 #@! TA.AperFunction,SMDPad,CuDef*
%ADD12R,1.000000X1.800000*%
G04 #@! TD*
G04 #@! TA.AperFunction,SMDPad,CuDef*
%ADD13R,1.650000X2.250000*%
G04 #@! TD*
G04 #@! TA.AperFunction,SMDPad,CuDef*
%ADD14R,0.900000X0.620000*%
G04 #@! TD*
G04 #@! TA.AperFunction,SMDPad,CuDef*
%ADD15R,1.500000X1.500000*%
G04 #@! TD*
G04 #@! TA.AperFunction,ComponentPad*
%ADD16C,2.000000*%
G04 #@! TD*
G04 #@! TA.AperFunction,SMDPad,CuDef*
%ADD17R,1.700000X1.300000*%
G04 #@! TD*
G04 #@! TA.AperFunction,ComponentPad*
%ADD18O,1.700000X1.700000*%
G04 #@! TD*
G04 #@! TA.AperFunction,ComponentPad*
%ADD19R,1.700000X1.700000*%
G04 #@! TD*
G04 #@! TA.AperFunction,ViaPad*
%ADD20C,0.800000*%
G04 #@! TD*
G04 #@! TA.AperFunction,ViaPad*
%ADD21C,0.500000*%
G04 #@! TD*
G04 #@! TA.AperFunction,Conductor*
%ADD22C,0.500000*%
G04 #@! TD*
G04 #@! TA.AperFunction,Conductor*
%ADD23C,0.250000*%
G04 #@! TD*
G04 #@! TA.AperFunction,Conductor*
%ADD24C,0.254000*%
G04 #@! TD*
G04 #@! TA.AperFunction,Conductor*
%ADD25C,0.150000*%
G04 #@! TD*
G04 APERTURE END LIST*
D10*
X133980922Y-55795238D02*
X134933303Y-55795238D01*
X134683303Y-57795238D01*
X133314255Y-55795238D02*
X133064255Y-57795238D01*
X132171398Y-55795238D02*
X132885684Y-56938095D01*
X131921398Y-57795238D02*
X133207113Y-56652380D01*
X118992827Y-56942857D02*
X119659494Y-56942857D01*
X119790446Y-55895238D02*
X119540446Y-57895238D01*
X118588065Y-57895238D01*
X117123779Y-55895238D02*
X118076160Y-55895238D01*
X117826160Y-57895238D01*
D11*
G04 #@! TO.P,X1,22*
G04 #@! TO.N,/TX*
X118100000Y-93700000D03*
G04 #@! TO.P,X1,21*
G04 #@! TO.N,/RX*
X118100000Y-91700000D03*
G04 #@! TO.P,X1,20*
G04 #@! TO.N,N/C*
X118100000Y-89700000D03*
G04 #@! TO.P,X1,19*
X118100000Y-87700000D03*
G04 #@! TO.P,X1,18*
G04 #@! TO.N,/GPIO0*
X118100000Y-85700000D03*
G04 #@! TO.P,X1,17*
G04 #@! TO.N,/GPIO2*
X118100000Y-83700000D03*
G04 #@! TO.P,X1,16*
G04 #@! TO.N,/GPIO15*
X118100000Y-81700000D03*
G04 #@! TO.P,X1,15*
G04 #@! TO.N,/GND*
X118100000Y-79700000D03*
D12*
G04 #@! TO.P,X1,14*
G04 #@! TO.N,N/C*
X120700000Y-78200000D03*
G04 #@! TO.P,X1,13*
X122700000Y-78200000D03*
G04 #@! TO.P,X1,12*
X124700000Y-78200000D03*
G04 #@! TO.P,X1,11*
X126700000Y-78200000D03*
G04 #@! TO.P,X1,10*
X128700000Y-78200000D03*
G04 #@! TO.P,X1,9*
X130700000Y-78200000D03*
D11*
G04 #@! TO.P,X1,8*
G04 #@! TO.N,/VCC*
X133300000Y-79700000D03*
G04 #@! TO.P,X1,7*
G04 #@! TO.N,N/C*
X133300000Y-81700000D03*
G04 #@! TO.P,X1,6*
X133300000Y-83700000D03*
G04 #@! TO.P,X1,5*
X133300000Y-85700000D03*
G04 #@! TO.P,X1,4*
X133300000Y-87700000D03*
G04 #@! TO.P,X1,3*
G04 #@! TO.N,/EN*
X133300000Y-89700000D03*
G04 #@! TO.P,X1,2*
G04 #@! TO.N,N/C*
X133300000Y-91700000D03*
G04 #@! TO.P,X1,1*
G04 #@! TO.N,/RST*
X133300000Y-93700000D03*
G04 #@! TD*
G04 #@! TO.P,D1,2*
G04 #@! TO.N,Net-(D1-Pad2)*
G04 #@! TA.AperFunction,SMDPad,CuDef*
G36*
G01*
X118105000Y-63555000D02*
X118105000Y-64705000D01*
G75*
G02*
X117855000Y-64955000I-250000J0D01*
G01*
X116755000Y-64955000D01*
G75*
G02*
X116505000Y-64705000I0J250000D01*
G01*
X116505000Y-63555000D01*
G75*
G02*
X116755000Y-63305000I250000J0D01*
G01*
X117855000Y-63305000D01*
G75*
G02*
X118105000Y-63555000I0J-250000D01*
G01*
G37*
G04 #@! TD.AperFunction*
G04 #@! TO.P,D1,1*
G04 #@! TO.N,/VCC*
G04 #@! TA.AperFunction,SMDPad,CuDef*
G36*
G01*
X120955000Y-63555000D02*
X120955000Y-64705000D01*
G75*
G02*
X120705000Y-64955000I-250000J0D01*
G01*
X119605000Y-64955000D01*
G75*
G02*
X119355000Y-64705000I0J250000D01*
G01*
X119355000Y-63555000D01*
G75*
G02*
X119605000Y-63305000I250000J0D01*
G01*
X120705000Y-63305000D01*
G75*
G02*
X120955000Y-63555000I0J-250000D01*
G01*
G37*
G04 #@! TD.AperFunction*
G04 #@! TD*
D13*
G04 #@! TO.P,C4,2*
G04 #@! TO.N,/GND*
X131927000Y-70164960D03*
G04 #@! TO.P,C4,1*
G04 #@! TO.N,/VCC*
X135027000Y-70164960D03*
G04 #@! TD*
D14*
G04 #@! TO.P,C5,2*
G04 #@! TO.N,/GND*
X134178280Y-77109320D03*
G04 #@! TO.P,C5,1*
G04 #@! TO.N,/VCC*
X135478280Y-77109320D03*
G04 #@! TD*
D15*
G04 #@! TO.P,R7,2*
G04 #@! TO.N,Net-(R7-Pad2)*
X134640000Y-60910000D03*
G04 #@! TO.P,R7,1*
G04 #@! TO.N,Net-(BT1-Pad1)*
X132240000Y-60910000D03*
G04 #@! TD*
G04 #@! TO.P,R6,2*
G04 #@! TO.N,/RST*
X120080000Y-61920000D03*
G04 #@! TO.P,R6,1*
G04 #@! TO.N,Net-(D1-Pad2)*
X117680000Y-61920000D03*
G04 #@! TD*
G04 #@! TO.P,R5,2*
G04 #@! TO.N,/GPIO15*
X123400000Y-75500000D03*
G04 #@! TO.P,R5,1*
G04 #@! TO.N,/GND*
X123400000Y-73100000D03*
G04 #@! TD*
G04 #@! TO.P,R4,2*
G04 #@! TO.N,/GPIO0*
X128700000Y-75400000D03*
G04 #@! TO.P,R4,1*
G04 #@! TO.N,/VCC*
X128700000Y-73000000D03*
G04 #@! TD*
G04 #@! TO.P,R3,2*
G04 #@! TO.N,/RST*
X131300000Y-75400000D03*
G04 #@! TO.P,R3,1*
G04 #@! TO.N,/VCC*
X131300000Y-73000000D03*
G04 #@! TD*
G04 #@! TO.P,R2,2*
G04 #@! TO.N,/GPIO2*
X126100000Y-75500000D03*
G04 #@! TO.P,R2,1*
G04 #@! TO.N,/VCC*
X126100000Y-73100000D03*
G04 #@! TD*
G04 #@! TO.P,R1,2*
G04 #@! TO.N,/EN*
X133700000Y-75400000D03*
G04 #@! TO.P,R1,1*
G04 #@! TO.N,/VCC*
X133700000Y-73000000D03*
G04 #@! TD*
D16*
G04 #@! TO.P,SW1,1*
G04 #@! TO.N,/RST*
X128850000Y-56380000D03*
G04 #@! TO.P,SW1,2*
G04 #@! TO.N,/GND*
X128850000Y-60880000D03*
G04 #@! TO.P,SW1,1*
G04 #@! TO.N,/RST*
X122350000Y-56380000D03*
G04 #@! TO.P,SW1,2*
G04 #@! TO.N,/GND*
X122350000Y-60880000D03*
G04 #@! TD*
D17*
G04 #@! TO.P,SW2,2*
G04 #@! TO.N,/GND*
X120205500Y-71111500D03*
G04 #@! TO.P,SW2,1*
G04 #@! TO.N,/GPIO0*
X120205500Y-74811500D03*
G04 #@! TD*
D18*
G04 #@! TO.P,J1,5*
G04 #@! TO.N,/RST*
X117220000Y-67340000D03*
G04 #@! TO.P,J1,4*
G04 #@! TO.N,/TX*
X117220000Y-69880000D03*
G04 #@! TO.P,J1,3*
G04 #@! TO.N,/RX*
X117220000Y-72420000D03*
G04 #@! TO.P,J1,2*
G04 #@! TO.N,/GND*
X117220000Y-74960000D03*
D19*
G04 #@! TO.P,J1,1*
G04 #@! TO.N,/VCC*
X117220000Y-77500000D03*
G04 #@! TD*
D20*
G04 #@! TO.N,/VCC*
X135000000Y-70100000D03*
X133350010Y-79709210D03*
D21*
G04 #@! TO.N,/GND*
X134200000Y-77100000D03*
D20*
X123500000Y-73100000D03*
X118600000Y-79700000D03*
X117500000Y-79800000D03*
X120200000Y-71100000D03*
X124900000Y-94000000D03*
X126800000Y-94000000D03*
X126700000Y-92700000D03*
X124700000Y-92800000D03*
D21*
X131700000Y-70700000D03*
X131800000Y-69700000D03*
X135100000Y-65300000D03*
X131900000Y-64300000D03*
X125200000Y-70700000D03*
X133300000Y-77100000D03*
X130100000Y-76500000D03*
D20*
G04 #@! TO.N,/RST*
X133300000Y-93700000D03*
D21*
X131400000Y-75500000D03*
D20*
G04 #@! TO.N,/RX*
X117750000Y-91850000D03*
G04 #@! TO.N,/EN*
X133700000Y-75500000D03*
X133300000Y-89700000D03*
G04 #@! TO.N,Net-(BT1-Pad1)*
X126800000Y-64600000D03*
X126700000Y-63400000D03*
X124700000Y-63400000D03*
X124600000Y-64700000D03*
D21*
G04 #@! TO.N,Net-(R7-Pad2)*
X132900000Y-64300000D03*
G04 #@! TD*
D22*
G04 #@! TO.N,/VCC*
X133700000Y-71491960D02*
X135027000Y-70164960D01*
X133700000Y-73000000D02*
X133700000Y-71491960D01*
X133700000Y-73000000D02*
X131300000Y-73000000D01*
X131300000Y-73000000D02*
X128700000Y-73000000D01*
X126200000Y-73000000D02*
X126100000Y-73100000D01*
X128700000Y-73000000D02*
X126200000Y-73000000D01*
X135478280Y-74778280D02*
X135478280Y-77109320D01*
X133700000Y-73000000D02*
X135478280Y-74778280D01*
X133300000Y-79700000D02*
X133300000Y-79700000D01*
X135478280Y-77109320D02*
X135478280Y-77919320D01*
X135478280Y-77919320D02*
X133688390Y-79709210D01*
X133688390Y-79709210D02*
X133350010Y-79709210D01*
X120155000Y-67155000D02*
X126100000Y-73100000D01*
X120155000Y-64130000D02*
X120155000Y-67155000D01*
G04 #@! TO.N,/GND*
X131927000Y-70164960D02*
X125735040Y-70164960D01*
X125735040Y-70164960D02*
X125200000Y-70700000D01*
X125200000Y-70700000D02*
X125200000Y-70700000D01*
X129849999Y-76750001D02*
X129849999Y-79249999D01*
X130100000Y-76500000D02*
X129849999Y-76750001D01*
X129849999Y-79249999D02*
X130700000Y-80100000D01*
G04 #@! TO.N,/RST*
X128850000Y-56380000D02*
X122350000Y-56380000D01*
X120080000Y-58650000D02*
X120080000Y-61920000D01*
X122350000Y-56380000D02*
X120080000Y-58650000D01*
X118780001Y-63219999D02*
X120080000Y-61920000D01*
X118780001Y-65779999D02*
X118780001Y-63219999D01*
X117220000Y-67340000D02*
X118780001Y-65779999D01*
X132919998Y-93700000D02*
X133300000Y-93700000D01*
X131550001Y-92330003D02*
X132919998Y-93700000D01*
X131550001Y-75650001D02*
X131550001Y-92330003D01*
X131300000Y-75400000D02*
X131550001Y-75650001D01*
X133300000Y-93700000D02*
X133300000Y-93700000D01*
D23*
G04 #@! TO.N,/TX*
X118100000Y-93700000D02*
X117400000Y-93700000D01*
X116144999Y-70955001D02*
X117220000Y-69880000D01*
X116144999Y-78530001D02*
X116144999Y-70955001D01*
X116480010Y-78865012D02*
X116144999Y-78530001D01*
X116480010Y-92780010D02*
X116480010Y-78865012D01*
X117400000Y-93700000D02*
X116480010Y-92780010D01*
D22*
G04 #@! TO.N,/GPIO2*
X119850000Y-83700000D02*
X118100000Y-83700000D01*
X123550001Y-77319997D02*
X123550001Y-79999999D01*
X123919999Y-76949999D02*
X123550001Y-77319997D01*
X124650001Y-76949999D02*
X123919999Y-76949999D01*
X123550001Y-79999999D02*
X119850000Y-83700000D01*
X126100000Y-75500000D02*
X124650001Y-76949999D01*
G04 #@! TO.N,/GPIO0*
X121230002Y-85700000D02*
X118100000Y-85700000D01*
X127550001Y-79380001D02*
X121230002Y-85700000D01*
X127550001Y-76549999D02*
X127550001Y-79380001D01*
X128700000Y-75400000D02*
X127550001Y-76549999D01*
X120617001Y-74399999D02*
X127699999Y-74399999D01*
X127699999Y-74399999D02*
X128700000Y-75400000D01*
X120205500Y-74811500D02*
X120617001Y-74399999D01*
G04 #@! TO.N,Net-(BT1-Pad1)*
X129750000Y-63400000D02*
X132240000Y-60910000D01*
X126700000Y-63400000D02*
X129750000Y-63400000D01*
G04 #@! TO.N,/GPIO15*
X119850000Y-81700000D02*
X118100000Y-81700000D01*
X121550001Y-79999999D02*
X119850000Y-81700000D01*
X121550001Y-77349999D02*
X121550001Y-79999999D01*
X123400000Y-75500000D02*
X121550001Y-77349999D01*
G04 #@! TO.N,Net-(R7-Pad2)*
X134640000Y-60910000D02*
X134640000Y-62560000D01*
X134640000Y-62560000D02*
X132900000Y-64300000D01*
X132900000Y-64300000D02*
X132900000Y-64300000D01*
G04 #@! TO.N,Net-(D1-Pad2)*
X117305000Y-62295000D02*
X117680000Y-61920000D01*
X117305000Y-64130000D02*
X117305000Y-62295000D01*
G04 #@! TD*
D24*
G04 #@! TO.N,/GND*
X129748815Y-79551185D02*
X129845506Y-79630537D01*
X129955820Y-79689502D01*
X130075518Y-79725812D01*
X130200000Y-79738072D01*
X130665001Y-79738072D01*
X130665002Y-92286524D01*
X130660720Y-92330003D01*
X130677806Y-92503493D01*
X130728413Y-92670316D01*
X130810591Y-92824062D01*
X130893469Y-92925049D01*
X130893472Y-92925052D01*
X130921185Y-92958820D01*
X130954952Y-92986532D01*
X131411928Y-93443508D01*
X131411928Y-94200000D01*
X131424188Y-94324482D01*
X131460498Y-94444180D01*
X131519463Y-94554494D01*
X131598815Y-94651185D01*
X131695506Y-94730537D01*
X131805820Y-94789502D01*
X131925518Y-94825812D01*
X132050000Y-94838072D01*
X134550000Y-94838072D01*
X134674482Y-94825812D01*
X134794180Y-94789502D01*
X134904494Y-94730537D01*
X134951001Y-94692370D01*
X134951001Y-94873000D01*
X116890000Y-94873000D01*
X116890000Y-94838072D01*
X119350000Y-94838072D01*
X119474482Y-94825812D01*
X119594180Y-94789502D01*
X119704494Y-94730537D01*
X119801185Y-94651185D01*
X119880537Y-94554494D01*
X119939502Y-94444180D01*
X119975812Y-94324482D01*
X119988072Y-94200000D01*
X119988072Y-93200000D01*
X119975812Y-93075518D01*
X119939502Y-92955820D01*
X119880537Y-92845506D01*
X119801185Y-92748815D01*
X119741704Y-92700000D01*
X119801185Y-92651185D01*
X119880537Y-92554494D01*
X119939502Y-92444180D01*
X119975812Y-92324482D01*
X119988072Y-92200000D01*
X119988072Y-91200000D01*
X119975812Y-91075518D01*
X119939502Y-90955820D01*
X119880537Y-90845506D01*
X119801185Y-90748815D01*
X119741704Y-90700000D01*
X119801185Y-90651185D01*
X119880537Y-90554494D01*
X119939502Y-90444180D01*
X119975812Y-90324482D01*
X119988072Y-90200000D01*
X119988072Y-89200000D01*
X119975812Y-89075518D01*
X119939502Y-88955820D01*
X119880537Y-88845506D01*
X119801185Y-88748815D01*
X119741704Y-88700000D01*
X119801185Y-88651185D01*
X119880537Y-88554494D01*
X119939502Y-88444180D01*
X119975812Y-88324482D01*
X119988072Y-88200000D01*
X119988072Y-87200000D01*
X119975812Y-87075518D01*
X119939502Y-86955820D01*
X119880537Y-86845506D01*
X119801185Y-86748815D01*
X119741704Y-86700000D01*
X119801185Y-86651185D01*
X119855501Y-86585000D01*
X121186533Y-86585000D01*
X121230002Y-86589281D01*
X121273471Y-86585000D01*
X121273479Y-86585000D01*
X121403492Y-86572195D01*
X121570315Y-86521589D01*
X121724061Y-86439411D01*
X121858819Y-86328817D01*
X121886536Y-86295044D01*
X128145050Y-80036531D01*
X128178818Y-80008818D01*
X128289412Y-79874060D01*
X128362098Y-79738072D01*
X129200000Y-79738072D01*
X129324482Y-79725812D01*
X129444180Y-79689502D01*
X129554494Y-79630537D01*
X129651185Y-79551185D01*
X129700000Y-79491704D01*
X129748815Y-79551185D01*
G04 #@! TA.AperFunction,Conductor*
D25*
G36*
X129748815Y-79551185D02*
G01*
X129845506Y-79630537D01*
X129955820Y-79689502D01*
X130075518Y-79725812D01*
X130200000Y-79738072D01*
X130665001Y-79738072D01*
X130665002Y-92286524D01*
X130660720Y-92330003D01*
X130677806Y-92503493D01*
X130728413Y-92670316D01*
X130810591Y-92824062D01*
X130893469Y-92925049D01*
X130893472Y-92925052D01*
X130921185Y-92958820D01*
X130954952Y-92986532D01*
X131411928Y-93443508D01*
X131411928Y-94200000D01*
X131424188Y-94324482D01*
X131460498Y-94444180D01*
X131519463Y-94554494D01*
X131598815Y-94651185D01*
X131695506Y-94730537D01*
X131805820Y-94789502D01*
X131925518Y-94825812D01*
X132050000Y-94838072D01*
X134550000Y-94838072D01*
X134674482Y-94825812D01*
X134794180Y-94789502D01*
X134904494Y-94730537D01*
X134951001Y-94692370D01*
X134951001Y-94873000D01*
X116890000Y-94873000D01*
X116890000Y-94838072D01*
X119350000Y-94838072D01*
X119474482Y-94825812D01*
X119594180Y-94789502D01*
X119704494Y-94730537D01*
X119801185Y-94651185D01*
X119880537Y-94554494D01*
X119939502Y-94444180D01*
X119975812Y-94324482D01*
X119988072Y-94200000D01*
X119988072Y-93200000D01*
X119975812Y-93075518D01*
X119939502Y-92955820D01*
X119880537Y-92845506D01*
X119801185Y-92748815D01*
X119741704Y-92700000D01*
X119801185Y-92651185D01*
X119880537Y-92554494D01*
X119939502Y-92444180D01*
X119975812Y-92324482D01*
X119988072Y-92200000D01*
X119988072Y-91200000D01*
X119975812Y-91075518D01*
X119939502Y-90955820D01*
X119880537Y-90845506D01*
X119801185Y-90748815D01*
X119741704Y-90700000D01*
X119801185Y-90651185D01*
X119880537Y-90554494D01*
X119939502Y-90444180D01*
X119975812Y-90324482D01*
X119988072Y-90200000D01*
X119988072Y-89200000D01*
X119975812Y-89075518D01*
X119939502Y-88955820D01*
X119880537Y-88845506D01*
X119801185Y-88748815D01*
X119741704Y-88700000D01*
X119801185Y-88651185D01*
X119880537Y-88554494D01*
X119939502Y-88444180D01*
X119975812Y-88324482D01*
X119988072Y-88200000D01*
X119988072Y-87200000D01*
X119975812Y-87075518D01*
X119939502Y-86955820D01*
X119880537Y-86845506D01*
X119801185Y-86748815D01*
X119741704Y-86700000D01*
X119801185Y-86651185D01*
X119855501Y-86585000D01*
X121186533Y-86585000D01*
X121230002Y-86589281D01*
X121273471Y-86585000D01*
X121273479Y-86585000D01*
X121403492Y-86572195D01*
X121570315Y-86521589D01*
X121724061Y-86439411D01*
X121858819Y-86328817D01*
X121886536Y-86295044D01*
X128145050Y-80036531D01*
X128178818Y-80008818D01*
X128289412Y-79874060D01*
X128362098Y-79738072D01*
X129200000Y-79738072D01*
X129324482Y-79725812D01*
X129444180Y-79689502D01*
X129554494Y-79630537D01*
X129651185Y-79551185D01*
X129700000Y-79491704D01*
X129748815Y-79551185D01*
G37*
G04 #@! TD.AperFunction*
D24*
X118227000Y-79573000D02*
X119775397Y-79573000D01*
X119845506Y-79630537D01*
X119955820Y-79689502D01*
X120075518Y-79725812D01*
X120200000Y-79738072D01*
X120560349Y-79738072D01*
X119976017Y-80322405D01*
X119988072Y-80200000D01*
X119985000Y-79985750D01*
X119826250Y-79827000D01*
X118227000Y-79827000D01*
X118227000Y-79847000D01*
X117973000Y-79847000D01*
X117973000Y-79827000D01*
X117953000Y-79827000D01*
X117953000Y-79573000D01*
X117973000Y-79573000D01*
X117973000Y-79553000D01*
X118227000Y-79553000D01*
X118227000Y-79573000D01*
G04 #@! TA.AperFunction,Conductor*
D25*
G36*
X118227000Y-79573000D02*
G01*
X119775397Y-79573000D01*
X119845506Y-79630537D01*
X119955820Y-79689502D01*
X120075518Y-79725812D01*
X120200000Y-79738072D01*
X120560349Y-79738072D01*
X119976017Y-80322405D01*
X119988072Y-80200000D01*
X119985000Y-79985750D01*
X119826250Y-79827000D01*
X118227000Y-79827000D01*
X118227000Y-79847000D01*
X117973000Y-79847000D01*
X117973000Y-79827000D01*
X117953000Y-79827000D01*
X117953000Y-79573000D01*
X117973000Y-79573000D01*
X117973000Y-79553000D01*
X118227000Y-79553000D01*
X118227000Y-79573000D01*
G37*
G04 #@! TD.AperFunction*
D24*
X119270001Y-67111521D02*
X119265719Y-67155000D01*
X119282805Y-67328490D01*
X119333412Y-67495313D01*
X119415590Y-67649059D01*
X119498468Y-67750046D01*
X119498471Y-67750049D01*
X119526184Y-67783817D01*
X119559952Y-67811530D01*
X123574586Y-71826164D01*
X123527000Y-71873750D01*
X123527000Y-72973000D01*
X123547000Y-72973000D01*
X123547000Y-73227000D01*
X123527000Y-73227000D01*
X123527000Y-73247000D01*
X123273000Y-73247000D01*
X123273000Y-73227000D01*
X122173750Y-73227000D01*
X122015000Y-73385750D01*
X122014145Y-73514999D01*
X120660466Y-73514999D01*
X120617000Y-73510718D01*
X120573534Y-73514999D01*
X120573524Y-73514999D01*
X120487942Y-73523428D01*
X119355500Y-73523428D01*
X119231018Y-73535688D01*
X119111320Y-73571998D01*
X119001006Y-73630963D01*
X118904315Y-73710315D01*
X118824963Y-73807006D01*
X118765998Y-73917320D01*
X118729688Y-74037018D01*
X118717428Y-74161500D01*
X118717428Y-75461500D01*
X118729688Y-75585982D01*
X118765998Y-75705680D01*
X118824963Y-75815994D01*
X118904315Y-75912685D01*
X119001006Y-75992037D01*
X119111320Y-76051002D01*
X119231018Y-76087312D01*
X119355500Y-76099572D01*
X121055500Y-76099572D01*
X121179982Y-76087312D01*
X121299680Y-76051002D01*
X121409994Y-75992037D01*
X121506685Y-75912685D01*
X121586037Y-75815994D01*
X121645002Y-75705680D01*
X121681312Y-75585982D01*
X121693572Y-75461500D01*
X121693572Y-75284999D01*
X122011928Y-75284999D01*
X122011928Y-75636493D01*
X120986494Y-76661928D01*
X120200000Y-76661928D01*
X120075518Y-76674188D01*
X119955820Y-76710498D01*
X119845506Y-76769463D01*
X119748815Y-76848815D01*
X119669463Y-76945506D01*
X119610498Y-77055820D01*
X119574188Y-77175518D01*
X119561928Y-77300000D01*
X119561928Y-78600714D01*
X119474482Y-78574188D01*
X119350000Y-78561928D01*
X118668627Y-78564099D01*
X118695812Y-78474482D01*
X118708072Y-78350000D01*
X118708072Y-76650000D01*
X118695812Y-76525518D01*
X118659502Y-76405820D01*
X118600537Y-76295506D01*
X118521185Y-76198815D01*
X118424494Y-76119463D01*
X118314180Y-76060498D01*
X118233534Y-76036034D01*
X118317588Y-75960269D01*
X118491641Y-75726920D01*
X118616825Y-75464099D01*
X118661476Y-75316890D01*
X118540155Y-75087000D01*
X117347000Y-75087000D01*
X117347000Y-75107000D01*
X117093000Y-75107000D01*
X117093000Y-75087000D01*
X117073000Y-75087000D01*
X117073000Y-74833000D01*
X117093000Y-74833000D01*
X117093000Y-74813000D01*
X117347000Y-74813000D01*
X117347000Y-74833000D01*
X118540155Y-74833000D01*
X118661476Y-74603110D01*
X118616825Y-74455901D01*
X118491641Y-74193080D01*
X118317588Y-73959731D01*
X118101355Y-73764822D01*
X117984466Y-73695195D01*
X118166632Y-73573475D01*
X118373475Y-73366632D01*
X118535990Y-73123411D01*
X118647932Y-72853158D01*
X118705000Y-72566260D01*
X118705000Y-72273740D01*
X118647932Y-71986842D01*
X118554593Y-71761500D01*
X118717428Y-71761500D01*
X118729688Y-71885982D01*
X118765998Y-72005680D01*
X118824963Y-72115994D01*
X118904315Y-72212685D01*
X119001006Y-72292037D01*
X119111320Y-72351002D01*
X119231018Y-72387312D01*
X119355500Y-72399572D01*
X119919750Y-72396500D01*
X120078500Y-72237750D01*
X120078500Y-71238500D01*
X120332500Y-71238500D01*
X120332500Y-72237750D01*
X120491250Y-72396500D01*
X121055500Y-72399572D01*
X121179982Y-72387312D01*
X121299680Y-72351002D01*
X121301554Y-72350000D01*
X122011928Y-72350000D01*
X122015000Y-72814250D01*
X122173750Y-72973000D01*
X123273000Y-72973000D01*
X123273000Y-71873750D01*
X123114250Y-71715000D01*
X122650000Y-71711928D01*
X122525518Y-71724188D01*
X122405820Y-71760498D01*
X122295506Y-71819463D01*
X122198815Y-71898815D01*
X122119463Y-71995506D01*
X122060498Y-72105820D01*
X122024188Y-72225518D01*
X122011928Y-72350000D01*
X121301554Y-72350000D01*
X121409994Y-72292037D01*
X121506685Y-72212685D01*
X121586037Y-72115994D01*
X121645002Y-72005680D01*
X121681312Y-71885982D01*
X121693572Y-71761500D01*
X121690500Y-71397250D01*
X121531750Y-71238500D01*
X120332500Y-71238500D01*
X120078500Y-71238500D01*
X118879250Y-71238500D01*
X118720500Y-71397250D01*
X118717428Y-71761500D01*
X118554593Y-71761500D01*
X118535990Y-71716589D01*
X118373475Y-71473368D01*
X118166632Y-71266525D01*
X117992240Y-71150000D01*
X118166632Y-71033475D01*
X118373475Y-70826632D01*
X118535990Y-70583411D01*
X118586486Y-70461500D01*
X118717428Y-70461500D01*
X118720500Y-70825750D01*
X118879250Y-70984500D01*
X120078500Y-70984500D01*
X120078500Y-69985250D01*
X120332500Y-69985250D01*
X120332500Y-70984500D01*
X121531750Y-70984500D01*
X121690500Y-70825750D01*
X121693572Y-70461500D01*
X121681312Y-70337018D01*
X121645002Y-70217320D01*
X121586037Y-70107006D01*
X121506685Y-70010315D01*
X121409994Y-69930963D01*
X121299680Y-69871998D01*
X121179982Y-69835688D01*
X121055500Y-69823428D01*
X120491250Y-69826500D01*
X120332500Y-69985250D01*
X120078500Y-69985250D01*
X119919750Y-69826500D01*
X119355500Y-69823428D01*
X119231018Y-69835688D01*
X119111320Y-69871998D01*
X119001006Y-69930963D01*
X118904315Y-70010315D01*
X118824963Y-70107006D01*
X118765998Y-70217320D01*
X118729688Y-70337018D01*
X118717428Y-70461500D01*
X118586486Y-70461500D01*
X118647932Y-70313158D01*
X118705000Y-70026260D01*
X118705000Y-69733740D01*
X118647932Y-69446842D01*
X118535990Y-69176589D01*
X118373475Y-68933368D01*
X118166632Y-68726525D01*
X117992240Y-68610000D01*
X118166632Y-68493475D01*
X118373475Y-68286632D01*
X118535990Y-68043411D01*
X118647932Y-67773158D01*
X118705000Y-67486260D01*
X118705000Y-67193740D01*
X118690539Y-67121040D01*
X119270001Y-66541578D01*
X119270001Y-67111521D01*
G04 #@! TA.AperFunction,Conductor*
D25*
G36*
X119270001Y-67111521D02*
G01*
X119265719Y-67155000D01*
X119282805Y-67328490D01*
X119333412Y-67495313D01*
X119415590Y-67649059D01*
X119498468Y-67750046D01*
X119498471Y-67750049D01*
X119526184Y-67783817D01*
X119559952Y-67811530D01*
X123574586Y-71826164D01*
X123527000Y-71873750D01*
X123527000Y-72973000D01*
X123547000Y-72973000D01*
X123547000Y-73227000D01*
X123527000Y-73227000D01*
X123527000Y-73247000D01*
X123273000Y-73247000D01*
X123273000Y-73227000D01*
X122173750Y-73227000D01*
X122015000Y-73385750D01*
X122014145Y-73514999D01*
X120660466Y-73514999D01*
X120617000Y-73510718D01*
X120573534Y-73514999D01*
X120573524Y-73514999D01*
X120487942Y-73523428D01*
X119355500Y-73523428D01*
X119231018Y-73535688D01*
X119111320Y-73571998D01*
X119001006Y-73630963D01*
X118904315Y-73710315D01*
X118824963Y-73807006D01*
X118765998Y-73917320D01*
X118729688Y-74037018D01*
X118717428Y-74161500D01*
X118717428Y-75461500D01*
X118729688Y-75585982D01*
X118765998Y-75705680D01*
X118824963Y-75815994D01*
X118904315Y-75912685D01*
X119001006Y-75992037D01*
X119111320Y-76051002D01*
X119231018Y-76087312D01*
X119355500Y-76099572D01*
X121055500Y-76099572D01*
X121179982Y-76087312D01*
X121299680Y-76051002D01*
X121409994Y-75992037D01*
X121506685Y-75912685D01*
X121586037Y-75815994D01*
X121645002Y-75705680D01*
X121681312Y-75585982D01*
X121693572Y-75461500D01*
X121693572Y-75284999D01*
X122011928Y-75284999D01*
X122011928Y-75636493D01*
X120986494Y-76661928D01*
X120200000Y-76661928D01*
X120075518Y-76674188D01*
X119955820Y-76710498D01*
X119845506Y-76769463D01*
X119748815Y-76848815D01*
X119669463Y-76945506D01*
X119610498Y-77055820D01*
X119574188Y-77175518D01*
X119561928Y-77300000D01*
X119561928Y-78600714D01*
X119474482Y-78574188D01*
X119350000Y-78561928D01*
X118668627Y-78564099D01*
X118695812Y-78474482D01*
X118708072Y-78350000D01*
X118708072Y-76650000D01*
X118695812Y-76525518D01*
X118659502Y-76405820D01*
X118600537Y-76295506D01*
X118521185Y-76198815D01*
X118424494Y-76119463D01*
X118314180Y-76060498D01*
X118233534Y-76036034D01*
X118317588Y-75960269D01*
X118491641Y-75726920D01*
X118616825Y-75464099D01*
X118661476Y-75316890D01*
X118540155Y-75087000D01*
X117347000Y-75087000D01*
X117347000Y-75107000D01*
X117093000Y-75107000D01*
X117093000Y-75087000D01*
X117073000Y-75087000D01*
X117073000Y-74833000D01*
X117093000Y-74833000D01*
X117093000Y-74813000D01*
X117347000Y-74813000D01*
X117347000Y-74833000D01*
X118540155Y-74833000D01*
X118661476Y-74603110D01*
X118616825Y-74455901D01*
X118491641Y-74193080D01*
X118317588Y-73959731D01*
X118101355Y-73764822D01*
X117984466Y-73695195D01*
X118166632Y-73573475D01*
X118373475Y-73366632D01*
X118535990Y-73123411D01*
X118647932Y-72853158D01*
X118705000Y-72566260D01*
X118705000Y-72273740D01*
X118647932Y-71986842D01*
X118554593Y-71761500D01*
X118717428Y-71761500D01*
X118729688Y-71885982D01*
X118765998Y-72005680D01*
X118824963Y-72115994D01*
X118904315Y-72212685D01*
X119001006Y-72292037D01*
X119111320Y-72351002D01*
X119231018Y-72387312D01*
X119355500Y-72399572D01*
X119919750Y-72396500D01*
X120078500Y-72237750D01*
X120078500Y-71238500D01*
X120332500Y-71238500D01*
X120332500Y-72237750D01*
X120491250Y-72396500D01*
X121055500Y-72399572D01*
X121179982Y-72387312D01*
X121299680Y-72351002D01*
X121301554Y-72350000D01*
X122011928Y-72350000D01*
X122015000Y-72814250D01*
X122173750Y-72973000D01*
X123273000Y-72973000D01*
X123273000Y-71873750D01*
X123114250Y-71715000D01*
X122650000Y-71711928D01*
X122525518Y-71724188D01*
X122405820Y-71760498D01*
X122295506Y-71819463D01*
X122198815Y-71898815D01*
X122119463Y-71995506D01*
X122060498Y-72105820D01*
X122024188Y-72225518D01*
X122011928Y-72350000D01*
X121301554Y-72350000D01*
X121409994Y-72292037D01*
X121506685Y-72212685D01*
X121586037Y-72115994D01*
X121645002Y-72005680D01*
X121681312Y-71885982D01*
X121693572Y-71761500D01*
X121690500Y-71397250D01*
X121531750Y-71238500D01*
X120332500Y-71238500D01*
X120078500Y-71238500D01*
X118879250Y-71238500D01*
X118720500Y-71397250D01*
X118717428Y-71761500D01*
X118554593Y-71761500D01*
X118535990Y-71716589D01*
X118373475Y-71473368D01*
X118166632Y-71266525D01*
X117992240Y-71150000D01*
X118166632Y-71033475D01*
X118373475Y-70826632D01*
X118535990Y-70583411D01*
X118586486Y-70461500D01*
X118717428Y-70461500D01*
X118720500Y-70825750D01*
X118879250Y-70984500D01*
X120078500Y-70984500D01*
X120078500Y-69985250D01*
X120332500Y-69985250D01*
X120332500Y-70984500D01*
X121531750Y-70984500D01*
X121690500Y-70825750D01*
X121693572Y-70461500D01*
X121681312Y-70337018D01*
X121645002Y-70217320D01*
X121586037Y-70107006D01*
X121506685Y-70010315D01*
X121409994Y-69930963D01*
X121299680Y-69871998D01*
X121179982Y-69835688D01*
X121055500Y-69823428D01*
X120491250Y-69826500D01*
X120332500Y-69985250D01*
X120078500Y-69985250D01*
X119919750Y-69826500D01*
X119355500Y-69823428D01*
X119231018Y-69835688D01*
X119111320Y-69871998D01*
X119001006Y-69930963D01*
X118904315Y-70010315D01*
X118824963Y-70107006D01*
X118765998Y-70217320D01*
X118729688Y-70337018D01*
X118717428Y-70461500D01*
X118586486Y-70461500D01*
X118647932Y-70313158D01*
X118705000Y-70026260D01*
X118705000Y-69733740D01*
X118647932Y-69446842D01*
X118535990Y-69176589D01*
X118373475Y-68933368D01*
X118166632Y-68726525D01*
X117992240Y-68610000D01*
X118166632Y-68493475D01*
X118373475Y-68286632D01*
X118535990Y-68043411D01*
X118647932Y-67773158D01*
X118705000Y-67486260D01*
X118705000Y-67193740D01*
X118690539Y-67121040D01*
X119270001Y-66541578D01*
X119270001Y-67111521D01*
G37*
G04 #@! TD.AperFunction*
D24*
X132595506Y-76680537D02*
X132705820Y-76739502D01*
X132825518Y-76775812D01*
X132950000Y-76788072D01*
X133091316Y-76788072D01*
X133090208Y-76799320D01*
X133093280Y-76823570D01*
X133252030Y-76982320D01*
X134051280Y-76982320D01*
X134051280Y-76962320D01*
X134305280Y-76962320D01*
X134305280Y-76982320D01*
X134325280Y-76982320D01*
X134325280Y-77236320D01*
X134305280Y-77236320D01*
X134305280Y-77256320D01*
X134051280Y-77256320D01*
X134051280Y-77236320D01*
X133252030Y-77236320D01*
X133093280Y-77395070D01*
X133090208Y-77419320D01*
X133102468Y-77543802D01*
X133138778Y-77663500D01*
X133197743Y-77773814D01*
X133277095Y-77870505D01*
X133373786Y-77949857D01*
X133484100Y-78008822D01*
X133603798Y-78045132D01*
X133728280Y-78057392D01*
X133892530Y-78054320D01*
X134051278Y-77895572D01*
X134051278Y-78054320D01*
X134091701Y-78054320D01*
X133584094Y-78561928D01*
X132435001Y-78561928D01*
X132435001Y-76655501D01*
X132500000Y-76602158D01*
X132595506Y-76680537D01*
G04 #@! TA.AperFunction,Conductor*
D25*
G36*
X132595506Y-76680537D02*
G01*
X132705820Y-76739502D01*
X132825518Y-76775812D01*
X132950000Y-76788072D01*
X133091316Y-76788072D01*
X133090208Y-76799320D01*
X133093280Y-76823570D01*
X133252030Y-76982320D01*
X134051280Y-76982320D01*
X134051280Y-76962320D01*
X134305280Y-76962320D01*
X134305280Y-76982320D01*
X134325280Y-76982320D01*
X134325280Y-77236320D01*
X134305280Y-77236320D01*
X134305280Y-77256320D01*
X134051280Y-77256320D01*
X134051280Y-77236320D01*
X133252030Y-77236320D01*
X133093280Y-77395070D01*
X133090208Y-77419320D01*
X133102468Y-77543802D01*
X133138778Y-77663500D01*
X133197743Y-77773814D01*
X133277095Y-77870505D01*
X133373786Y-77949857D01*
X133484100Y-78008822D01*
X133603798Y-78045132D01*
X133728280Y-78057392D01*
X133892530Y-78054320D01*
X134051278Y-77895572D01*
X134051278Y-78054320D01*
X134091701Y-78054320D01*
X133584094Y-78561928D01*
X132435001Y-78561928D01*
X132435001Y-76655501D01*
X132500000Y-76602158D01*
X132595506Y-76680537D01*
G37*
G04 #@! TD.AperFunction*
D24*
X130019463Y-76504494D02*
X130098815Y-76601185D01*
X130175742Y-76664317D01*
X130075518Y-76674188D01*
X129955820Y-76710498D01*
X129845506Y-76769463D01*
X129748815Y-76848815D01*
X129700000Y-76908296D01*
X129651185Y-76848815D01*
X129563543Y-76776889D01*
X129574482Y-76775812D01*
X129694180Y-76739502D01*
X129804494Y-76680537D01*
X129901185Y-76601185D01*
X129980537Y-76504494D01*
X130000000Y-76468082D01*
X130019463Y-76504494D01*
G04 #@! TA.AperFunction,Conductor*
D25*
G36*
X130019463Y-76504494D02*
G01*
X130098815Y-76601185D01*
X130175742Y-76664317D01*
X130075518Y-76674188D01*
X129955820Y-76710498D01*
X129845506Y-76769463D01*
X129748815Y-76848815D01*
X129700000Y-76908296D01*
X129651185Y-76848815D01*
X129563543Y-76776889D01*
X129574482Y-76775812D01*
X129694180Y-76739502D01*
X129804494Y-76680537D01*
X129901185Y-76601185D01*
X129980537Y-76504494D01*
X130000000Y-76468082D01*
X130019463Y-76504494D01*
G37*
G04 #@! TD.AperFunction*
D24*
X130805476Y-58850000D02*
X135840000Y-58850000D01*
X135840000Y-59707843D01*
X135744494Y-59629463D01*
X135634180Y-59570498D01*
X135514482Y-59534188D01*
X135390000Y-59521928D01*
X133890000Y-59521928D01*
X133765518Y-59534188D01*
X133645820Y-59570498D01*
X133535506Y-59629463D01*
X133440000Y-59707842D01*
X133344494Y-59629463D01*
X133234180Y-59570498D01*
X133114482Y-59534188D01*
X132990000Y-59521928D01*
X131490000Y-59521928D01*
X131365518Y-59534188D01*
X131245820Y-59570498D01*
X131135506Y-59629463D01*
X131038815Y-59708815D01*
X130959463Y-59805506D01*
X130900498Y-59915820D01*
X130864188Y-60035518D01*
X130851928Y-60160000D01*
X130851928Y-61046493D01*
X130336434Y-61561988D01*
X130390704Y-61450429D01*
X130472384Y-61138892D01*
X130491718Y-60817405D01*
X130447961Y-60498325D01*
X130342795Y-60193912D01*
X130249814Y-60019956D01*
X129985413Y-59924192D01*
X129029605Y-60880000D01*
X129043748Y-60894143D01*
X128864143Y-61073748D01*
X128850000Y-61059605D01*
X127894192Y-62015413D01*
X127989956Y-62279814D01*
X128279571Y-62420704D01*
X128591108Y-62502384D01*
X128800888Y-62515000D01*
X127238454Y-62515000D01*
X127190256Y-62482795D01*
X127001898Y-62404774D01*
X126801939Y-62365000D01*
X126598061Y-62365000D01*
X126398102Y-62404774D01*
X126209744Y-62482795D01*
X126040226Y-62596063D01*
X125896063Y-62740226D01*
X125782795Y-62909744D01*
X125704774Y-63098102D01*
X125700000Y-63122103D01*
X125695226Y-63098102D01*
X125617205Y-62909744D01*
X125503937Y-62740226D01*
X125359774Y-62596063D01*
X125190256Y-62482795D01*
X125001898Y-62404774D01*
X124801939Y-62365000D01*
X124598061Y-62365000D01*
X124398102Y-62404774D01*
X124209744Y-62482795D01*
X124040226Y-62596063D01*
X123896063Y-62740226D01*
X123782795Y-62909744D01*
X123704774Y-63098102D01*
X123665000Y-63298061D01*
X123665000Y-63501939D01*
X123704774Y-63701898D01*
X123782795Y-63890256D01*
X123848179Y-63988110D01*
X123796063Y-64040226D01*
X123682795Y-64209744D01*
X123604774Y-64398102D01*
X123565000Y-64598061D01*
X123565000Y-64801939D01*
X123604774Y-65001898D01*
X123682795Y-65190256D01*
X123796063Y-65359774D01*
X123940226Y-65503937D01*
X124109744Y-65617205D01*
X124298102Y-65695226D01*
X124498061Y-65735000D01*
X124701939Y-65735000D01*
X124901898Y-65695226D01*
X125090256Y-65617205D01*
X125259774Y-65503937D01*
X125403937Y-65359774D01*
X125517205Y-65190256D01*
X125595226Y-65001898D01*
X125635000Y-64801939D01*
X125635000Y-64598061D01*
X125595226Y-64398102D01*
X125517205Y-64209744D01*
X125451821Y-64111890D01*
X125503937Y-64059774D01*
X125617205Y-63890256D01*
X125695226Y-63701898D01*
X125700000Y-63677897D01*
X125704774Y-63701898D01*
X125782795Y-63890256D01*
X125896063Y-64059774D01*
X125908125Y-64071836D01*
X125882795Y-64109744D01*
X125804774Y-64298102D01*
X125765000Y-64498061D01*
X125765000Y-64701939D01*
X125804774Y-64901898D01*
X125882795Y-65090256D01*
X125996063Y-65259774D01*
X126140226Y-65403937D01*
X126309744Y-65517205D01*
X126498102Y-65595226D01*
X126698061Y-65635000D01*
X126901939Y-65635000D01*
X127101898Y-65595226D01*
X127290256Y-65517205D01*
X127459774Y-65403937D01*
X127603937Y-65259774D01*
X127717205Y-65090256D01*
X127795226Y-64901898D01*
X127835000Y-64701939D01*
X127835000Y-64498061D01*
X127795226Y-64298102D01*
X127789799Y-64285000D01*
X129706531Y-64285000D01*
X129750000Y-64289281D01*
X129793469Y-64285000D01*
X129793477Y-64285000D01*
X129923490Y-64272195D01*
X130090313Y-64221589D01*
X130244059Y-64139411D01*
X130378817Y-64028817D01*
X130406534Y-63995044D01*
X132103507Y-62298072D01*
X132990000Y-62298072D01*
X133114482Y-62285812D01*
X133234180Y-62249502D01*
X133344494Y-62190537D01*
X133440000Y-62112158D01*
X133535506Y-62190537D01*
X133645820Y-62249502D01*
X133686561Y-62261861D01*
X132335848Y-63612574D01*
X132335845Y-63612576D01*
X132304951Y-63643470D01*
X132271183Y-63671183D01*
X132243470Y-63704951D01*
X132212576Y-63735845D01*
X132188304Y-63772171D01*
X132160589Y-63805941D01*
X132139996Y-63844467D01*
X132115723Y-63880795D01*
X132099001Y-63921165D01*
X132078411Y-63959687D01*
X132065731Y-64001487D01*
X132049010Y-64041855D01*
X132040487Y-64084705D01*
X132027805Y-64126510D01*
X132023523Y-64169987D01*
X132015000Y-64212835D01*
X132015000Y-64256523D01*
X132010718Y-64300000D01*
X132015000Y-64343477D01*
X132015000Y-64387165D01*
X132023523Y-64430013D01*
X132027805Y-64473490D01*
X132040487Y-64515295D01*
X132049010Y-64558145D01*
X132065731Y-64598513D01*
X132078411Y-64640313D01*
X132099001Y-64678835D01*
X132115723Y-64719205D01*
X132139996Y-64755533D01*
X132160589Y-64794059D01*
X132188304Y-64827829D01*
X132212576Y-64864155D01*
X132243470Y-64895049D01*
X132271183Y-64928817D01*
X132304951Y-64956530D01*
X132335845Y-64987424D01*
X132372171Y-65011696D01*
X132405941Y-65039411D01*
X132444467Y-65060004D01*
X132480795Y-65084277D01*
X132521165Y-65100999D01*
X132559687Y-65121589D01*
X132601487Y-65134269D01*
X132641855Y-65150990D01*
X132684705Y-65159513D01*
X132726510Y-65172195D01*
X132769987Y-65176477D01*
X132812835Y-65185000D01*
X132856531Y-65185000D01*
X132900000Y-65189281D01*
X132943469Y-65185000D01*
X132987165Y-65185000D01*
X133030013Y-65176477D01*
X133073490Y-65172195D01*
X133115295Y-65159513D01*
X133158145Y-65150990D01*
X133198513Y-65134269D01*
X133240313Y-65121589D01*
X133278835Y-65100999D01*
X133319205Y-65084277D01*
X133355533Y-65060004D01*
X133394059Y-65039411D01*
X133427829Y-65011696D01*
X133464155Y-64987424D01*
X133495049Y-64956530D01*
X133528817Y-64928817D01*
X133556530Y-64895049D01*
X133587424Y-64864155D01*
X133587426Y-64864152D01*
X135235049Y-63216530D01*
X135268817Y-63188817D01*
X135328095Y-63116588D01*
X135379411Y-63054059D01*
X135461589Y-62900314D01*
X135512195Y-62733490D01*
X135518448Y-62670000D01*
X135525000Y-62603477D01*
X135525000Y-62603469D01*
X135529281Y-62560000D01*
X135525000Y-62516531D01*
X135525000Y-62282621D01*
X135634180Y-62249502D01*
X135744494Y-62190537D01*
X135840000Y-62112157D01*
X135840001Y-68401888D01*
X134202000Y-68401888D01*
X134077518Y-68414148D01*
X133957820Y-68450458D01*
X133847506Y-68509423D01*
X133750815Y-68588775D01*
X133671463Y-68685466D01*
X133612498Y-68795780D01*
X133576188Y-68915478D01*
X133563928Y-69039960D01*
X133563928Y-70376454D01*
X133387374Y-70553007D01*
X133387000Y-70450710D01*
X133228250Y-70291960D01*
X132054000Y-70291960D01*
X132054000Y-70311960D01*
X131800000Y-70311960D01*
X131800000Y-70291960D01*
X130625750Y-70291960D01*
X130467000Y-70450710D01*
X130463928Y-71289960D01*
X130476188Y-71414442D01*
X130512498Y-71534140D01*
X130554077Y-71611928D01*
X130550000Y-71611928D01*
X130425518Y-71624188D01*
X130305820Y-71660498D01*
X130195506Y-71719463D01*
X130098815Y-71798815D01*
X130019463Y-71895506D01*
X130000000Y-71931918D01*
X129980537Y-71895506D01*
X129901185Y-71798815D01*
X129804494Y-71719463D01*
X129694180Y-71660498D01*
X129574482Y-71624188D01*
X129450000Y-71611928D01*
X127950000Y-71611928D01*
X127825518Y-71624188D01*
X127705820Y-71660498D01*
X127595506Y-71719463D01*
X127498815Y-71798815D01*
X127419463Y-71895506D01*
X127371740Y-71984787D01*
X127301185Y-71898815D01*
X127204494Y-71819463D01*
X127094180Y-71760498D01*
X126974482Y-71724188D01*
X126850000Y-71711928D01*
X125963507Y-71711928D01*
X123291539Y-69039960D01*
X130463928Y-69039960D01*
X130467000Y-69879210D01*
X130625750Y-70037960D01*
X131800000Y-70037960D01*
X131800000Y-68563710D01*
X132054000Y-68563710D01*
X132054000Y-70037960D01*
X133228250Y-70037960D01*
X133387000Y-69879210D01*
X133390072Y-69039960D01*
X133377812Y-68915478D01*
X133341502Y-68795780D01*
X133282537Y-68685466D01*
X133203185Y-68588775D01*
X133106494Y-68509423D01*
X132996180Y-68450458D01*
X132876482Y-68414148D01*
X132752000Y-68401888D01*
X132212750Y-68404960D01*
X132054000Y-68563710D01*
X131800000Y-68563710D01*
X131641250Y-68404960D01*
X131102000Y-68401888D01*
X130977518Y-68414148D01*
X130857820Y-68450458D01*
X130747506Y-68509423D01*
X130650815Y-68588775D01*
X130571463Y-68685466D01*
X130512498Y-68795780D01*
X130476188Y-68915478D01*
X130463928Y-69039960D01*
X123291539Y-69039960D01*
X121040000Y-66788422D01*
X121040000Y-65526943D01*
X121044850Y-65525472D01*
X121198386Y-65443405D01*
X121332962Y-65332962D01*
X121443405Y-65198386D01*
X121525472Y-65044850D01*
X121576008Y-64878254D01*
X121593072Y-64705000D01*
X121593072Y-63555000D01*
X121576008Y-63381746D01*
X121525472Y-63215150D01*
X121443405Y-63061614D01*
X121381207Y-62985825D01*
X121419502Y-62914180D01*
X121455812Y-62794482D01*
X121468072Y-62670000D01*
X121468072Y-62219393D01*
X121489956Y-62279814D01*
X121779571Y-62420704D01*
X122091108Y-62502384D01*
X122412595Y-62521718D01*
X122731675Y-62477961D01*
X123036088Y-62372795D01*
X123210044Y-62279814D01*
X123305808Y-62015413D01*
X122350000Y-61059605D01*
X122335858Y-61073748D01*
X122156253Y-60894143D01*
X122170395Y-60880000D01*
X122529605Y-60880000D01*
X123485413Y-61835808D01*
X123749814Y-61740044D01*
X123890704Y-61450429D01*
X123972384Y-61138892D01*
X123984189Y-60942595D01*
X127208282Y-60942595D01*
X127252039Y-61261675D01*
X127357205Y-61566088D01*
X127450186Y-61740044D01*
X127714587Y-61835808D01*
X128670395Y-60880000D01*
X127714587Y-59924192D01*
X127450186Y-60019956D01*
X127309296Y-60309571D01*
X127227616Y-60621108D01*
X127208282Y-60942595D01*
X123984189Y-60942595D01*
X123991718Y-60817405D01*
X123947961Y-60498325D01*
X123842795Y-60193912D01*
X123749814Y-60019956D01*
X123485413Y-59924192D01*
X122529605Y-60880000D01*
X122170395Y-60880000D01*
X121214587Y-59924192D01*
X120965000Y-60014590D01*
X120965000Y-59744587D01*
X121394192Y-59744587D01*
X122350000Y-60700395D01*
X123305808Y-59744587D01*
X127894192Y-59744587D01*
X128850000Y-60700395D01*
X129805808Y-59744587D01*
X129710044Y-59480186D01*
X129420429Y-59339296D01*
X129108892Y-59257616D01*
X128787405Y-59238282D01*
X128468325Y-59282039D01*
X128163912Y-59387205D01*
X127989956Y-59480186D01*
X127894192Y-59744587D01*
X123305808Y-59744587D01*
X123210044Y-59480186D01*
X122920429Y-59339296D01*
X122608892Y-59257616D01*
X122287405Y-59238282D01*
X121968325Y-59282039D01*
X121663912Y-59387205D01*
X121489956Y-59480186D01*
X121394192Y-59744587D01*
X120965000Y-59744587D01*
X120965000Y-59016578D01*
X122003475Y-57978104D01*
X122188967Y-58015000D01*
X122511033Y-58015000D01*
X122826912Y-57952168D01*
X123124463Y-57828918D01*
X123392252Y-57649987D01*
X123619987Y-57422252D01*
X123725059Y-57265000D01*
X127474941Y-57265000D01*
X127580013Y-57422252D01*
X127807748Y-57649987D01*
X128075537Y-57828918D01*
X128373088Y-57952168D01*
X128688967Y-58015000D01*
X129011033Y-58015000D01*
X129326912Y-57952168D01*
X129624463Y-57828918D01*
X129892252Y-57649987D01*
X130119987Y-57422252D01*
X130298918Y-57154463D01*
X130422168Y-56856912D01*
X130485000Y-56541033D01*
X130485000Y-56218967D01*
X130422168Y-55903088D01*
X130298918Y-55605537D01*
X130119987Y-55337748D01*
X130013739Y-55231500D01*
X130805476Y-55231500D01*
X130805476Y-58850000D01*
G04 #@! TA.AperFunction,Conductor*
D25*
G36*
X130805476Y-58850000D02*
G01*
X135840000Y-58850000D01*
X135840000Y-59707843D01*
X135744494Y-59629463D01*
X135634180Y-59570498D01*
X135514482Y-59534188D01*
X135390000Y-59521928D01*
X133890000Y-59521928D01*
X133765518Y-59534188D01*
X133645820Y-59570498D01*
X133535506Y-59629463D01*
X133440000Y-59707842D01*
X133344494Y-59629463D01*
X133234180Y-59570498D01*
X133114482Y-59534188D01*
X132990000Y-59521928D01*
X131490000Y-59521928D01*
X131365518Y-59534188D01*
X131245820Y-59570498D01*
X131135506Y-59629463D01*
X131038815Y-59708815D01*
X130959463Y-59805506D01*
X130900498Y-59915820D01*
X130864188Y-60035518D01*
X130851928Y-60160000D01*
X130851928Y-61046493D01*
X130336434Y-61561988D01*
X130390704Y-61450429D01*
X130472384Y-61138892D01*
X130491718Y-60817405D01*
X130447961Y-60498325D01*
X130342795Y-60193912D01*
X130249814Y-60019956D01*
X129985413Y-59924192D01*
X129029605Y-60880000D01*
X129043748Y-60894143D01*
X128864143Y-61073748D01*
X128850000Y-61059605D01*
X127894192Y-62015413D01*
X127989956Y-62279814D01*
X128279571Y-62420704D01*
X128591108Y-62502384D01*
X128800888Y-62515000D01*
X127238454Y-62515000D01*
X127190256Y-62482795D01*
X127001898Y-62404774D01*
X126801939Y-62365000D01*
X126598061Y-62365000D01*
X126398102Y-62404774D01*
X126209744Y-62482795D01*
X126040226Y-62596063D01*
X125896063Y-62740226D01*
X125782795Y-62909744D01*
X125704774Y-63098102D01*
X125700000Y-63122103D01*
X125695226Y-63098102D01*
X125617205Y-62909744D01*
X125503937Y-62740226D01*
X125359774Y-62596063D01*
X125190256Y-62482795D01*
X125001898Y-62404774D01*
X124801939Y-62365000D01*
X124598061Y-62365000D01*
X124398102Y-62404774D01*
X124209744Y-62482795D01*
X124040226Y-62596063D01*
X123896063Y-62740226D01*
X123782795Y-62909744D01*
X123704774Y-63098102D01*
X123665000Y-63298061D01*
X123665000Y-63501939D01*
X123704774Y-63701898D01*
X123782795Y-63890256D01*
X123848179Y-63988110D01*
X123796063Y-64040226D01*
X123682795Y-64209744D01*
X123604774Y-64398102D01*
X123565000Y-64598061D01*
X123565000Y-64801939D01*
X123604774Y-65001898D01*
X123682795Y-65190256D01*
X123796063Y-65359774D01*
X123940226Y-65503937D01*
X124109744Y-65617205D01*
X124298102Y-65695226D01*
X124498061Y-65735000D01*
X124701939Y-65735000D01*
X124901898Y-65695226D01*
X125090256Y-65617205D01*
X125259774Y-65503937D01*
X125403937Y-65359774D01*
X125517205Y-65190256D01*
X125595226Y-65001898D01*
X125635000Y-64801939D01*
X125635000Y-64598061D01*
X125595226Y-64398102D01*
X125517205Y-64209744D01*
X125451821Y-64111890D01*
X125503937Y-64059774D01*
X125617205Y-63890256D01*
X125695226Y-63701898D01*
X125700000Y-63677897D01*
X125704774Y-63701898D01*
X125782795Y-63890256D01*
X125896063Y-64059774D01*
X125908125Y-64071836D01*
X125882795Y-64109744D01*
X125804774Y-64298102D01*
X125765000Y-64498061D01*
X125765000Y-64701939D01*
X125804774Y-64901898D01*
X125882795Y-65090256D01*
X125996063Y-65259774D01*
X126140226Y-65403937D01*
X126309744Y-65517205D01*
X126498102Y-65595226D01*
X126698061Y-65635000D01*
X126901939Y-65635000D01*
X127101898Y-65595226D01*
X127290256Y-65517205D01*
X127459774Y-65403937D01*
X127603937Y-65259774D01*
X127717205Y-65090256D01*
X127795226Y-64901898D01*
X127835000Y-64701939D01*
X127835000Y-64498061D01*
X127795226Y-64298102D01*
X127789799Y-64285000D01*
X129706531Y-64285000D01*
X129750000Y-64289281D01*
X129793469Y-64285000D01*
X129793477Y-64285000D01*
X129923490Y-64272195D01*
X130090313Y-64221589D01*
X130244059Y-64139411D01*
X130378817Y-64028817D01*
X130406534Y-63995044D01*
X132103507Y-62298072D01*
X132990000Y-62298072D01*
X133114482Y-62285812D01*
X133234180Y-62249502D01*
X133344494Y-62190537D01*
X133440000Y-62112158D01*
X133535506Y-62190537D01*
X133645820Y-62249502D01*
X133686561Y-62261861D01*
X132335848Y-63612574D01*
X132335845Y-63612576D01*
X132304951Y-63643470D01*
X132271183Y-63671183D01*
X132243470Y-63704951D01*
X132212576Y-63735845D01*
X132188304Y-63772171D01*
X132160589Y-63805941D01*
X132139996Y-63844467D01*
X132115723Y-63880795D01*
X132099001Y-63921165D01*
X132078411Y-63959687D01*
X132065731Y-64001487D01*
X132049010Y-64041855D01*
X132040487Y-64084705D01*
X132027805Y-64126510D01*
X132023523Y-64169987D01*
X132015000Y-64212835D01*
X132015000Y-64256523D01*
X132010718Y-64300000D01*
X132015000Y-64343477D01*
X132015000Y-64387165D01*
X132023523Y-64430013D01*
X132027805Y-64473490D01*
X132040487Y-64515295D01*
X132049010Y-64558145D01*
X132065731Y-64598513D01*
X132078411Y-64640313D01*
X132099001Y-64678835D01*
X132115723Y-64719205D01*
X132139996Y-64755533D01*
X132160589Y-64794059D01*
X132188304Y-64827829D01*
X132212576Y-64864155D01*
X132243470Y-64895049D01*
X132271183Y-64928817D01*
X132304951Y-64956530D01*
X132335845Y-64987424D01*
X132372171Y-65011696D01*
X132405941Y-65039411D01*
X132444467Y-65060004D01*
X132480795Y-65084277D01*
X132521165Y-65100999D01*
X132559687Y-65121589D01*
X132601487Y-65134269D01*
X132641855Y-65150990D01*
X132684705Y-65159513D01*
X132726510Y-65172195D01*
X132769987Y-65176477D01*
X132812835Y-65185000D01*
X132856531Y-65185000D01*
X132900000Y-65189281D01*
X132943469Y-65185000D01*
X132987165Y-65185000D01*
X133030013Y-65176477D01*
X133073490Y-65172195D01*
X133115295Y-65159513D01*
X133158145Y-65150990D01*
X133198513Y-65134269D01*
X133240313Y-65121589D01*
X133278835Y-65100999D01*
X133319205Y-65084277D01*
X133355533Y-65060004D01*
X133394059Y-65039411D01*
X133427829Y-65011696D01*
X133464155Y-64987424D01*
X133495049Y-64956530D01*
X133528817Y-64928817D01*
X133556530Y-64895049D01*
X133587424Y-64864155D01*
X133587426Y-64864152D01*
X135235049Y-63216530D01*
X135268817Y-63188817D01*
X135328095Y-63116588D01*
X135379411Y-63054059D01*
X135461589Y-62900314D01*
X135512195Y-62733490D01*
X135518448Y-62670000D01*
X135525000Y-62603477D01*
X135525000Y-62603469D01*
X135529281Y-62560000D01*
X135525000Y-62516531D01*
X135525000Y-62282621D01*
X135634180Y-62249502D01*
X135744494Y-62190537D01*
X135840000Y-62112157D01*
X135840001Y-68401888D01*
X134202000Y-68401888D01*
X134077518Y-68414148D01*
X133957820Y-68450458D01*
X133847506Y-68509423D01*
X133750815Y-68588775D01*
X133671463Y-68685466D01*
X133612498Y-68795780D01*
X133576188Y-68915478D01*
X133563928Y-69039960D01*
X133563928Y-70376454D01*
X133387374Y-70553007D01*
X133387000Y-70450710D01*
X133228250Y-70291960D01*
X132054000Y-70291960D01*
X132054000Y-70311960D01*
X131800000Y-70311960D01*
X131800000Y-70291960D01*
X130625750Y-70291960D01*
X130467000Y-70450710D01*
X130463928Y-71289960D01*
X130476188Y-71414442D01*
X130512498Y-71534140D01*
X130554077Y-71611928D01*
X130550000Y-71611928D01*
X130425518Y-71624188D01*
X130305820Y-71660498D01*
X130195506Y-71719463D01*
X130098815Y-71798815D01*
X130019463Y-71895506D01*
X130000000Y-71931918D01*
X129980537Y-71895506D01*
X129901185Y-71798815D01*
X129804494Y-71719463D01*
X129694180Y-71660498D01*
X129574482Y-71624188D01*
X129450000Y-71611928D01*
X127950000Y-71611928D01*
X127825518Y-71624188D01*
X127705820Y-71660498D01*
X127595506Y-71719463D01*
X127498815Y-71798815D01*
X127419463Y-71895506D01*
X127371740Y-71984787D01*
X127301185Y-71898815D01*
X127204494Y-71819463D01*
X127094180Y-71760498D01*
X126974482Y-71724188D01*
X126850000Y-71711928D01*
X125963507Y-71711928D01*
X123291539Y-69039960D01*
X130463928Y-69039960D01*
X130467000Y-69879210D01*
X130625750Y-70037960D01*
X131800000Y-70037960D01*
X131800000Y-68563710D01*
X132054000Y-68563710D01*
X132054000Y-70037960D01*
X133228250Y-70037960D01*
X133387000Y-69879210D01*
X133390072Y-69039960D01*
X133377812Y-68915478D01*
X133341502Y-68795780D01*
X133282537Y-68685466D01*
X133203185Y-68588775D01*
X133106494Y-68509423D01*
X132996180Y-68450458D01*
X132876482Y-68414148D01*
X132752000Y-68401888D01*
X132212750Y-68404960D01*
X132054000Y-68563710D01*
X131800000Y-68563710D01*
X131641250Y-68404960D01*
X131102000Y-68401888D01*
X130977518Y-68414148D01*
X130857820Y-68450458D01*
X130747506Y-68509423D01*
X130650815Y-68588775D01*
X130571463Y-68685466D01*
X130512498Y-68795780D01*
X130476188Y-68915478D01*
X130463928Y-69039960D01*
X123291539Y-69039960D01*
X121040000Y-66788422D01*
X121040000Y-65526943D01*
X121044850Y-65525472D01*
X121198386Y-65443405D01*
X121332962Y-65332962D01*
X121443405Y-65198386D01*
X121525472Y-65044850D01*
X121576008Y-64878254D01*
X121593072Y-64705000D01*
X121593072Y-63555000D01*
X121576008Y-63381746D01*
X121525472Y-63215150D01*
X121443405Y-63061614D01*
X121381207Y-62985825D01*
X121419502Y-62914180D01*
X121455812Y-62794482D01*
X121468072Y-62670000D01*
X121468072Y-62219393D01*
X121489956Y-62279814D01*
X121779571Y-62420704D01*
X122091108Y-62502384D01*
X122412595Y-62521718D01*
X122731675Y-62477961D01*
X123036088Y-62372795D01*
X123210044Y-62279814D01*
X123305808Y-62015413D01*
X122350000Y-61059605D01*
X122335858Y-61073748D01*
X122156253Y-60894143D01*
X122170395Y-60880000D01*
X122529605Y-60880000D01*
X123485413Y-61835808D01*
X123749814Y-61740044D01*
X123890704Y-61450429D01*
X123972384Y-61138892D01*
X123984189Y-60942595D01*
X127208282Y-60942595D01*
X127252039Y-61261675D01*
X127357205Y-61566088D01*
X127450186Y-61740044D01*
X127714587Y-61835808D01*
X128670395Y-60880000D01*
X127714587Y-59924192D01*
X127450186Y-60019956D01*
X127309296Y-60309571D01*
X127227616Y-60621108D01*
X127208282Y-60942595D01*
X123984189Y-60942595D01*
X123991718Y-60817405D01*
X123947961Y-60498325D01*
X123842795Y-60193912D01*
X123749814Y-60019956D01*
X123485413Y-59924192D01*
X122529605Y-60880000D01*
X122170395Y-60880000D01*
X121214587Y-59924192D01*
X120965000Y-60014590D01*
X120965000Y-59744587D01*
X121394192Y-59744587D01*
X122350000Y-60700395D01*
X123305808Y-59744587D01*
X127894192Y-59744587D01*
X128850000Y-60700395D01*
X129805808Y-59744587D01*
X129710044Y-59480186D01*
X129420429Y-59339296D01*
X129108892Y-59257616D01*
X128787405Y-59238282D01*
X128468325Y-59282039D01*
X128163912Y-59387205D01*
X127989956Y-59480186D01*
X127894192Y-59744587D01*
X123305808Y-59744587D01*
X123210044Y-59480186D01*
X122920429Y-59339296D01*
X122608892Y-59257616D01*
X122287405Y-59238282D01*
X121968325Y-59282039D01*
X121663912Y-59387205D01*
X121489956Y-59480186D01*
X121394192Y-59744587D01*
X120965000Y-59744587D01*
X120965000Y-59016578D01*
X122003475Y-57978104D01*
X122188967Y-58015000D01*
X122511033Y-58015000D01*
X122826912Y-57952168D01*
X123124463Y-57828918D01*
X123392252Y-57649987D01*
X123619987Y-57422252D01*
X123725059Y-57265000D01*
X127474941Y-57265000D01*
X127580013Y-57422252D01*
X127807748Y-57649987D01*
X128075537Y-57828918D01*
X128373088Y-57952168D01*
X128688967Y-58015000D01*
X129011033Y-58015000D01*
X129326912Y-57952168D01*
X129624463Y-57828918D01*
X129892252Y-57649987D01*
X130119987Y-57422252D01*
X130298918Y-57154463D01*
X130422168Y-56856912D01*
X130485000Y-56541033D01*
X130485000Y-56218967D01*
X130422168Y-55903088D01*
X130298918Y-55605537D01*
X130119987Y-55337748D01*
X130013739Y-55231500D01*
X130805476Y-55231500D01*
X130805476Y-58850000D01*
G37*
G04 #@! TD.AperFunction*
G04 #@! TD*
M02*
