G04 #@! TF.GenerationSoftware,KiCad,Pcbnew,(5.1.5)-1*
G04 #@! TF.CreationDate,2021-02-18T15:35:30+01:00*
G04 #@! TF.ProjectId,button,62757474-6f6e-42e6-9b69-6361645f7063,rev?*
G04 #@! TF.SameCoordinates,Original*
G04 #@! TF.FileFunction,Copper,L2,Bot*
G04 #@! TF.FilePolarity,Positive*
%FSLAX46Y46*%
G04 Gerber Fmt 4.6, Leading zero omitted, Abs format (unit mm)*
G04 Created by KiCad (PCBNEW (5.1.5)-1) date 2021-02-18 15:35:30*
%MOMM*%
%LPD*%
G04 APERTURE LIST*
%ADD10C,0.300000*%
%ADD11O,1.200000X1.750000*%
%ADD12C,0.100000*%
%ADD13O,1.700000X1.700000*%
%ADD14R,1.700000X1.700000*%
%ADD15C,2.000000*%
%ADD16R,2.000000X2.000000*%
%ADD17C,0.800000*%
%ADD18C,0.250000*%
%ADD19C,0.254000*%
G04 APERTURE END LIST*
D10*
X118650714Y-112312857D02*
X119150714Y-112312857D01*
X119248928Y-113098571D02*
X119061428Y-111598571D01*
X118347142Y-111598571D01*
X117248928Y-113098571D02*
X117963214Y-113098571D01*
X117775714Y-111598571D01*
D11*
X134930000Y-110490000D03*
G04 #@! TA.AperFunction,ComponentPad*
D12*
G36*
X133304505Y-109616204D02*
G01*
X133328773Y-109619804D01*
X133352572Y-109625765D01*
X133375671Y-109634030D01*
X133397850Y-109644520D01*
X133418893Y-109657132D01*
X133438599Y-109671747D01*
X133456777Y-109688223D01*
X133473253Y-109706401D01*
X133487868Y-109726107D01*
X133500480Y-109747150D01*
X133510970Y-109769329D01*
X133519235Y-109792428D01*
X133525196Y-109816227D01*
X133528796Y-109840495D01*
X133530000Y-109864999D01*
X133530000Y-111115001D01*
X133528796Y-111139505D01*
X133525196Y-111163773D01*
X133519235Y-111187572D01*
X133510970Y-111210671D01*
X133500480Y-111232850D01*
X133487868Y-111253893D01*
X133473253Y-111273599D01*
X133456777Y-111291777D01*
X133438599Y-111308253D01*
X133418893Y-111322868D01*
X133397850Y-111335480D01*
X133375671Y-111345970D01*
X133352572Y-111354235D01*
X133328773Y-111360196D01*
X133304505Y-111363796D01*
X133280001Y-111365000D01*
X132579999Y-111365000D01*
X132555495Y-111363796D01*
X132531227Y-111360196D01*
X132507428Y-111354235D01*
X132484329Y-111345970D01*
X132462150Y-111335480D01*
X132441107Y-111322868D01*
X132421401Y-111308253D01*
X132403223Y-111291777D01*
X132386747Y-111273599D01*
X132372132Y-111253893D01*
X132359520Y-111232850D01*
X132349030Y-111210671D01*
X132340765Y-111187572D01*
X132334804Y-111163773D01*
X132331204Y-111139505D01*
X132330000Y-111115001D01*
X132330000Y-109864999D01*
X132331204Y-109840495D01*
X132334804Y-109816227D01*
X132340765Y-109792428D01*
X132349030Y-109769329D01*
X132359520Y-109747150D01*
X132372132Y-109726107D01*
X132386747Y-109706401D01*
X132403223Y-109688223D01*
X132421401Y-109671747D01*
X132441107Y-109657132D01*
X132462150Y-109644520D01*
X132484329Y-109634030D01*
X132507428Y-109625765D01*
X132531227Y-109619804D01*
X132555495Y-109616204D01*
X132579999Y-109615000D01*
X133280001Y-109615000D01*
X133304505Y-109616204D01*
G37*
G04 #@! TD.AperFunction*
D13*
X118560000Y-102470000D03*
X118560000Y-99930000D03*
X118560000Y-97390000D03*
X118560000Y-94850000D03*
X118560000Y-92310000D03*
D14*
X118560000Y-89770000D03*
D15*
X123850000Y-51880000D03*
X123850000Y-47380000D03*
X130350000Y-51880000D03*
X130350000Y-47380000D03*
D16*
X127000000Y-109530000D03*
D15*
X127000000Y-57540000D03*
D17*
X134970000Y-102030000D03*
X129920000Y-105420000D03*
X119480000Y-85720000D03*
X125660000Y-60990000D03*
X126660000Y-92000000D03*
X122160000Y-87190000D03*
X122300000Y-110230000D03*
X124070000Y-107800000D03*
X122565000Y-102715000D03*
X124180000Y-89450000D03*
X134790000Y-85720000D03*
X134720000Y-83710000D03*
D18*
X119480000Y-85154315D02*
X118260000Y-83934315D01*
X119480000Y-85720000D02*
X119480000Y-85154315D01*
X118260000Y-83934315D02*
X118260000Y-63460000D01*
X118260000Y-63460000D02*
X119470000Y-62250000D01*
X119470000Y-62250000D02*
X124400000Y-62250000D01*
X124400000Y-62250000D02*
X125660000Y-60990000D01*
X125660000Y-60990000D02*
X125660000Y-60990000D01*
X119409999Y-100779999D02*
X120629999Y-100779999D01*
X118560000Y-99930000D02*
X119409999Y-100779999D01*
X120629999Y-100779999D02*
X122565000Y-102715000D01*
X122565000Y-102715000D02*
X122630000Y-102780000D01*
X126660000Y-92000000D02*
X126260001Y-92399999D01*
X126260001Y-92399999D02*
X126260001Y-92409999D01*
X126260001Y-92409999D02*
X122480000Y-96190000D01*
X122480000Y-96190000D02*
X117630000Y-96190000D01*
X117710001Y-99080001D02*
X118560000Y-99930000D01*
X117384999Y-98754999D02*
X117710001Y-99080001D01*
X117384999Y-96435001D02*
X117384999Y-98754999D01*
X117630000Y-96190000D02*
X117384999Y-96435001D01*
X124180000Y-90450000D02*
X124180000Y-89450000D01*
X122320000Y-92310000D02*
X124180000Y-90450000D01*
X118560000Y-92310000D02*
X122320000Y-92310000D01*
X123120000Y-97390000D02*
X134790000Y-85720000D01*
X118560000Y-97390000D02*
X123120000Y-97390000D01*
X119409999Y-94000001D02*
X123289999Y-94000001D01*
X118560000Y-94850000D02*
X119409999Y-94000001D01*
X133580000Y-83710000D02*
X134720000Y-83710000D01*
X123289999Y-94000001D02*
X133580000Y-83710000D01*
D19*
G36*
X128581162Y-44787507D02*
G01*
X129742190Y-45064203D01*
X130859370Y-45484228D01*
X131915104Y-46040964D01*
X132892734Y-46725627D01*
X133776846Y-47527423D01*
X134553496Y-48433706D01*
X135210433Y-49430181D01*
X135737296Y-50501128D01*
X136125781Y-51629673D01*
X136369761Y-52798016D01*
X136466355Y-53999801D01*
X136462186Y-54473079D01*
X136461900Y-54475982D01*
X136461901Y-112852600D01*
X120235000Y-112852600D01*
X120235000Y-110630000D01*
X117461750Y-110630000D01*
X117461641Y-108530000D01*
X125361928Y-108530000D01*
X125361928Y-110530000D01*
X125374188Y-110654482D01*
X125410498Y-110774180D01*
X125469463Y-110884494D01*
X125548815Y-110981185D01*
X125645506Y-111060537D01*
X125755820Y-111119502D01*
X125875518Y-111155812D01*
X126000000Y-111168072D01*
X128000000Y-111168072D01*
X128124482Y-111155812D01*
X128244180Y-111119502D01*
X128354494Y-111060537D01*
X128451185Y-110981185D01*
X128530537Y-110884494D01*
X128589502Y-110774180D01*
X128625812Y-110654482D01*
X128638072Y-110530000D01*
X128638072Y-109864999D01*
X131691928Y-109864999D01*
X131691928Y-111115001D01*
X131708992Y-111288255D01*
X131759528Y-111454851D01*
X131841595Y-111608387D01*
X131952038Y-111742962D01*
X132086613Y-111853405D01*
X132240149Y-111935472D01*
X132406745Y-111986008D01*
X132579999Y-112003072D01*
X133280001Y-112003072D01*
X133453255Y-111986008D01*
X133619851Y-111935472D01*
X133773387Y-111853405D01*
X133907962Y-111742962D01*
X134018405Y-111608387D01*
X134020967Y-111603594D01*
X134146526Y-111728078D01*
X134349467Y-111862421D01*
X134574718Y-111954591D01*
X134612391Y-111958462D01*
X134803000Y-111833731D01*
X134803000Y-110617000D01*
X135057000Y-110617000D01*
X135057000Y-111833731D01*
X135247609Y-111958462D01*
X135285282Y-111954591D01*
X135510533Y-111862421D01*
X135713474Y-111728078D01*
X135886307Y-111556725D01*
X136022390Y-111354946D01*
X136116493Y-111130496D01*
X136165000Y-110892000D01*
X136165000Y-110617000D01*
X135057000Y-110617000D01*
X134803000Y-110617000D01*
X134783000Y-110617000D01*
X134783000Y-110363000D01*
X134803000Y-110363000D01*
X134803000Y-109146269D01*
X135057000Y-109146269D01*
X135057000Y-110363000D01*
X136165000Y-110363000D01*
X136165000Y-110088000D01*
X136116493Y-109849504D01*
X136022390Y-109625054D01*
X135886307Y-109423275D01*
X135713474Y-109251922D01*
X135510533Y-109117579D01*
X135285282Y-109025409D01*
X135247609Y-109021538D01*
X135057000Y-109146269D01*
X134803000Y-109146269D01*
X134612391Y-109021538D01*
X134574718Y-109025409D01*
X134349467Y-109117579D01*
X134146526Y-109251922D01*
X134020967Y-109376406D01*
X134018405Y-109371613D01*
X133907962Y-109237038D01*
X133773387Y-109126595D01*
X133619851Y-109044528D01*
X133453255Y-108993992D01*
X133280001Y-108976928D01*
X132579999Y-108976928D01*
X132406745Y-108993992D01*
X132240149Y-109044528D01*
X132086613Y-109126595D01*
X131952038Y-109237038D01*
X131841595Y-109371613D01*
X131759528Y-109525149D01*
X131708992Y-109691745D01*
X131691928Y-109864999D01*
X128638072Y-109864999D01*
X128638072Y-108530000D01*
X128625812Y-108405518D01*
X128589502Y-108285820D01*
X128530537Y-108175506D01*
X128451185Y-108078815D01*
X128354494Y-107999463D01*
X128244180Y-107940498D01*
X128124482Y-107904188D01*
X128000000Y-107891928D01*
X126000000Y-107891928D01*
X125875518Y-107904188D01*
X125755820Y-107940498D01*
X125645506Y-107999463D01*
X125548815Y-108078815D01*
X125469463Y-108175506D01*
X125410498Y-108285820D01*
X125374188Y-108405518D01*
X125361928Y-108530000D01*
X117461641Y-108530000D01*
X117461541Y-106587449D01*
X131040000Y-106587449D01*
X131040000Y-106972551D01*
X131115130Y-107350252D01*
X131262502Y-107706040D01*
X131476453Y-108026240D01*
X131748760Y-108298547D01*
X132068960Y-108512498D01*
X132424748Y-108659870D01*
X132802449Y-108735000D01*
X133187551Y-108735000D01*
X133565252Y-108659870D01*
X133921040Y-108512498D01*
X134241240Y-108298547D01*
X134513547Y-108026240D01*
X134727498Y-107706040D01*
X134874870Y-107350252D01*
X134950000Y-106972551D01*
X134950000Y-106587449D01*
X134874870Y-106209748D01*
X134727498Y-105853960D01*
X134513547Y-105533760D01*
X134241240Y-105261453D01*
X133921040Y-105047502D01*
X133565252Y-104900130D01*
X133187551Y-104825000D01*
X132802449Y-104825000D01*
X132424748Y-104900130D01*
X132068960Y-105047502D01*
X131748760Y-105261453D01*
X131476453Y-105533760D01*
X131262502Y-105853960D01*
X131115130Y-106209748D01*
X131040000Y-106587449D01*
X117461541Y-106587449D01*
X117461378Y-103471485D01*
X117613368Y-103623475D01*
X117856589Y-103785990D01*
X118126842Y-103897932D01*
X118413740Y-103955000D01*
X118706260Y-103955000D01*
X118993158Y-103897932D01*
X119263411Y-103785990D01*
X119506632Y-103623475D01*
X119713475Y-103416632D01*
X119875990Y-103173411D01*
X119987932Y-102903158D01*
X120045000Y-102616260D01*
X120045000Y-102323740D01*
X119987932Y-102036842D01*
X119875990Y-101766589D01*
X119713475Y-101523368D01*
X119506632Y-101316525D01*
X119324466Y-101194805D01*
X119441355Y-101125178D01*
X119657588Y-100930269D01*
X119831641Y-100696920D01*
X119956825Y-100434099D01*
X120001476Y-100286890D01*
X119880155Y-100057000D01*
X118687000Y-100057000D01*
X118687000Y-100077000D01*
X118433000Y-100077000D01*
X118433000Y-100057000D01*
X118413000Y-100057000D01*
X118413000Y-99803000D01*
X118433000Y-99803000D01*
X118433000Y-99783000D01*
X118687000Y-99783000D01*
X118687000Y-99803000D01*
X119880155Y-99803000D01*
X120001476Y-99573110D01*
X119956825Y-99425901D01*
X119831641Y-99163080D01*
X119657588Y-98929731D01*
X119441355Y-98734822D01*
X119324466Y-98665195D01*
X119506632Y-98543475D01*
X119713475Y-98336632D01*
X119838178Y-98150000D01*
X123082678Y-98150000D01*
X123120000Y-98153676D01*
X123157322Y-98150000D01*
X123157333Y-98150000D01*
X123268986Y-98139003D01*
X123412247Y-98095546D01*
X123544276Y-98024974D01*
X123660001Y-97930001D01*
X123683804Y-97900997D01*
X134829802Y-86755000D01*
X134891939Y-86755000D01*
X135091898Y-86715226D01*
X135280256Y-86637205D01*
X135449774Y-86523937D01*
X135593937Y-86379774D01*
X135707205Y-86210256D01*
X135785226Y-86021898D01*
X135825000Y-85821939D01*
X135825000Y-85618061D01*
X135785226Y-85418102D01*
X135707205Y-85229744D01*
X135593937Y-85060226D01*
X135449774Y-84916063D01*
X135280256Y-84802795D01*
X135091898Y-84724774D01*
X135007760Y-84708038D01*
X135021898Y-84705226D01*
X135210256Y-84627205D01*
X135379774Y-84513937D01*
X135523937Y-84369774D01*
X135637205Y-84200256D01*
X135715226Y-84011898D01*
X135755000Y-83811939D01*
X135755000Y-83608061D01*
X135715226Y-83408102D01*
X135637205Y-83219744D01*
X135523937Y-83050226D01*
X135379774Y-82906063D01*
X135210256Y-82792795D01*
X135021898Y-82714774D01*
X134821939Y-82675000D01*
X134618061Y-82675000D01*
X134418102Y-82714774D01*
X134229744Y-82792795D01*
X134060226Y-82906063D01*
X134016289Y-82950000D01*
X133617323Y-82950000D01*
X133580000Y-82946324D01*
X133542677Y-82950000D01*
X133542667Y-82950000D01*
X133431014Y-82960997D01*
X133287753Y-83004454D01*
X133155723Y-83075026D01*
X133072083Y-83143668D01*
X133039999Y-83169999D01*
X133016201Y-83198997D01*
X122975198Y-93240001D01*
X119724587Y-93240001D01*
X119838178Y-93070000D01*
X122282678Y-93070000D01*
X122320000Y-93073676D01*
X122357322Y-93070000D01*
X122357333Y-93070000D01*
X122468986Y-93059003D01*
X122612247Y-93015546D01*
X122744276Y-92944974D01*
X122860001Y-92850001D01*
X122883804Y-92820997D01*
X124691004Y-91013798D01*
X124720001Y-90990001D01*
X124814974Y-90874276D01*
X124885546Y-90742247D01*
X124929003Y-90598986D01*
X124940000Y-90487333D01*
X124940000Y-90487324D01*
X124943676Y-90450001D01*
X124940000Y-90412678D01*
X124940000Y-90153711D01*
X124983937Y-90109774D01*
X125097205Y-89940256D01*
X125175226Y-89751898D01*
X125215000Y-89551939D01*
X125215000Y-89348061D01*
X125175226Y-89148102D01*
X125097205Y-88959744D01*
X124983937Y-88790226D01*
X124839774Y-88646063D01*
X124670256Y-88532795D01*
X124481898Y-88454774D01*
X124281939Y-88415000D01*
X124078061Y-88415000D01*
X123878102Y-88454774D01*
X123689744Y-88532795D01*
X123520226Y-88646063D01*
X123376063Y-88790226D01*
X123262795Y-88959744D01*
X123184774Y-89148102D01*
X123145000Y-89348061D01*
X123145000Y-89551939D01*
X123184774Y-89751898D01*
X123262795Y-89940256D01*
X123376063Y-90109774D01*
X123410744Y-90144455D01*
X122005199Y-91550000D01*
X119838178Y-91550000D01*
X119713475Y-91363368D01*
X119581620Y-91231513D01*
X119654180Y-91209502D01*
X119764494Y-91150537D01*
X119861185Y-91071185D01*
X119940537Y-90974494D01*
X119999502Y-90864180D01*
X120035812Y-90744482D01*
X120048072Y-90620000D01*
X120048072Y-88920000D01*
X120035812Y-88795518D01*
X119999502Y-88675820D01*
X119940537Y-88565506D01*
X119861185Y-88468815D01*
X119764494Y-88389463D01*
X119654180Y-88330498D01*
X119534482Y-88294188D01*
X119410000Y-88281928D01*
X117710000Y-88281928D01*
X117585518Y-88294188D01*
X117465820Y-88330498D01*
X117460591Y-88333293D01*
X117459298Y-63460000D01*
X117496324Y-63460000D01*
X117500001Y-63497333D01*
X117500000Y-83896993D01*
X117496324Y-83934315D01*
X117500000Y-83971637D01*
X117500000Y-83971647D01*
X117510997Y-84083300D01*
X117546475Y-84200256D01*
X117554454Y-84226561D01*
X117625026Y-84358591D01*
X117634204Y-84369774D01*
X117719999Y-84474316D01*
X117749003Y-84498119D01*
X118538729Y-85287845D01*
X118484774Y-85418102D01*
X118445000Y-85618061D01*
X118445000Y-85821939D01*
X118484774Y-86021898D01*
X118562795Y-86210256D01*
X118676063Y-86379774D01*
X118820226Y-86523937D01*
X118989744Y-86637205D01*
X119178102Y-86715226D01*
X119378061Y-86755000D01*
X119581939Y-86755000D01*
X119781898Y-86715226D01*
X119970256Y-86637205D01*
X120139774Y-86523937D01*
X120283937Y-86379774D01*
X120397205Y-86210256D01*
X120475226Y-86021898D01*
X120515000Y-85821939D01*
X120515000Y-85618061D01*
X120475226Y-85418102D01*
X120397205Y-85229744D01*
X120283937Y-85060226D01*
X120228987Y-85005276D01*
X120185546Y-84862068D01*
X120114974Y-84730039D01*
X120110653Y-84724774D01*
X120020001Y-84614314D01*
X119991003Y-84590516D01*
X119020000Y-83619514D01*
X119020000Y-63774801D01*
X119784803Y-63010000D01*
X124362678Y-63010000D01*
X124400000Y-63013676D01*
X124437322Y-63010000D01*
X124437333Y-63010000D01*
X124548986Y-62999003D01*
X124692247Y-62955546D01*
X124824276Y-62884974D01*
X124940001Y-62790001D01*
X124963804Y-62760997D01*
X125699802Y-62025000D01*
X125761939Y-62025000D01*
X125961898Y-61985226D01*
X126150256Y-61907205D01*
X126319774Y-61793937D01*
X126463937Y-61649774D01*
X126577205Y-61480256D01*
X126655226Y-61291898D01*
X126695000Y-61091939D01*
X126695000Y-60888061D01*
X126655226Y-60688102D01*
X126577205Y-60499744D01*
X126463937Y-60330226D01*
X126319774Y-60186063D01*
X126150256Y-60072795D01*
X125961898Y-59994774D01*
X125761939Y-59955000D01*
X125558061Y-59955000D01*
X125358102Y-59994774D01*
X125169744Y-60072795D01*
X125000226Y-60186063D01*
X124856063Y-60330226D01*
X124742795Y-60499744D01*
X124664774Y-60688102D01*
X124625000Y-60888061D01*
X124625000Y-60950198D01*
X124085199Y-61490000D01*
X122561125Y-61490000D01*
X122737498Y-61226040D01*
X122884870Y-60870252D01*
X122960000Y-60492551D01*
X122960000Y-60107449D01*
X122884870Y-59729748D01*
X122737498Y-59373960D01*
X122523547Y-59053760D01*
X122251240Y-58781453D01*
X122092541Y-58675413D01*
X126044192Y-58675413D01*
X126139956Y-58939814D01*
X126429571Y-59080704D01*
X126741108Y-59162384D01*
X127062595Y-59181718D01*
X127381675Y-59137961D01*
X127686088Y-59032795D01*
X127860044Y-58939814D01*
X127955808Y-58675413D01*
X127000000Y-57719605D01*
X126044192Y-58675413D01*
X122092541Y-58675413D01*
X121931040Y-58567502D01*
X121575252Y-58420130D01*
X121197551Y-58345000D01*
X120812449Y-58345000D01*
X120434748Y-58420130D01*
X120078960Y-58567502D01*
X119758760Y-58781453D01*
X119486453Y-59053760D01*
X119272502Y-59373960D01*
X119125130Y-59729748D01*
X119050000Y-60107449D01*
X119050000Y-60492551D01*
X119125130Y-60870252D01*
X119272502Y-61226040D01*
X119447874Y-61488503D01*
X119432676Y-61490000D01*
X119432667Y-61490000D01*
X119321014Y-61500997D01*
X119177753Y-61544454D01*
X119045724Y-61615026D01*
X119045722Y-61615027D01*
X119045723Y-61615027D01*
X118958996Y-61686201D01*
X118958992Y-61686205D01*
X118929999Y-61709999D01*
X118906205Y-61738992D01*
X117748998Y-62896201D01*
X117720000Y-62919999D01*
X117696202Y-62948997D01*
X117696201Y-62948998D01*
X117625026Y-63035724D01*
X117554454Y-63167754D01*
X117510998Y-63311015D01*
X117496324Y-63460000D01*
X117459298Y-63460000D01*
X117458994Y-57602595D01*
X125358282Y-57602595D01*
X125402039Y-57921675D01*
X125507205Y-58226088D01*
X125600186Y-58400044D01*
X125864587Y-58495808D01*
X126820395Y-57540000D01*
X127179605Y-57540000D01*
X128135413Y-58495808D01*
X128399814Y-58400044D01*
X128540704Y-58110429D01*
X128622384Y-57798892D01*
X128641718Y-57477405D01*
X128597961Y-57158325D01*
X128492795Y-56853912D01*
X128399814Y-56679956D01*
X128135413Y-56584192D01*
X127179605Y-57540000D01*
X126820395Y-57540000D01*
X125864587Y-56584192D01*
X125600186Y-56679956D01*
X125459296Y-56969571D01*
X125377616Y-57281108D01*
X125358282Y-57602595D01*
X117458994Y-57602595D01*
X117458932Y-56404587D01*
X126044192Y-56404587D01*
X127000000Y-57360395D01*
X127955808Y-56404587D01*
X127860044Y-56140186D01*
X127570429Y-55999296D01*
X127258892Y-55917616D01*
X126937405Y-55898282D01*
X126618325Y-55942039D01*
X126313912Y-56047205D01*
X126139956Y-56140186D01*
X126044192Y-56404587D01*
X117458932Y-56404587D01*
X117458824Y-54344370D01*
X117514269Y-53125589D01*
X117717517Y-51949482D01*
X117788013Y-51718967D01*
X122215000Y-51718967D01*
X122215000Y-52041033D01*
X122277832Y-52356912D01*
X122401082Y-52654463D01*
X122580013Y-52922252D01*
X122807748Y-53149987D01*
X123075537Y-53328918D01*
X123373088Y-53452168D01*
X123688967Y-53515000D01*
X124011033Y-53515000D01*
X124326912Y-53452168D01*
X124624463Y-53328918D01*
X124892252Y-53149987D01*
X125119987Y-52922252D01*
X125298918Y-52654463D01*
X125422168Y-52356912D01*
X125485000Y-52041033D01*
X125485000Y-51718967D01*
X128715000Y-51718967D01*
X128715000Y-52041033D01*
X128777832Y-52356912D01*
X128901082Y-52654463D01*
X129080013Y-52922252D01*
X129307748Y-53149987D01*
X129575537Y-53328918D01*
X129873088Y-53452168D01*
X130188967Y-53515000D01*
X130511033Y-53515000D01*
X130826912Y-53452168D01*
X131124463Y-53328918D01*
X131392252Y-53149987D01*
X131619987Y-52922252D01*
X131798918Y-52654463D01*
X131922168Y-52356912D01*
X131985000Y-52041033D01*
X131985000Y-51718967D01*
X131922168Y-51403088D01*
X131798918Y-51105537D01*
X131619987Y-50837748D01*
X131392252Y-50610013D01*
X131124463Y-50431082D01*
X130826912Y-50307832D01*
X130511033Y-50245000D01*
X130188967Y-50245000D01*
X129873088Y-50307832D01*
X129575537Y-50431082D01*
X129307748Y-50610013D01*
X129080013Y-50837748D01*
X128901082Y-51105537D01*
X128777832Y-51403088D01*
X128715000Y-51718967D01*
X125485000Y-51718967D01*
X125422168Y-51403088D01*
X125298918Y-51105537D01*
X125119987Y-50837748D01*
X124892252Y-50610013D01*
X124624463Y-50431082D01*
X124326912Y-50307832D01*
X124011033Y-50245000D01*
X123688967Y-50245000D01*
X123373088Y-50307832D01*
X123075537Y-50431082D01*
X122807748Y-50610013D01*
X122580013Y-50837748D01*
X122401082Y-51105537D01*
X122277832Y-51403088D01*
X122215000Y-51718967D01*
X117788013Y-51718967D01*
X118066566Y-50808129D01*
X118555912Y-49719523D01*
X119177840Y-48700831D01*
X119325881Y-48515413D01*
X122894192Y-48515413D01*
X122989956Y-48779814D01*
X123279571Y-48920704D01*
X123591108Y-49002384D01*
X123912595Y-49021718D01*
X124231675Y-48977961D01*
X124536088Y-48872795D01*
X124710044Y-48779814D01*
X124805808Y-48515413D01*
X129394192Y-48515413D01*
X129489956Y-48779814D01*
X129779571Y-48920704D01*
X130091108Y-49002384D01*
X130412595Y-49021718D01*
X130731675Y-48977961D01*
X131036088Y-48872795D01*
X131210044Y-48779814D01*
X131305808Y-48515413D01*
X130350000Y-47559605D01*
X129394192Y-48515413D01*
X124805808Y-48515413D01*
X123850000Y-47559605D01*
X122894192Y-48515413D01*
X119325881Y-48515413D01*
X119922538Y-47768118D01*
X120257335Y-47442595D01*
X122208282Y-47442595D01*
X122252039Y-47761675D01*
X122357205Y-48066088D01*
X122450186Y-48240044D01*
X122714587Y-48335808D01*
X123670395Y-47380000D01*
X124029605Y-47380000D01*
X124985413Y-48335808D01*
X125249814Y-48240044D01*
X125390704Y-47950429D01*
X125472384Y-47638892D01*
X125484189Y-47442595D01*
X128708282Y-47442595D01*
X128752039Y-47761675D01*
X128857205Y-48066088D01*
X128950186Y-48240044D01*
X129214587Y-48335808D01*
X130170395Y-47380000D01*
X130529605Y-47380000D01*
X131485413Y-48335808D01*
X131749814Y-48240044D01*
X131890704Y-47950429D01*
X131972384Y-47638892D01*
X131991718Y-47317405D01*
X131947961Y-46998325D01*
X131842795Y-46693912D01*
X131749814Y-46519956D01*
X131485413Y-46424192D01*
X130529605Y-47380000D01*
X130170395Y-47380000D01*
X129214587Y-46424192D01*
X128950186Y-46519956D01*
X128809296Y-46809571D01*
X128727616Y-47121108D01*
X128708282Y-47442595D01*
X125484189Y-47442595D01*
X125491718Y-47317405D01*
X125447961Y-46998325D01*
X125342795Y-46693912D01*
X125249814Y-46519956D01*
X124985413Y-46424192D01*
X124029605Y-47380000D01*
X123670395Y-47380000D01*
X122714587Y-46424192D01*
X122450186Y-46519956D01*
X122309296Y-46809571D01*
X122227616Y-47121108D01*
X122208282Y-47442595D01*
X120257335Y-47442595D01*
X120778270Y-46936092D01*
X121696084Y-46244587D01*
X122894192Y-46244587D01*
X123850000Y-47200395D01*
X124805808Y-46244587D01*
X129394192Y-46244587D01*
X130350000Y-47200395D01*
X131305808Y-46244587D01*
X131210044Y-45980186D01*
X130920429Y-45839296D01*
X130608892Y-45757616D01*
X130287405Y-45738282D01*
X129968325Y-45782039D01*
X129663912Y-45887205D01*
X129489956Y-45980186D01*
X129394192Y-46244587D01*
X124805808Y-46244587D01*
X124710044Y-45980186D01*
X124420429Y-45839296D01*
X124108892Y-45757616D01*
X123787405Y-45738282D01*
X123468325Y-45782039D01*
X123163912Y-45887205D01*
X122989956Y-45980186D01*
X122894192Y-46244587D01*
X121696084Y-46244587D01*
X121731524Y-46217886D01*
X122767284Y-45624813D01*
X123869208Y-45166232D01*
X125019911Y-44849377D01*
X126201266Y-44679241D01*
X127394615Y-44658508D01*
X128581162Y-44787507D01*
G37*
X128581162Y-44787507D02*
X129742190Y-45064203D01*
X130859370Y-45484228D01*
X131915104Y-46040964D01*
X132892734Y-46725627D01*
X133776846Y-47527423D01*
X134553496Y-48433706D01*
X135210433Y-49430181D01*
X135737296Y-50501128D01*
X136125781Y-51629673D01*
X136369761Y-52798016D01*
X136466355Y-53999801D01*
X136462186Y-54473079D01*
X136461900Y-54475982D01*
X136461901Y-112852600D01*
X120235000Y-112852600D01*
X120235000Y-110630000D01*
X117461750Y-110630000D01*
X117461641Y-108530000D01*
X125361928Y-108530000D01*
X125361928Y-110530000D01*
X125374188Y-110654482D01*
X125410498Y-110774180D01*
X125469463Y-110884494D01*
X125548815Y-110981185D01*
X125645506Y-111060537D01*
X125755820Y-111119502D01*
X125875518Y-111155812D01*
X126000000Y-111168072D01*
X128000000Y-111168072D01*
X128124482Y-111155812D01*
X128244180Y-111119502D01*
X128354494Y-111060537D01*
X128451185Y-110981185D01*
X128530537Y-110884494D01*
X128589502Y-110774180D01*
X128625812Y-110654482D01*
X128638072Y-110530000D01*
X128638072Y-109864999D01*
X131691928Y-109864999D01*
X131691928Y-111115001D01*
X131708992Y-111288255D01*
X131759528Y-111454851D01*
X131841595Y-111608387D01*
X131952038Y-111742962D01*
X132086613Y-111853405D01*
X132240149Y-111935472D01*
X132406745Y-111986008D01*
X132579999Y-112003072D01*
X133280001Y-112003072D01*
X133453255Y-111986008D01*
X133619851Y-111935472D01*
X133773387Y-111853405D01*
X133907962Y-111742962D01*
X134018405Y-111608387D01*
X134020967Y-111603594D01*
X134146526Y-111728078D01*
X134349467Y-111862421D01*
X134574718Y-111954591D01*
X134612391Y-111958462D01*
X134803000Y-111833731D01*
X134803000Y-110617000D01*
X135057000Y-110617000D01*
X135057000Y-111833731D01*
X135247609Y-111958462D01*
X135285282Y-111954591D01*
X135510533Y-111862421D01*
X135713474Y-111728078D01*
X135886307Y-111556725D01*
X136022390Y-111354946D01*
X136116493Y-111130496D01*
X136165000Y-110892000D01*
X136165000Y-110617000D01*
X135057000Y-110617000D01*
X134803000Y-110617000D01*
X134783000Y-110617000D01*
X134783000Y-110363000D01*
X134803000Y-110363000D01*
X134803000Y-109146269D01*
X135057000Y-109146269D01*
X135057000Y-110363000D01*
X136165000Y-110363000D01*
X136165000Y-110088000D01*
X136116493Y-109849504D01*
X136022390Y-109625054D01*
X135886307Y-109423275D01*
X135713474Y-109251922D01*
X135510533Y-109117579D01*
X135285282Y-109025409D01*
X135247609Y-109021538D01*
X135057000Y-109146269D01*
X134803000Y-109146269D01*
X134612391Y-109021538D01*
X134574718Y-109025409D01*
X134349467Y-109117579D01*
X134146526Y-109251922D01*
X134020967Y-109376406D01*
X134018405Y-109371613D01*
X133907962Y-109237038D01*
X133773387Y-109126595D01*
X133619851Y-109044528D01*
X133453255Y-108993992D01*
X133280001Y-108976928D01*
X132579999Y-108976928D01*
X132406745Y-108993992D01*
X132240149Y-109044528D01*
X132086613Y-109126595D01*
X131952038Y-109237038D01*
X131841595Y-109371613D01*
X131759528Y-109525149D01*
X131708992Y-109691745D01*
X131691928Y-109864999D01*
X128638072Y-109864999D01*
X128638072Y-108530000D01*
X128625812Y-108405518D01*
X128589502Y-108285820D01*
X128530537Y-108175506D01*
X128451185Y-108078815D01*
X128354494Y-107999463D01*
X128244180Y-107940498D01*
X128124482Y-107904188D01*
X128000000Y-107891928D01*
X126000000Y-107891928D01*
X125875518Y-107904188D01*
X125755820Y-107940498D01*
X125645506Y-107999463D01*
X125548815Y-108078815D01*
X125469463Y-108175506D01*
X125410498Y-108285820D01*
X125374188Y-108405518D01*
X125361928Y-108530000D01*
X117461641Y-108530000D01*
X117461541Y-106587449D01*
X131040000Y-106587449D01*
X131040000Y-106972551D01*
X131115130Y-107350252D01*
X131262502Y-107706040D01*
X131476453Y-108026240D01*
X131748760Y-108298547D01*
X132068960Y-108512498D01*
X132424748Y-108659870D01*
X132802449Y-108735000D01*
X133187551Y-108735000D01*
X133565252Y-108659870D01*
X133921040Y-108512498D01*
X134241240Y-108298547D01*
X134513547Y-108026240D01*
X134727498Y-107706040D01*
X134874870Y-107350252D01*
X134950000Y-106972551D01*
X134950000Y-106587449D01*
X134874870Y-106209748D01*
X134727498Y-105853960D01*
X134513547Y-105533760D01*
X134241240Y-105261453D01*
X133921040Y-105047502D01*
X133565252Y-104900130D01*
X133187551Y-104825000D01*
X132802449Y-104825000D01*
X132424748Y-104900130D01*
X132068960Y-105047502D01*
X131748760Y-105261453D01*
X131476453Y-105533760D01*
X131262502Y-105853960D01*
X131115130Y-106209748D01*
X131040000Y-106587449D01*
X117461541Y-106587449D01*
X117461378Y-103471485D01*
X117613368Y-103623475D01*
X117856589Y-103785990D01*
X118126842Y-103897932D01*
X118413740Y-103955000D01*
X118706260Y-103955000D01*
X118993158Y-103897932D01*
X119263411Y-103785990D01*
X119506632Y-103623475D01*
X119713475Y-103416632D01*
X119875990Y-103173411D01*
X119987932Y-102903158D01*
X120045000Y-102616260D01*
X120045000Y-102323740D01*
X119987932Y-102036842D01*
X119875990Y-101766589D01*
X119713475Y-101523368D01*
X119506632Y-101316525D01*
X119324466Y-101194805D01*
X119441355Y-101125178D01*
X119657588Y-100930269D01*
X119831641Y-100696920D01*
X119956825Y-100434099D01*
X120001476Y-100286890D01*
X119880155Y-100057000D01*
X118687000Y-100057000D01*
X118687000Y-100077000D01*
X118433000Y-100077000D01*
X118433000Y-100057000D01*
X118413000Y-100057000D01*
X118413000Y-99803000D01*
X118433000Y-99803000D01*
X118433000Y-99783000D01*
X118687000Y-99783000D01*
X118687000Y-99803000D01*
X119880155Y-99803000D01*
X120001476Y-99573110D01*
X119956825Y-99425901D01*
X119831641Y-99163080D01*
X119657588Y-98929731D01*
X119441355Y-98734822D01*
X119324466Y-98665195D01*
X119506632Y-98543475D01*
X119713475Y-98336632D01*
X119838178Y-98150000D01*
X123082678Y-98150000D01*
X123120000Y-98153676D01*
X123157322Y-98150000D01*
X123157333Y-98150000D01*
X123268986Y-98139003D01*
X123412247Y-98095546D01*
X123544276Y-98024974D01*
X123660001Y-97930001D01*
X123683804Y-97900997D01*
X134829802Y-86755000D01*
X134891939Y-86755000D01*
X135091898Y-86715226D01*
X135280256Y-86637205D01*
X135449774Y-86523937D01*
X135593937Y-86379774D01*
X135707205Y-86210256D01*
X135785226Y-86021898D01*
X135825000Y-85821939D01*
X135825000Y-85618061D01*
X135785226Y-85418102D01*
X135707205Y-85229744D01*
X135593937Y-85060226D01*
X135449774Y-84916063D01*
X135280256Y-84802795D01*
X135091898Y-84724774D01*
X135007760Y-84708038D01*
X135021898Y-84705226D01*
X135210256Y-84627205D01*
X135379774Y-84513937D01*
X135523937Y-84369774D01*
X135637205Y-84200256D01*
X135715226Y-84011898D01*
X135755000Y-83811939D01*
X135755000Y-83608061D01*
X135715226Y-83408102D01*
X135637205Y-83219744D01*
X135523937Y-83050226D01*
X135379774Y-82906063D01*
X135210256Y-82792795D01*
X135021898Y-82714774D01*
X134821939Y-82675000D01*
X134618061Y-82675000D01*
X134418102Y-82714774D01*
X134229744Y-82792795D01*
X134060226Y-82906063D01*
X134016289Y-82950000D01*
X133617323Y-82950000D01*
X133580000Y-82946324D01*
X133542677Y-82950000D01*
X133542667Y-82950000D01*
X133431014Y-82960997D01*
X133287753Y-83004454D01*
X133155723Y-83075026D01*
X133072083Y-83143668D01*
X133039999Y-83169999D01*
X133016201Y-83198997D01*
X122975198Y-93240001D01*
X119724587Y-93240001D01*
X119838178Y-93070000D01*
X122282678Y-93070000D01*
X122320000Y-93073676D01*
X122357322Y-93070000D01*
X122357333Y-93070000D01*
X122468986Y-93059003D01*
X122612247Y-93015546D01*
X122744276Y-92944974D01*
X122860001Y-92850001D01*
X122883804Y-92820997D01*
X124691004Y-91013798D01*
X124720001Y-90990001D01*
X124814974Y-90874276D01*
X124885546Y-90742247D01*
X124929003Y-90598986D01*
X124940000Y-90487333D01*
X124940000Y-90487324D01*
X124943676Y-90450001D01*
X124940000Y-90412678D01*
X124940000Y-90153711D01*
X124983937Y-90109774D01*
X125097205Y-89940256D01*
X125175226Y-89751898D01*
X125215000Y-89551939D01*
X125215000Y-89348061D01*
X125175226Y-89148102D01*
X125097205Y-88959744D01*
X124983937Y-88790226D01*
X124839774Y-88646063D01*
X124670256Y-88532795D01*
X124481898Y-88454774D01*
X124281939Y-88415000D01*
X124078061Y-88415000D01*
X123878102Y-88454774D01*
X123689744Y-88532795D01*
X123520226Y-88646063D01*
X123376063Y-88790226D01*
X123262795Y-88959744D01*
X123184774Y-89148102D01*
X123145000Y-89348061D01*
X123145000Y-89551939D01*
X123184774Y-89751898D01*
X123262795Y-89940256D01*
X123376063Y-90109774D01*
X123410744Y-90144455D01*
X122005199Y-91550000D01*
X119838178Y-91550000D01*
X119713475Y-91363368D01*
X119581620Y-91231513D01*
X119654180Y-91209502D01*
X119764494Y-91150537D01*
X119861185Y-91071185D01*
X119940537Y-90974494D01*
X119999502Y-90864180D01*
X120035812Y-90744482D01*
X120048072Y-90620000D01*
X120048072Y-88920000D01*
X120035812Y-88795518D01*
X119999502Y-88675820D01*
X119940537Y-88565506D01*
X119861185Y-88468815D01*
X119764494Y-88389463D01*
X119654180Y-88330498D01*
X119534482Y-88294188D01*
X119410000Y-88281928D01*
X117710000Y-88281928D01*
X117585518Y-88294188D01*
X117465820Y-88330498D01*
X117460591Y-88333293D01*
X117459298Y-63460000D01*
X117496324Y-63460000D01*
X117500001Y-63497333D01*
X117500000Y-83896993D01*
X117496324Y-83934315D01*
X117500000Y-83971637D01*
X117500000Y-83971647D01*
X117510997Y-84083300D01*
X117546475Y-84200256D01*
X117554454Y-84226561D01*
X117625026Y-84358591D01*
X117634204Y-84369774D01*
X117719999Y-84474316D01*
X117749003Y-84498119D01*
X118538729Y-85287845D01*
X118484774Y-85418102D01*
X118445000Y-85618061D01*
X118445000Y-85821939D01*
X118484774Y-86021898D01*
X118562795Y-86210256D01*
X118676063Y-86379774D01*
X118820226Y-86523937D01*
X118989744Y-86637205D01*
X119178102Y-86715226D01*
X119378061Y-86755000D01*
X119581939Y-86755000D01*
X119781898Y-86715226D01*
X119970256Y-86637205D01*
X120139774Y-86523937D01*
X120283937Y-86379774D01*
X120397205Y-86210256D01*
X120475226Y-86021898D01*
X120515000Y-85821939D01*
X120515000Y-85618061D01*
X120475226Y-85418102D01*
X120397205Y-85229744D01*
X120283937Y-85060226D01*
X120228987Y-85005276D01*
X120185546Y-84862068D01*
X120114974Y-84730039D01*
X120110653Y-84724774D01*
X120020001Y-84614314D01*
X119991003Y-84590516D01*
X119020000Y-83619514D01*
X119020000Y-63774801D01*
X119784803Y-63010000D01*
X124362678Y-63010000D01*
X124400000Y-63013676D01*
X124437322Y-63010000D01*
X124437333Y-63010000D01*
X124548986Y-62999003D01*
X124692247Y-62955546D01*
X124824276Y-62884974D01*
X124940001Y-62790001D01*
X124963804Y-62760997D01*
X125699802Y-62025000D01*
X125761939Y-62025000D01*
X125961898Y-61985226D01*
X126150256Y-61907205D01*
X126319774Y-61793937D01*
X126463937Y-61649774D01*
X126577205Y-61480256D01*
X126655226Y-61291898D01*
X126695000Y-61091939D01*
X126695000Y-60888061D01*
X126655226Y-60688102D01*
X126577205Y-60499744D01*
X126463937Y-60330226D01*
X126319774Y-60186063D01*
X126150256Y-60072795D01*
X125961898Y-59994774D01*
X125761939Y-59955000D01*
X125558061Y-59955000D01*
X125358102Y-59994774D01*
X125169744Y-60072795D01*
X125000226Y-60186063D01*
X124856063Y-60330226D01*
X124742795Y-60499744D01*
X124664774Y-60688102D01*
X124625000Y-60888061D01*
X124625000Y-60950198D01*
X124085199Y-61490000D01*
X122561125Y-61490000D01*
X122737498Y-61226040D01*
X122884870Y-60870252D01*
X122960000Y-60492551D01*
X122960000Y-60107449D01*
X122884870Y-59729748D01*
X122737498Y-59373960D01*
X122523547Y-59053760D01*
X122251240Y-58781453D01*
X122092541Y-58675413D01*
X126044192Y-58675413D01*
X126139956Y-58939814D01*
X126429571Y-59080704D01*
X126741108Y-59162384D01*
X127062595Y-59181718D01*
X127381675Y-59137961D01*
X127686088Y-59032795D01*
X127860044Y-58939814D01*
X127955808Y-58675413D01*
X127000000Y-57719605D01*
X126044192Y-58675413D01*
X122092541Y-58675413D01*
X121931040Y-58567502D01*
X121575252Y-58420130D01*
X121197551Y-58345000D01*
X120812449Y-58345000D01*
X120434748Y-58420130D01*
X120078960Y-58567502D01*
X119758760Y-58781453D01*
X119486453Y-59053760D01*
X119272502Y-59373960D01*
X119125130Y-59729748D01*
X119050000Y-60107449D01*
X119050000Y-60492551D01*
X119125130Y-60870252D01*
X119272502Y-61226040D01*
X119447874Y-61488503D01*
X119432676Y-61490000D01*
X119432667Y-61490000D01*
X119321014Y-61500997D01*
X119177753Y-61544454D01*
X119045724Y-61615026D01*
X119045722Y-61615027D01*
X119045723Y-61615027D01*
X118958996Y-61686201D01*
X118958992Y-61686205D01*
X118929999Y-61709999D01*
X118906205Y-61738992D01*
X117748998Y-62896201D01*
X117720000Y-62919999D01*
X117696202Y-62948997D01*
X117696201Y-62948998D01*
X117625026Y-63035724D01*
X117554454Y-63167754D01*
X117510998Y-63311015D01*
X117496324Y-63460000D01*
X117459298Y-63460000D01*
X117458994Y-57602595D01*
X125358282Y-57602595D01*
X125402039Y-57921675D01*
X125507205Y-58226088D01*
X125600186Y-58400044D01*
X125864587Y-58495808D01*
X126820395Y-57540000D01*
X127179605Y-57540000D01*
X128135413Y-58495808D01*
X128399814Y-58400044D01*
X128540704Y-58110429D01*
X128622384Y-57798892D01*
X128641718Y-57477405D01*
X128597961Y-57158325D01*
X128492795Y-56853912D01*
X128399814Y-56679956D01*
X128135413Y-56584192D01*
X127179605Y-57540000D01*
X126820395Y-57540000D01*
X125864587Y-56584192D01*
X125600186Y-56679956D01*
X125459296Y-56969571D01*
X125377616Y-57281108D01*
X125358282Y-57602595D01*
X117458994Y-57602595D01*
X117458932Y-56404587D01*
X126044192Y-56404587D01*
X127000000Y-57360395D01*
X127955808Y-56404587D01*
X127860044Y-56140186D01*
X127570429Y-55999296D01*
X127258892Y-55917616D01*
X126937405Y-55898282D01*
X126618325Y-55942039D01*
X126313912Y-56047205D01*
X126139956Y-56140186D01*
X126044192Y-56404587D01*
X117458932Y-56404587D01*
X117458824Y-54344370D01*
X117514269Y-53125589D01*
X117717517Y-51949482D01*
X117788013Y-51718967D01*
X122215000Y-51718967D01*
X122215000Y-52041033D01*
X122277832Y-52356912D01*
X122401082Y-52654463D01*
X122580013Y-52922252D01*
X122807748Y-53149987D01*
X123075537Y-53328918D01*
X123373088Y-53452168D01*
X123688967Y-53515000D01*
X124011033Y-53515000D01*
X124326912Y-53452168D01*
X124624463Y-53328918D01*
X124892252Y-53149987D01*
X125119987Y-52922252D01*
X125298918Y-52654463D01*
X125422168Y-52356912D01*
X125485000Y-52041033D01*
X125485000Y-51718967D01*
X128715000Y-51718967D01*
X128715000Y-52041033D01*
X128777832Y-52356912D01*
X128901082Y-52654463D01*
X129080013Y-52922252D01*
X129307748Y-53149987D01*
X129575537Y-53328918D01*
X129873088Y-53452168D01*
X130188967Y-53515000D01*
X130511033Y-53515000D01*
X130826912Y-53452168D01*
X131124463Y-53328918D01*
X131392252Y-53149987D01*
X131619987Y-52922252D01*
X131798918Y-52654463D01*
X131922168Y-52356912D01*
X131985000Y-52041033D01*
X131985000Y-51718967D01*
X131922168Y-51403088D01*
X131798918Y-51105537D01*
X131619987Y-50837748D01*
X131392252Y-50610013D01*
X131124463Y-50431082D01*
X130826912Y-50307832D01*
X130511033Y-50245000D01*
X130188967Y-50245000D01*
X129873088Y-50307832D01*
X129575537Y-50431082D01*
X129307748Y-50610013D01*
X129080013Y-50837748D01*
X128901082Y-51105537D01*
X128777832Y-51403088D01*
X128715000Y-51718967D01*
X125485000Y-51718967D01*
X125422168Y-51403088D01*
X125298918Y-51105537D01*
X125119987Y-50837748D01*
X124892252Y-50610013D01*
X124624463Y-50431082D01*
X124326912Y-50307832D01*
X124011033Y-50245000D01*
X123688967Y-50245000D01*
X123373088Y-50307832D01*
X123075537Y-50431082D01*
X122807748Y-50610013D01*
X122580013Y-50837748D01*
X122401082Y-51105537D01*
X122277832Y-51403088D01*
X122215000Y-51718967D01*
X117788013Y-51718967D01*
X118066566Y-50808129D01*
X118555912Y-49719523D01*
X119177840Y-48700831D01*
X119325881Y-48515413D01*
X122894192Y-48515413D01*
X122989956Y-48779814D01*
X123279571Y-48920704D01*
X123591108Y-49002384D01*
X123912595Y-49021718D01*
X124231675Y-48977961D01*
X124536088Y-48872795D01*
X124710044Y-48779814D01*
X124805808Y-48515413D01*
X129394192Y-48515413D01*
X129489956Y-48779814D01*
X129779571Y-48920704D01*
X130091108Y-49002384D01*
X130412595Y-49021718D01*
X130731675Y-48977961D01*
X131036088Y-48872795D01*
X131210044Y-48779814D01*
X131305808Y-48515413D01*
X130350000Y-47559605D01*
X129394192Y-48515413D01*
X124805808Y-48515413D01*
X123850000Y-47559605D01*
X122894192Y-48515413D01*
X119325881Y-48515413D01*
X119922538Y-47768118D01*
X120257335Y-47442595D01*
X122208282Y-47442595D01*
X122252039Y-47761675D01*
X122357205Y-48066088D01*
X122450186Y-48240044D01*
X122714587Y-48335808D01*
X123670395Y-47380000D01*
X124029605Y-47380000D01*
X124985413Y-48335808D01*
X125249814Y-48240044D01*
X125390704Y-47950429D01*
X125472384Y-47638892D01*
X125484189Y-47442595D01*
X128708282Y-47442595D01*
X128752039Y-47761675D01*
X128857205Y-48066088D01*
X128950186Y-48240044D01*
X129214587Y-48335808D01*
X130170395Y-47380000D01*
X130529605Y-47380000D01*
X131485413Y-48335808D01*
X131749814Y-48240044D01*
X131890704Y-47950429D01*
X131972384Y-47638892D01*
X131991718Y-47317405D01*
X131947961Y-46998325D01*
X131842795Y-46693912D01*
X131749814Y-46519956D01*
X131485413Y-46424192D01*
X130529605Y-47380000D01*
X130170395Y-47380000D01*
X129214587Y-46424192D01*
X128950186Y-46519956D01*
X128809296Y-46809571D01*
X128727616Y-47121108D01*
X128708282Y-47442595D01*
X125484189Y-47442595D01*
X125491718Y-47317405D01*
X125447961Y-46998325D01*
X125342795Y-46693912D01*
X125249814Y-46519956D01*
X124985413Y-46424192D01*
X124029605Y-47380000D01*
X123670395Y-47380000D01*
X122714587Y-46424192D01*
X122450186Y-46519956D01*
X122309296Y-46809571D01*
X122227616Y-47121108D01*
X122208282Y-47442595D01*
X120257335Y-47442595D01*
X120778270Y-46936092D01*
X121696084Y-46244587D01*
X122894192Y-46244587D01*
X123850000Y-47200395D01*
X124805808Y-46244587D01*
X129394192Y-46244587D01*
X130350000Y-47200395D01*
X131305808Y-46244587D01*
X131210044Y-45980186D01*
X130920429Y-45839296D01*
X130608892Y-45757616D01*
X130287405Y-45738282D01*
X129968325Y-45782039D01*
X129663912Y-45887205D01*
X129489956Y-45980186D01*
X129394192Y-46244587D01*
X124805808Y-46244587D01*
X124710044Y-45980186D01*
X124420429Y-45839296D01*
X124108892Y-45757616D01*
X123787405Y-45738282D01*
X123468325Y-45782039D01*
X123163912Y-45887205D01*
X122989956Y-45980186D01*
X122894192Y-46244587D01*
X121696084Y-46244587D01*
X121731524Y-46217886D01*
X122767284Y-45624813D01*
X123869208Y-45166232D01*
X125019911Y-44849377D01*
X126201266Y-44679241D01*
X127394615Y-44658508D01*
X128581162Y-44787507D01*
G36*
X117613368Y-98543475D02*
G01*
X117795534Y-98665195D01*
X117678645Y-98734822D01*
X117462412Y-98929731D01*
X117461142Y-98931434D01*
X117461113Y-98391220D01*
X117613368Y-98543475D01*
G37*
X117613368Y-98543475D02*
X117795534Y-98665195D01*
X117678645Y-98734822D01*
X117462412Y-98929731D01*
X117461142Y-98931434D01*
X117461113Y-98391220D01*
X117613368Y-98543475D01*
G36*
X134060226Y-84513937D02*
G01*
X134229744Y-84627205D01*
X134418102Y-84705226D01*
X134502240Y-84721962D01*
X134488102Y-84724774D01*
X134299744Y-84802795D01*
X134130226Y-84916063D01*
X133986063Y-85060226D01*
X133872795Y-85229744D01*
X133794774Y-85418102D01*
X133755000Y-85618061D01*
X133755000Y-85680198D01*
X122805199Y-96630000D01*
X119838178Y-96630000D01*
X119713475Y-96443368D01*
X119506632Y-96236525D01*
X119332240Y-96120000D01*
X119506632Y-96003475D01*
X119713475Y-95796632D01*
X119875990Y-95553411D01*
X119987932Y-95283158D01*
X120045000Y-94996260D01*
X120045000Y-94760001D01*
X123252677Y-94760001D01*
X123289999Y-94763677D01*
X123327321Y-94760001D01*
X123327332Y-94760001D01*
X123438985Y-94749004D01*
X123582246Y-94705547D01*
X123714275Y-94634975D01*
X123830000Y-94540002D01*
X123853803Y-94510998D01*
X133894802Y-84470000D01*
X134016289Y-84470000D01*
X134060226Y-84513937D01*
G37*
X134060226Y-84513937D02*
X134229744Y-84627205D01*
X134418102Y-84705226D01*
X134502240Y-84721962D01*
X134488102Y-84724774D01*
X134299744Y-84802795D01*
X134130226Y-84916063D01*
X133986063Y-85060226D01*
X133872795Y-85229744D01*
X133794774Y-85418102D01*
X133755000Y-85618061D01*
X133755000Y-85680198D01*
X122805199Y-96630000D01*
X119838178Y-96630000D01*
X119713475Y-96443368D01*
X119506632Y-96236525D01*
X119332240Y-96120000D01*
X119506632Y-96003475D01*
X119713475Y-95796632D01*
X119875990Y-95553411D01*
X119987932Y-95283158D01*
X120045000Y-94996260D01*
X120045000Y-94760001D01*
X123252677Y-94760001D01*
X123289999Y-94763677D01*
X123327321Y-94760001D01*
X123327332Y-94760001D01*
X123438985Y-94749004D01*
X123582246Y-94705547D01*
X123714275Y-94634975D01*
X123830000Y-94540002D01*
X123853803Y-94510998D01*
X133894802Y-84470000D01*
X134016289Y-84470000D01*
X134060226Y-84513937D01*
G36*
X117613368Y-96003475D02*
G01*
X117787760Y-96120000D01*
X117613368Y-96236525D01*
X117461009Y-96388884D01*
X117460981Y-95851088D01*
X117613368Y-96003475D01*
G37*
X117613368Y-96003475D02*
X117787760Y-96120000D01*
X117613368Y-96236525D01*
X117461009Y-96388884D01*
X117460981Y-95851088D01*
X117613368Y-96003475D01*
M02*
