M48
; DRILL file {KiCad (5.1.9)-1} date 03/01/21 14:20:40
; FORMAT={-:-/ absolute / inch / decimal}
; #@! TF.CreationDate,2021-03-01T14:20:40+01:00
; #@! TF.GenerationSoftware,Kicad,Pcbnew,(5.1.9)-1
FMAT,2
INCH
T1C0.0118
T2C0.0295
T3C0.0394
T4C0.0433
%
G90
G05
T1
X4.622Y-3.1378
X4.6339Y-3.6929
X4.6417Y-2.4646
X4.6575Y-3.4528
X4.6614Y-3.1417
X4.6969Y-2.5276
X4.7323Y-2.5157
X4.7362Y-2.6614
X4.7441Y-2.7874
X4.7992Y-2.6811
X4.8228Y-2.5236
X4.878Y-2.5197
X4.886Y-2.72
X4.8898Y-2.6614
X4.9724Y-2.811
X4.9843Y-2.4764
X5.0197Y-2.4488
X5.0472Y-2.7638
X5.1181Y-2.748
X5.1181Y-2.7795
X5.1654Y-3.6929
X5.2052Y-2.969
X5.2372Y-2.7728
X5.2402Y-2.7441
X5.2402Y-3.5354
X5.2441Y-3.689
X5.2992Y-2.9685
X5.2992Y-3.0748
T2
X5.252Y-2.5394
X5.252Y-2.6181
T3
X4.6142Y-2.6079
X4.6142Y-2.7079
X4.6142Y-2.8079
X4.6142Y-2.9079
X4.6142Y-3.0079
T4
X4.8425Y-2.4409
X4.8425Y-2.6181
X5.0984Y-2.4409
X5.0984Y-2.6181
T0
M30
