G04 #@! TF.GenerationSoftware,KiCad,Pcbnew,(5.1.9)-1*
G04 #@! TF.CreationDate,2021-03-01T14:20:39+01:00*
G04 #@! TF.ProjectId,button_timer_v1.2.1_lipo,62757474-6f6e-45f7-9469-6d65725f7631,rev?*
G04 #@! TF.SameCoordinates,Original*
G04 #@! TF.FileFunction,Legend,Bot*
G04 #@! TF.FilePolarity,Positive*
%FSLAX46Y46*%
G04 Gerber Fmt 4.6, Leading zero omitted, Abs format (unit mm)*
G04 Created by KiCad (PCBNEW (5.1.9)-1) date 2021-03-01 14:20:39*
%MOMM*%
%LPD*%
G01*
G04 APERTURE LIST*
%ADD10C,0.150000*%
%ADD11C,0.120000*%
%ADD12C,0.125000*%
G04 APERTURE END LIST*
D10*
X131977619Y-99637857D02*
X131863333Y-99675952D01*
X131825238Y-99714047D01*
X131787142Y-99790238D01*
X131787142Y-99904523D01*
X131825238Y-99980714D01*
X131863333Y-100018809D01*
X131939523Y-100056904D01*
X132244285Y-100056904D01*
X132244285Y-99256904D01*
X131977619Y-99256904D01*
X131901428Y-99295000D01*
X131863333Y-99333095D01*
X131825238Y-99409285D01*
X131825238Y-99485476D01*
X131863333Y-99561666D01*
X131901428Y-99599761D01*
X131977619Y-99637857D01*
X132244285Y-99637857D01*
X131101428Y-99523571D02*
X131101428Y-100056904D01*
X131444285Y-99523571D02*
X131444285Y-99942619D01*
X131406190Y-100018809D01*
X131330000Y-100056904D01*
X131215714Y-100056904D01*
X131139523Y-100018809D01*
X131101428Y-99980714D01*
X130834761Y-99523571D02*
X130530000Y-99523571D01*
X130720476Y-99256904D02*
X130720476Y-99942619D01*
X130682380Y-100018809D01*
X130606190Y-100056904D01*
X130530000Y-100056904D01*
X130377619Y-99523571D02*
X130072857Y-99523571D01*
X130263333Y-99256904D02*
X130263333Y-99942619D01*
X130225238Y-100018809D01*
X130149047Y-100056904D01*
X130072857Y-100056904D01*
X129691904Y-100056904D02*
X129768095Y-100018809D01*
X129806190Y-99980714D01*
X129844285Y-99904523D01*
X129844285Y-99675952D01*
X129806190Y-99599761D01*
X129768095Y-99561666D01*
X129691904Y-99523571D01*
X129577619Y-99523571D01*
X129501428Y-99561666D01*
X129463333Y-99599761D01*
X129425238Y-99675952D01*
X129425238Y-99904523D01*
X129463333Y-99980714D01*
X129501428Y-100018809D01*
X129577619Y-100056904D01*
X129691904Y-100056904D01*
X129082380Y-99523571D02*
X129082380Y-100056904D01*
X129082380Y-99599761D02*
X129044285Y-99561666D01*
X128968095Y-99523571D01*
X128853809Y-99523571D01*
X128777619Y-99561666D01*
X128739523Y-99637857D01*
X128739523Y-100056904D01*
X127749047Y-99752142D02*
X127139523Y-99752142D01*
X125768095Y-100056904D02*
X126149047Y-100056904D01*
X126149047Y-99256904D01*
X125501428Y-100056904D02*
X125501428Y-99256904D01*
X125120476Y-100056904D02*
X125120476Y-99256904D01*
X124815714Y-99256904D01*
X124739523Y-99295000D01*
X124701428Y-99333095D01*
X124663333Y-99409285D01*
X124663333Y-99523571D01*
X124701428Y-99599761D01*
X124739523Y-99637857D01*
X124815714Y-99675952D01*
X125120476Y-99675952D01*
X124168095Y-99256904D02*
X124015714Y-99256904D01*
X123939523Y-99295000D01*
X123863333Y-99371190D01*
X123825238Y-99523571D01*
X123825238Y-99790238D01*
X123863333Y-99942619D01*
X123939523Y-100018809D01*
X124015714Y-100056904D01*
X124168095Y-100056904D01*
X124244285Y-100018809D01*
X124320476Y-99942619D01*
X124358571Y-99790238D01*
X124358571Y-99523571D01*
X124320476Y-99371190D01*
X124244285Y-99295000D01*
X124168095Y-99256904D01*
X122949047Y-99523571D02*
X122758571Y-100056904D01*
X122568095Y-99523571D01*
X122263333Y-99980714D02*
X122225238Y-100018809D01*
X122263333Y-100056904D01*
X122301428Y-100018809D01*
X122263333Y-99980714D01*
X122263333Y-100056904D01*
X121463333Y-100056904D02*
X121920476Y-100056904D01*
X121691904Y-100056904D02*
X121691904Y-99256904D01*
X121768095Y-99371190D01*
X121844285Y-99447380D01*
X121920476Y-99485476D01*
X121120476Y-99980714D02*
X121082380Y-100018809D01*
X121120476Y-100056904D01*
X121158571Y-100018809D01*
X121120476Y-99980714D01*
X121120476Y-100056904D01*
X120777619Y-99333095D02*
X120739523Y-99295000D01*
X120663333Y-99256904D01*
X120472857Y-99256904D01*
X120396666Y-99295000D01*
X120358571Y-99333095D01*
X120320476Y-99409285D01*
X120320476Y-99485476D01*
X120358571Y-99599761D01*
X120815714Y-100056904D01*
X120320476Y-100056904D01*
X119977619Y-99980714D02*
X119939523Y-100018809D01*
X119977619Y-100056904D01*
X120015714Y-100018809D01*
X119977619Y-99980714D01*
X119977619Y-100056904D01*
X119177619Y-100056904D02*
X119634761Y-100056904D01*
X119406190Y-100056904D02*
X119406190Y-99256904D01*
X119482380Y-99371190D01*
X119558571Y-99447380D01*
X119634761Y-99485476D01*
D11*
G04 #@! TO.C,U2*
X128210000Y-63450000D02*
X128210000Y-65250000D01*
X124990000Y-65250000D02*
X124990000Y-62800000D01*
G04 #@! TO.C,U3*
X121810000Y-64900000D02*
X121810000Y-66700000D01*
X118590000Y-66700000D02*
X118590000Y-64250000D01*
G04 #@! TO.C,C1*
X130490000Y-63738748D02*
X130490000Y-64261252D01*
X131910000Y-63738748D02*
X131910000Y-64261252D01*
G04 #@! TO.C,C3*
X125588748Y-69810000D02*
X126111252Y-69810000D01*
X125588748Y-68390000D02*
X126111252Y-68390000D01*
G04 #@! TO.C,C2*
X132123548Y-94309000D02*
X132646052Y-94309000D01*
X132123548Y-92889000D02*
X132646052Y-92889000D01*
G04 #@! TO.C,R8*
X121210000Y-71661252D02*
X121210000Y-71138748D01*
X119790000Y-71661252D02*
X119790000Y-71138748D01*
G04 #@! TO.C,R6*
X118838748Y-63310000D02*
X119361252Y-63310000D01*
X118838748Y-61890000D02*
X119361252Y-61890000D01*
G04 #@! TO.C,C5*
X123074165Y-64368000D02*
X123305835Y-64368000D01*
X123074165Y-63648000D02*
X123305835Y-63648000D01*
G04 #@! TO.C,U2*
D12*
X126980952Y-64076190D02*
X126980952Y-64480952D01*
X126957142Y-64528571D01*
X126933333Y-64552380D01*
X126885714Y-64576190D01*
X126790476Y-64576190D01*
X126742857Y-64552380D01*
X126719047Y-64528571D01*
X126695238Y-64480952D01*
X126695238Y-64076190D01*
X126480952Y-64123809D02*
X126457142Y-64100000D01*
X126409523Y-64076190D01*
X126290476Y-64076190D01*
X126242857Y-64100000D01*
X126219047Y-64123809D01*
X126195238Y-64171428D01*
X126195238Y-64219047D01*
X126219047Y-64290476D01*
X126504761Y-64576190D01*
X126195238Y-64576190D01*
G04 #@! TO.C,U3*
X120580952Y-65526190D02*
X120580952Y-65930952D01*
X120557142Y-65978571D01*
X120533333Y-66002380D01*
X120485714Y-66026190D01*
X120390476Y-66026190D01*
X120342857Y-66002380D01*
X120319047Y-65978571D01*
X120295238Y-65930952D01*
X120295238Y-65526190D01*
X120104761Y-65526190D02*
X119795238Y-65526190D01*
X119961904Y-65716666D01*
X119890476Y-65716666D01*
X119842857Y-65740476D01*
X119819047Y-65764285D01*
X119795238Y-65811904D01*
X119795238Y-65930952D01*
X119819047Y-65978571D01*
X119842857Y-66002380D01*
X119890476Y-66026190D01*
X120033333Y-66026190D01*
X120080952Y-66002380D01*
X120104761Y-65978571D01*
G04 #@! TO.C,C1*
X131283333Y-64178571D02*
X131307142Y-64202380D01*
X131378571Y-64226190D01*
X131426190Y-64226190D01*
X131497619Y-64202380D01*
X131545238Y-64154761D01*
X131569047Y-64107142D01*
X131592857Y-64011904D01*
X131592857Y-63940476D01*
X131569047Y-63845238D01*
X131545238Y-63797619D01*
X131497619Y-63750000D01*
X131426190Y-63726190D01*
X131378571Y-63726190D01*
X131307142Y-63750000D01*
X131283333Y-63773809D01*
X130807142Y-64226190D02*
X131092857Y-64226190D01*
X130950000Y-64226190D02*
X130950000Y-63726190D01*
X130997619Y-63797619D01*
X131045238Y-63845238D01*
X131092857Y-63869047D01*
G04 #@! TO.C,C3*
X125671428Y-69183333D02*
X125647619Y-69207142D01*
X125623809Y-69278571D01*
X125623809Y-69326190D01*
X125647619Y-69397619D01*
X125695238Y-69445238D01*
X125742857Y-69469047D01*
X125838095Y-69492857D01*
X125909523Y-69492857D01*
X126004761Y-69469047D01*
X126052380Y-69445238D01*
X126100000Y-69397619D01*
X126123809Y-69326190D01*
X126123809Y-69278571D01*
X126100000Y-69207142D01*
X126076190Y-69183333D01*
X126123809Y-69016666D02*
X126123809Y-68707142D01*
X125933333Y-68873809D01*
X125933333Y-68802380D01*
X125909523Y-68754761D01*
X125885714Y-68730952D01*
X125838095Y-68707142D01*
X125719047Y-68707142D01*
X125671428Y-68730952D01*
X125647619Y-68754761D01*
X125623809Y-68802380D01*
X125623809Y-68945238D01*
X125647619Y-68992857D01*
X125671428Y-69016666D01*
G04 #@! TO.C,C2*
X132206228Y-93682333D02*
X132182419Y-93706142D01*
X132158609Y-93777571D01*
X132158609Y-93825190D01*
X132182419Y-93896619D01*
X132230038Y-93944238D01*
X132277657Y-93968047D01*
X132372895Y-93991857D01*
X132444323Y-93991857D01*
X132539561Y-93968047D01*
X132587180Y-93944238D01*
X132634800Y-93896619D01*
X132658609Y-93825190D01*
X132658609Y-93777571D01*
X132634800Y-93706142D01*
X132610990Y-93682333D01*
X132610990Y-93491857D02*
X132634800Y-93468047D01*
X132658609Y-93420428D01*
X132658609Y-93301380D01*
X132634800Y-93253761D01*
X132610990Y-93229952D01*
X132563371Y-93206142D01*
X132515752Y-93206142D01*
X132444323Y-93229952D01*
X132158609Y-93515666D01*
X132158609Y-93206142D01*
G04 #@! TO.C,R8*
X120683333Y-71626190D02*
X120850000Y-71388095D01*
X120969047Y-71626190D02*
X120969047Y-71126190D01*
X120778571Y-71126190D01*
X120730952Y-71150000D01*
X120707142Y-71173809D01*
X120683333Y-71221428D01*
X120683333Y-71292857D01*
X120707142Y-71340476D01*
X120730952Y-71364285D01*
X120778571Y-71388095D01*
X120969047Y-71388095D01*
X120397619Y-71340476D02*
X120445238Y-71316666D01*
X120469047Y-71292857D01*
X120492857Y-71245238D01*
X120492857Y-71221428D01*
X120469047Y-71173809D01*
X120445238Y-71150000D01*
X120397619Y-71126190D01*
X120302380Y-71126190D01*
X120254761Y-71150000D01*
X120230952Y-71173809D01*
X120207142Y-71221428D01*
X120207142Y-71245238D01*
X120230952Y-71292857D01*
X120254761Y-71316666D01*
X120302380Y-71340476D01*
X120397619Y-71340476D01*
X120445238Y-71364285D01*
X120469047Y-71388095D01*
X120492857Y-71435714D01*
X120492857Y-71530952D01*
X120469047Y-71578571D01*
X120445238Y-71602380D01*
X120397619Y-71626190D01*
X120302380Y-71626190D01*
X120254761Y-71602380D01*
X120230952Y-71578571D01*
X120207142Y-71530952D01*
X120207142Y-71435714D01*
X120230952Y-71388095D01*
X120254761Y-71364285D01*
X120302380Y-71340476D01*
G04 #@! TO.C,R6*
X118873809Y-62783333D02*
X119111904Y-62950000D01*
X118873809Y-63069047D02*
X119373809Y-63069047D01*
X119373809Y-62878571D01*
X119350000Y-62830952D01*
X119326190Y-62807142D01*
X119278571Y-62783333D01*
X119207142Y-62783333D01*
X119159523Y-62807142D01*
X119135714Y-62830952D01*
X119111904Y-62878571D01*
X119111904Y-63069047D01*
X119373809Y-62354761D02*
X119373809Y-62450000D01*
X119350000Y-62497619D01*
X119326190Y-62521428D01*
X119254761Y-62569047D01*
X119159523Y-62592857D01*
X118969047Y-62592857D01*
X118921428Y-62569047D01*
X118897619Y-62545238D01*
X118873809Y-62497619D01*
X118873809Y-62402380D01*
X118897619Y-62354761D01*
X118921428Y-62330952D01*
X118969047Y-62307142D01*
X119088095Y-62307142D01*
X119135714Y-62330952D01*
X119159523Y-62354761D01*
X119183333Y-62402380D01*
X119183333Y-62497619D01*
X119159523Y-62545238D01*
X119135714Y-62569047D01*
X119088095Y-62592857D01*
G04 #@! TD*
M02*
