G04 #@! TF.GenerationSoftware,KiCad,Pcbnew,(5.1.9)-1*
G04 #@! TF.CreationDate,2021-03-01T14:20:39+01:00*
G04 #@! TF.ProjectId,button_timer_v1.2.1_lipo,62757474-6f6e-45f7-9469-6d65725f7631,rev?*
G04 #@! TF.SameCoordinates,Original*
G04 #@! TF.FileFunction,Paste,Top*
G04 #@! TF.FilePolarity,Positive*
%FSLAX46Y46*%
G04 Gerber Fmt 4.6, Leading zero omitted, Abs format (unit mm)*
G04 Created by KiCad (PCBNEW (5.1.9)-1) date 2021-03-01 14:20:39*
%MOMM*%
%LPD*%
G01*
G04 APERTURE LIST*
%ADD10R,2.500000X1.000000*%
%ADD11R,1.000000X1.800000*%
%ADD12R,1.650000X2.250000*%
%ADD13R,0.900000X0.620000*%
%ADD14R,1.500000X1.500000*%
%ADD15R,1.700000X1.300000*%
G04 APERTURE END LIST*
D10*
G04 #@! TO.C,X1*
X118000000Y-93700000D03*
X118000000Y-91700000D03*
X118000000Y-89700000D03*
X118000000Y-87700000D03*
X118000000Y-85700000D03*
X118000000Y-83700000D03*
X118000000Y-81700000D03*
X118000000Y-79700000D03*
D11*
X120600000Y-78200000D03*
X122600000Y-78200000D03*
X124600000Y-78200000D03*
X126600000Y-78200000D03*
X128600000Y-78200000D03*
X130600000Y-78200000D03*
D10*
X133200000Y-79700000D03*
X133200000Y-81700000D03*
X133200000Y-83700000D03*
X133200000Y-85700000D03*
X133200000Y-87700000D03*
X133200000Y-89700000D03*
X133200000Y-91700000D03*
X133200000Y-93700000D03*
G04 #@! TD*
G04 #@! TO.C,D2*
G36*
G01*
X126154500Y-69663000D02*
X126154500Y-68513000D01*
G75*
G02*
X126404500Y-68263000I250000J0D01*
G01*
X127504500Y-68263000D01*
G75*
G02*
X127754500Y-68513000I0J-250000D01*
G01*
X127754500Y-69663000D01*
G75*
G02*
X127504500Y-69913000I-250000J0D01*
G01*
X126404500Y-69913000D01*
G75*
G02*
X126154500Y-69663000I0J250000D01*
G01*
G37*
G36*
G01*
X123304500Y-69663000D02*
X123304500Y-68513000D01*
G75*
G02*
X123554500Y-68263000I250000J0D01*
G01*
X124654500Y-68263000D01*
G75*
G02*
X124904500Y-68513000I0J-250000D01*
G01*
X124904500Y-69663000D01*
G75*
G02*
X124654500Y-69913000I-250000J0D01*
G01*
X123554500Y-69913000D01*
G75*
G02*
X123304500Y-69663000I0J250000D01*
G01*
G37*
G04 #@! TD*
G04 #@! TO.C,D1*
G36*
G01*
X118500000Y-61999999D02*
X118500000Y-62800001D01*
G75*
G02*
X118250001Y-63050000I-249999J0D01*
G01*
X117424999Y-63050000D01*
G75*
G02*
X117175000Y-62800001I0J249999D01*
G01*
X117175000Y-61999999D01*
G75*
G02*
X117424999Y-61750000I249999J0D01*
G01*
X118250001Y-61750000D01*
G75*
G02*
X118500000Y-61999999I0J-249999D01*
G01*
G37*
G36*
G01*
X120425000Y-61999999D02*
X120425000Y-62800001D01*
G75*
G02*
X120175001Y-63050000I-249999J0D01*
G01*
X119349999Y-63050000D01*
G75*
G02*
X119100000Y-62800001I0J249999D01*
G01*
X119100000Y-61999999D01*
G75*
G02*
X119349999Y-61750000I249999J0D01*
G01*
X120175001Y-61750000D01*
G75*
G02*
X120425000Y-61999999I0J-249999D01*
G01*
G37*
G04 #@! TD*
D12*
G04 #@! TO.C,C6*
X129925480Y-70429120D03*
X133025480Y-70429120D03*
G04 #@! TD*
D13*
G04 #@! TO.C,C7*
X134574520Y-78074520D03*
X135874520Y-78074520D03*
G04 #@! TD*
D14*
G04 #@! TO.C,R9*
X130000000Y-75400000D03*
X130000000Y-73000000D03*
G04 #@! TD*
G04 #@! TO.C,R7*
X120300000Y-67800000D03*
X120300000Y-65400000D03*
G04 #@! TD*
G04 #@! TO.C,R5*
X123000000Y-75400000D03*
X123000000Y-73000000D03*
G04 #@! TD*
G04 #@! TO.C,R4*
X127700000Y-75400000D03*
X127700000Y-73000000D03*
G04 #@! TD*
G04 #@! TO.C,R3*
X132257800Y-75368000D03*
X132257800Y-72968000D03*
G04 #@! TD*
G04 #@! TO.C,R2*
X125400000Y-75400000D03*
X125400000Y-73000000D03*
G04 #@! TD*
G04 #@! TO.C,R1*
X134416800Y-75418800D03*
X134416800Y-73018800D03*
G04 #@! TD*
D15*
G04 #@! TO.C,SW2*
X120396000Y-70794000D03*
X120396000Y-74494000D03*
G04 #@! TD*
D13*
G04 #@! TO.C,C4*
X123205000Y-68072000D03*
X121905000Y-68072000D03*
G04 #@! TD*
M02*
