G04 #@! TF.GenerationSoftware,KiCad,Pcbnew,(5.1.9)-1*
G04 #@! TF.CreationDate,2021-03-01T14:20:39+01:00*
G04 #@! TF.ProjectId,button_timer_v1.2.1_lipo,62757474-6f6e-45f7-9469-6d65725f7631,rev?*
G04 #@! TF.SameCoordinates,Original*
G04 #@! TF.FileFunction,Soldermask,Bot*
G04 #@! TF.FilePolarity,Negative*
%FSLAX46Y46*%
G04 Gerber Fmt 4.6, Leading zero omitted, Abs format (unit mm)*
G04 Created by KiCad (PCBNEW (5.1.9)-1) date 2021-03-01 14:20:39*
%MOMM*%
%LPD*%
G01*
G04 APERTURE LIST*
%ADD10R,0.650000X2.000000*%
%ADD11C,0.150000*%
%ADD12R,0.650000X1.500000*%
%ADD13R,1.100000X1.500000*%
%ADD14R,1.500000X1.100000*%
%ADD15R,1.500000X1.500000*%
%ADD16R,0.900000X0.620000*%
%ADD17O,1.700000X1.700000*%
%ADD18R,1.700000X1.700000*%
%ADD19C,2.000000*%
%ADD20O,1.750000X1.200000*%
G04 APERTURE END LIST*
D10*
G04 #@! TO.C,U2*
X125650000Y-65850000D03*
X127550000Y-65850000D03*
X127550000Y-62800000D03*
D11*
G36*
X126275000Y-61800000D02*
G01*
X126925000Y-61800000D01*
X126925000Y-63800000D01*
X126275000Y-63800000D01*
X126275000Y-61800000D01*
G37*
D10*
X125650000Y-62800000D03*
G04 #@! TD*
D12*
G04 #@! TO.C,U3*
X120200000Y-67100000D03*
X119250000Y-67100000D03*
X121150000Y-67100000D03*
X121150000Y-64500000D03*
X120200000Y-64500000D03*
X119250000Y-64500000D03*
G04 #@! TD*
D13*
G04 #@! TO.C,C1*
X131200000Y-65150000D03*
X131200000Y-62850000D03*
G04 #@! TD*
D14*
G04 #@! TO.C,C3*
X127000000Y-69100000D03*
X124700000Y-69100000D03*
G04 #@! TD*
G04 #@! TO.C,C2*
X133534800Y-93599000D03*
X131234800Y-93599000D03*
G04 #@! TD*
D15*
G04 #@! TO.C,R8*
X120500000Y-70200000D03*
X120500000Y-72600000D03*
G04 #@! TD*
G04 #@! TO.C,R6*
X120300000Y-62600000D03*
X117900000Y-62600000D03*
G04 #@! TD*
D16*
G04 #@! TO.C,C5*
X123840000Y-64008000D03*
X122540000Y-64008000D03*
G04 #@! TD*
D17*
G04 #@! TO.C,J1*
X117200000Y-66240000D03*
X117200000Y-68780000D03*
X117200000Y-71320000D03*
X117200000Y-73860000D03*
D18*
X117200000Y-76400000D03*
G04 #@! TD*
D19*
G04 #@! TO.C,SW1*
X129500000Y-62000000D03*
X129500000Y-66500000D03*
X123000000Y-62000000D03*
X123000000Y-66500000D03*
G04 #@! TD*
D20*
G04 #@! TO.C,BT1*
X133400000Y-64500000D03*
G36*
G01*
X134025001Y-67100000D02*
X132774999Y-67100000D01*
G75*
G02*
X132525000Y-66850001I0J249999D01*
G01*
X132525000Y-66149999D01*
G75*
G02*
X132774999Y-65900000I249999J0D01*
G01*
X134025001Y-65900000D01*
G75*
G02*
X134275000Y-66149999I0J-249999D01*
G01*
X134275000Y-66850001D01*
G75*
G02*
X134025001Y-67100000I-249999J0D01*
G01*
G37*
G04 #@! TD*
M02*
