G04 #@! TF.GenerationSoftware,KiCad,Pcbnew,(5.1.5)-1*
G04 #@! TF.CreationDate,2021-02-18T15:35:30+01:00*
G04 #@! TF.ProjectId,button,62757474-6f6e-42e6-9b69-6361645f7063,rev?*
G04 #@! TF.SameCoordinates,Original*
G04 #@! TF.FileFunction,Copper,L1,Top*
G04 #@! TF.FilePolarity,Positive*
%FSLAX46Y46*%
G04 Gerber Fmt 4.6, Leading zero omitted, Abs format (unit mm)*
G04 Created by KiCad (PCBNEW (5.1.5)-1) date 2021-02-18 15:35:30*
%MOMM*%
%LPD*%
G04 APERTURE LIST*
%ADD10C,0.300000*%
%ADD11R,2.000000X0.650000*%
%ADD12C,0.100000*%
%ADD13R,1.500000X1.500000*%
%ADD14O,1.200000X1.750000*%
%ADD15O,1.700000X1.700000*%
%ADD16R,1.700000X1.700000*%
%ADD17R,2.500000X1.000000*%
%ADD18R,1.000000X1.800000*%
%ADD19R,0.400000X1.500000*%
%ADD20R,1.600000X2.180000*%
%ADD21C,2.000000*%
%ADD22R,1.500000X1.100000*%
%ADD23R,1.100000X1.500000*%
%ADD24R,2.000000X2.000000*%
%ADD25C,0.800000*%
%ADD26C,0.250000*%
%ADD27C,0.500000*%
%ADD28C,0.254000*%
G04 APERTURE END LIST*
D10*
X117909285Y-112262857D02*
X117409285Y-112262857D01*
X117311071Y-113048571D02*
X117498571Y-111548571D01*
X118212857Y-111548571D01*
X119311071Y-113048571D02*
X118596785Y-113048571D01*
X118784285Y-111548571D01*
D11*
X126950000Y-106380000D03*
X126950000Y-104480000D03*
X130000000Y-104480000D03*
G04 #@! TA.AperFunction,SMDPad,CuDef*
D12*
G36*
X131000000Y-105105000D02*
G01*
X131000000Y-105755000D01*
X129000000Y-105755000D01*
X129000000Y-105105000D01*
X131000000Y-105105000D01*
G37*
G04 #@! TD.AperFunction*
D11*
X130000000Y-106380000D03*
D13*
X135990000Y-104590000D03*
X135990000Y-106990000D03*
D14*
X134930000Y-110490000D03*
G04 #@! TA.AperFunction,ComponentPad*
D12*
G36*
X133304505Y-109616204D02*
G01*
X133328773Y-109619804D01*
X133352572Y-109625765D01*
X133375671Y-109634030D01*
X133397850Y-109644520D01*
X133418893Y-109657132D01*
X133438599Y-109671747D01*
X133456777Y-109688223D01*
X133473253Y-109706401D01*
X133487868Y-109726107D01*
X133500480Y-109747150D01*
X133510970Y-109769329D01*
X133519235Y-109792428D01*
X133525196Y-109816227D01*
X133528796Y-109840495D01*
X133530000Y-109864999D01*
X133530000Y-111115001D01*
X133528796Y-111139505D01*
X133525196Y-111163773D01*
X133519235Y-111187572D01*
X133510970Y-111210671D01*
X133500480Y-111232850D01*
X133487868Y-111253893D01*
X133473253Y-111273599D01*
X133456777Y-111291777D01*
X133438599Y-111308253D01*
X133418893Y-111322868D01*
X133397850Y-111335480D01*
X133375671Y-111345970D01*
X133352572Y-111354235D01*
X133328773Y-111360196D01*
X133304505Y-111363796D01*
X133280001Y-111365000D01*
X132579999Y-111365000D01*
X132555495Y-111363796D01*
X132531227Y-111360196D01*
X132507428Y-111354235D01*
X132484329Y-111345970D01*
X132462150Y-111335480D01*
X132441107Y-111322868D01*
X132421401Y-111308253D01*
X132403223Y-111291777D01*
X132386747Y-111273599D01*
X132372132Y-111253893D01*
X132359520Y-111232850D01*
X132349030Y-111210671D01*
X132340765Y-111187572D01*
X132334804Y-111163773D01*
X132331204Y-111139505D01*
X132330000Y-111115001D01*
X132330000Y-109864999D01*
X132331204Y-109840495D01*
X132334804Y-109816227D01*
X132340765Y-109792428D01*
X132349030Y-109769329D01*
X132359520Y-109747150D01*
X132372132Y-109726107D01*
X132386747Y-109706401D01*
X132403223Y-109688223D01*
X132421401Y-109671747D01*
X132441107Y-109657132D01*
X132462150Y-109644520D01*
X132484329Y-109634030D01*
X132507428Y-109625765D01*
X132531227Y-109619804D01*
X132555495Y-109616204D01*
X132579999Y-109615000D01*
X133280001Y-109615000D01*
X133304505Y-109616204D01*
G37*
G04 #@! TD.AperFunction*
D15*
X118560000Y-102470000D03*
X118560000Y-99930000D03*
X118560000Y-97390000D03*
X118560000Y-94850000D03*
X118560000Y-92310000D03*
D16*
X118560000Y-89770000D03*
G04 #@! TA.AperFunction,SMDPad,CuDef*
D12*
G36*
X128959504Y-60026204D02*
G01*
X128983773Y-60029804D01*
X129007571Y-60035765D01*
X129030671Y-60044030D01*
X129052849Y-60054520D01*
X129073893Y-60067133D01*
X129093598Y-60081747D01*
X129111777Y-60098223D01*
X129128253Y-60116402D01*
X129142867Y-60136107D01*
X129155480Y-60157151D01*
X129165970Y-60179329D01*
X129174235Y-60202429D01*
X129180196Y-60226227D01*
X129183796Y-60250496D01*
X129185000Y-60275000D01*
X129185000Y-61425000D01*
X129183796Y-61449504D01*
X129180196Y-61473773D01*
X129174235Y-61497571D01*
X129165970Y-61520671D01*
X129155480Y-61542849D01*
X129142867Y-61563893D01*
X129128253Y-61583598D01*
X129111777Y-61601777D01*
X129093598Y-61618253D01*
X129073893Y-61632867D01*
X129052849Y-61645480D01*
X129030671Y-61655970D01*
X129007571Y-61664235D01*
X128983773Y-61670196D01*
X128959504Y-61673796D01*
X128935000Y-61675000D01*
X127835000Y-61675000D01*
X127810496Y-61673796D01*
X127786227Y-61670196D01*
X127762429Y-61664235D01*
X127739329Y-61655970D01*
X127717151Y-61645480D01*
X127696107Y-61632867D01*
X127676402Y-61618253D01*
X127658223Y-61601777D01*
X127641747Y-61583598D01*
X127627133Y-61563893D01*
X127614520Y-61542849D01*
X127604030Y-61520671D01*
X127595765Y-61497571D01*
X127589804Y-61473773D01*
X127586204Y-61449504D01*
X127585000Y-61425000D01*
X127585000Y-60275000D01*
X127586204Y-60250496D01*
X127589804Y-60226227D01*
X127595765Y-60202429D01*
X127604030Y-60179329D01*
X127614520Y-60157151D01*
X127627133Y-60136107D01*
X127641747Y-60116402D01*
X127658223Y-60098223D01*
X127676402Y-60081747D01*
X127696107Y-60067133D01*
X127717151Y-60054520D01*
X127739329Y-60044030D01*
X127762429Y-60035765D01*
X127786227Y-60029804D01*
X127810496Y-60026204D01*
X127835000Y-60025000D01*
X128935000Y-60025000D01*
X128959504Y-60026204D01*
G37*
G04 #@! TD.AperFunction*
G04 #@! TA.AperFunction,SMDPad,CuDef*
G36*
X126109504Y-60026204D02*
G01*
X126133773Y-60029804D01*
X126157571Y-60035765D01*
X126180671Y-60044030D01*
X126202849Y-60054520D01*
X126223893Y-60067133D01*
X126243598Y-60081747D01*
X126261777Y-60098223D01*
X126278253Y-60116402D01*
X126292867Y-60136107D01*
X126305480Y-60157151D01*
X126315970Y-60179329D01*
X126324235Y-60202429D01*
X126330196Y-60226227D01*
X126333796Y-60250496D01*
X126335000Y-60275000D01*
X126335000Y-61425000D01*
X126333796Y-61449504D01*
X126330196Y-61473773D01*
X126324235Y-61497571D01*
X126315970Y-61520671D01*
X126305480Y-61542849D01*
X126292867Y-61563893D01*
X126278253Y-61583598D01*
X126261777Y-61601777D01*
X126243598Y-61618253D01*
X126223893Y-61632867D01*
X126202849Y-61645480D01*
X126180671Y-61655970D01*
X126157571Y-61664235D01*
X126133773Y-61670196D01*
X126109504Y-61673796D01*
X126085000Y-61675000D01*
X124985000Y-61675000D01*
X124960496Y-61673796D01*
X124936227Y-61670196D01*
X124912429Y-61664235D01*
X124889329Y-61655970D01*
X124867151Y-61645480D01*
X124846107Y-61632867D01*
X124826402Y-61618253D01*
X124808223Y-61601777D01*
X124791747Y-61583598D01*
X124777133Y-61563893D01*
X124764520Y-61542849D01*
X124754030Y-61520671D01*
X124745765Y-61497571D01*
X124739804Y-61473773D01*
X124736204Y-61449504D01*
X124735000Y-61425000D01*
X124735000Y-60275000D01*
X124736204Y-60250496D01*
X124739804Y-60226227D01*
X124745765Y-60202429D01*
X124754030Y-60179329D01*
X124764520Y-60157151D01*
X124777133Y-60136107D01*
X124791747Y-60116402D01*
X124808223Y-60098223D01*
X124826402Y-60081747D01*
X124846107Y-60067133D01*
X124867151Y-60054520D01*
X124889329Y-60044030D01*
X124912429Y-60035765D01*
X124936227Y-60029804D01*
X124960496Y-60026204D01*
X124985000Y-60025000D01*
X126085000Y-60025000D01*
X126109504Y-60026204D01*
G37*
G04 #@! TD.AperFunction*
D17*
X134710000Y-71680000D03*
X134710000Y-73680000D03*
X134710000Y-75680000D03*
X134710000Y-77680000D03*
X134710000Y-79680000D03*
X134710000Y-81680000D03*
X134710000Y-83680000D03*
X134710000Y-85680000D03*
D18*
X132110000Y-87180000D03*
X130110000Y-87180000D03*
X128110000Y-87180000D03*
X126110000Y-87180000D03*
X124110000Y-87180000D03*
X122110000Y-87180000D03*
D17*
X119510000Y-85680000D03*
X119510000Y-83680000D03*
X119510000Y-81680000D03*
X119510000Y-79680000D03*
X119510000Y-77680000D03*
X119510000Y-75680000D03*
X119510000Y-73680000D03*
X119510000Y-71680000D03*
D19*
X122560000Y-107750000D03*
X123210000Y-107750000D03*
X123860000Y-107750000D03*
X123860000Y-105090000D03*
X123210000Y-105090000D03*
X122560000Y-105090000D03*
D20*
X134890000Y-92800000D03*
X134890000Y-101980000D03*
D21*
X123850000Y-51880000D03*
X123850000Y-47380000D03*
X130350000Y-51880000D03*
X130350000Y-47380000D03*
D13*
X131090000Y-58650000D03*
X131090000Y-61050000D03*
X126710000Y-89610000D03*
X126710000Y-92010000D03*
X131610000Y-89600000D03*
X131610000Y-92000000D03*
X124180000Y-89450000D03*
X124180000Y-91850000D03*
X129080000Y-89620000D03*
X129080000Y-92020000D03*
X121730000Y-89390000D03*
X121730000Y-91790000D03*
G04 #@! TA.AperFunction,SMDPad,CuDef*
D12*
G36*
X120059504Y-104681204D02*
G01*
X120083773Y-104684804D01*
X120107571Y-104690765D01*
X120130671Y-104699030D01*
X120152849Y-104709520D01*
X120173893Y-104722133D01*
X120193598Y-104736747D01*
X120211777Y-104753223D01*
X120228253Y-104771402D01*
X120242867Y-104791107D01*
X120255480Y-104812151D01*
X120265970Y-104834329D01*
X120274235Y-104857429D01*
X120280196Y-104881227D01*
X120283796Y-104905496D01*
X120285000Y-104930000D01*
X120285000Y-105855000D01*
X120283796Y-105879504D01*
X120280196Y-105903773D01*
X120274235Y-105927571D01*
X120265970Y-105950671D01*
X120255480Y-105972849D01*
X120242867Y-105993893D01*
X120228253Y-106013598D01*
X120211777Y-106031777D01*
X120193598Y-106048253D01*
X120173893Y-106062867D01*
X120152849Y-106075480D01*
X120130671Y-106085970D01*
X120107571Y-106094235D01*
X120083773Y-106100196D01*
X120059504Y-106103796D01*
X120035000Y-106105000D01*
X117885000Y-106105000D01*
X117860496Y-106103796D01*
X117836227Y-106100196D01*
X117812429Y-106094235D01*
X117789329Y-106085970D01*
X117767151Y-106075480D01*
X117746107Y-106062867D01*
X117726402Y-106048253D01*
X117708223Y-106031777D01*
X117691747Y-106013598D01*
X117677133Y-105993893D01*
X117664520Y-105972849D01*
X117654030Y-105950671D01*
X117645765Y-105927571D01*
X117639804Y-105903773D01*
X117636204Y-105879504D01*
X117635000Y-105855000D01*
X117635000Y-104930000D01*
X117636204Y-104905496D01*
X117639804Y-104881227D01*
X117645765Y-104857429D01*
X117654030Y-104834329D01*
X117664520Y-104812151D01*
X117677133Y-104791107D01*
X117691747Y-104771402D01*
X117708223Y-104753223D01*
X117726402Y-104736747D01*
X117746107Y-104722133D01*
X117767151Y-104709520D01*
X117789329Y-104699030D01*
X117812429Y-104690765D01*
X117836227Y-104684804D01*
X117860496Y-104681204D01*
X117885000Y-104680000D01*
X120035000Y-104680000D01*
X120059504Y-104681204D01*
G37*
G04 #@! TD.AperFunction*
G04 #@! TA.AperFunction,SMDPad,CuDef*
G36*
X120059504Y-107656204D02*
G01*
X120083773Y-107659804D01*
X120107571Y-107665765D01*
X120130671Y-107674030D01*
X120152849Y-107684520D01*
X120173893Y-107697133D01*
X120193598Y-107711747D01*
X120211777Y-107728223D01*
X120228253Y-107746402D01*
X120242867Y-107766107D01*
X120255480Y-107787151D01*
X120265970Y-107809329D01*
X120274235Y-107832429D01*
X120280196Y-107856227D01*
X120283796Y-107880496D01*
X120285000Y-107905000D01*
X120285000Y-108830000D01*
X120283796Y-108854504D01*
X120280196Y-108878773D01*
X120274235Y-108902571D01*
X120265970Y-108925671D01*
X120255480Y-108947849D01*
X120242867Y-108968893D01*
X120228253Y-108988598D01*
X120211777Y-109006777D01*
X120193598Y-109023253D01*
X120173893Y-109037867D01*
X120152849Y-109050480D01*
X120130671Y-109060970D01*
X120107571Y-109069235D01*
X120083773Y-109075196D01*
X120059504Y-109078796D01*
X120035000Y-109080000D01*
X117885000Y-109080000D01*
X117860496Y-109078796D01*
X117836227Y-109075196D01*
X117812429Y-109069235D01*
X117789329Y-109060970D01*
X117767151Y-109050480D01*
X117746107Y-109037867D01*
X117726402Y-109023253D01*
X117708223Y-109006777D01*
X117691747Y-108988598D01*
X117677133Y-108968893D01*
X117664520Y-108947849D01*
X117654030Y-108925671D01*
X117645765Y-108902571D01*
X117639804Y-108878773D01*
X117636204Y-108854504D01*
X117635000Y-108830000D01*
X117635000Y-107905000D01*
X117636204Y-107880496D01*
X117639804Y-107856227D01*
X117645765Y-107832429D01*
X117654030Y-107809329D01*
X117664520Y-107787151D01*
X117677133Y-107766107D01*
X117691747Y-107746402D01*
X117708223Y-107728223D01*
X117726402Y-107711747D01*
X117746107Y-107697133D01*
X117767151Y-107684520D01*
X117789329Y-107674030D01*
X117812429Y-107665765D01*
X117836227Y-107659804D01*
X117860496Y-107656204D01*
X117885000Y-107655000D01*
X120035000Y-107655000D01*
X120059504Y-107656204D01*
G37*
G04 #@! TD.AperFunction*
D22*
X122550000Y-102660000D03*
X124850000Y-102660000D03*
D23*
X118050000Y-61710000D03*
X118050000Y-59410000D03*
D22*
X124550000Y-110250000D03*
X122250000Y-110250000D03*
D24*
X127000000Y-109530000D03*
D21*
X127000000Y-57540000D03*
D25*
X134970000Y-102030000D03*
X129920000Y-105420000D03*
X119480000Y-85720000D03*
X125660000Y-60990000D03*
X126660000Y-92000000D03*
X122160000Y-87190000D03*
X122300000Y-110230000D03*
X124070000Y-107800000D03*
X122565000Y-102715000D03*
X124180000Y-89450000D03*
X134790000Y-85720000D03*
X134720000Y-83710000D03*
D26*
X123860000Y-106090000D02*
X123860000Y-105090000D01*
X123860000Y-106100000D02*
X123860000Y-106090000D01*
X123210000Y-106750000D02*
X123860000Y-106100000D01*
X123210000Y-107750000D02*
X123210000Y-106750000D01*
D27*
X123860000Y-103650000D02*
X124850000Y-102660000D01*
X123860000Y-105090000D02*
X123860000Y-103650000D01*
X119409999Y-101620001D02*
X118560000Y-102470000D01*
X124850000Y-102660000D02*
X124650000Y-102660000D01*
X123610001Y-101620001D02*
X119409999Y-101620001D01*
X124650000Y-102660000D02*
X123610001Y-101620001D01*
X121730000Y-99740000D02*
X121730000Y-91790000D01*
X123610001Y-101620001D02*
X121730000Y-99740000D01*
D26*
X124120000Y-91790000D02*
X124180000Y-91850000D01*
X121730000Y-91790000D02*
X124120000Y-91790000D01*
D27*
X121730000Y-91790000D02*
X121730000Y-91710000D01*
X121730000Y-91710000D02*
X120410000Y-90390000D01*
X120410000Y-86650000D02*
X119480000Y-85720000D01*
X120410000Y-90390000D02*
X120410000Y-86650000D01*
D26*
X129430000Y-91860000D02*
X131760000Y-91860000D01*
X125180000Y-91850000D02*
X125180000Y-92840000D01*
X124180000Y-91850000D02*
X125180000Y-91850000D01*
X125180000Y-92840000D02*
X125790000Y-93450000D01*
X129430000Y-92860000D02*
X129430000Y-91860000D01*
X128840000Y-93450000D02*
X129430000Y-92860000D01*
X125790000Y-93450000D02*
X128840000Y-93450000D01*
D27*
X124850000Y-103710000D02*
X124850000Y-102660000D01*
X124850000Y-104955000D02*
X124850000Y-103710000D01*
X126275000Y-106380000D02*
X124850000Y-104955000D01*
X126950000Y-106380000D02*
X126275000Y-106380000D01*
D26*
X119510000Y-71680000D02*
X118870000Y-71680000D01*
X118870000Y-71680000D02*
X117830000Y-70640000D01*
X117830000Y-70640000D02*
X117830000Y-63490000D01*
X118050000Y-63270000D02*
X118050000Y-61710000D01*
X117830000Y-63490000D02*
X118050000Y-63270000D01*
X131090000Y-54470000D02*
X131090000Y-58650000D01*
X123180000Y-89450000D02*
X123050000Y-89320000D01*
X124180000Y-89450000D02*
X124180000Y-89450000D01*
X123050000Y-73720000D02*
X121010000Y-71680000D01*
X121010000Y-71680000D02*
X119510000Y-71680000D01*
X123050000Y-89320000D02*
X123050000Y-73720000D01*
X124180000Y-89450000D02*
X123180000Y-89450000D01*
X123460000Y-52550000D02*
X124150000Y-51860000D01*
X123180000Y-52550000D02*
X123460000Y-52550000D01*
X122940000Y-52790000D02*
X123180000Y-52550000D01*
X118850000Y-61710000D02*
X119359999Y-61200001D01*
X118050000Y-61710000D02*
X118850000Y-61710000D01*
X119359999Y-61200001D02*
X119359999Y-56340001D01*
X122910000Y-52790000D02*
X122940000Y-52790000D01*
X119359999Y-56340001D02*
X122910000Y-52790000D01*
X125564213Y-51860000D02*
X130650000Y-51860000D01*
X124150000Y-51860000D02*
X125564213Y-51860000D01*
X130650000Y-54030000D02*
X130650000Y-51860000D01*
X131090000Y-54470000D02*
X130650000Y-54030000D01*
X128585000Y-61050000D02*
X128385000Y-60850000D01*
X131090000Y-61050000D02*
X128585000Y-61050000D01*
X121010000Y-75680000D02*
X119510000Y-75680000D01*
X121284999Y-88944999D02*
X121284999Y-75954999D01*
X121284999Y-75954999D02*
X121010000Y-75680000D01*
X121730000Y-89390000D02*
X121284999Y-88944999D01*
X126110000Y-88330000D02*
X126110000Y-87180000D01*
X127720001Y-88534999D02*
X126314999Y-88534999D01*
X128805002Y-89620000D02*
X127720001Y-88534999D01*
X126314999Y-88534999D02*
X126110000Y-88330000D01*
X129080000Y-89620000D02*
X128805002Y-89620000D01*
X128935001Y-88405001D02*
X128110000Y-87580000D01*
X128110000Y-87580000D02*
X128110000Y-87180000D01*
X131610000Y-88600000D02*
X131415001Y-88405001D01*
X131415001Y-88405001D02*
X128935001Y-88405001D01*
X131610000Y-89600000D02*
X131610000Y-88600000D01*
X132610000Y-89600000D02*
X131610000Y-89600000D01*
X133030000Y-89600000D02*
X132610000Y-89600000D01*
X134890000Y-91460000D02*
X133030000Y-89600000D01*
X134890000Y-92800000D02*
X134890000Y-91460000D01*
D27*
X125270000Y-109530000D02*
X124550000Y-110250000D01*
X127000000Y-109530000D02*
X125270000Y-109530000D01*
X122560000Y-109000000D02*
X122560000Y-107750000D01*
X122760000Y-109200000D02*
X122560000Y-109000000D01*
X124350000Y-110250000D02*
X123300000Y-109200000D01*
X123300000Y-109200000D02*
X122760000Y-109200000D01*
X124550000Y-110250000D02*
X124350000Y-110250000D01*
D26*
X122560000Y-107750000D02*
X122560000Y-105090000D01*
D27*
X120092500Y-109200000D02*
X118980000Y-108087500D01*
X122760000Y-109200000D02*
X120092500Y-109200000D01*
X127960000Y-110490000D02*
X127000000Y-109530000D01*
X132930000Y-110490000D02*
X127960000Y-110490000D01*
X124550000Y-109200000D02*
X126070000Y-107680000D01*
X124550000Y-110250000D02*
X124550000Y-109200000D01*
X130000000Y-107205000D02*
X130000000Y-106380000D01*
X126070000Y-107680000D02*
X129525000Y-107680000D01*
X130510001Y-108550001D02*
X129590000Y-107630000D01*
X135679999Y-108550001D02*
X130510001Y-108550001D01*
X135990000Y-108240000D02*
X135679999Y-108550001D01*
X135990000Y-106990000D02*
X135990000Y-108240000D01*
X129590000Y-107630000D02*
X130000000Y-107205000D01*
X129525000Y-107680000D02*
X129590000Y-107630000D01*
D26*
X123210000Y-104090000D02*
X123210000Y-105090000D01*
X123134999Y-104014999D02*
X123210000Y-104090000D01*
X120077501Y-104014999D02*
X123134999Y-104014999D01*
X118980000Y-105112500D02*
X120077501Y-104014999D01*
X124860000Y-88330000D02*
X124110000Y-87580000D01*
X125360000Y-88330000D02*
X124860000Y-88330000D01*
X124110000Y-87580000D02*
X124110000Y-87180000D01*
X126710000Y-89610000D02*
X126640000Y-89610000D01*
X126640000Y-89610000D02*
X125360000Y-88330000D01*
D27*
X130110000Y-104590000D02*
X130000000Y-104480000D01*
X135990000Y-104590000D02*
X130110000Y-104590000D01*
D28*
G36*
X136461901Y-112852600D02*
G01*
X120395000Y-112852600D01*
X120395000Y-110800000D01*
X120861928Y-110800000D01*
X120874188Y-110924482D01*
X120910498Y-111044180D01*
X120969463Y-111154494D01*
X121048815Y-111251185D01*
X121145506Y-111330537D01*
X121255820Y-111389502D01*
X121375518Y-111425812D01*
X121500000Y-111438072D01*
X121964250Y-111435000D01*
X122123000Y-111276250D01*
X122123000Y-110377000D01*
X121023750Y-110377000D01*
X120865000Y-110535750D01*
X120861928Y-110800000D01*
X120395000Y-110800000D01*
X120395000Y-110580000D01*
X117461747Y-110580000D01*
X117461696Y-109605865D01*
X117545150Y-109650472D01*
X117711746Y-109701008D01*
X117885000Y-109718072D01*
X119358993Y-109718072D01*
X119435970Y-109795049D01*
X119463683Y-109828817D01*
X119497451Y-109856530D01*
X119497453Y-109856532D01*
X119598441Y-109939411D01*
X119752186Y-110021589D01*
X119919010Y-110072195D01*
X120049023Y-110085000D01*
X120049031Y-110085000D01*
X120092500Y-110089281D01*
X120135969Y-110085000D01*
X120985750Y-110085000D01*
X121023750Y-110123000D01*
X122123000Y-110123000D01*
X122123000Y-110103000D01*
X122377000Y-110103000D01*
X122377000Y-110123000D01*
X122397000Y-110123000D01*
X122397000Y-110377000D01*
X122377000Y-110377000D01*
X122377000Y-111276250D01*
X122535750Y-111435000D01*
X123000000Y-111438072D01*
X123124482Y-111425812D01*
X123244180Y-111389502D01*
X123354494Y-111330537D01*
X123400000Y-111293191D01*
X123445506Y-111330537D01*
X123555820Y-111389502D01*
X123675518Y-111425812D01*
X123800000Y-111438072D01*
X125300000Y-111438072D01*
X125424482Y-111425812D01*
X125544180Y-111389502D01*
X125654494Y-111330537D01*
X125751185Y-111251185D01*
X125830537Y-111154494D01*
X125836207Y-111143887D01*
X125875518Y-111155812D01*
X126000000Y-111168072D01*
X127391200Y-111168072D01*
X127465941Y-111229411D01*
X127619687Y-111311589D01*
X127786510Y-111362195D01*
X127916523Y-111375000D01*
X127916533Y-111375000D01*
X127959999Y-111379281D01*
X128003466Y-111375000D01*
X131735306Y-111375000D01*
X131759528Y-111454851D01*
X131841595Y-111608387D01*
X131952038Y-111742962D01*
X132086613Y-111853405D01*
X132240149Y-111935472D01*
X132406745Y-111986008D01*
X132579999Y-112003072D01*
X133280001Y-112003072D01*
X133453255Y-111986008D01*
X133619851Y-111935472D01*
X133773387Y-111853405D01*
X133907962Y-111742962D01*
X134018405Y-111608387D01*
X134020967Y-111603594D01*
X134146526Y-111728078D01*
X134349467Y-111862421D01*
X134574718Y-111954591D01*
X134612391Y-111958462D01*
X134803000Y-111833731D01*
X134803000Y-110617000D01*
X135057000Y-110617000D01*
X135057000Y-111833731D01*
X135247609Y-111958462D01*
X135285282Y-111954591D01*
X135510533Y-111862421D01*
X135713474Y-111728078D01*
X135886307Y-111556725D01*
X136022390Y-111354946D01*
X136116493Y-111130496D01*
X136165000Y-110892000D01*
X136165000Y-110617000D01*
X135057000Y-110617000D01*
X134803000Y-110617000D01*
X134783000Y-110617000D01*
X134783000Y-110363000D01*
X134803000Y-110363000D01*
X134803000Y-110343000D01*
X135057000Y-110343000D01*
X135057000Y-110363000D01*
X136165000Y-110363000D01*
X136165000Y-110088000D01*
X136116493Y-109849504D01*
X136022390Y-109625054D01*
X135886307Y-109423275D01*
X135877785Y-109414826D01*
X136020312Y-109371590D01*
X136174058Y-109289412D01*
X136308816Y-109178818D01*
X136336533Y-109145045D01*
X136461901Y-109019677D01*
X136461901Y-112852600D01*
G37*
X136461901Y-112852600D02*
X120395000Y-112852600D01*
X120395000Y-110800000D01*
X120861928Y-110800000D01*
X120874188Y-110924482D01*
X120910498Y-111044180D01*
X120969463Y-111154494D01*
X121048815Y-111251185D01*
X121145506Y-111330537D01*
X121255820Y-111389502D01*
X121375518Y-111425812D01*
X121500000Y-111438072D01*
X121964250Y-111435000D01*
X122123000Y-111276250D01*
X122123000Y-110377000D01*
X121023750Y-110377000D01*
X120865000Y-110535750D01*
X120861928Y-110800000D01*
X120395000Y-110800000D01*
X120395000Y-110580000D01*
X117461747Y-110580000D01*
X117461696Y-109605865D01*
X117545150Y-109650472D01*
X117711746Y-109701008D01*
X117885000Y-109718072D01*
X119358993Y-109718072D01*
X119435970Y-109795049D01*
X119463683Y-109828817D01*
X119497451Y-109856530D01*
X119497453Y-109856532D01*
X119598441Y-109939411D01*
X119752186Y-110021589D01*
X119919010Y-110072195D01*
X120049023Y-110085000D01*
X120049031Y-110085000D01*
X120092500Y-110089281D01*
X120135969Y-110085000D01*
X120985750Y-110085000D01*
X121023750Y-110123000D01*
X122123000Y-110123000D01*
X122123000Y-110103000D01*
X122377000Y-110103000D01*
X122377000Y-110123000D01*
X122397000Y-110123000D01*
X122397000Y-110377000D01*
X122377000Y-110377000D01*
X122377000Y-111276250D01*
X122535750Y-111435000D01*
X123000000Y-111438072D01*
X123124482Y-111425812D01*
X123244180Y-111389502D01*
X123354494Y-111330537D01*
X123400000Y-111293191D01*
X123445506Y-111330537D01*
X123555820Y-111389502D01*
X123675518Y-111425812D01*
X123800000Y-111438072D01*
X125300000Y-111438072D01*
X125424482Y-111425812D01*
X125544180Y-111389502D01*
X125654494Y-111330537D01*
X125751185Y-111251185D01*
X125830537Y-111154494D01*
X125836207Y-111143887D01*
X125875518Y-111155812D01*
X126000000Y-111168072D01*
X127391200Y-111168072D01*
X127465941Y-111229411D01*
X127619687Y-111311589D01*
X127786510Y-111362195D01*
X127916523Y-111375000D01*
X127916533Y-111375000D01*
X127959999Y-111379281D01*
X128003466Y-111375000D01*
X131735306Y-111375000D01*
X131759528Y-111454851D01*
X131841595Y-111608387D01*
X131952038Y-111742962D01*
X132086613Y-111853405D01*
X132240149Y-111935472D01*
X132406745Y-111986008D01*
X132579999Y-112003072D01*
X133280001Y-112003072D01*
X133453255Y-111986008D01*
X133619851Y-111935472D01*
X133773387Y-111853405D01*
X133907962Y-111742962D01*
X134018405Y-111608387D01*
X134020967Y-111603594D01*
X134146526Y-111728078D01*
X134349467Y-111862421D01*
X134574718Y-111954591D01*
X134612391Y-111958462D01*
X134803000Y-111833731D01*
X134803000Y-110617000D01*
X135057000Y-110617000D01*
X135057000Y-111833731D01*
X135247609Y-111958462D01*
X135285282Y-111954591D01*
X135510533Y-111862421D01*
X135713474Y-111728078D01*
X135886307Y-111556725D01*
X136022390Y-111354946D01*
X136116493Y-111130496D01*
X136165000Y-110892000D01*
X136165000Y-110617000D01*
X135057000Y-110617000D01*
X134803000Y-110617000D01*
X134783000Y-110617000D01*
X134783000Y-110363000D01*
X134803000Y-110363000D01*
X134803000Y-110343000D01*
X135057000Y-110343000D01*
X135057000Y-110363000D01*
X136165000Y-110363000D01*
X136165000Y-110088000D01*
X136116493Y-109849504D01*
X136022390Y-109625054D01*
X135886307Y-109423275D01*
X135877785Y-109414826D01*
X136020312Y-109371590D01*
X136174058Y-109289412D01*
X136308816Y-109178818D01*
X136336533Y-109145045D01*
X136461901Y-109019677D01*
X136461901Y-112852600D01*
G36*
X125311928Y-106668507D02*
G01*
X125311928Y-106705000D01*
X125324188Y-106829482D01*
X125360498Y-106949180D01*
X125419463Y-107059494D01*
X125426913Y-107068571D01*
X125413470Y-107084951D01*
X124048072Y-108450350D01*
X124048072Y-107000000D01*
X124046882Y-106987919D01*
X124371004Y-106663798D01*
X124400001Y-106640001D01*
X124494974Y-106524276D01*
X124565546Y-106392247D01*
X124609003Y-106248986D01*
X124619754Y-106139834D01*
X124649502Y-106084180D01*
X124667679Y-106024258D01*
X125311928Y-106668507D01*
G37*
X125311928Y-106668507D02*
X125311928Y-106705000D01*
X125324188Y-106829482D01*
X125360498Y-106949180D01*
X125419463Y-107059494D01*
X125426913Y-107068571D01*
X125413470Y-107084951D01*
X124048072Y-108450350D01*
X124048072Y-107000000D01*
X124046882Y-106987919D01*
X124371004Y-106663798D01*
X124400001Y-106640001D01*
X124494974Y-106524276D01*
X124565546Y-106392247D01*
X124609003Y-106248986D01*
X124619754Y-106139834D01*
X124649502Y-106084180D01*
X124667679Y-106024258D01*
X125311928Y-106668507D01*
G36*
X136461901Y-103201928D02*
G01*
X136313553Y-103201928D01*
X136315812Y-103194482D01*
X136328072Y-103070000D01*
X136325000Y-102265750D01*
X136166250Y-102107000D01*
X135017000Y-102107000D01*
X135017000Y-102127000D01*
X134763000Y-102127000D01*
X134763000Y-102107000D01*
X133613750Y-102107000D01*
X133455000Y-102265750D01*
X133451928Y-103070000D01*
X133464188Y-103194482D01*
X133500498Y-103314180D01*
X133559463Y-103424494D01*
X133638815Y-103521185D01*
X133735506Y-103600537D01*
X133845820Y-103659502D01*
X133965518Y-103695812D01*
X134058808Y-103705000D01*
X131452158Y-103705000D01*
X131451185Y-103703815D01*
X131354494Y-103624463D01*
X131244180Y-103565498D01*
X131124482Y-103529188D01*
X131000000Y-103516928D01*
X129000000Y-103516928D01*
X128875518Y-103529188D01*
X128755820Y-103565498D01*
X128645506Y-103624463D01*
X128548815Y-103703815D01*
X128475000Y-103793759D01*
X128401185Y-103703815D01*
X128304494Y-103624463D01*
X128194180Y-103565498D01*
X128074482Y-103529188D01*
X127950000Y-103516928D01*
X126155962Y-103516928D01*
X126189502Y-103454180D01*
X126225812Y-103334482D01*
X126238072Y-103210000D01*
X126238072Y-102110000D01*
X126225812Y-101985518D01*
X126189502Y-101865820D01*
X126130537Y-101755506D01*
X126051185Y-101658815D01*
X125954494Y-101579463D01*
X125844180Y-101520498D01*
X125724482Y-101484188D01*
X125600000Y-101471928D01*
X124713506Y-101471928D01*
X124266535Y-101024957D01*
X124238818Y-100991184D01*
X124205050Y-100963471D01*
X124131579Y-100890000D01*
X133451928Y-100890000D01*
X133455000Y-101694250D01*
X133613750Y-101853000D01*
X134763000Y-101853000D01*
X134763000Y-100413750D01*
X135017000Y-100413750D01*
X135017000Y-101853000D01*
X136166250Y-101853000D01*
X136325000Y-101694250D01*
X136328072Y-100890000D01*
X136315812Y-100765518D01*
X136279502Y-100645820D01*
X136220537Y-100535506D01*
X136141185Y-100438815D01*
X136044494Y-100359463D01*
X135934180Y-100300498D01*
X135814482Y-100264188D01*
X135690000Y-100251928D01*
X135175750Y-100255000D01*
X135017000Y-100413750D01*
X134763000Y-100413750D01*
X134604250Y-100255000D01*
X134090000Y-100251928D01*
X133965518Y-100264188D01*
X133845820Y-100300498D01*
X133735506Y-100359463D01*
X133638815Y-100438815D01*
X133559463Y-100535506D01*
X133500498Y-100645820D01*
X133464188Y-100765518D01*
X133451928Y-100890000D01*
X124131579Y-100890000D01*
X122615000Y-99373422D01*
X122615000Y-93162621D01*
X122724180Y-93129502D01*
X122834494Y-93070537D01*
X122930223Y-92991975D01*
X122978815Y-93051185D01*
X123075506Y-93130537D01*
X123185820Y-93189502D01*
X123305518Y-93225812D01*
X123430000Y-93238072D01*
X124531020Y-93238072D01*
X124545026Y-93264276D01*
X124606763Y-93339502D01*
X124640000Y-93380001D01*
X124668998Y-93403799D01*
X125226200Y-93961002D01*
X125249999Y-93990001D01*
X125365724Y-94084974D01*
X125497753Y-94155546D01*
X125641014Y-94199003D01*
X125752667Y-94210000D01*
X125752676Y-94210000D01*
X125789999Y-94213676D01*
X125827322Y-94210000D01*
X128802678Y-94210000D01*
X128840000Y-94213676D01*
X128877322Y-94210000D01*
X128877333Y-94210000D01*
X128988986Y-94199003D01*
X129132247Y-94155546D01*
X129264276Y-94084974D01*
X129380001Y-93990001D01*
X129403803Y-93960998D01*
X129941004Y-93423798D01*
X129970001Y-93400001D01*
X129979722Y-93388155D01*
X130074180Y-93359502D01*
X130184494Y-93300537D01*
X130281185Y-93221185D01*
X130353207Y-93133426D01*
X130408815Y-93201185D01*
X130505506Y-93280537D01*
X130615820Y-93339502D01*
X130735518Y-93375812D01*
X130860000Y-93388072D01*
X132360000Y-93388072D01*
X132484482Y-93375812D01*
X132604180Y-93339502D01*
X132714494Y-93280537D01*
X132811185Y-93201185D01*
X132890537Y-93104494D01*
X132949502Y-92994180D01*
X132985812Y-92874482D01*
X132998072Y-92750000D01*
X132998072Y-91250000D01*
X132985812Y-91125518D01*
X132949502Y-91005820D01*
X132890537Y-90895506D01*
X132812158Y-90800000D01*
X132890537Y-90704494D01*
X132949459Y-90594260D01*
X133627636Y-91272437D01*
X133559463Y-91355506D01*
X133500498Y-91465820D01*
X133464188Y-91585518D01*
X133451928Y-91710000D01*
X133451928Y-93890000D01*
X133464188Y-94014482D01*
X133500498Y-94134180D01*
X133559463Y-94244494D01*
X133638815Y-94341185D01*
X133735506Y-94420537D01*
X133845820Y-94479502D01*
X133965518Y-94515812D01*
X134090000Y-94528072D01*
X135690000Y-94528072D01*
X135814482Y-94515812D01*
X135934180Y-94479502D01*
X136044494Y-94420537D01*
X136141185Y-94341185D01*
X136220537Y-94244494D01*
X136279502Y-94134180D01*
X136315812Y-94014482D01*
X136328072Y-93890000D01*
X136328072Y-91710000D01*
X136315812Y-91585518D01*
X136279502Y-91465820D01*
X136220537Y-91355506D01*
X136141185Y-91258815D01*
X136044494Y-91179463D01*
X135934180Y-91120498D01*
X135814482Y-91084188D01*
X135690000Y-91071928D01*
X135544326Y-91071928D01*
X135524974Y-91035724D01*
X135430001Y-90919999D01*
X135401003Y-90896201D01*
X133593804Y-89089003D01*
X133570001Y-89059999D01*
X133454276Y-88965026D01*
X133322247Y-88894454D01*
X133178986Y-88850997D01*
X133067333Y-88840000D01*
X133067322Y-88840000D01*
X133030000Y-88836324D01*
X132997045Y-88839570D01*
X132985812Y-88725518D01*
X132952825Y-88616774D01*
X132964494Y-88610537D01*
X133061185Y-88531185D01*
X133140537Y-88434494D01*
X133199502Y-88324180D01*
X133235812Y-88204482D01*
X133248072Y-88080000D01*
X133248072Y-86779286D01*
X133335518Y-86805812D01*
X133460000Y-86818072D01*
X135960000Y-86818072D01*
X136084482Y-86805812D01*
X136204180Y-86769502D01*
X136314494Y-86710537D01*
X136411185Y-86631185D01*
X136461901Y-86569388D01*
X136461901Y-103201928D01*
G37*
X136461901Y-103201928D02*
X136313553Y-103201928D01*
X136315812Y-103194482D01*
X136328072Y-103070000D01*
X136325000Y-102265750D01*
X136166250Y-102107000D01*
X135017000Y-102107000D01*
X135017000Y-102127000D01*
X134763000Y-102127000D01*
X134763000Y-102107000D01*
X133613750Y-102107000D01*
X133455000Y-102265750D01*
X133451928Y-103070000D01*
X133464188Y-103194482D01*
X133500498Y-103314180D01*
X133559463Y-103424494D01*
X133638815Y-103521185D01*
X133735506Y-103600537D01*
X133845820Y-103659502D01*
X133965518Y-103695812D01*
X134058808Y-103705000D01*
X131452158Y-103705000D01*
X131451185Y-103703815D01*
X131354494Y-103624463D01*
X131244180Y-103565498D01*
X131124482Y-103529188D01*
X131000000Y-103516928D01*
X129000000Y-103516928D01*
X128875518Y-103529188D01*
X128755820Y-103565498D01*
X128645506Y-103624463D01*
X128548815Y-103703815D01*
X128475000Y-103793759D01*
X128401185Y-103703815D01*
X128304494Y-103624463D01*
X128194180Y-103565498D01*
X128074482Y-103529188D01*
X127950000Y-103516928D01*
X126155962Y-103516928D01*
X126189502Y-103454180D01*
X126225812Y-103334482D01*
X126238072Y-103210000D01*
X126238072Y-102110000D01*
X126225812Y-101985518D01*
X126189502Y-101865820D01*
X126130537Y-101755506D01*
X126051185Y-101658815D01*
X125954494Y-101579463D01*
X125844180Y-101520498D01*
X125724482Y-101484188D01*
X125600000Y-101471928D01*
X124713506Y-101471928D01*
X124266535Y-101024957D01*
X124238818Y-100991184D01*
X124205050Y-100963471D01*
X124131579Y-100890000D01*
X133451928Y-100890000D01*
X133455000Y-101694250D01*
X133613750Y-101853000D01*
X134763000Y-101853000D01*
X134763000Y-100413750D01*
X135017000Y-100413750D01*
X135017000Y-101853000D01*
X136166250Y-101853000D01*
X136325000Y-101694250D01*
X136328072Y-100890000D01*
X136315812Y-100765518D01*
X136279502Y-100645820D01*
X136220537Y-100535506D01*
X136141185Y-100438815D01*
X136044494Y-100359463D01*
X135934180Y-100300498D01*
X135814482Y-100264188D01*
X135690000Y-100251928D01*
X135175750Y-100255000D01*
X135017000Y-100413750D01*
X134763000Y-100413750D01*
X134604250Y-100255000D01*
X134090000Y-100251928D01*
X133965518Y-100264188D01*
X133845820Y-100300498D01*
X133735506Y-100359463D01*
X133638815Y-100438815D01*
X133559463Y-100535506D01*
X133500498Y-100645820D01*
X133464188Y-100765518D01*
X133451928Y-100890000D01*
X124131579Y-100890000D01*
X122615000Y-99373422D01*
X122615000Y-93162621D01*
X122724180Y-93129502D01*
X122834494Y-93070537D01*
X122930223Y-92991975D01*
X122978815Y-93051185D01*
X123075506Y-93130537D01*
X123185820Y-93189502D01*
X123305518Y-93225812D01*
X123430000Y-93238072D01*
X124531020Y-93238072D01*
X124545026Y-93264276D01*
X124606763Y-93339502D01*
X124640000Y-93380001D01*
X124668998Y-93403799D01*
X125226200Y-93961002D01*
X125249999Y-93990001D01*
X125365724Y-94084974D01*
X125497753Y-94155546D01*
X125641014Y-94199003D01*
X125752667Y-94210000D01*
X125752676Y-94210000D01*
X125789999Y-94213676D01*
X125827322Y-94210000D01*
X128802678Y-94210000D01*
X128840000Y-94213676D01*
X128877322Y-94210000D01*
X128877333Y-94210000D01*
X128988986Y-94199003D01*
X129132247Y-94155546D01*
X129264276Y-94084974D01*
X129380001Y-93990001D01*
X129403803Y-93960998D01*
X129941004Y-93423798D01*
X129970001Y-93400001D01*
X129979722Y-93388155D01*
X130074180Y-93359502D01*
X130184494Y-93300537D01*
X130281185Y-93221185D01*
X130353207Y-93133426D01*
X130408815Y-93201185D01*
X130505506Y-93280537D01*
X130615820Y-93339502D01*
X130735518Y-93375812D01*
X130860000Y-93388072D01*
X132360000Y-93388072D01*
X132484482Y-93375812D01*
X132604180Y-93339502D01*
X132714494Y-93280537D01*
X132811185Y-93201185D01*
X132890537Y-93104494D01*
X132949502Y-92994180D01*
X132985812Y-92874482D01*
X132998072Y-92750000D01*
X132998072Y-91250000D01*
X132985812Y-91125518D01*
X132949502Y-91005820D01*
X132890537Y-90895506D01*
X132812158Y-90800000D01*
X132890537Y-90704494D01*
X132949459Y-90594260D01*
X133627636Y-91272437D01*
X133559463Y-91355506D01*
X133500498Y-91465820D01*
X133464188Y-91585518D01*
X133451928Y-91710000D01*
X133451928Y-93890000D01*
X133464188Y-94014482D01*
X133500498Y-94134180D01*
X133559463Y-94244494D01*
X133638815Y-94341185D01*
X133735506Y-94420537D01*
X133845820Y-94479502D01*
X133965518Y-94515812D01*
X134090000Y-94528072D01*
X135690000Y-94528072D01*
X135814482Y-94515812D01*
X135934180Y-94479502D01*
X136044494Y-94420537D01*
X136141185Y-94341185D01*
X136220537Y-94244494D01*
X136279502Y-94134180D01*
X136315812Y-94014482D01*
X136328072Y-93890000D01*
X136328072Y-91710000D01*
X136315812Y-91585518D01*
X136279502Y-91465820D01*
X136220537Y-91355506D01*
X136141185Y-91258815D01*
X136044494Y-91179463D01*
X135934180Y-91120498D01*
X135814482Y-91084188D01*
X135690000Y-91071928D01*
X135544326Y-91071928D01*
X135524974Y-91035724D01*
X135430001Y-90919999D01*
X135401003Y-90896201D01*
X133593804Y-89089003D01*
X133570001Y-89059999D01*
X133454276Y-88965026D01*
X133322247Y-88894454D01*
X133178986Y-88850997D01*
X133067333Y-88840000D01*
X133067322Y-88840000D01*
X133030000Y-88836324D01*
X132997045Y-88839570D01*
X132985812Y-88725518D01*
X132952825Y-88616774D01*
X132964494Y-88610537D01*
X133061185Y-88531185D01*
X133140537Y-88434494D01*
X133199502Y-88324180D01*
X133235812Y-88204482D01*
X133248072Y-88080000D01*
X133248072Y-86779286D01*
X133335518Y-86805812D01*
X133460000Y-86818072D01*
X135960000Y-86818072D01*
X136084482Y-86805812D01*
X136204180Y-86769502D01*
X136314494Y-86710537D01*
X136411185Y-86631185D01*
X136461901Y-86569388D01*
X136461901Y-103201928D01*
G36*
X121323750Y-102533000D02*
G01*
X122423000Y-102533000D01*
X122423000Y-102513000D01*
X122677000Y-102513000D01*
X122677000Y-102533000D01*
X122697000Y-102533000D01*
X122697000Y-102787000D01*
X122677000Y-102787000D01*
X122677000Y-102807000D01*
X122423000Y-102807000D01*
X122423000Y-102787000D01*
X121323750Y-102787000D01*
X121165000Y-102945750D01*
X121161928Y-103210000D01*
X121166360Y-103254999D01*
X120114826Y-103254999D01*
X120077501Y-103251323D01*
X120040176Y-103254999D01*
X120040168Y-103254999D01*
X119928515Y-103265996D01*
X119785254Y-103309453D01*
X119784998Y-103309590D01*
X119875990Y-103173411D01*
X119987932Y-102903158D01*
X120045000Y-102616260D01*
X120045000Y-102505001D01*
X121295751Y-102505001D01*
X121323750Y-102533000D01*
G37*
X121323750Y-102533000D02*
X122423000Y-102533000D01*
X122423000Y-102513000D01*
X122677000Y-102513000D01*
X122677000Y-102533000D01*
X122697000Y-102533000D01*
X122697000Y-102787000D01*
X122677000Y-102787000D01*
X122677000Y-102807000D01*
X122423000Y-102807000D01*
X122423000Y-102787000D01*
X121323750Y-102787000D01*
X121165000Y-102945750D01*
X121161928Y-103210000D01*
X121166360Y-103254999D01*
X120114826Y-103254999D01*
X120077501Y-103251323D01*
X120040176Y-103254999D01*
X120040168Y-103254999D01*
X119928515Y-103265996D01*
X119785254Y-103309453D01*
X119784998Y-103309590D01*
X119875990Y-103173411D01*
X119987932Y-102903158D01*
X120045000Y-102616260D01*
X120045000Y-102505001D01*
X121295751Y-102505001D01*
X121323750Y-102533000D01*
G36*
X120341928Y-91573506D02*
G01*
X120341928Y-92540000D01*
X120354188Y-92664482D01*
X120390498Y-92784180D01*
X120449463Y-92894494D01*
X120528815Y-92991185D01*
X120625506Y-93070537D01*
X120735820Y-93129502D01*
X120845001Y-93162622D01*
X120845000Y-99696531D01*
X120840719Y-99740000D01*
X120845000Y-99783469D01*
X120845000Y-99783476D01*
X120857805Y-99913489D01*
X120908411Y-100080312D01*
X120990589Y-100234058D01*
X121101183Y-100368817D01*
X121134956Y-100396534D01*
X121473423Y-100735001D01*
X119803237Y-100735001D01*
X119831641Y-100696920D01*
X119956825Y-100434099D01*
X120001476Y-100286890D01*
X119880155Y-100057000D01*
X118687000Y-100057000D01*
X118687000Y-100077000D01*
X118433000Y-100077000D01*
X118433000Y-100057000D01*
X118413000Y-100057000D01*
X118413000Y-99803000D01*
X118433000Y-99803000D01*
X118433000Y-99783000D01*
X118687000Y-99783000D01*
X118687000Y-99803000D01*
X119880155Y-99803000D01*
X120001476Y-99573110D01*
X119956825Y-99425901D01*
X119831641Y-99163080D01*
X119657588Y-98929731D01*
X119441355Y-98734822D01*
X119324466Y-98665195D01*
X119506632Y-98543475D01*
X119713475Y-98336632D01*
X119875990Y-98093411D01*
X119987932Y-97823158D01*
X120045000Y-97536260D01*
X120045000Y-97243740D01*
X119987932Y-96956842D01*
X119875990Y-96686589D01*
X119713475Y-96443368D01*
X119506632Y-96236525D01*
X119332240Y-96120000D01*
X119506632Y-96003475D01*
X119713475Y-95796632D01*
X119875990Y-95553411D01*
X119987932Y-95283158D01*
X120045000Y-94996260D01*
X120045000Y-94703740D01*
X119987932Y-94416842D01*
X119875990Y-94146589D01*
X119713475Y-93903368D01*
X119506632Y-93696525D01*
X119332240Y-93580000D01*
X119506632Y-93463475D01*
X119713475Y-93256632D01*
X119875990Y-93013411D01*
X119987932Y-92743158D01*
X120045000Y-92456260D01*
X120045000Y-92163740D01*
X119987932Y-91876842D01*
X119875990Y-91606589D01*
X119713475Y-91363368D01*
X119581620Y-91231513D01*
X119654180Y-91209502D01*
X119764494Y-91150537D01*
X119849333Y-91080911D01*
X120341928Y-91573506D01*
G37*
X120341928Y-91573506D02*
X120341928Y-92540000D01*
X120354188Y-92664482D01*
X120390498Y-92784180D01*
X120449463Y-92894494D01*
X120528815Y-92991185D01*
X120625506Y-93070537D01*
X120735820Y-93129502D01*
X120845001Y-93162622D01*
X120845000Y-99696531D01*
X120840719Y-99740000D01*
X120845000Y-99783469D01*
X120845000Y-99783476D01*
X120857805Y-99913489D01*
X120908411Y-100080312D01*
X120990589Y-100234058D01*
X121101183Y-100368817D01*
X121134956Y-100396534D01*
X121473423Y-100735001D01*
X119803237Y-100735001D01*
X119831641Y-100696920D01*
X119956825Y-100434099D01*
X120001476Y-100286890D01*
X119880155Y-100057000D01*
X118687000Y-100057000D01*
X118687000Y-100077000D01*
X118433000Y-100077000D01*
X118433000Y-100057000D01*
X118413000Y-100057000D01*
X118413000Y-99803000D01*
X118433000Y-99803000D01*
X118433000Y-99783000D01*
X118687000Y-99783000D01*
X118687000Y-99803000D01*
X119880155Y-99803000D01*
X120001476Y-99573110D01*
X119956825Y-99425901D01*
X119831641Y-99163080D01*
X119657588Y-98929731D01*
X119441355Y-98734822D01*
X119324466Y-98665195D01*
X119506632Y-98543475D01*
X119713475Y-98336632D01*
X119875990Y-98093411D01*
X119987932Y-97823158D01*
X120045000Y-97536260D01*
X120045000Y-97243740D01*
X119987932Y-96956842D01*
X119875990Y-96686589D01*
X119713475Y-96443368D01*
X119506632Y-96236525D01*
X119332240Y-96120000D01*
X119506632Y-96003475D01*
X119713475Y-95796632D01*
X119875990Y-95553411D01*
X119987932Y-95283158D01*
X120045000Y-94996260D01*
X120045000Y-94703740D01*
X119987932Y-94416842D01*
X119875990Y-94146589D01*
X119713475Y-93903368D01*
X119506632Y-93696525D01*
X119332240Y-93580000D01*
X119506632Y-93463475D01*
X119713475Y-93256632D01*
X119875990Y-93013411D01*
X119987932Y-92743158D01*
X120045000Y-92456260D01*
X120045000Y-92163740D01*
X119987932Y-91876842D01*
X119875990Y-91606589D01*
X119713475Y-91363368D01*
X119581620Y-91231513D01*
X119654180Y-91209502D01*
X119764494Y-91150537D01*
X119849333Y-91080911D01*
X120341928Y-91573506D01*
G36*
X126837000Y-91883000D02*
G01*
X126857000Y-91883000D01*
X126857000Y-92137000D01*
X126837000Y-92137000D01*
X126837000Y-92157000D01*
X126583000Y-92157000D01*
X126583000Y-92137000D01*
X126563000Y-92137000D01*
X126563000Y-91883000D01*
X126583000Y-91883000D01*
X126583000Y-91863000D01*
X126837000Y-91863000D01*
X126837000Y-91883000D01*
G37*
X126837000Y-91883000D02*
X126857000Y-91883000D01*
X126857000Y-92137000D01*
X126837000Y-92137000D01*
X126837000Y-92157000D01*
X126583000Y-92157000D01*
X126583000Y-92137000D01*
X126563000Y-92137000D01*
X126563000Y-91883000D01*
X126583000Y-91883000D01*
X126583000Y-91863000D01*
X126837000Y-91863000D01*
X126837000Y-91883000D01*
G36*
X122290001Y-74034803D02*
G01*
X122290000Y-85750750D01*
X122237000Y-85803750D01*
X122237000Y-87053000D01*
X122257000Y-87053000D01*
X122257000Y-87307000D01*
X122237000Y-87307000D01*
X122237000Y-87327000D01*
X122044999Y-87327000D01*
X122044999Y-75992321D01*
X122048675Y-75954998D01*
X122044999Y-75917675D01*
X122044999Y-75917666D01*
X122034002Y-75806013D01*
X121990545Y-75662752D01*
X121919973Y-75530723D01*
X121825000Y-75414998D01*
X121795996Y-75391195D01*
X121573804Y-75169003D01*
X121550001Y-75139999D01*
X121434276Y-75045026D01*
X121372634Y-75012077D01*
X121349502Y-74935820D01*
X121290537Y-74825506D01*
X121211185Y-74728815D01*
X121151704Y-74680000D01*
X121211185Y-74631185D01*
X121290537Y-74534494D01*
X121349502Y-74424180D01*
X121385812Y-74304482D01*
X121398072Y-74180000D01*
X121398072Y-73180000D01*
X121394016Y-73138817D01*
X122290001Y-74034803D01*
G37*
X122290001Y-74034803D02*
X122290000Y-85750750D01*
X122237000Y-85803750D01*
X122237000Y-87053000D01*
X122257000Y-87053000D01*
X122257000Y-87307000D01*
X122237000Y-87307000D01*
X122237000Y-87327000D01*
X122044999Y-87327000D01*
X122044999Y-75992321D01*
X122048675Y-75954998D01*
X122044999Y-75917675D01*
X122044999Y-75917666D01*
X122034002Y-75806013D01*
X121990545Y-75662752D01*
X121919973Y-75530723D01*
X121825000Y-75414998D01*
X121795996Y-75391195D01*
X121573804Y-75169003D01*
X121550001Y-75139999D01*
X121434276Y-75045026D01*
X121372634Y-75012077D01*
X121349502Y-74935820D01*
X121290537Y-74825506D01*
X121211185Y-74728815D01*
X121151704Y-74680000D01*
X121211185Y-74631185D01*
X121290537Y-74534494D01*
X121349502Y-74424180D01*
X121385812Y-74304482D01*
X121398072Y-74180000D01*
X121398072Y-73180000D01*
X121394016Y-73138817D01*
X122290001Y-74034803D01*
G36*
X128581162Y-44787507D02*
G01*
X129742190Y-45064203D01*
X130859370Y-45484228D01*
X131915104Y-46040964D01*
X132892734Y-46725627D01*
X133776846Y-47527423D01*
X134553496Y-48433706D01*
X135210433Y-49430181D01*
X135737296Y-50501128D01*
X136125781Y-51629673D01*
X136369761Y-52798016D01*
X136466355Y-53999801D01*
X136462186Y-54473079D01*
X136461900Y-54475982D01*
X136461900Y-70790612D01*
X136411185Y-70728815D01*
X136314494Y-70649463D01*
X136204180Y-70590498D01*
X136084482Y-70554188D01*
X135960000Y-70541928D01*
X133460000Y-70541928D01*
X133335518Y-70554188D01*
X133215820Y-70590498D01*
X133105506Y-70649463D01*
X133008815Y-70728815D01*
X132929463Y-70825506D01*
X132870498Y-70935820D01*
X132834188Y-71055518D01*
X132821928Y-71180000D01*
X132821928Y-72180000D01*
X132834188Y-72304482D01*
X132870498Y-72424180D01*
X132929463Y-72534494D01*
X133008815Y-72631185D01*
X133068296Y-72680000D01*
X133008815Y-72728815D01*
X132929463Y-72825506D01*
X132870498Y-72935820D01*
X132834188Y-73055518D01*
X132821928Y-73180000D01*
X132821928Y-74180000D01*
X132834188Y-74304482D01*
X132870498Y-74424180D01*
X132929463Y-74534494D01*
X133008815Y-74631185D01*
X133068296Y-74680000D01*
X133008815Y-74728815D01*
X132929463Y-74825506D01*
X132870498Y-74935820D01*
X132834188Y-75055518D01*
X132821928Y-75180000D01*
X132821928Y-76180000D01*
X132834188Y-76304482D01*
X132870498Y-76424180D01*
X132929463Y-76534494D01*
X133008815Y-76631185D01*
X133068296Y-76680000D01*
X133008815Y-76728815D01*
X132929463Y-76825506D01*
X132870498Y-76935820D01*
X132834188Y-77055518D01*
X132821928Y-77180000D01*
X132821928Y-78180000D01*
X132834188Y-78304482D01*
X132870498Y-78424180D01*
X132929463Y-78534494D01*
X133008815Y-78631185D01*
X133068296Y-78680000D01*
X133008815Y-78728815D01*
X132929463Y-78825506D01*
X132870498Y-78935820D01*
X132834188Y-79055518D01*
X132821928Y-79180000D01*
X132821928Y-80180000D01*
X132834188Y-80304482D01*
X132870498Y-80424180D01*
X132929463Y-80534494D01*
X133008815Y-80631185D01*
X133068296Y-80680000D01*
X133008815Y-80728815D01*
X132929463Y-80825506D01*
X132870498Y-80935820D01*
X132834188Y-81055518D01*
X132821928Y-81180000D01*
X132821928Y-82180000D01*
X132834188Y-82304482D01*
X132870498Y-82424180D01*
X132929463Y-82534494D01*
X133008815Y-82631185D01*
X133068296Y-82680000D01*
X133008815Y-82728815D01*
X132929463Y-82825506D01*
X132870498Y-82935820D01*
X132834188Y-83055518D01*
X132821928Y-83180000D01*
X132821928Y-84180000D01*
X132834188Y-84304482D01*
X132870498Y-84424180D01*
X132929463Y-84534494D01*
X133008815Y-84631185D01*
X133068296Y-84680000D01*
X133008815Y-84728815D01*
X132929463Y-84825506D01*
X132870498Y-84935820D01*
X132834188Y-85055518D01*
X132821928Y-85180000D01*
X132821928Y-85680714D01*
X132734482Y-85654188D01*
X132610000Y-85641928D01*
X131610000Y-85641928D01*
X131485518Y-85654188D01*
X131365820Y-85690498D01*
X131255506Y-85749463D01*
X131158815Y-85828815D01*
X131110000Y-85888296D01*
X131061185Y-85828815D01*
X130964494Y-85749463D01*
X130854180Y-85690498D01*
X130734482Y-85654188D01*
X130610000Y-85641928D01*
X129610000Y-85641928D01*
X129485518Y-85654188D01*
X129365820Y-85690498D01*
X129255506Y-85749463D01*
X129158815Y-85828815D01*
X129110000Y-85888296D01*
X129061185Y-85828815D01*
X128964494Y-85749463D01*
X128854180Y-85690498D01*
X128734482Y-85654188D01*
X128610000Y-85641928D01*
X127610000Y-85641928D01*
X127485518Y-85654188D01*
X127365820Y-85690498D01*
X127255506Y-85749463D01*
X127158815Y-85828815D01*
X127110000Y-85888296D01*
X127061185Y-85828815D01*
X126964494Y-85749463D01*
X126854180Y-85690498D01*
X126734482Y-85654188D01*
X126610000Y-85641928D01*
X125610000Y-85641928D01*
X125485518Y-85654188D01*
X125365820Y-85690498D01*
X125255506Y-85749463D01*
X125158815Y-85828815D01*
X125110000Y-85888296D01*
X125061185Y-85828815D01*
X124964494Y-85749463D01*
X124854180Y-85690498D01*
X124734482Y-85654188D01*
X124610000Y-85641928D01*
X123810000Y-85641928D01*
X123810000Y-73757325D01*
X123813676Y-73720000D01*
X123810000Y-73682675D01*
X123810000Y-73682667D01*
X123799003Y-73571014D01*
X123755546Y-73427753D01*
X123684974Y-73295724D01*
X123590001Y-73179999D01*
X123561003Y-73156201D01*
X121573804Y-71169003D01*
X121550001Y-71139999D01*
X121434276Y-71045026D01*
X121372634Y-71012077D01*
X121349502Y-70935820D01*
X121290537Y-70825506D01*
X121211185Y-70728815D01*
X121114494Y-70649463D01*
X121004180Y-70590498D01*
X120884482Y-70554188D01*
X120760000Y-70541928D01*
X118806729Y-70541928D01*
X118590000Y-70325199D01*
X118590000Y-63810002D01*
X118590001Y-63810001D01*
X118684974Y-63694276D01*
X118755546Y-63562247D01*
X118799003Y-63418986D01*
X118810000Y-63307333D01*
X118810000Y-63307323D01*
X118813676Y-63270000D01*
X118810000Y-63232678D01*
X118810000Y-63059870D01*
X118844180Y-63049502D01*
X118954494Y-62990537D01*
X119051185Y-62911185D01*
X119130537Y-62814494D01*
X119189502Y-62704180D01*
X119225812Y-62584482D01*
X119238072Y-62460000D01*
X119238072Y-62364326D01*
X119274276Y-62344974D01*
X119390001Y-62250001D01*
X119413804Y-62220997D01*
X119793225Y-61841576D01*
X120078960Y-62032498D01*
X120434748Y-62179870D01*
X120812449Y-62255000D01*
X121197551Y-62255000D01*
X121575252Y-62179870D01*
X121931040Y-62032498D01*
X122251240Y-61818547D01*
X122523547Y-61546240D01*
X122737498Y-61226040D01*
X122884870Y-60870252D01*
X122960000Y-60492551D01*
X122960000Y-60107449D01*
X122884870Y-59729748D01*
X122737498Y-59373960D01*
X122523547Y-59053760D01*
X122251240Y-58781453D01*
X122092541Y-58675413D01*
X126044192Y-58675413D01*
X126139956Y-58939814D01*
X126429571Y-59080704D01*
X126741108Y-59162384D01*
X127062595Y-59181718D01*
X127381675Y-59137961D01*
X127686088Y-59032795D01*
X127860044Y-58939814D01*
X127955808Y-58675413D01*
X127000000Y-57719605D01*
X126044192Y-58675413D01*
X122092541Y-58675413D01*
X121931040Y-58567502D01*
X121575252Y-58420130D01*
X121197551Y-58345000D01*
X120812449Y-58345000D01*
X120434748Y-58420130D01*
X120119999Y-58550503D01*
X120119999Y-57602595D01*
X125358282Y-57602595D01*
X125402039Y-57921675D01*
X125507205Y-58226088D01*
X125600186Y-58400044D01*
X125864587Y-58495808D01*
X126820395Y-57540000D01*
X127179605Y-57540000D01*
X128135413Y-58495808D01*
X128399814Y-58400044D01*
X128540704Y-58110429D01*
X128622384Y-57798892D01*
X128641718Y-57477405D01*
X128597961Y-57158325D01*
X128492795Y-56853912D01*
X128399814Y-56679956D01*
X128135413Y-56584192D01*
X127179605Y-57540000D01*
X126820395Y-57540000D01*
X125864587Y-56584192D01*
X125600186Y-56679956D01*
X125459296Y-56969571D01*
X125377616Y-57281108D01*
X125358282Y-57602595D01*
X120119999Y-57602595D01*
X120119999Y-56654802D01*
X120370214Y-56404587D01*
X126044192Y-56404587D01*
X127000000Y-57360395D01*
X127955808Y-56404587D01*
X127860044Y-56140186D01*
X127570429Y-55999296D01*
X127258892Y-55917616D01*
X126937405Y-55898282D01*
X126618325Y-55942039D01*
X126313912Y-56047205D01*
X126139956Y-56140186D01*
X126044192Y-56404587D01*
X120370214Y-56404587D01*
X123333237Y-53441565D01*
X123339460Y-53438239D01*
X123373088Y-53452168D01*
X123688967Y-53515000D01*
X124011033Y-53515000D01*
X124326912Y-53452168D01*
X124624463Y-53328918D01*
X124892252Y-53149987D01*
X125119987Y-52922252D01*
X125298918Y-52654463D01*
X125313193Y-52620000D01*
X128886807Y-52620000D01*
X128901082Y-52654463D01*
X129080013Y-52922252D01*
X129307748Y-53149987D01*
X129575537Y-53328918D01*
X129873088Y-53452168D01*
X129890000Y-53455532D01*
X129890000Y-53992677D01*
X129886324Y-54030000D01*
X129890000Y-54067322D01*
X129890000Y-54067332D01*
X129900997Y-54178985D01*
X129923937Y-54254608D01*
X129944454Y-54322246D01*
X130015026Y-54454276D01*
X130027931Y-54470000D01*
X130109999Y-54570001D01*
X130139003Y-54593804D01*
X130330000Y-54784801D01*
X130330001Y-57262913D01*
X130215518Y-57274188D01*
X130095820Y-57310498D01*
X129985506Y-57369463D01*
X129888815Y-57448815D01*
X129809463Y-57545506D01*
X129750498Y-57655820D01*
X129714188Y-57775518D01*
X129701928Y-57900000D01*
X129701928Y-59400000D01*
X129714188Y-59524482D01*
X129750498Y-59644180D01*
X129809463Y-59754494D01*
X129887842Y-59850000D01*
X129809463Y-59945506D01*
X129777023Y-60006196D01*
X129755472Y-59935150D01*
X129673405Y-59781614D01*
X129562962Y-59647038D01*
X129428386Y-59536595D01*
X129274850Y-59454528D01*
X129108254Y-59403992D01*
X128935000Y-59386928D01*
X127835000Y-59386928D01*
X127661746Y-59403992D01*
X127495150Y-59454528D01*
X127341614Y-59536595D01*
X127207038Y-59647038D01*
X127096595Y-59781614D01*
X127014528Y-59935150D01*
X126963992Y-60101746D01*
X126960000Y-60142278D01*
X126956008Y-60101746D01*
X126905472Y-59935150D01*
X126823405Y-59781614D01*
X126712962Y-59647038D01*
X126578386Y-59536595D01*
X126424850Y-59454528D01*
X126258254Y-59403992D01*
X126085000Y-59386928D01*
X124985000Y-59386928D01*
X124811746Y-59403992D01*
X124645150Y-59454528D01*
X124491614Y-59536595D01*
X124357038Y-59647038D01*
X124246595Y-59781614D01*
X124164528Y-59935150D01*
X124113992Y-60101746D01*
X124096928Y-60275000D01*
X124096928Y-61425000D01*
X124113992Y-61598254D01*
X124164528Y-61764850D01*
X124246595Y-61918386D01*
X124357038Y-62052962D01*
X124491614Y-62163405D01*
X124645150Y-62245472D01*
X124811746Y-62296008D01*
X124985000Y-62313072D01*
X126085000Y-62313072D01*
X126258254Y-62296008D01*
X126424850Y-62245472D01*
X126578386Y-62163405D01*
X126712962Y-62052962D01*
X126823405Y-61918386D01*
X126905472Y-61764850D01*
X126956008Y-61598254D01*
X126960000Y-61557722D01*
X126963992Y-61598254D01*
X127014528Y-61764850D01*
X127096595Y-61918386D01*
X127207038Y-62052962D01*
X127341614Y-62163405D01*
X127495150Y-62245472D01*
X127661746Y-62296008D01*
X127835000Y-62313072D01*
X128935000Y-62313072D01*
X129108254Y-62296008D01*
X129274850Y-62245472D01*
X129428386Y-62163405D01*
X129562962Y-62052962D01*
X129673405Y-61918386D01*
X129707336Y-61854906D01*
X129714188Y-61924482D01*
X129750498Y-62044180D01*
X129809463Y-62154494D01*
X129888815Y-62251185D01*
X129985506Y-62330537D01*
X130095820Y-62389502D01*
X130215518Y-62425812D01*
X130340000Y-62438072D01*
X131840000Y-62438072D01*
X131964482Y-62425812D01*
X132084180Y-62389502D01*
X132194494Y-62330537D01*
X132291185Y-62251185D01*
X132370537Y-62154494D01*
X132429502Y-62044180D01*
X132465812Y-61924482D01*
X132478072Y-61800000D01*
X132478072Y-60300000D01*
X132465812Y-60175518D01*
X132429502Y-60055820D01*
X132370537Y-59945506D01*
X132292158Y-59850000D01*
X132370537Y-59754494D01*
X132429502Y-59644180D01*
X132465812Y-59524482D01*
X132478072Y-59400000D01*
X132478072Y-57900000D01*
X132465812Y-57775518D01*
X132429502Y-57655820D01*
X132370537Y-57545506D01*
X132291185Y-57448815D01*
X132194494Y-57369463D01*
X132084180Y-57310498D01*
X131964482Y-57274188D01*
X131850000Y-57262913D01*
X131850000Y-54507323D01*
X131853676Y-54470000D01*
X131850000Y-54432677D01*
X131850000Y-54432667D01*
X131839003Y-54321014D01*
X131795546Y-54177753D01*
X131775340Y-54139950D01*
X131724974Y-54045723D01*
X131690031Y-54003146D01*
X131630001Y-53929999D01*
X131600998Y-53906197D01*
X131410000Y-53715199D01*
X131410000Y-53132239D01*
X131619987Y-52922252D01*
X131798918Y-52654463D01*
X131922168Y-52356912D01*
X131985000Y-52041033D01*
X131985000Y-51718967D01*
X131922168Y-51403088D01*
X131798918Y-51105537D01*
X131619987Y-50837748D01*
X131392252Y-50610013D01*
X131124463Y-50431082D01*
X130826912Y-50307832D01*
X130511033Y-50245000D01*
X130188967Y-50245000D01*
X129873088Y-50307832D01*
X129575537Y-50431082D01*
X129307748Y-50610013D01*
X129080013Y-50837748D01*
X128904782Y-51100000D01*
X125295218Y-51100000D01*
X125119987Y-50837748D01*
X124892252Y-50610013D01*
X124624463Y-50431082D01*
X124326912Y-50307832D01*
X124011033Y-50245000D01*
X123688967Y-50245000D01*
X123373088Y-50307832D01*
X123075537Y-50431082D01*
X122807748Y-50610013D01*
X122580013Y-50837748D01*
X122401082Y-51105537D01*
X122277832Y-51403088D01*
X122215000Y-51718967D01*
X122215000Y-52041033D01*
X122276248Y-52348950D01*
X118848997Y-55776202D01*
X118819999Y-55800000D01*
X118796201Y-55828998D01*
X118796200Y-55828999D01*
X118725025Y-55915725D01*
X118654453Y-56047755D01*
X118610997Y-56191016D01*
X118596323Y-56340001D01*
X118600000Y-56377333D01*
X118600000Y-58021928D01*
X118335750Y-58025000D01*
X118177000Y-58183750D01*
X118177000Y-59283000D01*
X118197000Y-59283000D01*
X118197000Y-59537000D01*
X118177000Y-59537000D01*
X118177000Y-59557000D01*
X117923000Y-59557000D01*
X117923000Y-59537000D01*
X117903000Y-59537000D01*
X117903000Y-59283000D01*
X117923000Y-59283000D01*
X117923000Y-58183750D01*
X117764250Y-58025000D01*
X117500000Y-58021928D01*
X117459016Y-58025964D01*
X117458824Y-54344370D01*
X117514269Y-53125589D01*
X117717517Y-51949482D01*
X118066566Y-50808129D01*
X118555912Y-49719523D01*
X119177840Y-48700831D01*
X119325881Y-48515413D01*
X122894192Y-48515413D01*
X122989956Y-48779814D01*
X123279571Y-48920704D01*
X123591108Y-49002384D01*
X123912595Y-49021718D01*
X124231675Y-48977961D01*
X124536088Y-48872795D01*
X124710044Y-48779814D01*
X124805808Y-48515413D01*
X129394192Y-48515413D01*
X129489956Y-48779814D01*
X129779571Y-48920704D01*
X130091108Y-49002384D01*
X130412595Y-49021718D01*
X130731675Y-48977961D01*
X131036088Y-48872795D01*
X131210044Y-48779814D01*
X131305808Y-48515413D01*
X130350000Y-47559605D01*
X129394192Y-48515413D01*
X124805808Y-48515413D01*
X123850000Y-47559605D01*
X122894192Y-48515413D01*
X119325881Y-48515413D01*
X119922538Y-47768118D01*
X120257335Y-47442595D01*
X122208282Y-47442595D01*
X122252039Y-47761675D01*
X122357205Y-48066088D01*
X122450186Y-48240044D01*
X122714587Y-48335808D01*
X123670395Y-47380000D01*
X124029605Y-47380000D01*
X124985413Y-48335808D01*
X125249814Y-48240044D01*
X125390704Y-47950429D01*
X125472384Y-47638892D01*
X125484189Y-47442595D01*
X128708282Y-47442595D01*
X128752039Y-47761675D01*
X128857205Y-48066088D01*
X128950186Y-48240044D01*
X129214587Y-48335808D01*
X130170395Y-47380000D01*
X130529605Y-47380000D01*
X131485413Y-48335808D01*
X131749814Y-48240044D01*
X131890704Y-47950429D01*
X131972384Y-47638892D01*
X131991718Y-47317405D01*
X131947961Y-46998325D01*
X131842795Y-46693912D01*
X131749814Y-46519956D01*
X131485413Y-46424192D01*
X130529605Y-47380000D01*
X130170395Y-47380000D01*
X129214587Y-46424192D01*
X128950186Y-46519956D01*
X128809296Y-46809571D01*
X128727616Y-47121108D01*
X128708282Y-47442595D01*
X125484189Y-47442595D01*
X125491718Y-47317405D01*
X125447961Y-46998325D01*
X125342795Y-46693912D01*
X125249814Y-46519956D01*
X124985413Y-46424192D01*
X124029605Y-47380000D01*
X123670395Y-47380000D01*
X122714587Y-46424192D01*
X122450186Y-46519956D01*
X122309296Y-46809571D01*
X122227616Y-47121108D01*
X122208282Y-47442595D01*
X120257335Y-47442595D01*
X120778270Y-46936092D01*
X121696084Y-46244587D01*
X122894192Y-46244587D01*
X123850000Y-47200395D01*
X124805808Y-46244587D01*
X129394192Y-46244587D01*
X130350000Y-47200395D01*
X131305808Y-46244587D01*
X131210044Y-45980186D01*
X130920429Y-45839296D01*
X130608892Y-45757616D01*
X130287405Y-45738282D01*
X129968325Y-45782039D01*
X129663912Y-45887205D01*
X129489956Y-45980186D01*
X129394192Y-46244587D01*
X124805808Y-46244587D01*
X124710044Y-45980186D01*
X124420429Y-45839296D01*
X124108892Y-45757616D01*
X123787405Y-45738282D01*
X123468325Y-45782039D01*
X123163912Y-45887205D01*
X122989956Y-45980186D01*
X122894192Y-46244587D01*
X121696084Y-46244587D01*
X121731524Y-46217886D01*
X122767284Y-45624813D01*
X123869208Y-45166232D01*
X125019911Y-44849377D01*
X126201266Y-44679241D01*
X127394615Y-44658508D01*
X128581162Y-44787507D01*
G37*
X128581162Y-44787507D02*
X129742190Y-45064203D01*
X130859370Y-45484228D01*
X131915104Y-46040964D01*
X132892734Y-46725627D01*
X133776846Y-47527423D01*
X134553496Y-48433706D01*
X135210433Y-49430181D01*
X135737296Y-50501128D01*
X136125781Y-51629673D01*
X136369761Y-52798016D01*
X136466355Y-53999801D01*
X136462186Y-54473079D01*
X136461900Y-54475982D01*
X136461900Y-70790612D01*
X136411185Y-70728815D01*
X136314494Y-70649463D01*
X136204180Y-70590498D01*
X136084482Y-70554188D01*
X135960000Y-70541928D01*
X133460000Y-70541928D01*
X133335518Y-70554188D01*
X133215820Y-70590498D01*
X133105506Y-70649463D01*
X133008815Y-70728815D01*
X132929463Y-70825506D01*
X132870498Y-70935820D01*
X132834188Y-71055518D01*
X132821928Y-71180000D01*
X132821928Y-72180000D01*
X132834188Y-72304482D01*
X132870498Y-72424180D01*
X132929463Y-72534494D01*
X133008815Y-72631185D01*
X133068296Y-72680000D01*
X133008815Y-72728815D01*
X132929463Y-72825506D01*
X132870498Y-72935820D01*
X132834188Y-73055518D01*
X132821928Y-73180000D01*
X132821928Y-74180000D01*
X132834188Y-74304482D01*
X132870498Y-74424180D01*
X132929463Y-74534494D01*
X133008815Y-74631185D01*
X133068296Y-74680000D01*
X133008815Y-74728815D01*
X132929463Y-74825506D01*
X132870498Y-74935820D01*
X132834188Y-75055518D01*
X132821928Y-75180000D01*
X132821928Y-76180000D01*
X132834188Y-76304482D01*
X132870498Y-76424180D01*
X132929463Y-76534494D01*
X133008815Y-76631185D01*
X133068296Y-76680000D01*
X133008815Y-76728815D01*
X132929463Y-76825506D01*
X132870498Y-76935820D01*
X132834188Y-77055518D01*
X132821928Y-77180000D01*
X132821928Y-78180000D01*
X132834188Y-78304482D01*
X132870498Y-78424180D01*
X132929463Y-78534494D01*
X133008815Y-78631185D01*
X133068296Y-78680000D01*
X133008815Y-78728815D01*
X132929463Y-78825506D01*
X132870498Y-78935820D01*
X132834188Y-79055518D01*
X132821928Y-79180000D01*
X132821928Y-80180000D01*
X132834188Y-80304482D01*
X132870498Y-80424180D01*
X132929463Y-80534494D01*
X133008815Y-80631185D01*
X133068296Y-80680000D01*
X133008815Y-80728815D01*
X132929463Y-80825506D01*
X132870498Y-80935820D01*
X132834188Y-81055518D01*
X132821928Y-81180000D01*
X132821928Y-82180000D01*
X132834188Y-82304482D01*
X132870498Y-82424180D01*
X132929463Y-82534494D01*
X133008815Y-82631185D01*
X133068296Y-82680000D01*
X133008815Y-82728815D01*
X132929463Y-82825506D01*
X132870498Y-82935820D01*
X132834188Y-83055518D01*
X132821928Y-83180000D01*
X132821928Y-84180000D01*
X132834188Y-84304482D01*
X132870498Y-84424180D01*
X132929463Y-84534494D01*
X133008815Y-84631185D01*
X133068296Y-84680000D01*
X133008815Y-84728815D01*
X132929463Y-84825506D01*
X132870498Y-84935820D01*
X132834188Y-85055518D01*
X132821928Y-85180000D01*
X132821928Y-85680714D01*
X132734482Y-85654188D01*
X132610000Y-85641928D01*
X131610000Y-85641928D01*
X131485518Y-85654188D01*
X131365820Y-85690498D01*
X131255506Y-85749463D01*
X131158815Y-85828815D01*
X131110000Y-85888296D01*
X131061185Y-85828815D01*
X130964494Y-85749463D01*
X130854180Y-85690498D01*
X130734482Y-85654188D01*
X130610000Y-85641928D01*
X129610000Y-85641928D01*
X129485518Y-85654188D01*
X129365820Y-85690498D01*
X129255506Y-85749463D01*
X129158815Y-85828815D01*
X129110000Y-85888296D01*
X129061185Y-85828815D01*
X128964494Y-85749463D01*
X128854180Y-85690498D01*
X128734482Y-85654188D01*
X128610000Y-85641928D01*
X127610000Y-85641928D01*
X127485518Y-85654188D01*
X127365820Y-85690498D01*
X127255506Y-85749463D01*
X127158815Y-85828815D01*
X127110000Y-85888296D01*
X127061185Y-85828815D01*
X126964494Y-85749463D01*
X126854180Y-85690498D01*
X126734482Y-85654188D01*
X126610000Y-85641928D01*
X125610000Y-85641928D01*
X125485518Y-85654188D01*
X125365820Y-85690498D01*
X125255506Y-85749463D01*
X125158815Y-85828815D01*
X125110000Y-85888296D01*
X125061185Y-85828815D01*
X124964494Y-85749463D01*
X124854180Y-85690498D01*
X124734482Y-85654188D01*
X124610000Y-85641928D01*
X123810000Y-85641928D01*
X123810000Y-73757325D01*
X123813676Y-73720000D01*
X123810000Y-73682675D01*
X123810000Y-73682667D01*
X123799003Y-73571014D01*
X123755546Y-73427753D01*
X123684974Y-73295724D01*
X123590001Y-73179999D01*
X123561003Y-73156201D01*
X121573804Y-71169003D01*
X121550001Y-71139999D01*
X121434276Y-71045026D01*
X121372634Y-71012077D01*
X121349502Y-70935820D01*
X121290537Y-70825506D01*
X121211185Y-70728815D01*
X121114494Y-70649463D01*
X121004180Y-70590498D01*
X120884482Y-70554188D01*
X120760000Y-70541928D01*
X118806729Y-70541928D01*
X118590000Y-70325199D01*
X118590000Y-63810002D01*
X118590001Y-63810001D01*
X118684974Y-63694276D01*
X118755546Y-63562247D01*
X118799003Y-63418986D01*
X118810000Y-63307333D01*
X118810000Y-63307323D01*
X118813676Y-63270000D01*
X118810000Y-63232678D01*
X118810000Y-63059870D01*
X118844180Y-63049502D01*
X118954494Y-62990537D01*
X119051185Y-62911185D01*
X119130537Y-62814494D01*
X119189502Y-62704180D01*
X119225812Y-62584482D01*
X119238072Y-62460000D01*
X119238072Y-62364326D01*
X119274276Y-62344974D01*
X119390001Y-62250001D01*
X119413804Y-62220997D01*
X119793225Y-61841576D01*
X120078960Y-62032498D01*
X120434748Y-62179870D01*
X120812449Y-62255000D01*
X121197551Y-62255000D01*
X121575252Y-62179870D01*
X121931040Y-62032498D01*
X122251240Y-61818547D01*
X122523547Y-61546240D01*
X122737498Y-61226040D01*
X122884870Y-60870252D01*
X122960000Y-60492551D01*
X122960000Y-60107449D01*
X122884870Y-59729748D01*
X122737498Y-59373960D01*
X122523547Y-59053760D01*
X122251240Y-58781453D01*
X122092541Y-58675413D01*
X126044192Y-58675413D01*
X126139956Y-58939814D01*
X126429571Y-59080704D01*
X126741108Y-59162384D01*
X127062595Y-59181718D01*
X127381675Y-59137961D01*
X127686088Y-59032795D01*
X127860044Y-58939814D01*
X127955808Y-58675413D01*
X127000000Y-57719605D01*
X126044192Y-58675413D01*
X122092541Y-58675413D01*
X121931040Y-58567502D01*
X121575252Y-58420130D01*
X121197551Y-58345000D01*
X120812449Y-58345000D01*
X120434748Y-58420130D01*
X120119999Y-58550503D01*
X120119999Y-57602595D01*
X125358282Y-57602595D01*
X125402039Y-57921675D01*
X125507205Y-58226088D01*
X125600186Y-58400044D01*
X125864587Y-58495808D01*
X126820395Y-57540000D01*
X127179605Y-57540000D01*
X128135413Y-58495808D01*
X128399814Y-58400044D01*
X128540704Y-58110429D01*
X128622384Y-57798892D01*
X128641718Y-57477405D01*
X128597961Y-57158325D01*
X128492795Y-56853912D01*
X128399814Y-56679956D01*
X128135413Y-56584192D01*
X127179605Y-57540000D01*
X126820395Y-57540000D01*
X125864587Y-56584192D01*
X125600186Y-56679956D01*
X125459296Y-56969571D01*
X125377616Y-57281108D01*
X125358282Y-57602595D01*
X120119999Y-57602595D01*
X120119999Y-56654802D01*
X120370214Y-56404587D01*
X126044192Y-56404587D01*
X127000000Y-57360395D01*
X127955808Y-56404587D01*
X127860044Y-56140186D01*
X127570429Y-55999296D01*
X127258892Y-55917616D01*
X126937405Y-55898282D01*
X126618325Y-55942039D01*
X126313912Y-56047205D01*
X126139956Y-56140186D01*
X126044192Y-56404587D01*
X120370214Y-56404587D01*
X123333237Y-53441565D01*
X123339460Y-53438239D01*
X123373088Y-53452168D01*
X123688967Y-53515000D01*
X124011033Y-53515000D01*
X124326912Y-53452168D01*
X124624463Y-53328918D01*
X124892252Y-53149987D01*
X125119987Y-52922252D01*
X125298918Y-52654463D01*
X125313193Y-52620000D01*
X128886807Y-52620000D01*
X128901082Y-52654463D01*
X129080013Y-52922252D01*
X129307748Y-53149987D01*
X129575537Y-53328918D01*
X129873088Y-53452168D01*
X129890000Y-53455532D01*
X129890000Y-53992677D01*
X129886324Y-54030000D01*
X129890000Y-54067322D01*
X129890000Y-54067332D01*
X129900997Y-54178985D01*
X129923937Y-54254608D01*
X129944454Y-54322246D01*
X130015026Y-54454276D01*
X130027931Y-54470000D01*
X130109999Y-54570001D01*
X130139003Y-54593804D01*
X130330000Y-54784801D01*
X130330001Y-57262913D01*
X130215518Y-57274188D01*
X130095820Y-57310498D01*
X129985506Y-57369463D01*
X129888815Y-57448815D01*
X129809463Y-57545506D01*
X129750498Y-57655820D01*
X129714188Y-57775518D01*
X129701928Y-57900000D01*
X129701928Y-59400000D01*
X129714188Y-59524482D01*
X129750498Y-59644180D01*
X129809463Y-59754494D01*
X129887842Y-59850000D01*
X129809463Y-59945506D01*
X129777023Y-60006196D01*
X129755472Y-59935150D01*
X129673405Y-59781614D01*
X129562962Y-59647038D01*
X129428386Y-59536595D01*
X129274850Y-59454528D01*
X129108254Y-59403992D01*
X128935000Y-59386928D01*
X127835000Y-59386928D01*
X127661746Y-59403992D01*
X127495150Y-59454528D01*
X127341614Y-59536595D01*
X127207038Y-59647038D01*
X127096595Y-59781614D01*
X127014528Y-59935150D01*
X126963992Y-60101746D01*
X126960000Y-60142278D01*
X126956008Y-60101746D01*
X126905472Y-59935150D01*
X126823405Y-59781614D01*
X126712962Y-59647038D01*
X126578386Y-59536595D01*
X126424850Y-59454528D01*
X126258254Y-59403992D01*
X126085000Y-59386928D01*
X124985000Y-59386928D01*
X124811746Y-59403992D01*
X124645150Y-59454528D01*
X124491614Y-59536595D01*
X124357038Y-59647038D01*
X124246595Y-59781614D01*
X124164528Y-59935150D01*
X124113992Y-60101746D01*
X124096928Y-60275000D01*
X124096928Y-61425000D01*
X124113992Y-61598254D01*
X124164528Y-61764850D01*
X124246595Y-61918386D01*
X124357038Y-62052962D01*
X124491614Y-62163405D01*
X124645150Y-62245472D01*
X124811746Y-62296008D01*
X124985000Y-62313072D01*
X126085000Y-62313072D01*
X126258254Y-62296008D01*
X126424850Y-62245472D01*
X126578386Y-62163405D01*
X126712962Y-62052962D01*
X126823405Y-61918386D01*
X126905472Y-61764850D01*
X126956008Y-61598254D01*
X126960000Y-61557722D01*
X126963992Y-61598254D01*
X127014528Y-61764850D01*
X127096595Y-61918386D01*
X127207038Y-62052962D01*
X127341614Y-62163405D01*
X127495150Y-62245472D01*
X127661746Y-62296008D01*
X127835000Y-62313072D01*
X128935000Y-62313072D01*
X129108254Y-62296008D01*
X129274850Y-62245472D01*
X129428386Y-62163405D01*
X129562962Y-62052962D01*
X129673405Y-61918386D01*
X129707336Y-61854906D01*
X129714188Y-61924482D01*
X129750498Y-62044180D01*
X129809463Y-62154494D01*
X129888815Y-62251185D01*
X129985506Y-62330537D01*
X130095820Y-62389502D01*
X130215518Y-62425812D01*
X130340000Y-62438072D01*
X131840000Y-62438072D01*
X131964482Y-62425812D01*
X132084180Y-62389502D01*
X132194494Y-62330537D01*
X132291185Y-62251185D01*
X132370537Y-62154494D01*
X132429502Y-62044180D01*
X132465812Y-61924482D01*
X132478072Y-61800000D01*
X132478072Y-60300000D01*
X132465812Y-60175518D01*
X132429502Y-60055820D01*
X132370537Y-59945506D01*
X132292158Y-59850000D01*
X132370537Y-59754494D01*
X132429502Y-59644180D01*
X132465812Y-59524482D01*
X132478072Y-59400000D01*
X132478072Y-57900000D01*
X132465812Y-57775518D01*
X132429502Y-57655820D01*
X132370537Y-57545506D01*
X132291185Y-57448815D01*
X132194494Y-57369463D01*
X132084180Y-57310498D01*
X131964482Y-57274188D01*
X131850000Y-57262913D01*
X131850000Y-54507323D01*
X131853676Y-54470000D01*
X131850000Y-54432677D01*
X131850000Y-54432667D01*
X131839003Y-54321014D01*
X131795546Y-54177753D01*
X131775340Y-54139950D01*
X131724974Y-54045723D01*
X131690031Y-54003146D01*
X131630001Y-53929999D01*
X131600998Y-53906197D01*
X131410000Y-53715199D01*
X131410000Y-53132239D01*
X131619987Y-52922252D01*
X131798918Y-52654463D01*
X131922168Y-52356912D01*
X131985000Y-52041033D01*
X131985000Y-51718967D01*
X131922168Y-51403088D01*
X131798918Y-51105537D01*
X131619987Y-50837748D01*
X131392252Y-50610013D01*
X131124463Y-50431082D01*
X130826912Y-50307832D01*
X130511033Y-50245000D01*
X130188967Y-50245000D01*
X129873088Y-50307832D01*
X129575537Y-50431082D01*
X129307748Y-50610013D01*
X129080013Y-50837748D01*
X128904782Y-51100000D01*
X125295218Y-51100000D01*
X125119987Y-50837748D01*
X124892252Y-50610013D01*
X124624463Y-50431082D01*
X124326912Y-50307832D01*
X124011033Y-50245000D01*
X123688967Y-50245000D01*
X123373088Y-50307832D01*
X123075537Y-50431082D01*
X122807748Y-50610013D01*
X122580013Y-50837748D01*
X122401082Y-51105537D01*
X122277832Y-51403088D01*
X122215000Y-51718967D01*
X122215000Y-52041033D01*
X122276248Y-52348950D01*
X118848997Y-55776202D01*
X118819999Y-55800000D01*
X118796201Y-55828998D01*
X118796200Y-55828999D01*
X118725025Y-55915725D01*
X118654453Y-56047755D01*
X118610997Y-56191016D01*
X118596323Y-56340001D01*
X118600000Y-56377333D01*
X118600000Y-58021928D01*
X118335750Y-58025000D01*
X118177000Y-58183750D01*
X118177000Y-59283000D01*
X118197000Y-59283000D01*
X118197000Y-59537000D01*
X118177000Y-59537000D01*
X118177000Y-59557000D01*
X117923000Y-59557000D01*
X117923000Y-59537000D01*
X117903000Y-59537000D01*
X117903000Y-59283000D01*
X117923000Y-59283000D01*
X117923000Y-58183750D01*
X117764250Y-58025000D01*
X117500000Y-58021928D01*
X117459016Y-58025964D01*
X117458824Y-54344370D01*
X117514269Y-53125589D01*
X117717517Y-51949482D01*
X118066566Y-50808129D01*
X118555912Y-49719523D01*
X119177840Y-48700831D01*
X119325881Y-48515413D01*
X122894192Y-48515413D01*
X122989956Y-48779814D01*
X123279571Y-48920704D01*
X123591108Y-49002384D01*
X123912595Y-49021718D01*
X124231675Y-48977961D01*
X124536088Y-48872795D01*
X124710044Y-48779814D01*
X124805808Y-48515413D01*
X129394192Y-48515413D01*
X129489956Y-48779814D01*
X129779571Y-48920704D01*
X130091108Y-49002384D01*
X130412595Y-49021718D01*
X130731675Y-48977961D01*
X131036088Y-48872795D01*
X131210044Y-48779814D01*
X131305808Y-48515413D01*
X130350000Y-47559605D01*
X129394192Y-48515413D01*
X124805808Y-48515413D01*
X123850000Y-47559605D01*
X122894192Y-48515413D01*
X119325881Y-48515413D01*
X119922538Y-47768118D01*
X120257335Y-47442595D01*
X122208282Y-47442595D01*
X122252039Y-47761675D01*
X122357205Y-48066088D01*
X122450186Y-48240044D01*
X122714587Y-48335808D01*
X123670395Y-47380000D01*
X124029605Y-47380000D01*
X124985413Y-48335808D01*
X125249814Y-48240044D01*
X125390704Y-47950429D01*
X125472384Y-47638892D01*
X125484189Y-47442595D01*
X128708282Y-47442595D01*
X128752039Y-47761675D01*
X128857205Y-48066088D01*
X128950186Y-48240044D01*
X129214587Y-48335808D01*
X130170395Y-47380000D01*
X130529605Y-47380000D01*
X131485413Y-48335808D01*
X131749814Y-48240044D01*
X131890704Y-47950429D01*
X131972384Y-47638892D01*
X131991718Y-47317405D01*
X131947961Y-46998325D01*
X131842795Y-46693912D01*
X131749814Y-46519956D01*
X131485413Y-46424192D01*
X130529605Y-47380000D01*
X130170395Y-47380000D01*
X129214587Y-46424192D01*
X128950186Y-46519956D01*
X128809296Y-46809571D01*
X128727616Y-47121108D01*
X128708282Y-47442595D01*
X125484189Y-47442595D01*
X125491718Y-47317405D01*
X125447961Y-46998325D01*
X125342795Y-46693912D01*
X125249814Y-46519956D01*
X124985413Y-46424192D01*
X124029605Y-47380000D01*
X123670395Y-47380000D01*
X122714587Y-46424192D01*
X122450186Y-46519956D01*
X122309296Y-46809571D01*
X122227616Y-47121108D01*
X122208282Y-47442595D01*
X120257335Y-47442595D01*
X120778270Y-46936092D01*
X121696084Y-46244587D01*
X122894192Y-46244587D01*
X123850000Y-47200395D01*
X124805808Y-46244587D01*
X129394192Y-46244587D01*
X130350000Y-47200395D01*
X131305808Y-46244587D01*
X131210044Y-45980186D01*
X130920429Y-45839296D01*
X130608892Y-45757616D01*
X130287405Y-45738282D01*
X129968325Y-45782039D01*
X129663912Y-45887205D01*
X129489956Y-45980186D01*
X129394192Y-46244587D01*
X124805808Y-46244587D01*
X124710044Y-45980186D01*
X124420429Y-45839296D01*
X124108892Y-45757616D01*
X123787405Y-45738282D01*
X123468325Y-45782039D01*
X123163912Y-45887205D01*
X122989956Y-45980186D01*
X122894192Y-46244587D01*
X121696084Y-46244587D01*
X121731524Y-46217886D01*
X122767284Y-45624813D01*
X123869208Y-45166232D01*
X125019911Y-44849377D01*
X126201266Y-44679241D01*
X127394615Y-44658508D01*
X128581162Y-44787507D01*
M02*
