G04 #@! TF.GenerationSoftware,KiCad,Pcbnew,(5.1.5)-1*
G04 #@! TF.CreationDate,2021-02-18T15:35:30+01:00*
G04 #@! TF.ProjectId,button,62757474-6f6e-42e6-9b69-6361645f7063,rev?*
G04 #@! TF.SameCoordinates,Original*
G04 #@! TF.FileFunction,Legend,Top*
G04 #@! TF.FilePolarity,Positive*
%FSLAX46Y46*%
G04 Gerber Fmt 4.6, Leading zero omitted, Abs format (unit mm)*
G04 Created by KiCad (PCBNEW (5.1.5)-1) date 2021-02-18 15:35:30*
%MOMM*%
%LPD*%
G04 APERTURE LIST*
%ADD10C,0.150000*%
%ADD11C,0.120000*%
G04 APERTURE END LIST*
D10*
X121752380Y-112588571D02*
X121895238Y-112636190D01*
X121942857Y-112683809D01*
X121990476Y-112779047D01*
X121990476Y-112921904D01*
X121942857Y-113017142D01*
X121895238Y-113064761D01*
X121800000Y-113112380D01*
X121419047Y-113112380D01*
X121419047Y-112112380D01*
X121752380Y-112112380D01*
X121847619Y-112160000D01*
X121895238Y-112207619D01*
X121942857Y-112302857D01*
X121942857Y-112398095D01*
X121895238Y-112493333D01*
X121847619Y-112540952D01*
X121752380Y-112588571D01*
X121419047Y-112588571D01*
X122419047Y-112112380D02*
X122419047Y-112921904D01*
X122466666Y-113017142D01*
X122514285Y-113064761D01*
X122609523Y-113112380D01*
X122800000Y-113112380D01*
X122895238Y-113064761D01*
X122942857Y-113017142D01*
X122990476Y-112921904D01*
X122990476Y-112112380D01*
X123323809Y-112112380D02*
X123895238Y-112112380D01*
X123609523Y-113112380D02*
X123609523Y-112112380D01*
X124085714Y-112112380D02*
X124657142Y-112112380D01*
X124371428Y-113112380D02*
X124371428Y-112112380D01*
X125180952Y-112112380D02*
X125371428Y-112112380D01*
X125466666Y-112160000D01*
X125561904Y-112255238D01*
X125609523Y-112445714D01*
X125609523Y-112779047D01*
X125561904Y-112969523D01*
X125466666Y-113064761D01*
X125371428Y-113112380D01*
X125180952Y-113112380D01*
X125085714Y-113064761D01*
X124990476Y-112969523D01*
X124942857Y-112779047D01*
X124942857Y-112445714D01*
X124990476Y-112255238D01*
X125085714Y-112160000D01*
X125180952Y-112112380D01*
X126038095Y-113112380D02*
X126038095Y-112112380D01*
X126609523Y-113112380D01*
X126609523Y-112112380D01*
X127704761Y-112112380D02*
X128038095Y-113112380D01*
X128371428Y-112112380D01*
X129228571Y-113112380D02*
X128657142Y-113112380D01*
X128942857Y-113112380D02*
X128942857Y-112112380D01*
X128847619Y-112255238D01*
X128752380Y-112350476D01*
X128657142Y-112398095D01*
X129422380Y-82919047D02*
X130136666Y-82919047D01*
X130279523Y-82966666D01*
X130374761Y-83061904D01*
X130422380Y-83204761D01*
X130422380Y-83300000D01*
X130422380Y-81966666D02*
X130422380Y-82442857D01*
X129422380Y-82442857D01*
X130327142Y-81061904D02*
X130374761Y-81109523D01*
X130422380Y-81252380D01*
X130422380Y-81347619D01*
X130374761Y-81490476D01*
X130279523Y-81585714D01*
X130184285Y-81633333D01*
X129993809Y-81680952D01*
X129850952Y-81680952D01*
X129660476Y-81633333D01*
X129565238Y-81585714D01*
X129470000Y-81490476D01*
X129422380Y-81347619D01*
X129422380Y-81252380D01*
X129470000Y-81109523D01*
X129517619Y-81061904D01*
X129422380Y-80347619D02*
X130136666Y-80347619D01*
X130279523Y-80395238D01*
X130374761Y-80490476D01*
X130422380Y-80633333D01*
X130422380Y-80728571D01*
X130422380Y-79395238D02*
X130422380Y-79871428D01*
X129422380Y-79871428D01*
X130327142Y-78490476D02*
X130374761Y-78538095D01*
X130422380Y-78680952D01*
X130422380Y-78776190D01*
X130374761Y-78919047D01*
X130279523Y-79014285D01*
X130184285Y-79061904D01*
X129993809Y-79109523D01*
X129850952Y-79109523D01*
X129660476Y-79061904D01*
X129565238Y-79014285D01*
X129470000Y-78919047D01*
X129422380Y-78776190D01*
X129422380Y-78680952D01*
X129470000Y-78538095D01*
X129517619Y-78490476D01*
X129422380Y-77776190D02*
X130136666Y-77776190D01*
X130279523Y-77823809D01*
X130374761Y-77919047D01*
X130422380Y-78061904D01*
X130422380Y-78157142D01*
X130422380Y-76823809D02*
X130422380Y-77300000D01*
X129422380Y-77300000D01*
X130327142Y-75919047D02*
X130374761Y-75966666D01*
X130422380Y-76109523D01*
X130422380Y-76204761D01*
X130374761Y-76347619D01*
X130279523Y-76442857D01*
X130184285Y-76490476D01*
X129993809Y-76538095D01*
X129850952Y-76538095D01*
X129660476Y-76490476D01*
X129565238Y-76442857D01*
X129470000Y-76347619D01*
X129422380Y-76204761D01*
X129422380Y-76109523D01*
X129470000Y-75966666D01*
X129517619Y-75919047D01*
X129422380Y-75204761D02*
X130136666Y-75204761D01*
X130279523Y-75252380D01*
X130374761Y-75347619D01*
X130422380Y-75490476D01*
X130422380Y-75585714D01*
X130422380Y-74252380D02*
X130422380Y-74728571D01*
X129422380Y-74728571D01*
X130327142Y-73347619D02*
X130374761Y-73395238D01*
X130422380Y-73538095D01*
X130422380Y-73633333D01*
X130374761Y-73776190D01*
X130279523Y-73871428D01*
X130184285Y-73919047D01*
X129993809Y-73966666D01*
X129850952Y-73966666D01*
X129660476Y-73919047D01*
X129565238Y-73871428D01*
X129470000Y-73776190D01*
X129422380Y-73633333D01*
X129422380Y-73538095D01*
X129470000Y-73395238D01*
X129517619Y-73347619D01*
D11*
X127550000Y-107040000D02*
X130000000Y-107040000D01*
X129350000Y-103820000D02*
X127550000Y-103820000D01*
X136700000Y-106051252D02*
X136700000Y-105528748D01*
X135280000Y-106051252D02*
X135280000Y-105528748D01*
X130570000Y-108380000D02*
X130570000Y-109630000D01*
X131820000Y-108380000D02*
X130570000Y-108380000D01*
X133930000Y-112790000D02*
X133930000Y-112290000D01*
X134030000Y-112290000D02*
X134030000Y-112790000D01*
X133830000Y-112290000D02*
X134030000Y-112290000D01*
X133830000Y-112790000D02*
X133830000Y-112290000D01*
X136990000Y-111290000D02*
X136380000Y-111290000D01*
X136990000Y-109990000D02*
X136380000Y-109990000D01*
X130870000Y-111290000D02*
X131480000Y-111290000D01*
X130870000Y-109990000D02*
X131480000Y-109990000D01*
X134430000Y-109290000D02*
X134430000Y-108680000D01*
X136380000Y-109290000D02*
X134430000Y-109290000D01*
X136380000Y-112790000D02*
X136380000Y-109290000D01*
X131480000Y-112790000D02*
X136380000Y-112790000D01*
X131480000Y-109290000D02*
X131480000Y-112790000D01*
X133430000Y-109290000D02*
X131480000Y-109290000D01*
X133430000Y-108680000D02*
X133430000Y-109290000D01*
X132630000Y-108580000D02*
X132330000Y-108580000D01*
X132330000Y-108480000D02*
X132330000Y-108680000D01*
X132630000Y-108480000D02*
X132330000Y-108480000D01*
X132630000Y-108680000D02*
X132630000Y-108480000D01*
X136990000Y-108680000D02*
X130870000Y-108680000D01*
X136990000Y-113400000D02*
X136990000Y-108680000D01*
X130870000Y-113400000D02*
X136990000Y-113400000D01*
X130870000Y-108680000D02*
X130870000Y-113400000D01*
X117230000Y-88440000D02*
X118560000Y-88440000D01*
X117230000Y-89770000D02*
X117230000Y-88440000D01*
X117230000Y-91040000D02*
X119890000Y-91040000D01*
X119890000Y-91040000D02*
X119890000Y-103800000D01*
X117230000Y-91040000D02*
X117230000Y-103800000D01*
X117230000Y-103800000D02*
X119890000Y-103800000D01*
X124475000Y-61935000D02*
X128560000Y-61935000D01*
X124475000Y-59765000D02*
X124475000Y-61935000D01*
X128560000Y-59765000D02*
X124475000Y-59765000D01*
X118990000Y-70680000D02*
X118380000Y-70680000D01*
X118990000Y-70680000D02*
X118990000Y-63060000D01*
X118990000Y-87300000D02*
X118990000Y-86680000D01*
X121110000Y-87300000D02*
X118990000Y-87300000D01*
X135230000Y-87300000D02*
X133110000Y-87300000D01*
X135230000Y-86680000D02*
X135230000Y-87300000D01*
X135230000Y-63060000D02*
X135230000Y-70680000D01*
X118990000Y-63060000D02*
X135230000Y-63060000D01*
X122050000Y-105720000D02*
X122050000Y-107620000D01*
X124370000Y-107120000D02*
X124370000Y-105720000D01*
X136700000Y-94330000D02*
X136700000Y-100450000D01*
X136700000Y-100450000D02*
X133080000Y-100450000D01*
X133080000Y-100450000D02*
X133080000Y-94330000D01*
X133080000Y-94330000D02*
X136700000Y-94330000D01*
X123600000Y-48880000D02*
X123600000Y-50380000D01*
X124850000Y-52880000D02*
X129350000Y-52880000D01*
X130600000Y-50380000D02*
X130600000Y-48880000D01*
X129350000Y-46380000D02*
X124850000Y-46380000D01*
X131800000Y-60111252D02*
X131800000Y-59588748D01*
X130380000Y-60111252D02*
X130380000Y-59588748D01*
X127420000Y-91071252D02*
X127420000Y-90548748D01*
X126000000Y-91071252D02*
X126000000Y-90548748D01*
X132320000Y-91061252D02*
X132320000Y-90538748D01*
X130900000Y-91061252D02*
X130900000Y-90538748D01*
X124890000Y-90911252D02*
X124890000Y-90388748D01*
X123470000Y-90911252D02*
X123470000Y-90388748D01*
X129790000Y-91081252D02*
X129790000Y-90558748D01*
X128370000Y-91081252D02*
X128370000Y-90558748D01*
X122440000Y-90851252D02*
X122440000Y-90328748D01*
X121020000Y-90851252D02*
X121020000Y-90328748D01*
X120320000Y-107482064D02*
X120320000Y-106277936D01*
X117600000Y-107482064D02*
X117600000Y-106277936D01*
X123961252Y-101950000D02*
X123438748Y-101950000D01*
X123961252Y-103370000D02*
X123438748Y-103370000D01*
X117340000Y-60298748D02*
X117340000Y-60821252D01*
X118760000Y-60298748D02*
X118760000Y-60821252D01*
X123138748Y-110960000D02*
X123661252Y-110960000D01*
X123138748Y-109540000D02*
X123661252Y-109540000D01*
D10*
X127998095Y-102062380D02*
X127998095Y-102871904D01*
X128045714Y-102967142D01*
X128093333Y-103014761D01*
X128188571Y-103062380D01*
X128379047Y-103062380D01*
X128474285Y-103014761D01*
X128521904Y-102967142D01*
X128569523Y-102871904D01*
X128569523Y-102062380D01*
X128998095Y-102157619D02*
X129045714Y-102110000D01*
X129140952Y-102062380D01*
X129379047Y-102062380D01*
X129474285Y-102110000D01*
X129521904Y-102157619D01*
X129569523Y-102252857D01*
X129569523Y-102348095D01*
X129521904Y-102490952D01*
X128950476Y-103062380D01*
X129569523Y-103062380D01*
X134792380Y-105956666D02*
X134316190Y-106290000D01*
X134792380Y-106528095D02*
X133792380Y-106528095D01*
X133792380Y-106147142D01*
X133840000Y-106051904D01*
X133887619Y-106004285D01*
X133982857Y-105956666D01*
X134125714Y-105956666D01*
X134220952Y-106004285D01*
X134268571Y-106051904D01*
X134316190Y-106147142D01*
X134316190Y-106528095D01*
X133792380Y-105623333D02*
X133792380Y-104956666D01*
X134792380Y-105385238D01*
X118226666Y-86892380D02*
X118226666Y-87606666D01*
X118179047Y-87749523D01*
X118083809Y-87844761D01*
X117940952Y-87892380D01*
X117845714Y-87892380D01*
X119226666Y-87892380D02*
X118655238Y-87892380D01*
X118940952Y-87892380D02*
X118940952Y-86892380D01*
X118845714Y-87035238D01*
X118750476Y-87130476D01*
X118655238Y-87178095D01*
X123891904Y-59352380D02*
X123891904Y-58352380D01*
X124130000Y-58352380D01*
X124272857Y-58400000D01*
X124368095Y-58495238D01*
X124415714Y-58590476D01*
X124463333Y-58780952D01*
X124463333Y-58923809D01*
X124415714Y-59114285D01*
X124368095Y-59209523D01*
X124272857Y-59304761D01*
X124130000Y-59352380D01*
X123891904Y-59352380D01*
X125415714Y-59352380D02*
X124844285Y-59352380D01*
X125130000Y-59352380D02*
X125130000Y-58352380D01*
X125034761Y-58495238D01*
X124939523Y-58590476D01*
X124844285Y-58638095D01*
X126580476Y-73982380D02*
X127247142Y-74982380D01*
X127247142Y-73982380D02*
X126580476Y-74982380D01*
X128151904Y-74982380D02*
X127580476Y-74982380D01*
X127866190Y-74982380D02*
X127866190Y-73982380D01*
X127770952Y-74125238D01*
X127675714Y-74220476D01*
X127580476Y-74268095D01*
X120682380Y-105981904D02*
X121491904Y-105981904D01*
X121587142Y-105934285D01*
X121634761Y-105886666D01*
X121682380Y-105791428D01*
X121682380Y-105600952D01*
X121634761Y-105505714D01*
X121587142Y-105458095D01*
X121491904Y-105410476D01*
X120682380Y-105410476D01*
X121682380Y-104410476D02*
X121682380Y-104981904D01*
X121682380Y-104696190D02*
X120682380Y-104696190D01*
X120825238Y-104791428D01*
X120920476Y-104886666D01*
X120968095Y-104981904D01*
X135294761Y-98723333D02*
X135342380Y-98580476D01*
X135342380Y-98342380D01*
X135294761Y-98247142D01*
X135247142Y-98199523D01*
X135151904Y-98151904D01*
X135056666Y-98151904D01*
X134961428Y-98199523D01*
X134913809Y-98247142D01*
X134866190Y-98342380D01*
X134818571Y-98532857D01*
X134770952Y-98628095D01*
X134723333Y-98675714D01*
X134628095Y-98723333D01*
X134532857Y-98723333D01*
X134437619Y-98675714D01*
X134390000Y-98628095D01*
X134342380Y-98532857D01*
X134342380Y-98294761D01*
X134390000Y-98151904D01*
X134342380Y-97818571D02*
X135342380Y-97580476D01*
X134628095Y-97390000D01*
X135342380Y-97199523D01*
X134342380Y-96961428D01*
X134437619Y-96628095D02*
X134390000Y-96580476D01*
X134342380Y-96485238D01*
X134342380Y-96247142D01*
X134390000Y-96151904D01*
X134437619Y-96104285D01*
X134532857Y-96056666D01*
X134628095Y-96056666D01*
X134770952Y-96104285D01*
X135342380Y-96675714D01*
X135342380Y-96056666D01*
X126046666Y-54554761D02*
X126189523Y-54602380D01*
X126427619Y-54602380D01*
X126522857Y-54554761D01*
X126570476Y-54507142D01*
X126618095Y-54411904D01*
X126618095Y-54316666D01*
X126570476Y-54221428D01*
X126522857Y-54173809D01*
X126427619Y-54126190D01*
X126237142Y-54078571D01*
X126141904Y-54030952D01*
X126094285Y-53983333D01*
X126046666Y-53888095D01*
X126046666Y-53792857D01*
X126094285Y-53697619D01*
X126141904Y-53650000D01*
X126237142Y-53602380D01*
X126475238Y-53602380D01*
X126618095Y-53650000D01*
X126951428Y-53602380D02*
X127189523Y-54602380D01*
X127380000Y-53888095D01*
X127570476Y-54602380D01*
X127808571Y-53602380D01*
X128713333Y-54602380D02*
X128141904Y-54602380D01*
X128427619Y-54602380D02*
X128427619Y-53602380D01*
X128332380Y-53745238D01*
X128237142Y-53840476D01*
X128141904Y-53888095D01*
X133342380Y-59916666D02*
X132866190Y-60250000D01*
X133342380Y-60488095D02*
X132342380Y-60488095D01*
X132342380Y-60107142D01*
X132390000Y-60011904D01*
X132437619Y-59964285D01*
X132532857Y-59916666D01*
X132675714Y-59916666D01*
X132770952Y-59964285D01*
X132818571Y-60011904D01*
X132866190Y-60107142D01*
X132866190Y-60488095D01*
X132342380Y-59059523D02*
X132342380Y-59250000D01*
X132390000Y-59345238D01*
X132437619Y-59392857D01*
X132580476Y-59488095D01*
X132770952Y-59535714D01*
X133151904Y-59535714D01*
X133247142Y-59488095D01*
X133294761Y-59440476D01*
X133342380Y-59345238D01*
X133342380Y-59154761D01*
X133294761Y-59059523D01*
X133247142Y-59011904D01*
X133151904Y-58964285D01*
X132913809Y-58964285D01*
X132818571Y-59011904D01*
X132770952Y-59059523D01*
X132723333Y-59154761D01*
X132723333Y-59345238D01*
X132770952Y-59440476D01*
X132818571Y-59488095D01*
X132913809Y-59535714D01*
X126583333Y-94132380D02*
X126250000Y-93656190D01*
X126011904Y-94132380D02*
X126011904Y-93132380D01*
X126392857Y-93132380D01*
X126488095Y-93180000D01*
X126535714Y-93227619D01*
X126583333Y-93322857D01*
X126583333Y-93465714D01*
X126535714Y-93560952D01*
X126488095Y-93608571D01*
X126392857Y-93656190D01*
X126011904Y-93656190D01*
X127488095Y-93132380D02*
X127011904Y-93132380D01*
X126964285Y-93608571D01*
X127011904Y-93560952D01*
X127107142Y-93513333D01*
X127345238Y-93513333D01*
X127440476Y-93560952D01*
X127488095Y-93608571D01*
X127535714Y-93703809D01*
X127535714Y-93941904D01*
X127488095Y-94037142D01*
X127440476Y-94084761D01*
X127345238Y-94132380D01*
X127107142Y-94132380D01*
X127011904Y-94084761D01*
X126964285Y-94037142D01*
X131303333Y-94362380D02*
X130970000Y-93886190D01*
X130731904Y-94362380D02*
X130731904Y-93362380D01*
X131112857Y-93362380D01*
X131208095Y-93410000D01*
X131255714Y-93457619D01*
X131303333Y-93552857D01*
X131303333Y-93695714D01*
X131255714Y-93790952D01*
X131208095Y-93838571D01*
X131112857Y-93886190D01*
X130731904Y-93886190D01*
X132160476Y-93695714D02*
X132160476Y-94362380D01*
X131922380Y-93314761D02*
X131684285Y-94029047D01*
X132303333Y-94029047D01*
X123993333Y-94032380D02*
X123660000Y-93556190D01*
X123421904Y-94032380D02*
X123421904Y-93032380D01*
X123802857Y-93032380D01*
X123898095Y-93080000D01*
X123945714Y-93127619D01*
X123993333Y-93222857D01*
X123993333Y-93365714D01*
X123945714Y-93460952D01*
X123898095Y-93508571D01*
X123802857Y-93556190D01*
X123421904Y-93556190D01*
X124326666Y-93032380D02*
X124945714Y-93032380D01*
X124612380Y-93413333D01*
X124755238Y-93413333D01*
X124850476Y-93460952D01*
X124898095Y-93508571D01*
X124945714Y-93603809D01*
X124945714Y-93841904D01*
X124898095Y-93937142D01*
X124850476Y-93984761D01*
X124755238Y-94032380D01*
X124469523Y-94032380D01*
X124374285Y-93984761D01*
X124326666Y-93937142D01*
X128953333Y-94242380D02*
X128620000Y-93766190D01*
X128381904Y-94242380D02*
X128381904Y-93242380D01*
X128762857Y-93242380D01*
X128858095Y-93290000D01*
X128905714Y-93337619D01*
X128953333Y-93432857D01*
X128953333Y-93575714D01*
X128905714Y-93670952D01*
X128858095Y-93718571D01*
X128762857Y-93766190D01*
X128381904Y-93766190D01*
X129334285Y-93337619D02*
X129381904Y-93290000D01*
X129477142Y-93242380D01*
X129715238Y-93242380D01*
X129810476Y-93290000D01*
X129858095Y-93337619D01*
X129905714Y-93432857D01*
X129905714Y-93528095D01*
X129858095Y-93670952D01*
X129286666Y-94242380D01*
X129905714Y-94242380D01*
X121563333Y-93962380D02*
X121230000Y-93486190D01*
X120991904Y-93962380D02*
X120991904Y-92962380D01*
X121372857Y-92962380D01*
X121468095Y-93010000D01*
X121515714Y-93057619D01*
X121563333Y-93152857D01*
X121563333Y-93295714D01*
X121515714Y-93390952D01*
X121468095Y-93438571D01*
X121372857Y-93486190D01*
X120991904Y-93486190D01*
X122515714Y-93962380D02*
X121944285Y-93962380D01*
X122230000Y-93962380D02*
X122230000Y-92962380D01*
X122134761Y-93105238D01*
X122039523Y-93200476D01*
X121944285Y-93248095D01*
X118632380Y-110496666D02*
X118632380Y-110972857D01*
X117632380Y-110972857D01*
X118632380Y-109639523D02*
X118632380Y-110210952D01*
X118632380Y-109925238D02*
X117632380Y-109925238D01*
X117775238Y-110020476D01*
X117870476Y-110115714D01*
X117918095Y-110210952D01*
X126563333Y-102987142D02*
X126515714Y-103034761D01*
X126372857Y-103082380D01*
X126277619Y-103082380D01*
X126134761Y-103034761D01*
X126039523Y-102939523D01*
X125991904Y-102844285D01*
X125944285Y-102653809D01*
X125944285Y-102510952D01*
X125991904Y-102320476D01*
X126039523Y-102225238D01*
X126134761Y-102130000D01*
X126277619Y-102082380D01*
X126372857Y-102082380D01*
X126515714Y-102130000D01*
X126563333Y-102177619D01*
X126896666Y-102082380D02*
X127515714Y-102082380D01*
X127182380Y-102463333D01*
X127325238Y-102463333D01*
X127420476Y-102510952D01*
X127468095Y-102558571D01*
X127515714Y-102653809D01*
X127515714Y-102891904D01*
X127468095Y-102987142D01*
X127420476Y-103034761D01*
X127325238Y-103082380D01*
X127039523Y-103082380D01*
X126944285Y-103034761D01*
X126896666Y-102987142D01*
X118280142Y-57796666D02*
X118327761Y-57844285D01*
X118375380Y-57987142D01*
X118375380Y-58082380D01*
X118327761Y-58225238D01*
X118232523Y-58320476D01*
X118137285Y-58368095D01*
X117946809Y-58415714D01*
X117803952Y-58415714D01*
X117613476Y-58368095D01*
X117518238Y-58320476D01*
X117423000Y-58225238D01*
X117375380Y-58082380D01*
X117375380Y-57987142D01*
X117423000Y-57844285D01*
X117470619Y-57796666D01*
X117470619Y-57415714D02*
X117423000Y-57368095D01*
X117375380Y-57272857D01*
X117375380Y-57034761D01*
X117423000Y-56939523D01*
X117470619Y-56891904D01*
X117565857Y-56844285D01*
X117661095Y-56844285D01*
X117803952Y-56891904D01*
X118375380Y-57463333D01*
X118375380Y-56844285D01*
X120303333Y-110734142D02*
X120255714Y-110781761D01*
X120112857Y-110829380D01*
X120017619Y-110829380D01*
X119874761Y-110781761D01*
X119779523Y-110686523D01*
X119731904Y-110591285D01*
X119684285Y-110400809D01*
X119684285Y-110257952D01*
X119731904Y-110067476D01*
X119779523Y-109972238D01*
X119874761Y-109877000D01*
X120017619Y-109829380D01*
X120112857Y-109829380D01*
X120255714Y-109877000D01*
X120303333Y-109924619D01*
X121255714Y-110829380D02*
X120684285Y-110829380D01*
X120970000Y-110829380D02*
X120970000Y-109829380D01*
X120874761Y-109972238D01*
X120779523Y-110067476D01*
X120684285Y-110115095D01*
M02*
