G04 #@! TF.GenerationSoftware,KiCad,Pcbnew,(5.1.5)-1*
G04 #@! TF.CreationDate,2021-02-18T15:35:30+01:00*
G04 #@! TF.ProjectId,button,62757474-6f6e-42e6-9b69-6361645f7063,rev?*
G04 #@! TF.SameCoordinates,Original*
G04 #@! TF.FileFunction,Soldermask,Bot*
G04 #@! TF.FilePolarity,Negative*
%FSLAX46Y46*%
G04 Gerber Fmt 4.6, Leading zero omitted, Abs format (unit mm)*
G04 Created by KiCad (PCBNEW (5.1.5)-1) date 2021-02-18 15:35:30*
%MOMM*%
%LPD*%
G04 APERTURE LIST*
%ADD10C,0.100000*%
G04 APERTURE END LIST*
D10*
G36*
X135057617Y-109573420D02*
G01*
X135138399Y-109597925D01*
X135180335Y-109610646D01*
X135293424Y-109671094D01*
X135392554Y-109752447D01*
X135473906Y-109851575D01*
X135534354Y-109964664D01*
X135544040Y-109996596D01*
X135571580Y-110087382D01*
X135581000Y-110183027D01*
X135581000Y-110796973D01*
X135571580Y-110892618D01*
X135544040Y-110983404D01*
X135534354Y-111015336D01*
X135473906Y-111128425D01*
X135392554Y-111227554D01*
X135293425Y-111308906D01*
X135180336Y-111369354D01*
X135148404Y-111379040D01*
X135057618Y-111406580D01*
X134930000Y-111419149D01*
X134802383Y-111406580D01*
X134711597Y-111379040D01*
X134679665Y-111369354D01*
X134566576Y-111308906D01*
X134467447Y-111227554D01*
X134386096Y-111128427D01*
X134386095Y-111128425D01*
X134325647Y-111015336D01*
X134325645Y-111015333D01*
X134313237Y-110974427D01*
X134288420Y-110892618D01*
X134279000Y-110796973D01*
X134279000Y-110183028D01*
X134288420Y-110087383D01*
X134325645Y-109964669D01*
X134325646Y-109964665D01*
X134386094Y-109851576D01*
X134467447Y-109752446D01*
X134566575Y-109671094D01*
X134679664Y-109610646D01*
X134721600Y-109597925D01*
X134802382Y-109573420D01*
X134930000Y-109560851D01*
X135057617Y-109573420D01*
G37*
G36*
X133421242Y-109568404D02*
G01*
X133458337Y-109579657D01*
X133492515Y-109597925D01*
X133522481Y-109622519D01*
X133547075Y-109652485D01*
X133565343Y-109686663D01*
X133576596Y-109723758D01*
X133581000Y-109768474D01*
X133581000Y-111211526D01*
X133576596Y-111256242D01*
X133565343Y-111293337D01*
X133547075Y-111327515D01*
X133522481Y-111357481D01*
X133492515Y-111382075D01*
X133458337Y-111400343D01*
X133421242Y-111411596D01*
X133376526Y-111416000D01*
X132483474Y-111416000D01*
X132438758Y-111411596D01*
X132401663Y-111400343D01*
X132367485Y-111382075D01*
X132337519Y-111357481D01*
X132312925Y-111327515D01*
X132294657Y-111293337D01*
X132283404Y-111256242D01*
X132279000Y-111211526D01*
X132279000Y-109768474D01*
X132283404Y-109723758D01*
X132294657Y-109686663D01*
X132312925Y-109652485D01*
X132337519Y-109622519D01*
X132367485Y-109597925D01*
X132401663Y-109579657D01*
X132438758Y-109568404D01*
X132483474Y-109564000D01*
X133376526Y-109564000D01*
X133421242Y-109568404D01*
G37*
G36*
X128051000Y-110581000D02*
G01*
X125949000Y-110581000D01*
X125949000Y-108479000D01*
X128051000Y-108479000D01*
X128051000Y-110581000D01*
G37*
G36*
X133167724Y-105416497D02*
G01*
X133394906Y-105461686D01*
X133644412Y-105565035D01*
X133868962Y-105715075D01*
X134059925Y-105906038D01*
X134209965Y-106130588D01*
X134313314Y-106380094D01*
X134366000Y-106644968D01*
X134366000Y-106915032D01*
X134313314Y-107179906D01*
X134209965Y-107429412D01*
X134059925Y-107653962D01*
X133868962Y-107844925D01*
X133644412Y-107994965D01*
X133394906Y-108098314D01*
X133167724Y-108143503D01*
X133130033Y-108151000D01*
X132859967Y-108151000D01*
X132822276Y-108143503D01*
X132595094Y-108098314D01*
X132345588Y-107994965D01*
X132121038Y-107844925D01*
X131930075Y-107653962D01*
X131780035Y-107429412D01*
X131676686Y-107179906D01*
X131624000Y-106915032D01*
X131624000Y-106644968D01*
X131676686Y-106380094D01*
X131780035Y-106130588D01*
X131930075Y-105906038D01*
X132121038Y-105715075D01*
X132345588Y-105565035D01*
X132595094Y-105461686D01*
X132822276Y-105416497D01*
X132859967Y-105409000D01*
X133130033Y-105409000D01*
X133167724Y-105416497D01*
G37*
G36*
X118673512Y-101573927D02*
G01*
X118822812Y-101603624D01*
X118986784Y-101671544D01*
X119134354Y-101770147D01*
X119259853Y-101895646D01*
X119358456Y-102043216D01*
X119426376Y-102207188D01*
X119461000Y-102381259D01*
X119461000Y-102558741D01*
X119426376Y-102732812D01*
X119358456Y-102896784D01*
X119259853Y-103044354D01*
X119134354Y-103169853D01*
X118986784Y-103268456D01*
X118822812Y-103336376D01*
X118673512Y-103366073D01*
X118648742Y-103371000D01*
X118471258Y-103371000D01*
X118446488Y-103366073D01*
X118297188Y-103336376D01*
X118133216Y-103268456D01*
X117985646Y-103169853D01*
X117860147Y-103044354D01*
X117761544Y-102896784D01*
X117693624Y-102732812D01*
X117659000Y-102558741D01*
X117659000Y-102381259D01*
X117693624Y-102207188D01*
X117761544Y-102043216D01*
X117860147Y-101895646D01*
X117985646Y-101770147D01*
X118133216Y-101671544D01*
X118297188Y-101603624D01*
X118446488Y-101573927D01*
X118471258Y-101569000D01*
X118648742Y-101569000D01*
X118673512Y-101573927D01*
G37*
G36*
X118673512Y-99033927D02*
G01*
X118822812Y-99063624D01*
X118986784Y-99131544D01*
X119134354Y-99230147D01*
X119259853Y-99355646D01*
X119358456Y-99503216D01*
X119426376Y-99667188D01*
X119461000Y-99841259D01*
X119461000Y-100018741D01*
X119426376Y-100192812D01*
X119358456Y-100356784D01*
X119259853Y-100504354D01*
X119134354Y-100629853D01*
X118986784Y-100728456D01*
X118822812Y-100796376D01*
X118673512Y-100826073D01*
X118648742Y-100831000D01*
X118471258Y-100831000D01*
X118446488Y-100826073D01*
X118297188Y-100796376D01*
X118133216Y-100728456D01*
X117985646Y-100629853D01*
X117860147Y-100504354D01*
X117761544Y-100356784D01*
X117693624Y-100192812D01*
X117659000Y-100018741D01*
X117659000Y-99841259D01*
X117693624Y-99667188D01*
X117761544Y-99503216D01*
X117860147Y-99355646D01*
X117985646Y-99230147D01*
X118133216Y-99131544D01*
X118297188Y-99063624D01*
X118446488Y-99033927D01*
X118471258Y-99029000D01*
X118648742Y-99029000D01*
X118673512Y-99033927D01*
G37*
G36*
X118673512Y-96493927D02*
G01*
X118822812Y-96523624D01*
X118986784Y-96591544D01*
X119134354Y-96690147D01*
X119259853Y-96815646D01*
X119358456Y-96963216D01*
X119426376Y-97127188D01*
X119461000Y-97301259D01*
X119461000Y-97478741D01*
X119426376Y-97652812D01*
X119358456Y-97816784D01*
X119259853Y-97964354D01*
X119134354Y-98089853D01*
X118986784Y-98188456D01*
X118822812Y-98256376D01*
X118673512Y-98286073D01*
X118648742Y-98291000D01*
X118471258Y-98291000D01*
X118446488Y-98286073D01*
X118297188Y-98256376D01*
X118133216Y-98188456D01*
X117985646Y-98089853D01*
X117860147Y-97964354D01*
X117761544Y-97816784D01*
X117693624Y-97652812D01*
X117659000Y-97478741D01*
X117659000Y-97301259D01*
X117693624Y-97127188D01*
X117761544Y-96963216D01*
X117860147Y-96815646D01*
X117985646Y-96690147D01*
X118133216Y-96591544D01*
X118297188Y-96523624D01*
X118446488Y-96493927D01*
X118471258Y-96489000D01*
X118648742Y-96489000D01*
X118673512Y-96493927D01*
G37*
G36*
X118673512Y-93953927D02*
G01*
X118822812Y-93983624D01*
X118986784Y-94051544D01*
X119134354Y-94150147D01*
X119259853Y-94275646D01*
X119358456Y-94423216D01*
X119426376Y-94587188D01*
X119461000Y-94761259D01*
X119461000Y-94938741D01*
X119426376Y-95112812D01*
X119358456Y-95276784D01*
X119259853Y-95424354D01*
X119134354Y-95549853D01*
X118986784Y-95648456D01*
X118822812Y-95716376D01*
X118673512Y-95746073D01*
X118648742Y-95751000D01*
X118471258Y-95751000D01*
X118446488Y-95746073D01*
X118297188Y-95716376D01*
X118133216Y-95648456D01*
X117985646Y-95549853D01*
X117860147Y-95424354D01*
X117761544Y-95276784D01*
X117693624Y-95112812D01*
X117659000Y-94938741D01*
X117659000Y-94761259D01*
X117693624Y-94587188D01*
X117761544Y-94423216D01*
X117860147Y-94275646D01*
X117985646Y-94150147D01*
X118133216Y-94051544D01*
X118297188Y-93983624D01*
X118446488Y-93953927D01*
X118471258Y-93949000D01*
X118648742Y-93949000D01*
X118673512Y-93953927D01*
G37*
G36*
X118673512Y-91413927D02*
G01*
X118822812Y-91443624D01*
X118986784Y-91511544D01*
X119134354Y-91610147D01*
X119259853Y-91735646D01*
X119358456Y-91883216D01*
X119426376Y-92047188D01*
X119461000Y-92221259D01*
X119461000Y-92398741D01*
X119426376Y-92572812D01*
X119358456Y-92736784D01*
X119259853Y-92884354D01*
X119134354Y-93009853D01*
X118986784Y-93108456D01*
X118822812Y-93176376D01*
X118673512Y-93206073D01*
X118648742Y-93211000D01*
X118471258Y-93211000D01*
X118446488Y-93206073D01*
X118297188Y-93176376D01*
X118133216Y-93108456D01*
X117985646Y-93009853D01*
X117860147Y-92884354D01*
X117761544Y-92736784D01*
X117693624Y-92572812D01*
X117659000Y-92398741D01*
X117659000Y-92221259D01*
X117693624Y-92047188D01*
X117761544Y-91883216D01*
X117860147Y-91735646D01*
X117985646Y-91610147D01*
X118133216Y-91511544D01*
X118297188Y-91443624D01*
X118446488Y-91413927D01*
X118471258Y-91409000D01*
X118648742Y-91409000D01*
X118673512Y-91413927D01*
G37*
G36*
X119461000Y-90671000D02*
G01*
X117659000Y-90671000D01*
X117659000Y-88869000D01*
X119461000Y-88869000D01*
X119461000Y-90671000D01*
G37*
G36*
X121177724Y-58936497D02*
G01*
X121404906Y-58981686D01*
X121654412Y-59085035D01*
X121878962Y-59235075D01*
X122069925Y-59426038D01*
X122219965Y-59650588D01*
X122323314Y-59900094D01*
X122376000Y-60164968D01*
X122376000Y-60435032D01*
X122323314Y-60699906D01*
X122219965Y-60949412D01*
X122069925Y-61173962D01*
X121878962Y-61364925D01*
X121654412Y-61514965D01*
X121404906Y-61618314D01*
X121177724Y-61663503D01*
X121140033Y-61671000D01*
X120869967Y-61671000D01*
X120832276Y-61663503D01*
X120605094Y-61618314D01*
X120355588Y-61514965D01*
X120131038Y-61364925D01*
X119940075Y-61173962D01*
X119790035Y-60949412D01*
X119686686Y-60699906D01*
X119634000Y-60435032D01*
X119634000Y-60164968D01*
X119686686Y-59900094D01*
X119790035Y-59650588D01*
X119940075Y-59426038D01*
X120131038Y-59235075D01*
X120355588Y-59085035D01*
X120605094Y-58981686D01*
X120832276Y-58936497D01*
X120869967Y-58929000D01*
X121140033Y-58929000D01*
X121177724Y-58936497D01*
G37*
G36*
X127306564Y-56529389D02*
G01*
X127497833Y-56608615D01*
X127497835Y-56608616D01*
X127669973Y-56723635D01*
X127816365Y-56870027D01*
X127931385Y-57042167D01*
X128010611Y-57233436D01*
X128051000Y-57436484D01*
X128051000Y-57643516D01*
X128010611Y-57846564D01*
X127931385Y-58037833D01*
X127931384Y-58037835D01*
X127816365Y-58209973D01*
X127669973Y-58356365D01*
X127497835Y-58471384D01*
X127497834Y-58471385D01*
X127497833Y-58471385D01*
X127306564Y-58550611D01*
X127103516Y-58591000D01*
X126896484Y-58591000D01*
X126693436Y-58550611D01*
X126502167Y-58471385D01*
X126502166Y-58471385D01*
X126502165Y-58471384D01*
X126330027Y-58356365D01*
X126183635Y-58209973D01*
X126068616Y-58037835D01*
X126068615Y-58037833D01*
X125989389Y-57846564D01*
X125949000Y-57643516D01*
X125949000Y-57436484D01*
X125989389Y-57233436D01*
X126068615Y-57042167D01*
X126183635Y-56870027D01*
X126330027Y-56723635D01*
X126502165Y-56608616D01*
X126502167Y-56608615D01*
X126693436Y-56529389D01*
X126896484Y-56489000D01*
X127103516Y-56489000D01*
X127306564Y-56529389D01*
G37*
G36*
X124156564Y-50869389D02*
G01*
X124347833Y-50948615D01*
X124347835Y-50948616D01*
X124519973Y-51063635D01*
X124666365Y-51210027D01*
X124781385Y-51382167D01*
X124860611Y-51573436D01*
X124901000Y-51776484D01*
X124901000Y-51983516D01*
X124860611Y-52186564D01*
X124781385Y-52377833D01*
X124781384Y-52377835D01*
X124666365Y-52549973D01*
X124519973Y-52696365D01*
X124347835Y-52811384D01*
X124347834Y-52811385D01*
X124347833Y-52811385D01*
X124156564Y-52890611D01*
X123953516Y-52931000D01*
X123746484Y-52931000D01*
X123543436Y-52890611D01*
X123352167Y-52811385D01*
X123352166Y-52811385D01*
X123352165Y-52811384D01*
X123180027Y-52696365D01*
X123033635Y-52549973D01*
X122918616Y-52377835D01*
X122918615Y-52377833D01*
X122839389Y-52186564D01*
X122799000Y-51983516D01*
X122799000Y-51776484D01*
X122839389Y-51573436D01*
X122918615Y-51382167D01*
X123033635Y-51210027D01*
X123180027Y-51063635D01*
X123352165Y-50948616D01*
X123352167Y-50948615D01*
X123543436Y-50869389D01*
X123746484Y-50829000D01*
X123953516Y-50829000D01*
X124156564Y-50869389D01*
G37*
G36*
X130656564Y-50869389D02*
G01*
X130847833Y-50948615D01*
X130847835Y-50948616D01*
X131019973Y-51063635D01*
X131166365Y-51210027D01*
X131281385Y-51382167D01*
X131360611Y-51573436D01*
X131401000Y-51776484D01*
X131401000Y-51983516D01*
X131360611Y-52186564D01*
X131281385Y-52377833D01*
X131281384Y-52377835D01*
X131166365Y-52549973D01*
X131019973Y-52696365D01*
X130847835Y-52811384D01*
X130847834Y-52811385D01*
X130847833Y-52811385D01*
X130656564Y-52890611D01*
X130453516Y-52931000D01*
X130246484Y-52931000D01*
X130043436Y-52890611D01*
X129852167Y-52811385D01*
X129852166Y-52811385D01*
X129852165Y-52811384D01*
X129680027Y-52696365D01*
X129533635Y-52549973D01*
X129418616Y-52377835D01*
X129418615Y-52377833D01*
X129339389Y-52186564D01*
X129299000Y-51983516D01*
X129299000Y-51776484D01*
X129339389Y-51573436D01*
X129418615Y-51382167D01*
X129533635Y-51210027D01*
X129680027Y-51063635D01*
X129852165Y-50948616D01*
X129852167Y-50948615D01*
X130043436Y-50869389D01*
X130246484Y-50829000D01*
X130453516Y-50829000D01*
X130656564Y-50869389D01*
G37*
G36*
X124156564Y-46369389D02*
G01*
X124347833Y-46448615D01*
X124347835Y-46448616D01*
X124519973Y-46563635D01*
X124666365Y-46710027D01*
X124781385Y-46882167D01*
X124860611Y-47073436D01*
X124901000Y-47276484D01*
X124901000Y-47483516D01*
X124860611Y-47686564D01*
X124781385Y-47877833D01*
X124781384Y-47877835D01*
X124666365Y-48049973D01*
X124519973Y-48196365D01*
X124347835Y-48311384D01*
X124347834Y-48311385D01*
X124347833Y-48311385D01*
X124156564Y-48390611D01*
X123953516Y-48431000D01*
X123746484Y-48431000D01*
X123543436Y-48390611D01*
X123352167Y-48311385D01*
X123352166Y-48311385D01*
X123352165Y-48311384D01*
X123180027Y-48196365D01*
X123033635Y-48049973D01*
X122918616Y-47877835D01*
X122918615Y-47877833D01*
X122839389Y-47686564D01*
X122799000Y-47483516D01*
X122799000Y-47276484D01*
X122839389Y-47073436D01*
X122918615Y-46882167D01*
X123033635Y-46710027D01*
X123180027Y-46563635D01*
X123352165Y-46448616D01*
X123352167Y-46448615D01*
X123543436Y-46369389D01*
X123746484Y-46329000D01*
X123953516Y-46329000D01*
X124156564Y-46369389D01*
G37*
G36*
X130656564Y-46369389D02*
G01*
X130847833Y-46448615D01*
X130847835Y-46448616D01*
X131019973Y-46563635D01*
X131166365Y-46710027D01*
X131281385Y-46882167D01*
X131360611Y-47073436D01*
X131401000Y-47276484D01*
X131401000Y-47483516D01*
X131360611Y-47686564D01*
X131281385Y-47877833D01*
X131281384Y-47877835D01*
X131166365Y-48049973D01*
X131019973Y-48196365D01*
X130847835Y-48311384D01*
X130847834Y-48311385D01*
X130847833Y-48311385D01*
X130656564Y-48390611D01*
X130453516Y-48431000D01*
X130246484Y-48431000D01*
X130043436Y-48390611D01*
X129852167Y-48311385D01*
X129852166Y-48311385D01*
X129852165Y-48311384D01*
X129680027Y-48196365D01*
X129533635Y-48049973D01*
X129418616Y-47877835D01*
X129418615Y-47877833D01*
X129339389Y-47686564D01*
X129299000Y-47483516D01*
X129299000Y-47276484D01*
X129339389Y-47073436D01*
X129418615Y-46882167D01*
X129533635Y-46710027D01*
X129680027Y-46563635D01*
X129852165Y-46448616D01*
X129852167Y-46448615D01*
X130043436Y-46369389D01*
X130246484Y-46329000D01*
X130453516Y-46329000D01*
X130656564Y-46369389D01*
G37*
M02*
