G04 #@! TF.GenerationSoftware,KiCad,Pcbnew,(5.1.5)-1*
G04 #@! TF.CreationDate,2021-02-19T11:30:45+01:00*
G04 #@! TF.ProjectId,button - AAA,62757474-6f6e-4202-9d20-4141412e6b69,rev?*
G04 #@! TF.SameCoordinates,Original*
G04 #@! TF.FileFunction,Soldermask,Bot*
G04 #@! TF.FilePolarity,Negative*
%FSLAX46Y46*%
G04 Gerber Fmt 4.6, Leading zero omitted, Abs format (unit mm)*
G04 Created by KiCad (PCBNEW (5.1.5)-1) date 2021-02-19 11:30:45*
%MOMM*%
%LPD*%
G04 APERTURE LIST*
%ADD10C,0.100000*%
G04 APERTURE END LIST*
D10*
G36*
X135057617Y-109573420D02*
G01*
X135138399Y-109597925D01*
X135180335Y-109610646D01*
X135293424Y-109671094D01*
X135392554Y-109752447D01*
X135473906Y-109851575D01*
X135534354Y-109964664D01*
X135544040Y-109996596D01*
X135571580Y-110087382D01*
X135581000Y-110183027D01*
X135581000Y-110796973D01*
X135571580Y-110892618D01*
X135544040Y-110983404D01*
X135534354Y-111015336D01*
X135473906Y-111128425D01*
X135392554Y-111227554D01*
X135293425Y-111308906D01*
X135180336Y-111369354D01*
X135148404Y-111379040D01*
X135057618Y-111406580D01*
X134930000Y-111419149D01*
X134802383Y-111406580D01*
X134711597Y-111379040D01*
X134679665Y-111369354D01*
X134566576Y-111308906D01*
X134467447Y-111227554D01*
X134386096Y-111128427D01*
X134386095Y-111128425D01*
X134325647Y-111015336D01*
X134325645Y-111015333D01*
X134313237Y-110974427D01*
X134288420Y-110892618D01*
X134279000Y-110796973D01*
X134279000Y-110183028D01*
X134288420Y-110087383D01*
X134325645Y-109964669D01*
X134325646Y-109964665D01*
X134386094Y-109851576D01*
X134467447Y-109752446D01*
X134566575Y-109671094D01*
X134679664Y-109610646D01*
X134721600Y-109597925D01*
X134802382Y-109573420D01*
X134930000Y-109560851D01*
X135057617Y-109573420D01*
G37*
G36*
X133421242Y-109568404D02*
G01*
X133458337Y-109579657D01*
X133492515Y-109597925D01*
X133522481Y-109622519D01*
X133547075Y-109652485D01*
X133565343Y-109686663D01*
X133576596Y-109723758D01*
X133581000Y-109768474D01*
X133581000Y-111211526D01*
X133576596Y-111256242D01*
X133565343Y-111293337D01*
X133547075Y-111327515D01*
X133522481Y-111357481D01*
X133492515Y-111382075D01*
X133458337Y-111400343D01*
X133421242Y-111411596D01*
X133376526Y-111416000D01*
X132483474Y-111416000D01*
X132438758Y-111411596D01*
X132401663Y-111400343D01*
X132367485Y-111382075D01*
X132337519Y-111357481D01*
X132312925Y-111327515D01*
X132294657Y-111293337D01*
X132283404Y-111256242D01*
X132279000Y-111211526D01*
X132279000Y-109768474D01*
X132283404Y-109723758D01*
X132294657Y-109686663D01*
X132312925Y-109652485D01*
X132337519Y-109622519D01*
X132367485Y-109597925D01*
X132401663Y-109579657D01*
X132438758Y-109568404D01*
X132483474Y-109564000D01*
X133376526Y-109564000D01*
X133421242Y-109568404D01*
G37*
G36*
X127841000Y-109621000D02*
G01*
X125739000Y-109621000D01*
X125739000Y-107519000D01*
X127841000Y-107519000D01*
X127841000Y-109621000D01*
G37*
G36*
X118483512Y-102163927D02*
G01*
X118632812Y-102193624D01*
X118796784Y-102261544D01*
X118944354Y-102360147D01*
X119069853Y-102485646D01*
X119168456Y-102633216D01*
X119236376Y-102797188D01*
X119271000Y-102971259D01*
X119271000Y-103148741D01*
X119236376Y-103322812D01*
X119168456Y-103486784D01*
X119069853Y-103634354D01*
X118944354Y-103759853D01*
X118796784Y-103858456D01*
X118632812Y-103926376D01*
X118483512Y-103956073D01*
X118458742Y-103961000D01*
X118281258Y-103961000D01*
X118256488Y-103956073D01*
X118107188Y-103926376D01*
X117943216Y-103858456D01*
X117795646Y-103759853D01*
X117670147Y-103634354D01*
X117571544Y-103486784D01*
X117503624Y-103322812D01*
X117469000Y-103148741D01*
X117469000Y-102971259D01*
X117503624Y-102797188D01*
X117571544Y-102633216D01*
X117670147Y-102485646D01*
X117795646Y-102360147D01*
X117943216Y-102261544D01*
X118107188Y-102193624D01*
X118256488Y-102163927D01*
X118281258Y-102159000D01*
X118458742Y-102159000D01*
X118483512Y-102163927D01*
G37*
G36*
X118483512Y-99623927D02*
G01*
X118632812Y-99653624D01*
X118796784Y-99721544D01*
X118944354Y-99820147D01*
X119069853Y-99945646D01*
X119168456Y-100093216D01*
X119236376Y-100257188D01*
X119271000Y-100431259D01*
X119271000Y-100608741D01*
X119236376Y-100782812D01*
X119168456Y-100946784D01*
X119069853Y-101094354D01*
X118944354Y-101219853D01*
X118796784Y-101318456D01*
X118632812Y-101386376D01*
X118483512Y-101416073D01*
X118458742Y-101421000D01*
X118281258Y-101421000D01*
X118256488Y-101416073D01*
X118107188Y-101386376D01*
X117943216Y-101318456D01*
X117795646Y-101219853D01*
X117670147Y-101094354D01*
X117571544Y-100946784D01*
X117503624Y-100782812D01*
X117469000Y-100608741D01*
X117469000Y-100431259D01*
X117503624Y-100257188D01*
X117571544Y-100093216D01*
X117670147Y-99945646D01*
X117795646Y-99820147D01*
X117943216Y-99721544D01*
X118107188Y-99653624D01*
X118256488Y-99623927D01*
X118281258Y-99619000D01*
X118458742Y-99619000D01*
X118483512Y-99623927D01*
G37*
G36*
X118483512Y-97083927D02*
G01*
X118632812Y-97113624D01*
X118796784Y-97181544D01*
X118944354Y-97280147D01*
X119069853Y-97405646D01*
X119168456Y-97553216D01*
X119236376Y-97717188D01*
X119271000Y-97891259D01*
X119271000Y-98068741D01*
X119236376Y-98242812D01*
X119168456Y-98406784D01*
X119069853Y-98554354D01*
X118944354Y-98679853D01*
X118796784Y-98778456D01*
X118632812Y-98846376D01*
X118483512Y-98876073D01*
X118458742Y-98881000D01*
X118281258Y-98881000D01*
X118256488Y-98876073D01*
X118107188Y-98846376D01*
X117943216Y-98778456D01*
X117795646Y-98679853D01*
X117670147Y-98554354D01*
X117571544Y-98406784D01*
X117503624Y-98242812D01*
X117469000Y-98068741D01*
X117469000Y-97891259D01*
X117503624Y-97717188D01*
X117571544Y-97553216D01*
X117670147Y-97405646D01*
X117795646Y-97280147D01*
X117943216Y-97181544D01*
X118107188Y-97113624D01*
X118256488Y-97083927D01*
X118281258Y-97079000D01*
X118458742Y-97079000D01*
X118483512Y-97083927D01*
G37*
G36*
X118483512Y-94543927D02*
G01*
X118632812Y-94573624D01*
X118796784Y-94641544D01*
X118944354Y-94740147D01*
X119069853Y-94865646D01*
X119168456Y-95013216D01*
X119236376Y-95177188D01*
X119271000Y-95351259D01*
X119271000Y-95528741D01*
X119236376Y-95702812D01*
X119168456Y-95866784D01*
X119069853Y-96014354D01*
X118944354Y-96139853D01*
X118796784Y-96238456D01*
X118632812Y-96306376D01*
X118483512Y-96336073D01*
X118458742Y-96341000D01*
X118281258Y-96341000D01*
X118256488Y-96336073D01*
X118107188Y-96306376D01*
X117943216Y-96238456D01*
X117795646Y-96139853D01*
X117670147Y-96014354D01*
X117571544Y-95866784D01*
X117503624Y-95702812D01*
X117469000Y-95528741D01*
X117469000Y-95351259D01*
X117503624Y-95177188D01*
X117571544Y-95013216D01*
X117670147Y-94865646D01*
X117795646Y-94740147D01*
X117943216Y-94641544D01*
X118107188Y-94573624D01*
X118256488Y-94543927D01*
X118281258Y-94539000D01*
X118458742Y-94539000D01*
X118483512Y-94543927D01*
G37*
G36*
X119271000Y-93801000D02*
G01*
X117469000Y-93801000D01*
X117469000Y-91999000D01*
X119271000Y-91999000D01*
X119271000Y-93801000D01*
G37*
G36*
X127096564Y-62859389D02*
G01*
X127287833Y-62938615D01*
X127287835Y-62938616D01*
X127459973Y-63053635D01*
X127606365Y-63200027D01*
X127721385Y-63372167D01*
X127800611Y-63563436D01*
X127841000Y-63766484D01*
X127841000Y-63973516D01*
X127800611Y-64176564D01*
X127721385Y-64367833D01*
X127721384Y-64367835D01*
X127606365Y-64539973D01*
X127459973Y-64686365D01*
X127287835Y-64801384D01*
X127287834Y-64801385D01*
X127287833Y-64801385D01*
X127096564Y-64880611D01*
X126893516Y-64921000D01*
X126686484Y-64921000D01*
X126483436Y-64880611D01*
X126292167Y-64801385D01*
X126292166Y-64801385D01*
X126292165Y-64801384D01*
X126120027Y-64686365D01*
X125973635Y-64539973D01*
X125858616Y-64367835D01*
X125858615Y-64367833D01*
X125779389Y-64176564D01*
X125739000Y-63973516D01*
X125739000Y-63766484D01*
X125779389Y-63563436D01*
X125858615Y-63372167D01*
X125973635Y-63200027D01*
X126120027Y-63053635D01*
X126292165Y-62938616D01*
X126292167Y-62938615D01*
X126483436Y-62859389D01*
X126686484Y-62819000D01*
X126893516Y-62819000D01*
X127096564Y-62859389D01*
G37*
G36*
X124196564Y-58589389D02*
G01*
X124387833Y-58668615D01*
X124387835Y-58668616D01*
X124559973Y-58783635D01*
X124706365Y-58930027D01*
X124821385Y-59102167D01*
X124900611Y-59293436D01*
X124941000Y-59496484D01*
X124941000Y-59703516D01*
X124900611Y-59906564D01*
X124821385Y-60097833D01*
X124821384Y-60097835D01*
X124706365Y-60269973D01*
X124559973Y-60416365D01*
X124387835Y-60531384D01*
X124387834Y-60531385D01*
X124387833Y-60531385D01*
X124196564Y-60610611D01*
X123993516Y-60651000D01*
X123786484Y-60651000D01*
X123583436Y-60610611D01*
X123392167Y-60531385D01*
X123392166Y-60531385D01*
X123392165Y-60531384D01*
X123220027Y-60416365D01*
X123073635Y-60269973D01*
X122958616Y-60097835D01*
X122958615Y-60097833D01*
X122879389Y-59906564D01*
X122839000Y-59703516D01*
X122839000Y-59496484D01*
X122879389Y-59293436D01*
X122958615Y-59102167D01*
X123073635Y-58930027D01*
X123220027Y-58783635D01*
X123392165Y-58668616D01*
X123392167Y-58668615D01*
X123583436Y-58589389D01*
X123786484Y-58549000D01*
X123993516Y-58549000D01*
X124196564Y-58589389D01*
G37*
G36*
X130696564Y-58589389D02*
G01*
X130887833Y-58668615D01*
X130887835Y-58668616D01*
X131059973Y-58783635D01*
X131206365Y-58930027D01*
X131321385Y-59102167D01*
X131400611Y-59293436D01*
X131441000Y-59496484D01*
X131441000Y-59703516D01*
X131400611Y-59906564D01*
X131321385Y-60097833D01*
X131321384Y-60097835D01*
X131206365Y-60269973D01*
X131059973Y-60416365D01*
X130887835Y-60531384D01*
X130887834Y-60531385D01*
X130887833Y-60531385D01*
X130696564Y-60610611D01*
X130493516Y-60651000D01*
X130286484Y-60651000D01*
X130083436Y-60610611D01*
X129892167Y-60531385D01*
X129892166Y-60531385D01*
X129892165Y-60531384D01*
X129720027Y-60416365D01*
X129573635Y-60269973D01*
X129458616Y-60097835D01*
X129458615Y-60097833D01*
X129379389Y-59906564D01*
X129339000Y-59703516D01*
X129339000Y-59496484D01*
X129379389Y-59293436D01*
X129458615Y-59102167D01*
X129573635Y-58930027D01*
X129720027Y-58783635D01*
X129892165Y-58668616D01*
X129892167Y-58668615D01*
X130083436Y-58589389D01*
X130286484Y-58549000D01*
X130493516Y-58549000D01*
X130696564Y-58589389D01*
G37*
G36*
X124196564Y-54089389D02*
G01*
X124387833Y-54168615D01*
X124387835Y-54168616D01*
X124559973Y-54283635D01*
X124706365Y-54430027D01*
X124821385Y-54602167D01*
X124900611Y-54793436D01*
X124941000Y-54996484D01*
X124941000Y-55203516D01*
X124900611Y-55406564D01*
X124821385Y-55597833D01*
X124821384Y-55597835D01*
X124706365Y-55769973D01*
X124559973Y-55916365D01*
X124387835Y-56031384D01*
X124387834Y-56031385D01*
X124387833Y-56031385D01*
X124196564Y-56110611D01*
X123993516Y-56151000D01*
X123786484Y-56151000D01*
X123583436Y-56110611D01*
X123392167Y-56031385D01*
X123392166Y-56031385D01*
X123392165Y-56031384D01*
X123220027Y-55916365D01*
X123073635Y-55769973D01*
X122958616Y-55597835D01*
X122958615Y-55597833D01*
X122879389Y-55406564D01*
X122839000Y-55203516D01*
X122839000Y-54996484D01*
X122879389Y-54793436D01*
X122958615Y-54602167D01*
X123073635Y-54430027D01*
X123220027Y-54283635D01*
X123392165Y-54168616D01*
X123392167Y-54168615D01*
X123583436Y-54089389D01*
X123786484Y-54049000D01*
X123993516Y-54049000D01*
X124196564Y-54089389D01*
G37*
G36*
X130696564Y-54089389D02*
G01*
X130887833Y-54168615D01*
X130887835Y-54168616D01*
X131059973Y-54283635D01*
X131206365Y-54430027D01*
X131321385Y-54602167D01*
X131400611Y-54793436D01*
X131441000Y-54996484D01*
X131441000Y-55203516D01*
X131400611Y-55406564D01*
X131321385Y-55597833D01*
X131321384Y-55597835D01*
X131206365Y-55769973D01*
X131059973Y-55916365D01*
X130887835Y-56031384D01*
X130887834Y-56031385D01*
X130887833Y-56031385D01*
X130696564Y-56110611D01*
X130493516Y-56151000D01*
X130286484Y-56151000D01*
X130083436Y-56110611D01*
X129892167Y-56031385D01*
X129892166Y-56031385D01*
X129892165Y-56031384D01*
X129720027Y-55916365D01*
X129573635Y-55769973D01*
X129458616Y-55597835D01*
X129458615Y-55597833D01*
X129379389Y-55406564D01*
X129339000Y-55203516D01*
X129339000Y-54996484D01*
X129379389Y-54793436D01*
X129458615Y-54602167D01*
X129573635Y-54430027D01*
X129720027Y-54283635D01*
X129892165Y-54168616D01*
X129892167Y-54168615D01*
X130083436Y-54089389D01*
X130286484Y-54049000D01*
X130493516Y-54049000D01*
X130696564Y-54089389D01*
G37*
M02*
