M48
; DRILL file {KiCad (5.1.5)-1} date 19/02/2021 11:30:47
; FORMAT={-:-/ absolute / inch / decimal}
; #@! TF.CreationDate,2021-02-19T11:30:47+01:00
; #@! TF.GenerationSoftware,Kicad,Pcbnew,(5.1.5)-1
FMAT,2
INCH
T1C0.0118
T2C0.0157
T3C0.0295
T4C0.0394
T5C0.0402
T6C0.0433
%
G90
G05
T1
X4.6988Y-3.474
X4.8024Y-3.5358
X4.8252Y-4.0413
X4.8843Y-4.2417
X4.8894Y-3.665
X4.9882Y-3.7598
X5.1209Y-4.1476
X5.2433Y-2.4028
X5.3004Y-3.4756
X5.3016Y-3.3969
T2
X5.3138Y-4.1256
T3
X5.2335Y-4.35
X5.3122Y-4.35
T4
X4.6602Y-3.6575
X4.6602Y-3.7575
X4.6602Y-3.8575
X4.6602Y-3.9575
X4.6602Y-4.0575
T5
X4.9917Y-2.5146
X4.9917Y-4.2744
T6
X4.8776Y-2.1693
X4.8776Y-2.3465
X5.1335Y-2.1693
X5.1335Y-2.3465
T0
M30
