G04 #@! TF.GenerationSoftware,KiCad,Pcbnew,(5.1.5)-1*
G04 #@! TF.CreationDate,2021-02-19T11:30:45+01:00*
G04 #@! TF.ProjectId,button - AAA,62757474-6f6e-4202-9d20-4141412e6b69,rev?*
G04 #@! TF.SameCoordinates,Original*
G04 #@! TF.FileFunction,Paste,Top*
G04 #@! TF.FilePolarity,Positive*
%FSLAX46Y46*%
G04 Gerber Fmt 4.6, Leading zero omitted, Abs format (unit mm)*
G04 Created by KiCad (PCBNEW (5.1.5)-1) date 2021-02-19 11:30:45*
%MOMM*%
%LPD*%
G04 APERTURE LIST*
%ADD10R,2.794000X1.778000*%
%ADD11R,2.000000X0.650000*%
%ADD12C,0.100000*%
%ADD13R,1.500000X1.500000*%
%ADD14R,2.500000X1.000000*%
%ADD15R,1.000000X1.800000*%
%ADD16R,0.400000X1.500000*%
%ADD17R,1.600000X2.180000*%
%ADD18R,1.500000X1.100000*%
%ADD19R,1.100000X1.500000*%
G04 APERTURE END LIST*
D10*
X118750000Y-109798000D03*
X118750000Y-106242000D03*
D11*
X126950000Y-106380000D03*
X126950000Y-104480000D03*
X130000000Y-104480000D03*
D12*
G36*
X131000000Y-105105000D02*
G01*
X131000000Y-105755000D01*
X129000000Y-105755000D01*
X129000000Y-105105000D01*
X131000000Y-105105000D01*
G37*
D11*
X130000000Y-106380000D03*
D13*
X133270000Y-107250000D03*
X135670000Y-107250000D03*
D12*
G36*
X133669504Y-63096204D02*
G01*
X133693773Y-63099804D01*
X133717571Y-63105765D01*
X133740671Y-63114030D01*
X133762849Y-63124520D01*
X133783893Y-63137133D01*
X133803598Y-63151747D01*
X133821777Y-63168223D01*
X133838253Y-63186402D01*
X133852867Y-63206107D01*
X133865480Y-63227151D01*
X133875970Y-63249329D01*
X133884235Y-63272429D01*
X133890196Y-63296227D01*
X133893796Y-63320496D01*
X133895000Y-63345000D01*
X133895000Y-64445000D01*
X133893796Y-64469504D01*
X133890196Y-64493773D01*
X133884235Y-64517571D01*
X133875970Y-64540671D01*
X133865480Y-64562849D01*
X133852867Y-64583893D01*
X133838253Y-64603598D01*
X133821777Y-64621777D01*
X133803598Y-64638253D01*
X133783893Y-64652867D01*
X133762849Y-64665480D01*
X133740671Y-64675970D01*
X133717571Y-64684235D01*
X133693773Y-64690196D01*
X133669504Y-64693796D01*
X133645000Y-64695000D01*
X132495000Y-64695000D01*
X132470496Y-64693796D01*
X132446227Y-64690196D01*
X132422429Y-64684235D01*
X132399329Y-64675970D01*
X132377151Y-64665480D01*
X132356107Y-64652867D01*
X132336402Y-64638253D01*
X132318223Y-64621777D01*
X132301747Y-64603598D01*
X132287133Y-64583893D01*
X132274520Y-64562849D01*
X132264030Y-64540671D01*
X132255765Y-64517571D01*
X132249804Y-64493773D01*
X132246204Y-64469504D01*
X132245000Y-64445000D01*
X132245000Y-63345000D01*
X132246204Y-63320496D01*
X132249804Y-63296227D01*
X132255765Y-63272429D01*
X132264030Y-63249329D01*
X132274520Y-63227151D01*
X132287133Y-63206107D01*
X132301747Y-63186402D01*
X132318223Y-63168223D01*
X132336402Y-63151747D01*
X132356107Y-63137133D01*
X132377151Y-63124520D01*
X132399329Y-63114030D01*
X132422429Y-63105765D01*
X132446227Y-63099804D01*
X132470496Y-63096204D01*
X132495000Y-63095000D01*
X133645000Y-63095000D01*
X133669504Y-63096204D01*
G37*
G36*
X133669504Y-60246204D02*
G01*
X133693773Y-60249804D01*
X133717571Y-60255765D01*
X133740671Y-60264030D01*
X133762849Y-60274520D01*
X133783893Y-60287133D01*
X133803598Y-60301747D01*
X133821777Y-60318223D01*
X133838253Y-60336402D01*
X133852867Y-60356107D01*
X133865480Y-60377151D01*
X133875970Y-60399329D01*
X133884235Y-60422429D01*
X133890196Y-60446227D01*
X133893796Y-60470496D01*
X133895000Y-60495000D01*
X133895000Y-61595000D01*
X133893796Y-61619504D01*
X133890196Y-61643773D01*
X133884235Y-61667571D01*
X133875970Y-61690671D01*
X133865480Y-61712849D01*
X133852867Y-61733893D01*
X133838253Y-61753598D01*
X133821777Y-61771777D01*
X133803598Y-61788253D01*
X133783893Y-61802867D01*
X133762849Y-61815480D01*
X133740671Y-61825970D01*
X133717571Y-61834235D01*
X133693773Y-61840196D01*
X133669504Y-61843796D01*
X133645000Y-61845000D01*
X132495000Y-61845000D01*
X132470496Y-61843796D01*
X132446227Y-61840196D01*
X132422429Y-61834235D01*
X132399329Y-61825970D01*
X132377151Y-61815480D01*
X132356107Y-61802867D01*
X132336402Y-61788253D01*
X132318223Y-61771777D01*
X132301747Y-61753598D01*
X132287133Y-61733893D01*
X132274520Y-61712849D01*
X132264030Y-61690671D01*
X132255765Y-61667571D01*
X132249804Y-61643773D01*
X132246204Y-61619504D01*
X132245000Y-61595000D01*
X132245000Y-60495000D01*
X132246204Y-60470496D01*
X132249804Y-60446227D01*
X132255765Y-60422429D01*
X132264030Y-60399329D01*
X132274520Y-60377151D01*
X132287133Y-60356107D01*
X132301747Y-60336402D01*
X132318223Y-60318223D01*
X132336402Y-60301747D01*
X132356107Y-60287133D01*
X132377151Y-60274520D01*
X132399329Y-60264030D01*
X132422429Y-60255765D01*
X132446227Y-60249804D01*
X132470496Y-60246204D01*
X132495000Y-60245000D01*
X133645000Y-60245000D01*
X133669504Y-60246204D01*
G37*
D14*
X134550000Y-74240000D03*
X134550000Y-76240000D03*
X134550000Y-78240000D03*
X134550000Y-80240000D03*
X134550000Y-82240000D03*
X134550000Y-84240000D03*
X134550000Y-86240000D03*
X134550000Y-88240000D03*
D15*
X131950000Y-89740000D03*
X129950000Y-89740000D03*
X127950000Y-89740000D03*
X125950000Y-89740000D03*
X123950000Y-89740000D03*
X121950000Y-89740000D03*
D14*
X119350000Y-88240000D03*
X119350000Y-86240000D03*
X119350000Y-84240000D03*
X119350000Y-82240000D03*
X119350000Y-80240000D03*
X119350000Y-78240000D03*
X119350000Y-76240000D03*
X119350000Y-74240000D03*
D16*
X122560000Y-107750000D03*
X123210000Y-107750000D03*
X123860000Y-107750000D03*
X123860000Y-105090000D03*
X123210000Y-105090000D03*
X122560000Y-105090000D03*
D17*
X134950000Y-95630000D03*
X134950000Y-104810000D03*
D13*
X135620000Y-61750000D03*
X135620000Y-64150000D03*
X126710000Y-93080000D03*
X126710000Y-95480000D03*
X131610000Y-93070000D03*
X131610000Y-95470000D03*
X124190000Y-93090000D03*
X124190000Y-95490000D03*
X129080000Y-93090000D03*
X129080000Y-95490000D03*
X121790000Y-93010000D03*
X121790000Y-95410000D03*
D18*
X122550000Y-102660000D03*
X124850000Y-102660000D03*
D19*
X118670000Y-64150000D03*
X118670000Y-61850000D03*
X129030000Y-109590000D03*
X129030000Y-111890000D03*
M02*
