G04 #@! TF.GenerationSoftware,KiCad,Pcbnew,(5.1.9)-1*
G04 #@! TF.CreationDate,2021-03-01T14:16:03+01:00*
G04 #@! TF.ProjectId,button timer v1.2.3_[Coin_Cell&LIPO][TPL5111],62757474-6f6e-4207-9469-6d6572207631,rev?*
G04 #@! TF.SameCoordinates,Original*
G04 #@! TF.FileFunction,Copper,L1,Top*
G04 #@! TF.FilePolarity,Positive*
%FSLAX46Y46*%
G04 Gerber Fmt 4.6, Leading zero omitted, Abs format (unit mm)*
G04 Created by KiCad (PCBNEW (5.1.9)-1) date 2021-03-01 14:16:03*
%MOMM*%
%LPD*%
G01*
G04 APERTURE LIST*
G04 #@! TA.AperFunction,SMDPad,CuDef*
%ADD10R,2.250000X1.650000*%
G04 #@! TD*
G04 #@! TA.AperFunction,SMDPad,CuDef*
%ADD11R,2.500000X1.000000*%
G04 #@! TD*
G04 #@! TA.AperFunction,SMDPad,CuDef*
%ADD12R,1.000000X1.800000*%
G04 #@! TD*
G04 #@! TA.AperFunction,ComponentPad*
%ADD13O,1.750000X1.200000*%
G04 #@! TD*
G04 #@! TA.AperFunction,SMDPad,CuDef*
%ADD14R,2.794000X1.778000*%
G04 #@! TD*
G04 #@! TA.AperFunction,SMDPad,CuDef*
%ADD15R,0.900000X0.620000*%
G04 #@! TD*
G04 #@! TA.AperFunction,SMDPad,CuDef*
%ADD16R,0.900000X0.800000*%
G04 #@! TD*
G04 #@! TA.AperFunction,SMDPad,CuDef*
%ADD17R,1.000000X1.200000*%
G04 #@! TD*
G04 #@! TA.AperFunction,SMDPad,CuDef*
%ADD18R,1.700000X1.300000*%
G04 #@! TD*
G04 #@! TA.AperFunction,ComponentPad*
%ADD19C,2.000000*%
G04 #@! TD*
G04 #@! TA.AperFunction,ComponentPad*
%ADD20O,1.700000X1.700000*%
G04 #@! TD*
G04 #@! TA.AperFunction,ComponentPad*
%ADD21R,1.700000X1.700000*%
G04 #@! TD*
G04 #@! TA.AperFunction,SMDPad,CuDef*
%ADD22R,1.500000X1.500000*%
G04 #@! TD*
G04 #@! TA.AperFunction,ViaPad*
%ADD23C,0.500000*%
G04 #@! TD*
G04 #@! TA.AperFunction,ViaPad*
%ADD24C,0.800000*%
G04 #@! TD*
G04 #@! TA.AperFunction,Conductor*
%ADD25C,0.500000*%
G04 #@! TD*
G04 #@! TA.AperFunction,Conductor*
%ADD26C,0.350000*%
G04 #@! TD*
G04 #@! TA.AperFunction,Conductor*
%ADD27C,0.250000*%
G04 #@! TD*
G04 #@! TA.AperFunction,Conductor*
%ADD28C,0.254000*%
G04 #@! TD*
G04 #@! TA.AperFunction,Conductor*
%ADD29C,0.150000*%
G04 #@! TD*
G04 APERTURE END LIST*
D10*
G04 #@! TO.P,C6,2*
G04 #@! TO.N,/GND*
X134726680Y-73006280D03*
G04 #@! TO.P,C6,1*
G04 #@! TO.N,/VCC*
X134726680Y-76106280D03*
G04 #@! TD*
D11*
G04 #@! TO.P,X1,22*
G04 #@! TO.N,/TX*
X118100000Y-93600000D03*
G04 #@! TO.P,X1,21*
G04 #@! TO.N,/RX*
X118100000Y-91600000D03*
G04 #@! TO.P,X1,20*
G04 #@! TO.N,/GPIO5*
X118100000Y-89600000D03*
G04 #@! TO.P,X1,19*
G04 #@! TO.N,/GPIO4*
X118100000Y-87600000D03*
G04 #@! TO.P,X1,18*
G04 #@! TO.N,/GPIO0*
X118100000Y-85600000D03*
G04 #@! TO.P,X1,17*
G04 #@! TO.N,/GPIO2*
X118100000Y-83600000D03*
G04 #@! TO.P,X1,16*
G04 #@! TO.N,/GPIO15*
X118100000Y-81600000D03*
G04 #@! TO.P,X1,15*
G04 #@! TO.N,/GND_ESP*
X118100000Y-79600000D03*
D12*
G04 #@! TO.P,X1,14*
G04 #@! TO.N,N/C*
X120700000Y-78100000D03*
G04 #@! TO.P,X1,13*
X122700000Y-78100000D03*
G04 #@! TO.P,X1,12*
X124700000Y-78100000D03*
G04 #@! TO.P,X1,11*
X126700000Y-78100000D03*
G04 #@! TO.P,X1,10*
X128700000Y-78100000D03*
G04 #@! TO.P,X1,9*
X130700000Y-78100000D03*
D11*
G04 #@! TO.P,X1,8*
G04 #@! TO.N,/VCC*
X133300000Y-79600000D03*
G04 #@! TO.P,X1,7*
G04 #@! TO.N,N/C*
X133300000Y-81600000D03*
G04 #@! TO.P,X1,6*
X133300000Y-83600000D03*
G04 #@! TO.P,X1,5*
X133300000Y-85600000D03*
G04 #@! TO.P,X1,4*
X133300000Y-87600000D03*
G04 #@! TO.P,X1,3*
G04 #@! TO.N,/EN*
X133300000Y-89600000D03*
G04 #@! TO.P,X1,2*
G04 #@! TO.N,N/C*
X133300000Y-91600000D03*
G04 #@! TO.P,X1,1*
G04 #@! TO.N,/RST*
X133300000Y-93600000D03*
G04 #@! TD*
G04 #@! TO.P,D2,2*
G04 #@! TO.N,Net-(D2-Pad2)*
G04 #@! TA.AperFunction,SMDPad,CuDef*
G36*
G01*
X119756200Y-75634801D02*
X119756200Y-74834799D01*
G75*
G02*
X120006199Y-74584800I249999J0D01*
G01*
X120831201Y-74584800D01*
G75*
G02*
X121081200Y-74834799I0J-249999D01*
G01*
X121081200Y-75634801D01*
G75*
G02*
X120831201Y-75884800I-249999J0D01*
G01*
X120006199Y-75884800D01*
G75*
G02*
X119756200Y-75634801I0J249999D01*
G01*
G37*
G04 #@! TD.AperFunction*
G04 #@! TO.P,D2,1*
G04 #@! TO.N,/GND*
G04 #@! TA.AperFunction,SMDPad,CuDef*
G36*
G01*
X117831200Y-75634801D02*
X117831200Y-74834799D01*
G75*
G02*
X118081199Y-74584800I249999J0D01*
G01*
X118906201Y-74584800D01*
G75*
G02*
X119156200Y-74834799I0J-249999D01*
G01*
X119156200Y-75634801D01*
G75*
G02*
X118906201Y-75884800I-249999J0D01*
G01*
X118081199Y-75884800D01*
G75*
G02*
X117831200Y-75634801I0J249999D01*
G01*
G37*
G04 #@! TD.AperFunction*
G04 #@! TD*
G04 #@! TO.P,D1,2*
G04 #@! TO.N,Net-(D1-Pad2)*
G04 #@! TA.AperFunction,SMDPad,CuDef*
G36*
G01*
X133357400Y-51317200D02*
X133357400Y-52467200D01*
G75*
G02*
X133107400Y-52717200I-250000J0D01*
G01*
X132007400Y-52717200D01*
G75*
G02*
X131757400Y-52467200I0J250000D01*
G01*
X131757400Y-51317200D01*
G75*
G02*
X132007400Y-51067200I250000J0D01*
G01*
X133107400Y-51067200D01*
G75*
G02*
X133357400Y-51317200I0J-250000D01*
G01*
G37*
G04 #@! TD.AperFunction*
G04 #@! TO.P,D1,1*
G04 #@! TO.N,/GND*
G04 #@! TA.AperFunction,SMDPad,CuDef*
G36*
G01*
X136207400Y-51317200D02*
X136207400Y-52467200D01*
G75*
G02*
X135957400Y-52717200I-250000J0D01*
G01*
X134857400Y-52717200D01*
G75*
G02*
X134607400Y-52467200I0J250000D01*
G01*
X134607400Y-51317200D01*
G75*
G02*
X134857400Y-51067200I250000J0D01*
G01*
X135957400Y-51067200D01*
G75*
G02*
X136207400Y-51317200I0J-250000D01*
G01*
G37*
G04 #@! TD.AperFunction*
G04 #@! TD*
D13*
G04 #@! TO.P,BT2,2*
G04 #@! TO.N,/GND*
X134269480Y-57686960D03*
G04 #@! TO.P,BT2,1*
G04 #@! TO.N,Net-(BT1-Pad1)*
G04 #@! TA.AperFunction,ComponentPad*
G36*
G01*
X133644479Y-55086960D02*
X134894481Y-55086960D01*
G75*
G02*
X135144480Y-55336959I0J-249999D01*
G01*
X135144480Y-56036961D01*
G75*
G02*
X134894481Y-56286960I-249999J0D01*
G01*
X133644479Y-56286960D01*
G75*
G02*
X133394480Y-56036961I0J249999D01*
G01*
X133394480Y-55336959D01*
G75*
G02*
X133644479Y-55086960I249999J0D01*
G01*
G37*
G04 #@! TD.AperFunction*
G04 #@! TD*
D14*
G04 #@! TO.P,L1,1*
G04 #@! TO.N,Net-(BT1-Pad1)*
X122670000Y-61414000D03*
G04 #@! TO.P,L1,2*
G04 #@! TO.N,Net-(L1-Pad2)*
X122670000Y-64970000D03*
G04 #@! TD*
D15*
G04 #@! TO.P,C7,2*
G04 #@! TO.N,/GND*
X135925320Y-78359000D03*
G04 #@! TO.P,C7,1*
G04 #@! TO.N,/VCC*
X134625320Y-78359000D03*
G04 #@! TD*
D16*
G04 #@! TO.P,Q1,3*
G04 #@! TO.N,/GND_ESP*
X133048500Y-69913500D03*
G04 #@! TO.P,Q1,2*
G04 #@! TO.N,/GND*
X135048500Y-68963500D03*
G04 #@! TO.P,Q1,1*
G04 #@! TO.N,Net-(Q1-Pad1)*
X135048500Y-70863500D03*
G04 #@! TD*
D17*
G04 #@! TO.P,R1,2*
G04 #@! TO.N,/VCC*
X135509000Y-80264000D03*
G04 #@! TO.P,R1,1*
G04 #@! TO.N,/EN*
X135509000Y-82364000D03*
G04 #@! TD*
D18*
G04 #@! TO.P,SW2,2*
G04 #@! TO.N,/GND*
X120269000Y-68000000D03*
G04 #@! TO.P,SW2,1*
G04 #@! TO.N,/GPIO0*
X120269000Y-71700000D03*
G04 #@! TD*
D19*
G04 #@! TO.P,SW1,1*
G04 #@! TO.N,Net-(BT1-Pad1)*
X129690000Y-53340000D03*
G04 #@! TO.P,SW1,2*
G04 #@! TO.N,Net-(R6-Pad2)*
X129690000Y-57840000D03*
G04 #@! TO.P,SW1,1*
G04 #@! TO.N,Net-(BT1-Pad1)*
X123190000Y-53340000D03*
G04 #@! TO.P,SW1,2*
G04 #@! TO.N,Net-(R6-Pad2)*
X123190000Y-57840000D03*
G04 #@! TD*
D20*
G04 #@! TO.P,J1,5*
G04 #@! TO.N,/RST*
X119456200Y-63830200D03*
G04 #@! TO.P,J1,4*
G04 #@! TO.N,/TX*
X119456200Y-61290200D03*
G04 #@! TO.P,J1,3*
G04 #@! TO.N,/RX*
X119456200Y-58750200D03*
G04 #@! TO.P,J1,2*
G04 #@! TO.N,/GND*
X119456200Y-56210200D03*
D21*
G04 #@! TO.P,J1,1*
G04 #@! TO.N,/VCC*
X119456200Y-53670200D03*
G04 #@! TD*
D22*
G04 #@! TO.P,R9,2*
G04 #@! TO.N,/GPIO5*
X130100000Y-75350000D03*
G04 #@! TO.P,R9,1*
G04 #@! TO.N,Net-(D2-Pad2)*
X130100000Y-72950000D03*
G04 #@! TD*
G04 #@! TO.P,R6,2*
G04 #@! TO.N,Net-(R6-Pad2)*
X125505360Y-51699160D03*
G04 #@! TO.P,R6,1*
G04 #@! TO.N,Net-(D1-Pad2)*
X127905360Y-51699160D03*
G04 #@! TD*
G04 #@! TO.P,R5,2*
G04 #@! TO.N,/GPIO15*
X123150000Y-75375000D03*
G04 #@! TO.P,R5,1*
G04 #@! TO.N,/GND*
X123150000Y-72975000D03*
G04 #@! TD*
G04 #@! TO.P,R4,2*
G04 #@! TO.N,/GPIO0*
X127850000Y-75325000D03*
G04 #@! TO.P,R4,1*
G04 #@! TO.N,/VCC*
X127850000Y-72925000D03*
G04 #@! TD*
G04 #@! TO.P,R3,2*
G04 #@! TO.N,/RST*
X132257800Y-75368000D03*
G04 #@! TO.P,R3,1*
G04 #@! TO.N,/VCC*
X132257800Y-72968000D03*
G04 #@! TD*
G04 #@! TO.P,R2,2*
G04 #@! TO.N,/GPIO2*
X125550000Y-75350000D03*
G04 #@! TO.P,R2,1*
G04 #@! TO.N,/VCC*
X125550000Y-72950000D03*
G04 #@! TD*
D23*
G04 #@! TO.N,/VCC*
X131454360Y-63770640D03*
D24*
X134726680Y-76106280D03*
G04 #@! TO.N,/GND*
X120225000Y-68050000D03*
D23*
X123225000Y-72875000D03*
X118425000Y-75275000D03*
X135075000Y-69000000D03*
X135050000Y-72950000D03*
X134200000Y-72975000D03*
X135900000Y-78450000D03*
X130500000Y-60500000D03*
X135150000Y-66925000D03*
X133900000Y-61450000D03*
X135500000Y-51925000D03*
X125075000Y-54400000D03*
X127700000Y-55400000D03*
D24*
X125200000Y-58400000D03*
D23*
X135125000Y-59225000D03*
D24*
X125780800Y-93419200D03*
D23*
X126759720Y-94456000D03*
X125759720Y-94456000D03*
X124759720Y-94456000D03*
X126759720Y-93456000D03*
X124759720Y-93456000D03*
X126759720Y-92456000D03*
X125759720Y-92456000D03*
X124759720Y-92456000D03*
X130950000Y-56075000D03*
D24*
X124075000Y-51800000D03*
G04 #@! TO.N,/RST*
X133330000Y-93670000D03*
X132200400Y-75425400D03*
G04 #@! TO.N,/RX*
X117875000Y-91550000D03*
D23*
G04 #@! TO.N,/GPIO0*
X120275000Y-71725000D03*
X127850000Y-75325000D03*
D24*
G04 #@! TO.N,Net-(BT1-Pad1)*
X123450000Y-61350000D03*
X121800000Y-61350000D03*
D23*
X125749720Y-65046000D03*
X126749720Y-65046000D03*
X126830000Y-63100000D03*
X125749720Y-63046000D03*
X126749720Y-64046000D03*
D24*
X132650000Y-59350000D03*
X125899729Y-64009200D03*
G04 #@! TO.N,Net-(L1-Pad2)*
X123225000Y-65050000D03*
X121950000Y-65000000D03*
X129484080Y-63770640D03*
G04 #@! TO.N,/GPIO4*
X118150000Y-87550000D03*
D23*
G04 #@! TO.N,Net-(R6-Pad2)*
X127650000Y-56300000D03*
G04 #@! TO.N,/GND_ESP*
X117375000Y-79575000D03*
X118750000Y-79625000D03*
X118100000Y-79600000D03*
G04 #@! TO.N,Net-(Q1-Pad1)*
X128250000Y-62800000D03*
X127375000Y-60500000D03*
X134833400Y-61467400D03*
G04 #@! TD*
D25*
G04 #@! TO.N,/VCC*
X134726680Y-78257640D02*
X134625320Y-78359000D01*
X134726680Y-76106280D02*
X134726680Y-78257640D01*
X133384320Y-79600000D02*
X134625320Y-78359000D01*
X133300000Y-79600000D02*
X133384320Y-79600000D01*
X135509000Y-79242680D02*
X134625320Y-78359000D01*
X135509000Y-80264000D02*
X135509000Y-79242680D01*
X127825000Y-72950000D02*
X127850000Y-72925000D01*
X125550000Y-72950000D02*
X127825000Y-72950000D01*
X131139799Y-71849999D02*
X132257800Y-72968000D01*
X128925001Y-71849999D02*
X131139799Y-71849999D01*
X127850000Y-72925000D02*
X128925001Y-71849999D01*
X120656201Y-57304203D02*
X123526997Y-60174999D01*
X120656201Y-54870201D02*
X120656201Y-57304203D01*
X123526997Y-60174999D02*
X124524999Y-60174999D01*
X119456200Y-53670200D02*
X120656201Y-54870201D01*
X124524999Y-60174999D02*
X125175000Y-60825000D01*
X125149719Y-62757999D02*
X125149719Y-66049719D01*
X125175000Y-62732718D02*
X125149719Y-62757999D01*
X125175000Y-60825000D02*
X125175000Y-62732718D01*
X125149719Y-66049719D02*
X125875000Y-66775000D01*
X125875000Y-66775000D02*
X128525000Y-66775000D01*
X128525000Y-66775000D02*
X131500000Y-63800000D01*
X132257800Y-73117402D02*
X132257800Y-72968000D01*
X134726680Y-75586282D02*
X132257800Y-73117402D01*
X134726680Y-76106280D02*
X134726680Y-76106280D01*
X134726680Y-76106280D02*
X134726680Y-75586282D01*
D26*
G04 #@! TO.N,/GND*
X135500000Y-51925000D02*
X135100000Y-51925000D01*
X135100000Y-51925000D02*
X130950000Y-56075000D01*
X130950000Y-56075000D02*
X130950000Y-56075000D01*
D25*
X133900000Y-60450000D02*
X135125000Y-59225000D01*
X133900000Y-61450000D02*
X133900000Y-60450000D01*
X135125000Y-58542480D02*
X134269480Y-57686960D01*
X135125000Y-59225000D02*
X135125000Y-58542480D01*
X131199999Y-56324999D02*
X130950000Y-56075000D01*
X131199999Y-59800001D02*
X131199999Y-56324999D01*
X130500000Y-60500000D02*
X131199999Y-59800001D01*
D26*
G04 #@! TO.N,/RST*
X133124998Y-93670000D02*
X133330000Y-93670000D01*
X131774999Y-75850801D02*
X131774999Y-92320001D01*
X131774999Y-92320001D02*
X133124998Y-93670000D01*
X132257800Y-75368000D02*
X132200400Y-75425400D01*
X132200400Y-75425400D02*
X131774999Y-75850801D01*
G04 #@! TO.N,/TX*
X116574999Y-92299999D02*
X116574999Y-62324999D01*
X117875000Y-93600000D02*
X116574999Y-92299999D01*
X117609798Y-61290200D02*
X119456200Y-61290200D01*
X116574999Y-62324999D02*
X117609798Y-61290200D01*
X118100000Y-93600000D02*
X117875000Y-93600000D01*
G04 #@! TO.N,/EN*
X134900000Y-89600000D02*
X133300000Y-89600000D01*
X135310990Y-89189010D02*
X134900000Y-89600000D01*
X135310990Y-82562010D02*
X135310990Y-89189010D01*
X135509000Y-82364000D02*
X135310990Y-82562010D01*
G04 #@! TO.N,/GPIO2*
X119095002Y-83600000D02*
X118100000Y-83600000D01*
X123475001Y-79220001D02*
X119095002Y-83600000D01*
X123475001Y-77424999D02*
X123475001Y-79220001D01*
X125550000Y-75350000D02*
X123475001Y-77424999D01*
G04 #@! TO.N,/GPIO0*
X121095002Y-85600000D02*
X118100000Y-85600000D01*
X127850000Y-78845002D02*
X121095002Y-85600000D01*
X127850000Y-75325000D02*
X127850000Y-75325000D01*
X127850000Y-75325000D02*
X127850000Y-78845002D01*
D25*
G04 #@! TO.N,Net-(BT1-Pad1)*
X132575000Y-57381440D02*
X132575000Y-59425000D01*
X132575000Y-59425000D02*
X132650000Y-59350000D01*
X134269480Y-55686960D02*
X132575000Y-57381440D01*
X132650000Y-59350000D02*
X132750000Y-59250000D01*
X128482010Y-57049988D02*
X129690000Y-55841998D01*
X123190000Y-53340000D02*
X123190000Y-54754213D01*
X125485775Y-57049988D02*
X128482010Y-57049988D01*
X123190000Y-54754213D02*
X125485775Y-57049988D01*
X129690000Y-55841998D02*
X129690000Y-53340000D01*
X132575000Y-59425000D02*
X127990800Y-64009200D01*
X127990800Y-64009200D02*
X125899729Y-64009200D01*
D26*
G04 #@! TO.N,/GPIO15*
X119095002Y-81600000D02*
X118100000Y-81600000D01*
X121475001Y-79220001D02*
X119095002Y-81600000D01*
X121475001Y-77049999D02*
X121475001Y-79220001D01*
X123150000Y-75375000D02*
X121475001Y-77049999D01*
D25*
G04 #@! TO.N,Net-(D2-Pad2)*
X121453500Y-74200000D02*
X120418700Y-75234800D01*
X126430002Y-74200000D02*
X121453500Y-74200000D01*
X126605001Y-74025001D02*
X126430002Y-74200000D01*
X129024999Y-74025001D02*
X126605001Y-74025001D01*
X130100000Y-72950000D02*
X129024999Y-74025001D01*
D26*
G04 #@! TO.N,/GPIO5*
X119700000Y-89600000D02*
X118100000Y-89600000D01*
X129475001Y-79824999D02*
X119700000Y-89600000D01*
X129475001Y-75974999D02*
X129475001Y-79824999D01*
X130100000Y-75350000D02*
X129475001Y-75974999D01*
D25*
G04 #@! TO.N,Net-(D1-Pad2)*
X132364360Y-51699160D02*
X132557400Y-51892200D01*
X127905360Y-51699160D02*
X132364360Y-51699160D01*
G04 #@! TO.N,Net-(R6-Pad2)*
X125675001Y-54325001D02*
X127650000Y-56300000D01*
X125675001Y-54111999D02*
X125675001Y-54325001D01*
X125505360Y-53942358D02*
X125675001Y-54111999D01*
X125505360Y-51699160D02*
X125505360Y-53942358D01*
X129499999Y-57649999D02*
X129690000Y-57840000D01*
X124839999Y-57649999D02*
X129499999Y-57649999D01*
X123190000Y-57840000D02*
X124649998Y-57840000D01*
X124649998Y-57840000D02*
X124839999Y-57649999D01*
G04 #@! TO.N,/GND_ESP*
X118100000Y-79600000D02*
X118100000Y-79600000D01*
X124081498Y-69913500D02*
X133048500Y-69913500D01*
X120794998Y-73200000D02*
X124081498Y-69913500D01*
X118867454Y-73200000D02*
X120794998Y-73200000D01*
X117350000Y-74717454D02*
X118867454Y-73200000D01*
X117350000Y-76400000D02*
X117350000Y-74717454D01*
X118100000Y-77150000D02*
X117350000Y-76400000D01*
X118100000Y-79600000D02*
X118100000Y-77150000D01*
D27*
G04 #@! TO.N,Net-(Q1-Pad1)*
X128250000Y-62800000D02*
X127650000Y-62800000D01*
X127650000Y-62800000D02*
X127375000Y-62525000D01*
X127375000Y-62525000D02*
X127375000Y-60500000D01*
X127375000Y-60500000D02*
X127375000Y-60450000D01*
D25*
X135048500Y-70863500D02*
X135211500Y-70863500D01*
X135848501Y-70226499D02*
X135848501Y-62423501D01*
X135211500Y-70863500D02*
X135848501Y-70226499D01*
X135848501Y-62423501D02*
X134925000Y-61500000D01*
G04 #@! TD*
D28*
G04 #@! TO.N,/GND*
X130965000Y-92280203D02*
X130961080Y-92320001D01*
X130976720Y-92478788D01*
X131023037Y-92631474D01*
X131098250Y-92772190D01*
X131122485Y-92801720D01*
X131199472Y-92895529D01*
X131230382Y-92920896D01*
X131411928Y-93102442D01*
X131411928Y-94100000D01*
X131424188Y-94224482D01*
X131460498Y-94344180D01*
X131519463Y-94454494D01*
X131598815Y-94551185D01*
X131680079Y-94617877D01*
X119736237Y-94604487D01*
X119801185Y-94551185D01*
X119880537Y-94454494D01*
X119939502Y-94344180D01*
X119975812Y-94224482D01*
X119988072Y-94100000D01*
X119988072Y-93100000D01*
X119975812Y-92975518D01*
X119939502Y-92855820D01*
X119880537Y-92745506D01*
X119801185Y-92648815D01*
X119741704Y-92600000D01*
X119801185Y-92551185D01*
X119880537Y-92454494D01*
X119939502Y-92344180D01*
X119975812Y-92224482D01*
X119988072Y-92100000D01*
X119988072Y-91100000D01*
X119975812Y-90975518D01*
X119939502Y-90855820D01*
X119880537Y-90745506D01*
X119801185Y-90648815D01*
X119741704Y-90600000D01*
X119801185Y-90551185D01*
X119880537Y-90454494D01*
X119920608Y-90379527D01*
X120011473Y-90351963D01*
X120152189Y-90276749D01*
X120275528Y-90175528D01*
X120300900Y-90144612D01*
X130019613Y-80425899D01*
X130050529Y-80400527D01*
X130126893Y-80307477D01*
X130151750Y-80277189D01*
X130215302Y-80158290D01*
X130226964Y-80136472D01*
X130273281Y-79983787D01*
X130285001Y-79864790D01*
X130285001Y-79864787D01*
X130288920Y-79824999D01*
X130285001Y-79785211D01*
X130285001Y-79638072D01*
X130964999Y-79638072D01*
X130965000Y-92280203D01*
G04 #@! TA.AperFunction,Conductor*
D29*
G36*
X130965000Y-92280203D02*
G01*
X130961080Y-92320001D01*
X130976720Y-92478788D01*
X131023037Y-92631474D01*
X131098250Y-92772190D01*
X131122485Y-92801720D01*
X131199472Y-92895529D01*
X131230382Y-92920896D01*
X131411928Y-93102442D01*
X131411928Y-94100000D01*
X131424188Y-94224482D01*
X131460498Y-94344180D01*
X131519463Y-94454494D01*
X131598815Y-94551185D01*
X131680079Y-94617877D01*
X119736237Y-94604487D01*
X119801185Y-94551185D01*
X119880537Y-94454494D01*
X119939502Y-94344180D01*
X119975812Y-94224482D01*
X119988072Y-94100000D01*
X119988072Y-93100000D01*
X119975812Y-92975518D01*
X119939502Y-92855820D01*
X119880537Y-92745506D01*
X119801185Y-92648815D01*
X119741704Y-92600000D01*
X119801185Y-92551185D01*
X119880537Y-92454494D01*
X119939502Y-92344180D01*
X119975812Y-92224482D01*
X119988072Y-92100000D01*
X119988072Y-91100000D01*
X119975812Y-90975518D01*
X119939502Y-90855820D01*
X119880537Y-90745506D01*
X119801185Y-90648815D01*
X119741704Y-90600000D01*
X119801185Y-90551185D01*
X119880537Y-90454494D01*
X119920608Y-90379527D01*
X120011473Y-90351963D01*
X120152189Y-90276749D01*
X120275528Y-90175528D01*
X120300900Y-90144612D01*
X130019613Y-80425899D01*
X130050529Y-80400527D01*
X130126893Y-80307477D01*
X130151750Y-80277189D01*
X130215302Y-80158290D01*
X130226964Y-80136472D01*
X130273281Y-79983787D01*
X130285001Y-79864790D01*
X130285001Y-79864787D01*
X130288920Y-79824999D01*
X130285001Y-79785211D01*
X130285001Y-79638072D01*
X130964999Y-79638072D01*
X130965000Y-92280203D01*
G37*
G04 #@! TD.AperFunction*
D28*
X135840000Y-78322101D02*
X135778320Y-78260421D01*
X135778320Y-78232000D01*
X135798320Y-78232000D01*
X135798320Y-78212000D01*
X135840000Y-78212000D01*
X135840000Y-78322101D01*
G04 #@! TA.AperFunction,Conductor*
D29*
G36*
X135840000Y-78322101D02*
G01*
X135778320Y-78260421D01*
X135778320Y-78232000D01*
X135798320Y-78232000D01*
X135798320Y-78212000D01*
X135840000Y-78212000D01*
X135840000Y-78322101D01*
G37*
G04 #@! TD.AperFunction*
D28*
X118620700Y-75107800D02*
X118640700Y-75107800D01*
X118640700Y-75361800D01*
X118620700Y-75361800D01*
X118620700Y-75381800D01*
X118366700Y-75381800D01*
X118366700Y-75361800D01*
X118346700Y-75361800D01*
X118346700Y-75107800D01*
X118366700Y-75107800D01*
X118366700Y-75087800D01*
X118620700Y-75087800D01*
X118620700Y-75107800D01*
G04 #@! TA.AperFunction,Conductor*
D29*
G36*
X118620700Y-75107800D02*
G01*
X118640700Y-75107800D01*
X118640700Y-75361800D01*
X118620700Y-75361800D01*
X118620700Y-75381800D01*
X118366700Y-75381800D01*
X118366700Y-75361800D01*
X118346700Y-75361800D01*
X118346700Y-75107800D01*
X118366700Y-75107800D01*
X118366700Y-75087800D01*
X118620700Y-75087800D01*
X118620700Y-75107800D01*
G37*
G04 #@! TD.AperFunction*
D28*
X135534400Y-51765200D02*
X135554400Y-51765200D01*
X135554400Y-52019200D01*
X135534400Y-52019200D01*
X135534400Y-53193450D01*
X135693150Y-53352200D01*
X135840000Y-53353077D01*
X135840000Y-61163422D01*
X135520046Y-60843468D01*
X135419059Y-60760590D01*
X135265313Y-60678412D01*
X135175332Y-60651116D01*
X135091545Y-60616410D01*
X134920565Y-60582400D01*
X134746235Y-60582400D01*
X134575255Y-60616410D01*
X134414195Y-60683123D01*
X134269245Y-60779976D01*
X134145976Y-60903245D01*
X134049123Y-61048195D01*
X133982410Y-61209255D01*
X133948400Y-61380235D01*
X133948400Y-61554565D01*
X133982410Y-61725545D01*
X134049123Y-61886605D01*
X134145976Y-62031555D01*
X134269245Y-62154824D01*
X134414195Y-62251677D01*
X134432809Y-62259387D01*
X134963502Y-62790081D01*
X134963501Y-67928500D01*
X134921498Y-67928500D01*
X134921498Y-68087248D01*
X134762750Y-67928500D01*
X134598500Y-67925428D01*
X134474018Y-67937688D01*
X134354320Y-67973998D01*
X134244006Y-68032963D01*
X134147315Y-68112315D01*
X134067963Y-68209006D01*
X134008998Y-68319320D01*
X133972688Y-68439018D01*
X133960428Y-68563500D01*
X133963500Y-68677750D01*
X134122250Y-68836500D01*
X134921500Y-68836500D01*
X134921500Y-68816500D01*
X134963501Y-68816500D01*
X134963501Y-69110500D01*
X134921500Y-69110500D01*
X134921500Y-69090500D01*
X134122250Y-69090500D01*
X134037643Y-69175107D01*
X134029037Y-69159006D01*
X133949685Y-69062315D01*
X133852994Y-68982963D01*
X133742680Y-68923998D01*
X133622982Y-68887688D01*
X133498500Y-68875428D01*
X132598500Y-68875428D01*
X132474018Y-68887688D01*
X132354320Y-68923998D01*
X132244006Y-68982963D01*
X132188519Y-69028500D01*
X124124967Y-69028500D01*
X124081498Y-69024219D01*
X124038029Y-69028500D01*
X124038021Y-69028500D01*
X123908008Y-69041305D01*
X123741185Y-69091911D01*
X123676941Y-69126250D01*
X123587439Y-69174089D01*
X123486451Y-69256968D01*
X123486449Y-69256970D01*
X123452681Y-69284683D01*
X123424968Y-69318451D01*
X121751365Y-70992054D01*
X121744812Y-70925518D01*
X121708502Y-70805820D01*
X121649537Y-70695506D01*
X121570185Y-70598815D01*
X121473494Y-70519463D01*
X121363180Y-70460498D01*
X121243482Y-70424188D01*
X121119000Y-70411928D01*
X119419000Y-70411928D01*
X119294518Y-70424188D01*
X119174820Y-70460498D01*
X119064506Y-70519463D01*
X118967815Y-70598815D01*
X118888463Y-70695506D01*
X118829498Y-70805820D01*
X118793188Y-70925518D01*
X118780928Y-71050000D01*
X118780928Y-72319240D01*
X118693964Y-72327805D01*
X118527141Y-72378411D01*
X118373395Y-72460589D01*
X118351186Y-72478816D01*
X118272407Y-72543468D01*
X118272405Y-72543470D01*
X118238637Y-72571183D01*
X118210924Y-72604951D01*
X117384999Y-73430877D01*
X117384999Y-68650000D01*
X118780928Y-68650000D01*
X118793188Y-68774482D01*
X118829498Y-68894180D01*
X118888463Y-69004494D01*
X118967815Y-69101185D01*
X119064506Y-69180537D01*
X119174820Y-69239502D01*
X119294518Y-69275812D01*
X119419000Y-69288072D01*
X119983250Y-69285000D01*
X120142000Y-69126250D01*
X120142000Y-68127000D01*
X120396000Y-68127000D01*
X120396000Y-69126250D01*
X120554750Y-69285000D01*
X121119000Y-69288072D01*
X121243482Y-69275812D01*
X121363180Y-69239502D01*
X121473494Y-69180537D01*
X121570185Y-69101185D01*
X121649537Y-69004494D01*
X121708502Y-68894180D01*
X121744812Y-68774482D01*
X121757072Y-68650000D01*
X121754000Y-68285750D01*
X121595250Y-68127000D01*
X120396000Y-68127000D01*
X120142000Y-68127000D01*
X118942750Y-68127000D01*
X118784000Y-68285750D01*
X118780928Y-68650000D01*
X117384999Y-68650000D01*
X117384999Y-67350000D01*
X118780928Y-67350000D01*
X118784000Y-67714250D01*
X118942750Y-67873000D01*
X120142000Y-67873000D01*
X120142000Y-66873750D01*
X120396000Y-66873750D01*
X120396000Y-67873000D01*
X121595250Y-67873000D01*
X121754000Y-67714250D01*
X121757072Y-67350000D01*
X121744812Y-67225518D01*
X121708502Y-67105820D01*
X121649537Y-66995506D01*
X121570185Y-66898815D01*
X121473494Y-66819463D01*
X121363180Y-66760498D01*
X121243482Y-66724188D01*
X121119000Y-66711928D01*
X120554750Y-66715000D01*
X120396000Y-66873750D01*
X120142000Y-66873750D01*
X119983250Y-66715000D01*
X119419000Y-66711928D01*
X119294518Y-66724188D01*
X119174820Y-66760498D01*
X119064506Y-66819463D01*
X118967815Y-66898815D01*
X118888463Y-66995506D01*
X118829498Y-67105820D01*
X118793188Y-67225518D01*
X118780928Y-67350000D01*
X117384999Y-67350000D01*
X117384999Y-62660511D01*
X117945311Y-62100200D01*
X118211430Y-62100200D01*
X118302725Y-62236832D01*
X118509568Y-62443675D01*
X118683960Y-62560200D01*
X118509568Y-62676725D01*
X118302725Y-62883568D01*
X118140210Y-63126789D01*
X118028268Y-63397042D01*
X117971200Y-63683940D01*
X117971200Y-63976460D01*
X118028268Y-64263358D01*
X118140210Y-64533611D01*
X118302725Y-64776832D01*
X118509568Y-64983675D01*
X118752789Y-65146190D01*
X119023042Y-65258132D01*
X119309940Y-65315200D01*
X119602460Y-65315200D01*
X119889358Y-65258132D01*
X120159611Y-65146190D01*
X120402832Y-64983675D01*
X120609675Y-64776832D01*
X120634928Y-64739038D01*
X120634928Y-65859000D01*
X120647188Y-65983482D01*
X120683498Y-66103180D01*
X120742463Y-66213494D01*
X120821815Y-66310185D01*
X120918506Y-66389537D01*
X121028820Y-66448502D01*
X121148518Y-66484812D01*
X121273000Y-66497072D01*
X124067000Y-66497072D01*
X124191482Y-66484812D01*
X124311180Y-66448502D01*
X124348672Y-66428462D01*
X124410309Y-66543778D01*
X124493187Y-66644765D01*
X124493190Y-66644768D01*
X124520903Y-66678536D01*
X124554670Y-66706248D01*
X125218470Y-67370049D01*
X125246183Y-67403817D01*
X125279951Y-67431530D01*
X125279953Y-67431532D01*
X125351452Y-67490210D01*
X125380941Y-67514411D01*
X125534687Y-67596589D01*
X125701510Y-67647195D01*
X125831523Y-67660000D01*
X125831533Y-67660000D01*
X125874999Y-67664281D01*
X125918465Y-67660000D01*
X128481531Y-67660000D01*
X128525000Y-67664281D01*
X128568469Y-67660000D01*
X128568477Y-67660000D01*
X128698490Y-67647195D01*
X128865313Y-67596589D01*
X129019059Y-67514411D01*
X129153817Y-67403817D01*
X129181534Y-67370044D01*
X132156532Y-64395047D01*
X132239410Y-64294060D01*
X132321588Y-64140314D01*
X132372194Y-63973491D01*
X132389281Y-63800001D01*
X132372194Y-63626511D01*
X132321588Y-63459687D01*
X132239410Y-63305942D01*
X132128817Y-63171183D01*
X131994058Y-63060590D01*
X131947046Y-63035462D01*
X131873565Y-62986363D01*
X131712505Y-62919650D01*
X131541525Y-62885640D01*
X131367195Y-62885640D01*
X131196215Y-62919650D01*
X131035155Y-62986363D01*
X130890205Y-63083216D01*
X130766936Y-63206485D01*
X130670083Y-63351435D01*
X130651060Y-63397361D01*
X130495959Y-63552462D01*
X130479306Y-63468742D01*
X130401285Y-63280384D01*
X130288017Y-63110866D01*
X130214365Y-63037214D01*
X132895044Y-60356535D01*
X132951898Y-60345226D01*
X133140256Y-60267205D01*
X133309774Y-60153937D01*
X133453937Y-60009774D01*
X133567205Y-59840256D01*
X133645226Y-59651898D01*
X133685000Y-59451939D01*
X133685000Y-59248061D01*
X133645226Y-59048102D01*
X133567205Y-58859744D01*
X133555888Y-58842807D01*
X133628984Y-58873453D01*
X133867480Y-58921960D01*
X134142480Y-58921960D01*
X134142480Y-57813960D01*
X134396480Y-57813960D01*
X134396480Y-58921960D01*
X134671480Y-58921960D01*
X134909976Y-58873453D01*
X135134426Y-58779350D01*
X135336205Y-58643267D01*
X135507558Y-58470434D01*
X135641901Y-58267493D01*
X135734071Y-58042242D01*
X135737942Y-58004569D01*
X135613211Y-57813960D01*
X134396480Y-57813960D01*
X134142480Y-57813960D01*
X134122480Y-57813960D01*
X134122480Y-57559960D01*
X134142480Y-57559960D01*
X134142480Y-57539960D01*
X134396480Y-57539960D01*
X134396480Y-57559960D01*
X135613211Y-57559960D01*
X135737942Y-57369351D01*
X135734071Y-57331678D01*
X135641901Y-57106427D01*
X135507558Y-56903486D01*
X135383074Y-56777927D01*
X135387867Y-56775365D01*
X135522442Y-56664922D01*
X135632885Y-56530347D01*
X135714952Y-56376811D01*
X135765488Y-56210215D01*
X135782552Y-56036961D01*
X135782552Y-55336959D01*
X135765488Y-55163705D01*
X135714952Y-54997109D01*
X135632885Y-54843573D01*
X135522442Y-54708998D01*
X135387867Y-54598555D01*
X135234331Y-54516488D01*
X135067735Y-54465952D01*
X134894481Y-54448888D01*
X133644479Y-54448888D01*
X133471225Y-54465952D01*
X133304629Y-54516488D01*
X133151093Y-54598555D01*
X133016518Y-54708998D01*
X132906075Y-54843573D01*
X132824008Y-54997109D01*
X132773472Y-55163705D01*
X132756408Y-55336959D01*
X132756408Y-55948454D01*
X131979956Y-56724906D01*
X131946183Y-56752623D01*
X131835589Y-56887382D01*
X131753411Y-57041128D01*
X131726235Y-57130713D01*
X131708469Y-57189281D01*
X131702805Y-57207951D01*
X131690000Y-57337964D01*
X131690000Y-57337971D01*
X131685719Y-57381440D01*
X131690000Y-57424909D01*
X131690001Y-58963058D01*
X131654774Y-59048102D01*
X131643465Y-59104956D01*
X128707267Y-62041155D01*
X128669205Y-62015723D01*
X128508145Y-61949010D01*
X128337165Y-61915000D01*
X128162835Y-61915000D01*
X128135000Y-61920537D01*
X128135000Y-60955538D01*
X128159277Y-60919205D01*
X128225990Y-60758145D01*
X128260000Y-60587165D01*
X128260000Y-60412835D01*
X128225990Y-60241855D01*
X128159277Y-60080795D01*
X128062424Y-59935845D01*
X127939155Y-59812576D01*
X127794205Y-59715723D01*
X127633145Y-59649010D01*
X127462165Y-59615000D01*
X127287835Y-59615000D01*
X127116855Y-59649010D01*
X126955795Y-59715723D01*
X126810845Y-59812576D01*
X126687576Y-59935845D01*
X126590723Y-60080795D01*
X126524010Y-60241855D01*
X126490000Y-60412835D01*
X126490000Y-60587165D01*
X126524010Y-60758145D01*
X126590723Y-60919205D01*
X126615001Y-60955539D01*
X126615000Y-62240428D01*
X126571855Y-62249010D01*
X126410795Y-62315723D01*
X126327007Y-62371708D01*
X126313875Y-62358576D01*
X126168925Y-62261723D01*
X126060000Y-62216605D01*
X126060000Y-60868465D01*
X126064281Y-60824999D01*
X126060000Y-60781533D01*
X126060000Y-60781523D01*
X126047195Y-60651510D01*
X125996589Y-60484687D01*
X125914411Y-60330941D01*
X125886716Y-60297195D01*
X125831532Y-60229953D01*
X125831530Y-60229951D01*
X125803817Y-60196183D01*
X125770050Y-60168471D01*
X125181533Y-59579955D01*
X125153816Y-59546182D01*
X125019058Y-59435588D01*
X124865312Y-59353410D01*
X124698489Y-59302804D01*
X124568476Y-59289999D01*
X124568468Y-59289999D01*
X124524999Y-59285718D01*
X124481530Y-59289999D01*
X123961853Y-59289999D01*
X123964463Y-59288918D01*
X124232252Y-59109987D01*
X124459987Y-58882252D01*
X124565059Y-58725000D01*
X124606529Y-58725000D01*
X124649998Y-58729281D01*
X124693467Y-58725000D01*
X124693475Y-58725000D01*
X124823488Y-58712195D01*
X124990311Y-58661589D01*
X125144057Y-58579411D01*
X125198173Y-58534999D01*
X128208167Y-58534999D01*
X128241082Y-58614463D01*
X128420013Y-58882252D01*
X128647748Y-59109987D01*
X128915537Y-59288918D01*
X129213088Y-59412168D01*
X129528967Y-59475000D01*
X129851033Y-59475000D01*
X130166912Y-59412168D01*
X130464463Y-59288918D01*
X130732252Y-59109987D01*
X130959987Y-58882252D01*
X131138918Y-58614463D01*
X131262168Y-58316912D01*
X131325000Y-58001033D01*
X131325000Y-57678967D01*
X131262168Y-57363088D01*
X131138918Y-57065537D01*
X130959987Y-56797748D01*
X130732252Y-56570013D01*
X130464463Y-56391082D01*
X130404602Y-56366287D01*
X130429411Y-56336057D01*
X130458301Y-56282007D01*
X130511589Y-56182311D01*
X130562195Y-56015488D01*
X130575000Y-55885475D01*
X130575000Y-55885467D01*
X130579281Y-55841998D01*
X130575000Y-55798529D01*
X130575000Y-54715059D01*
X130732252Y-54609987D01*
X130959987Y-54382252D01*
X131138918Y-54114463D01*
X131262168Y-53816912D01*
X131325000Y-53501033D01*
X131325000Y-53178967D01*
X131285582Y-52980797D01*
X131379438Y-53095162D01*
X131514014Y-53205605D01*
X131667550Y-53287672D01*
X131834146Y-53338208D01*
X132007400Y-53355272D01*
X133107400Y-53355272D01*
X133280654Y-53338208D01*
X133447250Y-53287672D01*
X133600786Y-53205605D01*
X133735362Y-53095162D01*
X133845805Y-52960586D01*
X133927872Y-52807050D01*
X133969600Y-52669491D01*
X133969328Y-52717200D01*
X133981588Y-52841682D01*
X134017898Y-52961380D01*
X134076863Y-53071694D01*
X134156215Y-53168385D01*
X134252906Y-53247737D01*
X134363220Y-53306702D01*
X134482918Y-53343012D01*
X134607400Y-53355272D01*
X135121650Y-53352200D01*
X135280400Y-53193450D01*
X135280400Y-52019200D01*
X135260400Y-52019200D01*
X135260400Y-51765200D01*
X135280400Y-51765200D01*
X135280400Y-51745200D01*
X135534400Y-51745200D01*
X135534400Y-51765200D01*
G04 #@! TA.AperFunction,Conductor*
D29*
G36*
X135534400Y-51765200D02*
G01*
X135554400Y-51765200D01*
X135554400Y-52019200D01*
X135534400Y-52019200D01*
X135534400Y-53193450D01*
X135693150Y-53352200D01*
X135840000Y-53353077D01*
X135840000Y-61163422D01*
X135520046Y-60843468D01*
X135419059Y-60760590D01*
X135265313Y-60678412D01*
X135175332Y-60651116D01*
X135091545Y-60616410D01*
X134920565Y-60582400D01*
X134746235Y-60582400D01*
X134575255Y-60616410D01*
X134414195Y-60683123D01*
X134269245Y-60779976D01*
X134145976Y-60903245D01*
X134049123Y-61048195D01*
X133982410Y-61209255D01*
X133948400Y-61380235D01*
X133948400Y-61554565D01*
X133982410Y-61725545D01*
X134049123Y-61886605D01*
X134145976Y-62031555D01*
X134269245Y-62154824D01*
X134414195Y-62251677D01*
X134432809Y-62259387D01*
X134963502Y-62790081D01*
X134963501Y-67928500D01*
X134921498Y-67928500D01*
X134921498Y-68087248D01*
X134762750Y-67928500D01*
X134598500Y-67925428D01*
X134474018Y-67937688D01*
X134354320Y-67973998D01*
X134244006Y-68032963D01*
X134147315Y-68112315D01*
X134067963Y-68209006D01*
X134008998Y-68319320D01*
X133972688Y-68439018D01*
X133960428Y-68563500D01*
X133963500Y-68677750D01*
X134122250Y-68836500D01*
X134921500Y-68836500D01*
X134921500Y-68816500D01*
X134963501Y-68816500D01*
X134963501Y-69110500D01*
X134921500Y-69110500D01*
X134921500Y-69090500D01*
X134122250Y-69090500D01*
X134037643Y-69175107D01*
X134029037Y-69159006D01*
X133949685Y-69062315D01*
X133852994Y-68982963D01*
X133742680Y-68923998D01*
X133622982Y-68887688D01*
X133498500Y-68875428D01*
X132598500Y-68875428D01*
X132474018Y-68887688D01*
X132354320Y-68923998D01*
X132244006Y-68982963D01*
X132188519Y-69028500D01*
X124124967Y-69028500D01*
X124081498Y-69024219D01*
X124038029Y-69028500D01*
X124038021Y-69028500D01*
X123908008Y-69041305D01*
X123741185Y-69091911D01*
X123676941Y-69126250D01*
X123587439Y-69174089D01*
X123486451Y-69256968D01*
X123486449Y-69256970D01*
X123452681Y-69284683D01*
X123424968Y-69318451D01*
X121751365Y-70992054D01*
X121744812Y-70925518D01*
X121708502Y-70805820D01*
X121649537Y-70695506D01*
X121570185Y-70598815D01*
X121473494Y-70519463D01*
X121363180Y-70460498D01*
X121243482Y-70424188D01*
X121119000Y-70411928D01*
X119419000Y-70411928D01*
X119294518Y-70424188D01*
X119174820Y-70460498D01*
X119064506Y-70519463D01*
X118967815Y-70598815D01*
X118888463Y-70695506D01*
X118829498Y-70805820D01*
X118793188Y-70925518D01*
X118780928Y-71050000D01*
X118780928Y-72319240D01*
X118693964Y-72327805D01*
X118527141Y-72378411D01*
X118373395Y-72460589D01*
X118351186Y-72478816D01*
X118272407Y-72543468D01*
X118272405Y-72543470D01*
X118238637Y-72571183D01*
X118210924Y-72604951D01*
X117384999Y-73430877D01*
X117384999Y-68650000D01*
X118780928Y-68650000D01*
X118793188Y-68774482D01*
X118829498Y-68894180D01*
X118888463Y-69004494D01*
X118967815Y-69101185D01*
X119064506Y-69180537D01*
X119174820Y-69239502D01*
X119294518Y-69275812D01*
X119419000Y-69288072D01*
X119983250Y-69285000D01*
X120142000Y-69126250D01*
X120142000Y-68127000D01*
X120396000Y-68127000D01*
X120396000Y-69126250D01*
X120554750Y-69285000D01*
X121119000Y-69288072D01*
X121243482Y-69275812D01*
X121363180Y-69239502D01*
X121473494Y-69180537D01*
X121570185Y-69101185D01*
X121649537Y-69004494D01*
X121708502Y-68894180D01*
X121744812Y-68774482D01*
X121757072Y-68650000D01*
X121754000Y-68285750D01*
X121595250Y-68127000D01*
X120396000Y-68127000D01*
X120142000Y-68127000D01*
X118942750Y-68127000D01*
X118784000Y-68285750D01*
X118780928Y-68650000D01*
X117384999Y-68650000D01*
X117384999Y-67350000D01*
X118780928Y-67350000D01*
X118784000Y-67714250D01*
X118942750Y-67873000D01*
X120142000Y-67873000D01*
X120142000Y-66873750D01*
X120396000Y-66873750D01*
X120396000Y-67873000D01*
X121595250Y-67873000D01*
X121754000Y-67714250D01*
X121757072Y-67350000D01*
X121744812Y-67225518D01*
X121708502Y-67105820D01*
X121649537Y-66995506D01*
X121570185Y-66898815D01*
X121473494Y-66819463D01*
X121363180Y-66760498D01*
X121243482Y-66724188D01*
X121119000Y-66711928D01*
X120554750Y-66715000D01*
X120396000Y-66873750D01*
X120142000Y-66873750D01*
X119983250Y-66715000D01*
X119419000Y-66711928D01*
X119294518Y-66724188D01*
X119174820Y-66760498D01*
X119064506Y-66819463D01*
X118967815Y-66898815D01*
X118888463Y-66995506D01*
X118829498Y-67105820D01*
X118793188Y-67225518D01*
X118780928Y-67350000D01*
X117384999Y-67350000D01*
X117384999Y-62660511D01*
X117945311Y-62100200D01*
X118211430Y-62100200D01*
X118302725Y-62236832D01*
X118509568Y-62443675D01*
X118683960Y-62560200D01*
X118509568Y-62676725D01*
X118302725Y-62883568D01*
X118140210Y-63126789D01*
X118028268Y-63397042D01*
X117971200Y-63683940D01*
X117971200Y-63976460D01*
X118028268Y-64263358D01*
X118140210Y-64533611D01*
X118302725Y-64776832D01*
X118509568Y-64983675D01*
X118752789Y-65146190D01*
X119023042Y-65258132D01*
X119309940Y-65315200D01*
X119602460Y-65315200D01*
X119889358Y-65258132D01*
X120159611Y-65146190D01*
X120402832Y-64983675D01*
X120609675Y-64776832D01*
X120634928Y-64739038D01*
X120634928Y-65859000D01*
X120647188Y-65983482D01*
X120683498Y-66103180D01*
X120742463Y-66213494D01*
X120821815Y-66310185D01*
X120918506Y-66389537D01*
X121028820Y-66448502D01*
X121148518Y-66484812D01*
X121273000Y-66497072D01*
X124067000Y-66497072D01*
X124191482Y-66484812D01*
X124311180Y-66448502D01*
X124348672Y-66428462D01*
X124410309Y-66543778D01*
X124493187Y-66644765D01*
X124493190Y-66644768D01*
X124520903Y-66678536D01*
X124554670Y-66706248D01*
X125218470Y-67370049D01*
X125246183Y-67403817D01*
X125279951Y-67431530D01*
X125279953Y-67431532D01*
X125351452Y-67490210D01*
X125380941Y-67514411D01*
X125534687Y-67596589D01*
X125701510Y-67647195D01*
X125831523Y-67660000D01*
X125831533Y-67660000D01*
X125874999Y-67664281D01*
X125918465Y-67660000D01*
X128481531Y-67660000D01*
X128525000Y-67664281D01*
X128568469Y-67660000D01*
X128568477Y-67660000D01*
X128698490Y-67647195D01*
X128865313Y-67596589D01*
X129019059Y-67514411D01*
X129153817Y-67403817D01*
X129181534Y-67370044D01*
X132156532Y-64395047D01*
X132239410Y-64294060D01*
X132321588Y-64140314D01*
X132372194Y-63973491D01*
X132389281Y-63800001D01*
X132372194Y-63626511D01*
X132321588Y-63459687D01*
X132239410Y-63305942D01*
X132128817Y-63171183D01*
X131994058Y-63060590D01*
X131947046Y-63035462D01*
X131873565Y-62986363D01*
X131712505Y-62919650D01*
X131541525Y-62885640D01*
X131367195Y-62885640D01*
X131196215Y-62919650D01*
X131035155Y-62986363D01*
X130890205Y-63083216D01*
X130766936Y-63206485D01*
X130670083Y-63351435D01*
X130651060Y-63397361D01*
X130495959Y-63552462D01*
X130479306Y-63468742D01*
X130401285Y-63280384D01*
X130288017Y-63110866D01*
X130214365Y-63037214D01*
X132895044Y-60356535D01*
X132951898Y-60345226D01*
X133140256Y-60267205D01*
X133309774Y-60153937D01*
X133453937Y-60009774D01*
X133567205Y-59840256D01*
X133645226Y-59651898D01*
X133685000Y-59451939D01*
X133685000Y-59248061D01*
X133645226Y-59048102D01*
X133567205Y-58859744D01*
X133555888Y-58842807D01*
X133628984Y-58873453D01*
X133867480Y-58921960D01*
X134142480Y-58921960D01*
X134142480Y-57813960D01*
X134396480Y-57813960D01*
X134396480Y-58921960D01*
X134671480Y-58921960D01*
X134909976Y-58873453D01*
X135134426Y-58779350D01*
X135336205Y-58643267D01*
X135507558Y-58470434D01*
X135641901Y-58267493D01*
X135734071Y-58042242D01*
X135737942Y-58004569D01*
X135613211Y-57813960D01*
X134396480Y-57813960D01*
X134142480Y-57813960D01*
X134122480Y-57813960D01*
X134122480Y-57559960D01*
X134142480Y-57559960D01*
X134142480Y-57539960D01*
X134396480Y-57539960D01*
X134396480Y-57559960D01*
X135613211Y-57559960D01*
X135737942Y-57369351D01*
X135734071Y-57331678D01*
X135641901Y-57106427D01*
X135507558Y-56903486D01*
X135383074Y-56777927D01*
X135387867Y-56775365D01*
X135522442Y-56664922D01*
X135632885Y-56530347D01*
X135714952Y-56376811D01*
X135765488Y-56210215D01*
X135782552Y-56036961D01*
X135782552Y-55336959D01*
X135765488Y-55163705D01*
X135714952Y-54997109D01*
X135632885Y-54843573D01*
X135522442Y-54708998D01*
X135387867Y-54598555D01*
X135234331Y-54516488D01*
X135067735Y-54465952D01*
X134894481Y-54448888D01*
X133644479Y-54448888D01*
X133471225Y-54465952D01*
X133304629Y-54516488D01*
X133151093Y-54598555D01*
X133016518Y-54708998D01*
X132906075Y-54843573D01*
X132824008Y-54997109D01*
X132773472Y-55163705D01*
X132756408Y-55336959D01*
X132756408Y-55948454D01*
X131979956Y-56724906D01*
X131946183Y-56752623D01*
X131835589Y-56887382D01*
X131753411Y-57041128D01*
X131726235Y-57130713D01*
X131708469Y-57189281D01*
X131702805Y-57207951D01*
X131690000Y-57337964D01*
X131690000Y-57337971D01*
X131685719Y-57381440D01*
X131690000Y-57424909D01*
X131690001Y-58963058D01*
X131654774Y-59048102D01*
X131643465Y-59104956D01*
X128707267Y-62041155D01*
X128669205Y-62015723D01*
X128508145Y-61949010D01*
X128337165Y-61915000D01*
X128162835Y-61915000D01*
X128135000Y-61920537D01*
X128135000Y-60955538D01*
X128159277Y-60919205D01*
X128225990Y-60758145D01*
X128260000Y-60587165D01*
X128260000Y-60412835D01*
X128225990Y-60241855D01*
X128159277Y-60080795D01*
X128062424Y-59935845D01*
X127939155Y-59812576D01*
X127794205Y-59715723D01*
X127633145Y-59649010D01*
X127462165Y-59615000D01*
X127287835Y-59615000D01*
X127116855Y-59649010D01*
X126955795Y-59715723D01*
X126810845Y-59812576D01*
X126687576Y-59935845D01*
X126590723Y-60080795D01*
X126524010Y-60241855D01*
X126490000Y-60412835D01*
X126490000Y-60587165D01*
X126524010Y-60758145D01*
X126590723Y-60919205D01*
X126615001Y-60955539D01*
X126615000Y-62240428D01*
X126571855Y-62249010D01*
X126410795Y-62315723D01*
X126327007Y-62371708D01*
X126313875Y-62358576D01*
X126168925Y-62261723D01*
X126060000Y-62216605D01*
X126060000Y-60868465D01*
X126064281Y-60824999D01*
X126060000Y-60781533D01*
X126060000Y-60781523D01*
X126047195Y-60651510D01*
X125996589Y-60484687D01*
X125914411Y-60330941D01*
X125886716Y-60297195D01*
X125831532Y-60229953D01*
X125831530Y-60229951D01*
X125803817Y-60196183D01*
X125770050Y-60168471D01*
X125181533Y-59579955D01*
X125153816Y-59546182D01*
X125019058Y-59435588D01*
X124865312Y-59353410D01*
X124698489Y-59302804D01*
X124568476Y-59289999D01*
X124568468Y-59289999D01*
X124524999Y-59285718D01*
X124481530Y-59289999D01*
X123961853Y-59289999D01*
X123964463Y-59288918D01*
X124232252Y-59109987D01*
X124459987Y-58882252D01*
X124565059Y-58725000D01*
X124606529Y-58725000D01*
X124649998Y-58729281D01*
X124693467Y-58725000D01*
X124693475Y-58725000D01*
X124823488Y-58712195D01*
X124990311Y-58661589D01*
X125144057Y-58579411D01*
X125198173Y-58534999D01*
X128208167Y-58534999D01*
X128241082Y-58614463D01*
X128420013Y-58882252D01*
X128647748Y-59109987D01*
X128915537Y-59288918D01*
X129213088Y-59412168D01*
X129528967Y-59475000D01*
X129851033Y-59475000D01*
X130166912Y-59412168D01*
X130464463Y-59288918D01*
X130732252Y-59109987D01*
X130959987Y-58882252D01*
X131138918Y-58614463D01*
X131262168Y-58316912D01*
X131325000Y-58001033D01*
X131325000Y-57678967D01*
X131262168Y-57363088D01*
X131138918Y-57065537D01*
X130959987Y-56797748D01*
X130732252Y-56570013D01*
X130464463Y-56391082D01*
X130404602Y-56366287D01*
X130429411Y-56336057D01*
X130458301Y-56282007D01*
X130511589Y-56182311D01*
X130562195Y-56015488D01*
X130575000Y-55885475D01*
X130575000Y-55885467D01*
X130579281Y-55841998D01*
X130575000Y-55798529D01*
X130575000Y-54715059D01*
X130732252Y-54609987D01*
X130959987Y-54382252D01*
X131138918Y-54114463D01*
X131262168Y-53816912D01*
X131325000Y-53501033D01*
X131325000Y-53178967D01*
X131285582Y-52980797D01*
X131379438Y-53095162D01*
X131514014Y-53205605D01*
X131667550Y-53287672D01*
X131834146Y-53338208D01*
X132007400Y-53355272D01*
X133107400Y-53355272D01*
X133280654Y-53338208D01*
X133447250Y-53287672D01*
X133600786Y-53205605D01*
X133735362Y-53095162D01*
X133845805Y-52960586D01*
X133927872Y-52807050D01*
X133969600Y-52669491D01*
X133969328Y-52717200D01*
X133981588Y-52841682D01*
X134017898Y-52961380D01*
X134076863Y-53071694D01*
X134156215Y-53168385D01*
X134252906Y-53247737D01*
X134363220Y-53306702D01*
X134482918Y-53343012D01*
X134607400Y-53355272D01*
X135121650Y-53352200D01*
X135280400Y-53193450D01*
X135280400Y-52019200D01*
X135260400Y-52019200D01*
X135260400Y-51765200D01*
X135280400Y-51765200D01*
X135280400Y-51745200D01*
X135534400Y-51745200D01*
X135534400Y-51765200D01*
G37*
G04 #@! TD.AperFunction*
D28*
X134853680Y-72879280D02*
X134873680Y-72879280D01*
X134873680Y-73133280D01*
X134853680Y-73133280D01*
X134853680Y-73153280D01*
X134599680Y-73153280D01*
X134599680Y-73133280D01*
X134579680Y-73133280D01*
X134579680Y-72879280D01*
X134599680Y-72879280D01*
X134599680Y-72859280D01*
X134853680Y-72859280D01*
X134853680Y-72879280D01*
G04 #@! TA.AperFunction,Conductor*
D29*
G36*
X134853680Y-72879280D02*
G01*
X134873680Y-72879280D01*
X134873680Y-73133280D01*
X134853680Y-73133280D01*
X134853680Y-73153280D01*
X134599680Y-73153280D01*
X134599680Y-73133280D01*
X134579680Y-73133280D01*
X134579680Y-72879280D01*
X134599680Y-72879280D01*
X134599680Y-72859280D01*
X134853680Y-72859280D01*
X134853680Y-72879280D01*
G37*
G04 #@! TD.AperFunction*
D28*
X123277000Y-72848000D02*
X123297000Y-72848000D01*
X123297000Y-73102000D01*
X123277000Y-73102000D01*
X123277000Y-73122000D01*
X123023000Y-73122000D01*
X123023000Y-73102000D01*
X123003000Y-73102000D01*
X123003000Y-72848000D01*
X123023000Y-72848000D01*
X123023000Y-72828000D01*
X123277000Y-72828000D01*
X123277000Y-72848000D01*
G04 #@! TA.AperFunction,Conductor*
D29*
G36*
X123277000Y-72848000D02*
G01*
X123297000Y-72848000D01*
X123297000Y-73102000D01*
X123277000Y-73102000D01*
X123277000Y-73122000D01*
X123023000Y-73122000D01*
X123023000Y-73102000D01*
X123003000Y-73102000D01*
X123003000Y-72848000D01*
X123023000Y-72848000D01*
X123023000Y-72828000D01*
X123277000Y-72828000D01*
X123277000Y-72848000D01*
G37*
G04 #@! TD.AperFunction*
D28*
X124117288Y-51993196D02*
X123964463Y-51891082D01*
X123666912Y-51767832D01*
X123351033Y-51705000D01*
X123028967Y-51705000D01*
X122713088Y-51767832D01*
X122415537Y-51891082D01*
X122147748Y-52070013D01*
X121920013Y-52297748D01*
X121741082Y-52565537D01*
X121617832Y-52863088D01*
X121555000Y-53178967D01*
X121555000Y-53501033D01*
X121617832Y-53816912D01*
X121741082Y-54114463D01*
X121920013Y-54382252D01*
X122147748Y-54609987D01*
X122304601Y-54714793D01*
X122300719Y-54754213D01*
X122317805Y-54927703D01*
X122368412Y-55094526D01*
X122450590Y-55248272D01*
X122533468Y-55349259D01*
X122533471Y-55349262D01*
X122561184Y-55383030D01*
X122594951Y-55410742D01*
X123398688Y-56214479D01*
X123351033Y-56205000D01*
X123028967Y-56205000D01*
X122713088Y-56267832D01*
X122415537Y-56391082D01*
X122147748Y-56570013D01*
X121920013Y-56797748D01*
X121741082Y-57065537D01*
X121720003Y-57116427D01*
X121541201Y-56937625D01*
X121541201Y-54913670D01*
X121545482Y-54870201D01*
X121541201Y-54826732D01*
X121541201Y-54826724D01*
X121528396Y-54696711D01*
X121493211Y-54580723D01*
X121477790Y-54529887D01*
X121395612Y-54376142D01*
X121312733Y-54275154D01*
X121312731Y-54275152D01*
X121285018Y-54241384D01*
X121251251Y-54213672D01*
X120944272Y-53906693D01*
X120944272Y-52820200D01*
X120932012Y-52695718D01*
X120895702Y-52576020D01*
X120836737Y-52465706D01*
X120757385Y-52369015D01*
X120660694Y-52289663D01*
X120550380Y-52230698D01*
X120430682Y-52194388D01*
X120306200Y-52182128D01*
X118606200Y-52182128D01*
X118481718Y-52194388D01*
X118362020Y-52230698D01*
X118251706Y-52289663D01*
X118155015Y-52369015D01*
X118075663Y-52465706D01*
X118016698Y-52576020D01*
X117980388Y-52695718D01*
X117968128Y-52820200D01*
X117968128Y-54520200D01*
X117980388Y-54644682D01*
X118016698Y-54764380D01*
X118075663Y-54874694D01*
X118155015Y-54971385D01*
X118251706Y-55050737D01*
X118362020Y-55109702D01*
X118442666Y-55134166D01*
X118358612Y-55209931D01*
X118184559Y-55443280D01*
X118059375Y-55706101D01*
X118014724Y-55853310D01*
X118136045Y-56083200D01*
X119329200Y-56083200D01*
X119329200Y-56063200D01*
X119583200Y-56063200D01*
X119583200Y-56083200D01*
X119603200Y-56083200D01*
X119603200Y-56337200D01*
X119583200Y-56337200D01*
X119583200Y-56357200D01*
X119329200Y-56357200D01*
X119329200Y-56337200D01*
X118136045Y-56337200D01*
X118014724Y-56567090D01*
X118059375Y-56714299D01*
X118184559Y-56977120D01*
X118358612Y-57210469D01*
X118574845Y-57405378D01*
X118691734Y-57475005D01*
X118509568Y-57596725D01*
X118302725Y-57803568D01*
X118140210Y-58046789D01*
X118028268Y-58317042D01*
X117971200Y-58603940D01*
X117971200Y-58896460D01*
X118028268Y-59183358D01*
X118140210Y-59453611D01*
X118302725Y-59696832D01*
X118509568Y-59903675D01*
X118683960Y-60020200D01*
X118509568Y-60136725D01*
X118302725Y-60343568D01*
X118211430Y-60480200D01*
X117649586Y-60480200D01*
X117609798Y-60476281D01*
X117570010Y-60480200D01*
X117570007Y-60480200D01*
X117451010Y-60491920D01*
X117298325Y-60538237D01*
X117157609Y-60613451D01*
X117034270Y-60714672D01*
X117008903Y-60745582D01*
X116255000Y-61499486D01*
X116255000Y-51485000D01*
X124117288Y-51485000D01*
X124117288Y-51993196D01*
G04 #@! TA.AperFunction,Conductor*
D29*
G36*
X124117288Y-51993196D02*
G01*
X123964463Y-51891082D01*
X123666912Y-51767832D01*
X123351033Y-51705000D01*
X123028967Y-51705000D01*
X122713088Y-51767832D01*
X122415537Y-51891082D01*
X122147748Y-52070013D01*
X121920013Y-52297748D01*
X121741082Y-52565537D01*
X121617832Y-52863088D01*
X121555000Y-53178967D01*
X121555000Y-53501033D01*
X121617832Y-53816912D01*
X121741082Y-54114463D01*
X121920013Y-54382252D01*
X122147748Y-54609987D01*
X122304601Y-54714793D01*
X122300719Y-54754213D01*
X122317805Y-54927703D01*
X122368412Y-55094526D01*
X122450590Y-55248272D01*
X122533468Y-55349259D01*
X122533471Y-55349262D01*
X122561184Y-55383030D01*
X122594951Y-55410742D01*
X123398688Y-56214479D01*
X123351033Y-56205000D01*
X123028967Y-56205000D01*
X122713088Y-56267832D01*
X122415537Y-56391082D01*
X122147748Y-56570013D01*
X121920013Y-56797748D01*
X121741082Y-57065537D01*
X121720003Y-57116427D01*
X121541201Y-56937625D01*
X121541201Y-54913670D01*
X121545482Y-54870201D01*
X121541201Y-54826732D01*
X121541201Y-54826724D01*
X121528396Y-54696711D01*
X121493211Y-54580723D01*
X121477790Y-54529887D01*
X121395612Y-54376142D01*
X121312733Y-54275154D01*
X121312731Y-54275152D01*
X121285018Y-54241384D01*
X121251251Y-54213672D01*
X120944272Y-53906693D01*
X120944272Y-52820200D01*
X120932012Y-52695718D01*
X120895702Y-52576020D01*
X120836737Y-52465706D01*
X120757385Y-52369015D01*
X120660694Y-52289663D01*
X120550380Y-52230698D01*
X120430682Y-52194388D01*
X120306200Y-52182128D01*
X118606200Y-52182128D01*
X118481718Y-52194388D01*
X118362020Y-52230698D01*
X118251706Y-52289663D01*
X118155015Y-52369015D01*
X118075663Y-52465706D01*
X118016698Y-52576020D01*
X117980388Y-52695718D01*
X117968128Y-52820200D01*
X117968128Y-54520200D01*
X117980388Y-54644682D01*
X118016698Y-54764380D01*
X118075663Y-54874694D01*
X118155015Y-54971385D01*
X118251706Y-55050737D01*
X118362020Y-55109702D01*
X118442666Y-55134166D01*
X118358612Y-55209931D01*
X118184559Y-55443280D01*
X118059375Y-55706101D01*
X118014724Y-55853310D01*
X118136045Y-56083200D01*
X119329200Y-56083200D01*
X119329200Y-56063200D01*
X119583200Y-56063200D01*
X119583200Y-56083200D01*
X119603200Y-56083200D01*
X119603200Y-56337200D01*
X119583200Y-56337200D01*
X119583200Y-56357200D01*
X119329200Y-56357200D01*
X119329200Y-56337200D01*
X118136045Y-56337200D01*
X118014724Y-56567090D01*
X118059375Y-56714299D01*
X118184559Y-56977120D01*
X118358612Y-57210469D01*
X118574845Y-57405378D01*
X118691734Y-57475005D01*
X118509568Y-57596725D01*
X118302725Y-57803568D01*
X118140210Y-58046789D01*
X118028268Y-58317042D01*
X117971200Y-58603940D01*
X117971200Y-58896460D01*
X118028268Y-59183358D01*
X118140210Y-59453611D01*
X118302725Y-59696832D01*
X118509568Y-59903675D01*
X118683960Y-60020200D01*
X118509568Y-60136725D01*
X118302725Y-60343568D01*
X118211430Y-60480200D01*
X117649586Y-60480200D01*
X117609798Y-60476281D01*
X117570010Y-60480200D01*
X117570007Y-60480200D01*
X117451010Y-60491920D01*
X117298325Y-60538237D01*
X117157609Y-60613451D01*
X117034270Y-60714672D01*
X117008903Y-60745582D01*
X116255000Y-61499486D01*
X116255000Y-51485000D01*
X124117288Y-51485000D01*
X124117288Y-51993196D01*
G37*
G04 #@! TD.AperFunction*
G04 #@! TD*
M02*
