G04 #@! TF.GenerationSoftware,KiCad,Pcbnew,(5.1.9)-1*
G04 #@! TF.CreationDate,2021-03-01T14:16:03+01:00*
G04 #@! TF.ProjectId,button timer v1.2.3_[Coin_Cell&LIPO][TPL5111],62757474-6f6e-4207-9469-6d6572207631,rev?*
G04 #@! TF.SameCoordinates,Original*
G04 #@! TF.FileFunction,Soldermask,Bot*
G04 #@! TF.FilePolarity,Negative*
%FSLAX46Y46*%
G04 Gerber Fmt 4.6, Leading zero omitted, Abs format (unit mm)*
G04 Created by KiCad (PCBNEW (5.1.9)-1) date 2021-03-01 14:16:03*
%MOMM*%
%LPD*%
G01*
G04 APERTURE LIST*
%ADD10O,1.750000X1.200000*%
%ADD11C,2.000000*%
%ADD12O,1.700000X1.700000*%
%ADD13R,1.700000X1.700000*%
%ADD14R,1.500000X1.100000*%
%ADD15R,0.650000X2.000000*%
%ADD16C,0.150000*%
%ADD17R,1.500000X0.650000*%
%ADD18R,1.500000X1.500000*%
%ADD19R,3.510000X2.540000*%
G04 APERTURE END LIST*
D10*
G04 #@! TO.C,BT2*
X134269480Y-57686960D03*
G36*
G01*
X133644479Y-55086960D02*
X134894481Y-55086960D01*
G75*
G02*
X135144480Y-55336959I0J-249999D01*
G01*
X135144480Y-56036961D01*
G75*
G02*
X134894481Y-56286960I-249999J0D01*
G01*
X133644479Y-56286960D01*
G75*
G02*
X133394480Y-56036961I0J249999D01*
G01*
X133394480Y-55336959D01*
G75*
G02*
X133644479Y-55086960I249999J0D01*
G01*
G37*
G04 #@! TD*
G04 #@! TO.C,C4*
G36*
G01*
X121715000Y-55260000D02*
X121405000Y-55260000D01*
G75*
G02*
X121250000Y-55105000I0J155000D01*
G01*
X121250000Y-54680000D01*
G75*
G02*
X121405000Y-54525000I155000J0D01*
G01*
X121715000Y-54525000D01*
G75*
G02*
X121870000Y-54680000I0J-155000D01*
G01*
X121870000Y-55105000D01*
G75*
G02*
X121715000Y-55260000I-155000J0D01*
G01*
G37*
G36*
G01*
X121715000Y-56395000D02*
X121405000Y-56395000D01*
G75*
G02*
X121250000Y-56240000I0J155000D01*
G01*
X121250000Y-55815000D01*
G75*
G02*
X121405000Y-55660000I155000J0D01*
G01*
X121715000Y-55660000D01*
G75*
G02*
X121870000Y-55815000I0J-155000D01*
G01*
X121870000Y-56240000D01*
G75*
G02*
X121715000Y-56395000I-155000J0D01*
G01*
G37*
G04 #@! TD*
D11*
G04 #@! TO.C,SW1*
X129690000Y-53340000D03*
X129690000Y-57840000D03*
X123190000Y-53340000D03*
X123190000Y-57840000D03*
G04 #@! TD*
D12*
G04 #@! TO.C,J1*
X119456200Y-63830200D03*
X119456200Y-61290200D03*
X119456200Y-58750200D03*
X119456200Y-56210200D03*
D13*
X119456200Y-53670200D03*
G04 #@! TD*
D14*
G04 #@! TO.C,C5*
X125542560Y-51733800D03*
X127842560Y-51733800D03*
G04 #@! TD*
D15*
G04 #@! TO.C,U1*
X129484080Y-63770640D03*
X131384080Y-63770640D03*
X131384080Y-60720640D03*
D16*
G36*
X130109080Y-59720640D02*
G01*
X130759080Y-59720640D01*
X130759080Y-61720640D01*
X130109080Y-61720640D01*
X130109080Y-59720640D01*
G37*
D15*
X129484080Y-60720640D03*
G04 #@! TD*
D14*
G04 #@! TO.C,C1*
X132750000Y-59250000D03*
X135050000Y-59250000D03*
G04 #@! TD*
D17*
G04 #@! TO.C,U3*
X125100000Y-55360000D03*
X125100000Y-54410000D03*
X125100000Y-56310000D03*
X127700000Y-56310000D03*
X127700000Y-55360000D03*
X127700000Y-54410000D03*
G04 #@! TD*
D15*
G04 #@! TO.C,U2*
X132933400Y-64517400D03*
X134833400Y-64517400D03*
X134833400Y-61467400D03*
D16*
G36*
X133558400Y-60467400D02*
G01*
X134208400Y-60467400D01*
X134208400Y-62467400D01*
X133558400Y-62467400D01*
X133558400Y-60467400D01*
G37*
D15*
X132933400Y-61467400D03*
G04 #@! TD*
D18*
G04 #@! TO.C,R8*
X125180000Y-58440000D03*
X127580000Y-58440000D03*
G04 #@! TD*
G04 #@! TO.C,R7*
X125225000Y-60400000D03*
X127625000Y-60400000D03*
G04 #@! TD*
D14*
G04 #@! TO.C,C3*
X135058800Y-66878200D03*
X132758800Y-66878200D03*
G04 #@! TD*
G04 #@! TO.C,C2*
X133534800Y-93599000D03*
X131234800Y-93599000D03*
G04 #@! TD*
D19*
G04 #@! TO.C,BT1*
X125780800Y-93444200D03*
X125780800Y-64084200D03*
G04 #@! TD*
M02*
