G04 #@! TF.GenerationSoftware,KiCad,Pcbnew,(5.1.9)-1*
G04 #@! TF.CreationDate,2021-03-01T14:16:03+01:00*
G04 #@! TF.ProjectId,button timer v1.2.3_[Coin_Cell&LIPO][TPL5111],62757474-6f6e-4207-9469-6d6572207631,rev?*
G04 #@! TF.SameCoordinates,Original*
G04 #@! TF.FileFunction,Copper,L2,Bot*
G04 #@! TF.FilePolarity,Positive*
%FSLAX46Y46*%
G04 Gerber Fmt 4.6, Leading zero omitted, Abs format (unit mm)*
G04 Created by KiCad (PCBNEW (5.1.9)-1) date 2021-03-01 14:16:03*
%MOMM*%
%LPD*%
G01*
G04 APERTURE LIST*
G04 #@! TA.AperFunction,ComponentPad*
%ADD10O,1.750000X1.200000*%
G04 #@! TD*
G04 #@! TA.AperFunction,ComponentPad*
%ADD11C,2.000000*%
G04 #@! TD*
G04 #@! TA.AperFunction,ComponentPad*
%ADD12O,1.700000X1.700000*%
G04 #@! TD*
G04 #@! TA.AperFunction,ComponentPad*
%ADD13R,1.700000X1.700000*%
G04 #@! TD*
G04 #@! TA.AperFunction,SMDPad,CuDef*
%ADD14R,1.500000X1.100000*%
G04 #@! TD*
G04 #@! TA.AperFunction,SMDPad,CuDef*
%ADD15R,0.650000X2.000000*%
G04 #@! TD*
G04 #@! TA.AperFunction,SMDPad,CuDef*
%ADD16C,0.150000*%
G04 #@! TD*
G04 #@! TA.AperFunction,SMDPad,CuDef*
%ADD17R,1.500000X0.650000*%
G04 #@! TD*
G04 #@! TA.AperFunction,SMDPad,CuDef*
%ADD18R,1.500000X1.500000*%
G04 #@! TD*
G04 #@! TA.AperFunction,SMDPad,CuDef*
%ADD19R,3.510000X2.540000*%
G04 #@! TD*
G04 #@! TA.AperFunction,ViaPad*
%ADD20C,0.500000*%
G04 #@! TD*
G04 #@! TA.AperFunction,ViaPad*
%ADD21C,0.800000*%
G04 #@! TD*
G04 #@! TA.AperFunction,Conductor*
%ADD22C,0.500000*%
G04 #@! TD*
G04 #@! TA.AperFunction,Conductor*
%ADD23C,0.350000*%
G04 #@! TD*
G04 #@! TA.AperFunction,Conductor*
%ADD24C,0.250000*%
G04 #@! TD*
G04 #@! TA.AperFunction,Conductor*
%ADD25C,0.254000*%
G04 #@! TD*
G04 #@! TA.AperFunction,Conductor*
%ADD26C,0.150000*%
G04 #@! TD*
G04 APERTURE END LIST*
D10*
G04 #@! TO.P,BT2,2*
G04 #@! TO.N,/GND*
X134269480Y-57686960D03*
G04 #@! TO.P,BT2,1*
G04 #@! TO.N,Net-(BT1-Pad1)*
G04 #@! TA.AperFunction,ComponentPad*
G36*
G01*
X133644479Y-55086960D02*
X134894481Y-55086960D01*
G75*
G02*
X135144480Y-55336959I0J-249999D01*
G01*
X135144480Y-56036961D01*
G75*
G02*
X134894481Y-56286960I-249999J0D01*
G01*
X133644479Y-56286960D01*
G75*
G02*
X133394480Y-56036961I0J249999D01*
G01*
X133394480Y-55336959D01*
G75*
G02*
X133644479Y-55086960I249999J0D01*
G01*
G37*
G04 #@! TD.AperFunction*
G04 #@! TD*
G04 #@! TO.P,C4,2*
G04 #@! TO.N,/GND*
G04 #@! TA.AperFunction,SMDPad,CuDef*
G36*
G01*
X121715000Y-55260000D02*
X121405000Y-55260000D01*
G75*
G02*
X121250000Y-55105000I0J155000D01*
G01*
X121250000Y-54680000D01*
G75*
G02*
X121405000Y-54525000I155000J0D01*
G01*
X121715000Y-54525000D01*
G75*
G02*
X121870000Y-54680000I0J-155000D01*
G01*
X121870000Y-55105000D01*
G75*
G02*
X121715000Y-55260000I-155000J0D01*
G01*
G37*
G04 #@! TD.AperFunction*
G04 #@! TO.P,C4,1*
G04 #@! TO.N,/GPIO4*
G04 #@! TA.AperFunction,SMDPad,CuDef*
G36*
G01*
X121715000Y-56395000D02*
X121405000Y-56395000D01*
G75*
G02*
X121250000Y-56240000I0J155000D01*
G01*
X121250000Y-55815000D01*
G75*
G02*
X121405000Y-55660000I155000J0D01*
G01*
X121715000Y-55660000D01*
G75*
G02*
X121870000Y-55815000I0J-155000D01*
G01*
X121870000Y-56240000D01*
G75*
G02*
X121715000Y-56395000I-155000J0D01*
G01*
G37*
G04 #@! TD.AperFunction*
G04 #@! TD*
D11*
G04 #@! TO.P,SW1,1*
G04 #@! TO.N,Net-(BT1-Pad1)*
X129690000Y-53340000D03*
G04 #@! TO.P,SW1,2*
G04 #@! TO.N,Net-(R6-Pad2)*
X129690000Y-57840000D03*
G04 #@! TO.P,SW1,1*
G04 #@! TO.N,Net-(BT1-Pad1)*
X123190000Y-53340000D03*
G04 #@! TO.P,SW1,2*
G04 #@! TO.N,Net-(R6-Pad2)*
X123190000Y-57840000D03*
G04 #@! TD*
D12*
G04 #@! TO.P,J1,5*
G04 #@! TO.N,/RST*
X119456200Y-63830200D03*
G04 #@! TO.P,J1,4*
G04 #@! TO.N,/TX*
X119456200Y-61290200D03*
G04 #@! TO.P,J1,3*
G04 #@! TO.N,/RX*
X119456200Y-58750200D03*
G04 #@! TO.P,J1,2*
G04 #@! TO.N,/GND*
X119456200Y-56210200D03*
D13*
G04 #@! TO.P,J1,1*
G04 #@! TO.N,/VCC*
X119456200Y-53670200D03*
G04 #@! TD*
D14*
G04 #@! TO.P,C5,2*
G04 #@! TO.N,/GND*
X125542560Y-51733800D03*
G04 #@! TO.P,C5,1*
G04 #@! TO.N,Net-(BT1-Pad1)*
X127842560Y-51733800D03*
G04 #@! TD*
D15*
G04 #@! TO.P,U1,5*
G04 #@! TO.N,Net-(L1-Pad2)*
X129484080Y-63770640D03*
G04 #@! TO.P,U1,4*
G04 #@! TO.N,/VCC*
X131384080Y-63770640D03*
G04 #@! TO.P,U1,3*
G04 #@! TO.N,Net-(Q1-Pad1)*
X131384080Y-60720640D03*
G04 #@! TA.AperFunction,SMDPad,CuDef*
D16*
G04 #@! TO.P,U1,2*
G04 #@! TO.N,/GND*
G36*
X130109080Y-59720640D02*
G01*
X130759080Y-59720640D01*
X130759080Y-61720640D01*
X130109080Y-61720640D01*
X130109080Y-59720640D01*
G37*
G04 #@! TD.AperFunction*
D15*
G04 #@! TO.P,U1,1*
G04 #@! TO.N,Net-(BT1-Pad1)*
X129484080Y-60720640D03*
G04 #@! TD*
D14*
G04 #@! TO.P,C1,2*
G04 #@! TO.N,Net-(BT1-Pad1)*
X132750000Y-59250000D03*
G04 #@! TO.P,C1,1*
G04 #@! TO.N,/GND*
X135050000Y-59250000D03*
G04 #@! TD*
D17*
G04 #@! TO.P,U3,5*
G04 #@! TO.N,Net-(R7-Pad2)*
X125100000Y-55360000D03*
G04 #@! TO.P,U3,6*
G04 #@! TO.N,/GND*
X125100000Y-54410000D03*
G04 #@! TO.P,U3,4*
G04 #@! TO.N,/GPIO4*
X125100000Y-56310000D03*
G04 #@! TO.P,U3,3*
G04 #@! TO.N,Net-(R6-Pad2)*
X127700000Y-56310000D03*
G04 #@! TO.P,U3,2*
G04 #@! TO.N,/GND*
X127700000Y-55360000D03*
G04 #@! TO.P,U3,1*
G04 #@! TO.N,Net-(BT1-Pad1)*
X127700000Y-54410000D03*
G04 #@! TD*
D15*
G04 #@! TO.P,U2,5*
G04 #@! TO.N,/VCC*
X132933400Y-64517400D03*
G04 #@! TO.P,U2,4*
G04 #@! TO.N,N/C*
X134833400Y-64517400D03*
G04 #@! TO.P,U2,3*
G04 #@! TO.N,Net-(Q1-Pad1)*
X134833400Y-61467400D03*
G04 #@! TA.AperFunction,SMDPad,CuDef*
D16*
G04 #@! TO.P,U2,2*
G04 #@! TO.N,/GND*
G36*
X133558400Y-60467400D02*
G01*
X134208400Y-60467400D01*
X134208400Y-62467400D01*
X133558400Y-62467400D01*
X133558400Y-60467400D01*
G37*
G04 #@! TD.AperFunction*
D15*
G04 #@! TO.P,U2,1*
G04 #@! TO.N,Net-(BT1-Pad1)*
X132933400Y-61467400D03*
G04 #@! TD*
D18*
G04 #@! TO.P,R8,2*
G04 #@! TO.N,/GND*
X125180000Y-58440000D03*
G04 #@! TO.P,R8,1*
G04 #@! TO.N,Net-(R6-Pad2)*
X127580000Y-58440000D03*
G04 #@! TD*
G04 #@! TO.P,R7,2*
G04 #@! TO.N,Net-(R7-Pad2)*
X125225000Y-60400000D03*
G04 #@! TO.P,R7,1*
G04 #@! TO.N,Net-(Q1-Pad1)*
X127625000Y-60400000D03*
G04 #@! TD*
D14*
G04 #@! TO.P,C3,2*
G04 #@! TO.N,/GND*
X135058800Y-66878200D03*
G04 #@! TO.P,C3,1*
G04 #@! TO.N,/VCC*
X132758800Y-66878200D03*
G04 #@! TD*
G04 #@! TO.P,C2,2*
G04 #@! TO.N,/RST*
X133534800Y-93599000D03*
G04 #@! TO.P,C2,1*
G04 #@! TO.N,/GND*
X131234800Y-93599000D03*
G04 #@! TD*
D19*
G04 #@! TO.P,BT1,2*
G04 #@! TO.N,/GND*
X125780800Y-93444200D03*
G04 #@! TO.P,BT1,1*
G04 #@! TO.N,Net-(BT1-Pad1)*
X125780800Y-64084200D03*
G04 #@! TD*
D20*
G04 #@! TO.N,/VCC*
X131454360Y-63770640D03*
D21*
X134726680Y-76106280D03*
G04 #@! TO.N,/GND*
X120225000Y-68050000D03*
D20*
X123225000Y-72875000D03*
X118425000Y-75275000D03*
X135075000Y-69000000D03*
X135050000Y-72950000D03*
X134200000Y-72975000D03*
X135900000Y-78450000D03*
X130500000Y-60500000D03*
X135150000Y-66925000D03*
X133900000Y-61450000D03*
X135500000Y-51925000D03*
X125075000Y-54400000D03*
X127700000Y-55400000D03*
D21*
X125200000Y-58400000D03*
D20*
X135125000Y-59225000D03*
D21*
X125780800Y-93419200D03*
D20*
X126759720Y-94456000D03*
X125759720Y-94456000D03*
X124759720Y-94456000D03*
X126759720Y-93456000D03*
X124759720Y-93456000D03*
X126759720Y-92456000D03*
X125759720Y-92456000D03*
X124759720Y-92456000D03*
X130950000Y-56075000D03*
D21*
X124075000Y-51800000D03*
G04 #@! TO.N,/RST*
X133330000Y-93670000D03*
X132200400Y-75425400D03*
G04 #@! TO.N,/RX*
X117875000Y-91550000D03*
D20*
G04 #@! TO.N,/GPIO0*
X120275000Y-71725000D03*
X127850000Y-75325000D03*
D21*
G04 #@! TO.N,Net-(BT1-Pad1)*
X123450000Y-61350000D03*
X121800000Y-61350000D03*
D20*
X125749720Y-65046000D03*
X126749720Y-65046000D03*
X126830000Y-63100000D03*
X125749720Y-63046000D03*
X126749720Y-64046000D03*
D21*
X132650000Y-59350000D03*
X125899729Y-64009200D03*
G04 #@! TO.N,Net-(L1-Pad2)*
X123225000Y-65050000D03*
X121950000Y-65000000D03*
X129484080Y-63770640D03*
G04 #@! TO.N,/GPIO4*
X118150000Y-87550000D03*
D20*
G04 #@! TO.N,Net-(R6-Pad2)*
X127650000Y-56300000D03*
G04 #@! TO.N,/GND_ESP*
X117375000Y-79575000D03*
X118750000Y-79625000D03*
X118100000Y-79600000D03*
G04 #@! TO.N,Net-(Q1-Pad1)*
X128250000Y-62800000D03*
X127375000Y-60500000D03*
X134833400Y-61467400D03*
G04 #@! TD*
D22*
G04 #@! TO.N,/VCC*
X132186640Y-63770640D02*
X132933400Y-64517400D01*
X131384080Y-63770640D02*
X131454360Y-63770640D01*
X132933400Y-66703600D02*
X132758800Y-66878200D01*
X132933400Y-64517400D02*
X132933400Y-66703600D01*
X131454360Y-63770640D02*
X132186640Y-63770640D01*
X132758800Y-72421802D02*
X134700000Y-74363002D01*
X132758800Y-66878200D02*
X132758800Y-72421802D01*
X134700000Y-74363002D02*
X134700000Y-75950000D01*
G04 #@! TO.N,/GND*
X125542560Y-53967440D02*
X125100000Y-54410000D01*
X125542560Y-51733800D02*
X125542560Y-53967440D01*
D23*
X130235000Y-55360000D02*
X127700000Y-55360000D01*
X130950000Y-56075000D02*
X130235000Y-55360000D01*
X122361001Y-59115001D02*
X119456200Y-56210200D01*
X124484999Y-59115001D02*
X122361001Y-59115001D01*
X125200000Y-58400000D02*
X124484999Y-59115001D01*
X119456200Y-56210200D02*
X120625000Y-55041400D01*
X121411100Y-55041400D02*
X121560000Y-54892500D01*
X120625000Y-55041400D02*
X121411100Y-55041400D01*
D22*
X125855002Y-54410000D02*
X125100000Y-54410000D01*
X126845002Y-55400000D02*
X125855002Y-54410000D01*
X127700000Y-55400000D02*
X126845002Y-55400000D01*
G04 #@! TO.N,/RST*
X131051400Y-75425400D02*
X119456200Y-63830200D01*
X132200400Y-75425400D02*
X131051400Y-75425400D01*
G04 #@! TO.N,/RX*
X117875000Y-91550000D02*
X117875000Y-91550000D01*
X116605010Y-61601390D02*
X119456200Y-58750200D01*
X116605010Y-90280010D02*
X116605010Y-61601390D01*
X117875000Y-91550000D02*
X116605010Y-90280010D01*
G04 #@! TO.N,/GPIO0*
X120275000Y-71725000D02*
X124175000Y-71725000D01*
X124175000Y-71725000D02*
X127825000Y-75375000D01*
G04 #@! TO.N,Net-(BT1-Pad1)*
X129484080Y-59850648D02*
X129484080Y-60720640D01*
X129984728Y-59350000D02*
X129484080Y-59850648D01*
X132650000Y-59350000D02*
X129984728Y-59350000D01*
X132650000Y-61184000D02*
X132933400Y-61467400D01*
X132650000Y-59350000D02*
X132650000Y-61184000D01*
X127842560Y-54267440D02*
X127700000Y-54410000D01*
X127842560Y-51733800D02*
X127842560Y-54267440D01*
X129448760Y-53340000D02*
X127842560Y-51733800D01*
X129690000Y-53340000D02*
X129448760Y-53340000D01*
X123849999Y-61749999D02*
X123450000Y-61350000D01*
X128454721Y-61749999D02*
X123849999Y-61749999D01*
X129484080Y-60720640D02*
X128454721Y-61749999D01*
X132650000Y-56300000D02*
X129690000Y-53340000D01*
X132650000Y-59350000D02*
X132650000Y-56300000D01*
G04 #@! TO.N,Net-(L1-Pad2)*
X123879201Y-65704201D02*
X129020799Y-65704201D01*
X123225000Y-65050000D02*
X123879201Y-65704201D01*
X129484080Y-65240920D02*
X129484080Y-63770640D01*
X129020799Y-65704201D02*
X129484080Y-65240920D01*
X129484080Y-63770640D02*
X129484080Y-63770640D01*
G04 #@! TO.N,Net-(R7-Pad2)*
X126280001Y-59344999D02*
X125225000Y-60400000D01*
X126280001Y-55784999D02*
X126280001Y-59344999D01*
X125855002Y-55360000D02*
X126280001Y-55784999D01*
X125100000Y-55360000D02*
X125855002Y-55360000D01*
G04 #@! TO.N,/GPIO4*
X121842500Y-56310000D02*
X125100000Y-56310000D01*
X121560000Y-56027500D02*
X121842500Y-56310000D01*
D24*
X118150000Y-87550000D02*
X129125000Y-76575000D01*
X129125000Y-76575000D02*
X129125000Y-75675000D01*
X129125000Y-75675000D02*
X117625000Y-64175000D01*
X117625000Y-64175000D02*
X117625000Y-63050000D01*
X117625000Y-63050000D02*
X118100000Y-62575000D01*
X119582203Y-60215199D02*
X120600000Y-59197402D01*
X118940199Y-60215199D02*
X119582203Y-60215199D01*
X118100000Y-61055398D02*
X118940199Y-60215199D01*
X118100000Y-62575000D02*
X118100000Y-61055398D01*
X120600000Y-59197402D02*
X120600000Y-58050000D01*
X120600000Y-58050000D02*
X119875000Y-57325000D01*
X118979998Y-57325000D02*
X118075000Y-56420002D01*
X119875000Y-57325000D02*
X118979998Y-57325000D01*
X118075000Y-56420002D02*
X118075000Y-52575000D01*
X118075000Y-52575000D02*
X118650000Y-52000000D01*
X118650000Y-52000000D02*
X119950000Y-52000000D01*
X119950000Y-52000000D02*
X122250000Y-54300000D01*
X122250000Y-55337500D02*
X121560000Y-56027500D01*
X122250000Y-54300000D02*
X122250000Y-55337500D01*
D22*
G04 #@! TO.N,Net-(R6-Pad2)*
X127700000Y-58320000D02*
X127580000Y-58440000D01*
X127700000Y-56310000D02*
X127700000Y-58320000D01*
X129090000Y-58440000D02*
X129690000Y-57840000D01*
X127580000Y-58440000D02*
X129090000Y-58440000D01*
D24*
G04 #@! TO.N,Net-(Q1-Pad1)*
X132105841Y-62692401D02*
X131384080Y-61970640D01*
X131384080Y-61970640D02*
X131384080Y-60720640D01*
X134833400Y-62160614D02*
X134301613Y-62692401D01*
X134301613Y-62692401D02*
X132105841Y-62692401D01*
X134833400Y-61467400D02*
X134833400Y-61467400D01*
X131384080Y-61970640D02*
X131054720Y-62300000D01*
X131054720Y-62300000D02*
X128750000Y-62300000D01*
X128750000Y-62300000D02*
X128250000Y-62800000D01*
X128250000Y-62800000D02*
X128250000Y-62800000D01*
X134833400Y-61467400D02*
X134833400Y-62160614D01*
G04 #@! TD*
D25*
G04 #@! TO.N,/GND*
X130469578Y-65014820D02*
X130528543Y-65125134D01*
X130607895Y-65221825D01*
X130704586Y-65301177D01*
X130814900Y-65360142D01*
X130934598Y-65396452D01*
X131059080Y-65408712D01*
X131709080Y-65408712D01*
X131833562Y-65396452D01*
X131953260Y-65360142D01*
X131970328Y-65351019D01*
X131970328Y-65517400D01*
X131982588Y-65641882D01*
X131997559Y-65691235D01*
X131884318Y-65702388D01*
X131764620Y-65738698D01*
X131654306Y-65797663D01*
X131557615Y-65877015D01*
X131478263Y-65973706D01*
X131419298Y-66084020D01*
X131382988Y-66203718D01*
X131370728Y-66328200D01*
X131370728Y-67428200D01*
X131382988Y-67552682D01*
X131419298Y-67672380D01*
X131478263Y-67782694D01*
X131557615Y-67879385D01*
X131654306Y-67958737D01*
X131764620Y-68017702D01*
X131873800Y-68050821D01*
X131873801Y-72378323D01*
X131869519Y-72421802D01*
X131886605Y-72595292D01*
X131937212Y-72762115D01*
X132019390Y-72915861D01*
X132102268Y-73016848D01*
X132102271Y-73016851D01*
X132129984Y-73050619D01*
X132163751Y-73078331D01*
X133815000Y-74729581D01*
X133815001Y-75607754D01*
X133809475Y-75616024D01*
X133731454Y-75804382D01*
X133691680Y-76004341D01*
X133691680Y-76208219D01*
X133731454Y-76408178D01*
X133809475Y-76596536D01*
X133922743Y-76766054D01*
X134066906Y-76910217D01*
X134236424Y-77023485D01*
X134424782Y-77101506D01*
X134624741Y-77141280D01*
X134828619Y-77141280D01*
X135028578Y-77101506D01*
X135216936Y-77023485D01*
X135386454Y-76910217D01*
X135530617Y-76766054D01*
X135643885Y-76596536D01*
X135721906Y-76408178D01*
X135761680Y-76208219D01*
X135761680Y-76004341D01*
X135721906Y-75804382D01*
X135643885Y-75616024D01*
X135585000Y-75527896D01*
X135585000Y-74406467D01*
X135589281Y-74363001D01*
X135585000Y-74319535D01*
X135585000Y-74319525D01*
X135572195Y-74189512D01*
X135521589Y-74022689D01*
X135439411Y-73868943D01*
X135328817Y-73734185D01*
X135295050Y-73706473D01*
X133643800Y-72055224D01*
X133643800Y-68050821D01*
X133752980Y-68017702D01*
X133863294Y-67958737D01*
X133908800Y-67921391D01*
X133954306Y-67958737D01*
X134064620Y-68017702D01*
X134184318Y-68054012D01*
X134308800Y-68066272D01*
X134773050Y-68063200D01*
X134931800Y-67904450D01*
X134931800Y-67005200D01*
X134911800Y-67005200D01*
X134911800Y-66751200D01*
X134931800Y-66751200D01*
X134931800Y-66731200D01*
X135185800Y-66731200D01*
X135185800Y-66751200D01*
X135205800Y-66751200D01*
X135205800Y-67005200D01*
X135185800Y-67005200D01*
X135185800Y-67904450D01*
X135344550Y-68063200D01*
X135808800Y-68066272D01*
X135840001Y-68063199D01*
X135840001Y-78071344D01*
X135840000Y-78071354D01*
X135840001Y-80611344D01*
X135840000Y-80611354D01*
X135840001Y-84917666D01*
X135200464Y-85831291D01*
X135149289Y-85873290D01*
X135063688Y-85977594D01*
X135000081Y-86096595D01*
X134960912Y-86225718D01*
X134951000Y-86326354D01*
X134951001Y-94621544D01*
X134710288Y-94621274D01*
X134735985Y-94600185D01*
X134815337Y-94503494D01*
X134874302Y-94393180D01*
X134910612Y-94273482D01*
X134922872Y-94149000D01*
X134922872Y-93049000D01*
X134910612Y-92924518D01*
X134874302Y-92804820D01*
X134815337Y-92694506D01*
X134735985Y-92597815D01*
X134639294Y-92518463D01*
X134528980Y-92459498D01*
X134409282Y-92423188D01*
X134284800Y-92410928D01*
X132784800Y-92410928D01*
X132660318Y-92423188D01*
X132540620Y-92459498D01*
X132430306Y-92518463D01*
X132384800Y-92555809D01*
X132339294Y-92518463D01*
X132228980Y-92459498D01*
X132109282Y-92423188D01*
X131984800Y-92410928D01*
X131520550Y-92414000D01*
X131361800Y-92572750D01*
X131361800Y-93472000D01*
X131381800Y-93472000D01*
X131381800Y-93726000D01*
X131361800Y-93726000D01*
X131361800Y-93746000D01*
X131107800Y-93746000D01*
X131107800Y-93726000D01*
X130008550Y-93726000D01*
X129849800Y-93884750D01*
X129846728Y-94149000D01*
X129858988Y-94273482D01*
X129895298Y-94393180D01*
X129954263Y-94503494D01*
X130033615Y-94600185D01*
X130052950Y-94616053D01*
X128173559Y-94613946D01*
X128170800Y-93729950D01*
X128012050Y-93571200D01*
X125907800Y-93571200D01*
X125907800Y-93591200D01*
X125653800Y-93591200D01*
X125653800Y-93571200D01*
X123549550Y-93571200D01*
X123390800Y-93729950D01*
X123388058Y-94608581D01*
X116890000Y-94601296D01*
X116890000Y-91876586D01*
X116957795Y-92040256D01*
X117071063Y-92209774D01*
X117215226Y-92353937D01*
X117384744Y-92467205D01*
X117573102Y-92545226D01*
X117773061Y-92585000D01*
X117976939Y-92585000D01*
X118176898Y-92545226D01*
X118365256Y-92467205D01*
X118534774Y-92353937D01*
X118678937Y-92209774D01*
X118702706Y-92174200D01*
X123387728Y-92174200D01*
X123390800Y-93158450D01*
X123549550Y-93317200D01*
X125653800Y-93317200D01*
X125653800Y-91697950D01*
X125907800Y-91697950D01*
X125907800Y-93317200D01*
X128012050Y-93317200D01*
X128170800Y-93158450D01*
X128171141Y-93049000D01*
X129846728Y-93049000D01*
X129849800Y-93313250D01*
X130008550Y-93472000D01*
X131107800Y-93472000D01*
X131107800Y-92572750D01*
X130949050Y-92414000D01*
X130484800Y-92410928D01*
X130360318Y-92423188D01*
X130240620Y-92459498D01*
X130130306Y-92518463D01*
X130033615Y-92597815D01*
X129954263Y-92694506D01*
X129895298Y-92804820D01*
X129858988Y-92924518D01*
X129846728Y-93049000D01*
X128171141Y-93049000D01*
X128173872Y-92174200D01*
X128161612Y-92049718D01*
X128125302Y-91930020D01*
X128066337Y-91819706D01*
X127986985Y-91723015D01*
X127890294Y-91643663D01*
X127779980Y-91584698D01*
X127660282Y-91548388D01*
X127535800Y-91536128D01*
X126066550Y-91539200D01*
X125907800Y-91697950D01*
X125653800Y-91697950D01*
X125495050Y-91539200D01*
X124025800Y-91536128D01*
X123901318Y-91548388D01*
X123781620Y-91584698D01*
X123671306Y-91643663D01*
X123574615Y-91723015D01*
X123495263Y-91819706D01*
X123436298Y-91930020D01*
X123399988Y-92049718D01*
X123387728Y-92174200D01*
X118702706Y-92174200D01*
X118792205Y-92040256D01*
X118870226Y-91851898D01*
X118910000Y-91651939D01*
X118910000Y-91448061D01*
X118870226Y-91248102D01*
X118792205Y-91059744D01*
X118678937Y-90890226D01*
X118534774Y-90746063D01*
X118365256Y-90632795D01*
X118176898Y-90554774D01*
X118120044Y-90543465D01*
X117490010Y-89913432D01*
X117490010Y-88353721D01*
X117490226Y-88353937D01*
X117659744Y-88467205D01*
X117848102Y-88545226D01*
X118048061Y-88585000D01*
X118251939Y-88585000D01*
X118451898Y-88545226D01*
X118640256Y-88467205D01*
X118809774Y-88353937D01*
X118953937Y-88209774D01*
X119067205Y-88040256D01*
X119145226Y-87851898D01*
X119185000Y-87651939D01*
X119185000Y-87589801D01*
X129636004Y-77138798D01*
X129665001Y-77115001D01*
X129759974Y-76999276D01*
X129830546Y-76867247D01*
X129874003Y-76723986D01*
X129885000Y-76612333D01*
X129885000Y-76612323D01*
X129888676Y-76575000D01*
X129885000Y-76537677D01*
X129885000Y-75712323D01*
X129888676Y-75675000D01*
X129885000Y-75637677D01*
X129885000Y-75637667D01*
X129874003Y-75526014D01*
X129862494Y-75488073D01*
X130394870Y-76020449D01*
X130422583Y-76054217D01*
X130456351Y-76081930D01*
X130456353Y-76081932D01*
X130477487Y-76099276D01*
X130557341Y-76164811D01*
X130711087Y-76246989D01*
X130877910Y-76297595D01*
X131007923Y-76310400D01*
X131007933Y-76310400D01*
X131051399Y-76314681D01*
X131094865Y-76310400D01*
X131661946Y-76310400D01*
X131710144Y-76342605D01*
X131898502Y-76420626D01*
X132098461Y-76460400D01*
X132302339Y-76460400D01*
X132502298Y-76420626D01*
X132690656Y-76342605D01*
X132860174Y-76229337D01*
X133004337Y-76085174D01*
X133117605Y-75915656D01*
X133195626Y-75727298D01*
X133235400Y-75527339D01*
X133235400Y-75323461D01*
X133195626Y-75123502D01*
X133117605Y-74935144D01*
X133004337Y-74765626D01*
X132860174Y-74621463D01*
X132690656Y-74508195D01*
X132502298Y-74430174D01*
X132302339Y-74390400D01*
X132098461Y-74390400D01*
X131898502Y-74430174D01*
X131710144Y-74508195D01*
X131661946Y-74540400D01*
X131417979Y-74540400D01*
X122922594Y-66045015D01*
X122923102Y-66045226D01*
X122979956Y-66056535D01*
X123222671Y-66299250D01*
X123250384Y-66333018D01*
X123284152Y-66360731D01*
X123284154Y-66360733D01*
X123312677Y-66384141D01*
X123385142Y-66443612D01*
X123538888Y-66525790D01*
X123655104Y-66561044D01*
X123705710Y-66576396D01*
X123720507Y-66577853D01*
X123835724Y-66589201D01*
X123835732Y-66589201D01*
X123879201Y-66593482D01*
X123922670Y-66589201D01*
X128977330Y-66589201D01*
X129020799Y-66593482D01*
X129064268Y-66589201D01*
X129064276Y-66589201D01*
X129194289Y-66576396D01*
X129361112Y-66525790D01*
X129514858Y-66443612D01*
X129649616Y-66333018D01*
X129677333Y-66299245D01*
X130079125Y-65897453D01*
X130112897Y-65869737D01*
X130223491Y-65734979D01*
X130305669Y-65581233D01*
X130356275Y-65414410D01*
X130369080Y-65284397D01*
X130369080Y-65284387D01*
X130373361Y-65240921D01*
X130369080Y-65197455D01*
X130369080Y-65070013D01*
X130398582Y-65014820D01*
X130434080Y-64897799D01*
X130469578Y-65014820D01*
G04 #@! TA.AperFunction,Conductor*
D26*
G36*
X130469578Y-65014820D02*
G01*
X130528543Y-65125134D01*
X130607895Y-65221825D01*
X130704586Y-65301177D01*
X130814900Y-65360142D01*
X130934598Y-65396452D01*
X131059080Y-65408712D01*
X131709080Y-65408712D01*
X131833562Y-65396452D01*
X131953260Y-65360142D01*
X131970328Y-65351019D01*
X131970328Y-65517400D01*
X131982588Y-65641882D01*
X131997559Y-65691235D01*
X131884318Y-65702388D01*
X131764620Y-65738698D01*
X131654306Y-65797663D01*
X131557615Y-65877015D01*
X131478263Y-65973706D01*
X131419298Y-66084020D01*
X131382988Y-66203718D01*
X131370728Y-66328200D01*
X131370728Y-67428200D01*
X131382988Y-67552682D01*
X131419298Y-67672380D01*
X131478263Y-67782694D01*
X131557615Y-67879385D01*
X131654306Y-67958737D01*
X131764620Y-68017702D01*
X131873800Y-68050821D01*
X131873801Y-72378323D01*
X131869519Y-72421802D01*
X131886605Y-72595292D01*
X131937212Y-72762115D01*
X132019390Y-72915861D01*
X132102268Y-73016848D01*
X132102271Y-73016851D01*
X132129984Y-73050619D01*
X132163751Y-73078331D01*
X133815000Y-74729581D01*
X133815001Y-75607754D01*
X133809475Y-75616024D01*
X133731454Y-75804382D01*
X133691680Y-76004341D01*
X133691680Y-76208219D01*
X133731454Y-76408178D01*
X133809475Y-76596536D01*
X133922743Y-76766054D01*
X134066906Y-76910217D01*
X134236424Y-77023485D01*
X134424782Y-77101506D01*
X134624741Y-77141280D01*
X134828619Y-77141280D01*
X135028578Y-77101506D01*
X135216936Y-77023485D01*
X135386454Y-76910217D01*
X135530617Y-76766054D01*
X135643885Y-76596536D01*
X135721906Y-76408178D01*
X135761680Y-76208219D01*
X135761680Y-76004341D01*
X135721906Y-75804382D01*
X135643885Y-75616024D01*
X135585000Y-75527896D01*
X135585000Y-74406467D01*
X135589281Y-74363001D01*
X135585000Y-74319535D01*
X135585000Y-74319525D01*
X135572195Y-74189512D01*
X135521589Y-74022689D01*
X135439411Y-73868943D01*
X135328817Y-73734185D01*
X135295050Y-73706473D01*
X133643800Y-72055224D01*
X133643800Y-68050821D01*
X133752980Y-68017702D01*
X133863294Y-67958737D01*
X133908800Y-67921391D01*
X133954306Y-67958737D01*
X134064620Y-68017702D01*
X134184318Y-68054012D01*
X134308800Y-68066272D01*
X134773050Y-68063200D01*
X134931800Y-67904450D01*
X134931800Y-67005200D01*
X134911800Y-67005200D01*
X134911800Y-66751200D01*
X134931800Y-66751200D01*
X134931800Y-66731200D01*
X135185800Y-66731200D01*
X135185800Y-66751200D01*
X135205800Y-66751200D01*
X135205800Y-67005200D01*
X135185800Y-67005200D01*
X135185800Y-67904450D01*
X135344550Y-68063200D01*
X135808800Y-68066272D01*
X135840001Y-68063199D01*
X135840001Y-78071344D01*
X135840000Y-78071354D01*
X135840001Y-80611344D01*
X135840000Y-80611354D01*
X135840001Y-84917666D01*
X135200464Y-85831291D01*
X135149289Y-85873290D01*
X135063688Y-85977594D01*
X135000081Y-86096595D01*
X134960912Y-86225718D01*
X134951000Y-86326354D01*
X134951001Y-94621544D01*
X134710288Y-94621274D01*
X134735985Y-94600185D01*
X134815337Y-94503494D01*
X134874302Y-94393180D01*
X134910612Y-94273482D01*
X134922872Y-94149000D01*
X134922872Y-93049000D01*
X134910612Y-92924518D01*
X134874302Y-92804820D01*
X134815337Y-92694506D01*
X134735985Y-92597815D01*
X134639294Y-92518463D01*
X134528980Y-92459498D01*
X134409282Y-92423188D01*
X134284800Y-92410928D01*
X132784800Y-92410928D01*
X132660318Y-92423188D01*
X132540620Y-92459498D01*
X132430306Y-92518463D01*
X132384800Y-92555809D01*
X132339294Y-92518463D01*
X132228980Y-92459498D01*
X132109282Y-92423188D01*
X131984800Y-92410928D01*
X131520550Y-92414000D01*
X131361800Y-92572750D01*
X131361800Y-93472000D01*
X131381800Y-93472000D01*
X131381800Y-93726000D01*
X131361800Y-93726000D01*
X131361800Y-93746000D01*
X131107800Y-93746000D01*
X131107800Y-93726000D01*
X130008550Y-93726000D01*
X129849800Y-93884750D01*
X129846728Y-94149000D01*
X129858988Y-94273482D01*
X129895298Y-94393180D01*
X129954263Y-94503494D01*
X130033615Y-94600185D01*
X130052950Y-94616053D01*
X128173559Y-94613946D01*
X128170800Y-93729950D01*
X128012050Y-93571200D01*
X125907800Y-93571200D01*
X125907800Y-93591200D01*
X125653800Y-93591200D01*
X125653800Y-93571200D01*
X123549550Y-93571200D01*
X123390800Y-93729950D01*
X123388058Y-94608581D01*
X116890000Y-94601296D01*
X116890000Y-91876586D01*
X116957795Y-92040256D01*
X117071063Y-92209774D01*
X117215226Y-92353937D01*
X117384744Y-92467205D01*
X117573102Y-92545226D01*
X117773061Y-92585000D01*
X117976939Y-92585000D01*
X118176898Y-92545226D01*
X118365256Y-92467205D01*
X118534774Y-92353937D01*
X118678937Y-92209774D01*
X118702706Y-92174200D01*
X123387728Y-92174200D01*
X123390800Y-93158450D01*
X123549550Y-93317200D01*
X125653800Y-93317200D01*
X125653800Y-91697950D01*
X125907800Y-91697950D01*
X125907800Y-93317200D01*
X128012050Y-93317200D01*
X128170800Y-93158450D01*
X128171141Y-93049000D01*
X129846728Y-93049000D01*
X129849800Y-93313250D01*
X130008550Y-93472000D01*
X131107800Y-93472000D01*
X131107800Y-92572750D01*
X130949050Y-92414000D01*
X130484800Y-92410928D01*
X130360318Y-92423188D01*
X130240620Y-92459498D01*
X130130306Y-92518463D01*
X130033615Y-92597815D01*
X129954263Y-92694506D01*
X129895298Y-92804820D01*
X129858988Y-92924518D01*
X129846728Y-93049000D01*
X128171141Y-93049000D01*
X128173872Y-92174200D01*
X128161612Y-92049718D01*
X128125302Y-91930020D01*
X128066337Y-91819706D01*
X127986985Y-91723015D01*
X127890294Y-91643663D01*
X127779980Y-91584698D01*
X127660282Y-91548388D01*
X127535800Y-91536128D01*
X126066550Y-91539200D01*
X125907800Y-91697950D01*
X125653800Y-91697950D01*
X125495050Y-91539200D01*
X124025800Y-91536128D01*
X123901318Y-91548388D01*
X123781620Y-91584698D01*
X123671306Y-91643663D01*
X123574615Y-91723015D01*
X123495263Y-91819706D01*
X123436298Y-91930020D01*
X123399988Y-92049718D01*
X123387728Y-92174200D01*
X118702706Y-92174200D01*
X118792205Y-92040256D01*
X118870226Y-91851898D01*
X118910000Y-91651939D01*
X118910000Y-91448061D01*
X118870226Y-91248102D01*
X118792205Y-91059744D01*
X118678937Y-90890226D01*
X118534774Y-90746063D01*
X118365256Y-90632795D01*
X118176898Y-90554774D01*
X118120044Y-90543465D01*
X117490010Y-89913432D01*
X117490010Y-88353721D01*
X117490226Y-88353937D01*
X117659744Y-88467205D01*
X117848102Y-88545226D01*
X118048061Y-88585000D01*
X118251939Y-88585000D01*
X118451898Y-88545226D01*
X118640256Y-88467205D01*
X118809774Y-88353937D01*
X118953937Y-88209774D01*
X119067205Y-88040256D01*
X119145226Y-87851898D01*
X119185000Y-87651939D01*
X119185000Y-87589801D01*
X129636004Y-77138798D01*
X129665001Y-77115001D01*
X129759974Y-76999276D01*
X129830546Y-76867247D01*
X129874003Y-76723986D01*
X129885000Y-76612333D01*
X129885000Y-76612323D01*
X129888676Y-76575000D01*
X129885000Y-76537677D01*
X129885000Y-75712323D01*
X129888676Y-75675000D01*
X129885000Y-75637677D01*
X129885000Y-75637667D01*
X129874003Y-75526014D01*
X129862494Y-75488073D01*
X130394870Y-76020449D01*
X130422583Y-76054217D01*
X130456351Y-76081930D01*
X130456353Y-76081932D01*
X130477487Y-76099276D01*
X130557341Y-76164811D01*
X130711087Y-76246989D01*
X130877910Y-76297595D01*
X131007923Y-76310400D01*
X131007933Y-76310400D01*
X131051399Y-76314681D01*
X131094865Y-76310400D01*
X131661946Y-76310400D01*
X131710144Y-76342605D01*
X131898502Y-76420626D01*
X132098461Y-76460400D01*
X132302339Y-76460400D01*
X132502298Y-76420626D01*
X132690656Y-76342605D01*
X132860174Y-76229337D01*
X133004337Y-76085174D01*
X133117605Y-75915656D01*
X133195626Y-75727298D01*
X133235400Y-75527339D01*
X133235400Y-75323461D01*
X133195626Y-75123502D01*
X133117605Y-74935144D01*
X133004337Y-74765626D01*
X132860174Y-74621463D01*
X132690656Y-74508195D01*
X132502298Y-74430174D01*
X132302339Y-74390400D01*
X132098461Y-74390400D01*
X131898502Y-74430174D01*
X131710144Y-74508195D01*
X131661946Y-74540400D01*
X131417979Y-74540400D01*
X122922594Y-66045015D01*
X122923102Y-66045226D01*
X122979956Y-66056535D01*
X123222671Y-66299250D01*
X123250384Y-66333018D01*
X123284152Y-66360731D01*
X123284154Y-66360733D01*
X123312677Y-66384141D01*
X123385142Y-66443612D01*
X123538888Y-66525790D01*
X123655104Y-66561044D01*
X123705710Y-66576396D01*
X123720507Y-66577853D01*
X123835724Y-66589201D01*
X123835732Y-66589201D01*
X123879201Y-66593482D01*
X123922670Y-66589201D01*
X128977330Y-66589201D01*
X129020799Y-66593482D01*
X129064268Y-66589201D01*
X129064276Y-66589201D01*
X129194289Y-66576396D01*
X129361112Y-66525790D01*
X129514858Y-66443612D01*
X129649616Y-66333018D01*
X129677333Y-66299245D01*
X130079125Y-65897453D01*
X130112897Y-65869737D01*
X130223491Y-65734979D01*
X130305669Y-65581233D01*
X130356275Y-65414410D01*
X130369080Y-65284397D01*
X130369080Y-65284387D01*
X130373361Y-65240921D01*
X130369080Y-65197455D01*
X130369080Y-65070013D01*
X130398582Y-65014820D01*
X130434080Y-64897799D01*
X130469578Y-65014820D01*
G37*
G04 #@! TD.AperFunction*
D25*
X123215198Y-70840000D02*
X120187835Y-70840000D01*
X120144987Y-70848523D01*
X120101510Y-70852805D01*
X120059705Y-70865487D01*
X120016855Y-70874010D01*
X119976487Y-70890731D01*
X119934687Y-70903411D01*
X119896165Y-70924001D01*
X119855795Y-70940723D01*
X119819467Y-70964996D01*
X119780941Y-70985589D01*
X119747171Y-71013304D01*
X119710845Y-71037576D01*
X119679951Y-71068470D01*
X119646183Y-71096183D01*
X119618470Y-71129951D01*
X119587576Y-71160845D01*
X119563304Y-71197171D01*
X119535589Y-71230941D01*
X119514996Y-71269467D01*
X119490723Y-71305795D01*
X119474001Y-71346165D01*
X119453411Y-71384687D01*
X119440731Y-71426487D01*
X119424010Y-71466855D01*
X119415487Y-71509705D01*
X119402805Y-71551510D01*
X119398523Y-71594987D01*
X119390000Y-71637835D01*
X119390000Y-71681523D01*
X119385718Y-71725000D01*
X119390000Y-71768477D01*
X119390000Y-71812165D01*
X119398523Y-71855013D01*
X119402805Y-71898490D01*
X119415487Y-71940295D01*
X119424010Y-71983145D01*
X119440731Y-72023513D01*
X119453411Y-72065313D01*
X119474001Y-72103835D01*
X119490723Y-72144205D01*
X119514996Y-72180533D01*
X119535589Y-72219059D01*
X119563304Y-72252829D01*
X119587576Y-72289155D01*
X119618470Y-72320049D01*
X119646183Y-72353817D01*
X119679951Y-72381530D01*
X119710845Y-72412424D01*
X119747171Y-72436696D01*
X119780941Y-72464411D01*
X119819467Y-72485004D01*
X119855795Y-72509277D01*
X119896165Y-72525999D01*
X119934687Y-72546589D01*
X119976487Y-72559269D01*
X120016855Y-72575990D01*
X120059705Y-72584513D01*
X120101510Y-72597195D01*
X120144987Y-72601477D01*
X120187835Y-72610000D01*
X123808422Y-72610000D01*
X127229953Y-76031532D01*
X127330941Y-76114411D01*
X127484686Y-76196589D01*
X127651510Y-76247195D01*
X127825000Y-76264281D01*
X127998490Y-76247195D01*
X128165313Y-76196589D01*
X128319059Y-76114411D01*
X128365000Y-76076708D01*
X128365000Y-76260198D01*
X118110199Y-86515000D01*
X118048061Y-86515000D01*
X117848102Y-86554774D01*
X117659744Y-86632795D01*
X117490226Y-86746063D01*
X117490010Y-86746279D01*
X117490010Y-80454461D01*
X117633145Y-80425990D01*
X117707322Y-80395265D01*
X117841855Y-80450990D01*
X118012835Y-80485000D01*
X118187165Y-80485000D01*
X118358145Y-80450990D01*
X118394822Y-80435798D01*
X118491855Y-80475990D01*
X118662835Y-80510000D01*
X118837165Y-80510000D01*
X119008145Y-80475990D01*
X119169205Y-80409277D01*
X119314155Y-80312424D01*
X119437424Y-80189155D01*
X119534277Y-80044205D01*
X119600990Y-79883145D01*
X119635000Y-79712165D01*
X119635000Y-79537835D01*
X119600990Y-79366855D01*
X119534277Y-79205795D01*
X119437424Y-79060845D01*
X119314155Y-78937576D01*
X119169205Y-78840723D01*
X119008145Y-78774010D01*
X118837165Y-78740000D01*
X118662835Y-78740000D01*
X118491855Y-78774010D01*
X118455178Y-78789202D01*
X118358145Y-78749010D01*
X118187165Y-78715000D01*
X118012835Y-78715000D01*
X117841855Y-78749010D01*
X117767678Y-78779735D01*
X117633145Y-78724010D01*
X117490010Y-78695539D01*
X117490010Y-65114811D01*
X123215198Y-70840000D01*
G04 #@! TA.AperFunction,Conductor*
D26*
G36*
X123215198Y-70840000D02*
G01*
X120187835Y-70840000D01*
X120144987Y-70848523D01*
X120101510Y-70852805D01*
X120059705Y-70865487D01*
X120016855Y-70874010D01*
X119976487Y-70890731D01*
X119934687Y-70903411D01*
X119896165Y-70924001D01*
X119855795Y-70940723D01*
X119819467Y-70964996D01*
X119780941Y-70985589D01*
X119747171Y-71013304D01*
X119710845Y-71037576D01*
X119679951Y-71068470D01*
X119646183Y-71096183D01*
X119618470Y-71129951D01*
X119587576Y-71160845D01*
X119563304Y-71197171D01*
X119535589Y-71230941D01*
X119514996Y-71269467D01*
X119490723Y-71305795D01*
X119474001Y-71346165D01*
X119453411Y-71384687D01*
X119440731Y-71426487D01*
X119424010Y-71466855D01*
X119415487Y-71509705D01*
X119402805Y-71551510D01*
X119398523Y-71594987D01*
X119390000Y-71637835D01*
X119390000Y-71681523D01*
X119385718Y-71725000D01*
X119390000Y-71768477D01*
X119390000Y-71812165D01*
X119398523Y-71855013D01*
X119402805Y-71898490D01*
X119415487Y-71940295D01*
X119424010Y-71983145D01*
X119440731Y-72023513D01*
X119453411Y-72065313D01*
X119474001Y-72103835D01*
X119490723Y-72144205D01*
X119514996Y-72180533D01*
X119535589Y-72219059D01*
X119563304Y-72252829D01*
X119587576Y-72289155D01*
X119618470Y-72320049D01*
X119646183Y-72353817D01*
X119679951Y-72381530D01*
X119710845Y-72412424D01*
X119747171Y-72436696D01*
X119780941Y-72464411D01*
X119819467Y-72485004D01*
X119855795Y-72509277D01*
X119896165Y-72525999D01*
X119934687Y-72546589D01*
X119976487Y-72559269D01*
X120016855Y-72575990D01*
X120059705Y-72584513D01*
X120101510Y-72597195D01*
X120144987Y-72601477D01*
X120187835Y-72610000D01*
X123808422Y-72610000D01*
X127229953Y-76031532D01*
X127330941Y-76114411D01*
X127484686Y-76196589D01*
X127651510Y-76247195D01*
X127825000Y-76264281D01*
X127998490Y-76247195D01*
X128165313Y-76196589D01*
X128319059Y-76114411D01*
X128365000Y-76076708D01*
X128365000Y-76260198D01*
X118110199Y-86515000D01*
X118048061Y-86515000D01*
X117848102Y-86554774D01*
X117659744Y-86632795D01*
X117490226Y-86746063D01*
X117490010Y-86746279D01*
X117490010Y-80454461D01*
X117633145Y-80425990D01*
X117707322Y-80395265D01*
X117841855Y-80450990D01*
X118012835Y-80485000D01*
X118187165Y-80485000D01*
X118358145Y-80450990D01*
X118394822Y-80435798D01*
X118491855Y-80475990D01*
X118662835Y-80510000D01*
X118837165Y-80510000D01*
X119008145Y-80475990D01*
X119169205Y-80409277D01*
X119314155Y-80312424D01*
X119437424Y-80189155D01*
X119534277Y-80044205D01*
X119600990Y-79883145D01*
X119635000Y-79712165D01*
X119635000Y-79537835D01*
X119600990Y-79366855D01*
X119534277Y-79205795D01*
X119437424Y-79060845D01*
X119314155Y-78937576D01*
X119169205Y-78840723D01*
X119008145Y-78774010D01*
X118837165Y-78740000D01*
X118662835Y-78740000D01*
X118491855Y-78774010D01*
X118455178Y-78789202D01*
X118358145Y-78749010D01*
X118187165Y-78715000D01*
X118012835Y-78715000D01*
X117841855Y-78749010D01*
X117767678Y-78779735D01*
X117633145Y-78724010D01*
X117490010Y-78695539D01*
X117490010Y-65114811D01*
X123215198Y-70840000D01*
G37*
G04 #@! TD.AperFunction*
D25*
X120844213Y-56800787D02*
X120964393Y-56899415D01*
X121101504Y-56972703D01*
X121250279Y-57017833D01*
X121318103Y-57024513D01*
X121348441Y-57049411D01*
X121502187Y-57131589D01*
X121669010Y-57182195D01*
X121691830Y-57184443D01*
X121617832Y-57363088D01*
X121555000Y-57678967D01*
X121555000Y-58001033D01*
X121617832Y-58316912D01*
X121741082Y-58614463D01*
X121920013Y-58882252D01*
X122147748Y-59109987D01*
X122415537Y-59288918D01*
X122713088Y-59412168D01*
X123028967Y-59475000D01*
X123351033Y-59475000D01*
X123666912Y-59412168D01*
X123815190Y-59350749D01*
X123840498Y-59434180D01*
X123863718Y-59477620D01*
X123849188Y-59525518D01*
X123836928Y-59650000D01*
X123836928Y-60389995D01*
X123751898Y-60354774D01*
X123551939Y-60315000D01*
X123348061Y-60315000D01*
X123148102Y-60354774D01*
X122959744Y-60432795D01*
X122790226Y-60546063D01*
X122646063Y-60690226D01*
X122625000Y-60721749D01*
X122603937Y-60690226D01*
X122459774Y-60546063D01*
X122290256Y-60432795D01*
X122101898Y-60354774D01*
X121901939Y-60315000D01*
X121698061Y-60315000D01*
X121498102Y-60354774D01*
X121309744Y-60432795D01*
X121140226Y-60546063D01*
X120996063Y-60690226D01*
X120884239Y-60857582D01*
X120884132Y-60857042D01*
X120772190Y-60586789D01*
X120609675Y-60343568D01*
X120569155Y-60303048D01*
X121111004Y-59761200D01*
X121140001Y-59737403D01*
X121234974Y-59621678D01*
X121305546Y-59489649D01*
X121349003Y-59346388D01*
X121360000Y-59234735D01*
X121360000Y-59234726D01*
X121363676Y-59197403D01*
X121360000Y-59160080D01*
X121360000Y-58087323D01*
X121363676Y-58050000D01*
X121360000Y-58012677D01*
X121360000Y-58012667D01*
X121349003Y-57901014D01*
X121305546Y-57757753D01*
X121234974Y-57625724D01*
X121140001Y-57509999D01*
X121111002Y-57486201D01*
X120674045Y-57049243D01*
X120727841Y-56977120D01*
X120823722Y-56775819D01*
X120844213Y-56800787D01*
G04 #@! TA.AperFunction,Conductor*
D26*
G36*
X120844213Y-56800787D02*
G01*
X120964393Y-56899415D01*
X121101504Y-56972703D01*
X121250279Y-57017833D01*
X121318103Y-57024513D01*
X121348441Y-57049411D01*
X121502187Y-57131589D01*
X121669010Y-57182195D01*
X121691830Y-57184443D01*
X121617832Y-57363088D01*
X121555000Y-57678967D01*
X121555000Y-58001033D01*
X121617832Y-58316912D01*
X121741082Y-58614463D01*
X121920013Y-58882252D01*
X122147748Y-59109987D01*
X122415537Y-59288918D01*
X122713088Y-59412168D01*
X123028967Y-59475000D01*
X123351033Y-59475000D01*
X123666912Y-59412168D01*
X123815190Y-59350749D01*
X123840498Y-59434180D01*
X123863718Y-59477620D01*
X123849188Y-59525518D01*
X123836928Y-59650000D01*
X123836928Y-60389995D01*
X123751898Y-60354774D01*
X123551939Y-60315000D01*
X123348061Y-60315000D01*
X123148102Y-60354774D01*
X122959744Y-60432795D01*
X122790226Y-60546063D01*
X122646063Y-60690226D01*
X122625000Y-60721749D01*
X122603937Y-60690226D01*
X122459774Y-60546063D01*
X122290256Y-60432795D01*
X122101898Y-60354774D01*
X121901939Y-60315000D01*
X121698061Y-60315000D01*
X121498102Y-60354774D01*
X121309744Y-60432795D01*
X121140226Y-60546063D01*
X120996063Y-60690226D01*
X120884239Y-60857582D01*
X120884132Y-60857042D01*
X120772190Y-60586789D01*
X120609675Y-60343568D01*
X120569155Y-60303048D01*
X121111004Y-59761200D01*
X121140001Y-59737403D01*
X121234974Y-59621678D01*
X121305546Y-59489649D01*
X121349003Y-59346388D01*
X121360000Y-59234735D01*
X121360000Y-59234726D01*
X121363676Y-59197403D01*
X121360000Y-59160080D01*
X121360000Y-58087323D01*
X121363676Y-58050000D01*
X121360000Y-58012677D01*
X121360000Y-58012667D01*
X121349003Y-57901014D01*
X121305546Y-57757753D01*
X121234974Y-57625724D01*
X121140001Y-57509999D01*
X121111002Y-57486201D01*
X120674045Y-57049243D01*
X120727841Y-56977120D01*
X120823722Y-56775819D01*
X120844213Y-56800787D01*
G37*
G04 #@! TD.AperFunction*
D25*
X135177000Y-59123000D02*
X135197000Y-59123000D01*
X135197000Y-59377000D01*
X135177000Y-59377000D01*
X135177000Y-59397000D01*
X134923000Y-59397000D01*
X134923000Y-59377000D01*
X134903000Y-59377000D01*
X134903000Y-59123000D01*
X134923000Y-59123000D01*
X134923000Y-59103000D01*
X135177000Y-59103000D01*
X135177000Y-59123000D01*
G04 #@! TA.AperFunction,Conductor*
D26*
G36*
X135177000Y-59123000D02*
G01*
X135197000Y-59123000D01*
X135197000Y-59377000D01*
X135177000Y-59377000D01*
X135177000Y-59397000D01*
X134923000Y-59397000D01*
X134923000Y-59377000D01*
X134903000Y-59377000D01*
X134903000Y-59123000D01*
X134923000Y-59123000D01*
X134923000Y-59103000D01*
X135177000Y-59103000D01*
X135177000Y-59123000D01*
G37*
G04 #@! TD.AperFunction*
D25*
X125307000Y-58313000D02*
X125327000Y-58313000D01*
X125327000Y-58567000D01*
X125307000Y-58567000D01*
X125307000Y-58587000D01*
X125053000Y-58587000D01*
X125053000Y-58567000D01*
X125033000Y-58567000D01*
X125033000Y-58313000D01*
X125053000Y-58313000D01*
X125053000Y-58293000D01*
X125307000Y-58293000D01*
X125307000Y-58313000D01*
G04 #@! TA.AperFunction,Conductor*
D26*
G36*
X125307000Y-58313000D02*
G01*
X125327000Y-58313000D01*
X125327000Y-58567000D01*
X125307000Y-58567000D01*
X125307000Y-58587000D01*
X125053000Y-58587000D01*
X125053000Y-58567000D01*
X125033000Y-58567000D01*
X125033000Y-58313000D01*
X125053000Y-58313000D01*
X125053000Y-58293000D01*
X125307000Y-58293000D01*
X125307000Y-58313000D01*
G37*
G04 #@! TD.AperFunction*
D25*
X129213088Y-54912168D02*
X129528967Y-54975000D01*
X129851033Y-54975000D01*
X130036525Y-54938103D01*
X131765001Y-56666580D01*
X131765000Y-58107713D01*
X131755820Y-58110498D01*
X131645506Y-58169463D01*
X131548815Y-58248815D01*
X131469463Y-58345506D01*
X131410498Y-58455820D01*
X131407713Y-58465000D01*
X131200828Y-58465000D01*
X131262168Y-58316912D01*
X131325000Y-58001033D01*
X131325000Y-57678967D01*
X131262168Y-57363088D01*
X131138918Y-57065537D01*
X130959987Y-56797748D01*
X130732252Y-56570013D01*
X130464463Y-56391082D01*
X130166912Y-56267832D01*
X129851033Y-56205000D01*
X129528967Y-56205000D01*
X129213088Y-56267832D01*
X129088072Y-56319615D01*
X129088072Y-55985000D01*
X129075812Y-55860518D01*
X129068071Y-55835000D01*
X129075812Y-55809482D01*
X129088072Y-55685000D01*
X129085000Y-55645750D01*
X128926250Y-55487000D01*
X128844141Y-55487000D01*
X128804494Y-55454463D01*
X128694180Y-55395498D01*
X128577159Y-55360000D01*
X128694180Y-55324502D01*
X128804494Y-55265537D01*
X128844141Y-55233000D01*
X128926250Y-55233000D01*
X129085000Y-55074250D01*
X129088072Y-55035000D01*
X129075812Y-54910518D01*
X129068071Y-54885000D01*
X129075812Y-54859482D01*
X129076207Y-54855470D01*
X129213088Y-54912168D01*
G04 #@! TA.AperFunction,Conductor*
D26*
G36*
X129213088Y-54912168D02*
G01*
X129528967Y-54975000D01*
X129851033Y-54975000D01*
X130036525Y-54938103D01*
X131765001Y-56666580D01*
X131765000Y-58107713D01*
X131755820Y-58110498D01*
X131645506Y-58169463D01*
X131548815Y-58248815D01*
X131469463Y-58345506D01*
X131410498Y-58455820D01*
X131407713Y-58465000D01*
X131200828Y-58465000D01*
X131262168Y-58316912D01*
X131325000Y-58001033D01*
X131325000Y-57678967D01*
X131262168Y-57363088D01*
X131138918Y-57065537D01*
X130959987Y-56797748D01*
X130732252Y-56570013D01*
X130464463Y-56391082D01*
X130166912Y-56267832D01*
X129851033Y-56205000D01*
X129528967Y-56205000D01*
X129213088Y-56267832D01*
X129088072Y-56319615D01*
X129088072Y-55985000D01*
X129075812Y-55860518D01*
X129068071Y-55835000D01*
X129075812Y-55809482D01*
X129088072Y-55685000D01*
X129085000Y-55645750D01*
X128926250Y-55487000D01*
X128844141Y-55487000D01*
X128804494Y-55454463D01*
X128694180Y-55395498D01*
X128577159Y-55360000D01*
X128694180Y-55324502D01*
X128804494Y-55265537D01*
X128844141Y-55233000D01*
X128926250Y-55233000D01*
X129085000Y-55074250D01*
X129088072Y-55035000D01*
X129075812Y-54910518D01*
X129068071Y-54885000D01*
X129075812Y-54859482D01*
X129076207Y-54855470D01*
X129213088Y-54912168D01*
G37*
G04 #@! TD.AperFunction*
D25*
X135840000Y-58065868D02*
X135800000Y-58061928D01*
X135725815Y-58062419D01*
X135734071Y-58042242D01*
X135737942Y-58004569D01*
X135613211Y-57813960D01*
X134396480Y-57813960D01*
X134396480Y-57833960D01*
X134142480Y-57833960D01*
X134142480Y-57813960D01*
X134122480Y-57813960D01*
X134122480Y-57559960D01*
X134142480Y-57559960D01*
X134142480Y-57539960D01*
X134396480Y-57539960D01*
X134396480Y-57559960D01*
X135613211Y-57559960D01*
X135737942Y-57369351D01*
X135734071Y-57331678D01*
X135641901Y-57106427D01*
X135507558Y-56903486D01*
X135383074Y-56777927D01*
X135387867Y-56775365D01*
X135522442Y-56664922D01*
X135632885Y-56530347D01*
X135714952Y-56376811D01*
X135765488Y-56210215D01*
X135782552Y-56036961D01*
X135782552Y-55336959D01*
X135765488Y-55163705D01*
X135714952Y-54997109D01*
X135632885Y-54843573D01*
X135522442Y-54708998D01*
X135387867Y-54598555D01*
X135234331Y-54516488D01*
X135067735Y-54465952D01*
X134894481Y-54448888D01*
X133644479Y-54448888D01*
X133471225Y-54465952D01*
X133304629Y-54516488D01*
X133151093Y-54598555D01*
X133016518Y-54708998D01*
X132906075Y-54843573D01*
X132824008Y-54997109D01*
X132773472Y-55163705D01*
X132772738Y-55171159D01*
X131288103Y-53686525D01*
X131325000Y-53501033D01*
X131325000Y-53178967D01*
X131262168Y-52863088D01*
X131138918Y-52565537D01*
X130959987Y-52297748D01*
X130732252Y-52070013D01*
X130464463Y-51891082D01*
X130166912Y-51767832D01*
X129851033Y-51705000D01*
X129528967Y-51705000D01*
X129230632Y-51764342D01*
X129230632Y-51485000D01*
X135840000Y-51485000D01*
X135840000Y-58065868D01*
G04 #@! TA.AperFunction,Conductor*
D26*
G36*
X135840000Y-58065868D02*
G01*
X135800000Y-58061928D01*
X135725815Y-58062419D01*
X135734071Y-58042242D01*
X135737942Y-58004569D01*
X135613211Y-57813960D01*
X134396480Y-57813960D01*
X134396480Y-57833960D01*
X134142480Y-57833960D01*
X134142480Y-57813960D01*
X134122480Y-57813960D01*
X134122480Y-57559960D01*
X134142480Y-57559960D01*
X134142480Y-57539960D01*
X134396480Y-57539960D01*
X134396480Y-57559960D01*
X135613211Y-57559960D01*
X135737942Y-57369351D01*
X135734071Y-57331678D01*
X135641901Y-57106427D01*
X135507558Y-56903486D01*
X135383074Y-56777927D01*
X135387867Y-56775365D01*
X135522442Y-56664922D01*
X135632885Y-56530347D01*
X135714952Y-56376811D01*
X135765488Y-56210215D01*
X135782552Y-56036961D01*
X135782552Y-55336959D01*
X135765488Y-55163705D01*
X135714952Y-54997109D01*
X135632885Y-54843573D01*
X135522442Y-54708998D01*
X135387867Y-54598555D01*
X135234331Y-54516488D01*
X135067735Y-54465952D01*
X134894481Y-54448888D01*
X133644479Y-54448888D01*
X133471225Y-54465952D01*
X133304629Y-54516488D01*
X133151093Y-54598555D01*
X133016518Y-54708998D01*
X132906075Y-54843573D01*
X132824008Y-54997109D01*
X132773472Y-55163705D01*
X132772738Y-55171159D01*
X131288103Y-53686525D01*
X131325000Y-53501033D01*
X131325000Y-53178967D01*
X131262168Y-52863088D01*
X131138918Y-52565537D01*
X130959987Y-52297748D01*
X130732252Y-52070013D01*
X130464463Y-51891082D01*
X130166912Y-51767832D01*
X129851033Y-51705000D01*
X129528967Y-51705000D01*
X129230632Y-51764342D01*
X129230632Y-51485000D01*
X135840000Y-51485000D01*
X135840000Y-58065868D01*
G37*
G04 #@! TD.AperFunction*
D25*
X119583200Y-56083200D02*
X119603200Y-56083200D01*
X119603200Y-56337200D01*
X119583200Y-56337200D01*
X119583200Y-56357200D01*
X119329200Y-56357200D01*
X119329200Y-56337200D01*
X119309200Y-56337200D01*
X119309200Y-56083200D01*
X119329200Y-56083200D01*
X119329200Y-56063200D01*
X119583200Y-56063200D01*
X119583200Y-56083200D01*
G04 #@! TA.AperFunction,Conductor*
D26*
G36*
X119583200Y-56083200D02*
G01*
X119603200Y-56083200D01*
X119603200Y-56337200D01*
X119583200Y-56337200D01*
X119583200Y-56357200D01*
X119329200Y-56357200D01*
X119329200Y-56337200D01*
X119309200Y-56337200D01*
X119309200Y-56083200D01*
X119329200Y-56083200D01*
X119329200Y-56063200D01*
X119583200Y-56063200D01*
X119583200Y-56083200D01*
G37*
G04 #@! TD.AperFunction*
D25*
X120615000Y-55178250D02*
X120611928Y-55260000D01*
X120615091Y-55292119D01*
X120553788Y-55209931D01*
X120469734Y-55134166D01*
X120550380Y-55109702D01*
X120660694Y-55050737D01*
X120698754Y-55019502D01*
X120773748Y-55019502D01*
X120615000Y-55178250D01*
G04 #@! TA.AperFunction,Conductor*
D26*
G36*
X120615000Y-55178250D02*
G01*
X120611928Y-55260000D01*
X120615091Y-55292119D01*
X120553788Y-55209931D01*
X120469734Y-55134166D01*
X120550380Y-55109702D01*
X120660694Y-55050737D01*
X120698754Y-55019502D01*
X120773748Y-55019502D01*
X120615000Y-55178250D01*
G37*
G04 #@! TD.AperFunction*
D25*
X121490001Y-55021928D02*
X121433000Y-55021928D01*
X121433000Y-55019500D01*
X121413000Y-55019500D01*
X121413000Y-54765500D01*
X121433000Y-54765500D01*
X121433000Y-54745500D01*
X121490000Y-54745500D01*
X121490001Y-55021928D01*
G04 #@! TA.AperFunction,Conductor*
D26*
G36*
X121490001Y-55021928D02*
G01*
X121433000Y-55021928D01*
X121433000Y-55019500D01*
X121413000Y-55019500D01*
X121413000Y-54765500D01*
X121433000Y-54765500D01*
X121433000Y-54745500D01*
X121490000Y-54745500D01*
X121490001Y-55021928D01*
G37*
G04 #@! TD.AperFunction*
D25*
X124316310Y-51606800D02*
X125415560Y-51606800D01*
X125415560Y-51586800D01*
X125669560Y-51586800D01*
X125669560Y-51606800D01*
X125689560Y-51606800D01*
X125689560Y-51860800D01*
X125669560Y-51860800D01*
X125669560Y-52760050D01*
X125828310Y-52918800D01*
X126292560Y-52921872D01*
X126417042Y-52909612D01*
X126536740Y-52873302D01*
X126647054Y-52814337D01*
X126692560Y-52776991D01*
X126738066Y-52814337D01*
X126848380Y-52873302D01*
X126957560Y-52906422D01*
X126957561Y-53446928D01*
X126950000Y-53446928D01*
X126825518Y-53459188D01*
X126705820Y-53495498D01*
X126595506Y-53554463D01*
X126498815Y-53633815D01*
X126419463Y-53730506D01*
X126400000Y-53766918D01*
X126380537Y-53730506D01*
X126301185Y-53633815D01*
X126204494Y-53554463D01*
X126094180Y-53495498D01*
X125974482Y-53459188D01*
X125850000Y-53446928D01*
X125385750Y-53450000D01*
X125227000Y-53608750D01*
X125227000Y-54283000D01*
X125247000Y-54283000D01*
X125247000Y-54396928D01*
X124953000Y-54396928D01*
X124953000Y-54283000D01*
X124973000Y-54283000D01*
X124973000Y-53608750D01*
X124825000Y-53460750D01*
X124825000Y-53178967D01*
X124773487Y-52919994D01*
X124792560Y-52921872D01*
X125256810Y-52918800D01*
X125415560Y-52760050D01*
X125415560Y-51860800D01*
X124316310Y-51860800D01*
X124157560Y-52019550D01*
X124157554Y-52020101D01*
X123964463Y-51891082D01*
X123666912Y-51767832D01*
X123351033Y-51705000D01*
X123028967Y-51705000D01*
X122713088Y-51767832D01*
X122415537Y-51891082D01*
X122147748Y-52070013D01*
X121920013Y-52297748D01*
X121741082Y-52565537D01*
X121696930Y-52672129D01*
X120513804Y-51489003D01*
X120510519Y-51485000D01*
X124194510Y-51485000D01*
X124316310Y-51606800D01*
G04 #@! TA.AperFunction,Conductor*
D26*
G36*
X124316310Y-51606800D02*
G01*
X125415560Y-51606800D01*
X125415560Y-51586800D01*
X125669560Y-51586800D01*
X125669560Y-51606800D01*
X125689560Y-51606800D01*
X125689560Y-51860800D01*
X125669560Y-51860800D01*
X125669560Y-52760050D01*
X125828310Y-52918800D01*
X126292560Y-52921872D01*
X126417042Y-52909612D01*
X126536740Y-52873302D01*
X126647054Y-52814337D01*
X126692560Y-52776991D01*
X126738066Y-52814337D01*
X126848380Y-52873302D01*
X126957560Y-52906422D01*
X126957561Y-53446928D01*
X126950000Y-53446928D01*
X126825518Y-53459188D01*
X126705820Y-53495498D01*
X126595506Y-53554463D01*
X126498815Y-53633815D01*
X126419463Y-53730506D01*
X126400000Y-53766918D01*
X126380537Y-53730506D01*
X126301185Y-53633815D01*
X126204494Y-53554463D01*
X126094180Y-53495498D01*
X125974482Y-53459188D01*
X125850000Y-53446928D01*
X125385750Y-53450000D01*
X125227000Y-53608750D01*
X125227000Y-54283000D01*
X125247000Y-54283000D01*
X125247000Y-54396928D01*
X124953000Y-54396928D01*
X124953000Y-54283000D01*
X124973000Y-54283000D01*
X124973000Y-53608750D01*
X124825000Y-53460750D01*
X124825000Y-53178967D01*
X124773487Y-52919994D01*
X124792560Y-52921872D01*
X125256810Y-52918800D01*
X125415560Y-52760050D01*
X125415560Y-51860800D01*
X124316310Y-51860800D01*
X124157560Y-52019550D01*
X124157554Y-52020101D01*
X123964463Y-51891082D01*
X123666912Y-51767832D01*
X123351033Y-51705000D01*
X123028967Y-51705000D01*
X122713088Y-51767832D01*
X122415537Y-51891082D01*
X122147748Y-52070013D01*
X121920013Y-52297748D01*
X121741082Y-52565537D01*
X121696930Y-52672129D01*
X120513804Y-51489003D01*
X120510519Y-51485000D01*
X124194510Y-51485000D01*
X124316310Y-51606800D01*
G37*
G04 #@! TD.AperFunction*
G04 #@! TD*
M02*
