M48
; DRILL file {KiCad (5.1.9)-1} date 03/01/21 14:16:05
; FORMAT={-:-/ absolute / inch / decimal}
; #@! TF.CreationDate,2021-03-01T14:16:05+01:00
; #@! TF.GenerationSoftware,Kicad,Pcbnew,(5.1.9)-1
FMAT,2
INCH
T1C0.0118
T2C0.0157
T3C0.0295
T4C0.0394
T5C0.0433
%
G90
G05
T1
X4.6211Y-3.1329
X4.6496Y-3.1339
X4.6624Y-2.9636
X4.6752Y-3.1348
X4.7352Y-2.8238
X4.8514Y-2.8691
X4.9118Y-3.64
X4.9118Y-3.6794
X4.9118Y-3.7187
X4.9242Y-2.1417
X4.9508Y-2.4821
X4.9508Y-2.5609
X4.9512Y-3.64
X4.9512Y-3.7187
X4.9901Y-2.5215
X4.9901Y-2.5609
X4.9905Y-3.64
X4.9905Y-3.6794
X4.9905Y-3.7187
X4.9933Y-2.4843
X5.0148Y-2.3819
X5.0256Y-2.2165
X5.0276Y-2.1811
X5.0335Y-2.9656
X5.0492Y-2.4724
X5.1378Y-2.3819
X5.1555Y-2.2077
X5.1754Y-2.5107
X5.2717Y-2.4193
X5.2835Y-2.873
X5.3084Y-2.42
X5.3169Y-2.872
X5.3179Y-2.7165
X5.3199Y-2.3317
X5.3209Y-2.6348
X5.3346Y-2.0443
X5.3504Y-3.0886
T2
X4.6407Y-3.6043
X4.6516Y-3.4469
X4.7333Y-2.6791
X4.7953Y-2.4154
X4.8012Y-2.5591
X4.8514Y-2.561
X4.8602Y-2.4154
X4.8848Y-2.0394
X4.9291Y-2.2992
X4.952Y-3.6779
X4.9567Y-2.52
X5.0978Y-2.5107
X5.2047Y-2.9695
X5.2224Y-2.3366
X5.2492Y-3.6878
X5.3042Y-2.9963
T3
X5.2862Y-2.1924
X5.2862Y-2.2711
T4
X4.703Y-2.113
X4.703Y-2.213
X4.703Y-2.313
X4.703Y-2.413
X4.703Y-2.513
T5
X4.85Y-2.1
X4.85Y-2.2772
X5.1059Y-2.1
X5.1059Y-2.2772
T0
M30
