G04 #@! TF.GenerationSoftware,KiCad,Pcbnew,(5.1.9)-1*
G04 #@! TF.CreationDate,2021-03-01T14:16:03+01:00*
G04 #@! TF.ProjectId,button timer v1.2.3_[Coin_Cell&LIPO][TPL5111],62757474-6f6e-4207-9469-6d6572207631,rev?*
G04 #@! TF.SameCoordinates,Original*
G04 #@! TF.FileFunction,Legend,Top*
G04 #@! TF.FilePolarity,Positive*
%FSLAX46Y46*%
G04 Gerber Fmt 4.6, Leading zero omitted, Abs format (unit mm)*
G04 Created by KiCad (PCBNEW (5.1.9)-1) date 2021-03-01 14:16:03*
%MOMM*%
%LPD*%
G01*
G04 APERTURE LIST*
%ADD10C,0.500000*%
%ADD11C,0.150000*%
%ADD12C,0.200000*%
%ADD13C,0.120000*%
%ADD14C,0.125000*%
G04 APERTURE END LIST*
D10*
X135097172Y-64395238D02*
X136049553Y-64395238D01*
X135799553Y-66395238D01*
X134430505Y-64395238D02*
X134180505Y-66395238D01*
X133287648Y-64395238D02*
X134001934Y-65538095D01*
X133037648Y-66395238D02*
X134323363Y-65252380D01*
X135109077Y-61942857D02*
X135775744Y-61942857D01*
X135906696Y-60895238D02*
X135656696Y-62895238D01*
X134704315Y-62895238D01*
X133240029Y-60895238D02*
X134192410Y-60895238D01*
X133942410Y-62895238D01*
D11*
X130754428Y-57062832D02*
X130754428Y-56300927D01*
X130754428Y-55062832D02*
X130754428Y-54300927D01*
X131135380Y-54681880D02*
X130373476Y-54681880D01*
X117652380Y-64485714D02*
X117176190Y-64752380D01*
X117652380Y-64942857D02*
X116652380Y-64942857D01*
X116652380Y-64638095D01*
X116700000Y-64561904D01*
X116747619Y-64523809D01*
X116842857Y-64485714D01*
X116985714Y-64485714D01*
X117080952Y-64523809D01*
X117128571Y-64561904D01*
X117176190Y-64638095D01*
X117176190Y-64942857D01*
X117604761Y-64180952D02*
X117652380Y-64066666D01*
X117652380Y-63876190D01*
X117604761Y-63800000D01*
X117557142Y-63761904D01*
X117461904Y-63723809D01*
X117366666Y-63723809D01*
X117271428Y-63761904D01*
X117223809Y-63800000D01*
X117176190Y-63876190D01*
X117128571Y-64028571D01*
X117080952Y-64104761D01*
X117033333Y-64142857D01*
X116938095Y-64180952D01*
X116842857Y-64180952D01*
X116747619Y-64142857D01*
X116700000Y-64104761D01*
X116652380Y-64028571D01*
X116652380Y-63838095D01*
X116700000Y-63723809D01*
X116652380Y-63495238D02*
X116652380Y-63038095D01*
X117652380Y-63266666D02*
X116652380Y-63266666D01*
X116652380Y-62276190D02*
X116652380Y-61819047D01*
X117652380Y-62047619D02*
X116652380Y-62047619D01*
X116652380Y-61628571D02*
X117652380Y-61095238D01*
X116652380Y-61095238D02*
X117652380Y-61628571D01*
X117652380Y-59723809D02*
X117176190Y-59990476D01*
X117652380Y-60180952D02*
X116652380Y-60180952D01*
X116652380Y-59876190D01*
X116700000Y-59800000D01*
X116747619Y-59761904D01*
X116842857Y-59723809D01*
X116985714Y-59723809D01*
X117080952Y-59761904D01*
X117128571Y-59800000D01*
X117176190Y-59876190D01*
X117176190Y-60180952D01*
X116652380Y-59457142D02*
X117652380Y-58923809D01*
X116652380Y-58923809D02*
X117652380Y-59457142D01*
X116700000Y-57590476D02*
X116652380Y-57666666D01*
X116652380Y-57780952D01*
X116700000Y-57895238D01*
X116795238Y-57971428D01*
X116890476Y-58009523D01*
X117080952Y-58047619D01*
X117223809Y-58047619D01*
X117414285Y-58009523D01*
X117509523Y-57971428D01*
X117604761Y-57895238D01*
X117652380Y-57780952D01*
X117652380Y-57704761D01*
X117604761Y-57590476D01*
X117557142Y-57552380D01*
X117223809Y-57552380D01*
X117223809Y-57704761D01*
X117652380Y-57209523D02*
X116652380Y-57209523D01*
X117652380Y-56752380D01*
X116652380Y-56752380D01*
X117652380Y-56371428D02*
X116652380Y-56371428D01*
X116652380Y-56180952D01*
X116700000Y-56066666D01*
X116795238Y-55990476D01*
X116890476Y-55952380D01*
X117080952Y-55914285D01*
X117223809Y-55914285D01*
X117414285Y-55952380D01*
X117509523Y-55990476D01*
X117604761Y-56066666D01*
X117652380Y-56180952D01*
X117652380Y-56371428D01*
X116652380Y-55076190D02*
X117652380Y-54809523D01*
X116652380Y-54542857D01*
X117557142Y-53819047D02*
X117604761Y-53857142D01*
X117652380Y-53971428D01*
X117652380Y-54047619D01*
X117604761Y-54161904D01*
X117509523Y-54238095D01*
X117414285Y-54276190D01*
X117223809Y-54314285D01*
X117080952Y-54314285D01*
X116890476Y-54276190D01*
X116795238Y-54238095D01*
X116700000Y-54161904D01*
X116652380Y-54047619D01*
X116652380Y-53971428D01*
X116700000Y-53857142D01*
X116747619Y-53819047D01*
X117557142Y-53019047D02*
X117604761Y-53057142D01*
X117652380Y-53171428D01*
X117652380Y-53247619D01*
X117604761Y-53361904D01*
X117509523Y-53438095D01*
X117414285Y-53476190D01*
X117223809Y-53514285D01*
X117080952Y-53514285D01*
X116890476Y-53476190D01*
X116795238Y-53438095D01*
X116700000Y-53361904D01*
X116652380Y-53247619D01*
X116652380Y-53171428D01*
X116700000Y-53057142D01*
X116747619Y-53019047D01*
X128357380Y-90344047D02*
X129071666Y-90344047D01*
X129214523Y-90391666D01*
X129309761Y-90486904D01*
X129357380Y-90629761D01*
X129357380Y-90725000D01*
X129357380Y-89391666D02*
X129357380Y-89867857D01*
X128357380Y-89867857D01*
X129262142Y-88486904D02*
X129309761Y-88534523D01*
X129357380Y-88677380D01*
X129357380Y-88772619D01*
X129309761Y-88915476D01*
X129214523Y-89010714D01*
X129119285Y-89058333D01*
X128928809Y-89105952D01*
X128785952Y-89105952D01*
X128595476Y-89058333D01*
X128500238Y-89010714D01*
X128405000Y-88915476D01*
X128357380Y-88772619D01*
X128357380Y-88677380D01*
X128405000Y-88534523D01*
X128452619Y-88486904D01*
X128357380Y-87772619D02*
X129071666Y-87772619D01*
X129214523Y-87820238D01*
X129309761Y-87915476D01*
X129357380Y-88058333D01*
X129357380Y-88153571D01*
X129357380Y-86820238D02*
X129357380Y-87296428D01*
X128357380Y-87296428D01*
X129262142Y-85915476D02*
X129309761Y-85963095D01*
X129357380Y-86105952D01*
X129357380Y-86201190D01*
X129309761Y-86344047D01*
X129214523Y-86439285D01*
X129119285Y-86486904D01*
X128928809Y-86534523D01*
X128785952Y-86534523D01*
X128595476Y-86486904D01*
X128500238Y-86439285D01*
X128405000Y-86344047D01*
X128357380Y-86201190D01*
X128357380Y-86105952D01*
X128405000Y-85963095D01*
X128452619Y-85915476D01*
X128357380Y-85201190D02*
X129071666Y-85201190D01*
X129214523Y-85248809D01*
X129309761Y-85344047D01*
X129357380Y-85486904D01*
X129357380Y-85582142D01*
X129357380Y-84248809D02*
X129357380Y-84725000D01*
X128357380Y-84725000D01*
X129262142Y-83344047D02*
X129309761Y-83391666D01*
X129357380Y-83534523D01*
X129357380Y-83629761D01*
X129309761Y-83772619D01*
X129214523Y-83867857D01*
X129119285Y-83915476D01*
X128928809Y-83963095D01*
X128785952Y-83963095D01*
X128595476Y-83915476D01*
X128500238Y-83867857D01*
X128405000Y-83772619D01*
X128357380Y-83629761D01*
X128357380Y-83534523D01*
X128405000Y-83391666D01*
X128452619Y-83344047D01*
X128357380Y-82629761D02*
X129071666Y-82629761D01*
X129214523Y-82677380D01*
X129309761Y-82772619D01*
X129357380Y-82915476D01*
X129357380Y-83010714D01*
X129357380Y-81677380D02*
X129357380Y-82153571D01*
X128357380Y-82153571D01*
X129262142Y-80772619D02*
X129309761Y-80820238D01*
X129357380Y-80963095D01*
X129357380Y-81058333D01*
X129309761Y-81201190D01*
X129214523Y-81296428D01*
X129119285Y-81344047D01*
X128928809Y-81391666D01*
X128785952Y-81391666D01*
X128595476Y-81344047D01*
X128500238Y-81296428D01*
X128405000Y-81201190D01*
X128357380Y-81058333D01*
X128357380Y-80963095D01*
X128405000Y-80820238D01*
X128452619Y-80772619D01*
D12*
G04 #@! TO.C,C6*
X133326680Y-72806280D02*
X133326680Y-76931280D01*
X136126680Y-76306280D02*
X136126680Y-72806280D01*
D13*
G04 #@! TO.C,X1*
X117580000Y-78600000D02*
X117580000Y-77980000D01*
X117580000Y-77980000D02*
X119700000Y-77980000D01*
X131700000Y-77980000D02*
X133820000Y-77980000D01*
X133820000Y-77980000D02*
X133820000Y-78600000D01*
G04 #@! TO.C,D2*
X120456200Y-74324800D02*
X117571200Y-74324800D01*
X117571200Y-74324800D02*
X117571200Y-76144800D01*
X117571200Y-76144800D02*
X120456200Y-76144800D01*
G04 #@! TO.C,D1*
X132382400Y-52977200D02*
X136467400Y-52977200D01*
X136467400Y-52977200D02*
X136467400Y-50807200D01*
X136467400Y-50807200D02*
X132382400Y-50807200D01*
G04 #@! TO.C,BT2*
X136379480Y-53326960D02*
X135129480Y-53326960D01*
X136379480Y-54576960D02*
X136379480Y-53326960D01*
X131969480Y-56686960D02*
X132469480Y-56686960D01*
X132469480Y-56786960D02*
X131969480Y-56786960D01*
X132469480Y-56586960D02*
X132469480Y-56786960D01*
X131969480Y-56586960D02*
X132469480Y-56586960D01*
X133469480Y-59746960D02*
X133469480Y-59136960D01*
X134769480Y-59746960D02*
X134769480Y-59136960D01*
X133469480Y-53626960D02*
X133469480Y-54236960D01*
X134769480Y-53626960D02*
X134769480Y-54236960D01*
X135469480Y-57186960D02*
X136079480Y-57186960D01*
X135469480Y-59136960D02*
X135469480Y-57186960D01*
X131969480Y-59136960D02*
X135469480Y-59136960D01*
X131969480Y-54236960D02*
X131969480Y-59136960D01*
X135469480Y-54236960D02*
X131969480Y-54236960D01*
X135469480Y-56186960D02*
X135469480Y-54236960D01*
X136079480Y-56186960D02*
X135469480Y-56186960D01*
X136179480Y-55386960D02*
X136179480Y-55086960D01*
X136279480Y-55086960D02*
X136079480Y-55086960D01*
X136279480Y-55386960D02*
X136279480Y-55086960D01*
X136079480Y-55386960D02*
X136279480Y-55386960D01*
X136079480Y-59746960D02*
X136079480Y-53626960D01*
X131359480Y-59746960D02*
X136079480Y-59746960D01*
X131359480Y-53626960D02*
X131359480Y-59746960D01*
X136079480Y-53626960D02*
X131359480Y-53626960D01*
D11*
G04 #@! TO.C,L1*
X121146000Y-60398000D02*
X121146000Y-62430000D01*
X124194000Y-60598000D02*
X121146000Y-60598000D01*
X124194000Y-62430000D02*
X124194000Y-60398000D01*
X124194000Y-65986000D02*
X124194000Y-64081000D01*
X121146000Y-65986000D02*
X124194000Y-65986000D01*
X121146000Y-64081000D02*
X121146000Y-65986000D01*
X124194000Y-60398000D02*
X121146000Y-60398000D01*
D13*
G04 #@! TO.C,C7*
X135159485Y-77999000D02*
X135391155Y-77999000D01*
G04 #@! TO.C,Q1*
X133288500Y-68333500D02*
X134748500Y-68333500D01*
X133288500Y-71493500D02*
X135448500Y-71493500D01*
X133288500Y-71493500D02*
X133288500Y-70563500D01*
X133288500Y-68333500D02*
X133288500Y-69263500D01*
G04 #@! TO.C,R1*
X136031500Y-81568724D02*
X136031500Y-81059276D01*
X134986500Y-81568724D02*
X134986500Y-81059276D01*
G04 #@! TO.C,SW2*
X121369000Y-71500000D02*
X121669000Y-71500000D01*
X121669000Y-71500000D02*
X121669000Y-68200000D01*
X121669000Y-68200000D02*
X121369000Y-68200000D01*
X119169000Y-71500000D02*
X118869000Y-71500000D01*
X118869000Y-71500000D02*
X118869000Y-68200000D01*
X118869000Y-68200000D02*
X119169000Y-68200000D01*
G04 #@! TO.C,SW1*
X124190000Y-58840000D02*
X128690000Y-58840000D01*
X122940000Y-54840000D02*
X122940000Y-56340000D01*
X128690000Y-52340000D02*
X124190000Y-52340000D01*
X129940000Y-56340000D02*
X129940000Y-54840000D01*
G04 #@! TO.C,R9*
X130810000Y-73888748D02*
X130810000Y-74411252D01*
X129390000Y-73888748D02*
X129390000Y-74411252D01*
G04 #@! TO.C,R6*
X126966612Y-52409160D02*
X126444108Y-52409160D01*
X126966612Y-50989160D02*
X126444108Y-50989160D01*
G04 #@! TO.C,R5*
X123860000Y-73913748D02*
X123860000Y-74436252D01*
X122440000Y-73913748D02*
X122440000Y-74436252D01*
G04 #@! TO.C,R4*
X128560000Y-73863748D02*
X128560000Y-74386252D01*
X127140000Y-73863748D02*
X127140000Y-74386252D01*
G04 #@! TO.C,R3*
X132967800Y-73906748D02*
X132967800Y-74429252D01*
X131547800Y-73906748D02*
X131547800Y-74429252D01*
G04 #@! TO.C,R2*
X126260000Y-73888748D02*
X126260000Y-74411252D01*
X124840000Y-73888748D02*
X124840000Y-74411252D01*
G04 #@! TO.C,C6*
D14*
X134593346Y-74734851D02*
X134569537Y-74758660D01*
X134498108Y-74782470D01*
X134450489Y-74782470D01*
X134379060Y-74758660D01*
X134331441Y-74711041D01*
X134307632Y-74663422D01*
X134283822Y-74568184D01*
X134283822Y-74496756D01*
X134307632Y-74401518D01*
X134331441Y-74353899D01*
X134379060Y-74306280D01*
X134450489Y-74282470D01*
X134498108Y-74282470D01*
X134569537Y-74306280D01*
X134593346Y-74330089D01*
X135021918Y-74282470D02*
X134926680Y-74282470D01*
X134879060Y-74306280D01*
X134855251Y-74330089D01*
X134807632Y-74401518D01*
X134783822Y-74496756D01*
X134783822Y-74687232D01*
X134807632Y-74734851D01*
X134831441Y-74758660D01*
X134879060Y-74782470D01*
X134974299Y-74782470D01*
X135021918Y-74758660D01*
X135045727Y-74734851D01*
X135069537Y-74687232D01*
X135069537Y-74568184D01*
X135045727Y-74520565D01*
X135021918Y-74496756D01*
X134974299Y-74472946D01*
X134879060Y-74472946D01*
X134831441Y-74496756D01*
X134807632Y-74520565D01*
X134783822Y-74568184D01*
G04 #@! TO.C,X1*
D11*
X124890476Y-83837380D02*
X125557142Y-84837380D01*
X125557142Y-83837380D02*
X124890476Y-84837380D01*
X126461904Y-84837380D02*
X125890476Y-84837380D01*
X126176190Y-84837380D02*
X126176190Y-83837380D01*
X126080952Y-83980238D01*
X125985714Y-84075476D01*
X125890476Y-84123095D01*
G04 #@! TO.C,D2*
D14*
X119682390Y-75603847D02*
X119182390Y-75603847D01*
X119182390Y-75484800D01*
X119206200Y-75413371D01*
X119253819Y-75365752D01*
X119301438Y-75341942D01*
X119396676Y-75318133D01*
X119468104Y-75318133D01*
X119563342Y-75341942D01*
X119610961Y-75365752D01*
X119658580Y-75413371D01*
X119682390Y-75484800D01*
X119682390Y-75603847D01*
X119230009Y-75127657D02*
X119206200Y-75103847D01*
X119182390Y-75056228D01*
X119182390Y-74937180D01*
X119206200Y-74889561D01*
X119230009Y-74865752D01*
X119277628Y-74841942D01*
X119325247Y-74841942D01*
X119396676Y-74865752D01*
X119682390Y-75151466D01*
X119682390Y-74841942D01*
G04 #@! TO.C,D1*
D11*
X134249066Y-52508866D02*
X133549066Y-52508866D01*
X133549066Y-52342200D01*
X133582400Y-52242200D01*
X133649066Y-52175533D01*
X133715733Y-52142200D01*
X133849066Y-52108866D01*
X133949066Y-52108866D01*
X134082400Y-52142200D01*
X134149066Y-52175533D01*
X134215733Y-52242200D01*
X134249066Y-52342200D01*
X134249066Y-52508866D01*
X134249066Y-51442200D02*
X134249066Y-51842200D01*
X134249066Y-51642200D02*
X133549066Y-51642200D01*
X133649066Y-51708866D01*
X133715733Y-51775533D01*
X133749066Y-51842200D01*
G04 #@! TO.C,BT2*
X132658811Y-57432794D02*
X132706430Y-57289937D01*
X132754049Y-57242318D01*
X132849287Y-57194699D01*
X132992144Y-57194699D01*
X133087382Y-57242318D01*
X133135001Y-57289937D01*
X133182620Y-57385175D01*
X133182620Y-57766127D01*
X132182620Y-57766127D01*
X132182620Y-57432794D01*
X132230240Y-57337556D01*
X132277859Y-57289937D01*
X132373097Y-57242318D01*
X132468335Y-57242318D01*
X132563573Y-57289937D01*
X132611192Y-57337556D01*
X132658811Y-57432794D01*
X132658811Y-57766127D01*
X132182620Y-56908984D02*
X132182620Y-56337556D01*
X133182620Y-56623270D02*
X132182620Y-56623270D01*
X132277859Y-56051841D02*
X132230240Y-56004222D01*
X132182620Y-55908984D01*
X132182620Y-55670889D01*
X132230240Y-55575651D01*
X132277859Y-55528032D01*
X132373097Y-55480413D01*
X132468335Y-55480413D01*
X132611192Y-55528032D01*
X133182620Y-56099460D01*
X133182620Y-55480413D01*
G04 #@! TO.C,L1*
X122566133Y-63637420D02*
X122089942Y-63637420D01*
X122089942Y-62637420D01*
X123423276Y-63637420D02*
X122851847Y-63637420D01*
X123137561Y-63637420D02*
X123137561Y-62637420D01*
X123042323Y-62780278D01*
X122947085Y-62875516D01*
X122851847Y-62923135D01*
G04 #@! TO.C,Q1*
D14*
X134191380Y-70179689D02*
X134143761Y-70155880D01*
X134096142Y-70108260D01*
X134024714Y-70036832D01*
X133977095Y-70013022D01*
X133929476Y-70013022D01*
X133953285Y-70132070D02*
X133905666Y-70108260D01*
X133858047Y-70060641D01*
X133834238Y-69965403D01*
X133834238Y-69798737D01*
X133858047Y-69703499D01*
X133905666Y-69655880D01*
X133953285Y-69632070D01*
X134048523Y-69632070D01*
X134096142Y-69655880D01*
X134143761Y-69703499D01*
X134167571Y-69798737D01*
X134167571Y-69965403D01*
X134143761Y-70060641D01*
X134096142Y-70108260D01*
X134048523Y-70132070D01*
X133953285Y-70132070D01*
X134643761Y-70132070D02*
X134358047Y-70132070D01*
X134500904Y-70132070D02*
X134500904Y-69632070D01*
X134453285Y-69703499D01*
X134405666Y-69751118D01*
X134358047Y-69774927D01*
G04 #@! TO.C,R1*
X135461226Y-81551910D02*
X135294560Y-81313815D01*
X135175512Y-81551910D02*
X135175512Y-81051910D01*
X135365988Y-81051910D01*
X135413607Y-81075720D01*
X135437417Y-81099529D01*
X135461226Y-81147148D01*
X135461226Y-81218577D01*
X135437417Y-81266196D01*
X135413607Y-81290005D01*
X135365988Y-81313815D01*
X135175512Y-81313815D01*
X135937417Y-81551910D02*
X135651702Y-81551910D01*
X135794560Y-81551910D02*
X135794560Y-81051910D01*
X135746940Y-81123339D01*
X135699321Y-81170958D01*
X135651702Y-81194767D01*
G04 #@! TO.C,SW2*
X119552333Y-70102380D02*
X119623761Y-70126190D01*
X119742809Y-70126190D01*
X119790428Y-70102380D01*
X119814238Y-70078571D01*
X119838047Y-70030952D01*
X119838047Y-69983333D01*
X119814238Y-69935714D01*
X119790428Y-69911904D01*
X119742809Y-69888095D01*
X119647571Y-69864285D01*
X119599952Y-69840476D01*
X119576142Y-69816666D01*
X119552333Y-69769047D01*
X119552333Y-69721428D01*
X119576142Y-69673809D01*
X119599952Y-69650000D01*
X119647571Y-69626190D01*
X119766619Y-69626190D01*
X119838047Y-69650000D01*
X120004714Y-69626190D02*
X120123761Y-70126190D01*
X120219000Y-69769047D01*
X120314238Y-70126190D01*
X120433285Y-69626190D01*
X120599952Y-69673809D02*
X120623761Y-69650000D01*
X120671380Y-69626190D01*
X120790428Y-69626190D01*
X120838047Y-69650000D01*
X120861857Y-69673809D01*
X120885666Y-69721428D01*
X120885666Y-69769047D01*
X120861857Y-69840476D01*
X120576142Y-70126190D01*
X120885666Y-70126190D01*
G04 #@! TO.C,SW1*
D11*
X125006666Y-55994761D02*
X125149523Y-56042380D01*
X125387619Y-56042380D01*
X125482857Y-55994761D01*
X125530476Y-55947142D01*
X125578095Y-55851904D01*
X125578095Y-55756666D01*
X125530476Y-55661428D01*
X125482857Y-55613809D01*
X125387619Y-55566190D01*
X125197142Y-55518571D01*
X125101904Y-55470952D01*
X125054285Y-55423333D01*
X125006666Y-55328095D01*
X125006666Y-55232857D01*
X125054285Y-55137619D01*
X125101904Y-55090000D01*
X125197142Y-55042380D01*
X125435238Y-55042380D01*
X125578095Y-55090000D01*
X125911428Y-55042380D02*
X126149523Y-56042380D01*
X126340000Y-55328095D01*
X126530476Y-56042380D01*
X126768571Y-55042380D01*
X127673333Y-56042380D02*
X127101904Y-56042380D01*
X127387619Y-56042380D02*
X127387619Y-55042380D01*
X127292380Y-55185238D01*
X127197142Y-55280476D01*
X127101904Y-55328095D01*
G04 #@! TO.C,R9*
D14*
X129970946Y-74416830D02*
X129804280Y-74178735D01*
X129685232Y-74416830D02*
X129685232Y-73916830D01*
X129875708Y-73916830D01*
X129923327Y-73940640D01*
X129947137Y-73964449D01*
X129970946Y-74012068D01*
X129970946Y-74083497D01*
X129947137Y-74131116D01*
X129923327Y-74154925D01*
X129875708Y-74178735D01*
X129685232Y-74178735D01*
X130209041Y-74416830D02*
X130304280Y-74416830D01*
X130351899Y-74393020D01*
X130375708Y-74369211D01*
X130423327Y-74297782D01*
X130447137Y-74202544D01*
X130447137Y-74012068D01*
X130423327Y-73964449D01*
X130399518Y-73940640D01*
X130351899Y-73916830D01*
X130256660Y-73916830D01*
X130209041Y-73940640D01*
X130185232Y-73964449D01*
X130161422Y-74012068D01*
X130161422Y-74131116D01*
X130185232Y-74178735D01*
X130209041Y-74202544D01*
X130256660Y-74226354D01*
X130351899Y-74226354D01*
X130399518Y-74202544D01*
X130423327Y-74178735D01*
X130447137Y-74131116D01*
G04 #@! TO.C,R6*
X126941710Y-51838373D02*
X126703615Y-52005040D01*
X126941710Y-52124087D02*
X126441710Y-52124087D01*
X126441710Y-51933611D01*
X126465520Y-51885992D01*
X126489329Y-51862182D01*
X126536948Y-51838373D01*
X126608377Y-51838373D01*
X126655996Y-51862182D01*
X126679805Y-51885992D01*
X126703615Y-51933611D01*
X126703615Y-52124087D01*
X126441710Y-51409801D02*
X126441710Y-51505040D01*
X126465520Y-51552659D01*
X126489329Y-51576468D01*
X126560758Y-51624087D01*
X126655996Y-51647897D01*
X126846472Y-51647897D01*
X126894091Y-51624087D01*
X126917900Y-51600278D01*
X126941710Y-51552659D01*
X126941710Y-51457420D01*
X126917900Y-51409801D01*
X126894091Y-51385992D01*
X126846472Y-51362182D01*
X126727424Y-51362182D01*
X126679805Y-51385992D01*
X126655996Y-51409801D01*
X126632186Y-51457420D01*
X126632186Y-51552659D01*
X126655996Y-51600278D01*
X126679805Y-51624087D01*
X126727424Y-51647897D01*
G04 #@! TO.C,R5*
X123092066Y-74471190D02*
X122925400Y-74233095D01*
X122806352Y-74471190D02*
X122806352Y-73971190D01*
X122996828Y-73971190D01*
X123044447Y-73995000D01*
X123068257Y-74018809D01*
X123092066Y-74066428D01*
X123092066Y-74137857D01*
X123068257Y-74185476D01*
X123044447Y-74209285D01*
X122996828Y-74233095D01*
X122806352Y-74233095D01*
X123544447Y-73971190D02*
X123306352Y-73971190D01*
X123282542Y-74209285D01*
X123306352Y-74185476D01*
X123353971Y-74161666D01*
X123473019Y-74161666D01*
X123520638Y-74185476D01*
X123544447Y-74209285D01*
X123568257Y-74256904D01*
X123568257Y-74375952D01*
X123544447Y-74423571D01*
X123520638Y-74447380D01*
X123473019Y-74471190D01*
X123353971Y-74471190D01*
X123306352Y-74447380D01*
X123282542Y-74423571D01*
G04 #@! TO.C,R4*
X127847946Y-74366430D02*
X127681280Y-74128335D01*
X127562232Y-74366430D02*
X127562232Y-73866430D01*
X127752708Y-73866430D01*
X127800327Y-73890240D01*
X127824137Y-73914049D01*
X127847946Y-73961668D01*
X127847946Y-74033097D01*
X127824137Y-74080716D01*
X127800327Y-74104525D01*
X127752708Y-74128335D01*
X127562232Y-74128335D01*
X128276518Y-74033097D02*
X128276518Y-74366430D01*
X128157470Y-73842620D02*
X128038422Y-74199763D01*
X128347946Y-74199763D01*
G04 #@! TO.C,R3*
X132164306Y-74394190D02*
X131997640Y-74156095D01*
X131878592Y-74394190D02*
X131878592Y-73894190D01*
X132069068Y-73894190D01*
X132116687Y-73918000D01*
X132140497Y-73941809D01*
X132164306Y-73989428D01*
X132164306Y-74060857D01*
X132140497Y-74108476D01*
X132116687Y-74132285D01*
X132069068Y-74156095D01*
X131878592Y-74156095D01*
X132330973Y-73894190D02*
X132640497Y-73894190D01*
X132473830Y-74084666D01*
X132545259Y-74084666D01*
X132592878Y-74108476D01*
X132616687Y-74132285D01*
X132640497Y-74179904D01*
X132640497Y-74298952D01*
X132616687Y-74346571D01*
X132592878Y-74370380D01*
X132545259Y-74394190D01*
X132402401Y-74394190D01*
X132354782Y-74370380D01*
X132330973Y-74346571D01*
G04 #@! TO.C,R2*
X125446346Y-74395390D02*
X125279680Y-74157295D01*
X125160632Y-74395390D02*
X125160632Y-73895390D01*
X125351108Y-73895390D01*
X125398727Y-73919200D01*
X125422537Y-73943009D01*
X125446346Y-73990628D01*
X125446346Y-74062057D01*
X125422537Y-74109676D01*
X125398727Y-74133485D01*
X125351108Y-74157295D01*
X125160632Y-74157295D01*
X125636822Y-73943009D02*
X125660632Y-73919200D01*
X125708251Y-73895390D01*
X125827299Y-73895390D01*
X125874918Y-73919200D01*
X125898727Y-73943009D01*
X125922537Y-73990628D01*
X125922537Y-74038247D01*
X125898727Y-74109676D01*
X125613013Y-74395390D01*
X125922537Y-74395390D01*
G04 #@! TD*
M02*
