G04 #@! TF.GenerationSoftware,KiCad,Pcbnew,(5.1.9)-1*
G04 #@! TF.CreationDate,2021-03-01T14:13:03+01:00*
G04 #@! TF.ProjectId,button v2_1 - AA [TPL5110],62757474-6f6e-4207-9632-5f31202d2041,rev?*
G04 #@! TF.SameCoordinates,Original*
G04 #@! TF.FileFunction,Paste,Top*
G04 #@! TF.FilePolarity,Positive*
%FSLAX46Y46*%
G04 Gerber Fmt 4.6, Leading zero omitted, Abs format (unit mm)*
G04 Created by KiCad (PCBNEW (5.1.9)-1) date 2021-03-01 14:13:03*
%MOMM*%
%LPD*%
G01*
G04 APERTURE LIST*
%ADD10R,0.650000X2.000000*%
%ADD11C,0.100000*%
%ADD12R,1.650000X2.250000*%
%ADD13R,1.000000X1.200000*%
%ADD14R,0.800000X1.000000*%
%ADD15R,0.650000X1.500000*%
%ADD16R,1.100000X1.500000*%
%ADD17R,0.620000X0.900000*%
%ADD18R,0.900000X0.620000*%
%ADD19R,2.794000X1.778000*%
%ADD20R,1.500000X1.100000*%
%ADD21R,1.500000X1.500000*%
%ADD22R,2.500000X1.000000*%
%ADD23R,1.000000X1.800000*%
%ADD24R,1.600000X2.180000*%
G04 APERTURE END LIST*
D10*
G04 #@! TO.C,PS1*
X122150000Y-98500000D03*
X124050000Y-98500000D03*
X124050000Y-101550000D03*
D11*
G36*
X123425000Y-102550000D02*
G01*
X122775000Y-102550000D01*
X122775000Y-100550000D01*
X123425000Y-100550000D01*
X123425000Y-102550000D01*
G37*
D10*
X122150000Y-101550000D03*
G04 #@! TD*
D12*
G04 #@! TO.C,C4*
X121850000Y-94900000D03*
X124950000Y-94900000D03*
G04 #@! TD*
D13*
G04 #@! TO.C,R8*
X126200000Y-104400000D03*
X126200000Y-106500000D03*
G04 #@! TD*
D14*
G04 #@! TO.C,U3*
X129100000Y-104450000D03*
X130050000Y-106550000D03*
X128150000Y-106550000D03*
G04 #@! TD*
D15*
G04 #@! TO.C,U1*
X123400000Y-104100000D03*
X122450000Y-104100000D03*
X124350000Y-104100000D03*
X124350000Y-106700000D03*
X123400000Y-106700000D03*
X122450000Y-106700000D03*
G04 #@! TD*
D16*
G04 #@! TO.C,R6*
X132900000Y-51350000D03*
X132900000Y-49050000D03*
G04 #@! TD*
D17*
G04 #@! TO.C,C7*
X126000000Y-101450000D03*
X126000000Y-102750000D03*
G04 #@! TD*
D18*
G04 #@! TO.C,C6*
X123850000Y-108700000D03*
X122550000Y-108700000D03*
G04 #@! TD*
D19*
G04 #@! TO.C,L1*
X118960000Y-108658000D03*
X118960000Y-105102000D03*
G04 #@! TD*
G04 #@! TO.C,D1*
G36*
G01*
X131850000Y-55225000D02*
X131850000Y-56375000D01*
G75*
G02*
X131600000Y-56625000I-250000J0D01*
G01*
X130500000Y-56625000D01*
G75*
G02*
X130250000Y-56375000I0J250000D01*
G01*
X130250000Y-55225000D01*
G75*
G02*
X130500000Y-54975000I250000J0D01*
G01*
X131600000Y-54975000D01*
G75*
G02*
X131850000Y-55225000I0J-250000D01*
G01*
G37*
G36*
G01*
X134700000Y-55225000D02*
X134700000Y-56375000D01*
G75*
G02*
X134450000Y-56625000I-250000J0D01*
G01*
X133350000Y-56625000D01*
G75*
G02*
X133100000Y-56375000I0J250000D01*
G01*
X133100000Y-55225000D01*
G75*
G02*
X133350000Y-54975000I250000J0D01*
G01*
X134450000Y-54975000D01*
G75*
G02*
X134700000Y-55225000I0J-250000D01*
G01*
G37*
G04 #@! TD*
D10*
G04 #@! TO.C,U2*
X129450000Y-98700000D03*
X131350000Y-98700000D03*
X131350000Y-101750000D03*
D11*
G36*
X130725000Y-102750000D02*
G01*
X130075000Y-102750000D01*
X130075000Y-100750000D01*
X130725000Y-100750000D01*
X130725000Y-102750000D01*
G37*
D10*
X129450000Y-101750000D03*
G04 #@! TD*
D16*
G04 #@! TO.C,C3*
X127400000Y-99450000D03*
X127400000Y-97150000D03*
G04 #@! TD*
D20*
G04 #@! TO.C,C1*
X124550000Y-110250000D03*
X122250000Y-110250000D03*
G04 #@! TD*
D21*
G04 #@! TO.C,R3*
X124180000Y-89450000D03*
X124180000Y-91850000D03*
G04 #@! TD*
G04 #@! TO.C,R1*
X121730000Y-89390000D03*
X121730000Y-91790000D03*
G04 #@! TD*
G04 #@! TO.C,R7*
X135990000Y-104590000D03*
X135990000Y-106990000D03*
G04 #@! TD*
G04 #@! TO.C,R5*
X131500000Y-89500000D03*
X131500000Y-91900000D03*
G04 #@! TD*
G04 #@! TO.C,R4*
X126650000Y-89425000D03*
X126650000Y-91825000D03*
G04 #@! TD*
G04 #@! TO.C,R2*
X129200000Y-89500000D03*
X129200000Y-91900000D03*
G04 #@! TD*
D17*
G04 #@! TO.C,C2*
X117348000Y-71486000D03*
X117348000Y-72786000D03*
G04 #@! TD*
D22*
G04 #@! TO.C,X1*
X134854000Y-71430000D03*
X134854000Y-73430000D03*
X134854000Y-75430000D03*
X134854000Y-77430000D03*
X134854000Y-79430000D03*
X134854000Y-81430000D03*
X134854000Y-83430000D03*
X134854000Y-85430000D03*
D23*
X132254000Y-86930000D03*
X130254000Y-86930000D03*
X128254000Y-86930000D03*
X126254000Y-86930000D03*
X124254000Y-86930000D03*
X122254000Y-86930000D03*
D22*
X119654000Y-85430000D03*
X119654000Y-83430000D03*
X119654000Y-81430000D03*
X119654000Y-79430000D03*
X119654000Y-77430000D03*
X119654000Y-75430000D03*
X119654000Y-73430000D03*
X119654000Y-71430000D03*
G04 #@! TD*
D18*
G04 #@! TO.C,C5*
X117975000Y-88025000D03*
X119275000Y-88025000D03*
G04 #@! TD*
D24*
G04 #@! TO.C,SW2*
X134890000Y-92800000D03*
X134890000Y-101980000D03*
G04 #@! TD*
M02*
