M48
; DRILL file {KiCad (5.1.9)-1} date 03/01/21 14:13:05
; FORMAT={-:-/ absolute / inch / decimal}
; #@! TF.CreationDate,2021-03-01T14:13:05+01:00
; #@! TF.GenerationSoftware,Kicad,Pcbnew,(5.1.9)-1
FMAT,2
INCH
T1C0.0118
T2C0.0157
T3C0.0295
T4C0.0394
T5C0.0402
T6C0.0433
T7C0.1039
%
G90
G05
T1
X4.6181Y-2.8661
X4.6339Y-2.9094
X4.6516Y-3.4646
X4.6752Y-3.3602
X4.7205Y-2.811
X4.7274Y-3.7087
X4.7402Y-3.3602
X4.7795Y-4.2323
X4.8209Y-4.0984
X4.8268Y-4.2795
X4.8465Y-4.0
X4.8583Y-4.2008
X4.9606Y-3.9961
X4.9606Y-4.0453
X4.9862Y-3.5207
X5.0197Y-3.9173
X5.0472Y-4.0079
X5.0778Y-3.1506
X5.0827Y-4.1122
X5.1378Y-4.0079
X5.1732Y-3.622
X5.2362Y-1.9331
X5.2382Y-3.3593
X5.2795Y-2.2008
X5.2835Y-3.3622
X5.3091Y-3.0492
X5.311Y-2.813
X5.311Y-2.8937
X5.3228Y-3.3622
X5.3494Y-2.6742
X5.3514Y-2.7638
T2
X4.6835Y-4.2779
X4.7992Y-3.7362
X4.811Y-4.3386
X4.9685Y-4.1929
X5.315Y-4.0157
T3
X5.2335Y-4.35
X5.3122Y-4.35
T4
X4.6677Y-3.5343
X4.6677Y-3.6343
X4.6677Y-3.7343
X4.6677Y-3.8343
X4.6677Y-3.9343
X4.6677Y-4.0343
T5
X5.0Y-2.2654
X5.0Y-4.3122
T6
X4.876Y-1.8654
X4.876Y-2.0425
X5.1319Y-1.8654
X5.1319Y-2.0425
T7
X4.764Y-2.374
X5.236Y-4.2039
T0
M30
