G04 #@! TF.GenerationSoftware,KiCad,Pcbnew,(5.1.9)-1*
G04 #@! TF.CreationDate,2021-03-01T14:13:03+01:00*
G04 #@! TF.ProjectId,button v2_1 - AA [TPL5110],62757474-6f6e-4207-9632-5f31202d2041,rev?*
G04 #@! TF.SameCoordinates,Original*
G04 #@! TF.FileFunction,Copper,L2,Bot*
G04 #@! TF.FilePolarity,Positive*
%FSLAX46Y46*%
G04 Gerber Fmt 4.6, Leading zero omitted, Abs format (unit mm)*
G04 Created by KiCad (PCBNEW (5.1.9)-1) date 2021-03-01 14:13:03*
%MOMM*%
%LPD*%
G01*
G04 APERTURE LIST*
G04 #@! TA.AperFunction,NonConductor*
%ADD10C,0.300000*%
G04 #@! TD*
G04 #@! TA.AperFunction,ComponentPad*
%ADD11O,1.200000X1.750000*%
G04 #@! TD*
G04 #@! TA.AperFunction,ComponentPad*
%ADD12O,1.700000X1.700000*%
G04 #@! TD*
G04 #@! TA.AperFunction,ComponentPad*
%ADD13R,1.700000X1.700000*%
G04 #@! TD*
G04 #@! TA.AperFunction,ComponentPad*
%ADD14C,2.000000*%
G04 #@! TD*
G04 #@! TA.AperFunction,ComponentPad*
%ADD15R,2.000000X2.000000*%
G04 #@! TD*
G04 #@! TA.AperFunction,ViaPad*
%ADD16C,0.500000*%
G04 #@! TD*
G04 #@! TA.AperFunction,ViaPad*
%ADD17C,0.800000*%
G04 #@! TD*
G04 #@! TA.AperFunction,Conductor*
%ADD18C,0.500000*%
G04 #@! TD*
G04 #@! TA.AperFunction,Conductor*
%ADD19C,0.350000*%
G04 #@! TD*
G04 #@! TA.AperFunction,Conductor*
%ADD20C,0.254000*%
G04 #@! TD*
G04 #@! TA.AperFunction,Conductor*
%ADD21C,0.100000*%
G04 #@! TD*
G04 APERTURE END LIST*
D10*
X118650714Y-112312857D02*
X119150714Y-112312857D01*
X119248928Y-113098571D02*
X119061428Y-111598571D01*
X118347142Y-111598571D01*
X117248928Y-113098571D02*
X117963214Y-113098571D01*
X117775714Y-111598571D01*
D11*
G04 #@! TO.P,BT2,2*
G04 #@! TO.N,/GND*
X134930000Y-110490000D03*
G04 #@! TO.P,BT2,1*
G04 #@! TO.N,Net-(BT1-Pad1)*
G04 #@! TA.AperFunction,ComponentPad*
G36*
G01*
X132330000Y-111115001D02*
X132330000Y-109864999D01*
G75*
G02*
X132579999Y-109615000I249999J0D01*
G01*
X133280001Y-109615000D01*
G75*
G02*
X133530000Y-109864999I0J-249999D01*
G01*
X133530000Y-111115001D01*
G75*
G02*
X133280001Y-111365000I-249999J0D01*
G01*
X132579999Y-111365000D01*
G75*
G02*
X132330000Y-111115001I0J249999D01*
G01*
G37*
G04 #@! TD.AperFunction*
G04 #@! TD*
D12*
G04 #@! TO.P,J1,6*
G04 #@! TO.N,/VCC*
X118560000Y-102470000D03*
G04 #@! TO.P,J1,5*
G04 #@! TO.N,/GND*
X118560000Y-99930000D03*
G04 #@! TO.P,J1,4*
G04 #@! TO.N,/RX*
X118560000Y-97390000D03*
G04 #@! TO.P,J1,3*
G04 #@! TO.N,/TX*
X118560000Y-94850000D03*
G04 #@! TO.P,J1,2*
G04 #@! TO.N,/RST*
X118560000Y-92310000D03*
D13*
G04 #@! TO.P,J1,1*
G04 #@! TO.N,N/C*
X118560000Y-89770000D03*
G04 #@! TD*
D14*
G04 #@! TO.P,SW1,1*
G04 #@! TO.N,Net-(BT1-Pad1)*
X123850000Y-51880000D03*
G04 #@! TO.P,SW1,2*
G04 #@! TO.N,Net-(R6-Pad1)*
X123850000Y-47380000D03*
G04 #@! TO.P,SW1,1*
G04 #@! TO.N,Net-(BT1-Pad1)*
X130350000Y-51880000D03*
G04 #@! TO.P,SW1,2*
G04 #@! TO.N,Net-(R6-Pad1)*
X130350000Y-47380000D03*
G04 #@! TD*
D15*
G04 #@! TO.P,BT1,1*
G04 #@! TO.N,Net-(BT1-Pad1)*
X127000000Y-109530000D03*
D14*
G04 #@! TO.P,BT1,2*
G04 #@! TO.N,/GND*
X127000000Y-57540000D03*
G04 #@! TD*
D16*
G04 #@! TO.N,*
X135875000Y-67925000D03*
G04 #@! TO.N,/VCC*
X118750000Y-85350000D03*
X120400000Y-85350000D03*
G04 #@! TO.N,/GND*
X118150000Y-88000000D03*
X131400000Y-92000000D03*
X134100000Y-55900000D03*
X135200000Y-85400000D03*
X134200000Y-85400000D03*
X117300000Y-72800000D03*
D17*
X135000000Y-102000000D03*
X121900000Y-94900000D03*
D16*
X126000000Y-101500000D03*
X127500000Y-99500000D03*
X130500000Y-101800000D03*
X123100000Y-101600000D03*
X122600000Y-108700000D03*
D17*
X122200000Y-110200000D03*
D16*
X121400000Y-107500000D03*
X123400000Y-106700000D03*
X122450000Y-104100000D03*
X117700000Y-73900000D03*
X128200000Y-101800000D03*
X133050000Y-85325000D03*
X120075000Y-94200000D03*
X135925000Y-70200000D03*
G04 #@! TO.N,/RST*
X119900000Y-71400000D03*
G04 #@! TO.N,/RX*
X134900000Y-73500000D03*
G04 #@! TO.N,/TX*
X134900000Y-71450000D03*
G04 #@! TO.N,/GPIO0*
X126650000Y-89425000D03*
X128975000Y-80025000D03*
G04 #@! TO.N,/GPIO4*
X126000000Y-102750000D03*
X134850000Y-77450000D03*
G04 #@! TO.N,Net-(L1-Pad1)*
X129100000Y-104450000D03*
D17*
X118960000Y-108658000D03*
G04 #@! TO.N,Net-(R6-Pad1)*
X126200000Y-106500000D03*
D16*
X133000000Y-49100000D03*
G04 #@! TD*
D18*
G04 #@! TO.N,/GND*
X134800000Y-101800000D02*
X135000000Y-102000000D01*
X130500000Y-101800000D02*
X134800000Y-101800000D01*
X130500000Y-101800000D02*
X128200000Y-101800000D01*
X128200000Y-101800000D02*
X128200000Y-101800000D01*
D19*
X133050000Y-85325000D02*
X132325000Y-85325000D01*
D18*
X135925000Y-70200000D02*
X135925000Y-71125000D01*
G04 #@! TO.N,/RST*
X118560000Y-92310000D02*
X121900000Y-88970000D01*
X121900000Y-88970000D02*
X121900000Y-73400000D01*
X121900000Y-73400000D02*
X119900000Y-71400000D01*
X119900000Y-71400000D02*
X119900000Y-71400000D01*
G04 #@! TO.N,/RX*
X118560000Y-97390000D02*
X120626102Y-97390000D01*
X120626102Y-97390000D02*
X127824999Y-90191103D01*
X127824999Y-90191103D02*
X127824999Y-87988999D01*
X130250000Y-85563998D02*
X130250000Y-78150000D01*
X127824999Y-87988999D02*
X130250000Y-85563998D01*
X130250000Y-78150000D02*
X134900000Y-73500000D01*
G04 #@! TO.N,/TX*
X125949989Y-80400011D02*
X134900000Y-71450000D01*
X118560000Y-94850000D02*
X125949989Y-87460011D01*
X125949989Y-87460011D02*
X125949989Y-80400011D01*
G04 #@! TO.N,/GPIO0*
X126650000Y-89425000D02*
X126650000Y-82350000D01*
X126650000Y-82350000D02*
X128975000Y-80025000D01*
X128975000Y-80025000D02*
X128975000Y-80025000D01*
G04 #@! TO.N,Net-(BT1-Pad1)*
X123850000Y-51880000D02*
X117350000Y-58380000D01*
X117350000Y-71813998D02*
X118600000Y-73063998D01*
X117350000Y-58380000D02*
X117350000Y-71813998D01*
X118600000Y-73063998D02*
X118600000Y-74100000D01*
X118600000Y-74100000D02*
X117400000Y-75300000D01*
X117400000Y-75300000D02*
X117400000Y-88550000D01*
D19*
X117400000Y-88550000D02*
X117400000Y-88554998D01*
X117334999Y-88619999D02*
X117334999Y-109884999D01*
X117400000Y-88554998D02*
X117334999Y-88619999D01*
X117334999Y-109884999D02*
X117700000Y-110250000D01*
X117700000Y-110250000D02*
X119750000Y-110250000D01*
X119750000Y-110250000D02*
X121150000Y-111650000D01*
X124880000Y-111650000D02*
X127000000Y-109530000D01*
X121150000Y-111650000D02*
X124880000Y-111650000D01*
D18*
G04 #@! TO.N,/GPIO4*
X126000000Y-102536002D02*
X135900000Y-92636002D01*
X126000000Y-102750000D02*
X126000000Y-102536002D01*
X135900000Y-92636002D02*
X135900000Y-78500000D01*
X135900000Y-78500000D02*
X134850000Y-77450000D01*
X134850000Y-77450000D02*
X134850000Y-77450000D01*
G04 #@! TO.N,Net-(L1-Pad1)*
X129100000Y-104450000D02*
X124550000Y-104450000D01*
X124550000Y-104450000D02*
X122700000Y-106300000D01*
X121318000Y-106300000D02*
X118960000Y-108658000D01*
X122700000Y-106300000D02*
X121318000Y-106300000D01*
D19*
G04 #@! TO.N,Net-(R6-Pad1)*
X126200000Y-106500000D02*
X129000000Y-106500000D01*
X129000000Y-106500000D02*
X131900000Y-103600000D01*
X131900000Y-103600000D02*
X135200000Y-103600000D01*
X135825001Y-102974999D02*
X135825001Y-102874999D01*
X135200000Y-103600000D02*
X135825001Y-102974999D01*
X135825001Y-102874999D02*
X136700000Y-102000000D01*
X136700000Y-102000000D02*
X136700000Y-75600000D01*
X136700000Y-75600000D02*
X136700000Y-55000000D01*
X136700000Y-55000000D02*
X134600000Y-52900000D01*
X134600000Y-52900000D02*
X134600000Y-50700000D01*
X134600000Y-50700000D02*
X133000000Y-49100000D01*
X133000000Y-49100000D02*
X133000000Y-49100000D01*
G04 #@! TD*
D20*
G04 #@! TO.N,/GND*
X136461901Y-112852600D02*
X120235000Y-112852600D01*
X120235000Y-111880512D01*
X120549100Y-112194612D01*
X120574472Y-112225528D01*
X120663093Y-112298257D01*
X120697810Y-112326749D01*
X120773024Y-112366951D01*
X120838527Y-112401963D01*
X120991212Y-112448280D01*
X121110209Y-112460000D01*
X121110212Y-112460000D01*
X121150000Y-112463919D01*
X121189788Y-112460000D01*
X124840212Y-112460000D01*
X124880000Y-112463919D01*
X124919788Y-112460000D01*
X124919791Y-112460000D01*
X125038788Y-112448280D01*
X125191473Y-112401963D01*
X125332189Y-112326749D01*
X125455528Y-112225528D01*
X125480899Y-112194613D01*
X126507440Y-111168072D01*
X128000000Y-111168072D01*
X128124482Y-111155812D01*
X128244180Y-111119502D01*
X128354494Y-111060537D01*
X128451185Y-110981185D01*
X128530537Y-110884494D01*
X128589502Y-110774180D01*
X128625812Y-110654482D01*
X128638072Y-110530000D01*
X128638072Y-109864999D01*
X131691928Y-109864999D01*
X131691928Y-111115001D01*
X131708992Y-111288255D01*
X131759528Y-111454851D01*
X131841595Y-111608387D01*
X131952038Y-111742962D01*
X132086613Y-111853405D01*
X132240149Y-111935472D01*
X132406745Y-111986008D01*
X132579999Y-112003072D01*
X133280001Y-112003072D01*
X133453255Y-111986008D01*
X133619851Y-111935472D01*
X133773387Y-111853405D01*
X133907962Y-111742962D01*
X134018405Y-111608387D01*
X134020967Y-111603594D01*
X134146526Y-111728078D01*
X134349467Y-111862421D01*
X134574718Y-111954591D01*
X134612391Y-111958462D01*
X134803000Y-111833731D01*
X134803000Y-110617000D01*
X135057000Y-110617000D01*
X135057000Y-111833731D01*
X135247609Y-111958462D01*
X135285282Y-111954591D01*
X135510533Y-111862421D01*
X135713474Y-111728078D01*
X135886307Y-111556725D01*
X136022390Y-111354946D01*
X136116493Y-111130496D01*
X136165000Y-110892000D01*
X136165000Y-110617000D01*
X135057000Y-110617000D01*
X134803000Y-110617000D01*
X134783000Y-110617000D01*
X134783000Y-110363000D01*
X134803000Y-110363000D01*
X134803000Y-109146269D01*
X135057000Y-109146269D01*
X135057000Y-110363000D01*
X136165000Y-110363000D01*
X136165000Y-110088000D01*
X136116493Y-109849504D01*
X136022390Y-109625054D01*
X135886307Y-109423275D01*
X135713474Y-109251922D01*
X135510533Y-109117579D01*
X135285282Y-109025409D01*
X135247609Y-109021538D01*
X135057000Y-109146269D01*
X134803000Y-109146269D01*
X134612391Y-109021538D01*
X134574718Y-109025409D01*
X134349467Y-109117579D01*
X134146526Y-109251922D01*
X134020967Y-109376406D01*
X134018405Y-109371613D01*
X133907962Y-109237038D01*
X133773387Y-109126595D01*
X133619851Y-109044528D01*
X133453255Y-108993992D01*
X133280001Y-108976928D01*
X132579999Y-108976928D01*
X132406745Y-108993992D01*
X132240149Y-109044528D01*
X132086613Y-109126595D01*
X131952038Y-109237038D01*
X131841595Y-109371613D01*
X131759528Y-109525149D01*
X131708992Y-109691745D01*
X131691928Y-109864999D01*
X128638072Y-109864999D01*
X128638072Y-108530000D01*
X128625812Y-108405518D01*
X128589502Y-108285820D01*
X128530537Y-108175506D01*
X128451185Y-108078815D01*
X128354494Y-107999463D01*
X128244180Y-107940498D01*
X128124482Y-107904188D01*
X128000000Y-107891928D01*
X126000000Y-107891928D01*
X125875518Y-107904188D01*
X125755820Y-107940498D01*
X125645506Y-107999463D01*
X125548815Y-108078815D01*
X125469463Y-108175506D01*
X125410498Y-108285820D01*
X125374188Y-108405518D01*
X125361928Y-108530000D01*
X125361928Y-110022560D01*
X124544488Y-110840000D01*
X121485512Y-110840000D01*
X120350900Y-109705388D01*
X120325528Y-109674472D01*
X120202189Y-109573251D01*
X120061473Y-109498037D01*
X119908788Y-109451720D01*
X119789791Y-109440000D01*
X119789788Y-109440000D01*
X119750000Y-109436081D01*
X119710212Y-109440000D01*
X119641711Y-109440000D01*
X119763937Y-109317774D01*
X119877205Y-109148256D01*
X119955226Y-108959898D01*
X119966535Y-108903043D01*
X121684579Y-107185000D01*
X122656531Y-107185000D01*
X122700000Y-107189281D01*
X122743469Y-107185000D01*
X122743477Y-107185000D01*
X122873490Y-107172195D01*
X123040313Y-107121589D01*
X123194059Y-107039411D01*
X123328817Y-106928817D01*
X123356534Y-106895044D01*
X124916579Y-105335000D01*
X129019488Y-105335000D01*
X128664488Y-105690000D01*
X126850700Y-105690000D01*
X126690256Y-105582795D01*
X126501898Y-105504774D01*
X126301939Y-105465000D01*
X126098061Y-105465000D01*
X125898102Y-105504774D01*
X125709744Y-105582795D01*
X125540226Y-105696063D01*
X125396063Y-105840226D01*
X125282795Y-106009744D01*
X125204774Y-106198102D01*
X125165000Y-106398061D01*
X125165000Y-106601939D01*
X125204774Y-106801898D01*
X125282795Y-106990256D01*
X125396063Y-107159774D01*
X125540226Y-107303937D01*
X125709744Y-107417205D01*
X125898102Y-107495226D01*
X126098061Y-107535000D01*
X126301939Y-107535000D01*
X126501898Y-107495226D01*
X126690256Y-107417205D01*
X126850700Y-107310000D01*
X128960212Y-107310000D01*
X129000000Y-107313919D01*
X129039788Y-107310000D01*
X129039791Y-107310000D01*
X129158788Y-107298280D01*
X129311473Y-107251963D01*
X129452189Y-107176749D01*
X129575528Y-107075528D01*
X129600900Y-107044612D01*
X130058063Y-106587449D01*
X131040000Y-106587449D01*
X131040000Y-106972551D01*
X131115130Y-107350252D01*
X131262502Y-107706040D01*
X131476453Y-108026240D01*
X131748760Y-108298547D01*
X132068960Y-108512498D01*
X132424748Y-108659870D01*
X132802449Y-108735000D01*
X133187551Y-108735000D01*
X133565252Y-108659870D01*
X133921040Y-108512498D01*
X134241240Y-108298547D01*
X134513547Y-108026240D01*
X134727498Y-107706040D01*
X134874870Y-107350252D01*
X134950000Y-106972551D01*
X134950000Y-106587449D01*
X134874870Y-106209748D01*
X134727498Y-105853960D01*
X134513547Y-105533760D01*
X134241240Y-105261453D01*
X133921040Y-105047502D01*
X133565252Y-104900130D01*
X133187551Y-104825000D01*
X132802449Y-104825000D01*
X132424748Y-104900130D01*
X132068960Y-105047502D01*
X131748760Y-105261453D01*
X131476453Y-105533760D01*
X131262502Y-105853960D01*
X131115130Y-106209748D01*
X131040000Y-106587449D01*
X130058063Y-106587449D01*
X132235513Y-104410000D01*
X135160212Y-104410000D01*
X135200000Y-104413919D01*
X135239788Y-104410000D01*
X135239791Y-104410000D01*
X135358788Y-104398280D01*
X135511473Y-104351963D01*
X135652189Y-104276749D01*
X135775528Y-104175528D01*
X135800899Y-104144613D01*
X136369620Y-103575893D01*
X136400529Y-103550527D01*
X136461781Y-103475891D01*
X136461901Y-103475745D01*
X136461901Y-112852600D01*
G04 #@! TA.AperFunction,Conductor*
D21*
G36*
X136461901Y-112852600D02*
G01*
X120235000Y-112852600D01*
X120235000Y-111880512D01*
X120549100Y-112194612D01*
X120574472Y-112225528D01*
X120663093Y-112298257D01*
X120697810Y-112326749D01*
X120773024Y-112366951D01*
X120838527Y-112401963D01*
X120991212Y-112448280D01*
X121110209Y-112460000D01*
X121110212Y-112460000D01*
X121150000Y-112463919D01*
X121189788Y-112460000D01*
X124840212Y-112460000D01*
X124880000Y-112463919D01*
X124919788Y-112460000D01*
X124919791Y-112460000D01*
X125038788Y-112448280D01*
X125191473Y-112401963D01*
X125332189Y-112326749D01*
X125455528Y-112225528D01*
X125480899Y-112194613D01*
X126507440Y-111168072D01*
X128000000Y-111168072D01*
X128124482Y-111155812D01*
X128244180Y-111119502D01*
X128354494Y-111060537D01*
X128451185Y-110981185D01*
X128530537Y-110884494D01*
X128589502Y-110774180D01*
X128625812Y-110654482D01*
X128638072Y-110530000D01*
X128638072Y-109864999D01*
X131691928Y-109864999D01*
X131691928Y-111115001D01*
X131708992Y-111288255D01*
X131759528Y-111454851D01*
X131841595Y-111608387D01*
X131952038Y-111742962D01*
X132086613Y-111853405D01*
X132240149Y-111935472D01*
X132406745Y-111986008D01*
X132579999Y-112003072D01*
X133280001Y-112003072D01*
X133453255Y-111986008D01*
X133619851Y-111935472D01*
X133773387Y-111853405D01*
X133907962Y-111742962D01*
X134018405Y-111608387D01*
X134020967Y-111603594D01*
X134146526Y-111728078D01*
X134349467Y-111862421D01*
X134574718Y-111954591D01*
X134612391Y-111958462D01*
X134803000Y-111833731D01*
X134803000Y-110617000D01*
X135057000Y-110617000D01*
X135057000Y-111833731D01*
X135247609Y-111958462D01*
X135285282Y-111954591D01*
X135510533Y-111862421D01*
X135713474Y-111728078D01*
X135886307Y-111556725D01*
X136022390Y-111354946D01*
X136116493Y-111130496D01*
X136165000Y-110892000D01*
X136165000Y-110617000D01*
X135057000Y-110617000D01*
X134803000Y-110617000D01*
X134783000Y-110617000D01*
X134783000Y-110363000D01*
X134803000Y-110363000D01*
X134803000Y-109146269D01*
X135057000Y-109146269D01*
X135057000Y-110363000D01*
X136165000Y-110363000D01*
X136165000Y-110088000D01*
X136116493Y-109849504D01*
X136022390Y-109625054D01*
X135886307Y-109423275D01*
X135713474Y-109251922D01*
X135510533Y-109117579D01*
X135285282Y-109025409D01*
X135247609Y-109021538D01*
X135057000Y-109146269D01*
X134803000Y-109146269D01*
X134612391Y-109021538D01*
X134574718Y-109025409D01*
X134349467Y-109117579D01*
X134146526Y-109251922D01*
X134020967Y-109376406D01*
X134018405Y-109371613D01*
X133907962Y-109237038D01*
X133773387Y-109126595D01*
X133619851Y-109044528D01*
X133453255Y-108993992D01*
X133280001Y-108976928D01*
X132579999Y-108976928D01*
X132406745Y-108993992D01*
X132240149Y-109044528D01*
X132086613Y-109126595D01*
X131952038Y-109237038D01*
X131841595Y-109371613D01*
X131759528Y-109525149D01*
X131708992Y-109691745D01*
X131691928Y-109864999D01*
X128638072Y-109864999D01*
X128638072Y-108530000D01*
X128625812Y-108405518D01*
X128589502Y-108285820D01*
X128530537Y-108175506D01*
X128451185Y-108078815D01*
X128354494Y-107999463D01*
X128244180Y-107940498D01*
X128124482Y-107904188D01*
X128000000Y-107891928D01*
X126000000Y-107891928D01*
X125875518Y-107904188D01*
X125755820Y-107940498D01*
X125645506Y-107999463D01*
X125548815Y-108078815D01*
X125469463Y-108175506D01*
X125410498Y-108285820D01*
X125374188Y-108405518D01*
X125361928Y-108530000D01*
X125361928Y-110022560D01*
X124544488Y-110840000D01*
X121485512Y-110840000D01*
X120350900Y-109705388D01*
X120325528Y-109674472D01*
X120202189Y-109573251D01*
X120061473Y-109498037D01*
X119908788Y-109451720D01*
X119789791Y-109440000D01*
X119789788Y-109440000D01*
X119750000Y-109436081D01*
X119710212Y-109440000D01*
X119641711Y-109440000D01*
X119763937Y-109317774D01*
X119877205Y-109148256D01*
X119955226Y-108959898D01*
X119966535Y-108903043D01*
X121684579Y-107185000D01*
X122656531Y-107185000D01*
X122700000Y-107189281D01*
X122743469Y-107185000D01*
X122743477Y-107185000D01*
X122873490Y-107172195D01*
X123040313Y-107121589D01*
X123194059Y-107039411D01*
X123328817Y-106928817D01*
X123356534Y-106895044D01*
X124916579Y-105335000D01*
X129019488Y-105335000D01*
X128664488Y-105690000D01*
X126850700Y-105690000D01*
X126690256Y-105582795D01*
X126501898Y-105504774D01*
X126301939Y-105465000D01*
X126098061Y-105465000D01*
X125898102Y-105504774D01*
X125709744Y-105582795D01*
X125540226Y-105696063D01*
X125396063Y-105840226D01*
X125282795Y-106009744D01*
X125204774Y-106198102D01*
X125165000Y-106398061D01*
X125165000Y-106601939D01*
X125204774Y-106801898D01*
X125282795Y-106990256D01*
X125396063Y-107159774D01*
X125540226Y-107303937D01*
X125709744Y-107417205D01*
X125898102Y-107495226D01*
X126098061Y-107535000D01*
X126301939Y-107535000D01*
X126501898Y-107495226D01*
X126690256Y-107417205D01*
X126850700Y-107310000D01*
X128960212Y-107310000D01*
X129000000Y-107313919D01*
X129039788Y-107310000D01*
X129039791Y-107310000D01*
X129158788Y-107298280D01*
X129311473Y-107251963D01*
X129452189Y-107176749D01*
X129575528Y-107075528D01*
X129600900Y-107044612D01*
X130058063Y-106587449D01*
X131040000Y-106587449D01*
X131040000Y-106972551D01*
X131115130Y-107350252D01*
X131262502Y-107706040D01*
X131476453Y-108026240D01*
X131748760Y-108298547D01*
X132068960Y-108512498D01*
X132424748Y-108659870D01*
X132802449Y-108735000D01*
X133187551Y-108735000D01*
X133565252Y-108659870D01*
X133921040Y-108512498D01*
X134241240Y-108298547D01*
X134513547Y-108026240D01*
X134727498Y-107706040D01*
X134874870Y-107350252D01*
X134950000Y-106972551D01*
X134950000Y-106587449D01*
X134874870Y-106209748D01*
X134727498Y-105853960D01*
X134513547Y-105533760D01*
X134241240Y-105261453D01*
X133921040Y-105047502D01*
X133565252Y-104900130D01*
X133187551Y-104825000D01*
X132802449Y-104825000D01*
X132424748Y-104900130D01*
X132068960Y-105047502D01*
X131748760Y-105261453D01*
X131476453Y-105533760D01*
X131262502Y-105853960D01*
X131115130Y-106209748D01*
X131040000Y-106587449D01*
X130058063Y-106587449D01*
X132235513Y-104410000D01*
X135160212Y-104410000D01*
X135200000Y-104413919D01*
X135239788Y-104410000D01*
X135239791Y-104410000D01*
X135358788Y-104398280D01*
X135511473Y-104351963D01*
X135652189Y-104276749D01*
X135775528Y-104175528D01*
X135800899Y-104144613D01*
X136369620Y-103575893D01*
X136400529Y-103550527D01*
X136461781Y-103475891D01*
X136461901Y-103475745D01*
X136461901Y-112852600D01*
G37*
G04 #@! TD.AperFunction*
D20*
X135890000Y-70347652D02*
X135890000Y-75639790D01*
X135890001Y-75639800D01*
X135890001Y-77238423D01*
X135537426Y-76885848D01*
X135537424Y-76885845D01*
X135506530Y-76854951D01*
X135478817Y-76821183D01*
X135445049Y-76793470D01*
X135414155Y-76762576D01*
X135377829Y-76738304D01*
X135344059Y-76710589D01*
X135305533Y-76689996D01*
X135269205Y-76665723D01*
X135228835Y-76649001D01*
X135190313Y-76628411D01*
X135148513Y-76615731D01*
X135108145Y-76599010D01*
X135065295Y-76590487D01*
X135023490Y-76577805D01*
X134980013Y-76573523D01*
X134937165Y-76565000D01*
X134893469Y-76565000D01*
X134850000Y-76560719D01*
X134806531Y-76565000D01*
X134762835Y-76565000D01*
X134719987Y-76573523D01*
X134676510Y-76577805D01*
X134634705Y-76590487D01*
X134591855Y-76599010D01*
X134551487Y-76615731D01*
X134509687Y-76628411D01*
X134471165Y-76649001D01*
X134430795Y-76665723D01*
X134394467Y-76689996D01*
X134355941Y-76710589D01*
X134322171Y-76738304D01*
X134285845Y-76762576D01*
X134254951Y-76793470D01*
X134221183Y-76821183D01*
X134193470Y-76854951D01*
X134162576Y-76885845D01*
X134138304Y-76922171D01*
X134110589Y-76955941D01*
X134089996Y-76994467D01*
X134065723Y-77030795D01*
X134049001Y-77071165D01*
X134028411Y-77109687D01*
X134015731Y-77151487D01*
X133999010Y-77191855D01*
X133990487Y-77234705D01*
X133977805Y-77276510D01*
X133973523Y-77319987D01*
X133965000Y-77362835D01*
X133965000Y-77406523D01*
X133960718Y-77450000D01*
X133965000Y-77493477D01*
X133965000Y-77537165D01*
X133973523Y-77580013D01*
X133977805Y-77623490D01*
X133990487Y-77665295D01*
X133999010Y-77708145D01*
X134015731Y-77748513D01*
X134028411Y-77790313D01*
X134049001Y-77828835D01*
X134065723Y-77869205D01*
X134089996Y-77905533D01*
X134110589Y-77944059D01*
X134138304Y-77977829D01*
X134162576Y-78014155D01*
X134193470Y-78045049D01*
X134221183Y-78078817D01*
X134254951Y-78106530D01*
X134285845Y-78137424D01*
X134285848Y-78137426D01*
X135015001Y-78866580D01*
X135015000Y-92269423D01*
X125404955Y-101879469D01*
X125371183Y-101907185D01*
X125260589Y-102041943D01*
X125178411Y-102195689D01*
X125127805Y-102362512D01*
X125115000Y-102492525D01*
X125115000Y-102492533D01*
X125110719Y-102536002D01*
X125115000Y-102579471D01*
X125115000Y-102837165D01*
X125123523Y-102880014D01*
X125127805Y-102923489D01*
X125140486Y-102965292D01*
X125149010Y-103008145D01*
X125165732Y-103048516D01*
X125178411Y-103090312D01*
X125199000Y-103128831D01*
X125215723Y-103169205D01*
X125239999Y-103205537D01*
X125260589Y-103244058D01*
X125288301Y-103277825D01*
X125312576Y-103314155D01*
X125343472Y-103345051D01*
X125371183Y-103378817D01*
X125404951Y-103406530D01*
X125435845Y-103437424D01*
X125472171Y-103461696D01*
X125505941Y-103489411D01*
X125544467Y-103510004D01*
X125580795Y-103534277D01*
X125621165Y-103550999D01*
X125647360Y-103565000D01*
X124593465Y-103565000D01*
X124549999Y-103560719D01*
X124506533Y-103565000D01*
X124506523Y-103565000D01*
X124376510Y-103577805D01*
X124209687Y-103628411D01*
X124055941Y-103710589D01*
X124055939Y-103710590D01*
X124055940Y-103710590D01*
X123954953Y-103793468D01*
X123954951Y-103793470D01*
X123921183Y-103821183D01*
X123893470Y-103854951D01*
X122333422Y-105415000D01*
X121361469Y-105415000D01*
X121318000Y-105410719D01*
X121274531Y-105415000D01*
X121274523Y-105415000D01*
X121144510Y-105427805D01*
X120977686Y-105478411D01*
X120823941Y-105560589D01*
X120722953Y-105643468D01*
X120722951Y-105643470D01*
X120689183Y-105671183D01*
X120661470Y-105704951D01*
X118714957Y-107651465D01*
X118658102Y-107662774D01*
X118469744Y-107740795D01*
X118300226Y-107854063D01*
X118156063Y-107998226D01*
X118144999Y-108014784D01*
X118144999Y-103901544D01*
X118413740Y-103955000D01*
X118706260Y-103955000D01*
X118993158Y-103897932D01*
X119263411Y-103785990D01*
X119506632Y-103623475D01*
X119713475Y-103416632D01*
X119875990Y-103173411D01*
X119987932Y-102903158D01*
X120045000Y-102616260D01*
X120045000Y-102323740D01*
X119987932Y-102036842D01*
X119875990Y-101766589D01*
X119713475Y-101523368D01*
X119506632Y-101316525D01*
X119324466Y-101194805D01*
X119441355Y-101125178D01*
X119657588Y-100930269D01*
X119831641Y-100696920D01*
X119956825Y-100434099D01*
X120001476Y-100286890D01*
X119880155Y-100057000D01*
X118687000Y-100057000D01*
X118687000Y-100077000D01*
X118433000Y-100077000D01*
X118433000Y-100057000D01*
X118413000Y-100057000D01*
X118413000Y-99803000D01*
X118433000Y-99803000D01*
X118433000Y-99783000D01*
X118687000Y-99783000D01*
X118687000Y-99803000D01*
X119880155Y-99803000D01*
X120001476Y-99573110D01*
X119956825Y-99425901D01*
X119831641Y-99163080D01*
X119657588Y-98929731D01*
X119441355Y-98734822D01*
X119324466Y-98665195D01*
X119506632Y-98543475D01*
X119713475Y-98336632D01*
X119754656Y-98275000D01*
X120582633Y-98275000D01*
X120626102Y-98279281D01*
X120669571Y-98275000D01*
X120669579Y-98275000D01*
X120799592Y-98262195D01*
X120966415Y-98211589D01*
X121120161Y-98129411D01*
X121254919Y-98018817D01*
X121282636Y-97985044D01*
X128420050Y-90847631D01*
X128453816Y-90819920D01*
X128564410Y-90685162D01*
X128646588Y-90531416D01*
X128697194Y-90364593D01*
X128709999Y-90234580D01*
X128709999Y-90234572D01*
X128714280Y-90191103D01*
X128709999Y-90147634D01*
X128709999Y-88355577D01*
X130845050Y-86220527D01*
X130878817Y-86192815D01*
X130926859Y-86134277D01*
X130989410Y-86058058D01*
X130989411Y-86058057D01*
X131071589Y-85904311D01*
X131122195Y-85737488D01*
X131135000Y-85607475D01*
X131135000Y-85607465D01*
X131139281Y-85563999D01*
X131135000Y-85520533D01*
X131135000Y-78516578D01*
X135556532Y-74095047D01*
X135587424Y-74064155D01*
X135611696Y-74027830D01*
X135639410Y-73994060D01*
X135660001Y-73955536D01*
X135684277Y-73919205D01*
X135701000Y-73878832D01*
X135721588Y-73840314D01*
X135734267Y-73798519D01*
X135750990Y-73758145D01*
X135759515Y-73715288D01*
X135772194Y-73673491D01*
X135776475Y-73630022D01*
X135785000Y-73587165D01*
X135785000Y-73543467D01*
X135789281Y-73500001D01*
X135785000Y-73456534D01*
X135785000Y-73412835D01*
X135776475Y-73369977D01*
X135772194Y-73326510D01*
X135759515Y-73284715D01*
X135750990Y-73241855D01*
X135734265Y-73201478D01*
X135721588Y-73159687D01*
X135701002Y-73121174D01*
X135684277Y-73080795D01*
X135659997Y-73044457D01*
X135639410Y-73005942D01*
X135611702Y-72972180D01*
X135587424Y-72935845D01*
X135556527Y-72904948D01*
X135528817Y-72871183D01*
X135495052Y-72843473D01*
X135464155Y-72812576D01*
X135427820Y-72788298D01*
X135394058Y-72760590D01*
X135355543Y-72740003D01*
X135319205Y-72715723D01*
X135278826Y-72698998D01*
X135240313Y-72678412D01*
X135198522Y-72665735D01*
X135158145Y-72649010D01*
X135115285Y-72640485D01*
X135073490Y-72627806D01*
X135030023Y-72623525D01*
X134987165Y-72615000D01*
X134986579Y-72615000D01*
X135587424Y-72014155D01*
X135611696Y-71977830D01*
X135639410Y-71944060D01*
X135660001Y-71905536D01*
X135684277Y-71869205D01*
X135701000Y-71828832D01*
X135721588Y-71790314D01*
X135734267Y-71748517D01*
X135750990Y-71708145D01*
X135759513Y-71665296D01*
X135772195Y-71623491D01*
X135776477Y-71580014D01*
X135785000Y-71537165D01*
X135785000Y-71493469D01*
X135789281Y-71450000D01*
X135785000Y-71406531D01*
X135785000Y-71362835D01*
X135776477Y-71319985D01*
X135772195Y-71276510D01*
X135759514Y-71234707D01*
X135750990Y-71191855D01*
X135734266Y-71151480D01*
X135721588Y-71109687D01*
X135701002Y-71071173D01*
X135684277Y-71030795D01*
X135659999Y-70994460D01*
X135639410Y-70955941D01*
X135611699Y-70922176D01*
X135587424Y-70885845D01*
X135556528Y-70854949D01*
X135528817Y-70821183D01*
X135495051Y-70793472D01*
X135464155Y-70762576D01*
X135427824Y-70738301D01*
X135394059Y-70710590D01*
X135355540Y-70690001D01*
X135319205Y-70665723D01*
X135278827Y-70648998D01*
X135240313Y-70628412D01*
X135198520Y-70615734D01*
X135158145Y-70599010D01*
X135115293Y-70590486D01*
X135073490Y-70577805D01*
X135030015Y-70573523D01*
X134987165Y-70565000D01*
X134943469Y-70565000D01*
X134900000Y-70560719D01*
X134856531Y-70565000D01*
X134812835Y-70565000D01*
X134769986Y-70573523D01*
X134726509Y-70577805D01*
X134684704Y-70590487D01*
X134641855Y-70599010D01*
X134601483Y-70615733D01*
X134559686Y-70628412D01*
X134521168Y-70649000D01*
X134480795Y-70665723D01*
X134444464Y-70689999D01*
X134405940Y-70710590D01*
X134372170Y-70738304D01*
X134335845Y-70762576D01*
X134304953Y-70793468D01*
X125354941Y-79743481D01*
X125321173Y-79771194D01*
X125293460Y-79804962D01*
X125293457Y-79804965D01*
X125210579Y-79905952D01*
X125128401Y-80059698D01*
X125077794Y-80226521D01*
X125060708Y-80400011D01*
X125064990Y-80443490D01*
X125064989Y-87093432D01*
X120036652Y-92121770D01*
X120030539Y-92091039D01*
X122495050Y-89626529D01*
X122528817Y-89598817D01*
X122558798Y-89562286D01*
X122639410Y-89464060D01*
X122639411Y-89464059D01*
X122721589Y-89310313D01*
X122772195Y-89143490D01*
X122785000Y-89013477D01*
X122785000Y-89013467D01*
X122789281Y-88970001D01*
X122785000Y-88926535D01*
X122785000Y-73443465D01*
X122789281Y-73399999D01*
X122785000Y-73356533D01*
X122785000Y-73356523D01*
X122772195Y-73226510D01*
X122721589Y-73059687D01*
X122639411Y-72905941D01*
X122528817Y-72771183D01*
X122495049Y-72743470D01*
X120587426Y-70835848D01*
X120587424Y-70835845D01*
X120556530Y-70804951D01*
X120528817Y-70771183D01*
X120495049Y-70743470D01*
X120464155Y-70712576D01*
X120427829Y-70688304D01*
X120394059Y-70660589D01*
X120355533Y-70639996D01*
X120319205Y-70615723D01*
X120278835Y-70599001D01*
X120240313Y-70578411D01*
X120198513Y-70565731D01*
X120158145Y-70549010D01*
X120115295Y-70540487D01*
X120073490Y-70527805D01*
X120030013Y-70523523D01*
X119987165Y-70515000D01*
X119943469Y-70515000D01*
X119900000Y-70510719D01*
X119856531Y-70515000D01*
X119812835Y-70515000D01*
X119769987Y-70523523D01*
X119726510Y-70527805D01*
X119684705Y-70540487D01*
X119641855Y-70549010D01*
X119601487Y-70565731D01*
X119559687Y-70578411D01*
X119521165Y-70599001D01*
X119480795Y-70615723D01*
X119444467Y-70639996D01*
X119405941Y-70660589D01*
X119372171Y-70688304D01*
X119335845Y-70712576D01*
X119304951Y-70743470D01*
X119271183Y-70771183D01*
X119243470Y-70804951D01*
X119212576Y-70835845D01*
X119188304Y-70872171D01*
X119160589Y-70905941D01*
X119139996Y-70944467D01*
X119115723Y-70980795D01*
X119099001Y-71021165D01*
X119078411Y-71059687D01*
X119065731Y-71101487D01*
X119049010Y-71141855D01*
X119040487Y-71184705D01*
X119027805Y-71226510D01*
X119023523Y-71269987D01*
X119015000Y-71312835D01*
X119015000Y-71356523D01*
X119010718Y-71400000D01*
X119015000Y-71443477D01*
X119015000Y-71487165D01*
X119023523Y-71530013D01*
X119027805Y-71573490D01*
X119040487Y-71615295D01*
X119049010Y-71658145D01*
X119065731Y-71698513D01*
X119078411Y-71740313D01*
X119099001Y-71778835D01*
X119115723Y-71819205D01*
X119139996Y-71855533D01*
X119160589Y-71894059D01*
X119188304Y-71927829D01*
X119212576Y-71964155D01*
X119243470Y-71995049D01*
X119271183Y-72028817D01*
X119304951Y-72056530D01*
X119335845Y-72087424D01*
X119335848Y-72087426D01*
X121015001Y-73766580D01*
X121015000Y-84713421D01*
X120964155Y-84662576D01*
X120819205Y-84565723D01*
X120658145Y-84499010D01*
X120487165Y-84465000D01*
X120312835Y-84465000D01*
X120141855Y-84499010D01*
X119980795Y-84565723D01*
X119835845Y-84662576D01*
X119712576Y-84785845D01*
X119615723Y-84930795D01*
X119575000Y-85029109D01*
X119534277Y-84930795D01*
X119437424Y-84785845D01*
X119314155Y-84662576D01*
X119169205Y-84565723D01*
X119008145Y-84499010D01*
X118837165Y-84465000D01*
X118662835Y-84465000D01*
X118491855Y-84499010D01*
X118330795Y-84565723D01*
X118285000Y-84596322D01*
X118285000Y-75666578D01*
X119195049Y-74756530D01*
X119228817Y-74728817D01*
X119276117Y-74671183D01*
X119339410Y-74594060D01*
X119339411Y-74594059D01*
X119421589Y-74440313D01*
X119472195Y-74273490D01*
X119485000Y-74143477D01*
X119485000Y-74143467D01*
X119489281Y-74100001D01*
X119485000Y-74056532D01*
X119485000Y-73107467D01*
X119489281Y-73063998D01*
X119485000Y-73020529D01*
X119485000Y-73020521D01*
X119472195Y-72890508D01*
X119421589Y-72723685D01*
X119339411Y-72569939D01*
X119228817Y-72435181D01*
X119195050Y-72407469D01*
X118235000Y-71447420D01*
X118235000Y-70306926D01*
X135890000Y-70347652D01*
G04 #@! TA.AperFunction,Conductor*
D21*
G36*
X135890000Y-70347652D02*
G01*
X135890000Y-75639790D01*
X135890001Y-75639800D01*
X135890001Y-77238423D01*
X135537426Y-76885848D01*
X135537424Y-76885845D01*
X135506530Y-76854951D01*
X135478817Y-76821183D01*
X135445049Y-76793470D01*
X135414155Y-76762576D01*
X135377829Y-76738304D01*
X135344059Y-76710589D01*
X135305533Y-76689996D01*
X135269205Y-76665723D01*
X135228835Y-76649001D01*
X135190313Y-76628411D01*
X135148513Y-76615731D01*
X135108145Y-76599010D01*
X135065295Y-76590487D01*
X135023490Y-76577805D01*
X134980013Y-76573523D01*
X134937165Y-76565000D01*
X134893469Y-76565000D01*
X134850000Y-76560719D01*
X134806531Y-76565000D01*
X134762835Y-76565000D01*
X134719987Y-76573523D01*
X134676510Y-76577805D01*
X134634705Y-76590487D01*
X134591855Y-76599010D01*
X134551487Y-76615731D01*
X134509687Y-76628411D01*
X134471165Y-76649001D01*
X134430795Y-76665723D01*
X134394467Y-76689996D01*
X134355941Y-76710589D01*
X134322171Y-76738304D01*
X134285845Y-76762576D01*
X134254951Y-76793470D01*
X134221183Y-76821183D01*
X134193470Y-76854951D01*
X134162576Y-76885845D01*
X134138304Y-76922171D01*
X134110589Y-76955941D01*
X134089996Y-76994467D01*
X134065723Y-77030795D01*
X134049001Y-77071165D01*
X134028411Y-77109687D01*
X134015731Y-77151487D01*
X133999010Y-77191855D01*
X133990487Y-77234705D01*
X133977805Y-77276510D01*
X133973523Y-77319987D01*
X133965000Y-77362835D01*
X133965000Y-77406523D01*
X133960718Y-77450000D01*
X133965000Y-77493477D01*
X133965000Y-77537165D01*
X133973523Y-77580013D01*
X133977805Y-77623490D01*
X133990487Y-77665295D01*
X133999010Y-77708145D01*
X134015731Y-77748513D01*
X134028411Y-77790313D01*
X134049001Y-77828835D01*
X134065723Y-77869205D01*
X134089996Y-77905533D01*
X134110589Y-77944059D01*
X134138304Y-77977829D01*
X134162576Y-78014155D01*
X134193470Y-78045049D01*
X134221183Y-78078817D01*
X134254951Y-78106530D01*
X134285845Y-78137424D01*
X134285848Y-78137426D01*
X135015001Y-78866580D01*
X135015000Y-92269423D01*
X125404955Y-101879469D01*
X125371183Y-101907185D01*
X125260589Y-102041943D01*
X125178411Y-102195689D01*
X125127805Y-102362512D01*
X125115000Y-102492525D01*
X125115000Y-102492533D01*
X125110719Y-102536002D01*
X125115000Y-102579471D01*
X125115000Y-102837165D01*
X125123523Y-102880014D01*
X125127805Y-102923489D01*
X125140486Y-102965292D01*
X125149010Y-103008145D01*
X125165732Y-103048516D01*
X125178411Y-103090312D01*
X125199000Y-103128831D01*
X125215723Y-103169205D01*
X125239999Y-103205537D01*
X125260589Y-103244058D01*
X125288301Y-103277825D01*
X125312576Y-103314155D01*
X125343472Y-103345051D01*
X125371183Y-103378817D01*
X125404951Y-103406530D01*
X125435845Y-103437424D01*
X125472171Y-103461696D01*
X125505941Y-103489411D01*
X125544467Y-103510004D01*
X125580795Y-103534277D01*
X125621165Y-103550999D01*
X125647360Y-103565000D01*
X124593465Y-103565000D01*
X124549999Y-103560719D01*
X124506533Y-103565000D01*
X124506523Y-103565000D01*
X124376510Y-103577805D01*
X124209687Y-103628411D01*
X124055941Y-103710589D01*
X124055939Y-103710590D01*
X124055940Y-103710590D01*
X123954953Y-103793468D01*
X123954951Y-103793470D01*
X123921183Y-103821183D01*
X123893470Y-103854951D01*
X122333422Y-105415000D01*
X121361469Y-105415000D01*
X121318000Y-105410719D01*
X121274531Y-105415000D01*
X121274523Y-105415000D01*
X121144510Y-105427805D01*
X120977686Y-105478411D01*
X120823941Y-105560589D01*
X120722953Y-105643468D01*
X120722951Y-105643470D01*
X120689183Y-105671183D01*
X120661470Y-105704951D01*
X118714957Y-107651465D01*
X118658102Y-107662774D01*
X118469744Y-107740795D01*
X118300226Y-107854063D01*
X118156063Y-107998226D01*
X118144999Y-108014784D01*
X118144999Y-103901544D01*
X118413740Y-103955000D01*
X118706260Y-103955000D01*
X118993158Y-103897932D01*
X119263411Y-103785990D01*
X119506632Y-103623475D01*
X119713475Y-103416632D01*
X119875990Y-103173411D01*
X119987932Y-102903158D01*
X120045000Y-102616260D01*
X120045000Y-102323740D01*
X119987932Y-102036842D01*
X119875990Y-101766589D01*
X119713475Y-101523368D01*
X119506632Y-101316525D01*
X119324466Y-101194805D01*
X119441355Y-101125178D01*
X119657588Y-100930269D01*
X119831641Y-100696920D01*
X119956825Y-100434099D01*
X120001476Y-100286890D01*
X119880155Y-100057000D01*
X118687000Y-100057000D01*
X118687000Y-100077000D01*
X118433000Y-100077000D01*
X118433000Y-100057000D01*
X118413000Y-100057000D01*
X118413000Y-99803000D01*
X118433000Y-99803000D01*
X118433000Y-99783000D01*
X118687000Y-99783000D01*
X118687000Y-99803000D01*
X119880155Y-99803000D01*
X120001476Y-99573110D01*
X119956825Y-99425901D01*
X119831641Y-99163080D01*
X119657588Y-98929731D01*
X119441355Y-98734822D01*
X119324466Y-98665195D01*
X119506632Y-98543475D01*
X119713475Y-98336632D01*
X119754656Y-98275000D01*
X120582633Y-98275000D01*
X120626102Y-98279281D01*
X120669571Y-98275000D01*
X120669579Y-98275000D01*
X120799592Y-98262195D01*
X120966415Y-98211589D01*
X121120161Y-98129411D01*
X121254919Y-98018817D01*
X121282636Y-97985044D01*
X128420050Y-90847631D01*
X128453816Y-90819920D01*
X128564410Y-90685162D01*
X128646588Y-90531416D01*
X128697194Y-90364593D01*
X128709999Y-90234580D01*
X128709999Y-90234572D01*
X128714280Y-90191103D01*
X128709999Y-90147634D01*
X128709999Y-88355577D01*
X130845050Y-86220527D01*
X130878817Y-86192815D01*
X130926859Y-86134277D01*
X130989410Y-86058058D01*
X130989411Y-86058057D01*
X131071589Y-85904311D01*
X131122195Y-85737488D01*
X131135000Y-85607475D01*
X131135000Y-85607465D01*
X131139281Y-85563999D01*
X131135000Y-85520533D01*
X131135000Y-78516578D01*
X135556532Y-74095047D01*
X135587424Y-74064155D01*
X135611696Y-74027830D01*
X135639410Y-73994060D01*
X135660001Y-73955536D01*
X135684277Y-73919205D01*
X135701000Y-73878832D01*
X135721588Y-73840314D01*
X135734267Y-73798519D01*
X135750990Y-73758145D01*
X135759515Y-73715288D01*
X135772194Y-73673491D01*
X135776475Y-73630022D01*
X135785000Y-73587165D01*
X135785000Y-73543467D01*
X135789281Y-73500001D01*
X135785000Y-73456534D01*
X135785000Y-73412835D01*
X135776475Y-73369977D01*
X135772194Y-73326510D01*
X135759515Y-73284715D01*
X135750990Y-73241855D01*
X135734265Y-73201478D01*
X135721588Y-73159687D01*
X135701002Y-73121174D01*
X135684277Y-73080795D01*
X135659997Y-73044457D01*
X135639410Y-73005942D01*
X135611702Y-72972180D01*
X135587424Y-72935845D01*
X135556527Y-72904948D01*
X135528817Y-72871183D01*
X135495052Y-72843473D01*
X135464155Y-72812576D01*
X135427820Y-72788298D01*
X135394058Y-72760590D01*
X135355543Y-72740003D01*
X135319205Y-72715723D01*
X135278826Y-72698998D01*
X135240313Y-72678412D01*
X135198522Y-72665735D01*
X135158145Y-72649010D01*
X135115285Y-72640485D01*
X135073490Y-72627806D01*
X135030023Y-72623525D01*
X134987165Y-72615000D01*
X134986579Y-72615000D01*
X135587424Y-72014155D01*
X135611696Y-71977830D01*
X135639410Y-71944060D01*
X135660001Y-71905536D01*
X135684277Y-71869205D01*
X135701000Y-71828832D01*
X135721588Y-71790314D01*
X135734267Y-71748517D01*
X135750990Y-71708145D01*
X135759513Y-71665296D01*
X135772195Y-71623491D01*
X135776477Y-71580014D01*
X135785000Y-71537165D01*
X135785000Y-71493469D01*
X135789281Y-71450000D01*
X135785000Y-71406531D01*
X135785000Y-71362835D01*
X135776477Y-71319985D01*
X135772195Y-71276510D01*
X135759514Y-71234707D01*
X135750990Y-71191855D01*
X135734266Y-71151480D01*
X135721588Y-71109687D01*
X135701002Y-71071173D01*
X135684277Y-71030795D01*
X135659999Y-70994460D01*
X135639410Y-70955941D01*
X135611699Y-70922176D01*
X135587424Y-70885845D01*
X135556528Y-70854949D01*
X135528817Y-70821183D01*
X135495051Y-70793472D01*
X135464155Y-70762576D01*
X135427824Y-70738301D01*
X135394059Y-70710590D01*
X135355540Y-70690001D01*
X135319205Y-70665723D01*
X135278827Y-70648998D01*
X135240313Y-70628412D01*
X135198520Y-70615734D01*
X135158145Y-70599010D01*
X135115293Y-70590486D01*
X135073490Y-70577805D01*
X135030015Y-70573523D01*
X134987165Y-70565000D01*
X134943469Y-70565000D01*
X134900000Y-70560719D01*
X134856531Y-70565000D01*
X134812835Y-70565000D01*
X134769986Y-70573523D01*
X134726509Y-70577805D01*
X134684704Y-70590487D01*
X134641855Y-70599010D01*
X134601483Y-70615733D01*
X134559686Y-70628412D01*
X134521168Y-70649000D01*
X134480795Y-70665723D01*
X134444464Y-70689999D01*
X134405940Y-70710590D01*
X134372170Y-70738304D01*
X134335845Y-70762576D01*
X134304953Y-70793468D01*
X125354941Y-79743481D01*
X125321173Y-79771194D01*
X125293460Y-79804962D01*
X125293457Y-79804965D01*
X125210579Y-79905952D01*
X125128401Y-80059698D01*
X125077794Y-80226521D01*
X125060708Y-80400011D01*
X125064990Y-80443490D01*
X125064989Y-87093432D01*
X120036652Y-92121770D01*
X120030539Y-92091039D01*
X122495050Y-89626529D01*
X122528817Y-89598817D01*
X122558798Y-89562286D01*
X122639410Y-89464060D01*
X122639411Y-89464059D01*
X122721589Y-89310313D01*
X122772195Y-89143490D01*
X122785000Y-89013477D01*
X122785000Y-89013467D01*
X122789281Y-88970001D01*
X122785000Y-88926535D01*
X122785000Y-73443465D01*
X122789281Y-73399999D01*
X122785000Y-73356533D01*
X122785000Y-73356523D01*
X122772195Y-73226510D01*
X122721589Y-73059687D01*
X122639411Y-72905941D01*
X122528817Y-72771183D01*
X122495049Y-72743470D01*
X120587426Y-70835848D01*
X120587424Y-70835845D01*
X120556530Y-70804951D01*
X120528817Y-70771183D01*
X120495049Y-70743470D01*
X120464155Y-70712576D01*
X120427829Y-70688304D01*
X120394059Y-70660589D01*
X120355533Y-70639996D01*
X120319205Y-70615723D01*
X120278835Y-70599001D01*
X120240313Y-70578411D01*
X120198513Y-70565731D01*
X120158145Y-70549010D01*
X120115295Y-70540487D01*
X120073490Y-70527805D01*
X120030013Y-70523523D01*
X119987165Y-70515000D01*
X119943469Y-70515000D01*
X119900000Y-70510719D01*
X119856531Y-70515000D01*
X119812835Y-70515000D01*
X119769987Y-70523523D01*
X119726510Y-70527805D01*
X119684705Y-70540487D01*
X119641855Y-70549010D01*
X119601487Y-70565731D01*
X119559687Y-70578411D01*
X119521165Y-70599001D01*
X119480795Y-70615723D01*
X119444467Y-70639996D01*
X119405941Y-70660589D01*
X119372171Y-70688304D01*
X119335845Y-70712576D01*
X119304951Y-70743470D01*
X119271183Y-70771183D01*
X119243470Y-70804951D01*
X119212576Y-70835845D01*
X119188304Y-70872171D01*
X119160589Y-70905941D01*
X119139996Y-70944467D01*
X119115723Y-70980795D01*
X119099001Y-71021165D01*
X119078411Y-71059687D01*
X119065731Y-71101487D01*
X119049010Y-71141855D01*
X119040487Y-71184705D01*
X119027805Y-71226510D01*
X119023523Y-71269987D01*
X119015000Y-71312835D01*
X119015000Y-71356523D01*
X119010718Y-71400000D01*
X119015000Y-71443477D01*
X119015000Y-71487165D01*
X119023523Y-71530013D01*
X119027805Y-71573490D01*
X119040487Y-71615295D01*
X119049010Y-71658145D01*
X119065731Y-71698513D01*
X119078411Y-71740313D01*
X119099001Y-71778835D01*
X119115723Y-71819205D01*
X119139996Y-71855533D01*
X119160589Y-71894059D01*
X119188304Y-71927829D01*
X119212576Y-71964155D01*
X119243470Y-71995049D01*
X119271183Y-72028817D01*
X119304951Y-72056530D01*
X119335845Y-72087424D01*
X119335848Y-72087426D01*
X121015001Y-73766580D01*
X121015000Y-84713421D01*
X120964155Y-84662576D01*
X120819205Y-84565723D01*
X120658145Y-84499010D01*
X120487165Y-84465000D01*
X120312835Y-84465000D01*
X120141855Y-84499010D01*
X119980795Y-84565723D01*
X119835845Y-84662576D01*
X119712576Y-84785845D01*
X119615723Y-84930795D01*
X119575000Y-85029109D01*
X119534277Y-84930795D01*
X119437424Y-84785845D01*
X119314155Y-84662576D01*
X119169205Y-84565723D01*
X119008145Y-84499010D01*
X118837165Y-84465000D01*
X118662835Y-84465000D01*
X118491855Y-84499010D01*
X118330795Y-84565723D01*
X118285000Y-84596322D01*
X118285000Y-75666578D01*
X119195049Y-74756530D01*
X119228817Y-74728817D01*
X119276117Y-74671183D01*
X119339410Y-74594060D01*
X119339411Y-74594059D01*
X119421589Y-74440313D01*
X119472195Y-74273490D01*
X119485000Y-74143477D01*
X119485000Y-74143467D01*
X119489281Y-74100001D01*
X119485000Y-74056532D01*
X119485000Y-73107467D01*
X119489281Y-73063998D01*
X119485000Y-73020529D01*
X119485000Y-73020521D01*
X119472195Y-72890508D01*
X119421589Y-72723685D01*
X119339411Y-72569939D01*
X119228817Y-72435181D01*
X119195050Y-72407469D01*
X118235000Y-71447420D01*
X118235000Y-70306926D01*
X135890000Y-70347652D01*
G37*
G04 #@! TD.AperFunction*
D20*
X135890000Y-101664487D02*
X135280387Y-102274101D01*
X135249473Y-102299471D01*
X135148252Y-102422810D01*
X135073038Y-102563526D01*
X135065233Y-102589254D01*
X134864488Y-102790000D01*
X131939787Y-102790000D01*
X131899999Y-102786081D01*
X131860211Y-102790000D01*
X131860209Y-102790000D01*
X131741212Y-102801720D01*
X131588527Y-102848037D01*
X131523024Y-102883049D01*
X131447810Y-102923251D01*
X131392210Y-102968881D01*
X131324472Y-103024472D01*
X131299107Y-103055380D01*
X129985000Y-104369487D01*
X129985000Y-104362835D01*
X129976477Y-104319987D01*
X129972195Y-104276510D01*
X129959513Y-104234705D01*
X129950990Y-104191855D01*
X129934269Y-104151487D01*
X129921589Y-104109687D01*
X129900999Y-104071165D01*
X129884277Y-104030795D01*
X129860004Y-103994467D01*
X129839411Y-103955941D01*
X129811696Y-103922171D01*
X129787424Y-103885845D01*
X129756530Y-103854951D01*
X129728817Y-103821183D01*
X129695049Y-103793470D01*
X129664155Y-103762576D01*
X129627829Y-103738304D01*
X129594059Y-103710589D01*
X129555533Y-103689996D01*
X129519205Y-103665723D01*
X129478835Y-103649001D01*
X129440313Y-103628411D01*
X129398513Y-103615731D01*
X129358145Y-103599010D01*
X129315295Y-103590487D01*
X129273490Y-103577805D01*
X129230013Y-103573523D01*
X129187165Y-103565000D01*
X126352639Y-103565000D01*
X126378831Y-103551000D01*
X126419205Y-103534277D01*
X126455537Y-103510001D01*
X126494058Y-103489411D01*
X126527825Y-103461699D01*
X126564155Y-103437424D01*
X126595051Y-103406528D01*
X126628817Y-103378817D01*
X126656530Y-103345049D01*
X126687424Y-103314155D01*
X126711696Y-103277829D01*
X126739411Y-103244059D01*
X126760004Y-103205533D01*
X126784277Y-103169205D01*
X126800999Y-103128835D01*
X126821589Y-103090313D01*
X126834269Y-103048513D01*
X126850990Y-103008145D01*
X126859513Y-102965295D01*
X126872195Y-102923490D01*
X126873080Y-102914500D01*
X135890000Y-93897581D01*
X135890000Y-101664487D01*
G04 #@! TA.AperFunction,Conductor*
D21*
G36*
X135890000Y-101664487D02*
G01*
X135280387Y-102274101D01*
X135249473Y-102299471D01*
X135148252Y-102422810D01*
X135073038Y-102563526D01*
X135065233Y-102589254D01*
X134864488Y-102790000D01*
X131939787Y-102790000D01*
X131899999Y-102786081D01*
X131860211Y-102790000D01*
X131860209Y-102790000D01*
X131741212Y-102801720D01*
X131588527Y-102848037D01*
X131523024Y-102883049D01*
X131447810Y-102923251D01*
X131392210Y-102968881D01*
X131324472Y-103024472D01*
X131299107Y-103055380D01*
X129985000Y-104369487D01*
X129985000Y-104362835D01*
X129976477Y-104319987D01*
X129972195Y-104276510D01*
X129959513Y-104234705D01*
X129950990Y-104191855D01*
X129934269Y-104151487D01*
X129921589Y-104109687D01*
X129900999Y-104071165D01*
X129884277Y-104030795D01*
X129860004Y-103994467D01*
X129839411Y-103955941D01*
X129811696Y-103922171D01*
X129787424Y-103885845D01*
X129756530Y-103854951D01*
X129728817Y-103821183D01*
X129695049Y-103793470D01*
X129664155Y-103762576D01*
X129627829Y-103738304D01*
X129594059Y-103710589D01*
X129555533Y-103689996D01*
X129519205Y-103665723D01*
X129478835Y-103649001D01*
X129440313Y-103628411D01*
X129398513Y-103615731D01*
X129358145Y-103599010D01*
X129315295Y-103590487D01*
X129273490Y-103577805D01*
X129230013Y-103573523D01*
X129187165Y-103565000D01*
X126352639Y-103565000D01*
X126378831Y-103551000D01*
X126419205Y-103534277D01*
X126455537Y-103510001D01*
X126494058Y-103489411D01*
X126527825Y-103461699D01*
X126564155Y-103437424D01*
X126595051Y-103406528D01*
X126628817Y-103378817D01*
X126656530Y-103345049D01*
X126687424Y-103314155D01*
X126711696Y-103277829D01*
X126739411Y-103244059D01*
X126760004Y-103205533D01*
X126784277Y-103169205D01*
X126800999Y-103128835D01*
X126821589Y-103090313D01*
X126834269Y-103048513D01*
X126850990Y-103008145D01*
X126859513Y-102965295D01*
X126872195Y-102923490D01*
X126873080Y-102914500D01*
X135890000Y-93897581D01*
X135890000Y-101664487D01*
G37*
G04 #@! TD.AperFunction*
D20*
X125765000Y-89512165D02*
X125773523Y-89555014D01*
X125777805Y-89598489D01*
X125790486Y-89640292D01*
X125799010Y-89683145D01*
X125815732Y-89723516D01*
X125828411Y-89765312D01*
X125849000Y-89803831D01*
X125865723Y-89844205D01*
X125889999Y-89880537D01*
X125910589Y-89919058D01*
X125938301Y-89952825D01*
X125962576Y-89989155D01*
X125993472Y-90020051D01*
X126021183Y-90053817D01*
X126054951Y-90081530D01*
X126085845Y-90112424D01*
X126122171Y-90136696D01*
X126155941Y-90164411D01*
X126194467Y-90185004D01*
X126230795Y-90209277D01*
X126271165Y-90225999D01*
X126309687Y-90246589D01*
X126351487Y-90259269D01*
X126391855Y-90275990D01*
X126434705Y-90284513D01*
X126469465Y-90295058D01*
X120259524Y-96505000D01*
X119754656Y-96505000D01*
X119713475Y-96443368D01*
X119506632Y-96236525D01*
X119332240Y-96120000D01*
X119506632Y-96003475D01*
X119713475Y-95796632D01*
X119875990Y-95553411D01*
X119987932Y-95283158D01*
X120045000Y-94996260D01*
X120045000Y-94703740D01*
X120030539Y-94631039D01*
X125765000Y-88896579D01*
X125765000Y-89512165D01*
G04 #@! TA.AperFunction,Conductor*
D21*
G36*
X125765000Y-89512165D02*
G01*
X125773523Y-89555014D01*
X125777805Y-89598489D01*
X125790486Y-89640292D01*
X125799010Y-89683145D01*
X125815732Y-89723516D01*
X125828411Y-89765312D01*
X125849000Y-89803831D01*
X125865723Y-89844205D01*
X125889999Y-89880537D01*
X125910589Y-89919058D01*
X125938301Y-89952825D01*
X125962576Y-89989155D01*
X125993472Y-90020051D01*
X126021183Y-90053817D01*
X126054951Y-90081530D01*
X126085845Y-90112424D01*
X126122171Y-90136696D01*
X126155941Y-90164411D01*
X126194467Y-90185004D01*
X126230795Y-90209277D01*
X126271165Y-90225999D01*
X126309687Y-90246589D01*
X126351487Y-90259269D01*
X126391855Y-90275990D01*
X126434705Y-90284513D01*
X126469465Y-90295058D01*
X120259524Y-96505000D01*
X119754656Y-96505000D01*
X119713475Y-96443368D01*
X119506632Y-96236525D01*
X119332240Y-96120000D01*
X119506632Y-96003475D01*
X119713475Y-95796632D01*
X119875990Y-95553411D01*
X119987932Y-95283158D01*
X120045000Y-94996260D01*
X120045000Y-94703740D01*
X120030539Y-94631039D01*
X125765000Y-88896579D01*
X125765000Y-89512165D01*
G37*
G04 #@! TD.AperFunction*
D20*
X117715000Y-73430577D02*
X117715001Y-73733421D01*
X117459845Y-73988576D01*
X117459803Y-73175380D01*
X117715000Y-73430577D01*
G04 #@! TA.AperFunction,Conductor*
D21*
G36*
X117715000Y-73430577D02*
G01*
X117715001Y-73733421D01*
X117459845Y-73988576D01*
X117459803Y-73175380D01*
X117715000Y-73430577D01*
G37*
G04 #@! TD.AperFunction*
G04 #@! TD*
D20*
G04 #@! TO.N,/GND*
X128581162Y-44787507D02*
X129742190Y-45064203D01*
X130859370Y-45484228D01*
X131915104Y-46040964D01*
X132892734Y-46725627D01*
X133776846Y-47527423D01*
X134553496Y-48433706D01*
X135210433Y-49430181D01*
X135737296Y-50501128D01*
X136125781Y-51629673D01*
X136369761Y-52798016D01*
X136433234Y-53587721D01*
X135410000Y-52564488D01*
X135410000Y-50739788D01*
X135413919Y-50700000D01*
X135405056Y-50610013D01*
X135398280Y-50541212D01*
X135351963Y-50388527D01*
X135351963Y-50388526D01*
X135276749Y-50247811D01*
X135200893Y-50155380D01*
X135175528Y-50124472D01*
X135144618Y-50099105D01*
X133825268Y-48779755D01*
X133784277Y-48680795D01*
X133687424Y-48535845D01*
X133564155Y-48412576D01*
X133419205Y-48315723D01*
X133258145Y-48249010D01*
X133087165Y-48215000D01*
X132912835Y-48215000D01*
X132741855Y-48249010D01*
X132580795Y-48315723D01*
X132435845Y-48412576D01*
X132312576Y-48535845D01*
X132215723Y-48680795D01*
X132149010Y-48841855D01*
X132115000Y-49012835D01*
X132115000Y-49187165D01*
X132149010Y-49358145D01*
X132215723Y-49519205D01*
X132312576Y-49664155D01*
X132435845Y-49787424D01*
X132580795Y-49884277D01*
X132679755Y-49925268D01*
X133790001Y-51035514D01*
X133790000Y-52860212D01*
X133786081Y-52900000D01*
X133790000Y-52939788D01*
X133790000Y-52939790D01*
X133801720Y-53058787D01*
X133848037Y-53211472D01*
X133848038Y-53211473D01*
X133923251Y-53352189D01*
X133943271Y-53376583D01*
X134024472Y-53475528D01*
X134055387Y-53500899D01*
X135890001Y-55335514D01*
X135890001Y-62601441D01*
X118235000Y-62620821D01*
X118235000Y-60107449D01*
X119050000Y-60107449D01*
X119050000Y-60492551D01*
X119125130Y-60870252D01*
X119272502Y-61226040D01*
X119486453Y-61546240D01*
X119758760Y-61818547D01*
X120078960Y-62032498D01*
X120434748Y-62179870D01*
X120812449Y-62255000D01*
X121197551Y-62255000D01*
X121575252Y-62179870D01*
X121931040Y-62032498D01*
X122251240Y-61818547D01*
X122523547Y-61546240D01*
X122737498Y-61226040D01*
X122884870Y-60870252D01*
X122960000Y-60492551D01*
X122960000Y-60107449D01*
X122884870Y-59729748D01*
X122737498Y-59373960D01*
X122523547Y-59053760D01*
X122251240Y-58781453D01*
X122092541Y-58675413D01*
X126044192Y-58675413D01*
X126139956Y-58939814D01*
X126429571Y-59080704D01*
X126741108Y-59162384D01*
X127062595Y-59181718D01*
X127381675Y-59137961D01*
X127686088Y-59032795D01*
X127860044Y-58939814D01*
X127955808Y-58675413D01*
X127000000Y-57719605D01*
X126044192Y-58675413D01*
X122092541Y-58675413D01*
X121931040Y-58567502D01*
X121575252Y-58420130D01*
X121197551Y-58345000D01*
X120812449Y-58345000D01*
X120434748Y-58420130D01*
X120078960Y-58567502D01*
X119758760Y-58781453D01*
X119486453Y-59053760D01*
X119272502Y-59373960D01*
X119125130Y-59729748D01*
X119050000Y-60107449D01*
X118235000Y-60107449D01*
X118235000Y-58746578D01*
X119378983Y-57602595D01*
X125358282Y-57602595D01*
X125402039Y-57921675D01*
X125507205Y-58226088D01*
X125600186Y-58400044D01*
X125864587Y-58495808D01*
X126820395Y-57540000D01*
X127179605Y-57540000D01*
X128135413Y-58495808D01*
X128399814Y-58400044D01*
X128540704Y-58110429D01*
X128622384Y-57798892D01*
X128641718Y-57477405D01*
X128597961Y-57158325D01*
X128492795Y-56853912D01*
X128399814Y-56679956D01*
X128135413Y-56584192D01*
X127179605Y-57540000D01*
X126820395Y-57540000D01*
X125864587Y-56584192D01*
X125600186Y-56679956D01*
X125459296Y-56969571D01*
X125377616Y-57281108D01*
X125358282Y-57602595D01*
X119378983Y-57602595D01*
X120576991Y-56404587D01*
X126044192Y-56404587D01*
X127000000Y-57360395D01*
X127955808Y-56404587D01*
X127860044Y-56140186D01*
X127570429Y-55999296D01*
X127258892Y-55917616D01*
X126937405Y-55898282D01*
X126618325Y-55942039D01*
X126313912Y-56047205D01*
X126139956Y-56140186D01*
X126044192Y-56404587D01*
X120576991Y-56404587D01*
X123503475Y-53478104D01*
X123688967Y-53515000D01*
X124011033Y-53515000D01*
X124326912Y-53452168D01*
X124624463Y-53328918D01*
X124892252Y-53149987D01*
X125119987Y-52922252D01*
X125298918Y-52654463D01*
X125422168Y-52356912D01*
X125485000Y-52041033D01*
X125485000Y-51718967D01*
X128715000Y-51718967D01*
X128715000Y-52041033D01*
X128777832Y-52356912D01*
X128901082Y-52654463D01*
X129080013Y-52922252D01*
X129307748Y-53149987D01*
X129575537Y-53328918D01*
X129873088Y-53452168D01*
X130188967Y-53515000D01*
X130511033Y-53515000D01*
X130826912Y-53452168D01*
X131124463Y-53328918D01*
X131392252Y-53149987D01*
X131619987Y-52922252D01*
X131798918Y-52654463D01*
X131922168Y-52356912D01*
X131985000Y-52041033D01*
X131985000Y-51718967D01*
X131922168Y-51403088D01*
X131798918Y-51105537D01*
X131619987Y-50837748D01*
X131392252Y-50610013D01*
X131124463Y-50431082D01*
X130826912Y-50307832D01*
X130511033Y-50245000D01*
X130188967Y-50245000D01*
X129873088Y-50307832D01*
X129575537Y-50431082D01*
X129307748Y-50610013D01*
X129080013Y-50837748D01*
X128901082Y-51105537D01*
X128777832Y-51403088D01*
X128715000Y-51718967D01*
X125485000Y-51718967D01*
X125422168Y-51403088D01*
X125298918Y-51105537D01*
X125119987Y-50837748D01*
X124892252Y-50610013D01*
X124624463Y-50431082D01*
X124326912Y-50307832D01*
X124011033Y-50245000D01*
X123688967Y-50245000D01*
X123373088Y-50307832D01*
X123075537Y-50431082D01*
X122807748Y-50610013D01*
X122580013Y-50837748D01*
X122401082Y-51105537D01*
X122277832Y-51403088D01*
X122215000Y-51718967D01*
X122215000Y-52041033D01*
X122251896Y-52226525D01*
X117458963Y-57019458D01*
X117458824Y-54344370D01*
X117514269Y-53125589D01*
X117717517Y-51949482D01*
X118066566Y-50808129D01*
X118555912Y-49719523D01*
X119177840Y-48700831D01*
X119922538Y-47768118D01*
X120487335Y-47218967D01*
X122215000Y-47218967D01*
X122215000Y-47541033D01*
X122277832Y-47856912D01*
X122401082Y-48154463D01*
X122580013Y-48422252D01*
X122807748Y-48649987D01*
X123075537Y-48828918D01*
X123373088Y-48952168D01*
X123688967Y-49015000D01*
X124011033Y-49015000D01*
X124326912Y-48952168D01*
X124624463Y-48828918D01*
X124892252Y-48649987D01*
X125119987Y-48422252D01*
X125298918Y-48154463D01*
X125422168Y-47856912D01*
X125485000Y-47541033D01*
X125485000Y-47218967D01*
X128715000Y-47218967D01*
X128715000Y-47541033D01*
X128777832Y-47856912D01*
X128901082Y-48154463D01*
X129080013Y-48422252D01*
X129307748Y-48649987D01*
X129575537Y-48828918D01*
X129873088Y-48952168D01*
X130188967Y-49015000D01*
X130511033Y-49015000D01*
X130826912Y-48952168D01*
X131124463Y-48828918D01*
X131392252Y-48649987D01*
X131619987Y-48422252D01*
X131798918Y-48154463D01*
X131922168Y-47856912D01*
X131985000Y-47541033D01*
X131985000Y-47218967D01*
X131922168Y-46903088D01*
X131798918Y-46605537D01*
X131619987Y-46337748D01*
X131392252Y-46110013D01*
X131124463Y-45931082D01*
X130826912Y-45807832D01*
X130511033Y-45745000D01*
X130188967Y-45745000D01*
X129873088Y-45807832D01*
X129575537Y-45931082D01*
X129307748Y-46110013D01*
X129080013Y-46337748D01*
X128901082Y-46605537D01*
X128777832Y-46903088D01*
X128715000Y-47218967D01*
X125485000Y-47218967D01*
X125422168Y-46903088D01*
X125298918Y-46605537D01*
X125119987Y-46337748D01*
X124892252Y-46110013D01*
X124624463Y-45931082D01*
X124326912Y-45807832D01*
X124011033Y-45745000D01*
X123688967Y-45745000D01*
X123373088Y-45807832D01*
X123075537Y-45931082D01*
X122807748Y-46110013D01*
X122580013Y-46337748D01*
X122401082Y-46605537D01*
X122277832Y-46903088D01*
X122215000Y-47218967D01*
X120487335Y-47218967D01*
X120778270Y-46936092D01*
X121731524Y-46217886D01*
X122767284Y-45624813D01*
X123869208Y-45166232D01*
X125019911Y-44849377D01*
X126201266Y-44679241D01*
X127394615Y-44658508D01*
X128581162Y-44787507D01*
G04 #@! TA.AperFunction,Conductor*
D21*
G36*
X128581162Y-44787507D02*
G01*
X129742190Y-45064203D01*
X130859370Y-45484228D01*
X131915104Y-46040964D01*
X132892734Y-46725627D01*
X133776846Y-47527423D01*
X134553496Y-48433706D01*
X135210433Y-49430181D01*
X135737296Y-50501128D01*
X136125781Y-51629673D01*
X136369761Y-52798016D01*
X136433234Y-53587721D01*
X135410000Y-52564488D01*
X135410000Y-50739788D01*
X135413919Y-50700000D01*
X135405056Y-50610013D01*
X135398280Y-50541212D01*
X135351963Y-50388527D01*
X135351963Y-50388526D01*
X135276749Y-50247811D01*
X135200893Y-50155380D01*
X135175528Y-50124472D01*
X135144618Y-50099105D01*
X133825268Y-48779755D01*
X133784277Y-48680795D01*
X133687424Y-48535845D01*
X133564155Y-48412576D01*
X133419205Y-48315723D01*
X133258145Y-48249010D01*
X133087165Y-48215000D01*
X132912835Y-48215000D01*
X132741855Y-48249010D01*
X132580795Y-48315723D01*
X132435845Y-48412576D01*
X132312576Y-48535845D01*
X132215723Y-48680795D01*
X132149010Y-48841855D01*
X132115000Y-49012835D01*
X132115000Y-49187165D01*
X132149010Y-49358145D01*
X132215723Y-49519205D01*
X132312576Y-49664155D01*
X132435845Y-49787424D01*
X132580795Y-49884277D01*
X132679755Y-49925268D01*
X133790001Y-51035514D01*
X133790000Y-52860212D01*
X133786081Y-52900000D01*
X133790000Y-52939788D01*
X133790000Y-52939790D01*
X133801720Y-53058787D01*
X133848037Y-53211472D01*
X133848038Y-53211473D01*
X133923251Y-53352189D01*
X133943271Y-53376583D01*
X134024472Y-53475528D01*
X134055387Y-53500899D01*
X135890001Y-55335514D01*
X135890001Y-62601441D01*
X118235000Y-62620821D01*
X118235000Y-60107449D01*
X119050000Y-60107449D01*
X119050000Y-60492551D01*
X119125130Y-60870252D01*
X119272502Y-61226040D01*
X119486453Y-61546240D01*
X119758760Y-61818547D01*
X120078960Y-62032498D01*
X120434748Y-62179870D01*
X120812449Y-62255000D01*
X121197551Y-62255000D01*
X121575252Y-62179870D01*
X121931040Y-62032498D01*
X122251240Y-61818547D01*
X122523547Y-61546240D01*
X122737498Y-61226040D01*
X122884870Y-60870252D01*
X122960000Y-60492551D01*
X122960000Y-60107449D01*
X122884870Y-59729748D01*
X122737498Y-59373960D01*
X122523547Y-59053760D01*
X122251240Y-58781453D01*
X122092541Y-58675413D01*
X126044192Y-58675413D01*
X126139956Y-58939814D01*
X126429571Y-59080704D01*
X126741108Y-59162384D01*
X127062595Y-59181718D01*
X127381675Y-59137961D01*
X127686088Y-59032795D01*
X127860044Y-58939814D01*
X127955808Y-58675413D01*
X127000000Y-57719605D01*
X126044192Y-58675413D01*
X122092541Y-58675413D01*
X121931040Y-58567502D01*
X121575252Y-58420130D01*
X121197551Y-58345000D01*
X120812449Y-58345000D01*
X120434748Y-58420130D01*
X120078960Y-58567502D01*
X119758760Y-58781453D01*
X119486453Y-59053760D01*
X119272502Y-59373960D01*
X119125130Y-59729748D01*
X119050000Y-60107449D01*
X118235000Y-60107449D01*
X118235000Y-58746578D01*
X119378983Y-57602595D01*
X125358282Y-57602595D01*
X125402039Y-57921675D01*
X125507205Y-58226088D01*
X125600186Y-58400044D01*
X125864587Y-58495808D01*
X126820395Y-57540000D01*
X127179605Y-57540000D01*
X128135413Y-58495808D01*
X128399814Y-58400044D01*
X128540704Y-58110429D01*
X128622384Y-57798892D01*
X128641718Y-57477405D01*
X128597961Y-57158325D01*
X128492795Y-56853912D01*
X128399814Y-56679956D01*
X128135413Y-56584192D01*
X127179605Y-57540000D01*
X126820395Y-57540000D01*
X125864587Y-56584192D01*
X125600186Y-56679956D01*
X125459296Y-56969571D01*
X125377616Y-57281108D01*
X125358282Y-57602595D01*
X119378983Y-57602595D01*
X120576991Y-56404587D01*
X126044192Y-56404587D01*
X127000000Y-57360395D01*
X127955808Y-56404587D01*
X127860044Y-56140186D01*
X127570429Y-55999296D01*
X127258892Y-55917616D01*
X126937405Y-55898282D01*
X126618325Y-55942039D01*
X126313912Y-56047205D01*
X126139956Y-56140186D01*
X126044192Y-56404587D01*
X120576991Y-56404587D01*
X123503475Y-53478104D01*
X123688967Y-53515000D01*
X124011033Y-53515000D01*
X124326912Y-53452168D01*
X124624463Y-53328918D01*
X124892252Y-53149987D01*
X125119987Y-52922252D01*
X125298918Y-52654463D01*
X125422168Y-52356912D01*
X125485000Y-52041033D01*
X125485000Y-51718967D01*
X128715000Y-51718967D01*
X128715000Y-52041033D01*
X128777832Y-52356912D01*
X128901082Y-52654463D01*
X129080013Y-52922252D01*
X129307748Y-53149987D01*
X129575537Y-53328918D01*
X129873088Y-53452168D01*
X130188967Y-53515000D01*
X130511033Y-53515000D01*
X130826912Y-53452168D01*
X131124463Y-53328918D01*
X131392252Y-53149987D01*
X131619987Y-52922252D01*
X131798918Y-52654463D01*
X131922168Y-52356912D01*
X131985000Y-52041033D01*
X131985000Y-51718967D01*
X131922168Y-51403088D01*
X131798918Y-51105537D01*
X131619987Y-50837748D01*
X131392252Y-50610013D01*
X131124463Y-50431082D01*
X130826912Y-50307832D01*
X130511033Y-50245000D01*
X130188967Y-50245000D01*
X129873088Y-50307832D01*
X129575537Y-50431082D01*
X129307748Y-50610013D01*
X129080013Y-50837748D01*
X128901082Y-51105537D01*
X128777832Y-51403088D01*
X128715000Y-51718967D01*
X125485000Y-51718967D01*
X125422168Y-51403088D01*
X125298918Y-51105537D01*
X125119987Y-50837748D01*
X124892252Y-50610013D01*
X124624463Y-50431082D01*
X124326912Y-50307832D01*
X124011033Y-50245000D01*
X123688967Y-50245000D01*
X123373088Y-50307832D01*
X123075537Y-50431082D01*
X122807748Y-50610013D01*
X122580013Y-50837748D01*
X122401082Y-51105537D01*
X122277832Y-51403088D01*
X122215000Y-51718967D01*
X122215000Y-52041033D01*
X122251896Y-52226525D01*
X117458963Y-57019458D01*
X117458824Y-54344370D01*
X117514269Y-53125589D01*
X117717517Y-51949482D01*
X118066566Y-50808129D01*
X118555912Y-49719523D01*
X119177840Y-48700831D01*
X119922538Y-47768118D01*
X120487335Y-47218967D01*
X122215000Y-47218967D01*
X122215000Y-47541033D01*
X122277832Y-47856912D01*
X122401082Y-48154463D01*
X122580013Y-48422252D01*
X122807748Y-48649987D01*
X123075537Y-48828918D01*
X123373088Y-48952168D01*
X123688967Y-49015000D01*
X124011033Y-49015000D01*
X124326912Y-48952168D01*
X124624463Y-48828918D01*
X124892252Y-48649987D01*
X125119987Y-48422252D01*
X125298918Y-48154463D01*
X125422168Y-47856912D01*
X125485000Y-47541033D01*
X125485000Y-47218967D01*
X128715000Y-47218967D01*
X128715000Y-47541033D01*
X128777832Y-47856912D01*
X128901082Y-48154463D01*
X129080013Y-48422252D01*
X129307748Y-48649987D01*
X129575537Y-48828918D01*
X129873088Y-48952168D01*
X130188967Y-49015000D01*
X130511033Y-49015000D01*
X130826912Y-48952168D01*
X131124463Y-48828918D01*
X131392252Y-48649987D01*
X131619987Y-48422252D01*
X131798918Y-48154463D01*
X131922168Y-47856912D01*
X131985000Y-47541033D01*
X131985000Y-47218967D01*
X131922168Y-46903088D01*
X131798918Y-46605537D01*
X131619987Y-46337748D01*
X131392252Y-46110013D01*
X131124463Y-45931082D01*
X130826912Y-45807832D01*
X130511033Y-45745000D01*
X130188967Y-45745000D01*
X129873088Y-45807832D01*
X129575537Y-45931082D01*
X129307748Y-46110013D01*
X129080013Y-46337748D01*
X128901082Y-46605537D01*
X128777832Y-46903088D01*
X128715000Y-47218967D01*
X125485000Y-47218967D01*
X125422168Y-46903088D01*
X125298918Y-46605537D01*
X125119987Y-46337748D01*
X124892252Y-46110013D01*
X124624463Y-45931082D01*
X124326912Y-45807832D01*
X124011033Y-45745000D01*
X123688967Y-45745000D01*
X123373088Y-45807832D01*
X123075537Y-45931082D01*
X122807748Y-46110013D01*
X122580013Y-46337748D01*
X122401082Y-46605537D01*
X122277832Y-46903088D01*
X122215000Y-47218967D01*
X120487335Y-47218967D01*
X120778270Y-46936092D01*
X121731524Y-46217886D01*
X122767284Y-45624813D01*
X123869208Y-45166232D01*
X125019911Y-44849377D01*
X126201266Y-44679241D01*
X127394615Y-44658508D01*
X128581162Y-44787507D01*
G37*
G04 #@! TD.AperFunction*
G04 #@! TD*
D20*
G04 #@! TO.N,/GND*
X135890000Y-67040000D02*
X135787835Y-67040000D01*
X135616855Y-67074010D01*
X135546143Y-67103300D01*
X135502000Y-62674336D01*
X135502000Y-62655596D01*
X135890001Y-58263641D01*
X135890000Y-67040000D01*
G04 #@! TA.AperFunction,Conductor*
D21*
G36*
X135890000Y-67040000D02*
G01*
X135787835Y-67040000D01*
X135616855Y-67074010D01*
X135546143Y-67103300D01*
X135502000Y-62674336D01*
X135502000Y-62655596D01*
X135890001Y-58263641D01*
X135890000Y-67040000D01*
G37*
G04 #@! TD.AperFunction*
D20*
X136433234Y-53587721D02*
X136313652Y-53468139D01*
X136371234Y-52816345D01*
X136433234Y-53587721D01*
G04 #@! TA.AperFunction,Conductor*
D21*
G36*
X136433234Y-53587721D02*
G01*
X136313652Y-53468139D01*
X136371234Y-52816345D01*
X136433234Y-53587721D01*
G37*
G04 #@! TD.AperFunction*
G04 #@! TD*
M02*
