G04 #@! TF.GenerationSoftware,KiCad,Pcbnew,(5.1.9)-1*
G04 #@! TF.CreationDate,2021-03-01T14:13:03+01:00*
G04 #@! TF.ProjectId,button v2_1 - AA [TPL5110],62757474-6f6e-4207-9632-5f31202d2041,rev?*
G04 #@! TF.SameCoordinates,Original*
G04 #@! TF.FileFunction,Legend,Top*
G04 #@! TF.FilePolarity,Positive*
%FSLAX46Y46*%
G04 Gerber Fmt 4.6, Leading zero omitted, Abs format (unit mm)*
G04 Created by KiCad (PCBNEW (5.1.9)-1) date 2021-03-01 14:13:03*
%MOMM*%
%LPD*%
G01*
G04 APERTURE LIST*
%ADD10C,0.150000*%
%ADD11C,0.120000*%
%ADD12C,0.200000*%
%ADD13C,0.125000*%
%ADD14C,0.100000*%
G04 APERTURE END LIST*
D10*
X121003586Y-112303571D02*
X121140491Y-112351190D01*
X121182157Y-112398809D01*
X121217872Y-112494047D01*
X121200014Y-112636904D01*
X121140491Y-112732142D01*
X121086919Y-112779761D01*
X120985729Y-112827380D01*
X120604776Y-112827380D01*
X120729776Y-111827380D01*
X121063110Y-111827380D01*
X121152395Y-111875000D01*
X121194062Y-111922619D01*
X121229776Y-112017857D01*
X121217872Y-112113095D01*
X121158348Y-112208333D01*
X121104776Y-112255952D01*
X121003586Y-112303571D01*
X120670252Y-112303571D01*
X121729776Y-111827380D02*
X121628586Y-112636904D01*
X121664300Y-112732142D01*
X121705967Y-112779761D01*
X121795252Y-112827380D01*
X121985729Y-112827380D01*
X122086919Y-112779761D01*
X122140491Y-112732142D01*
X122200014Y-112636904D01*
X122301205Y-111827380D01*
X122634538Y-111827380D02*
X123205967Y-111827380D01*
X122795252Y-112827380D02*
X122920252Y-111827380D01*
X123396443Y-111827380D02*
X123967872Y-111827380D01*
X123557157Y-112827380D02*
X123682157Y-111827380D01*
X124491681Y-111827380D02*
X124682157Y-111827380D01*
X124771443Y-111875000D01*
X124854776Y-111970238D01*
X124878586Y-112160714D01*
X124836919Y-112494047D01*
X124765491Y-112684523D01*
X124658348Y-112779761D01*
X124557157Y-112827380D01*
X124366681Y-112827380D01*
X124277395Y-112779761D01*
X124194062Y-112684523D01*
X124170252Y-112494047D01*
X124211919Y-112160714D01*
X124283348Y-111970238D01*
X124390491Y-111875000D01*
X124491681Y-111827380D01*
X125223824Y-112827380D02*
X125348824Y-111827380D01*
X125795252Y-112827380D01*
X125920252Y-111827380D01*
X127015491Y-111827380D02*
X127223824Y-112827380D01*
X127682157Y-111827380D01*
X127955967Y-111922619D02*
X128009538Y-111875000D01*
X128110729Y-111827380D01*
X128348824Y-111827380D01*
X128438110Y-111875000D01*
X128479776Y-111922619D01*
X128515491Y-112017857D01*
X128503586Y-112113095D01*
X128438110Y-112255952D01*
X127795252Y-112827380D01*
X128414300Y-112827380D01*
X128854776Y-112732142D02*
X128896443Y-112779761D01*
X128842872Y-112827380D01*
X128801205Y-112779761D01*
X128854776Y-112732142D01*
X128842872Y-112827380D01*
X129842872Y-112827380D02*
X129271443Y-112827380D01*
X129557157Y-112827380D02*
X129682157Y-111827380D01*
X129569062Y-111970238D01*
X129461919Y-112065476D01*
X129360729Y-112113095D01*
X129422380Y-82919047D02*
X130136666Y-82919047D01*
X130279523Y-82966666D01*
X130374761Y-83061904D01*
X130422380Y-83204761D01*
X130422380Y-83300000D01*
X130422380Y-81966666D02*
X130422380Y-82442857D01*
X129422380Y-82442857D01*
X130327142Y-81061904D02*
X130374761Y-81109523D01*
X130422380Y-81252380D01*
X130422380Y-81347619D01*
X130374761Y-81490476D01*
X130279523Y-81585714D01*
X130184285Y-81633333D01*
X129993809Y-81680952D01*
X129850952Y-81680952D01*
X129660476Y-81633333D01*
X129565238Y-81585714D01*
X129470000Y-81490476D01*
X129422380Y-81347619D01*
X129422380Y-81252380D01*
X129470000Y-81109523D01*
X129517619Y-81061904D01*
X129422380Y-80347619D02*
X130136666Y-80347619D01*
X130279523Y-80395238D01*
X130374761Y-80490476D01*
X130422380Y-80633333D01*
X130422380Y-80728571D01*
X130422380Y-79395238D02*
X130422380Y-79871428D01*
X129422380Y-79871428D01*
X130327142Y-78490476D02*
X130374761Y-78538095D01*
X130422380Y-78680952D01*
X130422380Y-78776190D01*
X130374761Y-78919047D01*
X130279523Y-79014285D01*
X130184285Y-79061904D01*
X129993809Y-79109523D01*
X129850952Y-79109523D01*
X129660476Y-79061904D01*
X129565238Y-79014285D01*
X129470000Y-78919047D01*
X129422380Y-78776190D01*
X129422380Y-78680952D01*
X129470000Y-78538095D01*
X129517619Y-78490476D01*
X129422380Y-77776190D02*
X130136666Y-77776190D01*
X130279523Y-77823809D01*
X130374761Y-77919047D01*
X130422380Y-78061904D01*
X130422380Y-78157142D01*
X130422380Y-76823809D02*
X130422380Y-77300000D01*
X129422380Y-77300000D01*
X130327142Y-75919047D02*
X130374761Y-75966666D01*
X130422380Y-76109523D01*
X130422380Y-76204761D01*
X130374761Y-76347619D01*
X130279523Y-76442857D01*
X130184285Y-76490476D01*
X129993809Y-76538095D01*
X129850952Y-76538095D01*
X129660476Y-76490476D01*
X129565238Y-76442857D01*
X129470000Y-76347619D01*
X129422380Y-76204761D01*
X129422380Y-76109523D01*
X129470000Y-75966666D01*
X129517619Y-75919047D01*
X129422380Y-75204761D02*
X130136666Y-75204761D01*
X130279523Y-75252380D01*
X130374761Y-75347619D01*
X130422380Y-75490476D01*
X130422380Y-75585714D01*
X130422380Y-74252380D02*
X130422380Y-74728571D01*
X129422380Y-74728571D01*
X130327142Y-73347619D02*
X130374761Y-73395238D01*
X130422380Y-73538095D01*
X130422380Y-73633333D01*
X130374761Y-73776190D01*
X130279523Y-73871428D01*
X130184285Y-73919047D01*
X129993809Y-73966666D01*
X129850952Y-73966666D01*
X129660476Y-73919047D01*
X129565238Y-73871428D01*
X129470000Y-73776190D01*
X129422380Y-73633333D01*
X129422380Y-73538095D01*
X129470000Y-73395238D01*
X129517619Y-73347619D01*
D11*
G04 #@! TO.C,PS1*
X124710000Y-100900000D02*
X124710000Y-99100000D01*
X121490000Y-99100000D02*
X121490000Y-101550000D01*
D12*
G04 #@! TO.C,C4*
X121650000Y-96300000D02*
X125775000Y-96300000D01*
X125150000Y-93500000D02*
X121650000Y-93500000D01*
D11*
G04 #@! TO.C,U3*
X130680000Y-104740000D02*
X129750000Y-104740000D01*
X127520000Y-104740000D02*
X128450000Y-104740000D01*
X127520000Y-104740000D02*
X127520000Y-106900000D01*
X130680000Y-104740000D02*
X130680000Y-106200000D01*
G04 #@! TO.C,U1*
X125010000Y-106300000D02*
X125010000Y-104500000D01*
X121790000Y-104500000D02*
X121790000Y-106950000D01*
G04 #@! TO.C,C7*
X125640000Y-102215835D02*
X125640000Y-101984165D01*
G04 #@! TO.C,C6*
X123084165Y-108340000D02*
X123315835Y-108340000D01*
D10*
G04 #@! TO.C,L1*
X120484000Y-109674000D02*
X120484000Y-107642000D01*
X117436000Y-109474000D02*
X120484000Y-109474000D01*
X117436000Y-107642000D02*
X117436000Y-109674000D01*
X117436000Y-104086000D02*
X117436000Y-105991000D01*
X120484000Y-104086000D02*
X117436000Y-104086000D01*
X120484000Y-105991000D02*
X120484000Y-104086000D01*
X117436000Y-109674000D02*
X120484000Y-109674000D01*
D11*
G04 #@! TO.C,D1*
X130875000Y-56885000D02*
X134960000Y-56885000D01*
X134960000Y-56885000D02*
X134960000Y-54715000D01*
X134960000Y-54715000D02*
X130875000Y-54715000D01*
G04 #@! TO.C,U2*
X128790000Y-99300000D02*
X128790000Y-101750000D01*
X132010000Y-101100000D02*
X132010000Y-99300000D01*
G04 #@! TO.C,C3*
X126690000Y-98038748D02*
X126690000Y-98561252D01*
X128110000Y-98038748D02*
X128110000Y-98561252D01*
G04 #@! TO.C,C1*
X123138748Y-110960000D02*
X123661252Y-110960000D01*
X123138748Y-109540000D02*
X123661252Y-109540000D01*
G04 #@! TO.C,R3*
X124890000Y-90911252D02*
X124890000Y-90388748D01*
X123470000Y-90911252D02*
X123470000Y-90388748D01*
G04 #@! TO.C,R1*
X122440000Y-90851252D02*
X122440000Y-90328748D01*
X121020000Y-90851252D02*
X121020000Y-90328748D01*
G04 #@! TO.C,R7*
X136700000Y-106051252D02*
X136700000Y-105528748D01*
X135280000Y-106051252D02*
X135280000Y-105528748D01*
G04 #@! TO.C,R5*
X132210000Y-90961252D02*
X132210000Y-90438748D01*
X130790000Y-90961252D02*
X130790000Y-90438748D01*
G04 #@! TO.C,R4*
X127360000Y-90886252D02*
X127360000Y-90363748D01*
X125940000Y-90886252D02*
X125940000Y-90363748D01*
G04 #@! TO.C,R2*
X129910000Y-90961252D02*
X129910000Y-90438748D01*
X128490000Y-90961252D02*
X128490000Y-90438748D01*
G04 #@! TO.C,C2*
X116988000Y-72251835D02*
X116988000Y-72020165D01*
G04 #@! TO.C,X1*
X119134000Y-87050000D02*
X119134000Y-86430000D01*
X121254000Y-87050000D02*
X119134000Y-87050000D01*
X135374000Y-87050000D02*
X133254000Y-87050000D01*
X135374000Y-86430000D02*
X135374000Y-87050000D01*
G04 #@! TO.C,C5*
X118740835Y-88385000D02*
X118509165Y-88385000D01*
G04 #@! TO.C,BT2*
X130870000Y-108680000D02*
X130870000Y-113400000D01*
X130870000Y-113400000D02*
X136990000Y-113400000D01*
X136990000Y-113400000D02*
X136990000Y-108680000D01*
X136990000Y-108680000D02*
X130870000Y-108680000D01*
X132630000Y-108680000D02*
X132630000Y-108480000D01*
X132630000Y-108480000D02*
X132330000Y-108480000D01*
X132330000Y-108480000D02*
X132330000Y-108680000D01*
X132630000Y-108580000D02*
X132330000Y-108580000D01*
X133430000Y-108680000D02*
X133430000Y-109290000D01*
X133430000Y-109290000D02*
X131480000Y-109290000D01*
X131480000Y-109290000D02*
X131480000Y-112790000D01*
X131480000Y-112790000D02*
X136380000Y-112790000D01*
X136380000Y-112790000D02*
X136380000Y-109290000D01*
X136380000Y-109290000D02*
X134430000Y-109290000D01*
X134430000Y-109290000D02*
X134430000Y-108680000D01*
X130870000Y-109990000D02*
X131480000Y-109990000D01*
X130870000Y-111290000D02*
X131480000Y-111290000D01*
X136990000Y-109990000D02*
X136380000Y-109990000D01*
X136990000Y-111290000D02*
X136380000Y-111290000D01*
X133830000Y-112790000D02*
X133830000Y-112290000D01*
X133830000Y-112290000D02*
X134030000Y-112290000D01*
X134030000Y-112290000D02*
X134030000Y-112790000D01*
X133930000Y-112790000D02*
X133930000Y-112290000D01*
X131820000Y-108380000D02*
X130570000Y-108380000D01*
X130570000Y-108380000D02*
X130570000Y-109630000D01*
G04 #@! TO.C,J1*
X117230000Y-103800000D02*
X119890000Y-103800000D01*
X117230000Y-91040000D02*
X117230000Y-103800000D01*
X119890000Y-91040000D02*
X119890000Y-103800000D01*
X117230000Y-91040000D02*
X119890000Y-91040000D01*
X117230000Y-89770000D02*
X117230000Y-88440000D01*
X117230000Y-88440000D02*
X118560000Y-88440000D01*
G04 #@! TO.C,SW2*
X133080000Y-94330000D02*
X136700000Y-94330000D01*
X133080000Y-100450000D02*
X133080000Y-94330000D01*
X136700000Y-100450000D02*
X133080000Y-100450000D01*
X136700000Y-94330000D02*
X136700000Y-100450000D01*
G04 #@! TO.C,SW1*
X129350000Y-46380000D02*
X124850000Y-46380000D01*
X130600000Y-50380000D02*
X130600000Y-48880000D01*
X124850000Y-52880000D02*
X129350000Y-52880000D01*
X123600000Y-48880000D02*
X123600000Y-50380000D01*
G04 #@! TO.C,PS1*
D13*
X122492857Y-100226190D02*
X122492857Y-99726190D01*
X122683333Y-99726190D01*
X122730952Y-99750000D01*
X122754761Y-99773809D01*
X122778571Y-99821428D01*
X122778571Y-99892857D01*
X122754761Y-99940476D01*
X122730952Y-99964285D01*
X122683333Y-99988095D01*
X122492857Y-99988095D01*
X122969047Y-100202380D02*
X123040476Y-100226190D01*
X123159523Y-100226190D01*
X123207142Y-100202380D01*
X123230952Y-100178571D01*
X123254761Y-100130952D01*
X123254761Y-100083333D01*
X123230952Y-100035714D01*
X123207142Y-100011904D01*
X123159523Y-99988095D01*
X123064285Y-99964285D01*
X123016666Y-99940476D01*
X122992857Y-99916666D01*
X122969047Y-99869047D01*
X122969047Y-99821428D01*
X122992857Y-99773809D01*
X123016666Y-99750000D01*
X123064285Y-99726190D01*
X123183333Y-99726190D01*
X123254761Y-99750000D01*
X123730952Y-100226190D02*
X123445238Y-100226190D01*
X123588095Y-100226190D02*
X123588095Y-99726190D01*
X123540476Y-99797619D01*
X123492857Y-99845238D01*
X123445238Y-99869047D01*
G04 #@! TO.C,C4*
X123578571Y-95033333D02*
X123602380Y-95057142D01*
X123626190Y-95128571D01*
X123626190Y-95176190D01*
X123602380Y-95247619D01*
X123554761Y-95295238D01*
X123507142Y-95319047D01*
X123411904Y-95342857D01*
X123340476Y-95342857D01*
X123245238Y-95319047D01*
X123197619Y-95295238D01*
X123150000Y-95247619D01*
X123126190Y-95176190D01*
X123126190Y-95128571D01*
X123150000Y-95057142D01*
X123173809Y-95033333D01*
X123292857Y-94604761D02*
X123626190Y-94604761D01*
X123102380Y-94723809D02*
X123459523Y-94842857D01*
X123459523Y-94533333D01*
G04 #@! TO.C,R8*
D14*
X126133333Y-105630952D02*
X126000000Y-105440476D01*
X125904761Y-105630952D02*
X125904761Y-105230952D01*
X126057142Y-105230952D01*
X126095238Y-105250000D01*
X126114285Y-105269047D01*
X126133333Y-105307142D01*
X126133333Y-105364285D01*
X126114285Y-105402380D01*
X126095238Y-105421428D01*
X126057142Y-105440476D01*
X125904761Y-105440476D01*
X126361904Y-105402380D02*
X126323809Y-105383333D01*
X126304761Y-105364285D01*
X126285714Y-105326190D01*
X126285714Y-105307142D01*
X126304761Y-105269047D01*
X126323809Y-105250000D01*
X126361904Y-105230952D01*
X126438095Y-105230952D01*
X126476190Y-105250000D01*
X126495238Y-105269047D01*
X126514285Y-105307142D01*
X126514285Y-105326190D01*
X126495238Y-105364285D01*
X126476190Y-105383333D01*
X126438095Y-105402380D01*
X126361904Y-105402380D01*
X126323809Y-105421428D01*
X126304761Y-105440476D01*
X126285714Y-105478571D01*
X126285714Y-105554761D01*
X126304761Y-105592857D01*
X126323809Y-105611904D01*
X126361904Y-105630952D01*
X126438095Y-105630952D01*
X126476190Y-105611904D01*
X126495238Y-105592857D01*
X126514285Y-105554761D01*
X126514285Y-105478571D01*
X126495238Y-105440476D01*
X126476190Y-105421428D01*
X126438095Y-105402380D01*
G04 #@! TO.C,U3*
D13*
X128719047Y-105226190D02*
X128719047Y-105630952D01*
X128742857Y-105678571D01*
X128766666Y-105702380D01*
X128814285Y-105726190D01*
X128909523Y-105726190D01*
X128957142Y-105702380D01*
X128980952Y-105678571D01*
X129004761Y-105630952D01*
X129004761Y-105226190D01*
X129195238Y-105226190D02*
X129504761Y-105226190D01*
X129338095Y-105416666D01*
X129409523Y-105416666D01*
X129457142Y-105440476D01*
X129480952Y-105464285D01*
X129504761Y-105511904D01*
X129504761Y-105630952D01*
X129480952Y-105678571D01*
X129457142Y-105702380D01*
X129409523Y-105726190D01*
X129266666Y-105726190D01*
X129219047Y-105702380D01*
X129195238Y-105678571D01*
G04 #@! TO.C,U1*
X123019047Y-105126190D02*
X123019047Y-105530952D01*
X123042857Y-105578571D01*
X123066666Y-105602380D01*
X123114285Y-105626190D01*
X123209523Y-105626190D01*
X123257142Y-105602380D01*
X123280952Y-105578571D01*
X123304761Y-105530952D01*
X123304761Y-105126190D01*
X123804761Y-105626190D02*
X123519047Y-105626190D01*
X123661904Y-105626190D02*
X123661904Y-105126190D01*
X123614285Y-105197619D01*
X123566666Y-105245238D01*
X123519047Y-105269047D01*
G04 #@! TO.C,R6*
X132866666Y-50426190D02*
X132700000Y-50188095D01*
X132580952Y-50426190D02*
X132580952Y-49926190D01*
X132771428Y-49926190D01*
X132819047Y-49950000D01*
X132842857Y-49973809D01*
X132866666Y-50021428D01*
X132866666Y-50092857D01*
X132842857Y-50140476D01*
X132819047Y-50164285D01*
X132771428Y-50188095D01*
X132580952Y-50188095D01*
X133295238Y-49926190D02*
X133200000Y-49926190D01*
X133152380Y-49950000D01*
X133128571Y-49973809D01*
X133080952Y-50045238D01*
X133057142Y-50140476D01*
X133057142Y-50330952D01*
X133080952Y-50378571D01*
X133104761Y-50402380D01*
X133152380Y-50426190D01*
X133247619Y-50426190D01*
X133295238Y-50402380D01*
X133319047Y-50378571D01*
X133342857Y-50330952D01*
X133342857Y-50211904D01*
X133319047Y-50164285D01*
X133295238Y-50140476D01*
X133247619Y-50116666D01*
X133152380Y-50116666D01*
X133104761Y-50140476D01*
X133080952Y-50164285D01*
X133057142Y-50211904D01*
G04 #@! TO.C,L1*
D10*
X118808333Y-107317380D02*
X118332142Y-107317380D01*
X118332142Y-106317380D01*
X119665476Y-107317380D02*
X119094047Y-107317380D01*
X119379761Y-107317380D02*
X119379761Y-106317380D01*
X119284523Y-106460238D01*
X119189285Y-106555476D01*
X119094047Y-106603095D01*
G04 #@! TO.C,D1*
X132791666Y-56216666D02*
X132091666Y-56216666D01*
X132091666Y-56050000D01*
X132125000Y-55950000D01*
X132191666Y-55883333D01*
X132258333Y-55850000D01*
X132391666Y-55816666D01*
X132491666Y-55816666D01*
X132625000Y-55850000D01*
X132691666Y-55883333D01*
X132758333Y-55950000D01*
X132791666Y-56050000D01*
X132791666Y-56216666D01*
X132791666Y-55150000D02*
X132791666Y-55550000D01*
X132791666Y-55350000D02*
X132091666Y-55350000D01*
X132191666Y-55416666D01*
X132258333Y-55483333D01*
X132291666Y-55550000D01*
G04 #@! TO.C,U2*
D13*
X130019047Y-99926190D02*
X130019047Y-100330952D01*
X130042857Y-100378571D01*
X130066666Y-100402380D01*
X130114285Y-100426190D01*
X130209523Y-100426190D01*
X130257142Y-100402380D01*
X130280952Y-100378571D01*
X130304761Y-100330952D01*
X130304761Y-99926190D01*
X130519047Y-99973809D02*
X130542857Y-99950000D01*
X130590476Y-99926190D01*
X130709523Y-99926190D01*
X130757142Y-99950000D01*
X130780952Y-99973809D01*
X130804761Y-100021428D01*
X130804761Y-100069047D01*
X130780952Y-100140476D01*
X130495238Y-100426190D01*
X130804761Y-100426190D01*
G04 #@! TO.C,C3*
X127316666Y-98478571D02*
X127292857Y-98502380D01*
X127221428Y-98526190D01*
X127173809Y-98526190D01*
X127102380Y-98502380D01*
X127054761Y-98454761D01*
X127030952Y-98407142D01*
X127007142Y-98311904D01*
X127007142Y-98240476D01*
X127030952Y-98145238D01*
X127054761Y-98097619D01*
X127102380Y-98050000D01*
X127173809Y-98026190D01*
X127221428Y-98026190D01*
X127292857Y-98050000D01*
X127316666Y-98073809D01*
X127483333Y-98026190D02*
X127792857Y-98026190D01*
X127626190Y-98216666D01*
X127697619Y-98216666D01*
X127745238Y-98240476D01*
X127769047Y-98264285D01*
X127792857Y-98311904D01*
X127792857Y-98430952D01*
X127769047Y-98478571D01*
X127745238Y-98502380D01*
X127697619Y-98526190D01*
X127554761Y-98526190D01*
X127507142Y-98502380D01*
X127483333Y-98478571D01*
G04 #@! TO.C,C1*
X123578571Y-110333333D02*
X123602380Y-110357142D01*
X123626190Y-110428571D01*
X123626190Y-110476190D01*
X123602380Y-110547619D01*
X123554761Y-110595238D01*
X123507142Y-110619047D01*
X123411904Y-110642857D01*
X123340476Y-110642857D01*
X123245238Y-110619047D01*
X123197619Y-110595238D01*
X123150000Y-110547619D01*
X123126190Y-110476190D01*
X123126190Y-110428571D01*
X123150000Y-110357142D01*
X123173809Y-110333333D01*
X123626190Y-109857142D02*
X123626190Y-110142857D01*
X123626190Y-110000000D02*
X123126190Y-110000000D01*
X123197619Y-110047619D01*
X123245238Y-110095238D01*
X123269047Y-110142857D01*
G04 #@! TO.C,R3*
X123996666Y-90876190D02*
X123830000Y-90638095D01*
X123710952Y-90876190D02*
X123710952Y-90376190D01*
X123901428Y-90376190D01*
X123949047Y-90400000D01*
X123972857Y-90423809D01*
X123996666Y-90471428D01*
X123996666Y-90542857D01*
X123972857Y-90590476D01*
X123949047Y-90614285D01*
X123901428Y-90638095D01*
X123710952Y-90638095D01*
X124163333Y-90376190D02*
X124472857Y-90376190D01*
X124306190Y-90566666D01*
X124377619Y-90566666D01*
X124425238Y-90590476D01*
X124449047Y-90614285D01*
X124472857Y-90661904D01*
X124472857Y-90780952D01*
X124449047Y-90828571D01*
X124425238Y-90852380D01*
X124377619Y-90876190D01*
X124234761Y-90876190D01*
X124187142Y-90852380D01*
X124163333Y-90828571D01*
G04 #@! TO.C,R1*
X121546666Y-90816190D02*
X121380000Y-90578095D01*
X121260952Y-90816190D02*
X121260952Y-90316190D01*
X121451428Y-90316190D01*
X121499047Y-90340000D01*
X121522857Y-90363809D01*
X121546666Y-90411428D01*
X121546666Y-90482857D01*
X121522857Y-90530476D01*
X121499047Y-90554285D01*
X121451428Y-90578095D01*
X121260952Y-90578095D01*
X122022857Y-90816190D02*
X121737142Y-90816190D01*
X121880000Y-90816190D02*
X121880000Y-90316190D01*
X121832380Y-90387619D01*
X121784761Y-90435238D01*
X121737142Y-90459047D01*
G04 #@! TO.C,R7*
X135806666Y-106016190D02*
X135640000Y-105778095D01*
X135520952Y-106016190D02*
X135520952Y-105516190D01*
X135711428Y-105516190D01*
X135759047Y-105540000D01*
X135782857Y-105563809D01*
X135806666Y-105611428D01*
X135806666Y-105682857D01*
X135782857Y-105730476D01*
X135759047Y-105754285D01*
X135711428Y-105778095D01*
X135520952Y-105778095D01*
X135973333Y-105516190D02*
X136306666Y-105516190D01*
X136092380Y-106016190D01*
G04 #@! TO.C,R5*
X131316666Y-90926190D02*
X131150000Y-90688095D01*
X131030952Y-90926190D02*
X131030952Y-90426190D01*
X131221428Y-90426190D01*
X131269047Y-90450000D01*
X131292857Y-90473809D01*
X131316666Y-90521428D01*
X131316666Y-90592857D01*
X131292857Y-90640476D01*
X131269047Y-90664285D01*
X131221428Y-90688095D01*
X131030952Y-90688095D01*
X131769047Y-90426190D02*
X131530952Y-90426190D01*
X131507142Y-90664285D01*
X131530952Y-90640476D01*
X131578571Y-90616666D01*
X131697619Y-90616666D01*
X131745238Y-90640476D01*
X131769047Y-90664285D01*
X131792857Y-90711904D01*
X131792857Y-90830952D01*
X131769047Y-90878571D01*
X131745238Y-90902380D01*
X131697619Y-90926190D01*
X131578571Y-90926190D01*
X131530952Y-90902380D01*
X131507142Y-90878571D01*
G04 #@! TO.C,R4*
X126466666Y-90851190D02*
X126300000Y-90613095D01*
X126180952Y-90851190D02*
X126180952Y-90351190D01*
X126371428Y-90351190D01*
X126419047Y-90375000D01*
X126442857Y-90398809D01*
X126466666Y-90446428D01*
X126466666Y-90517857D01*
X126442857Y-90565476D01*
X126419047Y-90589285D01*
X126371428Y-90613095D01*
X126180952Y-90613095D01*
X126895238Y-90517857D02*
X126895238Y-90851190D01*
X126776190Y-90327380D02*
X126657142Y-90684523D01*
X126966666Y-90684523D01*
G04 #@! TO.C,R2*
X129016666Y-90926190D02*
X128850000Y-90688095D01*
X128730952Y-90926190D02*
X128730952Y-90426190D01*
X128921428Y-90426190D01*
X128969047Y-90450000D01*
X128992857Y-90473809D01*
X129016666Y-90521428D01*
X129016666Y-90592857D01*
X128992857Y-90640476D01*
X128969047Y-90664285D01*
X128921428Y-90688095D01*
X128730952Y-90688095D01*
X129207142Y-90473809D02*
X129230952Y-90450000D01*
X129278571Y-90426190D01*
X129397619Y-90426190D01*
X129445238Y-90450000D01*
X129469047Y-90473809D01*
X129492857Y-90521428D01*
X129492857Y-90569047D01*
X129469047Y-90640476D01*
X129183333Y-90926190D01*
X129492857Y-90926190D01*
G04 #@! TO.C,X1*
D10*
X126444476Y-80097380D02*
X127111142Y-81097380D01*
X127111142Y-80097380D02*
X126444476Y-81097380D01*
X128015904Y-81097380D02*
X127444476Y-81097380D01*
X127730190Y-81097380D02*
X127730190Y-80097380D01*
X127634952Y-80240238D01*
X127539714Y-80335476D01*
X127444476Y-80383095D01*
G04 #@! TO.C,SW2*
X135294761Y-98723333D02*
X135342380Y-98580476D01*
X135342380Y-98342380D01*
X135294761Y-98247142D01*
X135247142Y-98199523D01*
X135151904Y-98151904D01*
X135056666Y-98151904D01*
X134961428Y-98199523D01*
X134913809Y-98247142D01*
X134866190Y-98342380D01*
X134818571Y-98532857D01*
X134770952Y-98628095D01*
X134723333Y-98675714D01*
X134628095Y-98723333D01*
X134532857Y-98723333D01*
X134437619Y-98675714D01*
X134390000Y-98628095D01*
X134342380Y-98532857D01*
X134342380Y-98294761D01*
X134390000Y-98151904D01*
X134342380Y-97818571D02*
X135342380Y-97580476D01*
X134628095Y-97390000D01*
X135342380Y-97199523D01*
X134342380Y-96961428D01*
X134437619Y-96628095D02*
X134390000Y-96580476D01*
X134342380Y-96485238D01*
X134342380Y-96247142D01*
X134390000Y-96151904D01*
X134437619Y-96104285D01*
X134532857Y-96056666D01*
X134628095Y-96056666D01*
X134770952Y-96104285D01*
X135342380Y-96675714D01*
X135342380Y-96056666D01*
G04 #@! TO.C,SW1*
X125874946Y-50173521D02*
X126017803Y-50221140D01*
X126255899Y-50221140D01*
X126351137Y-50173521D01*
X126398756Y-50125902D01*
X126446375Y-50030664D01*
X126446375Y-49935426D01*
X126398756Y-49840188D01*
X126351137Y-49792569D01*
X126255899Y-49744950D01*
X126065422Y-49697331D01*
X125970184Y-49649712D01*
X125922565Y-49602093D01*
X125874946Y-49506855D01*
X125874946Y-49411617D01*
X125922565Y-49316379D01*
X125970184Y-49268760D01*
X126065422Y-49221140D01*
X126303518Y-49221140D01*
X126446375Y-49268760D01*
X126779708Y-49221140D02*
X127017803Y-50221140D01*
X127208280Y-49506855D01*
X127398756Y-50221140D01*
X127636851Y-49221140D01*
X128541613Y-50221140D02*
X127970184Y-50221140D01*
X128255899Y-50221140D02*
X128255899Y-49221140D01*
X128160660Y-49363998D01*
X128065422Y-49459236D01*
X127970184Y-49506855D01*
G04 #@! TD*
M02*
