G04 #@! TF.GenerationSoftware,KiCad,Pcbnew,(5.1.5)-1*
G04 #@! TF.CreationDate,2021-02-18T15:35:30+01:00*
G04 #@! TF.ProjectId,button,62757474-6f6e-42e6-9b69-6361645f7063,rev?*
G04 #@! TF.SameCoordinates,Original*
G04 #@! TF.FileFunction,Paste,Top*
G04 #@! TF.FilePolarity,Positive*
%FSLAX46Y46*%
G04 Gerber Fmt 4.6, Leading zero omitted, Abs format (unit mm)*
G04 Created by KiCad (PCBNEW (5.1.5)-1) date 2021-02-18 15:35:30*
%MOMM*%
%LPD*%
G04 APERTURE LIST*
%ADD10R,2.000000X0.650000*%
%ADD11C,0.100000*%
%ADD12R,1.500000X1.500000*%
%ADD13R,2.500000X1.000000*%
%ADD14R,1.000000X1.800000*%
%ADD15R,0.400000X1.500000*%
%ADD16R,1.600000X2.180000*%
%ADD17R,1.500000X1.100000*%
%ADD18R,1.100000X1.500000*%
G04 APERTURE END LIST*
D10*
X126950000Y-106380000D03*
X126950000Y-104480000D03*
X130000000Y-104480000D03*
D11*
G36*
X131000000Y-105105000D02*
G01*
X131000000Y-105755000D01*
X129000000Y-105755000D01*
X129000000Y-105105000D01*
X131000000Y-105105000D01*
G37*
D10*
X130000000Y-106380000D03*
D12*
X135990000Y-104590000D03*
X135990000Y-106990000D03*
D11*
G36*
X128959504Y-60026204D02*
G01*
X128983773Y-60029804D01*
X129007571Y-60035765D01*
X129030671Y-60044030D01*
X129052849Y-60054520D01*
X129073893Y-60067133D01*
X129093598Y-60081747D01*
X129111777Y-60098223D01*
X129128253Y-60116402D01*
X129142867Y-60136107D01*
X129155480Y-60157151D01*
X129165970Y-60179329D01*
X129174235Y-60202429D01*
X129180196Y-60226227D01*
X129183796Y-60250496D01*
X129185000Y-60275000D01*
X129185000Y-61425000D01*
X129183796Y-61449504D01*
X129180196Y-61473773D01*
X129174235Y-61497571D01*
X129165970Y-61520671D01*
X129155480Y-61542849D01*
X129142867Y-61563893D01*
X129128253Y-61583598D01*
X129111777Y-61601777D01*
X129093598Y-61618253D01*
X129073893Y-61632867D01*
X129052849Y-61645480D01*
X129030671Y-61655970D01*
X129007571Y-61664235D01*
X128983773Y-61670196D01*
X128959504Y-61673796D01*
X128935000Y-61675000D01*
X127835000Y-61675000D01*
X127810496Y-61673796D01*
X127786227Y-61670196D01*
X127762429Y-61664235D01*
X127739329Y-61655970D01*
X127717151Y-61645480D01*
X127696107Y-61632867D01*
X127676402Y-61618253D01*
X127658223Y-61601777D01*
X127641747Y-61583598D01*
X127627133Y-61563893D01*
X127614520Y-61542849D01*
X127604030Y-61520671D01*
X127595765Y-61497571D01*
X127589804Y-61473773D01*
X127586204Y-61449504D01*
X127585000Y-61425000D01*
X127585000Y-60275000D01*
X127586204Y-60250496D01*
X127589804Y-60226227D01*
X127595765Y-60202429D01*
X127604030Y-60179329D01*
X127614520Y-60157151D01*
X127627133Y-60136107D01*
X127641747Y-60116402D01*
X127658223Y-60098223D01*
X127676402Y-60081747D01*
X127696107Y-60067133D01*
X127717151Y-60054520D01*
X127739329Y-60044030D01*
X127762429Y-60035765D01*
X127786227Y-60029804D01*
X127810496Y-60026204D01*
X127835000Y-60025000D01*
X128935000Y-60025000D01*
X128959504Y-60026204D01*
G37*
G36*
X126109504Y-60026204D02*
G01*
X126133773Y-60029804D01*
X126157571Y-60035765D01*
X126180671Y-60044030D01*
X126202849Y-60054520D01*
X126223893Y-60067133D01*
X126243598Y-60081747D01*
X126261777Y-60098223D01*
X126278253Y-60116402D01*
X126292867Y-60136107D01*
X126305480Y-60157151D01*
X126315970Y-60179329D01*
X126324235Y-60202429D01*
X126330196Y-60226227D01*
X126333796Y-60250496D01*
X126335000Y-60275000D01*
X126335000Y-61425000D01*
X126333796Y-61449504D01*
X126330196Y-61473773D01*
X126324235Y-61497571D01*
X126315970Y-61520671D01*
X126305480Y-61542849D01*
X126292867Y-61563893D01*
X126278253Y-61583598D01*
X126261777Y-61601777D01*
X126243598Y-61618253D01*
X126223893Y-61632867D01*
X126202849Y-61645480D01*
X126180671Y-61655970D01*
X126157571Y-61664235D01*
X126133773Y-61670196D01*
X126109504Y-61673796D01*
X126085000Y-61675000D01*
X124985000Y-61675000D01*
X124960496Y-61673796D01*
X124936227Y-61670196D01*
X124912429Y-61664235D01*
X124889329Y-61655970D01*
X124867151Y-61645480D01*
X124846107Y-61632867D01*
X124826402Y-61618253D01*
X124808223Y-61601777D01*
X124791747Y-61583598D01*
X124777133Y-61563893D01*
X124764520Y-61542849D01*
X124754030Y-61520671D01*
X124745765Y-61497571D01*
X124739804Y-61473773D01*
X124736204Y-61449504D01*
X124735000Y-61425000D01*
X124735000Y-60275000D01*
X124736204Y-60250496D01*
X124739804Y-60226227D01*
X124745765Y-60202429D01*
X124754030Y-60179329D01*
X124764520Y-60157151D01*
X124777133Y-60136107D01*
X124791747Y-60116402D01*
X124808223Y-60098223D01*
X124826402Y-60081747D01*
X124846107Y-60067133D01*
X124867151Y-60054520D01*
X124889329Y-60044030D01*
X124912429Y-60035765D01*
X124936227Y-60029804D01*
X124960496Y-60026204D01*
X124985000Y-60025000D01*
X126085000Y-60025000D01*
X126109504Y-60026204D01*
G37*
D13*
X134710000Y-71680000D03*
X134710000Y-73680000D03*
X134710000Y-75680000D03*
X134710000Y-77680000D03*
X134710000Y-79680000D03*
X134710000Y-81680000D03*
X134710000Y-83680000D03*
X134710000Y-85680000D03*
D14*
X132110000Y-87180000D03*
X130110000Y-87180000D03*
X128110000Y-87180000D03*
X126110000Y-87180000D03*
X124110000Y-87180000D03*
X122110000Y-87180000D03*
D13*
X119510000Y-85680000D03*
X119510000Y-83680000D03*
X119510000Y-81680000D03*
X119510000Y-79680000D03*
X119510000Y-77680000D03*
X119510000Y-75680000D03*
X119510000Y-73680000D03*
X119510000Y-71680000D03*
D15*
X122560000Y-107750000D03*
X123210000Y-107750000D03*
X123860000Y-107750000D03*
X123860000Y-105090000D03*
X123210000Y-105090000D03*
X122560000Y-105090000D03*
D16*
X134890000Y-92800000D03*
X134890000Y-101980000D03*
D12*
X131090000Y-58650000D03*
X131090000Y-61050000D03*
X126710000Y-89610000D03*
X126710000Y-92010000D03*
X131610000Y-89600000D03*
X131610000Y-92000000D03*
X124180000Y-89450000D03*
X124180000Y-91850000D03*
X129080000Y-89620000D03*
X129080000Y-92020000D03*
X121730000Y-89390000D03*
X121730000Y-91790000D03*
D11*
G36*
X120059504Y-104681204D02*
G01*
X120083773Y-104684804D01*
X120107571Y-104690765D01*
X120130671Y-104699030D01*
X120152849Y-104709520D01*
X120173893Y-104722133D01*
X120193598Y-104736747D01*
X120211777Y-104753223D01*
X120228253Y-104771402D01*
X120242867Y-104791107D01*
X120255480Y-104812151D01*
X120265970Y-104834329D01*
X120274235Y-104857429D01*
X120280196Y-104881227D01*
X120283796Y-104905496D01*
X120285000Y-104930000D01*
X120285000Y-105855000D01*
X120283796Y-105879504D01*
X120280196Y-105903773D01*
X120274235Y-105927571D01*
X120265970Y-105950671D01*
X120255480Y-105972849D01*
X120242867Y-105993893D01*
X120228253Y-106013598D01*
X120211777Y-106031777D01*
X120193598Y-106048253D01*
X120173893Y-106062867D01*
X120152849Y-106075480D01*
X120130671Y-106085970D01*
X120107571Y-106094235D01*
X120083773Y-106100196D01*
X120059504Y-106103796D01*
X120035000Y-106105000D01*
X117885000Y-106105000D01*
X117860496Y-106103796D01*
X117836227Y-106100196D01*
X117812429Y-106094235D01*
X117789329Y-106085970D01*
X117767151Y-106075480D01*
X117746107Y-106062867D01*
X117726402Y-106048253D01*
X117708223Y-106031777D01*
X117691747Y-106013598D01*
X117677133Y-105993893D01*
X117664520Y-105972849D01*
X117654030Y-105950671D01*
X117645765Y-105927571D01*
X117639804Y-105903773D01*
X117636204Y-105879504D01*
X117635000Y-105855000D01*
X117635000Y-104930000D01*
X117636204Y-104905496D01*
X117639804Y-104881227D01*
X117645765Y-104857429D01*
X117654030Y-104834329D01*
X117664520Y-104812151D01*
X117677133Y-104791107D01*
X117691747Y-104771402D01*
X117708223Y-104753223D01*
X117726402Y-104736747D01*
X117746107Y-104722133D01*
X117767151Y-104709520D01*
X117789329Y-104699030D01*
X117812429Y-104690765D01*
X117836227Y-104684804D01*
X117860496Y-104681204D01*
X117885000Y-104680000D01*
X120035000Y-104680000D01*
X120059504Y-104681204D01*
G37*
G36*
X120059504Y-107656204D02*
G01*
X120083773Y-107659804D01*
X120107571Y-107665765D01*
X120130671Y-107674030D01*
X120152849Y-107684520D01*
X120173893Y-107697133D01*
X120193598Y-107711747D01*
X120211777Y-107728223D01*
X120228253Y-107746402D01*
X120242867Y-107766107D01*
X120255480Y-107787151D01*
X120265970Y-107809329D01*
X120274235Y-107832429D01*
X120280196Y-107856227D01*
X120283796Y-107880496D01*
X120285000Y-107905000D01*
X120285000Y-108830000D01*
X120283796Y-108854504D01*
X120280196Y-108878773D01*
X120274235Y-108902571D01*
X120265970Y-108925671D01*
X120255480Y-108947849D01*
X120242867Y-108968893D01*
X120228253Y-108988598D01*
X120211777Y-109006777D01*
X120193598Y-109023253D01*
X120173893Y-109037867D01*
X120152849Y-109050480D01*
X120130671Y-109060970D01*
X120107571Y-109069235D01*
X120083773Y-109075196D01*
X120059504Y-109078796D01*
X120035000Y-109080000D01*
X117885000Y-109080000D01*
X117860496Y-109078796D01*
X117836227Y-109075196D01*
X117812429Y-109069235D01*
X117789329Y-109060970D01*
X117767151Y-109050480D01*
X117746107Y-109037867D01*
X117726402Y-109023253D01*
X117708223Y-109006777D01*
X117691747Y-108988598D01*
X117677133Y-108968893D01*
X117664520Y-108947849D01*
X117654030Y-108925671D01*
X117645765Y-108902571D01*
X117639804Y-108878773D01*
X117636204Y-108854504D01*
X117635000Y-108830000D01*
X117635000Y-107905000D01*
X117636204Y-107880496D01*
X117639804Y-107856227D01*
X117645765Y-107832429D01*
X117654030Y-107809329D01*
X117664520Y-107787151D01*
X117677133Y-107766107D01*
X117691747Y-107746402D01*
X117708223Y-107728223D01*
X117726402Y-107711747D01*
X117746107Y-107697133D01*
X117767151Y-107684520D01*
X117789329Y-107674030D01*
X117812429Y-107665765D01*
X117836227Y-107659804D01*
X117860496Y-107656204D01*
X117885000Y-107655000D01*
X120035000Y-107655000D01*
X120059504Y-107656204D01*
G37*
D17*
X122550000Y-102660000D03*
X124850000Y-102660000D03*
D18*
X118050000Y-61710000D03*
X118050000Y-59410000D03*
D17*
X124550000Y-110250000D03*
X122250000Y-110250000D03*
M02*
