M48
; DRILL file {KiCad (5.1.5)-1} date 18/02/2021 15:35:31
; FORMAT={-:-/ absolute / inch / decimal}
; #@! TF.CreationDate,2021-02-18T15:35:31+01:00
; #@! TF.GenerationSoftware,Kicad,Pcbnew,(5.1.5)-1
FMAT,2
INCH
T1C0.0157
T2C0.0295
T3C0.0394
T4C0.0402
T5C0.0433
T6C0.1039
%
G90
G05
T1
X4.7039Y-3.3748
X4.8094Y-3.4327
X4.815Y-4.3398
X4.8254Y-4.0439
X4.8846Y-4.2441
X4.889Y-3.5217
X4.9472Y-2.4012
X4.9866Y-3.622
X5.115Y-4.1504
X5.3039Y-3.2957
X5.3067Y-3.3748
X5.3138Y-4.0169
T2
X5.2335Y-4.35
X5.3122Y-4.35
T3
X4.6677Y-3.5343
X4.6677Y-3.6343
X4.6677Y-3.7343
X4.6677Y-3.8343
X4.6677Y-3.9343
X4.6677Y-4.0343
T4
X5.0Y-2.2654
X5.0Y-4.3122
T5
X4.876Y-1.8654
X4.876Y-2.0425
X5.1319Y-1.8654
X5.1319Y-2.0425
T6
X4.764Y-2.374
X5.236Y-4.2039
T0
M30
