G04 #@! TF.GenerationSoftware,KiCad,Pcbnew,(5.1.9)-1*
G04 #@! TF.CreationDate,2021-03-01T14:09:20+01:00*
G04 #@! TF.ProjectId,button,62757474-6f6e-42e6-9b69-6361645f7063,rev?*
G04 #@! TF.SameCoordinates,Original*
G04 #@! TF.FileFunction,Copper,L2,Bot*
G04 #@! TF.FilePolarity,Positive*
%FSLAX46Y46*%
G04 Gerber Fmt 4.6, Leading zero omitted, Abs format (unit mm)*
G04 Created by KiCad (PCBNEW (5.1.9)-1) date 2021-03-01 14:09:20*
%MOMM*%
%LPD*%
G01*
G04 APERTURE LIST*
G04 #@! TA.AperFunction,NonConductor*
%ADD10C,0.300000*%
G04 #@! TD*
G04 #@! TA.AperFunction,ComponentPad*
%ADD11O,1.200000X1.750000*%
G04 #@! TD*
G04 #@! TA.AperFunction,ComponentPad*
%ADD12O,1.700000X1.700000*%
G04 #@! TD*
G04 #@! TA.AperFunction,ComponentPad*
%ADD13R,1.700000X1.700000*%
G04 #@! TD*
G04 #@! TA.AperFunction,ComponentPad*
%ADD14C,2.000000*%
G04 #@! TD*
G04 #@! TA.AperFunction,ComponentPad*
%ADD15R,2.000000X2.000000*%
G04 #@! TD*
G04 #@! TA.AperFunction,ViaPad*
%ADD16C,0.800000*%
G04 #@! TD*
G04 #@! TA.AperFunction,ViaPad*
%ADD17C,0.500000*%
G04 #@! TD*
G04 #@! TA.AperFunction,Conductor*
%ADD18C,0.350000*%
G04 #@! TD*
G04 #@! TA.AperFunction,Conductor*
%ADD19C,0.500000*%
G04 #@! TD*
G04 #@! TA.AperFunction,Conductor*
%ADD20C,0.254000*%
G04 #@! TD*
G04 #@! TA.AperFunction,Conductor*
%ADD21C,0.100000*%
G04 #@! TD*
G04 APERTURE END LIST*
D10*
X118650714Y-112312857D02*
X119150714Y-112312857D01*
X119248928Y-113098571D02*
X119061428Y-111598571D01*
X118347142Y-111598571D01*
X117248928Y-113098571D02*
X117963214Y-113098571D01*
X117775714Y-111598571D01*
D11*
G04 #@! TO.P,BT2,2*
G04 #@! TO.N,/GND*
X134930000Y-110490000D03*
G04 #@! TO.P,BT2,1*
G04 #@! TO.N,Net-(BT1-Pad1)*
G04 #@! TA.AperFunction,ComponentPad*
G36*
G01*
X132330000Y-111115001D02*
X132330000Y-109864999D01*
G75*
G02*
X132579999Y-109615000I249999J0D01*
G01*
X133280001Y-109615000D01*
G75*
G02*
X133530000Y-109864999I0J-249999D01*
G01*
X133530000Y-111115001D01*
G75*
G02*
X133280001Y-111365000I-249999J0D01*
G01*
X132579999Y-111365000D01*
G75*
G02*
X132330000Y-111115001I0J249999D01*
G01*
G37*
G04 #@! TD.AperFunction*
G04 #@! TD*
D12*
G04 #@! TO.P,J1,6*
G04 #@! TO.N,/VCC*
X118560000Y-102470000D03*
G04 #@! TO.P,J1,5*
G04 #@! TO.N,/GND*
X118560000Y-99930000D03*
G04 #@! TO.P,J1,4*
G04 #@! TO.N,/RX*
X118560000Y-97390000D03*
G04 #@! TO.P,J1,3*
G04 #@! TO.N,/TX*
X118560000Y-94850000D03*
G04 #@! TO.P,J1,2*
G04 #@! TO.N,/RST*
X118560000Y-92310000D03*
D13*
G04 #@! TO.P,J1,1*
G04 #@! TO.N,N/C*
X118560000Y-89770000D03*
G04 #@! TD*
D14*
G04 #@! TO.P,SW1,1*
G04 #@! TO.N,/RST*
X123850000Y-51880000D03*
G04 #@! TO.P,SW1,2*
G04 #@! TO.N,/GND*
X123850000Y-47380000D03*
G04 #@! TO.P,SW1,1*
G04 #@! TO.N,/RST*
X130350000Y-51880000D03*
G04 #@! TO.P,SW1,2*
G04 #@! TO.N,/GND*
X130350000Y-47380000D03*
G04 #@! TD*
D15*
G04 #@! TO.P,BT1,1*
G04 #@! TO.N,Net-(BT1-Pad1)*
X127000000Y-109530000D03*
D14*
G04 #@! TO.P,BT1,2*
G04 #@! TO.N,/GND*
X127000000Y-57540000D03*
G04 #@! TD*
D16*
G04 #@! TO.N,/VCC*
X119654000Y-85430000D03*
X125550000Y-61075000D03*
G04 #@! TO.N,/GND*
X121750000Y-97100000D03*
X121700000Y-96025000D03*
D17*
X117400000Y-72725000D03*
D16*
X131500000Y-91875000D03*
X134800000Y-85425000D03*
X135000000Y-102000000D03*
X123000000Y-101000000D03*
X129000000Y-107500000D03*
X124000000Y-107000000D03*
D17*
X118000000Y-88000000D03*
D16*
G04 #@! TO.N,/RST*
X119654000Y-71430000D03*
G04 #@! TO.N,/RX*
X134750000Y-73375000D03*
G04 #@! TO.N,/TX*
X134775000Y-71375000D03*
G04 #@! TD*
D18*
G04 #@! TO.N,/VCC*
X119654000Y-85430000D02*
X119654000Y-74046000D01*
X119654000Y-74046000D02*
X119654000Y-72846000D01*
X119654000Y-72846000D02*
X120875000Y-71625000D01*
X120875000Y-71625000D02*
X120875000Y-71425000D01*
X120875000Y-71425000D02*
X118950000Y-69500000D01*
X118950000Y-69500000D02*
X118950000Y-63100000D01*
X118950000Y-63100000D02*
X119950000Y-62100000D01*
X119950000Y-62100000D02*
X124525000Y-62100000D01*
X124525000Y-62100000D02*
X125550000Y-61075000D01*
X125550000Y-61075000D02*
X125550000Y-61075000D01*
D19*
G04 #@! TO.N,/GND*
X117400000Y-61285398D02*
X117400000Y-72725000D01*
X121145398Y-57540000D02*
X117400000Y-61285398D01*
X127000000Y-57540000D02*
X121145398Y-57540000D01*
D18*
G04 #@! TO.N,/RST*
X118560000Y-92310000D02*
X118560000Y-92060000D01*
X117334999Y-91084999D02*
X118560000Y-92310000D01*
X117334999Y-86340001D02*
X117334999Y-91084999D01*
X118525000Y-85150000D02*
X117334999Y-86340001D01*
X118525000Y-72559000D02*
X118525000Y-85150000D01*
X119654000Y-71430000D02*
X118525000Y-72559000D01*
D19*
G04 #@! TO.N,/RX*
X118560000Y-97390000D02*
X131150000Y-84800000D01*
X131150000Y-84800000D02*
X131150000Y-74850000D01*
X131150000Y-74850000D02*
X132625000Y-73375000D01*
X132625000Y-73375000D02*
X134750000Y-73375000D01*
X134750000Y-73375000D02*
X134750000Y-73375000D01*
G04 #@! TO.N,/TX*
X118560000Y-94850000D02*
X129825000Y-83585000D01*
X129825000Y-83585000D02*
X129825000Y-73700000D01*
X129825000Y-73700000D02*
X132150000Y-71375000D01*
X132150000Y-71375000D02*
X134775000Y-71375000D01*
X134775000Y-71375000D02*
X134775000Y-71375000D01*
G04 #@! TD*
D20*
G04 #@! TO.N,/GND*
X136461900Y-70348971D02*
X136461901Y-112852600D01*
X120235000Y-112852600D01*
X120235000Y-110630000D01*
X117461750Y-110630000D01*
X117461641Y-108530000D01*
X125361928Y-108530000D01*
X125361928Y-110530000D01*
X125374188Y-110654482D01*
X125410498Y-110774180D01*
X125469463Y-110884494D01*
X125548815Y-110981185D01*
X125645506Y-111060537D01*
X125755820Y-111119502D01*
X125875518Y-111155812D01*
X126000000Y-111168072D01*
X128000000Y-111168072D01*
X128124482Y-111155812D01*
X128244180Y-111119502D01*
X128354494Y-111060537D01*
X128451185Y-110981185D01*
X128530537Y-110884494D01*
X128589502Y-110774180D01*
X128625812Y-110654482D01*
X128638072Y-110530000D01*
X128638072Y-109864999D01*
X131691928Y-109864999D01*
X131691928Y-111115001D01*
X131708992Y-111288255D01*
X131759528Y-111454851D01*
X131841595Y-111608387D01*
X131952038Y-111742962D01*
X132086613Y-111853405D01*
X132240149Y-111935472D01*
X132406745Y-111986008D01*
X132579999Y-112003072D01*
X133280001Y-112003072D01*
X133453255Y-111986008D01*
X133619851Y-111935472D01*
X133773387Y-111853405D01*
X133907962Y-111742962D01*
X134018405Y-111608387D01*
X134020967Y-111603594D01*
X134146526Y-111728078D01*
X134349467Y-111862421D01*
X134574718Y-111954591D01*
X134612391Y-111958462D01*
X134803000Y-111833731D01*
X134803000Y-110617000D01*
X135057000Y-110617000D01*
X135057000Y-111833731D01*
X135247609Y-111958462D01*
X135285282Y-111954591D01*
X135510533Y-111862421D01*
X135713474Y-111728078D01*
X135886307Y-111556725D01*
X136022390Y-111354946D01*
X136116493Y-111130496D01*
X136165000Y-110892000D01*
X136165000Y-110617000D01*
X135057000Y-110617000D01*
X134803000Y-110617000D01*
X134783000Y-110617000D01*
X134783000Y-110363000D01*
X134803000Y-110363000D01*
X134803000Y-109146269D01*
X135057000Y-109146269D01*
X135057000Y-110363000D01*
X136165000Y-110363000D01*
X136165000Y-110088000D01*
X136116493Y-109849504D01*
X136022390Y-109625054D01*
X135886307Y-109423275D01*
X135713474Y-109251922D01*
X135510533Y-109117579D01*
X135285282Y-109025409D01*
X135247609Y-109021538D01*
X135057000Y-109146269D01*
X134803000Y-109146269D01*
X134612391Y-109021538D01*
X134574718Y-109025409D01*
X134349467Y-109117579D01*
X134146526Y-109251922D01*
X134020967Y-109376406D01*
X134018405Y-109371613D01*
X133907962Y-109237038D01*
X133773387Y-109126595D01*
X133619851Y-109044528D01*
X133453255Y-108993992D01*
X133280001Y-108976928D01*
X132579999Y-108976928D01*
X132406745Y-108993992D01*
X132240149Y-109044528D01*
X132086613Y-109126595D01*
X131952038Y-109237038D01*
X131841595Y-109371613D01*
X131759528Y-109525149D01*
X131708992Y-109691745D01*
X131691928Y-109864999D01*
X128638072Y-109864999D01*
X128638072Y-108530000D01*
X128625812Y-108405518D01*
X128589502Y-108285820D01*
X128530537Y-108175506D01*
X128451185Y-108078815D01*
X128354494Y-107999463D01*
X128244180Y-107940498D01*
X128124482Y-107904188D01*
X128000000Y-107891928D01*
X126000000Y-107891928D01*
X125875518Y-107904188D01*
X125755820Y-107940498D01*
X125645506Y-107999463D01*
X125548815Y-108078815D01*
X125469463Y-108175506D01*
X125410498Y-108285820D01*
X125374188Y-108405518D01*
X125361928Y-108530000D01*
X117461641Y-108530000D01*
X117461541Y-106587449D01*
X131040000Y-106587449D01*
X131040000Y-106972551D01*
X131115130Y-107350252D01*
X131262502Y-107706040D01*
X131476453Y-108026240D01*
X131748760Y-108298547D01*
X132068960Y-108512498D01*
X132424748Y-108659870D01*
X132802449Y-108735000D01*
X133187551Y-108735000D01*
X133565252Y-108659870D01*
X133921040Y-108512498D01*
X134241240Y-108298547D01*
X134513547Y-108026240D01*
X134727498Y-107706040D01*
X134874870Y-107350252D01*
X134950000Y-106972551D01*
X134950000Y-106587449D01*
X134874870Y-106209748D01*
X134727498Y-105853960D01*
X134513547Y-105533760D01*
X134241240Y-105261453D01*
X133921040Y-105047502D01*
X133565252Y-104900130D01*
X133187551Y-104825000D01*
X132802449Y-104825000D01*
X132424748Y-104900130D01*
X132068960Y-105047502D01*
X131748760Y-105261453D01*
X131476453Y-105533760D01*
X131262502Y-105853960D01*
X131115130Y-106209748D01*
X131040000Y-106587449D01*
X117461541Y-106587449D01*
X117461378Y-103471485D01*
X117613368Y-103623475D01*
X117856589Y-103785990D01*
X118126842Y-103897932D01*
X118413740Y-103955000D01*
X118706260Y-103955000D01*
X118993158Y-103897932D01*
X119263411Y-103785990D01*
X119506632Y-103623475D01*
X119713475Y-103416632D01*
X119875990Y-103173411D01*
X119987932Y-102903158D01*
X120045000Y-102616260D01*
X120045000Y-102323740D01*
X119987932Y-102036842D01*
X119875990Y-101766589D01*
X119713475Y-101523368D01*
X119506632Y-101316525D01*
X119324466Y-101194805D01*
X119441355Y-101125178D01*
X119657588Y-100930269D01*
X119831641Y-100696920D01*
X119956825Y-100434099D01*
X120001476Y-100286890D01*
X119880155Y-100057000D01*
X118687000Y-100057000D01*
X118687000Y-100077000D01*
X118433000Y-100077000D01*
X118433000Y-100057000D01*
X118413000Y-100057000D01*
X118413000Y-99803000D01*
X118433000Y-99803000D01*
X118433000Y-99783000D01*
X118687000Y-99783000D01*
X118687000Y-99803000D01*
X119880155Y-99803000D01*
X120001476Y-99573110D01*
X119956825Y-99425901D01*
X119831641Y-99163080D01*
X119657588Y-98929731D01*
X119441355Y-98734822D01*
X119324466Y-98665195D01*
X119506632Y-98543475D01*
X119713475Y-98336632D01*
X119875990Y-98093411D01*
X119987932Y-97823158D01*
X120045000Y-97536260D01*
X120045000Y-97243740D01*
X120030539Y-97171039D01*
X131745051Y-85456528D01*
X131778817Y-85428817D01*
X131889411Y-85294059D01*
X131971589Y-85140313D01*
X132022195Y-84973490D01*
X132035000Y-84843477D01*
X132035000Y-84843469D01*
X132039281Y-84800000D01*
X132035000Y-84756531D01*
X132035000Y-75216578D01*
X132991579Y-74260000D01*
X134211546Y-74260000D01*
X134259744Y-74292205D01*
X134448102Y-74370226D01*
X134648061Y-74410000D01*
X134851939Y-74410000D01*
X135051898Y-74370226D01*
X135240256Y-74292205D01*
X135409774Y-74178937D01*
X135553937Y-74034774D01*
X135667205Y-73865256D01*
X135745226Y-73676898D01*
X135785000Y-73476939D01*
X135785000Y-73273061D01*
X135745226Y-73073102D01*
X135667205Y-72884744D01*
X135553937Y-72715226D01*
X135409774Y-72571063D01*
X135240256Y-72457795D01*
X135051898Y-72379774D01*
X135040397Y-72377486D01*
X135076898Y-72370226D01*
X135265256Y-72292205D01*
X135434774Y-72178937D01*
X135578937Y-72034774D01*
X135692205Y-71865256D01*
X135770226Y-71676898D01*
X135810000Y-71476939D01*
X135810000Y-71273061D01*
X135770226Y-71073102D01*
X135692205Y-70884744D01*
X135578937Y-70715226D01*
X135434774Y-70571063D01*
X135265256Y-70457795D01*
X135076898Y-70379774D01*
X134903975Y-70345378D01*
X136461900Y-70348971D01*
G04 #@! TA.AperFunction,Conductor*
D21*
G36*
X136461900Y-70348971D02*
G01*
X136461901Y-112852600D01*
X120235000Y-112852600D01*
X120235000Y-110630000D01*
X117461750Y-110630000D01*
X117461641Y-108530000D01*
X125361928Y-108530000D01*
X125361928Y-110530000D01*
X125374188Y-110654482D01*
X125410498Y-110774180D01*
X125469463Y-110884494D01*
X125548815Y-110981185D01*
X125645506Y-111060537D01*
X125755820Y-111119502D01*
X125875518Y-111155812D01*
X126000000Y-111168072D01*
X128000000Y-111168072D01*
X128124482Y-111155812D01*
X128244180Y-111119502D01*
X128354494Y-111060537D01*
X128451185Y-110981185D01*
X128530537Y-110884494D01*
X128589502Y-110774180D01*
X128625812Y-110654482D01*
X128638072Y-110530000D01*
X128638072Y-109864999D01*
X131691928Y-109864999D01*
X131691928Y-111115001D01*
X131708992Y-111288255D01*
X131759528Y-111454851D01*
X131841595Y-111608387D01*
X131952038Y-111742962D01*
X132086613Y-111853405D01*
X132240149Y-111935472D01*
X132406745Y-111986008D01*
X132579999Y-112003072D01*
X133280001Y-112003072D01*
X133453255Y-111986008D01*
X133619851Y-111935472D01*
X133773387Y-111853405D01*
X133907962Y-111742962D01*
X134018405Y-111608387D01*
X134020967Y-111603594D01*
X134146526Y-111728078D01*
X134349467Y-111862421D01*
X134574718Y-111954591D01*
X134612391Y-111958462D01*
X134803000Y-111833731D01*
X134803000Y-110617000D01*
X135057000Y-110617000D01*
X135057000Y-111833731D01*
X135247609Y-111958462D01*
X135285282Y-111954591D01*
X135510533Y-111862421D01*
X135713474Y-111728078D01*
X135886307Y-111556725D01*
X136022390Y-111354946D01*
X136116493Y-111130496D01*
X136165000Y-110892000D01*
X136165000Y-110617000D01*
X135057000Y-110617000D01*
X134803000Y-110617000D01*
X134783000Y-110617000D01*
X134783000Y-110363000D01*
X134803000Y-110363000D01*
X134803000Y-109146269D01*
X135057000Y-109146269D01*
X135057000Y-110363000D01*
X136165000Y-110363000D01*
X136165000Y-110088000D01*
X136116493Y-109849504D01*
X136022390Y-109625054D01*
X135886307Y-109423275D01*
X135713474Y-109251922D01*
X135510533Y-109117579D01*
X135285282Y-109025409D01*
X135247609Y-109021538D01*
X135057000Y-109146269D01*
X134803000Y-109146269D01*
X134612391Y-109021538D01*
X134574718Y-109025409D01*
X134349467Y-109117579D01*
X134146526Y-109251922D01*
X134020967Y-109376406D01*
X134018405Y-109371613D01*
X133907962Y-109237038D01*
X133773387Y-109126595D01*
X133619851Y-109044528D01*
X133453255Y-108993992D01*
X133280001Y-108976928D01*
X132579999Y-108976928D01*
X132406745Y-108993992D01*
X132240149Y-109044528D01*
X132086613Y-109126595D01*
X131952038Y-109237038D01*
X131841595Y-109371613D01*
X131759528Y-109525149D01*
X131708992Y-109691745D01*
X131691928Y-109864999D01*
X128638072Y-109864999D01*
X128638072Y-108530000D01*
X128625812Y-108405518D01*
X128589502Y-108285820D01*
X128530537Y-108175506D01*
X128451185Y-108078815D01*
X128354494Y-107999463D01*
X128244180Y-107940498D01*
X128124482Y-107904188D01*
X128000000Y-107891928D01*
X126000000Y-107891928D01*
X125875518Y-107904188D01*
X125755820Y-107940498D01*
X125645506Y-107999463D01*
X125548815Y-108078815D01*
X125469463Y-108175506D01*
X125410498Y-108285820D01*
X125374188Y-108405518D01*
X125361928Y-108530000D01*
X117461641Y-108530000D01*
X117461541Y-106587449D01*
X131040000Y-106587449D01*
X131040000Y-106972551D01*
X131115130Y-107350252D01*
X131262502Y-107706040D01*
X131476453Y-108026240D01*
X131748760Y-108298547D01*
X132068960Y-108512498D01*
X132424748Y-108659870D01*
X132802449Y-108735000D01*
X133187551Y-108735000D01*
X133565252Y-108659870D01*
X133921040Y-108512498D01*
X134241240Y-108298547D01*
X134513547Y-108026240D01*
X134727498Y-107706040D01*
X134874870Y-107350252D01*
X134950000Y-106972551D01*
X134950000Y-106587449D01*
X134874870Y-106209748D01*
X134727498Y-105853960D01*
X134513547Y-105533760D01*
X134241240Y-105261453D01*
X133921040Y-105047502D01*
X133565252Y-104900130D01*
X133187551Y-104825000D01*
X132802449Y-104825000D01*
X132424748Y-104900130D01*
X132068960Y-105047502D01*
X131748760Y-105261453D01*
X131476453Y-105533760D01*
X131262502Y-105853960D01*
X131115130Y-106209748D01*
X131040000Y-106587449D01*
X117461541Y-106587449D01*
X117461378Y-103471485D01*
X117613368Y-103623475D01*
X117856589Y-103785990D01*
X118126842Y-103897932D01*
X118413740Y-103955000D01*
X118706260Y-103955000D01*
X118993158Y-103897932D01*
X119263411Y-103785990D01*
X119506632Y-103623475D01*
X119713475Y-103416632D01*
X119875990Y-103173411D01*
X119987932Y-102903158D01*
X120045000Y-102616260D01*
X120045000Y-102323740D01*
X119987932Y-102036842D01*
X119875990Y-101766589D01*
X119713475Y-101523368D01*
X119506632Y-101316525D01*
X119324466Y-101194805D01*
X119441355Y-101125178D01*
X119657588Y-100930269D01*
X119831641Y-100696920D01*
X119956825Y-100434099D01*
X120001476Y-100286890D01*
X119880155Y-100057000D01*
X118687000Y-100057000D01*
X118687000Y-100077000D01*
X118433000Y-100077000D01*
X118433000Y-100057000D01*
X118413000Y-100057000D01*
X118413000Y-99803000D01*
X118433000Y-99803000D01*
X118433000Y-99783000D01*
X118687000Y-99783000D01*
X118687000Y-99803000D01*
X119880155Y-99803000D01*
X120001476Y-99573110D01*
X119956825Y-99425901D01*
X119831641Y-99163080D01*
X119657588Y-98929731D01*
X119441355Y-98734822D01*
X119324466Y-98665195D01*
X119506632Y-98543475D01*
X119713475Y-98336632D01*
X119875990Y-98093411D01*
X119987932Y-97823158D01*
X120045000Y-97536260D01*
X120045000Y-97243740D01*
X120030539Y-97171039D01*
X131745051Y-85456528D01*
X131778817Y-85428817D01*
X131889411Y-85294059D01*
X131971589Y-85140313D01*
X132022195Y-84973490D01*
X132035000Y-84843477D01*
X132035000Y-84843469D01*
X132039281Y-84800000D01*
X132035000Y-84756531D01*
X132035000Y-75216578D01*
X132991579Y-74260000D01*
X134211546Y-74260000D01*
X134259744Y-74292205D01*
X134448102Y-74370226D01*
X134648061Y-74410000D01*
X134851939Y-74410000D01*
X135051898Y-74370226D01*
X135240256Y-74292205D01*
X135409774Y-74178937D01*
X135553937Y-74034774D01*
X135667205Y-73865256D01*
X135745226Y-73676898D01*
X135785000Y-73476939D01*
X135785000Y-73273061D01*
X135745226Y-73073102D01*
X135667205Y-72884744D01*
X135553937Y-72715226D01*
X135409774Y-72571063D01*
X135240256Y-72457795D01*
X135051898Y-72379774D01*
X135040397Y-72377486D01*
X135076898Y-72370226D01*
X135265256Y-72292205D01*
X135434774Y-72178937D01*
X135578937Y-72034774D01*
X135692205Y-71865256D01*
X135770226Y-71676898D01*
X135810000Y-71476939D01*
X135810000Y-71273061D01*
X135770226Y-71073102D01*
X135692205Y-70884744D01*
X135578937Y-70715226D01*
X135434774Y-70571063D01*
X135265256Y-70457795D01*
X135076898Y-70379774D01*
X134903975Y-70345378D01*
X136461900Y-70348971D01*
G37*
G04 #@! TD.AperFunction*
D20*
X118612284Y-70307796D02*
X118962388Y-70657901D01*
X118850063Y-70770226D01*
X118736795Y-70939744D01*
X118658774Y-71128102D01*
X118621129Y-71317359D01*
X117980387Y-71958101D01*
X117949472Y-71983472D01*
X117896746Y-72047720D01*
X117848251Y-72106811D01*
X117810755Y-72176962D01*
X117773037Y-72247528D01*
X117726720Y-72400213D01*
X117718299Y-72485719D01*
X117711081Y-72559000D01*
X117715000Y-72598788D01*
X117715001Y-84814486D01*
X117460421Y-85069066D01*
X117459654Y-70305137D01*
X118612284Y-70307796D01*
G04 #@! TA.AperFunction,Conductor*
D21*
G36*
X118612284Y-70307796D02*
G01*
X118962388Y-70657901D01*
X118850063Y-70770226D01*
X118736795Y-70939744D01*
X118658774Y-71128102D01*
X118621129Y-71317359D01*
X117980387Y-71958101D01*
X117949472Y-71983472D01*
X117896746Y-72047720D01*
X117848251Y-72106811D01*
X117810755Y-72176962D01*
X117773037Y-72247528D01*
X117726720Y-72400213D01*
X117718299Y-72485719D01*
X117711081Y-72559000D01*
X117715000Y-72598788D01*
X117715001Y-84814486D01*
X117460421Y-85069066D01*
X117459654Y-70305137D01*
X118612284Y-70307796D01*
G37*
G04 #@! TD.AperFunction*
G04 #@! TD*
D20*
G04 #@! TO.N,/GND*
X128581162Y-44787507D02*
X129742190Y-45064203D01*
X130859370Y-45484228D01*
X131915104Y-46040964D01*
X132892734Y-46725627D01*
X133776846Y-47527423D01*
X134553496Y-48433706D01*
X135210433Y-49430181D01*
X135737296Y-50501128D01*
X136125781Y-51629673D01*
X136369761Y-52798016D01*
X136466355Y-53999801D01*
X136462186Y-54473079D01*
X136461900Y-54475982D01*
X136461900Y-62600813D01*
X125157290Y-62613222D01*
X125662641Y-62107871D01*
X125851898Y-62070226D01*
X126040256Y-61992205D01*
X126209774Y-61878937D01*
X126353937Y-61734774D01*
X126467205Y-61565256D01*
X126545226Y-61376898D01*
X126585000Y-61176939D01*
X126585000Y-60973061D01*
X126545226Y-60773102D01*
X126467205Y-60584744D01*
X126353937Y-60415226D01*
X126209774Y-60271063D01*
X126040256Y-60157795D01*
X125851898Y-60079774D01*
X125651939Y-60040000D01*
X125448061Y-60040000D01*
X125248102Y-60079774D01*
X125059744Y-60157795D01*
X124890226Y-60271063D01*
X124746063Y-60415226D01*
X124632795Y-60584744D01*
X124554774Y-60773102D01*
X124517129Y-60962359D01*
X124189488Y-61290000D01*
X122694761Y-61290000D01*
X122737498Y-61226040D01*
X122884870Y-60870252D01*
X122960000Y-60492551D01*
X122960000Y-60107449D01*
X122884870Y-59729748D01*
X122737498Y-59373960D01*
X122523547Y-59053760D01*
X122251240Y-58781453D01*
X122092541Y-58675413D01*
X126044192Y-58675413D01*
X126139956Y-58939814D01*
X126429571Y-59080704D01*
X126741108Y-59162384D01*
X127062595Y-59181718D01*
X127381675Y-59137961D01*
X127686088Y-59032795D01*
X127860044Y-58939814D01*
X127955808Y-58675413D01*
X127000000Y-57719605D01*
X126044192Y-58675413D01*
X122092541Y-58675413D01*
X121931040Y-58567502D01*
X121575252Y-58420130D01*
X121197551Y-58345000D01*
X120812449Y-58345000D01*
X120434748Y-58420130D01*
X120078960Y-58567502D01*
X119758760Y-58781453D01*
X119486453Y-59053760D01*
X119272502Y-59373960D01*
X119125130Y-59729748D01*
X119050000Y-60107449D01*
X119050000Y-60492551D01*
X119125130Y-60870252D01*
X119272502Y-61226040D01*
X119437401Y-61472828D01*
X119374472Y-61524472D01*
X119349107Y-61555380D01*
X118405383Y-62499105D01*
X118374473Y-62524472D01*
X118349108Y-62555380D01*
X118295456Y-62620754D01*
X117459254Y-62621672D01*
X117458994Y-57602595D01*
X125358282Y-57602595D01*
X125402039Y-57921675D01*
X125507205Y-58226088D01*
X125600186Y-58400044D01*
X125864587Y-58495808D01*
X126820395Y-57540000D01*
X127179605Y-57540000D01*
X128135413Y-58495808D01*
X128399814Y-58400044D01*
X128540704Y-58110429D01*
X128622384Y-57798892D01*
X128641718Y-57477405D01*
X128597961Y-57158325D01*
X128492795Y-56853912D01*
X128399814Y-56679956D01*
X128135413Y-56584192D01*
X127179605Y-57540000D01*
X126820395Y-57540000D01*
X125864587Y-56584192D01*
X125600186Y-56679956D01*
X125459296Y-56969571D01*
X125377616Y-57281108D01*
X125358282Y-57602595D01*
X117458994Y-57602595D01*
X117458932Y-56404587D01*
X126044192Y-56404587D01*
X127000000Y-57360395D01*
X127955808Y-56404587D01*
X127860044Y-56140186D01*
X127570429Y-55999296D01*
X127258892Y-55917616D01*
X126937405Y-55898282D01*
X126618325Y-55942039D01*
X126313912Y-56047205D01*
X126139956Y-56140186D01*
X126044192Y-56404587D01*
X117458932Y-56404587D01*
X117458824Y-54344370D01*
X117514269Y-53125589D01*
X117717517Y-51949482D01*
X117788013Y-51718967D01*
X122215000Y-51718967D01*
X122215000Y-52041033D01*
X122277832Y-52356912D01*
X122401082Y-52654463D01*
X122580013Y-52922252D01*
X122807748Y-53149987D01*
X123075537Y-53328918D01*
X123373088Y-53452168D01*
X123688967Y-53515000D01*
X124011033Y-53515000D01*
X124326912Y-53452168D01*
X124624463Y-53328918D01*
X124892252Y-53149987D01*
X125119987Y-52922252D01*
X125298918Y-52654463D01*
X125422168Y-52356912D01*
X125485000Y-52041033D01*
X125485000Y-51718967D01*
X128715000Y-51718967D01*
X128715000Y-52041033D01*
X128777832Y-52356912D01*
X128901082Y-52654463D01*
X129080013Y-52922252D01*
X129307748Y-53149987D01*
X129575537Y-53328918D01*
X129873088Y-53452168D01*
X130188967Y-53515000D01*
X130511033Y-53515000D01*
X130826912Y-53452168D01*
X131124463Y-53328918D01*
X131392252Y-53149987D01*
X131619987Y-52922252D01*
X131798918Y-52654463D01*
X131922168Y-52356912D01*
X131985000Y-52041033D01*
X131985000Y-51718967D01*
X131922168Y-51403088D01*
X131798918Y-51105537D01*
X131619987Y-50837748D01*
X131392252Y-50610013D01*
X131124463Y-50431082D01*
X130826912Y-50307832D01*
X130511033Y-50245000D01*
X130188967Y-50245000D01*
X129873088Y-50307832D01*
X129575537Y-50431082D01*
X129307748Y-50610013D01*
X129080013Y-50837748D01*
X128901082Y-51105537D01*
X128777832Y-51403088D01*
X128715000Y-51718967D01*
X125485000Y-51718967D01*
X125422168Y-51403088D01*
X125298918Y-51105537D01*
X125119987Y-50837748D01*
X124892252Y-50610013D01*
X124624463Y-50431082D01*
X124326912Y-50307832D01*
X124011033Y-50245000D01*
X123688967Y-50245000D01*
X123373088Y-50307832D01*
X123075537Y-50431082D01*
X122807748Y-50610013D01*
X122580013Y-50837748D01*
X122401082Y-51105537D01*
X122277832Y-51403088D01*
X122215000Y-51718967D01*
X117788013Y-51718967D01*
X118066566Y-50808129D01*
X118555912Y-49719523D01*
X119177840Y-48700831D01*
X119325881Y-48515413D01*
X122894192Y-48515413D01*
X122989956Y-48779814D01*
X123279571Y-48920704D01*
X123591108Y-49002384D01*
X123912595Y-49021718D01*
X124231675Y-48977961D01*
X124536088Y-48872795D01*
X124710044Y-48779814D01*
X124805808Y-48515413D01*
X129394192Y-48515413D01*
X129489956Y-48779814D01*
X129779571Y-48920704D01*
X130091108Y-49002384D01*
X130412595Y-49021718D01*
X130731675Y-48977961D01*
X131036088Y-48872795D01*
X131210044Y-48779814D01*
X131305808Y-48515413D01*
X130350000Y-47559605D01*
X129394192Y-48515413D01*
X124805808Y-48515413D01*
X123850000Y-47559605D01*
X122894192Y-48515413D01*
X119325881Y-48515413D01*
X119922538Y-47768118D01*
X120257335Y-47442595D01*
X122208282Y-47442595D01*
X122252039Y-47761675D01*
X122357205Y-48066088D01*
X122450186Y-48240044D01*
X122714587Y-48335808D01*
X123670395Y-47380000D01*
X124029605Y-47380000D01*
X124985413Y-48335808D01*
X125249814Y-48240044D01*
X125390704Y-47950429D01*
X125472384Y-47638892D01*
X125484189Y-47442595D01*
X128708282Y-47442595D01*
X128752039Y-47761675D01*
X128857205Y-48066088D01*
X128950186Y-48240044D01*
X129214587Y-48335808D01*
X130170395Y-47380000D01*
X130529605Y-47380000D01*
X131485413Y-48335808D01*
X131749814Y-48240044D01*
X131890704Y-47950429D01*
X131972384Y-47638892D01*
X131991718Y-47317405D01*
X131947961Y-46998325D01*
X131842795Y-46693912D01*
X131749814Y-46519956D01*
X131485413Y-46424192D01*
X130529605Y-47380000D01*
X130170395Y-47380000D01*
X129214587Y-46424192D01*
X128950186Y-46519956D01*
X128809296Y-46809571D01*
X128727616Y-47121108D01*
X128708282Y-47442595D01*
X125484189Y-47442595D01*
X125491718Y-47317405D01*
X125447961Y-46998325D01*
X125342795Y-46693912D01*
X125249814Y-46519956D01*
X124985413Y-46424192D01*
X124029605Y-47380000D01*
X123670395Y-47380000D01*
X122714587Y-46424192D01*
X122450186Y-46519956D01*
X122309296Y-46809571D01*
X122227616Y-47121108D01*
X122208282Y-47442595D01*
X120257335Y-47442595D01*
X120778270Y-46936092D01*
X121696084Y-46244587D01*
X122894192Y-46244587D01*
X123850000Y-47200395D01*
X124805808Y-46244587D01*
X129394192Y-46244587D01*
X130350000Y-47200395D01*
X131305808Y-46244587D01*
X131210044Y-45980186D01*
X130920429Y-45839296D01*
X130608892Y-45757616D01*
X130287405Y-45738282D01*
X129968325Y-45782039D01*
X129663912Y-45887205D01*
X129489956Y-45980186D01*
X129394192Y-46244587D01*
X124805808Y-46244587D01*
X124710044Y-45980186D01*
X124420429Y-45839296D01*
X124108892Y-45757616D01*
X123787405Y-45738282D01*
X123468325Y-45782039D01*
X123163912Y-45887205D01*
X122989956Y-45980186D01*
X122894192Y-46244587D01*
X121696084Y-46244587D01*
X121731524Y-46217886D01*
X122767284Y-45624813D01*
X123869208Y-45166232D01*
X125019911Y-44849377D01*
X126201266Y-44679241D01*
X127394615Y-44658508D01*
X128581162Y-44787507D01*
G04 #@! TA.AperFunction,Conductor*
D21*
G36*
X128581162Y-44787507D02*
G01*
X129742190Y-45064203D01*
X130859370Y-45484228D01*
X131915104Y-46040964D01*
X132892734Y-46725627D01*
X133776846Y-47527423D01*
X134553496Y-48433706D01*
X135210433Y-49430181D01*
X135737296Y-50501128D01*
X136125781Y-51629673D01*
X136369761Y-52798016D01*
X136466355Y-53999801D01*
X136462186Y-54473079D01*
X136461900Y-54475982D01*
X136461900Y-62600813D01*
X125157290Y-62613222D01*
X125662641Y-62107871D01*
X125851898Y-62070226D01*
X126040256Y-61992205D01*
X126209774Y-61878937D01*
X126353937Y-61734774D01*
X126467205Y-61565256D01*
X126545226Y-61376898D01*
X126585000Y-61176939D01*
X126585000Y-60973061D01*
X126545226Y-60773102D01*
X126467205Y-60584744D01*
X126353937Y-60415226D01*
X126209774Y-60271063D01*
X126040256Y-60157795D01*
X125851898Y-60079774D01*
X125651939Y-60040000D01*
X125448061Y-60040000D01*
X125248102Y-60079774D01*
X125059744Y-60157795D01*
X124890226Y-60271063D01*
X124746063Y-60415226D01*
X124632795Y-60584744D01*
X124554774Y-60773102D01*
X124517129Y-60962359D01*
X124189488Y-61290000D01*
X122694761Y-61290000D01*
X122737498Y-61226040D01*
X122884870Y-60870252D01*
X122960000Y-60492551D01*
X122960000Y-60107449D01*
X122884870Y-59729748D01*
X122737498Y-59373960D01*
X122523547Y-59053760D01*
X122251240Y-58781453D01*
X122092541Y-58675413D01*
X126044192Y-58675413D01*
X126139956Y-58939814D01*
X126429571Y-59080704D01*
X126741108Y-59162384D01*
X127062595Y-59181718D01*
X127381675Y-59137961D01*
X127686088Y-59032795D01*
X127860044Y-58939814D01*
X127955808Y-58675413D01*
X127000000Y-57719605D01*
X126044192Y-58675413D01*
X122092541Y-58675413D01*
X121931040Y-58567502D01*
X121575252Y-58420130D01*
X121197551Y-58345000D01*
X120812449Y-58345000D01*
X120434748Y-58420130D01*
X120078960Y-58567502D01*
X119758760Y-58781453D01*
X119486453Y-59053760D01*
X119272502Y-59373960D01*
X119125130Y-59729748D01*
X119050000Y-60107449D01*
X119050000Y-60492551D01*
X119125130Y-60870252D01*
X119272502Y-61226040D01*
X119437401Y-61472828D01*
X119374472Y-61524472D01*
X119349107Y-61555380D01*
X118405383Y-62499105D01*
X118374473Y-62524472D01*
X118349108Y-62555380D01*
X118295456Y-62620754D01*
X117459254Y-62621672D01*
X117458994Y-57602595D01*
X125358282Y-57602595D01*
X125402039Y-57921675D01*
X125507205Y-58226088D01*
X125600186Y-58400044D01*
X125864587Y-58495808D01*
X126820395Y-57540000D01*
X127179605Y-57540000D01*
X128135413Y-58495808D01*
X128399814Y-58400044D01*
X128540704Y-58110429D01*
X128622384Y-57798892D01*
X128641718Y-57477405D01*
X128597961Y-57158325D01*
X128492795Y-56853912D01*
X128399814Y-56679956D01*
X128135413Y-56584192D01*
X127179605Y-57540000D01*
X126820395Y-57540000D01*
X125864587Y-56584192D01*
X125600186Y-56679956D01*
X125459296Y-56969571D01*
X125377616Y-57281108D01*
X125358282Y-57602595D01*
X117458994Y-57602595D01*
X117458932Y-56404587D01*
X126044192Y-56404587D01*
X127000000Y-57360395D01*
X127955808Y-56404587D01*
X127860044Y-56140186D01*
X127570429Y-55999296D01*
X127258892Y-55917616D01*
X126937405Y-55898282D01*
X126618325Y-55942039D01*
X126313912Y-56047205D01*
X126139956Y-56140186D01*
X126044192Y-56404587D01*
X117458932Y-56404587D01*
X117458824Y-54344370D01*
X117514269Y-53125589D01*
X117717517Y-51949482D01*
X117788013Y-51718967D01*
X122215000Y-51718967D01*
X122215000Y-52041033D01*
X122277832Y-52356912D01*
X122401082Y-52654463D01*
X122580013Y-52922252D01*
X122807748Y-53149987D01*
X123075537Y-53328918D01*
X123373088Y-53452168D01*
X123688967Y-53515000D01*
X124011033Y-53515000D01*
X124326912Y-53452168D01*
X124624463Y-53328918D01*
X124892252Y-53149987D01*
X125119987Y-52922252D01*
X125298918Y-52654463D01*
X125422168Y-52356912D01*
X125485000Y-52041033D01*
X125485000Y-51718967D01*
X128715000Y-51718967D01*
X128715000Y-52041033D01*
X128777832Y-52356912D01*
X128901082Y-52654463D01*
X129080013Y-52922252D01*
X129307748Y-53149987D01*
X129575537Y-53328918D01*
X129873088Y-53452168D01*
X130188967Y-53515000D01*
X130511033Y-53515000D01*
X130826912Y-53452168D01*
X131124463Y-53328918D01*
X131392252Y-53149987D01*
X131619987Y-52922252D01*
X131798918Y-52654463D01*
X131922168Y-52356912D01*
X131985000Y-52041033D01*
X131985000Y-51718967D01*
X131922168Y-51403088D01*
X131798918Y-51105537D01*
X131619987Y-50837748D01*
X131392252Y-50610013D01*
X131124463Y-50431082D01*
X130826912Y-50307832D01*
X130511033Y-50245000D01*
X130188967Y-50245000D01*
X129873088Y-50307832D01*
X129575537Y-50431082D01*
X129307748Y-50610013D01*
X129080013Y-50837748D01*
X128901082Y-51105537D01*
X128777832Y-51403088D01*
X128715000Y-51718967D01*
X125485000Y-51718967D01*
X125422168Y-51403088D01*
X125298918Y-51105537D01*
X125119987Y-50837748D01*
X124892252Y-50610013D01*
X124624463Y-50431082D01*
X124326912Y-50307832D01*
X124011033Y-50245000D01*
X123688967Y-50245000D01*
X123373088Y-50307832D01*
X123075537Y-50431082D01*
X122807748Y-50610013D01*
X122580013Y-50837748D01*
X122401082Y-51105537D01*
X122277832Y-51403088D01*
X122215000Y-51718967D01*
X117788013Y-51718967D01*
X118066566Y-50808129D01*
X118555912Y-49719523D01*
X119177840Y-48700831D01*
X119325881Y-48515413D01*
X122894192Y-48515413D01*
X122989956Y-48779814D01*
X123279571Y-48920704D01*
X123591108Y-49002384D01*
X123912595Y-49021718D01*
X124231675Y-48977961D01*
X124536088Y-48872795D01*
X124710044Y-48779814D01*
X124805808Y-48515413D01*
X129394192Y-48515413D01*
X129489956Y-48779814D01*
X129779571Y-48920704D01*
X130091108Y-49002384D01*
X130412595Y-49021718D01*
X130731675Y-48977961D01*
X131036088Y-48872795D01*
X131210044Y-48779814D01*
X131305808Y-48515413D01*
X130350000Y-47559605D01*
X129394192Y-48515413D01*
X124805808Y-48515413D01*
X123850000Y-47559605D01*
X122894192Y-48515413D01*
X119325881Y-48515413D01*
X119922538Y-47768118D01*
X120257335Y-47442595D01*
X122208282Y-47442595D01*
X122252039Y-47761675D01*
X122357205Y-48066088D01*
X122450186Y-48240044D01*
X122714587Y-48335808D01*
X123670395Y-47380000D01*
X124029605Y-47380000D01*
X124985413Y-48335808D01*
X125249814Y-48240044D01*
X125390704Y-47950429D01*
X125472384Y-47638892D01*
X125484189Y-47442595D01*
X128708282Y-47442595D01*
X128752039Y-47761675D01*
X128857205Y-48066088D01*
X128950186Y-48240044D01*
X129214587Y-48335808D01*
X130170395Y-47380000D01*
X130529605Y-47380000D01*
X131485413Y-48335808D01*
X131749814Y-48240044D01*
X131890704Y-47950429D01*
X131972384Y-47638892D01*
X131991718Y-47317405D01*
X131947961Y-46998325D01*
X131842795Y-46693912D01*
X131749814Y-46519956D01*
X131485413Y-46424192D01*
X130529605Y-47380000D01*
X130170395Y-47380000D01*
X129214587Y-46424192D01*
X128950186Y-46519956D01*
X128809296Y-46809571D01*
X128727616Y-47121108D01*
X128708282Y-47442595D01*
X125484189Y-47442595D01*
X125491718Y-47317405D01*
X125447961Y-46998325D01*
X125342795Y-46693912D01*
X125249814Y-46519956D01*
X124985413Y-46424192D01*
X124029605Y-47380000D01*
X123670395Y-47380000D01*
X122714587Y-46424192D01*
X122450186Y-46519956D01*
X122309296Y-46809571D01*
X122227616Y-47121108D01*
X122208282Y-47442595D01*
X120257335Y-47442595D01*
X120778270Y-46936092D01*
X121696084Y-46244587D01*
X122894192Y-46244587D01*
X123850000Y-47200395D01*
X124805808Y-46244587D01*
X129394192Y-46244587D01*
X130350000Y-47200395D01*
X131305808Y-46244587D01*
X131210044Y-45980186D01*
X130920429Y-45839296D01*
X130608892Y-45757616D01*
X130287405Y-45738282D01*
X129968325Y-45782039D01*
X129663912Y-45887205D01*
X129489956Y-45980186D01*
X129394192Y-46244587D01*
X124805808Y-46244587D01*
X124710044Y-45980186D01*
X124420429Y-45839296D01*
X124108892Y-45757616D01*
X123787405Y-45738282D01*
X123468325Y-45782039D01*
X123163912Y-45887205D01*
X122989956Y-45980186D01*
X122894192Y-46244587D01*
X121696084Y-46244587D01*
X121731524Y-46217886D01*
X122767284Y-45624813D01*
X123869208Y-45166232D01*
X125019911Y-44849377D01*
X126201266Y-44679241D01*
X127394615Y-44658508D01*
X128581162Y-44787507D01*
G37*
G04 #@! TD.AperFunction*
G04 #@! TD*
D20*
G04 #@! TO.N,/GND*
X136466355Y-53999801D02*
X136462186Y-54473079D01*
X136461900Y-54475982D01*
X136461900Y-70073000D01*
X135575741Y-70073000D01*
X135502000Y-62674336D01*
X135502000Y-62655596D01*
X136371234Y-52816345D01*
X136466355Y-53999801D01*
G04 #@! TA.AperFunction,Conductor*
D21*
G36*
X136466355Y-53999801D02*
G01*
X136462186Y-54473079D01*
X136461900Y-54475982D01*
X136461900Y-70073000D01*
X135575741Y-70073000D01*
X135502000Y-62674336D01*
X135502000Y-62655596D01*
X136371234Y-52816345D01*
X136466355Y-53999801D01*
G37*
G04 #@! TD.AperFunction*
G04 #@! TD*
M02*
