G04 #@! TF.GenerationSoftware,KiCad,Pcbnew,(5.1.9)-1*
G04 #@! TF.CreationDate,2021-03-01T14:09:20+01:00*
G04 #@! TF.ProjectId,button,62757474-6f6e-42e6-9b69-6361645f7063,rev?*
G04 #@! TF.SameCoordinates,Original*
G04 #@! TF.FileFunction,Legend,Top*
G04 #@! TF.FilePolarity,Positive*
%FSLAX46Y46*%
G04 Gerber Fmt 4.6, Leading zero omitted, Abs format (unit mm)*
G04 Created by KiCad (PCBNEW (5.1.9)-1) date 2021-03-01 14:09:20*
%MOMM*%
%LPD*%
G01*
G04 APERTURE LIST*
%ADD10C,0.150000*%
%ADD11C,0.120000*%
%ADD12C,0.200000*%
%ADD13C,0.125000*%
G04 APERTURE END LIST*
D10*
X121752380Y-112588571D02*
X121895238Y-112636190D01*
X121942857Y-112683809D01*
X121990476Y-112779047D01*
X121990476Y-112921904D01*
X121942857Y-113017142D01*
X121895238Y-113064761D01*
X121800000Y-113112380D01*
X121419047Y-113112380D01*
X121419047Y-112112380D01*
X121752380Y-112112380D01*
X121847619Y-112160000D01*
X121895238Y-112207619D01*
X121942857Y-112302857D01*
X121942857Y-112398095D01*
X121895238Y-112493333D01*
X121847619Y-112540952D01*
X121752380Y-112588571D01*
X121419047Y-112588571D01*
X122419047Y-112112380D02*
X122419047Y-112921904D01*
X122466666Y-113017142D01*
X122514285Y-113064761D01*
X122609523Y-113112380D01*
X122800000Y-113112380D01*
X122895238Y-113064761D01*
X122942857Y-113017142D01*
X122990476Y-112921904D01*
X122990476Y-112112380D01*
X123323809Y-112112380D02*
X123895238Y-112112380D01*
X123609523Y-113112380D02*
X123609523Y-112112380D01*
X124085714Y-112112380D02*
X124657142Y-112112380D01*
X124371428Y-113112380D02*
X124371428Y-112112380D01*
X125180952Y-112112380D02*
X125371428Y-112112380D01*
X125466666Y-112160000D01*
X125561904Y-112255238D01*
X125609523Y-112445714D01*
X125609523Y-112779047D01*
X125561904Y-112969523D01*
X125466666Y-113064761D01*
X125371428Y-113112380D01*
X125180952Y-113112380D01*
X125085714Y-113064761D01*
X124990476Y-112969523D01*
X124942857Y-112779047D01*
X124942857Y-112445714D01*
X124990476Y-112255238D01*
X125085714Y-112160000D01*
X125180952Y-112112380D01*
X126038095Y-113112380D02*
X126038095Y-112112380D01*
X126609523Y-113112380D01*
X126609523Y-112112380D01*
X127704761Y-112112380D02*
X128038095Y-113112380D01*
X128371428Y-112112380D01*
X128657142Y-112207619D02*
X128704761Y-112160000D01*
X128800000Y-112112380D01*
X129038095Y-112112380D01*
X129133333Y-112160000D01*
X129180952Y-112207619D01*
X129228571Y-112302857D01*
X129228571Y-112398095D01*
X129180952Y-112540952D01*
X128609523Y-113112380D01*
X129228571Y-113112380D01*
X129422380Y-82919047D02*
X130136666Y-82919047D01*
X130279523Y-82966666D01*
X130374761Y-83061904D01*
X130422380Y-83204761D01*
X130422380Y-83300000D01*
X130422380Y-81966666D02*
X130422380Y-82442857D01*
X129422380Y-82442857D01*
X130327142Y-81061904D02*
X130374761Y-81109523D01*
X130422380Y-81252380D01*
X130422380Y-81347619D01*
X130374761Y-81490476D01*
X130279523Y-81585714D01*
X130184285Y-81633333D01*
X129993809Y-81680952D01*
X129850952Y-81680952D01*
X129660476Y-81633333D01*
X129565238Y-81585714D01*
X129470000Y-81490476D01*
X129422380Y-81347619D01*
X129422380Y-81252380D01*
X129470000Y-81109523D01*
X129517619Y-81061904D01*
X129422380Y-80347619D02*
X130136666Y-80347619D01*
X130279523Y-80395238D01*
X130374761Y-80490476D01*
X130422380Y-80633333D01*
X130422380Y-80728571D01*
X130422380Y-79395238D02*
X130422380Y-79871428D01*
X129422380Y-79871428D01*
X130327142Y-78490476D02*
X130374761Y-78538095D01*
X130422380Y-78680952D01*
X130422380Y-78776190D01*
X130374761Y-78919047D01*
X130279523Y-79014285D01*
X130184285Y-79061904D01*
X129993809Y-79109523D01*
X129850952Y-79109523D01*
X129660476Y-79061904D01*
X129565238Y-79014285D01*
X129470000Y-78919047D01*
X129422380Y-78776190D01*
X129422380Y-78680952D01*
X129470000Y-78538095D01*
X129517619Y-78490476D01*
X129422380Y-77776190D02*
X130136666Y-77776190D01*
X130279523Y-77823809D01*
X130374761Y-77919047D01*
X130422380Y-78061904D01*
X130422380Y-78157142D01*
X130422380Y-76823809D02*
X130422380Y-77300000D01*
X129422380Y-77300000D01*
X130327142Y-75919047D02*
X130374761Y-75966666D01*
X130422380Y-76109523D01*
X130422380Y-76204761D01*
X130374761Y-76347619D01*
X130279523Y-76442857D01*
X130184285Y-76490476D01*
X129993809Y-76538095D01*
X129850952Y-76538095D01*
X129660476Y-76490476D01*
X129565238Y-76442857D01*
X129470000Y-76347619D01*
X129422380Y-76204761D01*
X129422380Y-76109523D01*
X129470000Y-75966666D01*
X129517619Y-75919047D01*
X129422380Y-75204761D02*
X130136666Y-75204761D01*
X130279523Y-75252380D01*
X130374761Y-75347619D01*
X130422380Y-75490476D01*
X130422380Y-75585714D01*
X130422380Y-74252380D02*
X130422380Y-74728571D01*
X129422380Y-74728571D01*
X130327142Y-73347619D02*
X130374761Y-73395238D01*
X130422380Y-73538095D01*
X130422380Y-73633333D01*
X130374761Y-73776190D01*
X130279523Y-73871428D01*
X130184285Y-73919047D01*
X129993809Y-73966666D01*
X129850952Y-73966666D01*
X129660476Y-73919047D01*
X129565238Y-73871428D01*
X129470000Y-73776190D01*
X129422380Y-73633333D01*
X129422380Y-73538095D01*
X129470000Y-73395238D01*
X129517619Y-73347619D01*
D11*
G04 #@! TO.C,PS1*
X122390000Y-104600000D02*
X122390000Y-107050000D01*
X125610000Y-106400000D02*
X125610000Y-104600000D01*
D12*
G04 #@! TO.C,C4*
X124940000Y-95120000D02*
X121440000Y-95120000D01*
X121440000Y-97920000D02*
X125565000Y-97920000D01*
D10*
G04 #@! TO.C,L1*
X117436000Y-109674000D02*
X120484000Y-109674000D01*
X120484000Y-105991000D02*
X120484000Y-104086000D01*
X120484000Y-104086000D02*
X117436000Y-104086000D01*
X117436000Y-104086000D02*
X117436000Y-105991000D01*
X117436000Y-107642000D02*
X117436000Y-109674000D01*
X117436000Y-109474000D02*
X120484000Y-109474000D01*
X120484000Y-109674000D02*
X120484000Y-107642000D01*
D11*
G04 #@! TO.C,D1*
X129445000Y-59765000D02*
X125360000Y-59765000D01*
X129445000Y-61935000D02*
X129445000Y-59765000D01*
X125360000Y-61935000D02*
X129445000Y-61935000D01*
G04 #@! TO.C,U2*
X130610000Y-106400000D02*
X130610000Y-104600000D01*
X127390000Y-104600000D02*
X127390000Y-107050000D01*
G04 #@! TO.C,C3*
X124261252Y-101710000D02*
X123738748Y-101710000D01*
X124261252Y-100290000D02*
X123738748Y-100290000D01*
G04 #@! TO.C,C1*
X123138748Y-109540000D02*
X123661252Y-109540000D01*
X123138748Y-110960000D02*
X123661252Y-110960000D01*
G04 #@! TO.C,R3*
X123470000Y-90911252D02*
X123470000Y-90388748D01*
X124890000Y-90911252D02*
X124890000Y-90388748D01*
G04 #@! TO.C,R1*
X121020000Y-90851252D02*
X121020000Y-90328748D01*
X122440000Y-90851252D02*
X122440000Y-90328748D01*
G04 #@! TO.C,R7*
X135280000Y-106051252D02*
X135280000Y-105528748D01*
X136700000Y-106051252D02*
X136700000Y-105528748D01*
G04 #@! TO.C,R6*
X130380000Y-60111252D02*
X130380000Y-59588748D01*
X131800000Y-60111252D02*
X131800000Y-59588748D01*
G04 #@! TO.C,R5*
X130790000Y-90961252D02*
X130790000Y-90438748D01*
X132210000Y-90961252D02*
X132210000Y-90438748D01*
G04 #@! TO.C,R4*
X125940000Y-90886252D02*
X125940000Y-90363748D01*
X127360000Y-90886252D02*
X127360000Y-90363748D01*
G04 #@! TO.C,R2*
X128490000Y-90961252D02*
X128490000Y-90438748D01*
X129910000Y-90961252D02*
X129910000Y-90438748D01*
G04 #@! TO.C,C2*
X116988000Y-72251835D02*
X116988000Y-72020165D01*
G04 #@! TO.C,X1*
X135374000Y-86430000D02*
X135374000Y-87050000D01*
X135374000Y-87050000D02*
X133254000Y-87050000D01*
X121254000Y-87050000D02*
X119134000Y-87050000D01*
X119134000Y-87050000D02*
X119134000Y-86430000D01*
G04 #@! TO.C,C5*
X118740835Y-88385000D02*
X118509165Y-88385000D01*
G04 #@! TO.C,BT2*
X130570000Y-108380000D02*
X130570000Y-109630000D01*
X131820000Y-108380000D02*
X130570000Y-108380000D01*
X133930000Y-112790000D02*
X133930000Y-112290000D01*
X134030000Y-112290000D02*
X134030000Y-112790000D01*
X133830000Y-112290000D02*
X134030000Y-112290000D01*
X133830000Y-112790000D02*
X133830000Y-112290000D01*
X136990000Y-111290000D02*
X136380000Y-111290000D01*
X136990000Y-109990000D02*
X136380000Y-109990000D01*
X130870000Y-111290000D02*
X131480000Y-111290000D01*
X130870000Y-109990000D02*
X131480000Y-109990000D01*
X134430000Y-109290000D02*
X134430000Y-108680000D01*
X136380000Y-109290000D02*
X134430000Y-109290000D01*
X136380000Y-112790000D02*
X136380000Y-109290000D01*
X131480000Y-112790000D02*
X136380000Y-112790000D01*
X131480000Y-109290000D02*
X131480000Y-112790000D01*
X133430000Y-109290000D02*
X131480000Y-109290000D01*
X133430000Y-108680000D02*
X133430000Y-109290000D01*
X132630000Y-108580000D02*
X132330000Y-108580000D01*
X132330000Y-108480000D02*
X132330000Y-108680000D01*
X132630000Y-108480000D02*
X132330000Y-108480000D01*
X132630000Y-108680000D02*
X132630000Y-108480000D01*
X136990000Y-108680000D02*
X130870000Y-108680000D01*
X136990000Y-113400000D02*
X136990000Y-108680000D01*
X130870000Y-113400000D02*
X136990000Y-113400000D01*
X130870000Y-108680000D02*
X130870000Y-113400000D01*
G04 #@! TO.C,J1*
X117230000Y-88440000D02*
X118560000Y-88440000D01*
X117230000Y-89770000D02*
X117230000Y-88440000D01*
X117230000Y-91040000D02*
X119890000Y-91040000D01*
X119890000Y-91040000D02*
X119890000Y-103800000D01*
X117230000Y-91040000D02*
X117230000Y-103800000D01*
X117230000Y-103800000D02*
X119890000Y-103800000D01*
G04 #@! TO.C,SW2*
X136700000Y-94330000D02*
X136700000Y-100450000D01*
X136700000Y-100450000D02*
X133080000Y-100450000D01*
X133080000Y-100450000D02*
X133080000Y-94330000D01*
X133080000Y-94330000D02*
X136700000Y-94330000D01*
G04 #@! TO.C,SW1*
X123600000Y-48880000D02*
X123600000Y-50380000D01*
X124850000Y-52880000D02*
X129350000Y-52880000D01*
X130600000Y-50380000D02*
X130600000Y-48880000D01*
X129350000Y-46380000D02*
X124850000Y-46380000D01*
G04 #@! TO.C,PS1*
D13*
X123442857Y-105751190D02*
X123442857Y-105251190D01*
X123633333Y-105251190D01*
X123680952Y-105275000D01*
X123704761Y-105298809D01*
X123728571Y-105346428D01*
X123728571Y-105417857D01*
X123704761Y-105465476D01*
X123680952Y-105489285D01*
X123633333Y-105513095D01*
X123442857Y-105513095D01*
X123919047Y-105727380D02*
X123990476Y-105751190D01*
X124109523Y-105751190D01*
X124157142Y-105727380D01*
X124180952Y-105703571D01*
X124204761Y-105655952D01*
X124204761Y-105608333D01*
X124180952Y-105560714D01*
X124157142Y-105536904D01*
X124109523Y-105513095D01*
X124014285Y-105489285D01*
X123966666Y-105465476D01*
X123942857Y-105441666D01*
X123919047Y-105394047D01*
X123919047Y-105346428D01*
X123942857Y-105298809D01*
X123966666Y-105275000D01*
X124014285Y-105251190D01*
X124133333Y-105251190D01*
X124204761Y-105275000D01*
X124680952Y-105751190D02*
X124395238Y-105751190D01*
X124538095Y-105751190D02*
X124538095Y-105251190D01*
X124490476Y-105322619D01*
X124442857Y-105370238D01*
X124395238Y-105394047D01*
G04 #@! TO.C,C4*
X123368571Y-96653333D02*
X123392380Y-96677142D01*
X123416190Y-96748571D01*
X123416190Y-96796190D01*
X123392380Y-96867619D01*
X123344761Y-96915238D01*
X123297142Y-96939047D01*
X123201904Y-96962857D01*
X123130476Y-96962857D01*
X123035238Y-96939047D01*
X122987619Y-96915238D01*
X122940000Y-96867619D01*
X122916190Y-96796190D01*
X122916190Y-96748571D01*
X122940000Y-96677142D01*
X122963809Y-96653333D01*
X123082857Y-96224761D02*
X123416190Y-96224761D01*
X122892380Y-96343809D02*
X123249523Y-96462857D01*
X123249523Y-96153333D01*
G04 #@! TO.C,L1*
D10*
X118808333Y-107317380D02*
X118332142Y-107317380D01*
X118332142Y-106317380D01*
X119665476Y-107317380D02*
X119094047Y-107317380D01*
X119379761Y-107317380D02*
X119379761Y-106317380D01*
X119284523Y-106460238D01*
X119189285Y-106555476D01*
X119094047Y-106603095D01*
G04 #@! TO.C,D1*
X127226666Y-61466666D02*
X126526666Y-61466666D01*
X126526666Y-61300000D01*
X126560000Y-61200000D01*
X126626666Y-61133333D01*
X126693333Y-61100000D01*
X126826666Y-61066666D01*
X126926666Y-61066666D01*
X127060000Y-61100000D01*
X127126666Y-61133333D01*
X127193333Y-61200000D01*
X127226666Y-61300000D01*
X127226666Y-61466666D01*
X127226666Y-60400000D02*
X127226666Y-60800000D01*
X127226666Y-60600000D02*
X126526666Y-60600000D01*
X126626666Y-60666666D01*
X126693333Y-60733333D01*
X126726666Y-60800000D01*
G04 #@! TO.C,U2*
D13*
X128619047Y-105226190D02*
X128619047Y-105630952D01*
X128642857Y-105678571D01*
X128666666Y-105702380D01*
X128714285Y-105726190D01*
X128809523Y-105726190D01*
X128857142Y-105702380D01*
X128880952Y-105678571D01*
X128904761Y-105630952D01*
X128904761Y-105226190D01*
X129119047Y-105273809D02*
X129142857Y-105250000D01*
X129190476Y-105226190D01*
X129309523Y-105226190D01*
X129357142Y-105250000D01*
X129380952Y-105273809D01*
X129404761Y-105321428D01*
X129404761Y-105369047D01*
X129380952Y-105440476D01*
X129095238Y-105726190D01*
X129404761Y-105726190D01*
G04 #@! TO.C,C3*
X124178571Y-101083333D02*
X124202380Y-101107142D01*
X124226190Y-101178571D01*
X124226190Y-101226190D01*
X124202380Y-101297619D01*
X124154761Y-101345238D01*
X124107142Y-101369047D01*
X124011904Y-101392857D01*
X123940476Y-101392857D01*
X123845238Y-101369047D01*
X123797619Y-101345238D01*
X123750000Y-101297619D01*
X123726190Y-101226190D01*
X123726190Y-101178571D01*
X123750000Y-101107142D01*
X123773809Y-101083333D01*
X123726190Y-100916666D02*
X123726190Y-100607142D01*
X123916666Y-100773809D01*
X123916666Y-100702380D01*
X123940476Y-100654761D01*
X123964285Y-100630952D01*
X124011904Y-100607142D01*
X124130952Y-100607142D01*
X124178571Y-100630952D01*
X124202380Y-100654761D01*
X124226190Y-100702380D01*
X124226190Y-100845238D01*
X124202380Y-100892857D01*
X124178571Y-100916666D01*
G04 #@! TO.C,C1*
X123578571Y-110333333D02*
X123602380Y-110357142D01*
X123626190Y-110428571D01*
X123626190Y-110476190D01*
X123602380Y-110547619D01*
X123554761Y-110595238D01*
X123507142Y-110619047D01*
X123411904Y-110642857D01*
X123340476Y-110642857D01*
X123245238Y-110619047D01*
X123197619Y-110595238D01*
X123150000Y-110547619D01*
X123126190Y-110476190D01*
X123126190Y-110428571D01*
X123150000Y-110357142D01*
X123173809Y-110333333D01*
X123626190Y-109857142D02*
X123626190Y-110142857D01*
X123626190Y-110000000D02*
X123126190Y-110000000D01*
X123197619Y-110047619D01*
X123245238Y-110095238D01*
X123269047Y-110142857D01*
G04 #@! TO.C,R3*
X123996666Y-90876190D02*
X123830000Y-90638095D01*
X123710952Y-90876190D02*
X123710952Y-90376190D01*
X123901428Y-90376190D01*
X123949047Y-90400000D01*
X123972857Y-90423809D01*
X123996666Y-90471428D01*
X123996666Y-90542857D01*
X123972857Y-90590476D01*
X123949047Y-90614285D01*
X123901428Y-90638095D01*
X123710952Y-90638095D01*
X124163333Y-90376190D02*
X124472857Y-90376190D01*
X124306190Y-90566666D01*
X124377619Y-90566666D01*
X124425238Y-90590476D01*
X124449047Y-90614285D01*
X124472857Y-90661904D01*
X124472857Y-90780952D01*
X124449047Y-90828571D01*
X124425238Y-90852380D01*
X124377619Y-90876190D01*
X124234761Y-90876190D01*
X124187142Y-90852380D01*
X124163333Y-90828571D01*
G04 #@! TO.C,R1*
X121546666Y-90816190D02*
X121380000Y-90578095D01*
X121260952Y-90816190D02*
X121260952Y-90316190D01*
X121451428Y-90316190D01*
X121499047Y-90340000D01*
X121522857Y-90363809D01*
X121546666Y-90411428D01*
X121546666Y-90482857D01*
X121522857Y-90530476D01*
X121499047Y-90554285D01*
X121451428Y-90578095D01*
X121260952Y-90578095D01*
X122022857Y-90816190D02*
X121737142Y-90816190D01*
X121880000Y-90816190D02*
X121880000Y-90316190D01*
X121832380Y-90387619D01*
X121784761Y-90435238D01*
X121737142Y-90459047D01*
G04 #@! TO.C,R7*
X135806666Y-106016190D02*
X135640000Y-105778095D01*
X135520952Y-106016190D02*
X135520952Y-105516190D01*
X135711428Y-105516190D01*
X135759047Y-105540000D01*
X135782857Y-105563809D01*
X135806666Y-105611428D01*
X135806666Y-105682857D01*
X135782857Y-105730476D01*
X135759047Y-105754285D01*
X135711428Y-105778095D01*
X135520952Y-105778095D01*
X135973333Y-105516190D02*
X136306666Y-105516190D01*
X136092380Y-106016190D01*
G04 #@! TO.C,R6*
X130906666Y-60076190D02*
X130740000Y-59838095D01*
X130620952Y-60076190D02*
X130620952Y-59576190D01*
X130811428Y-59576190D01*
X130859047Y-59600000D01*
X130882857Y-59623809D01*
X130906666Y-59671428D01*
X130906666Y-59742857D01*
X130882857Y-59790476D01*
X130859047Y-59814285D01*
X130811428Y-59838095D01*
X130620952Y-59838095D01*
X131335238Y-59576190D02*
X131240000Y-59576190D01*
X131192380Y-59600000D01*
X131168571Y-59623809D01*
X131120952Y-59695238D01*
X131097142Y-59790476D01*
X131097142Y-59980952D01*
X131120952Y-60028571D01*
X131144761Y-60052380D01*
X131192380Y-60076190D01*
X131287619Y-60076190D01*
X131335238Y-60052380D01*
X131359047Y-60028571D01*
X131382857Y-59980952D01*
X131382857Y-59861904D01*
X131359047Y-59814285D01*
X131335238Y-59790476D01*
X131287619Y-59766666D01*
X131192380Y-59766666D01*
X131144761Y-59790476D01*
X131120952Y-59814285D01*
X131097142Y-59861904D01*
G04 #@! TO.C,R5*
X131316666Y-90926190D02*
X131150000Y-90688095D01*
X131030952Y-90926190D02*
X131030952Y-90426190D01*
X131221428Y-90426190D01*
X131269047Y-90450000D01*
X131292857Y-90473809D01*
X131316666Y-90521428D01*
X131316666Y-90592857D01*
X131292857Y-90640476D01*
X131269047Y-90664285D01*
X131221428Y-90688095D01*
X131030952Y-90688095D01*
X131769047Y-90426190D02*
X131530952Y-90426190D01*
X131507142Y-90664285D01*
X131530952Y-90640476D01*
X131578571Y-90616666D01*
X131697619Y-90616666D01*
X131745238Y-90640476D01*
X131769047Y-90664285D01*
X131792857Y-90711904D01*
X131792857Y-90830952D01*
X131769047Y-90878571D01*
X131745238Y-90902380D01*
X131697619Y-90926190D01*
X131578571Y-90926190D01*
X131530952Y-90902380D01*
X131507142Y-90878571D01*
G04 #@! TO.C,R4*
X126466666Y-90851190D02*
X126300000Y-90613095D01*
X126180952Y-90851190D02*
X126180952Y-90351190D01*
X126371428Y-90351190D01*
X126419047Y-90375000D01*
X126442857Y-90398809D01*
X126466666Y-90446428D01*
X126466666Y-90517857D01*
X126442857Y-90565476D01*
X126419047Y-90589285D01*
X126371428Y-90613095D01*
X126180952Y-90613095D01*
X126895238Y-90517857D02*
X126895238Y-90851190D01*
X126776190Y-90327380D02*
X126657142Y-90684523D01*
X126966666Y-90684523D01*
G04 #@! TO.C,R2*
X129016666Y-90926190D02*
X128850000Y-90688095D01*
X128730952Y-90926190D02*
X128730952Y-90426190D01*
X128921428Y-90426190D01*
X128969047Y-90450000D01*
X128992857Y-90473809D01*
X129016666Y-90521428D01*
X129016666Y-90592857D01*
X128992857Y-90640476D01*
X128969047Y-90664285D01*
X128921428Y-90688095D01*
X128730952Y-90688095D01*
X129207142Y-90473809D02*
X129230952Y-90450000D01*
X129278571Y-90426190D01*
X129397619Y-90426190D01*
X129445238Y-90450000D01*
X129469047Y-90473809D01*
X129492857Y-90521428D01*
X129492857Y-90569047D01*
X129469047Y-90640476D01*
X129183333Y-90926190D01*
X129492857Y-90926190D01*
G04 #@! TO.C,X1*
D10*
X126444476Y-80097380D02*
X127111142Y-81097380D01*
X127111142Y-80097380D02*
X126444476Y-81097380D01*
X128015904Y-81097380D02*
X127444476Y-81097380D01*
X127730190Y-81097380D02*
X127730190Y-80097380D01*
X127634952Y-80240238D01*
X127539714Y-80335476D01*
X127444476Y-80383095D01*
G04 #@! TO.C,SW2*
X135294761Y-98723333D02*
X135342380Y-98580476D01*
X135342380Y-98342380D01*
X135294761Y-98247142D01*
X135247142Y-98199523D01*
X135151904Y-98151904D01*
X135056666Y-98151904D01*
X134961428Y-98199523D01*
X134913809Y-98247142D01*
X134866190Y-98342380D01*
X134818571Y-98532857D01*
X134770952Y-98628095D01*
X134723333Y-98675714D01*
X134628095Y-98723333D01*
X134532857Y-98723333D01*
X134437619Y-98675714D01*
X134390000Y-98628095D01*
X134342380Y-98532857D01*
X134342380Y-98294761D01*
X134390000Y-98151904D01*
X134342380Y-97818571D02*
X135342380Y-97580476D01*
X134628095Y-97390000D01*
X135342380Y-97199523D01*
X134342380Y-96961428D01*
X134437619Y-96628095D02*
X134390000Y-96580476D01*
X134342380Y-96485238D01*
X134342380Y-96247142D01*
X134390000Y-96151904D01*
X134437619Y-96104285D01*
X134532857Y-96056666D01*
X134628095Y-96056666D01*
X134770952Y-96104285D01*
X135342380Y-96675714D01*
X135342380Y-96056666D01*
G04 #@! TO.C,SW1*
X125874946Y-50173521D02*
X126017803Y-50221140D01*
X126255899Y-50221140D01*
X126351137Y-50173521D01*
X126398756Y-50125902D01*
X126446375Y-50030664D01*
X126446375Y-49935426D01*
X126398756Y-49840188D01*
X126351137Y-49792569D01*
X126255899Y-49744950D01*
X126065422Y-49697331D01*
X125970184Y-49649712D01*
X125922565Y-49602093D01*
X125874946Y-49506855D01*
X125874946Y-49411617D01*
X125922565Y-49316379D01*
X125970184Y-49268760D01*
X126065422Y-49221140D01*
X126303518Y-49221140D01*
X126446375Y-49268760D01*
X126779708Y-49221140D02*
X127017803Y-50221140D01*
X127208280Y-49506855D01*
X127398756Y-50221140D01*
X127636851Y-49221140D01*
X128541613Y-50221140D02*
X127970184Y-50221140D01*
X128255899Y-50221140D02*
X128255899Y-49221140D01*
X128160660Y-49363998D01*
X128065422Y-49459236D01*
X127970184Y-49506855D01*
G04 #@! TD*
M02*
