G04 #@! TF.GenerationSoftware,KiCad,Pcbnew,(5.1.5)-1*
G04 #@! TF.CreationDate,2021-02-18T15:35:30+01:00*
G04 #@! TF.ProjectId,button,62757474-6f6e-42e6-9b69-6361645f7063,rev?*
G04 #@! TF.SameCoordinates,Original*
G04 #@! TF.FileFunction,Legend,Bot*
G04 #@! TF.FilePolarity,Positive*
%FSLAX46Y46*%
G04 Gerber Fmt 4.6, Leading zero omitted, Abs format (unit mm)*
G04 Created by KiCad (PCBNEW (5.1.5)-1) date 2021-02-18 15:35:30*
%MOMM*%
%LPD*%
G04 APERTURE LIST*
%ADD10C,0.120000*%
%ADD11C,0.150000*%
G04 APERTURE END LIST*
D10*
X129060000Y-61220000D02*
X125060000Y-61220000D01*
X124060000Y-60220000D02*
X130060000Y-60220000D01*
X131060000Y-59220000D02*
X123060000Y-59220000D01*
X128060000Y-62220000D02*
X126060000Y-62220000D01*
X135565000Y-54910000D02*
X118435000Y-54910000D01*
X118435000Y-54910000D02*
X118435000Y-112150000D01*
X118435000Y-112150000D02*
X135565000Y-112150000D01*
X135565000Y-112150000D02*
X135565000Y-54910000D01*
X134600000Y-111430000D02*
X119400000Y-111430000D01*
X119400000Y-111430000D02*
X119400000Y-93430000D01*
X134600000Y-55630000D02*
X119400000Y-55630000D01*
X134600000Y-111430000D02*
X134600000Y-93430000D01*
X134600000Y-73630000D02*
X134600000Y-55630000D01*
X119400000Y-73630000D02*
X119400000Y-55630000D01*
X119400000Y-93430000D02*
G75*
G03X121400000Y-91430000I0J2000000D01*
G01*
X121400000Y-75630000D02*
G75*
G03X119400000Y-73630000I-2000000J0D01*
G01*
X134600000Y-73630000D02*
G75*
G03X132600000Y-75630000I0J-2000000D01*
G01*
X132600000Y-91430000D02*
G75*
G03X134600000Y-93430000I2000000J0D01*
G01*
X132600000Y-91430000D02*
X132600000Y-75630000D01*
X121400000Y-75630000D02*
X121400000Y-91430000D01*
D11*
X136348571Y-108764285D02*
X136396190Y-108907142D01*
X136443809Y-108954761D01*
X136539047Y-109002380D01*
X136681904Y-109002380D01*
X136777142Y-108954761D01*
X136824761Y-108907142D01*
X136872380Y-108811904D01*
X136872380Y-108430952D01*
X135872380Y-108430952D01*
X135872380Y-108764285D01*
X135920000Y-108859523D01*
X135967619Y-108907142D01*
X136062857Y-108954761D01*
X136158095Y-108954761D01*
X136253333Y-108907142D01*
X136300952Y-108859523D01*
X136348571Y-108764285D01*
X136348571Y-108430952D01*
X135872380Y-109288095D02*
X135872380Y-109859523D01*
X136872380Y-109573809D02*
X135872380Y-109573809D01*
X136872380Y-110716666D02*
X136872380Y-110145238D01*
X136872380Y-110430952D02*
X135872380Y-110430952D01*
X136015238Y-110335714D01*
X136110476Y-110240476D01*
X136158095Y-110145238D01*
X135904285Y-111157142D02*
X135904285Y-113442857D01*
X137047142Y-112300000D02*
X134761428Y-112300000D01*
X119534285Y-51767142D02*
X119534285Y-54052857D01*
M02*
