M48
; DRILL file {KiCad (5.1.9)-1} date 03/01/21 14:09:24
; FORMAT={-:-/ absolute / inch / decimal}
; #@! TF.CreationDate,2021-03-01T14:09:24+01:00
; #@! TF.GenerationSoftware,Kicad,Pcbnew,(5.1.9)-1
FMAT,2
INCH
T1C0.0118
T2C0.0157
T3C0.0295
T4C0.0394
T5C0.0402
T6C0.0433
T7C0.1039
%
G90
G05
T1
X4.622Y-2.8632
X4.6457Y-3.4646
T2
X4.7108Y-2.8122
X4.7108Y-3.3634
X4.7913Y-3.7805
X4.7933Y-3.8228
X4.8425Y-3.9764
X4.8819Y-4.2126
X4.9429Y-2.4045
X5.0787Y-4.2323
X5.1772Y-3.6171
X5.3051Y-2.8888
X5.3061Y-2.81
X5.3071Y-3.3632
X5.315Y-4.0157
T3
X5.2335Y-4.35
X5.3122Y-4.35
T4
X4.6677Y-3.5343
X4.6677Y-3.6343
X4.6677Y-3.7343
X4.6677Y-3.8343
X4.6677Y-3.9343
X4.6677Y-4.0343
T5
X5.0Y-2.2654
X5.0Y-4.3122
T6
X4.876Y-1.8654
X4.876Y-2.0425
X5.1319Y-1.8654
X5.1319Y-2.0425
T7
X4.764Y-2.374
X5.236Y-4.2039
T0
M30
