G04 #@! TF.GenerationSoftware,KiCad,Pcbnew,(5.1.9)-1*
G04 #@! TF.CreationDate,2021-03-01T14:09:20+01:00*
G04 #@! TF.ProjectId,button,62757474-6f6e-42e6-9b69-6361645f7063,rev?*
G04 #@! TF.SameCoordinates,Original*
G04 #@! TF.FileFunction,Paste,Top*
G04 #@! TF.FilePolarity,Positive*
%FSLAX46Y46*%
G04 Gerber Fmt 4.6, Leading zero omitted, Abs format (unit mm)*
G04 Created by KiCad (PCBNEW (5.1.9)-1) date 2021-03-01 14:09:20*
%MOMM*%
%LPD*%
G01*
G04 APERTURE LIST*
%ADD10R,0.650000X2.000000*%
%ADD11C,0.100000*%
%ADD12R,1.650000X2.250000*%
%ADD13R,2.794000X1.778000*%
%ADD14R,1.500000X1.100000*%
%ADD15R,1.500000X1.500000*%
%ADD16R,0.620000X0.900000*%
%ADD17R,2.500000X1.000000*%
%ADD18R,1.000000X1.800000*%
%ADD19R,0.900000X0.620000*%
%ADD20R,1.600000X2.180000*%
G04 APERTURE END LIST*
D10*
G04 #@! TO.C,PS1*
X123050000Y-104000000D03*
X124950000Y-104000000D03*
X124950000Y-107050000D03*
D11*
G36*
X124325000Y-108050000D02*
G01*
X123675000Y-108050000D01*
X123675000Y-106050000D01*
X124325000Y-106050000D01*
X124325000Y-108050000D01*
G37*
D10*
X123050000Y-107050000D03*
G04 #@! TD*
D12*
G04 #@! TO.C,C4*
X121640000Y-96520000D03*
X124740000Y-96520000D03*
G04 #@! TD*
D13*
G04 #@! TO.C,L1*
X118960000Y-108658000D03*
X118960000Y-105102000D03*
G04 #@! TD*
G04 #@! TO.C,D1*
G36*
G01*
X126335000Y-60275000D02*
X126335000Y-61425000D01*
G75*
G02*
X126085000Y-61675000I-250000J0D01*
G01*
X124985000Y-61675000D01*
G75*
G02*
X124735000Y-61425000I0J250000D01*
G01*
X124735000Y-60275000D01*
G75*
G02*
X124985000Y-60025000I250000J0D01*
G01*
X126085000Y-60025000D01*
G75*
G02*
X126335000Y-60275000I0J-250000D01*
G01*
G37*
G36*
G01*
X129185000Y-60275000D02*
X129185000Y-61425000D01*
G75*
G02*
X128935000Y-61675000I-250000J0D01*
G01*
X127835000Y-61675000D01*
G75*
G02*
X127585000Y-61425000I0J250000D01*
G01*
X127585000Y-60275000D01*
G75*
G02*
X127835000Y-60025000I250000J0D01*
G01*
X128935000Y-60025000D01*
G75*
G02*
X129185000Y-60275000I0J-250000D01*
G01*
G37*
G04 #@! TD*
D10*
G04 #@! TO.C,U2*
X128050000Y-104000000D03*
X129950000Y-104000000D03*
X129950000Y-107050000D03*
D11*
G36*
X129325000Y-108050000D02*
G01*
X128675000Y-108050000D01*
X128675000Y-106050000D01*
X129325000Y-106050000D01*
X129325000Y-108050000D01*
G37*
D10*
X128050000Y-107050000D03*
G04 #@! TD*
D14*
G04 #@! TO.C,C3*
X122850000Y-101000000D03*
X125150000Y-101000000D03*
G04 #@! TD*
G04 #@! TO.C,C1*
X124550000Y-110250000D03*
X122250000Y-110250000D03*
G04 #@! TD*
D15*
G04 #@! TO.C,R3*
X124180000Y-89450000D03*
X124180000Y-91850000D03*
G04 #@! TD*
G04 #@! TO.C,R1*
X121730000Y-89390000D03*
X121730000Y-91790000D03*
G04 #@! TD*
G04 #@! TO.C,R7*
X135990000Y-104590000D03*
X135990000Y-106990000D03*
G04 #@! TD*
G04 #@! TO.C,R6*
X131090000Y-58650000D03*
X131090000Y-61050000D03*
G04 #@! TD*
G04 #@! TO.C,R5*
X131500000Y-89500000D03*
X131500000Y-91900000D03*
G04 #@! TD*
G04 #@! TO.C,R4*
X126650000Y-89425000D03*
X126650000Y-91825000D03*
G04 #@! TD*
G04 #@! TO.C,R2*
X129200000Y-89500000D03*
X129200000Y-91900000D03*
G04 #@! TD*
D16*
G04 #@! TO.C,C2*
X117348000Y-71486000D03*
X117348000Y-72786000D03*
G04 #@! TD*
D17*
G04 #@! TO.C,X1*
X134854000Y-71430000D03*
X134854000Y-73430000D03*
X134854000Y-75430000D03*
X134854000Y-77430000D03*
X134854000Y-79430000D03*
X134854000Y-81430000D03*
X134854000Y-83430000D03*
X134854000Y-85430000D03*
D18*
X132254000Y-86930000D03*
X130254000Y-86930000D03*
X128254000Y-86930000D03*
X126254000Y-86930000D03*
X124254000Y-86930000D03*
X122254000Y-86930000D03*
D17*
X119654000Y-85430000D03*
X119654000Y-83430000D03*
X119654000Y-81430000D03*
X119654000Y-79430000D03*
X119654000Y-77430000D03*
X119654000Y-75430000D03*
X119654000Y-73430000D03*
X119654000Y-71430000D03*
G04 #@! TD*
D19*
G04 #@! TO.C,C5*
X117975000Y-88025000D03*
X119275000Y-88025000D03*
G04 #@! TD*
D20*
G04 #@! TO.C,SW2*
X134890000Y-92800000D03*
X134890000Y-101980000D03*
G04 #@! TD*
M02*
