M48
; DRILL file {KiCad (5.1.9)-1} date 03/01/21 14:14:49
; FORMAT={-:-/ absolute / inch / decimal}
; #@! TF.CreationDate,2021-03-01T14:14:49+01:00
; #@! TF.GenerationSoftware,Kicad,Pcbnew,(5.1.9)-1
FMAT,2
INCH
T1C0.0157
T2C0.0394
T3C0.0433
%
G90
G05
T1
X4.6201Y-3.1358
X4.6486Y-3.4528
X4.6506Y-3.6939
X4.6821Y-3.1368
X4.7224Y-2.7864
X4.7431Y-2.2943
X4.7618Y-2.4419
X4.8484Y-2.753
X4.8553Y-2.878
X4.902Y-3.6984
X4.9028Y-3.6508
X4.9055Y-2.4419
X4.9094Y-2.2701
X4.9242Y-2.5709
X4.95Y-2.2884
X4.9539Y-3.65
X4.9539Y-3.7008
X4.9843Y-2.2701
X5.0016Y-2.4413
X5.0031Y-3.6496
X5.0039Y-3.6988
X5.0984Y-2.6024
X5.102Y-2.5138
X5.1132Y-2.7756
X5.1665Y-3.6878
X5.1929Y-2.7323
X5.1969Y-2.497
X5.2195Y-2.9547
X5.2492Y-3.6878
X5.2534Y-3.533
X5.2894Y-2.9744
X5.2982Y-3.0817
X5.3081Y-2.6427
T2
X4.6047Y-2.6453
X4.6047Y-2.7453
X4.6047Y-2.8453
X4.6047Y-2.9453
X4.6047Y-3.0453
T3
X4.815Y-2.2087
X4.815Y-2.3858
X5.0709Y-2.2087
X5.0709Y-2.3858
T0
M30
