G04 #@! TF.GenerationSoftware,KiCad,Pcbnew,(5.1.9)-1*
G04 #@! TF.CreationDate,2021-03-01T14:14:47+01:00*
G04 #@! TF.ProjectId,button timer v1.2.1_Coin_Cell,62757474-6f6e-4207-9469-6d6572207631,rev?*
G04 #@! TF.SameCoordinates,Original*
G04 #@! TF.FileFunction,Legend,Top*
G04 #@! TF.FilePolarity,Positive*
%FSLAX46Y46*%
G04 Gerber Fmt 4.6, Leading zero omitted, Abs format (unit mm)*
G04 Created by KiCad (PCBNEW (5.1.9)-1) date 2021-03-01 14:14:47*
%MOMM*%
%LPD*%
G01*
G04 APERTURE LIST*
%ADD10C,0.125000*%
%ADD11C,0.150000*%
%ADD12C,0.120000*%
%ADD13C,0.200000*%
G04 APERTURE END LIST*
D10*
X117970169Y-68458508D02*
X118208264Y-68291841D01*
X117970169Y-68172794D02*
X118470169Y-68172794D01*
X118470169Y-68363270D01*
X118446360Y-68410889D01*
X118422550Y-68434699D01*
X118374931Y-68458508D01*
X118303502Y-68458508D01*
X118255883Y-68434699D01*
X118232074Y-68410889D01*
X118208264Y-68363270D01*
X118208264Y-68172794D01*
X117993979Y-68648984D02*
X117970169Y-68720413D01*
X117970169Y-68839460D01*
X117993979Y-68887080D01*
X118017788Y-68910889D01*
X118065407Y-68934699D01*
X118113026Y-68934699D01*
X118160645Y-68910889D01*
X118184455Y-68887080D01*
X118208264Y-68839460D01*
X118232074Y-68744222D01*
X118255883Y-68696603D01*
X118279693Y-68672794D01*
X118327312Y-68648984D01*
X118374931Y-68648984D01*
X118422550Y-68672794D01*
X118446360Y-68696603D01*
X118470169Y-68744222D01*
X118470169Y-68863270D01*
X118446360Y-68934699D01*
X118470169Y-69077556D02*
X118470169Y-69363270D01*
X117970169Y-69220413D02*
X118470169Y-69220413D01*
X118470169Y-69839460D02*
X118470169Y-70125175D01*
X117970169Y-69982318D02*
X118470169Y-69982318D01*
X118470169Y-70244222D02*
X117970169Y-70577556D01*
X118470169Y-70577556D02*
X117970169Y-70244222D01*
X117970169Y-71434699D02*
X118208264Y-71268032D01*
X117970169Y-71148984D02*
X118470169Y-71148984D01*
X118470169Y-71339460D01*
X118446360Y-71387080D01*
X118422550Y-71410889D01*
X118374931Y-71434699D01*
X118303502Y-71434699D01*
X118255883Y-71410889D01*
X118232074Y-71387080D01*
X118208264Y-71339460D01*
X118208264Y-71148984D01*
X118470169Y-71601365D02*
X117970169Y-71934699D01*
X118470169Y-71934699D02*
X117970169Y-71601365D01*
X118446360Y-72768032D02*
X118470169Y-72720413D01*
X118470169Y-72648984D01*
X118446360Y-72577556D01*
X118398740Y-72529937D01*
X118351121Y-72506127D01*
X118255883Y-72482318D01*
X118184455Y-72482318D01*
X118089217Y-72506127D01*
X118041598Y-72529937D01*
X117993979Y-72577556D01*
X117970169Y-72648984D01*
X117970169Y-72696603D01*
X117993979Y-72768032D01*
X118017788Y-72791841D01*
X118184455Y-72791841D01*
X118184455Y-72696603D01*
X117970169Y-73006127D02*
X118470169Y-73006127D01*
X117970169Y-73291841D01*
X118470169Y-73291841D01*
X117970169Y-73529937D02*
X118470169Y-73529937D01*
X118470169Y-73648984D01*
X118446360Y-73720413D01*
X118398740Y-73768032D01*
X118351121Y-73791841D01*
X118255883Y-73815651D01*
X118184455Y-73815651D01*
X118089217Y-73791841D01*
X118041598Y-73768032D01*
X117993979Y-73720413D01*
X117970169Y-73648984D01*
X117970169Y-73529937D01*
X118470169Y-74339460D02*
X117970169Y-74506127D01*
X118470169Y-74672794D01*
X118017788Y-75125175D02*
X117993979Y-75101365D01*
X117970169Y-75029937D01*
X117970169Y-74982318D01*
X117993979Y-74910889D01*
X118041598Y-74863270D01*
X118089217Y-74839460D01*
X118184455Y-74815651D01*
X118255883Y-74815651D01*
X118351121Y-74839460D01*
X118398740Y-74863270D01*
X118446360Y-74910889D01*
X118470169Y-74982318D01*
X118470169Y-75029937D01*
X118446360Y-75101365D01*
X118422550Y-75125175D01*
X118017788Y-75625175D02*
X117993979Y-75601365D01*
X117970169Y-75529937D01*
X117970169Y-75482318D01*
X117993979Y-75410889D01*
X118041598Y-75363270D01*
X118089217Y-75339460D01*
X118184455Y-75315651D01*
X118255883Y-75315651D01*
X118351121Y-75339460D01*
X118398740Y-75363270D01*
X118446360Y-75410889D01*
X118470169Y-75482318D01*
X118470169Y-75529937D01*
X118446360Y-75601365D01*
X118422550Y-75625175D01*
D11*
X128357380Y-90344047D02*
X129071666Y-90344047D01*
X129214523Y-90391666D01*
X129309761Y-90486904D01*
X129357380Y-90629761D01*
X129357380Y-90725000D01*
X129357380Y-89391666D02*
X129357380Y-89867857D01*
X128357380Y-89867857D01*
X129262142Y-88486904D02*
X129309761Y-88534523D01*
X129357380Y-88677380D01*
X129357380Y-88772619D01*
X129309761Y-88915476D01*
X129214523Y-89010714D01*
X129119285Y-89058333D01*
X128928809Y-89105952D01*
X128785952Y-89105952D01*
X128595476Y-89058333D01*
X128500238Y-89010714D01*
X128405000Y-88915476D01*
X128357380Y-88772619D01*
X128357380Y-88677380D01*
X128405000Y-88534523D01*
X128452619Y-88486904D01*
X128357380Y-87772619D02*
X129071666Y-87772619D01*
X129214523Y-87820238D01*
X129309761Y-87915476D01*
X129357380Y-88058333D01*
X129357380Y-88153571D01*
X129357380Y-86820238D02*
X129357380Y-87296428D01*
X128357380Y-87296428D01*
X129262142Y-85915476D02*
X129309761Y-85963095D01*
X129357380Y-86105952D01*
X129357380Y-86201190D01*
X129309761Y-86344047D01*
X129214523Y-86439285D01*
X129119285Y-86486904D01*
X128928809Y-86534523D01*
X128785952Y-86534523D01*
X128595476Y-86486904D01*
X128500238Y-86439285D01*
X128405000Y-86344047D01*
X128357380Y-86201190D01*
X128357380Y-86105952D01*
X128405000Y-85963095D01*
X128452619Y-85915476D01*
X128357380Y-85201190D02*
X129071666Y-85201190D01*
X129214523Y-85248809D01*
X129309761Y-85344047D01*
X129357380Y-85486904D01*
X129357380Y-85582142D01*
X129357380Y-84248809D02*
X129357380Y-84725000D01*
X128357380Y-84725000D01*
X129262142Y-83344047D02*
X129309761Y-83391666D01*
X129357380Y-83534523D01*
X129357380Y-83629761D01*
X129309761Y-83772619D01*
X129214523Y-83867857D01*
X129119285Y-83915476D01*
X128928809Y-83963095D01*
X128785952Y-83963095D01*
X128595476Y-83915476D01*
X128500238Y-83867857D01*
X128405000Y-83772619D01*
X128357380Y-83629761D01*
X128357380Y-83534523D01*
X128405000Y-83391666D01*
X128452619Y-83344047D01*
X128357380Y-82629761D02*
X129071666Y-82629761D01*
X129214523Y-82677380D01*
X129309761Y-82772619D01*
X129357380Y-82915476D01*
X129357380Y-83010714D01*
X129357380Y-81677380D02*
X129357380Y-82153571D01*
X128357380Y-82153571D01*
X129262142Y-80772619D02*
X129309761Y-80820238D01*
X129357380Y-80963095D01*
X129357380Y-81058333D01*
X129309761Y-81201190D01*
X129214523Y-81296428D01*
X129119285Y-81344047D01*
X128928809Y-81391666D01*
X128785952Y-81391666D01*
X128595476Y-81344047D01*
X128500238Y-81296428D01*
X128405000Y-81201190D01*
X128357380Y-81058333D01*
X128357380Y-80963095D01*
X128405000Y-80820238D01*
X128452619Y-80772619D01*
D12*
G04 #@! TO.C,X1*
X117610000Y-78670000D02*
X117610000Y-78050000D01*
X117610000Y-78050000D02*
X119730000Y-78050000D01*
X131730000Y-78050000D02*
X133850000Y-78050000D01*
X133850000Y-78050000D02*
X133850000Y-78670000D01*
G04 #@! TO.C,Q1*
X126970000Y-66110000D02*
X126970000Y-65180000D01*
X126970000Y-62950000D02*
X126970000Y-63880000D01*
X126970000Y-62950000D02*
X124810000Y-62950000D01*
X126970000Y-66110000D02*
X125510000Y-66110000D01*
G04 #@! TO.C,D1*
X130365000Y-60360000D02*
X130365000Y-64445000D01*
X130365000Y-64445000D02*
X132535000Y-64445000D01*
X132535000Y-64445000D02*
X132535000Y-60360000D01*
D13*
G04 #@! TO.C,C6*
X131758080Y-71265240D02*
X135883080Y-71265240D01*
X135258080Y-68465240D02*
X131758080Y-68465240D01*
D12*
G04 #@! TO.C,D2*
X125120000Y-68920000D02*
X122235000Y-68920000D01*
X122235000Y-68920000D02*
X122235000Y-70740000D01*
X122235000Y-70740000D02*
X125120000Y-70740000D01*
G04 #@! TO.C,C7*
X135406395Y-78515800D02*
X135174725Y-78515800D01*
G04 #@! TO.C,C5*
X125428748Y-61300000D02*
X125951252Y-61300000D01*
X125428748Y-62720000D02*
X125951252Y-62720000D01*
G04 #@! TO.C,R9*
X130710000Y-73913748D02*
X130710000Y-74436252D01*
X129290000Y-73913748D02*
X129290000Y-74436252D01*
G04 #@! TO.C,R7*
X128880000Y-65311252D02*
X128880000Y-64788748D01*
X130300000Y-65311252D02*
X130300000Y-64788748D01*
G04 #@! TO.C,R6*
X130700000Y-57581252D02*
X130700000Y-57058748D01*
X132120000Y-57581252D02*
X132120000Y-57058748D01*
G04 #@! TO.C,R5*
X123835000Y-73963748D02*
X123835000Y-74486252D01*
X122415000Y-73963748D02*
X122415000Y-74486252D01*
G04 #@! TO.C,R4*
X128560000Y-73938748D02*
X128560000Y-74461252D01*
X127140000Y-73938748D02*
X127140000Y-74461252D01*
G04 #@! TO.C,R3*
X132967800Y-73906748D02*
X132967800Y-74429252D01*
X131547800Y-73906748D02*
X131547800Y-74429252D01*
G04 #@! TO.C,R2*
X126260000Y-73938748D02*
X126260000Y-74461252D01*
X124840000Y-73938748D02*
X124840000Y-74461252D01*
G04 #@! TO.C,R1*
X135126800Y-73957548D02*
X135126800Y-74480052D01*
X133706800Y-73957548D02*
X133706800Y-74480052D01*
G04 #@! TO.C,SW2*
X121170000Y-74160000D02*
X121470000Y-74160000D01*
X121470000Y-74160000D02*
X121470000Y-70860000D01*
X121470000Y-70860000D02*
X121170000Y-70860000D01*
X118970000Y-74160000D02*
X118670000Y-74160000D01*
X118670000Y-74160000D02*
X118670000Y-70860000D01*
X118670000Y-70860000D02*
X118970000Y-70860000D01*
G04 #@! TO.C,SW1*
X127800000Y-55100000D02*
X123300000Y-55100000D01*
X129050000Y-59100000D02*
X129050000Y-57600000D01*
X123300000Y-61600000D02*
X127800000Y-61600000D01*
X122050000Y-57600000D02*
X122050000Y-59100000D01*
G04 #@! TO.C,X1*
D11*
X124920476Y-83907380D02*
X125587142Y-84907380D01*
X125587142Y-83907380D02*
X124920476Y-84907380D01*
X126491904Y-84907380D02*
X125920476Y-84907380D01*
X126206190Y-84907380D02*
X126206190Y-83907380D01*
X126110952Y-84050238D01*
X126015714Y-84145476D01*
X125920476Y-84193095D01*
G04 #@! TO.C,Q1*
D10*
X126483809Y-64577619D02*
X126460000Y-64625238D01*
X126412380Y-64672857D01*
X126340952Y-64744285D01*
X126317142Y-64791904D01*
X126317142Y-64839523D01*
X126436190Y-64815714D02*
X126412380Y-64863333D01*
X126364761Y-64910952D01*
X126269523Y-64934761D01*
X126102857Y-64934761D01*
X126007619Y-64910952D01*
X125960000Y-64863333D01*
X125936190Y-64815714D01*
X125936190Y-64720476D01*
X125960000Y-64672857D01*
X126007619Y-64625238D01*
X126102857Y-64601428D01*
X126269523Y-64601428D01*
X126364761Y-64625238D01*
X126412380Y-64672857D01*
X126436190Y-64720476D01*
X126436190Y-64815714D01*
X126436190Y-64125238D02*
X126436190Y-64410952D01*
X126436190Y-64268095D02*
X125936190Y-64268095D01*
X126007619Y-64315714D01*
X126055238Y-64363333D01*
X126079047Y-64410952D01*
G04 #@! TO.C,D1*
D11*
X130833333Y-62226666D02*
X130833333Y-61526666D01*
X131000000Y-61526666D01*
X131100000Y-61560000D01*
X131166666Y-61626666D01*
X131200000Y-61693333D01*
X131233333Y-61826666D01*
X131233333Y-61926666D01*
X131200000Y-62060000D01*
X131166666Y-62126666D01*
X131100000Y-62193333D01*
X131000000Y-62226666D01*
X130833333Y-62226666D01*
X131900000Y-62226666D02*
X131500000Y-62226666D01*
X131700000Y-62226666D02*
X131700000Y-61526666D01*
X131633333Y-61626666D01*
X131566666Y-61693333D01*
X131500000Y-61726666D01*
G04 #@! TO.C,C6*
D10*
X133686651Y-69998573D02*
X133710460Y-70022382D01*
X133734270Y-70093811D01*
X133734270Y-70141430D01*
X133710460Y-70212859D01*
X133662841Y-70260478D01*
X133615222Y-70284287D01*
X133519984Y-70308097D01*
X133448556Y-70308097D01*
X133353318Y-70284287D01*
X133305699Y-70260478D01*
X133258080Y-70212859D01*
X133234270Y-70141430D01*
X133234270Y-70093811D01*
X133258080Y-70022382D01*
X133281889Y-69998573D01*
X133234270Y-69570001D02*
X133234270Y-69665240D01*
X133258080Y-69712859D01*
X133281889Y-69736668D01*
X133353318Y-69784287D01*
X133448556Y-69808097D01*
X133639032Y-69808097D01*
X133686651Y-69784287D01*
X133710460Y-69760478D01*
X133734270Y-69712859D01*
X133734270Y-69617620D01*
X133710460Y-69570001D01*
X133686651Y-69546192D01*
X133639032Y-69522382D01*
X133519984Y-69522382D01*
X133472365Y-69546192D01*
X133448556Y-69570001D01*
X133424746Y-69617620D01*
X133424746Y-69712859D01*
X133448556Y-69760478D01*
X133472365Y-69784287D01*
X133519984Y-69808097D01*
G04 #@! TO.C,D2*
X124346190Y-70199047D02*
X123846190Y-70199047D01*
X123846190Y-70080000D01*
X123870000Y-70008571D01*
X123917619Y-69960952D01*
X123965238Y-69937142D01*
X124060476Y-69913333D01*
X124131904Y-69913333D01*
X124227142Y-69937142D01*
X124274761Y-69960952D01*
X124322380Y-70008571D01*
X124346190Y-70080000D01*
X124346190Y-70199047D01*
X123893809Y-69722857D02*
X123870000Y-69699047D01*
X123846190Y-69651428D01*
X123846190Y-69532380D01*
X123870000Y-69484761D01*
X123893809Y-69460952D01*
X123941428Y-69437142D01*
X123989047Y-69437142D01*
X124060476Y-69460952D01*
X124346190Y-69746666D01*
X124346190Y-69437142D01*
G04 #@! TO.C,C5*
X125868571Y-62093333D02*
X125892380Y-62117142D01*
X125916190Y-62188571D01*
X125916190Y-62236190D01*
X125892380Y-62307619D01*
X125844761Y-62355238D01*
X125797142Y-62379047D01*
X125701904Y-62402857D01*
X125630476Y-62402857D01*
X125535238Y-62379047D01*
X125487619Y-62355238D01*
X125440000Y-62307619D01*
X125416190Y-62236190D01*
X125416190Y-62188571D01*
X125440000Y-62117142D01*
X125463809Y-62093333D01*
X125416190Y-61640952D02*
X125416190Y-61879047D01*
X125654285Y-61902857D01*
X125630476Y-61879047D01*
X125606666Y-61831428D01*
X125606666Y-61712380D01*
X125630476Y-61664761D01*
X125654285Y-61640952D01*
X125701904Y-61617142D01*
X125820952Y-61617142D01*
X125868571Y-61640952D01*
X125892380Y-61664761D01*
X125916190Y-61712380D01*
X125916190Y-61831428D01*
X125892380Y-61879047D01*
X125868571Y-61902857D01*
G04 #@! TO.C,R9*
X130016666Y-74401190D02*
X129850000Y-74163095D01*
X129730952Y-74401190D02*
X129730952Y-73901190D01*
X129921428Y-73901190D01*
X129969047Y-73925000D01*
X129992857Y-73948809D01*
X130016666Y-73996428D01*
X130016666Y-74067857D01*
X129992857Y-74115476D01*
X129969047Y-74139285D01*
X129921428Y-74163095D01*
X129730952Y-74163095D01*
X130254761Y-74401190D02*
X130350000Y-74401190D01*
X130397619Y-74377380D01*
X130421428Y-74353571D01*
X130469047Y-74282142D01*
X130492857Y-74186904D01*
X130492857Y-73996428D01*
X130469047Y-73948809D01*
X130445238Y-73925000D01*
X130397619Y-73901190D01*
X130302380Y-73901190D01*
X130254761Y-73925000D01*
X130230952Y-73948809D01*
X130207142Y-73996428D01*
X130207142Y-74115476D01*
X130230952Y-74163095D01*
X130254761Y-74186904D01*
X130302380Y-74210714D01*
X130397619Y-74210714D01*
X130445238Y-74186904D01*
X130469047Y-74163095D01*
X130492857Y-74115476D01*
G04 #@! TO.C,R7*
X129406666Y-65276190D02*
X129240000Y-65038095D01*
X129120952Y-65276190D02*
X129120952Y-64776190D01*
X129311428Y-64776190D01*
X129359047Y-64800000D01*
X129382857Y-64823809D01*
X129406666Y-64871428D01*
X129406666Y-64942857D01*
X129382857Y-64990476D01*
X129359047Y-65014285D01*
X129311428Y-65038095D01*
X129120952Y-65038095D01*
X129573333Y-64776190D02*
X129906666Y-64776190D01*
X129692380Y-65276190D01*
G04 #@! TO.C,R6*
X131226666Y-57546190D02*
X131060000Y-57308095D01*
X130940952Y-57546190D02*
X130940952Y-57046190D01*
X131131428Y-57046190D01*
X131179047Y-57070000D01*
X131202857Y-57093809D01*
X131226666Y-57141428D01*
X131226666Y-57212857D01*
X131202857Y-57260476D01*
X131179047Y-57284285D01*
X131131428Y-57308095D01*
X130940952Y-57308095D01*
X131655238Y-57046190D02*
X131560000Y-57046190D01*
X131512380Y-57070000D01*
X131488571Y-57093809D01*
X131440952Y-57165238D01*
X131417142Y-57260476D01*
X131417142Y-57450952D01*
X131440952Y-57498571D01*
X131464761Y-57522380D01*
X131512380Y-57546190D01*
X131607619Y-57546190D01*
X131655238Y-57522380D01*
X131679047Y-57498571D01*
X131702857Y-57450952D01*
X131702857Y-57331904D01*
X131679047Y-57284285D01*
X131655238Y-57260476D01*
X131607619Y-57236666D01*
X131512380Y-57236666D01*
X131464761Y-57260476D01*
X131440952Y-57284285D01*
X131417142Y-57331904D01*
G04 #@! TO.C,R5*
X123141666Y-74451190D02*
X122975000Y-74213095D01*
X122855952Y-74451190D02*
X122855952Y-73951190D01*
X123046428Y-73951190D01*
X123094047Y-73975000D01*
X123117857Y-73998809D01*
X123141666Y-74046428D01*
X123141666Y-74117857D01*
X123117857Y-74165476D01*
X123094047Y-74189285D01*
X123046428Y-74213095D01*
X122855952Y-74213095D01*
X123594047Y-73951190D02*
X123355952Y-73951190D01*
X123332142Y-74189285D01*
X123355952Y-74165476D01*
X123403571Y-74141666D01*
X123522619Y-74141666D01*
X123570238Y-74165476D01*
X123594047Y-74189285D01*
X123617857Y-74236904D01*
X123617857Y-74355952D01*
X123594047Y-74403571D01*
X123570238Y-74427380D01*
X123522619Y-74451190D01*
X123403571Y-74451190D01*
X123355952Y-74427380D01*
X123332142Y-74403571D01*
G04 #@! TO.C,R4*
X127866666Y-74426190D02*
X127700000Y-74188095D01*
X127580952Y-74426190D02*
X127580952Y-73926190D01*
X127771428Y-73926190D01*
X127819047Y-73950000D01*
X127842857Y-73973809D01*
X127866666Y-74021428D01*
X127866666Y-74092857D01*
X127842857Y-74140476D01*
X127819047Y-74164285D01*
X127771428Y-74188095D01*
X127580952Y-74188095D01*
X128295238Y-74092857D02*
X128295238Y-74426190D01*
X128176190Y-73902380D02*
X128057142Y-74259523D01*
X128366666Y-74259523D01*
G04 #@! TO.C,R3*
X132274466Y-74394190D02*
X132107800Y-74156095D01*
X131988752Y-74394190D02*
X131988752Y-73894190D01*
X132179228Y-73894190D01*
X132226847Y-73918000D01*
X132250657Y-73941809D01*
X132274466Y-73989428D01*
X132274466Y-74060857D01*
X132250657Y-74108476D01*
X132226847Y-74132285D01*
X132179228Y-74156095D01*
X131988752Y-74156095D01*
X132441133Y-73894190D02*
X132750657Y-73894190D01*
X132583990Y-74084666D01*
X132655419Y-74084666D01*
X132703038Y-74108476D01*
X132726847Y-74132285D01*
X132750657Y-74179904D01*
X132750657Y-74298952D01*
X132726847Y-74346571D01*
X132703038Y-74370380D01*
X132655419Y-74394190D01*
X132512561Y-74394190D01*
X132464942Y-74370380D01*
X132441133Y-74346571D01*
G04 #@! TO.C,R2*
X125566666Y-74426190D02*
X125400000Y-74188095D01*
X125280952Y-74426190D02*
X125280952Y-73926190D01*
X125471428Y-73926190D01*
X125519047Y-73950000D01*
X125542857Y-73973809D01*
X125566666Y-74021428D01*
X125566666Y-74092857D01*
X125542857Y-74140476D01*
X125519047Y-74164285D01*
X125471428Y-74188095D01*
X125280952Y-74188095D01*
X125757142Y-73973809D02*
X125780952Y-73950000D01*
X125828571Y-73926190D01*
X125947619Y-73926190D01*
X125995238Y-73950000D01*
X126019047Y-73973809D01*
X126042857Y-74021428D01*
X126042857Y-74069047D01*
X126019047Y-74140476D01*
X125733333Y-74426190D01*
X126042857Y-74426190D01*
G04 #@! TO.C,R1*
X134433466Y-74444990D02*
X134266800Y-74206895D01*
X134147752Y-74444990D02*
X134147752Y-73944990D01*
X134338228Y-73944990D01*
X134385847Y-73968800D01*
X134409657Y-73992609D01*
X134433466Y-74040228D01*
X134433466Y-74111657D01*
X134409657Y-74159276D01*
X134385847Y-74183085D01*
X134338228Y-74206895D01*
X134147752Y-74206895D01*
X134909657Y-74444990D02*
X134623942Y-74444990D01*
X134766800Y-74444990D02*
X134766800Y-73944990D01*
X134719180Y-74016419D01*
X134671561Y-74064038D01*
X134623942Y-74087847D01*
G04 #@! TO.C,SW2*
X119353333Y-72762380D02*
X119424761Y-72786190D01*
X119543809Y-72786190D01*
X119591428Y-72762380D01*
X119615238Y-72738571D01*
X119639047Y-72690952D01*
X119639047Y-72643333D01*
X119615238Y-72595714D01*
X119591428Y-72571904D01*
X119543809Y-72548095D01*
X119448571Y-72524285D01*
X119400952Y-72500476D01*
X119377142Y-72476666D01*
X119353333Y-72429047D01*
X119353333Y-72381428D01*
X119377142Y-72333809D01*
X119400952Y-72310000D01*
X119448571Y-72286190D01*
X119567619Y-72286190D01*
X119639047Y-72310000D01*
X119805714Y-72286190D02*
X119924761Y-72786190D01*
X120020000Y-72429047D01*
X120115238Y-72786190D01*
X120234285Y-72286190D01*
X120400952Y-72333809D02*
X120424761Y-72310000D01*
X120472380Y-72286190D01*
X120591428Y-72286190D01*
X120639047Y-72310000D01*
X120662857Y-72333809D01*
X120686666Y-72381428D01*
X120686666Y-72429047D01*
X120662857Y-72500476D01*
X120377142Y-72786190D01*
X120686666Y-72786190D01*
G04 #@! TO.C,SW1*
D11*
X124316666Y-58754761D02*
X124459523Y-58802380D01*
X124697619Y-58802380D01*
X124792857Y-58754761D01*
X124840476Y-58707142D01*
X124888095Y-58611904D01*
X124888095Y-58516666D01*
X124840476Y-58421428D01*
X124792857Y-58373809D01*
X124697619Y-58326190D01*
X124507142Y-58278571D01*
X124411904Y-58230952D01*
X124364285Y-58183333D01*
X124316666Y-58088095D01*
X124316666Y-57992857D01*
X124364285Y-57897619D01*
X124411904Y-57850000D01*
X124507142Y-57802380D01*
X124745238Y-57802380D01*
X124888095Y-57850000D01*
X125221428Y-57802380D02*
X125459523Y-58802380D01*
X125650000Y-58088095D01*
X125840476Y-58802380D01*
X126078571Y-57802380D01*
X126983333Y-58802380D02*
X126411904Y-58802380D01*
X126697619Y-58802380D02*
X126697619Y-57802380D01*
X126602380Y-57945238D01*
X126507142Y-58040476D01*
X126411904Y-58088095D01*
G04 #@! TD*
M02*
