G04 #@! TF.GenerationSoftware,KiCad,Pcbnew,(5.1.9)-1*
G04 #@! TF.CreationDate,2021-03-01T14:14:47+01:00*
G04 #@! TF.ProjectId,button timer v1.2.1_Coin_Cell,62757474-6f6e-4207-9469-6d6572207631,rev?*
G04 #@! TF.SameCoordinates,Original*
G04 #@! TF.FileFunction,Copper,L1,Top*
G04 #@! TF.FilePolarity,Positive*
%FSLAX46Y46*%
G04 Gerber Fmt 4.6, Leading zero omitted, Abs format (unit mm)*
G04 Created by KiCad (PCBNEW (5.1.9)-1) date 2021-03-01 14:14:47*
%MOMM*%
%LPD*%
G01*
G04 APERTURE LIST*
G04 #@! TA.AperFunction,NonConductor*
%ADD10C,0.300000*%
G04 #@! TD*
G04 #@! TA.AperFunction,SMDPad,CuDef*
%ADD11R,2.500000X1.000000*%
G04 #@! TD*
G04 #@! TA.AperFunction,SMDPad,CuDef*
%ADD12R,1.000000X1.800000*%
G04 #@! TD*
G04 #@! TA.AperFunction,SMDPad,CuDef*
%ADD13R,1.000000X0.800000*%
G04 #@! TD*
G04 #@! TA.AperFunction,SMDPad,CuDef*
%ADD14R,1.650000X2.250000*%
G04 #@! TD*
G04 #@! TA.AperFunction,SMDPad,CuDef*
%ADD15R,0.900000X0.620000*%
G04 #@! TD*
G04 #@! TA.AperFunction,SMDPad,CuDef*
%ADD16R,1.500000X1.100000*%
G04 #@! TD*
G04 #@! TA.AperFunction,SMDPad,CuDef*
%ADD17R,1.500000X1.500000*%
G04 #@! TD*
G04 #@! TA.AperFunction,SMDPad,CuDef*
%ADD18R,1.700000X1.300000*%
G04 #@! TD*
G04 #@! TA.AperFunction,ComponentPad*
%ADD19C,2.000000*%
G04 #@! TD*
G04 #@! TA.AperFunction,ComponentPad*
%ADD20O,1.700000X1.700000*%
G04 #@! TD*
G04 #@! TA.AperFunction,ComponentPad*
%ADD21R,1.700000X1.700000*%
G04 #@! TD*
G04 #@! TA.AperFunction,ViaPad*
%ADD22C,0.800000*%
G04 #@! TD*
G04 #@! TA.AperFunction,Conductor*
%ADD23C,0.500000*%
G04 #@! TD*
G04 #@! TA.AperFunction,Conductor*
%ADD24C,0.350000*%
G04 #@! TD*
G04 #@! TA.AperFunction,Conductor*
%ADD25C,0.250000*%
G04 #@! TD*
G04 #@! TA.AperFunction,Conductor*
%ADD26C,0.254000*%
G04 #@! TD*
G04 #@! TA.AperFunction,Conductor*
%ADD27C,0.150000*%
G04 #@! TD*
G04 APERTURE END LIST*
D10*
X118105922Y-58670238D02*
X119058303Y-58670238D01*
X118808303Y-60670238D01*
X117439255Y-58670238D02*
X117189255Y-60670238D01*
X116296398Y-58670238D02*
X117010684Y-59813095D01*
X116046398Y-60670238D02*
X117332113Y-59527380D01*
X118092827Y-57017857D02*
X118759494Y-57017857D01*
X118890446Y-55970238D02*
X118640446Y-57970238D01*
X117688065Y-57970238D01*
X116223779Y-55970238D02*
X117176160Y-55970238D01*
X116926160Y-57970238D01*
D11*
G04 #@! TO.P,X1,22*
G04 #@! TO.N,/TX*
X118130000Y-93670000D03*
G04 #@! TO.P,X1,21*
G04 #@! TO.N,/RX*
X118130000Y-91670000D03*
G04 #@! TO.P,X1,20*
G04 #@! TO.N,/GPIO5*
X118130000Y-89670000D03*
G04 #@! TO.P,X1,19*
G04 #@! TO.N,/GPIO4*
X118130000Y-87670000D03*
G04 #@! TO.P,X1,18*
G04 #@! TO.N,/GPIO0*
X118130000Y-85670000D03*
G04 #@! TO.P,X1,17*
G04 #@! TO.N,/GPIO2*
X118130000Y-83670000D03*
G04 #@! TO.P,X1,16*
G04 #@! TO.N,/GPIO15*
X118130000Y-81670000D03*
G04 #@! TO.P,X1,15*
G04 #@! TO.N,/GND*
X118130000Y-79670000D03*
D12*
G04 #@! TO.P,X1,14*
G04 #@! TO.N,N/C*
X120730000Y-78170000D03*
G04 #@! TO.P,X1,13*
X122730000Y-78170000D03*
G04 #@! TO.P,X1,12*
X124730000Y-78170000D03*
G04 #@! TO.P,X1,11*
X126730000Y-78170000D03*
G04 #@! TO.P,X1,10*
X128730000Y-78170000D03*
G04 #@! TO.P,X1,9*
X130730000Y-78170000D03*
D11*
G04 #@! TO.P,X1,8*
G04 #@! TO.N,/VCC*
X133330000Y-79670000D03*
G04 #@! TO.P,X1,7*
G04 #@! TO.N,N/C*
X133330000Y-81670000D03*
G04 #@! TO.P,X1,6*
X133330000Y-83670000D03*
G04 #@! TO.P,X1,5*
X133330000Y-85670000D03*
G04 #@! TO.P,X1,4*
X133330000Y-87670000D03*
G04 #@! TO.P,X1,3*
G04 #@! TO.N,/EN*
X133330000Y-89670000D03*
G04 #@! TO.P,X1,2*
G04 #@! TO.N,N/C*
X133330000Y-91670000D03*
G04 #@! TO.P,X1,1*
G04 #@! TO.N,/RST*
X133330000Y-93670000D03*
G04 #@! TD*
D13*
G04 #@! TO.P,Q1,3*
G04 #@! TO.N,Net-(L1-Pad1)*
X127260000Y-64530000D03*
G04 #@! TO.P,Q1,2*
G04 #@! TO.N,Net-(BT1-Pad1)*
X125160000Y-65480000D03*
G04 #@! TO.P,Q1,1*
G04 #@! TO.N,Net-(Q1-Pad1)*
X125160000Y-63580000D03*
G04 #@! TD*
G04 #@! TO.P,D1,2*
G04 #@! TO.N,Net-(D1-Pad2)*
G04 #@! TA.AperFunction,SMDPad,CuDef*
G36*
G01*
X132025000Y-61335000D02*
X130875000Y-61335000D01*
G75*
G02*
X130625000Y-61085000I0J250000D01*
G01*
X130625000Y-59985000D01*
G75*
G02*
X130875000Y-59735000I250000J0D01*
G01*
X132025000Y-59735000D01*
G75*
G02*
X132275000Y-59985000I0J-250000D01*
G01*
X132275000Y-61085000D01*
G75*
G02*
X132025000Y-61335000I-250000J0D01*
G01*
G37*
G04 #@! TD.AperFunction*
G04 #@! TO.P,D1,1*
G04 #@! TO.N,/GND*
G04 #@! TA.AperFunction,SMDPad,CuDef*
G36*
G01*
X132025000Y-64185000D02*
X130875000Y-64185000D01*
G75*
G02*
X130625000Y-63935000I0J250000D01*
G01*
X130625000Y-62835000D01*
G75*
G02*
X130875000Y-62585000I250000J0D01*
G01*
X132025000Y-62585000D01*
G75*
G02*
X132275000Y-62835000I0J-250000D01*
G01*
X132275000Y-63935000D01*
G75*
G02*
X132025000Y-64185000I-250000J0D01*
G01*
G37*
G04 #@! TD.AperFunction*
G04 #@! TD*
D14*
G04 #@! TO.P,C6,2*
G04 #@! TO.N,/GND*
X131958080Y-69865240D03*
G04 #@! TO.P,C6,1*
G04 #@! TO.N,/VCC*
X135058080Y-69865240D03*
G04 #@! TD*
G04 #@! TO.P,D2,2*
G04 #@! TO.N,Net-(D2-Pad2)*
G04 #@! TA.AperFunction,SMDPad,CuDef*
G36*
G01*
X124420000Y-70230001D02*
X124420000Y-69429999D01*
G75*
G02*
X124669999Y-69180000I249999J0D01*
G01*
X125495001Y-69180000D01*
G75*
G02*
X125745000Y-69429999I0J-249999D01*
G01*
X125745000Y-70230001D01*
G75*
G02*
X125495001Y-70480000I-249999J0D01*
G01*
X124669999Y-70480000D01*
G75*
G02*
X124420000Y-70230001I0J249999D01*
G01*
G37*
G04 #@! TD.AperFunction*
G04 #@! TO.P,D2,1*
G04 #@! TO.N,/GND*
G04 #@! TA.AperFunction,SMDPad,CuDef*
G36*
G01*
X122495000Y-70230001D02*
X122495000Y-69429999D01*
G75*
G02*
X122744999Y-69180000I249999J0D01*
G01*
X123570001Y-69180000D01*
G75*
G02*
X123820000Y-69429999I0J-249999D01*
G01*
X123820000Y-70230001D01*
G75*
G02*
X123570001Y-70480000I-249999J0D01*
G01*
X122744999Y-70480000D01*
G75*
G02*
X122495000Y-70230001I0J249999D01*
G01*
G37*
G04 #@! TD.AperFunction*
G04 #@! TD*
D15*
G04 #@! TO.P,C7,2*
G04 #@! TO.N,/GND*
X134640560Y-78155800D03*
G04 #@! TO.P,C7,1*
G04 #@! TO.N,/VCC*
X135940560Y-78155800D03*
G04 #@! TD*
D16*
G04 #@! TO.P,C5,2*
G04 #@! TO.N,Net-(BT1-Pad1)*
X126840000Y-62010000D03*
G04 #@! TO.P,C5,1*
G04 #@! TO.N,/GND*
X124540000Y-62010000D03*
G04 #@! TD*
D17*
G04 #@! TO.P,R9,2*
G04 #@! TO.N,/GPIO5*
X130000000Y-75375000D03*
G04 #@! TO.P,R9,1*
G04 #@! TO.N,Net-(D2-Pad2)*
X130000000Y-72975000D03*
G04 #@! TD*
G04 #@! TO.P,R7,2*
G04 #@! TO.N,Net-(L1-Pad1)*
X129590000Y-63850000D03*
G04 #@! TO.P,R7,1*
G04 #@! TO.N,Net-(R7-Pad1)*
X129590000Y-66250000D03*
G04 #@! TD*
G04 #@! TO.P,R6,2*
G04 #@! TO.N,Net-(R6-Pad2)*
X131410000Y-56120000D03*
G04 #@! TO.P,R6,1*
G04 #@! TO.N,Net-(D1-Pad2)*
X131410000Y-58520000D03*
G04 #@! TD*
G04 #@! TO.P,R5,2*
G04 #@! TO.N,/GPIO15*
X123125000Y-75425000D03*
G04 #@! TO.P,R5,1*
G04 #@! TO.N,/GND*
X123125000Y-73025000D03*
G04 #@! TD*
G04 #@! TO.P,R4,2*
G04 #@! TO.N,/GPIO0*
X127850000Y-75400000D03*
G04 #@! TO.P,R4,1*
G04 #@! TO.N,/VCC*
X127850000Y-73000000D03*
G04 #@! TD*
G04 #@! TO.P,R3,2*
G04 #@! TO.N,/RST*
X132257800Y-75368000D03*
G04 #@! TO.P,R3,1*
G04 #@! TO.N,/VCC*
X132257800Y-72968000D03*
G04 #@! TD*
G04 #@! TO.P,R2,2*
G04 #@! TO.N,/GPIO2*
X125550000Y-75400000D03*
G04 #@! TO.P,R2,1*
G04 #@! TO.N,/VCC*
X125550000Y-73000000D03*
G04 #@! TD*
G04 #@! TO.P,R1,2*
G04 #@! TO.N,/EN*
X134416800Y-75418800D03*
G04 #@! TO.P,R1,1*
G04 #@! TO.N,/VCC*
X134416800Y-73018800D03*
G04 #@! TD*
D18*
G04 #@! TO.P,SW2,2*
G04 #@! TO.N,/GND*
X120070000Y-70660000D03*
G04 #@! TO.P,SW2,1*
G04 #@! TO.N,/GPIO0*
X120070000Y-74360000D03*
G04 #@! TD*
D19*
G04 #@! TO.P,SW1,1*
G04 #@! TO.N,Net-(BT1-Pad1)*
X122300000Y-60600000D03*
G04 #@! TO.P,SW1,2*
G04 #@! TO.N,Net-(R6-Pad2)*
X122300000Y-56100000D03*
G04 #@! TO.P,SW1,1*
G04 #@! TO.N,Net-(BT1-Pad1)*
X128800000Y-60600000D03*
G04 #@! TO.P,SW1,2*
G04 #@! TO.N,Net-(R6-Pad2)*
X128800000Y-56100000D03*
G04 #@! TD*
D20*
G04 #@! TO.P,J1,5*
G04 #@! TO.N,/RST*
X116960000Y-67190000D03*
G04 #@! TO.P,J1,4*
G04 #@! TO.N,/TX*
X116960000Y-69730000D03*
G04 #@! TO.P,J1,3*
G04 #@! TO.N,/RX*
X116960000Y-72270000D03*
G04 #@! TO.P,J1,2*
G04 #@! TO.N,/GND*
X116960000Y-74810000D03*
D21*
G04 #@! TO.P,J1,1*
G04 #@! TO.N,/VCC*
X116960000Y-77350000D03*
G04 #@! TD*
D22*
G04 #@! TO.N,/VCC*
X134825000Y-67125000D03*
G04 #@! TO.N,/GND*
X120475000Y-58275000D03*
X124600000Y-62025000D03*
X132000000Y-63425000D03*
X118925000Y-79675000D03*
X117350000Y-79650000D03*
X123150000Y-69925000D03*
X119950000Y-70775000D03*
X123325000Y-73100000D03*
X131230000Y-93670000D03*
X124510000Y-93940000D03*
X125830000Y-94000000D03*
X127100000Y-93950000D03*
X127080000Y-92700000D03*
X125830000Y-92710000D03*
X124530000Y-92730000D03*
X131900080Y-69400000D03*
X134575000Y-78275000D03*
X126600000Y-57660000D03*
G04 #@! TO.N,/RST*
X129875000Y-70500000D03*
X132575000Y-75050000D03*
X133330000Y-93670000D03*
G04 #@! TO.N,/TX*
X118125000Y-93825000D03*
G04 #@! TO.N,/EN*
X134350000Y-75550000D03*
X133437500Y-89737500D03*
G04 #@! TO.N,Net-(BT1-Pad1)*
X125075000Y-65300000D03*
X127040000Y-62010000D03*
G04 #@! TO.N,/GPIO4*
X118075000Y-87700000D03*
X124700000Y-57660000D03*
X120949999Y-62025001D03*
G04 #@! TO.N,Net-(R7-Pad1)*
X129500000Y-66100000D03*
G04 #@! TO.N,Net-(L1-Pad1)*
X129590000Y-63850000D03*
G04 #@! TO.N,Net-(Q1-Pad1)*
X125730189Y-58125202D03*
G04 #@! TD*
D23*
G04 #@! TO.N,/VCC*
X134825000Y-69632160D02*
X135058080Y-69865240D01*
X134825000Y-67125000D02*
X134825000Y-69632160D01*
X135058080Y-72377520D02*
X134416800Y-73018800D01*
X135058080Y-69865240D02*
X135058080Y-72377520D01*
X132308600Y-73018800D02*
X132257800Y-72968000D01*
X134416800Y-73018800D02*
X132308600Y-73018800D01*
X135940560Y-70747720D02*
X135940560Y-78155800D01*
X135058080Y-69865240D02*
X135940560Y-70747720D01*
X134426360Y-79670000D02*
X133330000Y-79670000D01*
X135940560Y-78155800D02*
X134426360Y-79670000D01*
X128925001Y-74075001D02*
X127850000Y-73000000D01*
X131150799Y-74075001D02*
X128925001Y-74075001D01*
X132257800Y-72968000D02*
X131150799Y-74075001D01*
X127850000Y-73000000D02*
X125550000Y-73000000D01*
X124474999Y-71924999D02*
X125550000Y-73000000D01*
X120374999Y-71924999D02*
X124474999Y-71924999D01*
X118160001Y-74139997D02*
X120374999Y-71924999D01*
X118160001Y-76149999D02*
X118160001Y-74139997D01*
X116960000Y-77350000D02*
X118160001Y-76149999D01*
G04 #@! TO.N,/GND*
X131900080Y-63524920D02*
X132000000Y-63425000D01*
X131900080Y-69400000D02*
X131900080Y-63524920D01*
D24*
X120475000Y-58275000D02*
X122775000Y-58275000D01*
X122775000Y-58275000D02*
X124325000Y-56725000D01*
X125665000Y-56725000D02*
X126600000Y-57660000D01*
X124325000Y-56725000D02*
X125665000Y-56725000D01*
D23*
G04 #@! TO.N,/RST*
X132949998Y-93670000D02*
X133330000Y-93670000D01*
X131729999Y-92450001D02*
X132949998Y-93670000D01*
X131729999Y-75895801D02*
X131729999Y-92450001D01*
X132257800Y-75368000D02*
X131729999Y-75895801D01*
X116960000Y-67190000D02*
X126565000Y-67190000D01*
X126565000Y-67190000D02*
X129875000Y-70500000D01*
X129875000Y-70500000D02*
X129875000Y-70500000D01*
X133330000Y-93670000D02*
X133330000Y-93670000D01*
D25*
G04 #@! TO.N,/RX*
X117974998Y-91670000D02*
X118130000Y-91670000D01*
X116654999Y-90350001D02*
X117974998Y-91670000D01*
X116654999Y-85853699D02*
X116654999Y-90350001D01*
X115884999Y-85083699D02*
X116654999Y-85853699D01*
X115884999Y-73345001D02*
X115884999Y-85083699D01*
X116960000Y-72270000D02*
X115884999Y-73345001D01*
D23*
G04 #@! TO.N,/GPIO2*
X125526800Y-75368000D02*
X125526800Y-75673200D01*
X119260002Y-83670000D02*
X118130000Y-83670000D01*
X123580001Y-79350001D02*
X119260002Y-83670000D01*
X123580001Y-77369999D02*
X123580001Y-79350001D01*
X125550000Y-75400000D02*
X123580001Y-77369999D01*
G04 #@! TO.N,/GPIO0*
X119260002Y-85670000D02*
X118130000Y-85670000D01*
X125580001Y-79350001D02*
X119260002Y-85670000D01*
X125580001Y-77289997D02*
X125580001Y-79350001D01*
X125949999Y-76919999D02*
X125580001Y-77289997D01*
X126330001Y-76919999D02*
X125949999Y-76919999D01*
X127850000Y-75400000D02*
X126330001Y-76919999D01*
X120130001Y-74299999D02*
X120070000Y-74360000D01*
X126749999Y-74299999D02*
X120130001Y-74299999D01*
X127850000Y-75400000D02*
X126749999Y-74299999D01*
D24*
G04 #@! TO.N,Net-(BT1-Pad1)*
X122300000Y-62525000D02*
X125075000Y-65300000D01*
X122300000Y-60600000D02*
X122300000Y-62525000D01*
D23*
G04 #@! TO.N,/GPIO15*
X119880000Y-81670000D02*
X118130000Y-81670000D01*
X121879999Y-79670001D02*
X119880000Y-81670000D01*
X121879999Y-76670001D02*
X121879999Y-79670001D01*
X123125000Y-75425000D02*
X121879999Y-76670001D01*
D24*
G04 #@! TO.N,/GPIO4*
X120949999Y-62025001D02*
X120949999Y-60136411D01*
X120949999Y-60136411D02*
X122361399Y-58725011D01*
X122361399Y-58725011D02*
X123634989Y-58725011D01*
X123634989Y-58725011D02*
X124700000Y-57660000D01*
D23*
G04 #@! TO.N,Net-(D2-Pad2)*
X126855000Y-69830000D02*
X125082500Y-69830000D01*
X130000000Y-72975000D02*
X126855000Y-69830000D01*
G04 #@! TO.N,/GPIO5*
X119880000Y-89670000D02*
X118130000Y-89670000D01*
X127580001Y-81969999D02*
X119880000Y-89670000D01*
X128369997Y-76500001D02*
X127580001Y-77289997D01*
X127580001Y-77289997D02*
X127580001Y-81969999D01*
X128874999Y-76500001D02*
X128369997Y-76500001D01*
X130000000Y-75375000D02*
X128874999Y-76500001D01*
G04 #@! TO.N,Net-(D1-Pad2)*
X131410000Y-60495000D02*
X131450000Y-60535000D01*
X131410000Y-58520000D02*
X131410000Y-60495000D01*
G04 #@! TO.N,Net-(R6-Pad2)*
X128910000Y-56120000D02*
X128800000Y-56010000D01*
X131410000Y-56120000D02*
X128910000Y-56120000D01*
X128800000Y-56010000D02*
X122300000Y-56010000D01*
G04 #@! TO.N,Net-(L1-Pad1)*
X128910000Y-64530000D02*
X129590000Y-63850000D01*
X127260000Y-64530000D02*
X128910000Y-64530000D01*
X129590000Y-63850000D02*
X129590000Y-63850000D01*
D24*
G04 #@! TO.N,Net-(Q1-Pad1)*
X125730189Y-63009811D02*
X125730189Y-58690887D01*
X125160000Y-63580000D02*
X125730189Y-63009811D01*
X125730189Y-58690887D02*
X125730189Y-58125202D01*
G04 #@! TD*
D26*
G04 #@! TO.N,/GND*
X129778815Y-79521185D02*
X129875506Y-79600537D01*
X129985820Y-79659502D01*
X130105518Y-79695812D01*
X130230000Y-79708072D01*
X130844999Y-79708072D01*
X130845000Y-92406522D01*
X130840718Y-92450001D01*
X130857804Y-92623491D01*
X130908411Y-92790314D01*
X130990589Y-92944060D01*
X131073467Y-93045047D01*
X131073470Y-93045050D01*
X131101183Y-93078818D01*
X131134950Y-93106530D01*
X131441928Y-93413508D01*
X131441928Y-94170000D01*
X131454188Y-94294482D01*
X131490498Y-94414180D01*
X131549463Y-94524494D01*
X131628815Y-94621185D01*
X131713620Y-94690783D01*
X119759420Y-94680081D01*
X119831185Y-94621185D01*
X119910537Y-94524494D01*
X119969502Y-94414180D01*
X120005812Y-94294482D01*
X120018072Y-94170000D01*
X120018072Y-93170000D01*
X120005812Y-93045518D01*
X119969502Y-92925820D01*
X119910537Y-92815506D01*
X119831185Y-92718815D01*
X119771704Y-92670000D01*
X119831185Y-92621185D01*
X119910537Y-92524494D01*
X119969502Y-92414180D01*
X120005812Y-92294482D01*
X120018072Y-92170000D01*
X120018072Y-91170000D01*
X120005812Y-91045518D01*
X119969502Y-90925820D01*
X119910537Y-90815506D01*
X119831185Y-90718815D01*
X119771704Y-90670000D01*
X119831185Y-90621185D01*
X119882163Y-90559068D01*
X119923469Y-90555000D01*
X119923477Y-90555000D01*
X120053490Y-90542195D01*
X120220313Y-90491589D01*
X120374059Y-90409411D01*
X120508817Y-90298817D01*
X120536534Y-90265044D01*
X128175050Y-82626529D01*
X128208818Y-82598816D01*
X128244778Y-82555000D01*
X128319412Y-82464058D01*
X128348621Y-82409411D01*
X128401590Y-82310312D01*
X128452196Y-82143489D01*
X128465001Y-82013476D01*
X128465001Y-82013468D01*
X128469282Y-81969999D01*
X128465001Y-81926530D01*
X128465001Y-79708072D01*
X129230000Y-79708072D01*
X129354482Y-79695812D01*
X129474180Y-79659502D01*
X129584494Y-79600537D01*
X129681185Y-79521185D01*
X129730000Y-79461704D01*
X129778815Y-79521185D01*
G04 #@! TA.AperFunction,Conductor*
D27*
G36*
X129778815Y-79521185D02*
G01*
X129875506Y-79600537D01*
X129985820Y-79659502D01*
X130105518Y-79695812D01*
X130230000Y-79708072D01*
X130844999Y-79708072D01*
X130845000Y-92406522D01*
X130840718Y-92450001D01*
X130857804Y-92623491D01*
X130908411Y-92790314D01*
X130990589Y-92944060D01*
X131073467Y-93045047D01*
X131073470Y-93045050D01*
X131101183Y-93078818D01*
X131134950Y-93106530D01*
X131441928Y-93413508D01*
X131441928Y-94170000D01*
X131454188Y-94294482D01*
X131490498Y-94414180D01*
X131549463Y-94524494D01*
X131628815Y-94621185D01*
X131713620Y-94690783D01*
X119759420Y-94680081D01*
X119831185Y-94621185D01*
X119910537Y-94524494D01*
X119969502Y-94414180D01*
X120005812Y-94294482D01*
X120018072Y-94170000D01*
X120018072Y-93170000D01*
X120005812Y-93045518D01*
X119969502Y-92925820D01*
X119910537Y-92815506D01*
X119831185Y-92718815D01*
X119771704Y-92670000D01*
X119831185Y-92621185D01*
X119910537Y-92524494D01*
X119969502Y-92414180D01*
X120005812Y-92294482D01*
X120018072Y-92170000D01*
X120018072Y-91170000D01*
X120005812Y-91045518D01*
X119969502Y-90925820D01*
X119910537Y-90815506D01*
X119831185Y-90718815D01*
X119771704Y-90670000D01*
X119831185Y-90621185D01*
X119882163Y-90559068D01*
X119923469Y-90555000D01*
X119923477Y-90555000D01*
X120053490Y-90542195D01*
X120220313Y-90491589D01*
X120374059Y-90409411D01*
X120508817Y-90298817D01*
X120536534Y-90265044D01*
X128175050Y-82626529D01*
X128208818Y-82598816D01*
X128244778Y-82555000D01*
X128319412Y-82464058D01*
X128348621Y-82409411D01*
X128401590Y-82310312D01*
X128452196Y-82143489D01*
X128465001Y-82013476D01*
X128465001Y-82013468D01*
X128469282Y-81969999D01*
X128465001Y-81926530D01*
X128465001Y-79708072D01*
X129230000Y-79708072D01*
X129354482Y-79695812D01*
X129474180Y-79659502D01*
X129584494Y-79600537D01*
X129681185Y-79521185D01*
X129730000Y-79461704D01*
X129778815Y-79521185D01*
G37*
G04 #@! TD.AperFunction*
D26*
X118257000Y-79543000D02*
X119805397Y-79543000D01*
X119875506Y-79600537D01*
X119985820Y-79659502D01*
X120105518Y-79695812D01*
X120230000Y-79708072D01*
X120590349Y-79708072D01*
X120006017Y-80292405D01*
X120018072Y-80170000D01*
X120015000Y-79955750D01*
X119856250Y-79797000D01*
X118257000Y-79797000D01*
X118257000Y-79817000D01*
X118003000Y-79817000D01*
X118003000Y-79797000D01*
X117983000Y-79797000D01*
X117983000Y-79543000D01*
X118003000Y-79543000D01*
X118003000Y-79523000D01*
X118257000Y-79523000D01*
X118257000Y-79543000D01*
G04 #@! TA.AperFunction,Conductor*
D27*
G36*
X118257000Y-79543000D02*
G01*
X119805397Y-79543000D01*
X119875506Y-79600537D01*
X119985820Y-79659502D01*
X120105518Y-79695812D01*
X120230000Y-79708072D01*
X120590349Y-79708072D01*
X120006017Y-80292405D01*
X120018072Y-80170000D01*
X120015000Y-79955750D01*
X119856250Y-79797000D01*
X118257000Y-79797000D01*
X118257000Y-79817000D01*
X118003000Y-79817000D01*
X118003000Y-79797000D01*
X117983000Y-79797000D01*
X117983000Y-79543000D01*
X118003000Y-79543000D01*
X118003000Y-79523000D01*
X118257000Y-79523000D01*
X118257000Y-79543000D01*
G37*
G04 #@! TD.AperFunction*
D26*
X133312306Y-76699337D02*
X133422620Y-76758302D01*
X133542318Y-76794612D01*
X133666800Y-76806872D01*
X135055561Y-76806872D01*
X135055561Y-77208383D01*
X134926310Y-77210800D01*
X134767560Y-77369550D01*
X134767560Y-78028800D01*
X134787560Y-78028800D01*
X134787560Y-78057221D01*
X134541982Y-78302800D01*
X134513560Y-78302800D01*
X134513560Y-78282800D01*
X133714310Y-78282800D01*
X133555560Y-78441550D01*
X133552488Y-78465800D01*
X133559001Y-78531928D01*
X132614999Y-78531928D01*
X132614999Y-77845800D01*
X133552488Y-77845800D01*
X133555560Y-77870050D01*
X133714310Y-78028800D01*
X134513560Y-78028800D01*
X134513560Y-77369550D01*
X134354810Y-77210800D01*
X134190560Y-77207728D01*
X134066078Y-77219988D01*
X133946380Y-77256298D01*
X133836066Y-77315263D01*
X133739375Y-77394615D01*
X133660023Y-77491306D01*
X133601058Y-77601620D01*
X133564748Y-77721318D01*
X133552488Y-77845800D01*
X132614999Y-77845800D01*
X132614999Y-76756072D01*
X133007800Y-76756072D01*
X133132282Y-76743812D01*
X133251980Y-76707502D01*
X133294537Y-76684754D01*
X133312306Y-76699337D01*
G04 #@! TA.AperFunction,Conductor*
D27*
G36*
X133312306Y-76699337D02*
G01*
X133422620Y-76758302D01*
X133542318Y-76794612D01*
X133666800Y-76806872D01*
X135055561Y-76806872D01*
X135055561Y-77208383D01*
X134926310Y-77210800D01*
X134767560Y-77369550D01*
X134767560Y-78028800D01*
X134787560Y-78028800D01*
X134787560Y-78057221D01*
X134541982Y-78302800D01*
X134513560Y-78302800D01*
X134513560Y-78282800D01*
X133714310Y-78282800D01*
X133555560Y-78441550D01*
X133552488Y-78465800D01*
X133559001Y-78531928D01*
X132614999Y-78531928D01*
X132614999Y-77845800D01*
X133552488Y-77845800D01*
X133555560Y-77870050D01*
X133714310Y-78028800D01*
X134513560Y-78028800D01*
X134513560Y-77369550D01*
X134354810Y-77210800D01*
X134190560Y-77207728D01*
X134066078Y-77219988D01*
X133946380Y-77256298D01*
X133836066Y-77315263D01*
X133739375Y-77394615D01*
X133660023Y-77491306D01*
X133601058Y-77601620D01*
X133564748Y-77721318D01*
X133552488Y-77845800D01*
X132614999Y-77845800D01*
X132614999Y-76756072D01*
X133007800Y-76756072D01*
X133132282Y-76743812D01*
X133251980Y-76707502D01*
X133294537Y-76684754D01*
X133312306Y-76699337D01*
G37*
G04 #@! TD.AperFunction*
D26*
X117087000Y-74683000D02*
X117107000Y-74683000D01*
X117107000Y-74937000D01*
X117087000Y-74937000D01*
X117087000Y-74957000D01*
X116833000Y-74957000D01*
X116833000Y-74937000D01*
X116813000Y-74937000D01*
X116813000Y-74683000D01*
X116833000Y-74683000D01*
X116833000Y-74663000D01*
X117087000Y-74663000D01*
X117087000Y-74683000D01*
G04 #@! TA.AperFunction,Conductor*
D27*
G36*
X117087000Y-74683000D02*
G01*
X117107000Y-74683000D01*
X117107000Y-74937000D01*
X117087000Y-74937000D01*
X117087000Y-74957000D01*
X116833000Y-74957000D01*
X116833000Y-74937000D01*
X116813000Y-74937000D01*
X116813000Y-74683000D01*
X116833000Y-74683000D01*
X116833000Y-74663000D01*
X117087000Y-74663000D01*
X117087000Y-74683000D01*
G37*
G04 #@! TD.AperFunction*
D26*
X121898750Y-72898000D02*
X122998000Y-72898000D01*
X122998000Y-72878000D01*
X123252000Y-72878000D01*
X123252000Y-72898000D01*
X123272000Y-72898000D01*
X123272000Y-73152000D01*
X123252000Y-73152000D01*
X123252000Y-73172000D01*
X122998000Y-73172000D01*
X122998000Y-73152000D01*
X121898750Y-73152000D01*
X121740000Y-73310750D01*
X121739310Y-73414999D01*
X121482337Y-73414999D01*
X121450537Y-73355506D01*
X121371185Y-73258815D01*
X121274494Y-73179463D01*
X121164180Y-73120498D01*
X121044482Y-73084188D01*
X120920000Y-73071928D01*
X120479649Y-73071928D01*
X120741578Y-72809999D01*
X121810749Y-72809999D01*
X121898750Y-72898000D01*
G04 #@! TA.AperFunction,Conductor*
D27*
G36*
X121898750Y-72898000D02*
G01*
X122998000Y-72898000D01*
X122998000Y-72878000D01*
X123252000Y-72878000D01*
X123252000Y-72898000D01*
X123272000Y-72898000D01*
X123272000Y-73152000D01*
X123252000Y-73152000D01*
X123252000Y-73172000D01*
X122998000Y-73172000D01*
X122998000Y-73152000D01*
X121898750Y-73152000D01*
X121740000Y-73310750D01*
X121739310Y-73414999D01*
X121482337Y-73414999D01*
X121450537Y-73355506D01*
X121371185Y-73258815D01*
X121274494Y-73179463D01*
X121164180Y-73120498D01*
X121044482Y-73084188D01*
X120920000Y-73071928D01*
X120479649Y-73071928D01*
X120741578Y-72809999D01*
X121810749Y-72809999D01*
X121898750Y-72898000D01*
G37*
G04 #@! TD.AperFunction*
D26*
X127104191Y-68980769D02*
X127028490Y-68957805D01*
X126898477Y-68945000D01*
X126898469Y-68945000D01*
X126855000Y-68940719D01*
X126811531Y-68945000D01*
X126237888Y-68945000D01*
X126233405Y-68936613D01*
X126122962Y-68802038D01*
X125988387Y-68691595D01*
X125834851Y-68609528D01*
X125668255Y-68558992D01*
X125495001Y-68541928D01*
X124669999Y-68541928D01*
X124496745Y-68558992D01*
X124330149Y-68609528D01*
X124206419Y-68675663D01*
X124174494Y-68649463D01*
X124064180Y-68590498D01*
X123944482Y-68554188D01*
X123820000Y-68541928D01*
X123443250Y-68545000D01*
X123284500Y-68703750D01*
X123284500Y-69703000D01*
X123304500Y-69703000D01*
X123304500Y-69957000D01*
X123284500Y-69957000D01*
X123284500Y-69977000D01*
X123030500Y-69977000D01*
X123030500Y-69957000D01*
X122018750Y-69957000D01*
X121860000Y-70115750D01*
X121856928Y-70480000D01*
X121869188Y-70604482D01*
X121905498Y-70724180D01*
X121964463Y-70834494D01*
X122043815Y-70931185D01*
X122140506Y-71010537D01*
X122195625Y-71039999D01*
X121555795Y-71039999D01*
X121555000Y-70945750D01*
X121396250Y-70787000D01*
X120197000Y-70787000D01*
X120197000Y-70807000D01*
X119943000Y-70807000D01*
X119943000Y-70787000D01*
X118743750Y-70787000D01*
X118585000Y-70945750D01*
X118581928Y-71310000D01*
X118594188Y-71434482D01*
X118630498Y-71554180D01*
X118689463Y-71664494D01*
X118768815Y-71761185D01*
X118865506Y-71840537D01*
X118975820Y-71899502D01*
X119095518Y-71935812D01*
X119111075Y-71937344D01*
X118398527Y-72649892D01*
X118445000Y-72416260D01*
X118445000Y-72123740D01*
X118387932Y-71836842D01*
X118275990Y-71566589D01*
X118113475Y-71323368D01*
X117906632Y-71116525D01*
X117732240Y-71000000D01*
X117906632Y-70883475D01*
X118113475Y-70676632D01*
X118275990Y-70433411D01*
X118387932Y-70163158D01*
X118418397Y-70010000D01*
X118581928Y-70010000D01*
X118585000Y-70374250D01*
X118743750Y-70533000D01*
X119943000Y-70533000D01*
X119943000Y-69533750D01*
X120197000Y-69533750D01*
X120197000Y-70533000D01*
X121396250Y-70533000D01*
X121555000Y-70374250D01*
X121558072Y-70010000D01*
X121545812Y-69885518D01*
X121509502Y-69765820D01*
X121450537Y-69655506D01*
X121371185Y-69558815D01*
X121274494Y-69479463D01*
X121164180Y-69420498D01*
X121044482Y-69384188D01*
X120920000Y-69371928D01*
X120355750Y-69375000D01*
X120197000Y-69533750D01*
X119943000Y-69533750D01*
X119784250Y-69375000D01*
X119220000Y-69371928D01*
X119095518Y-69384188D01*
X118975820Y-69420498D01*
X118865506Y-69479463D01*
X118768815Y-69558815D01*
X118689463Y-69655506D01*
X118630498Y-69765820D01*
X118594188Y-69885518D01*
X118581928Y-70010000D01*
X118418397Y-70010000D01*
X118445000Y-69876260D01*
X118445000Y-69583740D01*
X118387932Y-69296842D01*
X118339535Y-69180000D01*
X121856928Y-69180000D01*
X121860000Y-69544250D01*
X122018750Y-69703000D01*
X123030500Y-69703000D01*
X123030500Y-68703750D01*
X122871750Y-68545000D01*
X122495000Y-68541928D01*
X122370518Y-68554188D01*
X122250820Y-68590498D01*
X122140506Y-68649463D01*
X122043815Y-68728815D01*
X121964463Y-68825506D01*
X121905498Y-68935820D01*
X121869188Y-69055518D01*
X121856928Y-69180000D01*
X118339535Y-69180000D01*
X118275990Y-69026589D01*
X118113475Y-68783368D01*
X117906632Y-68576525D01*
X117732240Y-68460000D01*
X117906632Y-68343475D01*
X118113475Y-68136632D01*
X118154656Y-68075000D01*
X126198422Y-68075000D01*
X127104191Y-68980769D01*
G04 #@! TA.AperFunction,Conductor*
D27*
G36*
X127104191Y-68980769D02*
G01*
X127028490Y-68957805D01*
X126898477Y-68945000D01*
X126898469Y-68945000D01*
X126855000Y-68940719D01*
X126811531Y-68945000D01*
X126237888Y-68945000D01*
X126233405Y-68936613D01*
X126122962Y-68802038D01*
X125988387Y-68691595D01*
X125834851Y-68609528D01*
X125668255Y-68558992D01*
X125495001Y-68541928D01*
X124669999Y-68541928D01*
X124496745Y-68558992D01*
X124330149Y-68609528D01*
X124206419Y-68675663D01*
X124174494Y-68649463D01*
X124064180Y-68590498D01*
X123944482Y-68554188D01*
X123820000Y-68541928D01*
X123443250Y-68545000D01*
X123284500Y-68703750D01*
X123284500Y-69703000D01*
X123304500Y-69703000D01*
X123304500Y-69957000D01*
X123284500Y-69957000D01*
X123284500Y-69977000D01*
X123030500Y-69977000D01*
X123030500Y-69957000D01*
X122018750Y-69957000D01*
X121860000Y-70115750D01*
X121856928Y-70480000D01*
X121869188Y-70604482D01*
X121905498Y-70724180D01*
X121964463Y-70834494D01*
X122043815Y-70931185D01*
X122140506Y-71010537D01*
X122195625Y-71039999D01*
X121555795Y-71039999D01*
X121555000Y-70945750D01*
X121396250Y-70787000D01*
X120197000Y-70787000D01*
X120197000Y-70807000D01*
X119943000Y-70807000D01*
X119943000Y-70787000D01*
X118743750Y-70787000D01*
X118585000Y-70945750D01*
X118581928Y-71310000D01*
X118594188Y-71434482D01*
X118630498Y-71554180D01*
X118689463Y-71664494D01*
X118768815Y-71761185D01*
X118865506Y-71840537D01*
X118975820Y-71899502D01*
X119095518Y-71935812D01*
X119111075Y-71937344D01*
X118398527Y-72649892D01*
X118445000Y-72416260D01*
X118445000Y-72123740D01*
X118387932Y-71836842D01*
X118275990Y-71566589D01*
X118113475Y-71323368D01*
X117906632Y-71116525D01*
X117732240Y-71000000D01*
X117906632Y-70883475D01*
X118113475Y-70676632D01*
X118275990Y-70433411D01*
X118387932Y-70163158D01*
X118418397Y-70010000D01*
X118581928Y-70010000D01*
X118585000Y-70374250D01*
X118743750Y-70533000D01*
X119943000Y-70533000D01*
X119943000Y-69533750D01*
X120197000Y-69533750D01*
X120197000Y-70533000D01*
X121396250Y-70533000D01*
X121555000Y-70374250D01*
X121558072Y-70010000D01*
X121545812Y-69885518D01*
X121509502Y-69765820D01*
X121450537Y-69655506D01*
X121371185Y-69558815D01*
X121274494Y-69479463D01*
X121164180Y-69420498D01*
X121044482Y-69384188D01*
X120920000Y-69371928D01*
X120355750Y-69375000D01*
X120197000Y-69533750D01*
X119943000Y-69533750D01*
X119784250Y-69375000D01*
X119220000Y-69371928D01*
X119095518Y-69384188D01*
X118975820Y-69420498D01*
X118865506Y-69479463D01*
X118768815Y-69558815D01*
X118689463Y-69655506D01*
X118630498Y-69765820D01*
X118594188Y-69885518D01*
X118581928Y-70010000D01*
X118418397Y-70010000D01*
X118445000Y-69876260D01*
X118445000Y-69583740D01*
X118387932Y-69296842D01*
X118339535Y-69180000D01*
X121856928Y-69180000D01*
X121860000Y-69544250D01*
X122018750Y-69703000D01*
X123030500Y-69703000D01*
X123030500Y-68703750D01*
X122871750Y-68545000D01*
X122495000Y-68541928D01*
X122370518Y-68554188D01*
X122250820Y-68590498D01*
X122140506Y-68649463D01*
X122043815Y-68728815D01*
X121964463Y-68825506D01*
X121905498Y-68935820D01*
X121869188Y-69055518D01*
X121856928Y-69180000D01*
X118339535Y-69180000D01*
X118275990Y-69026589D01*
X118113475Y-68783368D01*
X117906632Y-68576525D01*
X117732240Y-68460000D01*
X117906632Y-68343475D01*
X118113475Y-68136632D01*
X118154656Y-68075000D01*
X126198422Y-68075000D01*
X127104191Y-68980769D01*
G37*
G04 #@! TD.AperFunction*
D26*
X135840001Y-66922516D02*
X135820226Y-66823102D01*
X135742205Y-66634744D01*
X135628937Y-66465226D01*
X135484774Y-66321063D01*
X135315256Y-66207795D01*
X135126898Y-66129774D01*
X134926939Y-66090000D01*
X134723061Y-66090000D01*
X134523102Y-66129774D01*
X134334744Y-66207795D01*
X134165226Y-66321063D01*
X134021063Y-66465226D01*
X133907795Y-66634744D01*
X133829774Y-66823102D01*
X133790000Y-67023061D01*
X133790000Y-67226939D01*
X133829774Y-67426898D01*
X133907795Y-67615256D01*
X133940000Y-67663455D01*
X133940000Y-68176876D01*
X133878586Y-68209703D01*
X133781895Y-68289055D01*
X133702543Y-68385746D01*
X133643578Y-68496060D01*
X133607268Y-68615758D01*
X133595008Y-68740240D01*
X133595008Y-70990240D01*
X133607268Y-71114722D01*
X133643578Y-71234420D01*
X133702543Y-71344734D01*
X133781895Y-71441425D01*
X133878586Y-71520777D01*
X133988900Y-71579742D01*
X134108598Y-71616052D01*
X134173081Y-71622403D01*
X134173081Y-71630728D01*
X133666800Y-71630728D01*
X133542318Y-71642988D01*
X133422620Y-71679298D01*
X133380063Y-71702046D01*
X133362294Y-71687463D01*
X133251980Y-71628498D01*
X133132282Y-71592188D01*
X133022028Y-71581329D01*
X133027260Y-71579742D01*
X133137574Y-71520777D01*
X133234265Y-71441425D01*
X133313617Y-71344734D01*
X133372582Y-71234420D01*
X133408892Y-71114722D01*
X133421152Y-70990240D01*
X133418080Y-70150990D01*
X133259330Y-69992240D01*
X132085080Y-69992240D01*
X132085080Y-70012240D01*
X131831080Y-70012240D01*
X131831080Y-69992240D01*
X131811080Y-69992240D01*
X131811080Y-69738240D01*
X131831080Y-69738240D01*
X131831080Y-68263990D01*
X132085080Y-68263990D01*
X132085080Y-69738240D01*
X133259330Y-69738240D01*
X133418080Y-69579490D01*
X133421152Y-68740240D01*
X133408892Y-68615758D01*
X133372582Y-68496060D01*
X133313617Y-68385746D01*
X133234265Y-68289055D01*
X133137574Y-68209703D01*
X133027260Y-68150738D01*
X132907562Y-68114428D01*
X132783080Y-68102168D01*
X132243830Y-68105240D01*
X132085080Y-68263990D01*
X131831080Y-68263990D01*
X131672330Y-68105240D01*
X131133080Y-68102168D01*
X131008598Y-68114428D01*
X130888900Y-68150738D01*
X130778586Y-68209703D01*
X130681895Y-68289055D01*
X130602543Y-68385746D01*
X130543578Y-68496060D01*
X130507268Y-68615758D01*
X130495008Y-68740240D01*
X130498080Y-69579490D01*
X130656828Y-69738238D01*
X130576949Y-69738238D01*
X130534774Y-69696063D01*
X130365256Y-69582795D01*
X130176898Y-69504774D01*
X130120044Y-69493465D01*
X127221534Y-66594956D01*
X127193817Y-66561183D01*
X127059059Y-66450589D01*
X126905313Y-66368411D01*
X126738490Y-66317805D01*
X126608477Y-66305000D01*
X126608469Y-66305000D01*
X126565000Y-66300719D01*
X126521531Y-66305000D01*
X126132674Y-66305000D01*
X126190537Y-66234494D01*
X126249502Y-66124180D01*
X126285812Y-66004482D01*
X126298072Y-65880000D01*
X126298072Y-65368095D01*
X126308815Y-65381185D01*
X126405506Y-65460537D01*
X126515820Y-65519502D01*
X126635518Y-65555812D01*
X126760000Y-65568072D01*
X127760000Y-65568072D01*
X127884482Y-65555812D01*
X128004180Y-65519502D01*
X128114494Y-65460537D01*
X128169981Y-65415000D01*
X128210299Y-65415000D01*
X128201928Y-65500000D01*
X128201928Y-67000000D01*
X128214188Y-67124482D01*
X128250498Y-67244180D01*
X128309463Y-67354494D01*
X128388815Y-67451185D01*
X128485506Y-67530537D01*
X128595820Y-67589502D01*
X128715518Y-67625812D01*
X128840000Y-67638072D01*
X130340000Y-67638072D01*
X130464482Y-67625812D01*
X130584180Y-67589502D01*
X130694494Y-67530537D01*
X130791185Y-67451185D01*
X130870537Y-67354494D01*
X130929502Y-67244180D01*
X130965812Y-67124482D01*
X130978072Y-67000000D01*
X130978072Y-65500000D01*
X130965812Y-65375518D01*
X130929502Y-65255820D01*
X130870537Y-65145506D01*
X130792158Y-65050000D01*
X130870537Y-64954494D01*
X130929502Y-64844180D01*
X130936443Y-64821298D01*
X131164250Y-64820000D01*
X131323000Y-64661250D01*
X131323000Y-63512000D01*
X131577000Y-63512000D01*
X131577000Y-64661250D01*
X131735750Y-64820000D01*
X132275000Y-64823072D01*
X132399482Y-64810812D01*
X132519180Y-64774502D01*
X132629494Y-64715537D01*
X132726185Y-64636185D01*
X132805537Y-64539494D01*
X132864502Y-64429180D01*
X132900812Y-64309482D01*
X132913072Y-64185000D01*
X132910000Y-63670750D01*
X132751250Y-63512000D01*
X131577000Y-63512000D01*
X131323000Y-63512000D01*
X131303000Y-63512000D01*
X131303000Y-63258000D01*
X131323000Y-63258000D01*
X131323000Y-63238000D01*
X131577000Y-63238000D01*
X131577000Y-63258000D01*
X132751250Y-63258000D01*
X132910000Y-63099250D01*
X132913072Y-62585000D01*
X132900812Y-62460518D01*
X132864502Y-62340820D01*
X132805537Y-62230506D01*
X132726185Y-62133815D01*
X132629494Y-62054463D01*
X132519180Y-61995498D01*
X132399482Y-61959188D01*
X132275000Y-61946928D01*
X132227291Y-61947200D01*
X132364850Y-61905472D01*
X132518386Y-61823405D01*
X132652962Y-61712962D01*
X132763405Y-61578386D01*
X132845472Y-61424850D01*
X132896008Y-61258254D01*
X132913072Y-61085000D01*
X132913072Y-59985000D01*
X132896008Y-59811746D01*
X132845472Y-59645150D01*
X132763405Y-59491614D01*
X132758252Y-59485335D01*
X132785812Y-59394482D01*
X132798072Y-59270000D01*
X132798072Y-57770000D01*
X132785812Y-57645518D01*
X132749502Y-57525820D01*
X132690537Y-57415506D01*
X132612158Y-57320000D01*
X132690537Y-57224494D01*
X132749502Y-57114180D01*
X132785812Y-56994482D01*
X132798072Y-56870000D01*
X132798072Y-55370000D01*
X132785812Y-55245518D01*
X132781560Y-55231500D01*
X135840000Y-55231500D01*
X135840001Y-66922516D01*
G04 #@! TA.AperFunction,Conductor*
D27*
G36*
X135840001Y-66922516D02*
G01*
X135820226Y-66823102D01*
X135742205Y-66634744D01*
X135628937Y-66465226D01*
X135484774Y-66321063D01*
X135315256Y-66207795D01*
X135126898Y-66129774D01*
X134926939Y-66090000D01*
X134723061Y-66090000D01*
X134523102Y-66129774D01*
X134334744Y-66207795D01*
X134165226Y-66321063D01*
X134021063Y-66465226D01*
X133907795Y-66634744D01*
X133829774Y-66823102D01*
X133790000Y-67023061D01*
X133790000Y-67226939D01*
X133829774Y-67426898D01*
X133907795Y-67615256D01*
X133940000Y-67663455D01*
X133940000Y-68176876D01*
X133878586Y-68209703D01*
X133781895Y-68289055D01*
X133702543Y-68385746D01*
X133643578Y-68496060D01*
X133607268Y-68615758D01*
X133595008Y-68740240D01*
X133595008Y-70990240D01*
X133607268Y-71114722D01*
X133643578Y-71234420D01*
X133702543Y-71344734D01*
X133781895Y-71441425D01*
X133878586Y-71520777D01*
X133988900Y-71579742D01*
X134108598Y-71616052D01*
X134173081Y-71622403D01*
X134173081Y-71630728D01*
X133666800Y-71630728D01*
X133542318Y-71642988D01*
X133422620Y-71679298D01*
X133380063Y-71702046D01*
X133362294Y-71687463D01*
X133251980Y-71628498D01*
X133132282Y-71592188D01*
X133022028Y-71581329D01*
X133027260Y-71579742D01*
X133137574Y-71520777D01*
X133234265Y-71441425D01*
X133313617Y-71344734D01*
X133372582Y-71234420D01*
X133408892Y-71114722D01*
X133421152Y-70990240D01*
X133418080Y-70150990D01*
X133259330Y-69992240D01*
X132085080Y-69992240D01*
X132085080Y-70012240D01*
X131831080Y-70012240D01*
X131831080Y-69992240D01*
X131811080Y-69992240D01*
X131811080Y-69738240D01*
X131831080Y-69738240D01*
X131831080Y-68263990D01*
X132085080Y-68263990D01*
X132085080Y-69738240D01*
X133259330Y-69738240D01*
X133418080Y-69579490D01*
X133421152Y-68740240D01*
X133408892Y-68615758D01*
X133372582Y-68496060D01*
X133313617Y-68385746D01*
X133234265Y-68289055D01*
X133137574Y-68209703D01*
X133027260Y-68150738D01*
X132907562Y-68114428D01*
X132783080Y-68102168D01*
X132243830Y-68105240D01*
X132085080Y-68263990D01*
X131831080Y-68263990D01*
X131672330Y-68105240D01*
X131133080Y-68102168D01*
X131008598Y-68114428D01*
X130888900Y-68150738D01*
X130778586Y-68209703D01*
X130681895Y-68289055D01*
X130602543Y-68385746D01*
X130543578Y-68496060D01*
X130507268Y-68615758D01*
X130495008Y-68740240D01*
X130498080Y-69579490D01*
X130656828Y-69738238D01*
X130576949Y-69738238D01*
X130534774Y-69696063D01*
X130365256Y-69582795D01*
X130176898Y-69504774D01*
X130120044Y-69493465D01*
X127221534Y-66594956D01*
X127193817Y-66561183D01*
X127059059Y-66450589D01*
X126905313Y-66368411D01*
X126738490Y-66317805D01*
X126608477Y-66305000D01*
X126608469Y-66305000D01*
X126565000Y-66300719D01*
X126521531Y-66305000D01*
X126132674Y-66305000D01*
X126190537Y-66234494D01*
X126249502Y-66124180D01*
X126285812Y-66004482D01*
X126298072Y-65880000D01*
X126298072Y-65368095D01*
X126308815Y-65381185D01*
X126405506Y-65460537D01*
X126515820Y-65519502D01*
X126635518Y-65555812D01*
X126760000Y-65568072D01*
X127760000Y-65568072D01*
X127884482Y-65555812D01*
X128004180Y-65519502D01*
X128114494Y-65460537D01*
X128169981Y-65415000D01*
X128210299Y-65415000D01*
X128201928Y-65500000D01*
X128201928Y-67000000D01*
X128214188Y-67124482D01*
X128250498Y-67244180D01*
X128309463Y-67354494D01*
X128388815Y-67451185D01*
X128485506Y-67530537D01*
X128595820Y-67589502D01*
X128715518Y-67625812D01*
X128840000Y-67638072D01*
X130340000Y-67638072D01*
X130464482Y-67625812D01*
X130584180Y-67589502D01*
X130694494Y-67530537D01*
X130791185Y-67451185D01*
X130870537Y-67354494D01*
X130929502Y-67244180D01*
X130965812Y-67124482D01*
X130978072Y-67000000D01*
X130978072Y-65500000D01*
X130965812Y-65375518D01*
X130929502Y-65255820D01*
X130870537Y-65145506D01*
X130792158Y-65050000D01*
X130870537Y-64954494D01*
X130929502Y-64844180D01*
X130936443Y-64821298D01*
X131164250Y-64820000D01*
X131323000Y-64661250D01*
X131323000Y-63512000D01*
X131577000Y-63512000D01*
X131577000Y-64661250D01*
X131735750Y-64820000D01*
X132275000Y-64823072D01*
X132399482Y-64810812D01*
X132519180Y-64774502D01*
X132629494Y-64715537D01*
X132726185Y-64636185D01*
X132805537Y-64539494D01*
X132864502Y-64429180D01*
X132900812Y-64309482D01*
X132913072Y-64185000D01*
X132910000Y-63670750D01*
X132751250Y-63512000D01*
X131577000Y-63512000D01*
X131323000Y-63512000D01*
X131303000Y-63512000D01*
X131303000Y-63258000D01*
X131323000Y-63258000D01*
X131323000Y-63238000D01*
X131577000Y-63238000D01*
X131577000Y-63258000D01*
X132751250Y-63258000D01*
X132910000Y-63099250D01*
X132913072Y-62585000D01*
X132900812Y-62460518D01*
X132864502Y-62340820D01*
X132805537Y-62230506D01*
X132726185Y-62133815D01*
X132629494Y-62054463D01*
X132519180Y-61995498D01*
X132399482Y-61959188D01*
X132275000Y-61946928D01*
X132227291Y-61947200D01*
X132364850Y-61905472D01*
X132518386Y-61823405D01*
X132652962Y-61712962D01*
X132763405Y-61578386D01*
X132845472Y-61424850D01*
X132896008Y-61258254D01*
X132913072Y-61085000D01*
X132913072Y-59985000D01*
X132896008Y-59811746D01*
X132845472Y-59645150D01*
X132763405Y-59491614D01*
X132758252Y-59485335D01*
X132785812Y-59394482D01*
X132798072Y-59270000D01*
X132798072Y-57770000D01*
X132785812Y-57645518D01*
X132749502Y-57525820D01*
X132690537Y-57415506D01*
X132612158Y-57320000D01*
X132690537Y-57224494D01*
X132749502Y-57114180D01*
X132785812Y-56994482D01*
X132798072Y-56870000D01*
X132798072Y-55370000D01*
X132785812Y-55245518D01*
X132781560Y-55231500D01*
X135840000Y-55231500D01*
X135840001Y-66922516D01*
G37*
G04 #@! TD.AperFunction*
D26*
X124920190Y-58775904D02*
X124920190Y-60824375D01*
X124825750Y-60825000D01*
X124667000Y-60983750D01*
X124667000Y-61883000D01*
X124687000Y-61883000D01*
X124687000Y-62137000D01*
X124667000Y-62137000D01*
X124667000Y-62157000D01*
X124413000Y-62157000D01*
X124413000Y-62137000D01*
X123313750Y-62137000D01*
X123185631Y-62265119D01*
X123110000Y-62189488D01*
X123110000Y-62025173D01*
X123322777Y-61883000D01*
X124413000Y-61883000D01*
X124413000Y-60983750D01*
X124254250Y-60825000D01*
X123922713Y-60822806D01*
X123935000Y-60761033D01*
X123935000Y-60438967D01*
X123872168Y-60123088D01*
X123748918Y-59825537D01*
X123569987Y-59557748D01*
X123547250Y-59535011D01*
X123595201Y-59535011D01*
X123634989Y-59538930D01*
X123674777Y-59535011D01*
X123674780Y-59535011D01*
X123793777Y-59523291D01*
X123946462Y-59476974D01*
X124087178Y-59401760D01*
X124210517Y-59300539D01*
X124235888Y-59269624D01*
X124812641Y-58692871D01*
X124858601Y-58683729D01*
X124920190Y-58775904D01*
G04 #@! TA.AperFunction,Conductor*
D27*
G36*
X124920190Y-58775904D02*
G01*
X124920190Y-60824375D01*
X124825750Y-60825000D01*
X124667000Y-60983750D01*
X124667000Y-61883000D01*
X124687000Y-61883000D01*
X124687000Y-62137000D01*
X124667000Y-62137000D01*
X124667000Y-62157000D01*
X124413000Y-62157000D01*
X124413000Y-62137000D01*
X123313750Y-62137000D01*
X123185631Y-62265119D01*
X123110000Y-62189488D01*
X123110000Y-62025173D01*
X123322777Y-61883000D01*
X124413000Y-61883000D01*
X124413000Y-60983750D01*
X124254250Y-60825000D01*
X123922713Y-60822806D01*
X123935000Y-60761033D01*
X123935000Y-60438967D01*
X123872168Y-60123088D01*
X123748918Y-59825537D01*
X123569987Y-59557748D01*
X123547250Y-59535011D01*
X123595201Y-59535011D01*
X123634989Y-59538930D01*
X123674777Y-59535011D01*
X123674780Y-59535011D01*
X123793777Y-59523291D01*
X123946462Y-59476974D01*
X124087178Y-59401760D01*
X124210517Y-59300539D01*
X124235888Y-59269624D01*
X124812641Y-58692871D01*
X124858601Y-58683729D01*
X124920190Y-58775904D01*
G37*
G04 #@! TD.AperFunction*
D26*
X120851082Y-55325537D02*
X120727832Y-55623088D01*
X120665000Y-55938967D01*
X120665000Y-56261033D01*
X120727832Y-56576912D01*
X120851082Y-56874463D01*
X121030013Y-57142252D01*
X121257748Y-57369987D01*
X121525537Y-57548918D01*
X121823088Y-57672168D01*
X122138967Y-57735000D01*
X122461033Y-57735000D01*
X122776912Y-57672168D01*
X123074463Y-57548918D01*
X123342252Y-57369987D01*
X123569987Y-57142252D01*
X123735196Y-56895000D01*
X124001289Y-56895000D01*
X123896063Y-57000226D01*
X123782795Y-57169744D01*
X123704774Y-57358102D01*
X123667129Y-57547359D01*
X123299477Y-57915011D01*
X122401186Y-57915011D01*
X122361398Y-57911092D01*
X122321610Y-57915011D01*
X122321608Y-57915011D01*
X122202611Y-57926731D01*
X122049926Y-57973048D01*
X121984423Y-58008060D01*
X121909209Y-58048262D01*
X121863943Y-58085411D01*
X121785871Y-58149483D01*
X121760506Y-58180391D01*
X120405382Y-59535516D01*
X120374472Y-59560883D01*
X120349107Y-59591791D01*
X120273250Y-59684222D01*
X120210447Y-59801720D01*
X120198037Y-59824938D01*
X120176538Y-59895812D01*
X120151720Y-59977624D01*
X120136080Y-60136411D01*
X120140000Y-60176209D01*
X120139999Y-61374300D01*
X120119524Y-61404944D01*
X120119524Y-57155000D01*
X119951666Y-57155000D01*
X119951666Y-55231500D01*
X120913916Y-55231500D01*
X120851082Y-55325537D01*
G04 #@! TA.AperFunction,Conductor*
D27*
G36*
X120851082Y-55325537D02*
G01*
X120727832Y-55623088D01*
X120665000Y-55938967D01*
X120665000Y-56261033D01*
X120727832Y-56576912D01*
X120851082Y-56874463D01*
X121030013Y-57142252D01*
X121257748Y-57369987D01*
X121525537Y-57548918D01*
X121823088Y-57672168D01*
X122138967Y-57735000D01*
X122461033Y-57735000D01*
X122776912Y-57672168D01*
X123074463Y-57548918D01*
X123342252Y-57369987D01*
X123569987Y-57142252D01*
X123735196Y-56895000D01*
X124001289Y-56895000D01*
X123896063Y-57000226D01*
X123782795Y-57169744D01*
X123704774Y-57358102D01*
X123667129Y-57547359D01*
X123299477Y-57915011D01*
X122401186Y-57915011D01*
X122361398Y-57911092D01*
X122321610Y-57915011D01*
X122321608Y-57915011D01*
X122202611Y-57926731D01*
X122049926Y-57973048D01*
X121984423Y-58008060D01*
X121909209Y-58048262D01*
X121863943Y-58085411D01*
X121785871Y-58149483D01*
X121760506Y-58180391D01*
X120405382Y-59535516D01*
X120374472Y-59560883D01*
X120349107Y-59591791D01*
X120273250Y-59684222D01*
X120210447Y-59801720D01*
X120198037Y-59824938D01*
X120176538Y-59895812D01*
X120151720Y-59977624D01*
X120136080Y-60136411D01*
X120140000Y-60176209D01*
X120139999Y-61374300D01*
X120119524Y-61404944D01*
X120119524Y-57155000D01*
X119951666Y-57155000D01*
X119951666Y-55231500D01*
X120913916Y-55231500D01*
X120851082Y-55325537D01*
G37*
G04 #@! TD.AperFunction*
D26*
X127530013Y-57142252D02*
X127757748Y-57369987D01*
X128025537Y-57548918D01*
X128323088Y-57672168D01*
X128638967Y-57735000D01*
X128961033Y-57735000D01*
X129276912Y-57672168D01*
X129574463Y-57548918D01*
X129842252Y-57369987D01*
X130069987Y-57142252D01*
X130078607Y-57129351D01*
X130129463Y-57224494D01*
X130207842Y-57320000D01*
X130129463Y-57415506D01*
X130070498Y-57525820D01*
X130034188Y-57645518D01*
X130021928Y-57770000D01*
X130021928Y-59270000D01*
X130034188Y-59394482D01*
X130070498Y-59514180D01*
X130097516Y-59564726D01*
X130087353Y-59583738D01*
X130069987Y-59557748D01*
X129842252Y-59330013D01*
X129574463Y-59151082D01*
X129276912Y-59027832D01*
X128961033Y-58965000D01*
X128638967Y-58965000D01*
X128323088Y-59027832D01*
X128025537Y-59151082D01*
X127757748Y-59330013D01*
X127530013Y-59557748D01*
X127351082Y-59825537D01*
X127227832Y-60123088D01*
X127165000Y-60438967D01*
X127165000Y-60761033D01*
X127177113Y-60821928D01*
X126540189Y-60821928D01*
X126540189Y-58775902D01*
X126647394Y-58615458D01*
X126725415Y-58427100D01*
X126765189Y-58227141D01*
X126765189Y-58023263D01*
X126725415Y-57823304D01*
X126647394Y-57634946D01*
X126534126Y-57465428D01*
X126389963Y-57321265D01*
X126220445Y-57207997D01*
X126032087Y-57129976D01*
X125832128Y-57090202D01*
X125628250Y-57090202D01*
X125571588Y-57101473D01*
X125503937Y-57000226D01*
X125398711Y-56895000D01*
X127364804Y-56895000D01*
X127530013Y-57142252D01*
G04 #@! TA.AperFunction,Conductor*
D27*
G36*
X127530013Y-57142252D02*
G01*
X127757748Y-57369987D01*
X128025537Y-57548918D01*
X128323088Y-57672168D01*
X128638967Y-57735000D01*
X128961033Y-57735000D01*
X129276912Y-57672168D01*
X129574463Y-57548918D01*
X129842252Y-57369987D01*
X130069987Y-57142252D01*
X130078607Y-57129351D01*
X130129463Y-57224494D01*
X130207842Y-57320000D01*
X130129463Y-57415506D01*
X130070498Y-57525820D01*
X130034188Y-57645518D01*
X130021928Y-57770000D01*
X130021928Y-59270000D01*
X130034188Y-59394482D01*
X130070498Y-59514180D01*
X130097516Y-59564726D01*
X130087353Y-59583738D01*
X130069987Y-59557748D01*
X129842252Y-59330013D01*
X129574463Y-59151082D01*
X129276912Y-59027832D01*
X128961033Y-58965000D01*
X128638967Y-58965000D01*
X128323088Y-59027832D01*
X128025537Y-59151082D01*
X127757748Y-59330013D01*
X127530013Y-59557748D01*
X127351082Y-59825537D01*
X127227832Y-60123088D01*
X127165000Y-60438967D01*
X127165000Y-60761033D01*
X127177113Y-60821928D01*
X126540189Y-60821928D01*
X126540189Y-58775902D01*
X126647394Y-58615458D01*
X126725415Y-58427100D01*
X126765189Y-58227141D01*
X126765189Y-58023263D01*
X126725415Y-57823304D01*
X126647394Y-57634946D01*
X126534126Y-57465428D01*
X126389963Y-57321265D01*
X126220445Y-57207997D01*
X126032087Y-57129976D01*
X125832128Y-57090202D01*
X125628250Y-57090202D01*
X125571588Y-57101473D01*
X125503937Y-57000226D01*
X125398711Y-56895000D01*
X127364804Y-56895000D01*
X127530013Y-57142252D01*
G37*
G04 #@! TD.AperFunction*
G04 #@! TD*
M02*
