M48
; DRILL file {KiCad (5.1.9)-1} date 03/01/21 14:17:30
; FORMAT={-:-/ absolute / inch / decimal}
; #@! TF.CreationDate,2021-03-01T14:17:30+01:00
; #@! TF.GenerationSoftware,Kicad,Pcbnew,(5.1.9)-1
FMAT,2
INCH
T1C0.0118
T2C0.0157
T3C0.0394
T4C0.0433
%
G90
G05
T1
X4.6191Y-3.1368
X4.6457Y-3.6142
X4.6457Y-3.689
X4.6496Y-2.4358
X4.6496Y-3.1358
X4.6781Y-3.1378
X4.7008Y-3.0409
X4.7372Y-2.7864
X4.7835Y-3.1457
X4.8278Y-2.6841
X4.8465Y-2.752
X4.8533Y-2.8711
X4.8543Y-2.4803
X4.8858Y-2.6811
X4.8976Y-2.4409
X4.9016Y-2.4961
X4.9055Y-2.5512
X4.9163Y-2.7549
X4.9567Y-2.5512
X5.0039Y-2.4961
X5.0039Y-2.5551
X5.122Y-2.8819
X5.207Y-2.9672
X5.2126Y-3.1457
X5.2283Y-2.7195
X5.248Y-3.0433
X5.248Y-3.687
X5.25Y-3.1358
X5.2854Y-3.1358
X5.3189Y-2.5709
T2
X4.7323Y-2.625
X4.7402Y-2.4358
X4.7854Y-2.5197
X4.9134Y-3.6565
X4.9163Y-3.7028
X4.9596Y-3.6565
X4.9626Y-3.7037
X5.001Y-3.6565
X5.001Y-3.7057
X5.1742Y-3.688
X5.1929Y-2.5108
X5.2352Y-2.5404
X5.2864Y-2.8652
X5.304Y-2.9942
X5.3219Y-2.6713
T3
X4.6142Y-2.6236
X4.6142Y-2.7236
X4.6142Y-2.8236
X4.6142Y-2.9236
X4.6142Y-3.0236
T4
X4.8169Y-2.2197
X4.8169Y-2.3969
X5.0728Y-2.2197
X5.0728Y-2.3969
T0
M30
